<svg xmlns="http://www.w3.org/2000/svg" width="321.95" height="110.28" viewBox="0 0 321.95 110.28"><defs><style>.cls-1{fill:#e0499a;}</style></defs><title>Asset 27</title><g id="Layer_2" data-name="Layer 2"><g id="Design"><polygon class="cls-1" points="321.94 99.83 249.16 99.83 249.16 97.44 319.56 97.44 319.56 2.39 2.39 2.39 2.39 97.44 72.78 97.44 72.78 99.83 0 99.83 0 0 321.94 0 321.94 99.83"/><path class="cls-1" d="M25.21,60.69l.12-9.85-6.92,4.22a1,1,0,0,1-1.52-.46l-2.35-4.11a1.16,1.16,0,0,1,.35-1.64L21.81,45l-6.92-3.87a1.16,1.16,0,0,1-.35-1.64l2.35-4.1a1.05,1.05,0,0,1,1.52-.47l6.92,4.22-.12-9.85a1.11,1.11,0,0,1,1.17-1.17h4.69a1.11,1.11,0,0,1,1.18,1.17L32,39.12l7-4.22a1.05,1.05,0,0,1,1.52.47l2.34,4.1a1.14,1.14,0,0,1-.35,1.64l-7,3.87,7,3.87a1.14,1.14,0,0,1,.35,1.64L40.57,54.6a1.05,1.05,0,0,1-1.52.46L32,51l.24,9.73a1.1,1.1,0,0,1-1.18,1.17H26.38A1.1,1.1,0,0,1,25.21,60.69Z"/><path class="cls-1" d="M49.81,59.39a.83.83,0,0,1,.78-.94l7.82-.78c.55-.08.94.16.94.78a15.92,15.92,0,0,0,.24,3.92,2.86,2.86,0,0,0,3,2.11,2.76,2.76,0,0,0,3-2c.23-.62.31-1.4.31-5.55s-.08-5-.31-5.55c-.47-1.49-1.57-2-3.44-2H61a.74.74,0,0,1-.79-.78V41.33a.75.75,0,0,1,.79-.79h1.25c1.79,0,2.89-.47,3.36-1.87.23-.55.31-1.26.31-5.16,0-3-.08-3.76-.31-4.38a2.76,2.76,0,0,0-3-2,2.85,2.85,0,0,0-3,2.11,15.87,15.87,0,0,0-.24,3.91c0,.63-.39.86-.94.78l-7.82-.78a.82.82,0,0,1-.78-.94,19.35,19.35,0,0,1,.71-5.78c1.64-5,5.78-7.9,12.2-7.9,6.64,0,10.63,2.81,12.28,7.82a24.86,24.86,0,0,1,.7,7.2c0,3.52-.16,4.92-.55,6.17a8.55,8.55,0,0,1-4.07,4.85v.16a8,8,0,0,1,4.07,4.85c.39,1.25.55,2.58.55,7.43s-.24,6.8-.7,8.29c-1.65,5-5.71,7.82-12.28,7.82-6.42,0-10.56-2.89-12.2-7.9A19.38,19.38,0,0,1,49.81,59.39Z"/><path class="cls-1" d="M98.7,28v-.16H91.51a.41.41,0,0,0-.47.47v4.38a.75.75,0,0,1-.78.79h-7a.75.75,0,0,1-.79-.79V20a.75.75,0,0,1,.79-.78h24.56a.75.75,0,0,1,.78.78v7a2.69,2.69,0,0,1-.16.86l-13,43.72a.91.91,0,0,1-1,.79H86.11c-.47,0-.71-.31-.55-.94Z"/><path class="cls-1" d="M115,64.63a2.74,2.74,0,0,1,.39-1.48l13.37-21.82c1.72-2.74,2.35-4.54,2.35-8.84a9.47,9.47,0,0,0-.31-3.29,2.85,2.85,0,0,0-3-2.11,2.82,2.82,0,0,0-3,2.11c-.23.63-.31,1.33-.31,4.46,0,.63-.39.86-.94.78l-7.74-.7a.82.82,0,0,1-.78-.94,21.55,21.55,0,0,1,.7-6.41c1.64-5,5.71-7.9,12.28-7.9s10.48,2.81,12.2,7.9a20.21,20.21,0,0,1,.71,6.1,21.69,21.69,0,0,1-3.76,13.22L126,63.54v.08h14.07a.74.74,0,0,1,.79.78v7.19a.75.75,0,0,1-.79.79H115.76a.74.74,0,0,1-.78-.79Z"/><path class="cls-1" d="M155.56,30.3h-.16l-6.65,4.61c-.39.32-.86.16-.86-.47V26a1.33,1.33,0,0,1,.71-1.25l6.88-5.09a2.14,2.14,0,0,1,1.33-.47h7.74a.75.75,0,0,1,.79.78V71.59a.75.75,0,0,1-.79.79h-8.21a.74.74,0,0,1-.78-.79Z"/><path class="cls-1" d="M181.34,48.13V24.92h-1.91V19.15H196.6v29Zm9.77-23.21h-4.29V42.37h4.29Z"/><path class="cls-1" d="M203.51,37.65V24.92h-2.38V19.15H209v18.5Z"/><path class="cls-1" d="M224,48.13V24.92h-4.29V48.13h-5.49v-29h15.27v29Z"/><path class="cls-1" d="M235.23,48.13v-29h5.48v29Z"/><path class="cls-1" d="M253.87,48.13h-6.25V42.37h5.92V24.92H245V15.33h5.49v3.82H259V42.63A5.33,5.33,0,0,1,253.87,48.13Z"/><path class="cls-1" d="M283.83,44.52c-.15,2.57-1.43,3.61-3.34,3.61H264.8l-1.72-29h5.2L269,31.94h2.1l.62-12.79H277l-1,18.19h-6.54l.24,5h9l1.43-23.22h5.24Z"/><path class="cls-1" d="M297,48.13V42.37h2.14V24.92h-3.24l-1.43,23.21h-5.3l1.44-23.21h-1.48V19.15h6.44v1.74l1.81-1.74h4.49a2.85,2.85,0,0,1,2.76,2.94v26Z"/><path class="cls-1" d="M179.43,55.47a.24.24,0,0,1,.25-.25H184c2.37,0,3.76.91,4.39,2.85.3,1,.45,2.12.45,5.73s-.15,4.77-.45,5.73c-.63,1.94-2,2.85-4.39,2.85h-4.34a.24.24,0,0,1-.25-.25Zm3.45,13.93h.81a1.4,1.4,0,0,0,1.54-1.06c.2-.53.28-1.26.28-4.54s-.08-4-.28-4.54a1.4,1.4,0,0,0-1.54-1.06h-.81a.13.13,0,0,0-.15.15v10.9A.13.13,0,0,0,182.88,69.4Z"/><path class="cls-1" d="M191.05,55.47a.24.24,0,0,1,.25-.25h7.5a.24.24,0,0,1,.25.25v2.47a.24.24,0,0,1-.25.26h-4.29a.13.13,0,0,0-.15.15v3.73a.13.13,0,0,0,.15.15h3.71a.24.24,0,0,1,.25.26V65a.24.24,0,0,1-.25.25h-3.71a.13.13,0,0,0-.15.15v3.89a.13.13,0,0,0,.15.15h4.29a.24.24,0,0,1,.25.25v2.48a.24.24,0,0,1-.25.25h-7.5a.24.24,0,0,1-.25-.25Z"/><path class="cls-1" d="M201,55.47a.24.24,0,0,1,.26-.25h2.8a.24.24,0,0,1,.25.25V69.25a.13.13,0,0,0,.15.15h4.34a.24.24,0,0,1,.25.25v2.48a.24.24,0,0,1-.25.25h-7.54a.24.24,0,0,1-.26-.25Z"/><path class="cls-1" d="M210.85,55.47a.24.24,0,0,1,.25-.25h2.8a.24.24,0,0,1,.25.25V72.13a.24.24,0,0,1-.25.25h-2.8a.24.24,0,0,1-.25-.25Z"/><path class="cls-1" d="M219.47,72.38c-.15,0-.22-.1-.27-.25l-3.41-16.66c0-.15,0-.25.2-.25h2.85a.26.26,0,0,1,.28.25l1.74,10.85h.08l1.66-10.85a.26.26,0,0,1,.28-.25h2.8c.18,0,.25.1.2.25l-3.43,16.66c0,.15-.1.25-.25.25Z"/><path class="cls-1" d="M227.52,55.47a.24.24,0,0,1,.25-.25h7.49a.24.24,0,0,1,.26.25v2.47a.25.25,0,0,1-.26.26H231a.13.13,0,0,0-.15.15v3.73a.13.13,0,0,0,.15.15h3.71a.25.25,0,0,1,.26.26V65a.24.24,0,0,1-.26.25H231a.13.13,0,0,0-.15.15v3.89a.13.13,0,0,0,.15.15h4.29a.24.24,0,0,1,.26.25v2.48a.24.24,0,0,1-.26.25h-7.49a.24.24,0,0,1-.25-.25Z"/><path class="cls-1" d="M244.11,72.38c-.15,0-.22,0-.28-.21l-1.94-6.5h-1a.13.13,0,0,0-.15.15v6.31a.24.24,0,0,1-.25.25h-2.8a.24.24,0,0,1-.25-.25V55.47a.24.24,0,0,1,.25-.25h4.09c3.05,0,5,1.44,5,5.25,0,2.17-.73,3.58-1.92,4.39l2.35,7.27c0,.12,0,.25-.13.25Zm-.6-11.91c0-1.79-.56-2.35-1.84-2.35h-.74a.13.13,0,0,0-.15.15v4.39a.13.13,0,0,0,.15.15h.74C243,62.81,243.51,62.29,243.51,60.47Z"/><path class="cls-1" d="M251,72.38a.24.24,0,0,1-.25-.25V65.56l-3.33-10.09c-.05-.15,0-.25.2-.25h2.8c.18,0,.28.07.3.25l1.69,6.28h.1l1.62-6.28c0-.18.13-.25.3-.25h2.75c.21,0,.25.1.21.25l-3.34,10.09v6.57a.24.24,0,0,1-.25.25Z"/><path class="cls-1" d="M266.53,63.27l-.2-.35a7.81,7.81,0,0,1-1.64-4.17,4,4,0,0,1,7.92,0c0,1.29-.6,2.57-2.57,4.8L271.58,66l1.06-1.69a.23.23,0,0,1,.35-.07l1.69,1.11c.13.07.15.2.07.35l-1.69,2.7.48.76c.28.48.51.58.86.58h.1a.24.24,0,0,1,.25.25v2.15a.24.24,0,0,1-.25.25h-1a1.91,1.91,0,0,1-2-1.09l-.23-.35a4.43,4.43,0,0,1-3.68,1.66,3.74,3.74,0,0,1-4-4C263.65,66.93,264.59,65.41,266.53,63.27Zm1.41,6.63c.63,0,1.16-.25,1.95-1.28l-1.85-3c-1,1.21-1.43,2-1.43,2.8A1.29,1.29,0,0,0,267.94,69.9Zm1.84-11.27c0-.81-.42-1.29-1.13-1.29s-1.11.48-1.11,1.29a5.4,5.4,0,0,0,1,2.49C269.56,60,269.78,59.38,269.78,58.63Z"/><path class="cls-1" d="M284.89,72.38a.24.24,0,0,1-.25-.25V58.35a.14.14,0,0,0-.16-.15h-2.7a.24.24,0,0,1-.25-.26V55.47a.24.24,0,0,1,.25-.25h9a.24.24,0,0,1,.25.25v2.47a.24.24,0,0,1-.25.26h-2.7a.13.13,0,0,0-.15.15V72.13a.24.24,0,0,1-.25.25Z"/><path class="cls-1" d="M290.13,69.2a.24.24,0,0,1,.25-.25H293a.24.24,0,0,1,.25.25v2.93a.24.24,0,0,1-.25.25h-2.58a.24.24,0,0,1-.25-.25Z"/><path class="cls-1" d="M298.38,55.47c.05-.15.13-.25.28-.25h3a.27.27,0,0,1,.28.25l3.69,16.66c0,.15-.05.25-.2.25h-2.81a.25.25,0,0,1-.27-.25L301.76,69h-3.25l-.58,3.11a.27.27,0,0,1-.28.25h-2.8a.19.19,0,0,1-.2-.25Zm2.9,10.93-1.08-6h-.08l-1.13,6Z"/><path class="cls-1" d="M87.73,106.89V88.16h3.55v18.73Z"/><path class="cls-1" d="M98.06,106.89v-15H93.43V88.16h4.84a3.26,3.26,0,0,1,3.33,3.19v15.54Z"/><path class="cls-1" d="M117.32,104.55c-.09,1.66-.93,2.34-2.16,2.34H105l-1.11-18.73h3.36l.49,8.27h1.36l.4-8.27h3.39l-.65,11.76H108l.16,3.25H114l.93-15h3.39Z"/><path class="cls-1" d="M127.15,107h-1.76v-3.73h1.54V91.89h-6.31V88.16h9.86V103.4A3.44,3.44,0,0,1,127.15,107Zm-6.53,3.32V95.65h3.54v14.63Z"/><path class="cls-1" d="M141.11,106.89v-15h-2.77v15h-5.09v-3.72h1.54V91.89h-1.23V88.16h11.1v18.73Z"/><path class="cls-1" d="M154.05,106.89v-15h-6.31V88.16h9.86v18.73Zm-6.31,0V95.61h3.54v11.28Z"/><path class="cls-1" d="M167.92,106.89V88.16h3.55v18.73Z"/><path class="cls-1" d="M182.25,99.75l2.38,7.14H181L178.22,98l-.13.13v8.74h-3.54V97.24L177,94.56l-2.28-6.4h3.58L181,96.22l.15-.13V88.16h3.55V97Z"/><path class="cls-1" d="M195,106.89V88.16h3.55v18.73Z"/><path class="cls-1" d="M209.62,96.12h-1.91l2.9,7.25v3.52h-9.37v-3.72h5.45l-5.79-15h3.82L206.54,93h.21l.71-4.81h3.36Z"/><path class="cls-1" d="M219.45,106.89v-15h-2.77v15h-3.55V88.16H223v18.73Z"/><path class="cls-1" d="M230.88,106.89h-4v-3.72h3.82V91.89h-5.52v-6.2h3.55v2.47h5.51v15.18A3.44,3.44,0,0,1,230.88,106.89Z"/></g></g></svg>