<svg xmlns="http://www.w3.org/2000/svg" width="165" height="47.57" viewBox="0 0 165 47.57"><defs><style>.cls-1{fill:#fff;}</style></defs><title>Asset 28</title><g id="Layer_2" data-name="Layer 2"><g id="Links_Info" data-name="Links&amp;Info"><path class="cls-1" d="M25.72,34.49l-7.28-4.31v8.48H11V30.18L3.72,34.49,0,28l7.29-4.16L0,19.62l3.72-6.54L11,17.39V8.92h7.44v8.47l7.28-4.31,3.72,6.54-7.28,4.17L29.44,28Z"/><path class="cls-1" d="M51.44,47.57c-8,0-13.95-5.23-13.95-12.2v-4H47v4a4.06,4.06,0,0,0,4.32,4,4.18,4.18,0,0,0,4.4-4.48V32.55c0-.92-.33-5.24-5-5.24V18.93c4.4,0,5-2.49,5-3.49V12.53a4.19,4.19,0,0,0-4.32-4.32A4.09,4.09,0,0,0,47,12.12v2.57H37.49V12.2C37.49,5.56,43.31,0,51.36,0s14,6.23,14,12.62v3.32a9.29,9.29,0,0,1-3.9,7.22c2.74,1.75,3.9,5.07,3.9,8.05V36C65.31,41.18,59.42,47.57,51.44,47.57Z"/><path class="cls-1" d="M88.77,46.74H78.31L91.59,10H82.88v4.49H73.33V.82h28.89V9.46Z"/><path class="cls-1" d="M111,46.74V38.6c5.81-6.89,11-13.19,16.6-19.76a4.23,4.23,0,0,0,1.33-2.74V12.37a4.19,4.19,0,0,0-4-4.16,4.13,4.13,0,0,0-4.32,4.16v5.4H111v-5.4C111,5.48,117.1,0,124.82,0c8.64,0,13.7,5.4,13.7,12.37v3.48a10.3,10.3,0,0,1-2.07,6.07c-1.33,1.82-3.32,4-5.81,7.06l-7.48,9.29h16v8.47Z"/><path class="cls-1" d="M155.45,46.74V11.45l-6.23,4.32V6.06L156.86.82H165V46.74Z"/></g></g></svg>