<svg id="Design" xmlns="http://www.w3.org/2000/svg" width="110" height="110" viewBox="0 0 110 110">
  <defs>
    <style>
      .cls-1 {
        fill: #fff;
      }
    </style>
  </defs>
  <title>h_w_header_logo</title>
  <g>
    <polygon class="cls-1" points="107.47 0 107.47 0 2.53 0 2.53 0 0 0 0 0 0 2.56 0 107.44 0 109.74 0 110 1.26 110 1.26 110 107.47 110 108.89 110 110 110 110 0 107.47 0"/>
    <g>
      <path d="M-747.48,4062.35l-0.21,0-1.1.09c-1.08.06-2.17,0.13-3.26,0.18l-4.16.16-2.68.07-3.07,0H-766c-0.12-1.53-.13-3.05-0.15-4.58l0.11,0c0.27,0,.53,0,0.8,0a6,6,0,0,1,.75,0l2.53,0c0.64,0,1.27,0,1.91,0l2.12,0.07,2.1,0,3.56,0c0.73,0,1.46,0,2.19,0h2.31l0.3,0C-747.49,4059.77-747.49,4061-747.48,4062.35Z" transform="translate(839.5 -3969.39)"/>
      <path d="M-760.27,4036a3.49,3.49,0,0,1,1.39-.46,9.09,9.09,0,0,1,5.08.68,6,6,0,0,1,1.14.85,16.8,16.8,0,0,1,2.87,3.26,14.39,14.39,0,0,1,1.55,2.77,5.68,5.68,0,0,1,.49,1.93c0,0.77.08,1.54,0.1,2.31a2,2,0,0,1-.11.71c-0.29.8-.62,1.6-0.92,2.4a6,6,0,0,1-1.55,2.07,8.49,8.49,0,0,1-4.43,2.27,9.7,9.7,0,0,1-3.07.31,3.39,3.39,0,0,1-.74-0.16,22.12,22.12,0,0,1-5-2.5,6.14,6.14,0,0,1-2.23-2.79,11.08,11.08,0,0,1-.78-3.86c0-.46,0-0.93,0-1.39,0,0,0-.79,0-1.18a4.17,4.17,0,0,1,.79-2.56,10.83,10.83,0,0,1,4.43-4.13A10.62,10.62,0,0,0-760.27,4036Z" transform="translate(839.5 -3969.39)"/>
      <path d="M-769.76,3992c2.14-.19,4.28-0.18,6.41-0.2a0.82,0.82,0,0,1,.05.18c0,0.43,0,.86,0,1.3a11.37,11.37,0,0,1,0,1.21c0,1.37,0,2.73,0,4.1,0,1,0,2.07,0,3.1s-0.06,2.29-.08,3.43,0,2.27,0,3.41c0,1.93,0,3.85,0,5.78,0,1.19.05,2.37,0.07,3.56s0,2.49,0,3.74c0,0.15,0,.3,0,0.49l-5.44,0c0-.12,0-0.23,0-0.34,0-.6-0.1-1.19-0.13-1.79-0.1-1.76-.21-3.52-0.28-5.28-0.1-2.25-.18-4.5-0.25-6.75q-0.08-2.17-.12-4.35c0-1.66-.08-3.32-0.09-5,0-2.11,0-4.22,0-6.33C-769.78,3992.19-769.77,3992.11-769.76,3992Z" transform="translate(839.5 -3969.39)"/>
      <path d="M-805.27,4004l0.3,0,1.61-.06,4.06-.06c0-.79,0-1.58.06-2.36,0-1.66.06-3.32,0.09-5,0-.62,0-1.23.06-1.85,0-.11,0-0.21,0-0.33,0.39-.08,4.59-0.25,4.87-0.19,0.05,0.22.11,4.64,0.16,9.71h1.5l3.91,0c1.5,0,3,0,4.48.09L-782,4004c0-2.55,0-5.11,0-7.66,0-1.71,0-3.42-.05-5.13s0-3.59,0-5.39c0-.22,0-0.43,0-0.71l5,0.27c0,0.18,0,.33,0,0.49,0,0.86.09,1.72,0.12,2.58,0.09,2.54.18,5.08,0.24,7.62,0.08,3.24.15,6.49,0.21,9.73q0.06,3.13.1,6.27c0,2.4.06,4.79,0.07,7.19,0,3,0,6.08,0,9.11,0,0.11,0,.23,0,0.39a46.47,46.47,0,0,1-5.85,0,1.94,1.94,0,0,1,0-.26c0-.62,0-1.24,0-1.88s0-1.16,0-1.74q0-3,0-5.91c0-1.49,0-3,0-4.47s0.05-3.06.07-4.58l-2.31-.11c-0.93,0-1.86-.05-2.79-0.1s-2.06-.14-3.08-0.19-2-.09-3.06-0.13l-0.7,0c0,5.05,0,9.49,0,9.83a30.48,30.48,0,0,1-5.63.09c0-.06,0-0.14,0-0.21q0-1.77,0-3.54c0-1.89,0-3.79.08-5.68,0-.23,0-0.47,0-0.7l-2.2,0-3.36-.1-0.44,0Z" transform="translate(839.5 -3969.39)"/>
      <path d="M-771.67,4045.53a2.41,2.41,0,0,0-.06-0.48c-0.13-.51-0.26-1-0.42-1.54a10.24,10.24,0,0,0-1.24-2.67,11,11,0,0,0-1.65-1.94,7,7,0,0,0-1.42-1.12q-0.84-.44-1.69-0.84a11.84,11.84,0,0,0-3.21-1c-0.83-.13-1.67-0.27-2.51-0.37-0.63-.07-1.27-0.11-1.91-0.13-1,0-1.93,0-2.9,0-1.22,0-2.44,0-3.66,0s-2.14,0-3.21,0l-4.56.06-4.11,0H-810l-6.31,0h-4.59l-0.35,0c0,0.14,0,.24,0,0.34,0,0.63.07,1.25,0.1,1.88,0.07,1.49.14,3,.22,4.47,0.05,1,.11,2,0.16,3,0.09,1.89.18,3.78,0.27,5.67,0.08,1.62.17,3.25,0.25,4.87s0.16,3.49.23,5.24c0,0.22,0,.43,0,0.65s0,0.72.08,1.08c0,0.12,0,.44,0,0.52,0.21,0.21,3.62,0,5.09-.16,0-.15,0-0.27,0-0.4q-0.05-.94-0.11-1.87c-0.07-1.09-.15-2.18-0.22-3.27,0-.31-0.05-0.62-0.05-0.94s0-.74,0-1.11,0-.47,0-0.71l0.25,0,1.8-.06,9.6-.17,3.89-.06,4.45-.06,5-.12c1.7,0,5.2-.17,5.25-0.19a1.21,1.21,0,0,1,.33.48,5.65,5.65,0,0,1,.48.94c0.15,0.42.35,0.82,0.54,1.22l0.88,1.88,1,2.19c0.25,0.54.53,1.07,0.76,1.62a0.44,0.44,0,0,0,.51.32,2.47,2.47,0,0,1,.34,0l4.82,0.06,0.31,0c-1.47-3.18-3-6.26-4.67-9.38l1.32-.54c0.2-.08.41-0.13,0.61-0.21a11.64,11.64,0,0,0,3.05-1.91,17,17,0,0,0,1.28-1.2,5.66,5.66,0,0,0,1.14-1.51,4.14,4.14,0,0,0,.35-0.87A6.07,6.07,0,0,0-771.67,4045.53Zm-5.77-.17a3.55,3.55,0,0,1-.2.91l-0.58.69a3.59,3.59,0,0,1-1.55,1.06,23.75,23.75,0,0,1-3.43,1,7.45,7.45,0,0,1-2,.13,23.47,23.47,0,0,0-3,0c-1.34.08-2.68,0.12-4,.16-1.9.05-3.79,0.09-5.69,0.12-1.44,0-2.87,0-4.31,0s-3,0-4.53,0l-3.13,0-3.66-.05h-2.2c-0.17-2.79-.26-5.57-0.2-8.38l0.34-.06c1.86-.15,3.72-0.32,5.59-0.36,1.54,0,3.08-.06,4.62-0.05,1.16,0,2.33.06,3.49,0.09l2.87,0.05,3.29,0.06c0.59,0,1.18,0,1.77,0,1.3,0.06,2.59-.07,3.88-0.07h1.8c1,0,2.06,0,3.09,0a8.38,8.38,0,0,1,1.42.09,8.07,8.07,0,0,0,1,.06c0.67,0.05,1.34.13,2,.17a1.38,1.38,0,0,1,.61.19c0.33,0.18.66,0.35,1,.55a3.56,3.56,0,0,1,1.16,1.26A3.8,3.8,0,0,1-777.44,4045.35Z" transform="translate(839.5 -3969.39)"/>
    </g>
  </g>
</svg>
