<svg xmlns="http://www.w3.org/2000/svg" width="520" height="222" viewBox="0 0 520 222"><defs><style>.cls-1{opacity:0.9;}.cls-2{fill:#fff;}</style></defs><title>Asset 24</title><g id="Layer_2" data-name="Layer 2"><g id="Design"><g class="cls-1"><path class="cls-2" d="M514.85,0H0V222H520V0ZM5.15,5.16H219V216.83H5.15ZM514.85,216.83H224.16V5.16H514.85Z"/><path class="cls-2" d="M10.13,10.14V211.86H214.49V10.14Z"/><path class="cls-2" d="M228.72,10.14V211.86H510.26V10.14Z"/><path d="M239.62,24.86a.47.47,0,0,1,.5-.5H253a.47.47,0,0,1,.5.5v2.77a.47.47,0,0,1-.5.5h-9a.27.27,0,0,0-.3.3V39.3a.27.27,0,0,0,.3.3h7.82a.48.48,0,0,1,.5.5v2.77a.47.47,0,0,1-.5.5H244a.27.27,0,0,0-.3.3V58.07a.48.48,0,0,1-.5.5h-3.06a.48.48,0,0,1-.5-.5Z"/><path d="M272,58.58a.51.51,0,0,1-.55-.35l-4.26-14.29a13.07,13.07,0,0,1-1.41.05h-2.06a.27.27,0,0,0-.3.3V58.07a.48.48,0,0,1-.5.5h-3.06a.48.48,0,0,1-.5-.5V24.86a.47.47,0,0,1,.5-.5h6c6,0,9.23,2.62,9.23,9.86,0,4.58-1.5,7.35-4.16,8.71l4.76,15.15c.1.25,0,.5-.25.5Zm-1-24.36c0-4.63-1.51-6.09-5.12-6.09h-2.16a.27.27,0,0,0-.3.3V40a.27.27,0,0,0,.3.3h2.16C269.42,40.31,271,38.9,271,34.22Z"/><path d="M282,24.86a.47.47,0,0,1,.5-.5H295.4a.47.47,0,0,1,.5.5v2.77a.47.47,0,0,1-.5.5h-9a.27.27,0,0,0-.3.3V39.1a.27.27,0,0,0,.3.3h7.82a.47.47,0,0,1,.5.5v2.77a.48.48,0,0,1-.5.5h-7.82a.27.27,0,0,0-.3.3v11a.27.27,0,0,0,.3.3h9a.47.47,0,0,1,.5.5v2.77a.47.47,0,0,1-.5.5H282.51a.48.48,0,0,1-.5-.5Z"/><path d="M301.92,24.86a.47.47,0,0,1,.5-.5h12.89a.47.47,0,0,1,.5.5v2.77a.47.47,0,0,1-.5.5h-9a.27.27,0,0,0-.3.3V39.1a.27.27,0,0,0,.3.3h7.82a.47.47,0,0,1,.5.5v2.77a.48.48,0,0,1-.5.5h-7.82a.27.27,0,0,0-.3.3v11a.27.27,0,0,0,.3.3h9a.47.47,0,0,1,.5.5v2.77a.47.47,0,0,1-.5.5H302.42a.48.48,0,0,1-.5-.5Z"/><path d="M328.65,59c-5.17,0-7.77-2.92-8-8.81,0-.3.1-.5.4-.55l3-.55a.43.43,0,0,1,.55.45c.2,4.23,1.55,5.74,4.16,5.74s3.81-1.26,3.81-5.89c0-3.93-.75-5.38-3.46-6.44l-2.06-.8c-4.67-1.81-6-4.13-6-9.41,0-5.84,2.51-8.86,7.62-8.86s7.47,2.82,7.72,8.15a.51.51,0,0,1-.45.55l-2.81.45a.4.4,0,0,1-.55-.4c-.1-3.37-1.2-5-3.81-5s-3.71,1.51-3.71,5,.8,4.73,3.56,5.79l2.06.8c4.36,1.76,5.92,4,5.92,9.71C336.58,55.81,334.42,59,328.65,59Z"/><path d="M347.11,58.58a.48.48,0,0,1-.5-.5V28.43a.27.27,0,0,0-.3-.3h-5.62a.48.48,0,0,1-.5-.5V24.86a.47.47,0,0,1,.5-.5h15.9a.47.47,0,0,1,.5.5v2.77a.48.48,0,0,1-.5.5H351a.27.27,0,0,0-.3.3V58.07a.48.48,0,0,1-.5.5Z"/><path d="M367.28,58.58a.48.48,0,0,1-.5-.5V44.44L360.2,24.86c-.1-.3,0-.5.35-.5h3.16c.35,0,.5.15.6.5l4.46,14.34h.15l4.46-14.34c.1-.35.25-.5.55-.5h3.11c.35,0,.45.2.35.5l-6.57,19.57V58.07a.48.48,0,0,1-.5.5Z"/><path d="M382.72,24.86a.47.47,0,0,1,.5-.5h3.06a.47.47,0,0,1,.5.5V54.5a.27.27,0,0,0,.3.3H396a.48.48,0,0,1,.5.5v2.77a.48.48,0,0,1-.5.5H383.23a.48.48,0,0,1-.5-.5Z"/><path d="M402.19,24.86a.47.47,0,0,1,.5-.5h12.89a.47.47,0,0,1,.5.5v2.77a.47.47,0,0,1-.5.5h-9a.27.27,0,0,0-.3.3V39.1a.27.27,0,0,0,.3.3h7.82a.47.47,0,0,1,.5.5v2.77a.48.48,0,0,1-.5.5h-7.82a.27.27,0,0,0-.3.3v11a.27.27,0,0,0,.3.3h9a.47.47,0,0,1,.5.5v2.77a.47.47,0,0,1-.5.5H402.69a.48.48,0,0,1-.5-.5Z"/><path d="M252.11,104.93a.5.5,0,0,1-.55-.4l-3.86-13h-1.91a.27.27,0,0,0-.3.3v12.58a.47.47,0,0,1-.5.5h-5.57a.47.47,0,0,1-.5-.5V71.22a.47.47,0,0,1,.5-.5h8.12c6.07,0,10,2.87,10,10.47,0,4.33-1.45,7.15-3.81,8.76l4.66,14.49c.1.25,0,.5-.25.5Zm-1.2-23.75c0-3.57-1.1-4.68-3.66-4.68h-1.45a.27.27,0,0,0-.3.3v8.76a.27.27,0,0,0,.3.3h1.45C249.8,85.86,250.91,84.8,250.91,81.18Z"/><path d="M268.76,71.22c.1-.3.25-.5.55-.5h5.92a.55.55,0,0,1,.55.5l7.32,33.21a.38.38,0,0,1-.4.5h-5.57a.52.52,0,0,1-.55-.5l-1.1-6.19H269l-1.15,6.19a.52.52,0,0,1-.55.5h-5.57a.39.39,0,0,1-.4-.5ZM274.53,93l-2.16-11.88h-.15L270,93Z"/><path d="M287.38,71.22a.47.47,0,0,1,.5-.5h5.42c.45,0,.7.15.8.5l5.22,18h.2l5-18c.1-.35.35-.5.8-.5h5.37a.47.47,0,0,1,.5.5v33.21a.47.47,0,0,1-.5.5h-4.86a.48.48,0,0,1-.5-.5V84.65H305l-3.71,13.69a.65.65,0,0,1-.65.5h-2.76a.65.65,0,0,1-.65-.5l-3.71-13.69h-.3v19.78a.48.48,0,0,1-.5.5h-4.86a.47.47,0,0,1-.5-.5Z"/><path d="M317.32,71.22a.47.47,0,0,1,.5-.5h14.89a.47.47,0,0,1,.5.5v4.93a.48.48,0,0,1-.5.5h-8.53a.27.27,0,0,0-.3.3V84.4a.27.27,0,0,0,.3.3h7.37a.47.47,0,0,1,.5.5v4.93a.47.47,0,0,1-.5.5h-7.37a.27.27,0,0,0-.3.3v7.75a.27.27,0,0,0,.3.3h8.53a.48.48,0,0,1,.5.5v4.93a.48.48,0,0,1-.5.5H317.82a.47.47,0,0,1-.5-.5Z"/><path d="M338.39,71.22a.47.47,0,0,1,.5-.5h6.27a.62.62,0,0,1,.7.5l5.67,21.49h.25V71.22a.47.47,0,0,1,.5-.5H357a.47.47,0,0,1,.5.5v33.21a.48.48,0,0,1-.5.5h-6a.63.63,0,0,1-.7-.5L344.4,82.94h-.25v21.49a.48.48,0,0,1-.5.5h-4.76a.47.47,0,0,1-.5-.5Z"/><path d="M381.12,86.77l-.4-.7c-2.06-3.22-3.26-5.64-3.26-8.3,0-4.53,3.26-7.5,7.87-7.5s7.87,2.92,7.87,7.5c0,2.57-1.2,5.13-5.12,9.56l3.06,4.88,2.11-3.37a.45.45,0,0,1,.7-.15l3.36,2.21a.49.49,0,0,1,.15.7L394.11,97l1,1.51c.55,1,1,1.16,1.71,1.16h.2a.47.47,0,0,1,.5.5v4.28a.48.48,0,0,1-.5.5h-1.91a3.84,3.84,0,0,1-3.91-2.16l-.45-.7a8.79,8.79,0,0,1-7.32,3.32c-4.81,0-8-3.07-8-7.9C375.4,94.06,377.26,91,381.12,86.77ZM383.93,100c1.25,0,2.31-.5,3.86-2.57l-3.66-5.89c-2.06,2.41-2.86,3.93-2.86,5.59A2.59,2.59,0,0,0,383.93,100Zm3.66-22.49c0-1.61-.85-2.57-2.26-2.57s-2.21,1-2.21,2.57c0,.86.35,2.16,2,5C387.14,80.17,387.59,79,387.59,77.51Z"/><path d="M244.49,117.57c.1-.3.25-.5.55-.5H251a.55.55,0,0,1,.55.5l7.32,33.21a.38.38,0,0,1-.4.5h-5.57a.52.52,0,0,1-.55-.5l-1.1-6.19h-6.47l-1.15,6.19a.52.52,0,0,1-.55.5h-5.57a.39.39,0,0,1-.4-.5Zm5.77,21.79-2.16-11.88h-.15l-2.26,11.88Z"/><path d="M271.12,151.74c-6.17,0-9.13-3.27-9.23-9.16,0-.3.1-.5.4-.55l5.37-.85c.35-.05.55.1.55.4.1,3.17,1,4.43,3,4.43s2.71-1,2.71-4.08-.6-4.08-3.16-5.08l-2.06-.81c-4.81-1.86-6.47-4.43-6.47-9.91,0-6.19,3-9.51,9-9.51s8.78,3.12,9,8.5a.51.51,0,0,1-.45.55l-5.11.8c-.3.05-.55-.1-.55-.4-.05-2.47-.9-3.72-2.71-3.72s-2.61,1.11-2.61,3.42c0,2.57.55,3.37,3.21,4.43l2.06.81c4.66,1.81,6.47,4.33,6.47,10.11C280.55,148.11,277.89,151.74,271.12,151.74Z"/><path d="M285.62,117.57a.47.47,0,0,1,.5-.5h5.57a.47.47,0,0,1,.5.5v33.21a.47.47,0,0,1-.5.5h-5.57a.47.47,0,0,1-.5-.5Z"/><path d="M303.87,117.57c.1-.3.25-.5.55-.5h5.92a.55.55,0,0,1,.55.5l7.32,33.21a.38.38,0,0,1-.4.5h-5.57a.52.52,0,0,1-.55-.5l-1.1-6.19h-6.47L303,150.78a.52.52,0,0,1-.55.5h-5.57a.39.39,0,0,1-.4-.5Zm5.77,21.79-2.16-11.88h-.15l-2.26,11.88Z"/><path d="M322.48,117.57a.47.47,0,0,1,.5-.5h6.27a.62.62,0,0,1,.7.5l5.67,21.49h.25V117.57a.47.47,0,0,1,.5-.5h4.76a.47.47,0,0,1,.5.5v33.21a.48.48,0,0,1-.5.5h-6a.63.63,0,0,1-.7-.5l-5.92-21.49h-.25v21.49a.48.48,0,0,1-.5.5H323a.47.47,0,0,1-.5-.5Z"/><path d="M359.05,117.57a.47.47,0,0,1,.5-.5h5.57a.47.47,0,0,1,.5.5V130.7l6.22-13.23a.64.64,0,0,1,.65-.4h5.82a.31.31,0,0,1,.25.5l-6.82,13.28,7.67,19.93a.35.35,0,0,1-.3.5h-6c-.3,0-.45-.1-.5-.35l-5-13.64-2,4.23v9.26a.47.47,0,0,1-.5.5h-5.57a.47.47,0,0,1-.5-.5Z"/><path d="M383.93,117.57a.47.47,0,0,1,.5-.5H390a.47.47,0,0,1,.5.5v33.21a.47.47,0,0,1-.5.5h-5.57a.47.47,0,0,1-.5-.5Z"/><path d="M401.68,151.28a.48.48,0,0,1-.5-.5V123.31a.27.27,0,0,0-.3-.3h-5.37a.47.47,0,0,1-.5-.5v-4.93a.47.47,0,0,1,.5-.5h17.9a.47.47,0,0,1,.5.5v4.93a.47.47,0,0,1-.5.5h-5.37a.27.27,0,0,0-.3.3v27.47a.48.48,0,0,1-.5.5Z"/><path d="M417,134.18c0-8.86.2-10.42.65-11.88,1.2-3.67,4-5.69,8.48-5.69,5.47,0,8.68,2.92,9,8.65,0,.3-.1.55-.45.6l-5.27.91a.43.43,0,0,1-.55-.45c-.1-2.72-1-3.77-2.61-3.77a2.1,2.1,0,0,0-2.26,1.56c-.2.75-.3,1.36-.3,10.06s.1,9.31.3,10.06a2.1,2.1,0,0,0,2.26,1.56c1.66,0,2.51-1.06,2.61-3.77a.43.43,0,0,1,.55-.45l5.27.91c.35.05.45.3.45.6-.3,5.74-3.51,8.66-9,8.66-4.51,0-7.27-2-8.48-5.69C417.24,144.59,417,143,417,134.18Z"/><path d="M439.76,117.57a.47.47,0,0,1,.5-.5h5.57a.47.47,0,0,1,.5.5v13a.27.27,0,0,0,.3.3h4.76a.27.27,0,0,0,.3-.3v-13a.47.47,0,0,1,.5-.5h5.57a.47.47,0,0,1,.5.5v33.21a.48.48,0,0,1-.5.5h-5.57a.48.48,0,0,1-.5-.5V137.09a.27.27,0,0,0-.3-.3h-4.76a.27.27,0,0,0-.3.3v13.69a.47.47,0,0,1-.5.5h-5.57a.47.47,0,0,1-.5-.5Z"/><path d="M464.38,117.57a.47.47,0,0,1,.5-.5h14.89a.47.47,0,0,1,.5.5v4.93a.48.48,0,0,1-.5.5h-8.53a.27.27,0,0,0-.3.3v7.45a.27.27,0,0,0,.3.3h7.37a.47.47,0,0,1,.5.5v4.93a.47.47,0,0,1-.5.5h-7.37a.27.27,0,0,0-.3.3V145a.27.27,0,0,0,.3.3h8.53a.48.48,0,0,1,.5.5v4.93a.48.48,0,0,1-.5.5H464.89a.47.47,0,0,1-.5-.5Z"/><path d="M485.45,117.57a.47.47,0,0,1,.5-.5h6.27a.62.62,0,0,1,.7.5l5.67,21.49h.25V117.57a.47.47,0,0,1,.5-.5h4.76a.47.47,0,0,1,.5.5v33.21a.48.48,0,0,1-.5.5h-6a.63.63,0,0,1-.7-.5l-5.92-21.49h-.25v21.49a.48.48,0,0,1-.5.5H486a.47.47,0,0,1-.5-.5Z"/><path d="M239.62,163.92a.47.47,0,0,1,.5-.5h6.47c5.92,0,8.48,2.57,8.48,8.81,0,4.28-1.46,6.39-4,7.5v.1c2.56.81,4.31,3.12,4.31,8,0,7.35-3,9.81-9.33,9.81h-6a.48.48,0,0,1-.5-.5Zm6.77,14.29c3.21,0,4.56-1.21,4.56-5.49s-1.2-5.53-4.66-5.53H244a.27.27,0,0,0-.3.3v10.42a.27.27,0,0,0,.3.3ZM244,193.86h2.26c3.71,0,5.07-1.36,5.07-6.09,0-4.58-1.46-6-4.92-6H244a.27.27,0,0,0-.3.3v11.47A.27.27,0,0,0,244,193.86Z"/><path d="M265.76,197.64a.48.48,0,0,1-.5-.5V183.5l-6.57-19.57c-.1-.3,0-.5.35-.5h3.16c.35,0,.5.15.6.5l4.46,14.34h.15l4.46-14.34c.1-.35.25-.5.55-.5h3.11c.35,0,.45.2.35.5l-6.57,19.57v13.64a.48.48,0,0,1-.5.5Z"/><path d="M296.65,163.92c.1-.3.25-.5.55-.5h3a.55.55,0,0,1,.55.5l7.17,33.21a.42.42,0,0,1-.45.5h-3a.52.52,0,0,1-.55-.5l-1.5-7.5h-7.57l-1.5,7.5c-.05.3-.2.5-.5.5h-3a.42.42,0,0,1-.45-.5Zm5.06,22.19-2.91-14.89h-.15l-3.11,14.89Z"/><path d="M313.36,163.92a.47.47,0,0,1,.5-.5h3.06a.47.47,0,0,1,.5.5v14a.27.27,0,0,0,.3.3H325a.27.27,0,0,0,.3-.3v-14a.47.47,0,0,1,.5-.5h3.06a.47.47,0,0,1,.5.5v33.21a.47.47,0,0,1-.5.5h-3.06a.48.48,0,0,1-.5-.5V182.29a.27.27,0,0,0-.3-.3h-7.32a.27.27,0,0,0-.3.3v14.84a.48.48,0,0,1-.5.5h-3.06a.48.48,0,0,1-.5-.5Z"/><path d="M342.1,163.92c.1-.3.25-.5.55-.5h3a.55.55,0,0,1,.55.5l7.17,33.21a.42.42,0,0,1-.45.5h-3a.52.52,0,0,1-.55-.5l-1.5-7.5h-7.57l-1.5,7.5c-.05.3-.2.5-.5.5h-3a.42.42,0,0,1-.45-.5Zm5.06,22.19-2.91-14.89h-.15L341,186.11Z"/><path d="M371.44,197.64a.51.51,0,0,1-.55-.35L366.62,183a13.07,13.07,0,0,1-1.41.05h-2.06a.27.27,0,0,0-.3.3v13.79a.48.48,0,0,1-.5.5H359.3a.48.48,0,0,1-.5-.5V163.92a.47.47,0,0,1,.5-.5h6c6,0,9.23,2.62,9.23,9.86,0,4.58-1.5,7.35-4.16,8.71l4.76,15.15c.1.25,0,.5-.25.5Zm-1-24.36c0-4.63-1.51-6.09-5.12-6.09h-2.16a.27.27,0,0,0-.3.3v11.57a.27.27,0,0,0,.3.3h2.16C368.83,179.37,370.43,178,370.43,173.28Z"/><path d="M381.52,193c-.5-1.51-.65-2.77-.65-12.48s.15-11,.65-12.48c1.05-3.27,3.61-5.08,7.47-5.08s6.47,1.81,7.47,5.08c.5,1.51.65,2.77.65,12.48s-.15,11-.65,12.48c-1,3.27-3.61,5.08-7.47,5.08S382.57,196.28,381.52,193Zm11.08-1.16c.3-1,.4-1.76.4-11.32s-.1-10.32-.4-11.32a3.49,3.49,0,0,0-3.61-2.42,3.43,3.43,0,0,0-3.56,2.42c-.35,1-.45,1.76-.45,11.32s.1,10.32.45,11.32a3.43,3.43,0,0,0,3.56,2.41A3.49,3.49,0,0,0,392.6,191.85Z"/><path d="M404.09,163.92a.47.47,0,0,1,.5-.5h3.76a.68.68,0,0,1,.75.5l7.62,25.66h.2V163.92a.47.47,0,0,1,.5-.5h2.66a.47.47,0,0,1,.5.5v33.21a.48.48,0,0,1-.5.5h-3.56a.68.68,0,0,1-.75-.5L408,171.47h-.25v25.66a.48.48,0,0,1-.5.5h-2.66a.48.48,0,0,1-.5-.5Z"/><path d="M428.12,163.92a.47.47,0,0,1,.5-.5h3.06a.47.47,0,0,1,.5.5v33.21a.48.48,0,0,1-.5.5h-3.06a.48.48,0,0,1-.5-.5Z"/><path d="M157.1,106.5l-11.6,0c0-.26-.08-.48-.1-.71-.1-1.25-.21-2.51-.28-3.76-.21-3.7-.44-7.4-.61-11.1-.21-4.72-.38-9.45-.54-14.18q-.16-4.56-.26-9.14c-.08-3.49-.16-7-.2-10.48,0-4.43,0-8.86-.06-13.29,0-.16,0-.33,0-.56,4.56-.4,9.11-.38,13.67-.42a1.73,1.73,0,0,1,.11.37c0,.91-.1,1.81,0,2.73a23.61,23.61,0,0,1-.07,2.55c0,2.87-.06,5.75-.07,8.62,0,2.17,0,4.35,0,6.52,0,2.41-.13,4.81-.16,7.22s0,4.77,0,7.16c0,4,0,8.09,0,12.14,0,2.49.11,5,.15,7.47s0,5.24.06,7.86c0,.31,0,.63,0,1"/><path d="M129.54,100.56c0-5-.09-10.07-.15-15.1q-.08-6.59-.21-13.17c-.14-6.82-.28-13.63-.45-20.45-.14-5.34-.33-10.68-.52-16-.06-1.81-.16-3.62-.25-5.43,0-.33-.05-.65-.09-1L117.3,28.8c0,.58,0,1,0,1.49,0,3.77,0,7.55,0,11.32,0,3.59.11,7.18.11,10.77,0,5.37,0,10.74-.05,16.11l-4.5-.15c-3.19-.09-6.37-.14-9.56-.19q-4.17-.06-8.34-.09h-3.2c-.1-10.65-.23-19.93-.33-20.4-.6-.11-9.55.23-10.38.41,0,.25-.06.47-.07.69-.05,1.3-.11,2.59-.14,3.89-.07,3.49-.11,7-.19,10.47,0,1.66-.09,3.31-.13,5-2.88,0-5.76.08-8.65.13-1.15,0-2.29.08-3.44.12-.21,0-.41,0-.65.07l-.45,10.55c.37,0,.65.07.94.08,2.39.08,4.78.16,7.16.22l4.7.09c0,.49,0,1-.06,1.48-.08,4-.12,8-.17,11.94q0,3.72-.1,7.43c0,.15,0,.3,0,.44,1,.36,10.76.18,12-.2.1-.72.09-10,0-20.67l1.48.06c2.17.09,4.35.16,6.52.27s4.38.3,6.57.4c2,.1,4,.12,5.94.21l4.93.23c0,3.21-.13,6.42-.16,9.63s0,6.26,0,9.39q0,6.21-.09,12.42c0,1.22-.14,2.45-.07,3.67s0,2.63,0,3.94a4,4,0,0,0,.1.55,100.41,100.41,0,0,0,12.47,0c0-.33,0-.57,0-.81,0-6.38,0-12.77,0-19.15"/><path d="M45.24,146.18c-.13,5.91.07,11.74.43,17.6l.36,0c1.44,0,2.88,0,4.32,0,2.6,0,5.2.08,7.8.11l6.66,0c3.22,0,6.44.08,9.66.07,3.06,0,6.12,0,9.18-.09,4-.07,8.08-.15,12.12-.25,2.86-.08,5.72-.16,8.58-.34a50.81,50.81,0,0,1,6.29,0,16.1,16.1,0,0,0,4.18-.27,51.23,51.23,0,0,0,7.32-2.1,7.66,7.66,0,0,0,3.29-2.23l1.24-1.46a7.37,7.37,0,0,0,.42-1.91,7.9,7.9,0,0,0-1-5,7.51,7.51,0,0,0-2.48-2.64c-.69-.41-1.4-.77-2.1-1.15a3,3,0,0,0-1.29-.41c-1.43-.08-2.86-.24-4.29-.35a17.43,17.43,0,0,1-2.15-.12,18.12,18.12,0,0,0-3-.18c-2.19-.07-4.39,0-6.58,0-1.28,0-2.56,0-3.83,0-2.76,0-5.51.28-8.27.15-1.26-.06-2.52-.05-3.78-.07l-7-.12-6.12-.11c-2.48-.06-5-.18-7.44-.19-3.28,0-6.57,0-9.85.11-4,.08-8,.44-11.92.76-.22,0-.43.07-.73.12m77.39,26.12c3.46,6.54,6.82,13,10,19.71-.28,0-.47.05-.66.05l-10.27-.12a5.36,5.36,0,0,0-.72,0,.94.94,0,0,1-1.09-.67c-.5-1.15-1.08-2.27-1.62-3.41l-2.17-4.6c-.62-1.32-1.26-2.63-1.88-3.95-.4-.85-.82-1.69-1.15-2.56a11.84,11.84,0,0,0-1-2c-.26-.42-.72-1.27-.69-1-.11,0-7.56.29-11.18.39s-7.16.18-10.75.25c-3.16.06-6.32.09-9.49.13l-8.28.12L51.13,175c-1.28,0-2.56.08-3.84.13a5.17,5.17,0,0,0-.53.08c0,.51-.06,1-.07,1.5,0,.78-.08,1.56-.08,2.33s.07,1.31.11,2c.15,2.29.31,4.59.46,6.88q.13,2,.24,3.94c0,.26,0,.51,0,.83-3.12.34-10.4.78-10.84.35,0-.16,0-.84,0-1.09q-.09-1.13-.17-2.27c0-.46,0-.91-.06-1.37-.17-3.67-.32-7.34-.5-11-.17-3.41-.36-6.82-.53-10.24-.2-4-.38-7.94-.58-11.92-.11-2.14-.24-4.27-.35-6.4-.16-3.13-.31-6.27-.47-9.4-.07-1.32-.14-2.63-.21-4,0-.22,0-.43,0-.72.29,0,.52-.06.75-.06h4.14c1.88,0,3.76,0,5.64,0,4.48,0,9,.08,13.45.1q6.21,0,12.42,0,4.38,0,8.77-.05c3.24,0,6.48-.08,9.73-.13,2.28,0,4.56-.08,6.84-.09,2.6,0,5.2,0,7.8.05,2.06,0,4.12,0,6.18,0,1.36,0,2.72.11,4.07.27,1.79.21,3.56.5,5.34.77a25.5,25.5,0,0,1,6.84,2.13q1.82.84,3.61,1.76a15,15,0,0,1,3,2.35,23.17,23.17,0,0,1,3.51,4.08,21.37,21.37,0,0,1,2.64,5.62c.35,1.06.62,2.15.9,3.23a5,5,0,0,1,.13,1,12.57,12.57,0,0,1-.22,3.52,8.63,8.63,0,0,1-.74,1.82,11.91,11.91,0,0,1-2.44,3.16,36,36,0,0,1-2.74,2.51,24.87,24.87,0,0,1-6.51,4c-.43.16-.88.27-1.31.43-.91.35-1.82.72-2.82,1.13"/><path d="M150.48,150.79a8.68,8.68,0,0,1,1.68-5.38,23,23,0,0,1,9.45-8.68,22.74,22.74,0,0,0,2.11-1.11,7.51,7.51,0,0,1,3-1,19.63,19.63,0,0,1,10.82,1.43,12.67,12.67,0,0,1,2.43,1.79A35.45,35.45,0,0,1,186,144.7a30.13,30.13,0,0,1,3.3,5.82,11.79,11.79,0,0,1,1,4.06c.1,1.62.18,3.24.22,4.86a4.13,4.13,0,0,1-.23,1.49c-.62,1.69-1.33,3.35-2,5a12.7,12.7,0,0,1-3.31,4.36,18.2,18.2,0,0,1-9.43,4.77,21,21,0,0,1-6.55.66,7.32,7.32,0,0,1-1.59-.33,47.42,47.42,0,0,1-10.66-5.25,12.94,12.94,0,0,1-4.74-5.87,23,23,0,0,1-1.66-8.12c-.07-1,0-1.95,0-2.92,0,0,.08-1.66,0-2.49"/><path d="M191,182.91c0,2.75,0,5.44,0,8.16l-.44.07c-.78.06-1.56.14-2.35.18-2.31.13-4.63.28-6.94.38-3,.13-5.91.23-8.86.33q-2.86.09-5.71.15c-2.18,0-4.37.09-6.55.1-2.77,0-5.54,0-8.31,0l-.35,0c-.27-3.21-.27-6.41-.31-9.62a1,1,0,0,1,.23-.07c.57,0,1.14.08,1.71,0a13.07,13.07,0,0,1,1.59.06c1.8,0,3.6.07,5.39.09,1.36,0,2.72,0,4.08,0s3,.11,4.51.14,3,0,4.47,0c2.53,0,5.06.06,7.59.06,1.56,0,3.12-.06,4.67-.08s3.27,0,4.91,0c.2,0,.39,0,.65,0"/></g></g></g></svg>