<svg id="Design" xmlns="http://www.w3.org/2000/svg" width="154.73" height="301.15" viewBox="0 0 154.73 301.15">
  <title>h_w_menu_2</title>
  <g>
    <path d="M-400.4,8213.82c0.21-.51.36-1,0.6-1.43,1-1.89,2.11-3.75,3.08-5.67,0.75-1.48,1.34-3,2-4.55,0.36-.79.81-1.54,1.18-2.33,0.93-1.91,1.84-3.83,2.75-5.74a1.77,1.77,0,0,0,.07-0.22,3.93,3.93,0,0,0-1.3,1.18c-1.55,1.84-3.1,3.67-4.69,5.47-0.76.86-1.61,1.64-2.43,2.47a0.6,0.6,0,0,1-.18-0.69,60.75,60.75,0,0,1,1.2-8,2,2,0,0,0,.06-0.39c0.21-5.2.49-10.41,0.74-15.61a5.66,5.66,0,0,0-.12-1.41c-0.33.81-.86,1.56,0.17,2.77a2,2,0,0,1,.14,2.48,33.42,33.42,0,0,0-6.14,17.63,9.92,9.92,0,0,1-.11,1.57,3.28,3.28,0,0,1-.23-0.55c-0.48-2.12-.94-4.25-1.41-6.37-0.39-1.77-.75-3.56-1.2-5.32-0.5-1.93-1.08-3.84-1.63-5.76a11.69,11.69,0,0,0-.77-2c0,0.18,0,.36,0,0.54,0.19,3.68.36,7.37,0.59,11a32.31,32.31,0,0,0,1.58,8.43c0.62,1.84,1.14,3.71,1.7,5.57a0.67,0.67,0,0,1-.07.17c-0.16-.32-0.3-0.57-0.42-0.84-1-2.09-2-4.16-2.92-6.26-0.72-1.58-1.34-3.21-2.08-4.78A32.47,32.47,0,0,0-412,8192c-1-1.59-2-3.13-3.06-4.7a0.45,0.45,0,0,0-.34-0.2l0.6,2a77,77,0,0,0,4.3,11,43.83,43.83,0,0,1,2.51,6.27c0.48,1.56,1.13,3.08,1.66,4.62,0.22,0.62.34,1.27,0.53,2-1.71.25-3-.21-4.62,0.11a0.35,0.35,0,0,1-.16,0,9.26,9.26,0,0,0-7.19,1,40.88,40.88,0,0,0-4.75,2.81c-1.36.94-2.61,2-3.9,3.06l0,0q-1.15,2-2.24,4.1a10.76,10.76,0,0,0-1,3.85c-0.17,1.46-.32,2.93-0.4,4.4a0.29,0.29,0,0,0,0,.07,26.91,26.91,0,0,0,2.67,8.18c0.65,1.16,1.4,2.27,2.16,3.35s2.26,1.43,2.28,2.2a0.92,0.92,0,0,0,.67.94,8.11,8.11,0,0,1,5.62,3.68c0.8,1.28,1.67,2.52,2.41,3.84a9.69,9.69,0,0,1,1.1,3.33c0.61,4.14-.6,8.06-2.65,12a1.49,1.49,0,0,0-.11,1.07c0.83,3.23.06,6.33-.39,9.45-0.09.6-.15,1.21-0.23,1.82l0.16,0.07a5.76,5.76,0,0,0,.42-0.66,21.63,21.63,0,0,0,2.16-5.89,1.6,1.6,0,0,1,.35-0.79c2-2.43,2.67-5.28,3.3-8.14a33.15,33.15,0,0,1,2.12-6.64c0.15-.33.26-0.67,0.43-1a10.31,10.31,0,0,1,.7-1.17,20.55,20.55,0,0,1,2.95-3.32,25.33,25.33,0,0,1,9.52-5.24,1.31,1.31,0,0,0,.26-0.11c2.28-1.32,5.07-2.63,6.69-5.16a1,1,0,0,1,.17-0.2,12.79,12.79,0,0,0,4.23-7,7.72,7.72,0,0,1,.94-2.28,6.25,6.25,0,0,0,.83-3.27c0-1.63,0-3.26-.06-4.89a0.16,0.16,0,0,0,0,0c-0.4-1.1-1-2.13-1.44-3.2a7.5,7.5,0,0,0-3-3.38,38.37,38.37,0,0,0-10.49-5c-1.16-.32-2.33-0.59-3.49-0.88Z" transform="translate(536.02 -7981.09)"/>
    <path d="M-536,8216.32a21.53,21.53,0,0,1,1.19-2.83c1.55-2.58,3.2-5.09,4.78-7.65,1.33-2.15,3.46-3.25,5.6-4.33,1.22-.61,2.46-1.16,3.69-1.76a10.84,10.84,0,0,1,6.87-.93c3.79,0.73,7,2.55,8.77,6.16a62.25,62.25,0,0,1,3.8,11.05c0.29,1,.49,2,0.77,3.07a18.19,18.19,0,0,1,.49,6.44,83.76,83.76,0,0,1-1.27,8.66c-4.72-.9-9.23-2.33-14-3.47a151.31,151.31,0,0,1-9.15,22.37c-1.18-.17-4.28-1.88-6-3.26,0.31-.86.68-1.72,1-2.61,1-3.23,2-6.45,3-9.71,0.73-2.63,1.24-5.31,1.9-8a4.19,4.19,0,0,0-1.61-4.6c-2.63-2.2-5.18-4.5-7.75-6.76C-534.65,8217.62-535.29,8217-536,8216.32Z" transform="translate(536.02 -7981.09)"/>
    <path d="M-418.71,7981.24q-1.1,6.1-2.2,12.2c-0.75,4.11-1.49,8.22-2.27,12.32-0.35,1.82-.86,3.61-1.18,5.44-0.87,4.86-1.75,9.71-2.48,14.58-0.39,2.58-.43,5.21-0.7,7.81-0.65,6.46-1.23,12.93-2,19.36a176.24,176.24,0,0,1-3.43,19.67c-0.76,3.11-1.59,6.21-2.32,9.33a44.13,44.13,0,0,0-1,6.16c0.3-.63.64-1.24,0.9-1.88,2.54-6.46,5-12.94,7.59-19.39,2.22-5.59,4.53-11.14,6.78-16.72,1.16-2.89,2.24-5.81,3.4-8.7s2.49-6,3.68-9a147.59,147.59,0,0,0,4.67-14.27c1.2-4.3,2.39-8.6,3.64-12.88a10.33,10.33,0,0,1,1.89-4.16,7,7,0,0,1,.08,1.27c-0.59,4.6-1.09,9.22-1.81,13.79a200.81,200.81,0,0,1-5.5,25.71c-2.15,7.26-4.16,14.56-6.09,21.88-0.75,2.86-1.33,5.77-1.92,8.67a76.07,76.07,0,0,1-3.56,11.86c-1.06,2.8-2.1,5.61-3.29,8.35-1,2.35-2.2,4.64-3.39,6.91-1.38,2.64-2.92,5.21-4.26,7.88a55.23,55.23,0,0,0-2.89,7c0.26-.23.54-0.44,0.78-0.69,3.06-3.19,6.21-6.3,9.12-9.62a80.68,80.68,0,0,0,6-7.93,38.67,38.67,0,0,0,2.65-5.3q3.47-7.36,6.89-14.75a4.34,4.34,0,0,0,.39-1.19c0.5-3.16,1-6.33,1.45-9.49,0.62-4,1.2-7.92,2-11.85,0.47-2.48,1.24-4.9,1.84-7.35,0.76-3.07,1.48-6.14,2.22-9.22,0.45-1.88.83-3.77,1.34-5.63a21.67,21.67,0,0,1,1-2.71c1.9-4.51,3.71-9.06,5.62-13.57s3.95-9.28,6-13.91a10.35,10.35,0,0,1,1.72-2.63,9.48,9.48,0,0,1,.31,1.22c0.14,1.17.27,2.34,0.33,3.52a6.69,6.69,0,0,1-.18,1.74c-0.69,3.3-1.35,6.61-2.15,9.89-1.17,4.79-2.51,9.53-3.66,14.33-1.42,5.9-2.74,11.83-4.09,17.75-0.64,2.84-1.23,5.69-1.88,8.52q-1.17,5.18-2.38,10.35c-0.82,3.45-1.63,6.9-2.52,10.32-0.74,2.85-1.51,5.71-2.43,8.51a45.13,45.13,0,0,1-3.89,8.08,70.58,70.58,0,0,0-4.24,9.86c-1.43,3.8-2.84,7.62-4.35,11.4a10.42,10.42,0,0,1-1.25,2.31,28.43,28.43,0,0,1-11.29,9c-3,1.38-5.92,2.83-8.88,4.24-0.72.34-1.46,0.65-2.2,0.95a2.34,2.34,0,0,0-1.41,1.65,85.7,85.7,0,0,0-2.57,11.85,69.58,69.58,0,0,0-1,9.29,21.64,21.64,0,0,0,1,6.2,30.61,30.61,0,0,1,1.18,10.87,11.16,11.16,0,0,1-.36,2c-0.18.69-.52,1.34-0.67,2a12.62,12.62,0,0,1-2.14,4.67,6.16,6.16,0,0,1-1.56,1.61c-1.28.88-2.57,1.75-3.9,2.53a2.32,2.32,0,0,0-1.2,1.93c-0.36,3-.77,5.94-1.17,8.9a2.78,2.78,0,0,1-.46,1.15c-1.39-2.38-1.48-5.1-2.28-7.88-0.53,1.52-1,2.8-1.43,4.1s-0.84,2.66-1.33,4-0.38,2.75-1.31,4a7.58,7.58,0,0,1-.54-3.3q0-1.89,0-3.79a7.25,7.25,0,0,1,.26-1.47,3.77,3.77,0,0,0,.22-1.2l-6.78,6.72a3,3,0,0,1,.1-0.85c0.46-1,.94-2,1.43-3,0.94-1.88,2-3.72,2.8-5.65a43.8,43.8,0,0,1,2.84-5.19,1.54,1.54,0,0,0,.2-1.31c-0.15-.52-0.28-1.06-0.46-1.57a32.07,32.07,0,0,1-1.49-9.14,44.64,44.64,0,0,1,.13-4.79,17.59,17.59,0,0,1,1.79-5.91,2.14,2.14,0,0,1,.41-0.6c2.05-2,4.09-4,6.19-5.94a2.52,2.52,0,0,0,.78-1.24c0.72-2.68,1.51-5.34,2.13-8.05a27,27,0,0,0,.58-10.65c-0.16-.9-0.11-1.85-0.2-2.76a11.18,11.18,0,0,0-.35-1.85,23.65,23.65,0,0,0-2.39-5.41c-1.44-2.48-2.77-5-4.29-7.44-2.32-3.71-4.84-7.3-7.14-11a41,41,0,0,1-5.45-16.56,112.12,112.12,0,0,1-.76-14.23c0-2.31-.38-4.62-0.37-6.93,0-2.81.26-5.63,0.41-8.44,0-.72.18-1.43,0.17-2.14,0-1.44.65-2.73,0.79-4.15,0.23-2.39.54-4.77,1-7.13,0.61-3.45,1.38-6.86,2-10.3,1.15-6.11,3.85-11.67,6.21-17.35,0.41-1,.85-1.95,1.31-2.9a1,1,0,0,1,.94-0.64,30.62,30.62,0,0,1-.82,3.56,43.41,43.41,0,0,0-1.59,7.22c-0.32,2.26-1.08,4.47-1.39,6.73a20.53,20.53,0,0,0-.16,4.28c0.52,7,1.06,14,1,21a34.64,34.64,0,0,1-.4,5.11,19.15,19.15,0,0,0-.16,5.7c0.83,5.63,1.65,11.26,2.49,16.89,0.33,2.21.7,4.41,1.08,6.61,0.13,0.77.36,1.52,0.54,2.28h0.27c0.13-.55.31-1.09,0.4-1.65,0.6-3.7,1.18-7.4,1.79-11.1,0.36-2.16.86-4.31,1.12-6.48,0.45-3.67.76-7.36,1.14-11,0.25-2.47.52-4.94,0.79-7.41,0.07-.63.17-1.25,0.2-1.88,0.17-2.75,1.35-5.19,2.34-7.69a41.33,41.33,0,0,0,2.33-7.31,0.7,0.7,0,0,1,.22-0.2c0.86,0.34.42,1.31,0.66,1.83a3.92,3.92,0,0,1,.28,2c-0.52,6.29.06,12.5,0.62,18.71,0.32,3.65.62,7.31,0.73,11,0.08,2.77-.17,5.56-0.27,8.34a0.93,0.93,0,0,0,.16.66c0.27-1.09.58-2.17,0.79-3.27,0.69-3.6,1.42-7.19,2-10.81,0.46-3,.69-6,1-9s0.64-6.12,1.12-9.15c0.56-3.58,1.25-7.14,2-10.69s1.49-7,2.37-10.48a78.25,78.25,0,0,1,3.34-10.05c1.8-4.44,3.54-8.91,5.37-13.34,2.39-5.79,4.85-11.56,7.28-17.33l2.21-5.22Z" transform="translate(536.02 -7981.09)"/>
    <path d="M-527.52,8048.24a2,2,0,0,1,.07-0.26c1.42-3.08,2.43-6.31,3.57-9.5,0.64-1.8,1.26-3.61,1.84-5.43a18.81,18.81,0,0,0,.88-5.18c0.09-3,.13-6.1.21-9.15a21.35,21.35,0,0,1,.74-4.95,29.47,29.47,0,0,1,1.55-4.68,31.13,31.13,0,0,1,2.45-4.53c0.52-.78,1-1.6,1.46-2.4,0-.08.08-0.17,0.14-0.31l-1.57-.55a4.9,4.9,0,0,1-1.65-.86,0.75,0.75,0,0,1-.24-0.77,2.45,2.45,0,0,1,1.67-1.85,1.09,1.09,0,0,1,.55-0.1c1.13,0.15,2.27.24,3.38,0.46a4.94,4.94,0,0,1,3.73,3.07,1.63,1.63,0,0,1,.25.86,6.18,6.18,0,0,1-.61,1.28l-0.13.09a3,3,0,0,1-1.72,0,8.64,8.64,0,0,0-.86-0.36,0.77,0.77,0,0,0-.91.31c-0.37.61-.71,1.24-1.05,1.86-0.18.32-.34,0.66-0.54,1a21.38,21.38,0,0,0-1.86,3.65,30.23,30.23,0,0,0-1.92,5.29,36.45,36.45,0,0,0-.82,6.45c0,1.05.09,2.11,0.1,3.17,0,1.39,0,2.78,0,4.17,0,0.55-.05,1.09,0,1.64a11.23,11.23,0,0,1-.65,3.35,26.4,26.4,0,0,1-2.24,5.31c-0.71,1.29-1.36,2.61-2.14,3.85-1,1.58-2,3.1-3.07,4.64a5.94,5.94,0,0,1-.45.52l-0.12-.07" transform="translate(536.02 -7981.09)"/>
    <path d="M-506.43,8132.57c-1,.15-1.84-0.4-2.75-0.49a0.46,0.46,0,0,1-.33-0.19c-0.4-.56-0.84-1.1-1.3-1.68,0.29-.65.56-1.3,0.87-1.93a0.44,0.44,0,0,1,.18-0.17,15.73,15.73,0,0,1,2.11-.91,4.66,4.66,0,0,1,1.45,0c0.33,0,.65.12,1,0.14a7.06,7.06,0,0,1,2.85,1c0.49,0.24,1,.46,1.49.69a3.35,3.35,0,0,1,1.42,1.44,0.52,0.52,0,0,1-.06.42c-0.31.57-.63,1.13-1,1.67a0.54,0.54,0,0,1-.45.23,7.93,7.93,0,0,1-2.07,0,5.36,5.36,0,0,0-.82-0.06,1.82,1.82,0,0,0-.11.31,35.11,35.11,0,0,1-1.66,5.31c-0.59,1.74-1.2,3.48-1.75,5.23a15.63,15.63,0,0,0-.64,4.92,26.6,26.6,0,0,0,.82,6.67c0.09,0.32.19,0.64,0.29,1a15.27,15.27,0,0,1,.3,5.51,1.86,1.86,0,0,1-.18.62,6.64,6.64,0,0,0-.38,1.4h-0.15c-0.12-.38-0.26-0.75-0.34-1.13-0.3-1.32-.56-2.63-0.87-3.95s-0.65-2.5-1-3.75c-0.15-.59-0.26-1.19-0.43-1.77a12.66,12.66,0,0,1-.42-5.39c0.21-1.51.55-3,.88-4.48s0.68-2.84,1.06-4.25c0.27-1,.59-2,0.93-2.95a23.91,23.91,0,0,0,1.06-3.4" transform="translate(536.02 -7981.09)"/>
    <path d="M-503.19,8094.91c0-.4.07-0.8,0.14-1.2,0.24-1.35.49-2.69,0.74-4,0.06-.35.1-0.7,0.18-1a11.69,11.69,0,0,0,.14-3.21,48.53,48.53,0,0,0-.79-6.21,24.11,24.11,0,0,1-.43-3.42,16.23,16.23,0,0,1,.46-4.47c0.16-.64.27-1.29,0.42-2l-0.43-.08c-0.48-.05-1-0.09-1.44-0.17a1.77,1.77,0,0,1-.91-0.91,19.52,19.52,0,0,1,1.43-2.14,6.89,6.89,0,0,1,1.37-.88,1.91,1.91,0,0,1,1.33-.28c1,0.09,2,.13,3,0.21a1.57,1.57,0,0,1,.64.19c0.53,0.3,1.05.62,1.56,1a2.41,2.41,0,0,1,.48.48,0.74,0.74,0,0,1,.08.87c-0.19.41-.32,0.83-0.47,1.25a1.48,1.48,0,0,1-1.5,1c-0.41,0-.82-0.11-1.23-0.16a3.39,3.39,0,0,0-.52-0.05,0.51,0.51,0,0,0-.53.45,26.23,26.23,0,0,0-.48,6.29,69.55,69.55,0,0,0,1.16,7.77,8.41,8.41,0,0,1-.51,4.14c-0.54,1.42-1.1,2.84-1.74,4.22a9.36,9.36,0,0,1-1.22,1.64c-0.23.3-.48,0.59-0.72,0.88l-0.17-.06" transform="translate(536.02 -7981.09)"/>
    <path d="M-523.14,8116.91a5.86,5.86,0,0,1,0-.78c0.19-3.06.37-6.13,0.6-9.19a40.82,40.82,0,0,0-.13-8.08,26.56,26.56,0,0,1,0-6.25c0.17-1.58.3-3.16,0.59-4.72a33.59,33.59,0,0,1,1.19-4.46c0.76-2.25,1.65-4.47,2.47-6.71,0.07-.2.11-0.4,0.18-0.63a1.56,1.56,0,0,0-.37-0.14,3.39,3.39,0,0,1-2-1.27,0.75,0.75,0,0,1,.19-1,13.39,13.39,0,0,1,1.21-.6,0.36,0.36,0,0,1,.19,0,15.48,15.48,0,0,1,5.54,1.86,0.71,0.71,0,0,1,.41.59c0.06,0.56.15,1.12,0.23,1.68a0.7,0.7,0,0,1-.28.66,1.19,1.19,0,0,1-1.73.18,7.06,7.06,0,0,0-1.2-.53c-0.11.27-.2,0.47-0.27,0.66-0.14.38-.27,0.77-0.43,1.15-0.79,2-1.66,3.89-2.35,5.88a26.1,26.1,0,0,0-1.6,7.79,43.09,43.09,0,0,0,.22,5.07,39.68,39.68,0,0,1-.13,8.07,43.24,43.24,0,0,1-1.12,6.74c-0.39,1.37-.85,2.72-1.27,4.08h-0.19" transform="translate(536.02 -7981.09)"/>
    <path d="M-500.22,8020.87a0.86,0.86,0,0,0-.28,0,1.89,1.89,0,0,1-1.66-.31,0.77,0.77,0,0,1-.26-0.3c-0.13-.22-0.25-0.44-0.36-0.67a1.81,1.81,0,0,1,.33-2.32c0.36-.39.72-0.77,1.06-1.17a0.65,0.65,0,0,1,.55-0.25,14.91,14.91,0,0,1,3.41.52l0.06,0a5.64,5.64,0,0,1,1.83,1.75c0.25,0.44.37,0.94,0.58,1.41a0.61,0.61,0,0,1-.06.66c-0.17.26-.32,0.53-0.49,0.8a1.41,1.41,0,0,1-1.81.69l-0.63-.15c-0.43-.1-0.56,0-0.67.4s-0.21.88-.31,1.32c-0.39,1.71-.8,3.42-1.15,5.15a14.72,14.72,0,0,0,.66,8.24c0.56,1.49,1.37,2.85,2,4.29a37.48,37.48,0,0,1,1.63,4c0.39,1.21.86,2.39,1.29,3.59a2.37,2.37,0,0,1,.13.62c0.05,0.9.09,1.8,0.12,2.69a1.45,1.45,0,0,1-.08.28c-0.15-.24-0.27-0.4-0.36-0.58q-0.67-1.33-1.33-2.68c-0.71-1.45-1.46-2.89-2.1-4.38-1-2.2-1.84-4.43-2.75-6.66a23.19,23.19,0,0,1-1.54-7c0-.51-0.08-1-0.14-1.52a2.82,2.82,0,0,1,.12-1.21c0.58-1.76,1.13-3.53,1.71-5.29a11.09,11.09,0,0,0,.46-1.95" transform="translate(536.02 -7981.09)"/>
  </g>
</svg>
