<svg xmlns="http://www.w3.org/2000/svg" viewBox="0 0 493.99 245"><defs><style>.cls-1{fill:#fff;opacity:0.9;}</style></defs><title>Asset 9</title><g id="Layer_2" data-name="Layer 2"><g id="Design"><path class="cls-1" d="M5.11.46H0v244H.59c.52,1,1.41.33,2.41.33v-.1c1,0,1.28.78,1.8-.22H492V.46H5.11Zm.89,5H242v234H6Zm482,234H248V5.46H488Z"/><polygon class="cls-1" points="493.84 0 493.84 0.28 493.99 0.28 493.84 0"/><rect class="cls-1" x="11.07" y="10.13" width="226.56" height="224.1"/><rect class="cls-1" x="252.37" y="10.13" width="231.39" height="224.1"/><path d="M173.85,117.2l-12.82,0c0-.29-.09-.53-.11-.78-.11-1.39-.23-2.77-.31-4.16-.24-4.09-.49-8.18-.67-12.27-.23-5.22-.42-10.44-.6-15.67q-.18-5-.29-10.1c-.09-3.86-.18-7.72-.22-11.58,0-4.9,0-9.79-.06-14.69,0-.18,0-.36,0-.62,5-.44,10.07-.42,15.11-.46a1.91,1.91,0,0,1,.12.41c0,1-.11,2,0,3a26.09,26.09,0,0,1-.08,2.82c0,3.18-.07,6.35-.08,9.53,0,2.4.05,4.8,0,7.2,0,2.66-.14,5.32-.18,8s0,5.27,0,7.91c0,4.47,0,8.94,0,13.42,0,2.75.13,5.51.17,8.26s.05,5.79.07,8.68c0,.35,0,.7,0,1.14"/><path d="M143.4,110.65c0-5.56-.09-11.13-.16-16.69q-.09-7.28-.23-14.56c-.15-7.53-.3-15.06-.5-22.6-.15-5.9-.37-11.8-.57-17.7-.07-2-.18-4-.27-6,0-.36-.06-.72-.1-1.13l-11.69-.63c0,.64,0,1.14,0,1.64,0,4.17,0,8.34,0,12.51,0,4,.12,7.94.13,11.91,0,5.93,0,11.87-.06,17.8L125,75c-3.52-.1-7-.16-10.57-.21q-4.6-.07-9.21-.1h-3.54c-.11-11.77-.25-22-.37-22.54-.66-.12-10.55.25-11.47.45,0,.27-.07.52-.08.76-.06,1.43-.12,2.86-.15,4.3-.08,3.86-.12,7.71-.21,11.57,0,1.83-.1,3.66-.15,5.49-3.18,0-6.37.09-9.55.15-1.27,0-2.53.09-3.8.14-.23,0-.45,0-.72.07-.17,3.9-.33,7.73-.5,11.66.41,0,.72.07,1,.08,2.64.09,5.28.18,7.92.24,1.73,0,3.46.07,5.19.1,0,.54-.05,1.09-.06,1.64-.09,4.4-.13,8.8-.19,13.2q-.05,4.11-.11,8.22c0,.17,0,.34,0,.48,1.14.39,11.89.2,13.26-.22.11-.79.09-11.1,0-22.84l1.64.07c2.4.1,4.81.17,7.21.3s4.84.33,7.26.45c2.19.11,4.38.14,6.57.23,1.82.08,3.63.17,5.45.26,0,3.55-.14,7.09-.17,10.64s0,6.92,0,10.37q0,6.86-.1,13.72c0,1.35-.16,2.71-.08,4.05s0,2.91,0,4.36a4.47,4.47,0,0,0,.11.6,111,111,0,0,0,13.78,0c0-.37,0-.63,0-.9,0-7.06,0-14.11,0-21.16"/><path d="M50.23,161.06c-.15,6.53.08,13,.47,19.46l.4,0c1.59,0,3.18,0,4.78,0,2.87,0,5.75.09,8.62.12,2.45,0,4.91,0,7.36.05,3.56,0,7.12.08,10.68.08,3.38,0,6.77,0,10.15-.1,4.47-.08,8.93-.16,13.4-.28,3.16-.09,6.32-.18,9.48-.37a56.15,56.15,0,0,1,7,0,17.8,17.8,0,0,0,4.62-.3,56.61,56.61,0,0,0,8.09-2.32,8.47,8.47,0,0,0,3.64-2.46l1.37-1.61a8.14,8.14,0,0,0,.47-2.11,8.73,8.73,0,0,0-1.07-5.48,8.3,8.3,0,0,0-2.74-2.92c-.76-.45-1.55-.85-2.32-1.27a3.28,3.28,0,0,0-1.43-.45c-1.58-.09-3.16-.27-4.74-.39a19.27,19.27,0,0,1-2.38-.14,20,20,0,0,0-3.36-.2c-2.42-.08-4.85,0-7.27,0-1.41,0-2.82,0-4.24,0-3,0-6.09.31-9.14.17-1.39-.07-2.78-.06-4.18-.08l-7.76-.13c-2.25,0-4.51-.07-6.77-.13-2.74-.07-5.48-.2-8.22-.21-3.63,0-7.26.05-10.88.12-4.4.08-8.79.49-13.17.83-.24,0-.47.08-.81.13m85.53,28.87c3.83,7.23,7.54,14.39,11,21.78-.31,0-.52.06-.73.06l-11.35-.14a5.92,5.92,0,0,0-.8,0,1,1,0,0,1-1.21-.75c-.55-1.27-1.2-2.51-1.79-3.77l-2.4-5.08c-.69-1.46-1.39-2.9-2.08-4.36-.44-.94-.91-1.86-1.27-2.83a13.09,13.09,0,0,0-1.13-2.18c-.28-.47-.8-1.4-.77-1.11-.12,0-8.36.33-12.36.43s-7.92.2-11.88.28c-3.49.07-7,.1-10.48.15l-9.16.14-22.63.39c-1.42,0-2.83.09-4.24.14a5.71,5.71,0,0,0-.58.09c0,.56-.06,1.11-.08,1.65,0,.86-.09,1.72-.09,2.58s.07,1.45.12,2.17c.17,2.53.35,5.07.51,7.6q.14,2.18.27,4.35c0,.28,0,.57,0,.92-3.45.37-11.49.86-12,.38,0-.18,0-.93,0-1.21q-.1-1.25-.18-2.51c0-.5,0-1-.06-1.51-.18-4.05-.36-8.11-.55-12.17-.18-3.77-.4-7.54-.59-11.31-.22-4.39-.42-8.78-.64-13.17-.12-2.36-.26-4.72-.39-7.08-.18-3.46-.34-6.92-.52-10.39-.07-1.46-.15-2.91-.23-4.37,0-.24,0-.48,0-.8.32,0,.58-.06.83-.06h4.58c2.08,0,4.16,0,6.23,0,5,0,9.91.09,14.86.11q6.86,0,13.73,0,4.84,0,9.69-.06c3.58,0,7.17-.09,10.75-.14,2.52,0,5-.09,7.56-.1,2.87,0,5.74,0,8.62.06,2.28,0,4.56,0,6.83,0,1.5,0,3,.12,4.5.29,2,.23,3.94.55,5.9.85a28.18,28.18,0,0,1,7.56,2.36q2,.93,4,1.95a16.56,16.56,0,0,1,3.34,2.6,25.61,25.61,0,0,1,3.88,4.51,23.61,23.61,0,0,1,2.92,6.21c.38,1.17.68,2.37,1,3.57a5.51,5.51,0,0,1,.14,1.11,13.89,13.89,0,0,1-.25,3.89,9.53,9.53,0,0,1-.82,2,13.16,13.16,0,0,1-2.7,3.5,39.75,39.75,0,0,1-3,2.78,27.48,27.48,0,0,1-7.19,4.43c-.48.18-1,.3-1.45.48-1,.39-2,.8-3.12,1.25"/><path d="M166.53,166.15a9.59,9.59,0,0,1,1.86-5.95c2.68-4.06,5.94-7.5,10.44-9.59a25.13,25.13,0,0,0,2.33-1.23,8.3,8.3,0,0,1,3.27-1.08,21.7,21.7,0,0,1,12,1.58,14,14,0,0,1,2.69,2,39.17,39.17,0,0,1,6.75,7.56,33.3,33.3,0,0,1,3.64,6.43,13,13,0,0,1,1.15,4.49c.11,1.79.2,3.58.24,5.38a4.56,4.56,0,0,1-.26,1.64c-.69,1.87-1.47,3.71-2.16,5.58s-2.23,3.37-3.65,4.82A20.11,20.11,0,0,1,194.37,193a23.16,23.16,0,0,1-7.24.73,8.09,8.09,0,0,1-1.75-.36,52.41,52.41,0,0,1-11.79-5.8,14.3,14.3,0,0,1-5.24-6.49,25.4,25.4,0,0,1-1.83-9c-.07-1.07,0-2.15,0-3.23,0,0,.09-1.84,0-2.75"/><path d="M211.26,201.65c0,3,0,6,0,9-.18,0-.33.06-.49.08-.87.07-1.73.15-2.6.2-2.56.15-5.11.31-7.67.42-3.26.14-6.53.25-9.79.36q-3.16.1-6.31.16c-2.41,0-4.83.09-7.24.11-3.06,0-6.12,0-9.19,0l-.39,0c-.29-3.55-.3-7.09-.35-10.63a1.14,1.14,0,0,1,.26-.08c.63,0,1.26.09,1.89,0a14.45,14.45,0,0,1,1.76.07c2,0,4,.07,6,.09,1.5,0,3,0,4.5,0,1.66,0,3.32.12,5,.16s3.3,0,4.94,0c2.8,0,5.59.07,8.39.07,1.72,0,3.44-.07,5.17-.09s3.62,0,5.43,0c.22,0,.43,0,.71,0"/><path d="M271,26.58a.53.53,0,0,1,.56-.56h14.36a.53.53,0,0,1,.56.56v3.07a.53.53,0,0,1-.56.56H275.82a.3.3,0,0,0-.33.33V42.61a.3.3,0,0,0,.33.33h8.72a.53.53,0,0,1,.56.56v3.07a.53.53,0,0,1-.56.56h-8.72a.3.3,0,0,0-.33.34v16a.53.53,0,0,1-.56.56h-3.41a.53.53,0,0,1-.56-.56Z"/><path d="M307.06,64a.56.56,0,0,1-.61-.39l-4.75-15.86a14.61,14.61,0,0,1-1.57.06h-2.29a.3.3,0,0,0-.33.34v15.3a.53.53,0,0,1-.56.56h-3.41a.53.53,0,0,1-.56-.56V26.58a.53.53,0,0,1,.56-.56h6.65c6.7,0,10.28,2.9,10.28,10.95,0,5.08-1.68,8.16-4.64,9.66l5.31,16.81c.11.28,0,.56-.28.56Zm-1.12-27c0-5.14-1.68-6.76-5.7-6.76h-2.4a.3.3,0,0,0-.33.33V43.39a.3.3,0,0,0,.33.33h2.4C304.15,43.72,305.94,42.16,305.94,37Z"/><path d="M318.18,26.58a.53.53,0,0,1,.56-.56h14.36a.53.53,0,0,1,.56.56v3.07a.53.53,0,0,1-.56.56H323a.3.3,0,0,0-.33.33V42.38a.3.3,0,0,0,.33.34h8.72a.53.53,0,0,1,.56.56v3.07a.53.53,0,0,1-.56.56H323a.3.3,0,0,0-.33.33V59.47a.3.3,0,0,0,.33.33h10.06a.53.53,0,0,1,.56.56v3.07a.53.53,0,0,1-.56.56H318.73a.53.53,0,0,1-.56-.56Z"/><path d="M340.36,26.58a.53.53,0,0,1,.56-.56h14.36a.53.53,0,0,1,.56.56v3.07a.53.53,0,0,1-.56.56H345.22a.3.3,0,0,0-.33.33V42.38a.3.3,0,0,0,.33.34h8.72a.53.53,0,0,1,.56.56v3.07a.53.53,0,0,1-.56.56h-8.72a.3.3,0,0,0-.33.33V59.47a.3.3,0,0,0,.33.33h10.06a.53.53,0,0,1,.56.56v3.07a.53.53,0,0,1-.56.56H340.92a.53.53,0,0,1-.56-.56Z"/><path d="M370.14,64.5c-5.76,0-8.66-3.24-8.94-9.77,0-.34.11-.56.45-.61l3.3-.61a.48.48,0,0,1,.61.5c.22,4.69,1.73,6.37,4.64,6.37s4.24-1.4,4.24-6.53c0-4.36-.84-6-3.85-7.15l-2.29-.89c-5.2-2-6.65-4.58-6.65-10.44,0-6.48,2.79-9.83,8.49-9.83s8.32,3.13,8.6,9a.56.56,0,0,1-.5.61l-3.13.5a.45.45,0,0,1-.61-.45c-.11-3.74-1.34-5.58-4.25-5.58s-4.13,1.68-4.13,5.53.89,5.25,4,6.42l2.29.89c4.86,2,6.59,4.47,6.59,10.78C379,60.92,376.56,64.5,370.14,64.5Z"/><path d="M390.7,64a.53.53,0,0,1-.56-.56V30.54a.3.3,0,0,0-.33-.33h-6.26a.53.53,0,0,1-.56-.56V26.58a.53.53,0,0,1,.56-.56h17.71a.53.53,0,0,1,.56.56v3.07a.53.53,0,0,1-.56.56H395a.3.3,0,0,0-.33.33v32.9a.53.53,0,0,1-.56.56Z"/><path d="M413.16,64a.53.53,0,0,1-.56-.56V48.3l-7.32-21.72c-.11-.34,0-.56.39-.56h3.52c.39,0,.56.17.67.56l5,15.92H415l5-15.92c.11-.39.28-.56.61-.56h3.46c.39,0,.5.22.39.56L417.13,48.3V63.44a.53.53,0,0,1-.56.56Z"/><path d="M430.37,26.58a.53.53,0,0,1,.56-.56h3.41a.53.53,0,0,1,.56.56v32.9a.3.3,0,0,0,.33.33h9.95a.53.53,0,0,1,.56.56v3.07a.53.53,0,0,1-.56.56H430.93a.53.53,0,0,1-.56-.56Z"/><path d="M452.05,26.58a.53.53,0,0,1,.56-.56H467a.53.53,0,0,1,.56.56v3.07a.53.53,0,0,1-.56.56H456.91a.3.3,0,0,0-.33.33V42.38a.3.3,0,0,0,.33.34h8.72a.53.53,0,0,1,.56.56v3.07a.53.53,0,0,1-.56.56h-8.72a.3.3,0,0,0-.33.33V59.47a.3.3,0,0,0,.33.33H467a.53.53,0,0,1,.56.56v3.07A.53.53,0,0,1,467,64H452.61a.53.53,0,0,1-.56-.56Z"/><path d="M284.87,115.44a.55.55,0,0,1-.61-.45L280,100.59h-2.12a.3.3,0,0,0-.34.33v14a.53.53,0,0,1-.56.56h-6.2a.53.53,0,0,1-.56-.56V78a.53.53,0,0,1,.56-.56h9.05c6.76,0,11.12,3.18,11.12,11.62,0,4.8-1.62,7.93-4.25,9.72l5.2,16.08c.11.28,0,.56-.28.56Zm-1.34-26.36c0-4-1.23-5.19-4.08-5.19h-1.62a.3.3,0,0,0-.34.33v9.72a.3.3,0,0,0,.34.34h1.62C282.3,94.28,283.53,93.11,283.53,89.08Z"/><path d="M303.42,78c.11-.34.28-.56.61-.56h6.59a.61.61,0,0,1,.61.56l8.16,36.86a.43.43,0,0,1-.45.56h-6.2a.57.57,0,0,1-.61-.56L310.91,108H303.7l-1.29,6.87a.57.57,0,0,1-.61.56h-6.2a.43.43,0,0,1-.45-.56Zm6.43,24.18L307.45,89h-.17l-2.51,13.18Z"/><path d="M324.16,78a.53.53,0,0,1,.56-.56h6c.5,0,.78.17.89.56L337.45,98h.22L343.26,78c.11-.39.39-.56.89-.56h6a.53.53,0,0,1,.56.56v36.86a.53.53,0,0,1-.56.56h-5.42a.53.53,0,0,1-.56-.56V92.94h-.33l-4.13,15.19a.72.72,0,0,1-.73.56h-3.07a.72.72,0,0,1-.73-.56L331,92.94h-.33v21.95a.53.53,0,0,1-.56.56h-5.42a.53.53,0,0,1-.56-.56Z"/><path d="M357.51,78a.53.53,0,0,1,.56-.56h16.59a.53.53,0,0,1,.56.56V83.5a.53.53,0,0,1-.56.56h-9.5a.3.3,0,0,0-.34.33v8.27a.3.3,0,0,0,.34.34h8.21a.53.53,0,0,1,.56.56V99a.53.53,0,0,1-.56.56h-8.21a.3.3,0,0,0-.34.33v8.6a.3.3,0,0,0,.34.33h9.5a.53.53,0,0,1,.56.56v5.47a.53.53,0,0,1-.56.56H358.07a.53.53,0,0,1-.56-.56Z"/><path d="M381,78a.53.53,0,0,1,.56-.56h7a.7.7,0,0,1,.78.56l6.31,23.85h.28V78a.53.53,0,0,1,.56-.56h5.31a.53.53,0,0,1,.56.56v36.86a.53.53,0,0,1-.56.56h-6.7a.7.7,0,0,1-.78-.56L387.68,91h-.28v23.85a.53.53,0,0,1-.56.56h-5.31a.53.53,0,0,1-.56-.56Z"/><path d="M271,129.47a.53.53,0,0,1,.56-.56h7.21c6.59,0,9.44,2.85,9.44,9.77,0,4.75-1.62,7.09-4.41,8.32v.11c2.85.89,4.8,3.46,4.8,8.88,0,8.16-3.3,10.89-10.39,10.89h-6.65a.53.53,0,0,1-.56-.56Zm7.54,15.86c3.58,0,5.08-1.34,5.08-6.09s-1.34-6.14-5.2-6.14h-2.57a.3.3,0,0,0-.33.33V145a.3.3,0,0,0,.33.33Zm-2.68,17.37h2.51c4.13,0,5.64-1.51,5.64-6.76,0-5.08-1.62-6.64-5.48-6.64h-2.68a.3.3,0,0,0-.33.33v12.73A.3.3,0,0,0,275.82,162.7Z"/><path d="M301.08,129.47c.11-.34.28-.56.61-.56H305a.61.61,0,0,1,.61.56l8,36.86a.46.46,0,0,1-.5.56h-3.35a.57.57,0,0,1-.61-.56L307.5,158h-8.44l-1.68,8.32c-.06.33-.22.56-.56.56h-3.35a.46.46,0,0,1-.5-.56Zm5.64,24.63-3.24-16.53h-.17l-3.46,16.53Z"/><path d="M333.76,166.89a.56.56,0,0,1-.61-.39l-4.75-15.86a14.61,14.61,0,0,1-1.57.06h-2.29a.3.3,0,0,0-.33.34v15.3a.53.53,0,0,1-.56.56h-3.41a.53.53,0,0,1-.56-.56V129.47a.53.53,0,0,1,.56-.56h6.65c6.7,0,10.28,2.9,10.28,10.95,0,5.08-1.68,8.16-4.64,9.66l5.31,16.81c.11.28,0,.56-.28.56Zm-1.12-27c0-5.14-1.68-6.76-5.7-6.76h-2.4a.3.3,0,0,0-.33.33v12.85a.3.3,0,0,0,.33.33h2.4C330.86,146.62,332.65,145.06,332.65,139.86Z"/><path d="M357.18,129.47a.53.53,0,0,1,.56-.56h7.21c6.59,0,9.44,2.85,9.44,9.77,0,4.75-1.62,7.09-4.41,8.32v.11c2.85.89,4.8,3.46,4.8,8.88,0,8.16-3.3,10.89-10.39,10.89h-6.65a.53.53,0,0,1-.56-.56Zm7.54,15.86c3.58,0,5.08-1.34,5.08-6.09s-1.34-6.14-5.2-6.14H362a.3.3,0,0,0-.33.33V145a.3.3,0,0,0,.33.33ZM362,162.7h2.51c4.13,0,5.64-1.51,5.64-6.76,0-5.08-1.62-6.64-5.48-6.64H362a.3.3,0,0,0-.33.33v12.73A.3.3,0,0,0,362,162.7Z"/><path d="M386.28,166.89a.53.53,0,0,1-.56-.56V151.2l-7.32-21.72c-.11-.34,0-.56.39-.56h3.52c.39,0,.56.17.67.56l5,15.92h.17l5-15.92c.11-.39.28-.56.61-.56h3.46c.39,0,.5.22.39.56l-7.32,21.72v15.14a.53.53,0,0,1-.56.56Z"/><path d="M276.72,180.92c.11-.34.28-.56.61-.56h3.35a.61.61,0,0,1,.61.56l8,36.86a.46.46,0,0,1-.5.56h-3.35a.57.57,0,0,1-.61-.56l-1.68-8.32H274.7L273,217.78c-.06.33-.22.56-.56.56h-3.35a.46.46,0,0,1-.5-.56Zm5.64,24.63L279.12,189H279l-3.46,16.53Z"/><path d="M295.32,180.92a.53.53,0,0,1,.56-.56h3.41a.53.53,0,0,1,.56.56v15.53a.3.3,0,0,0,.33.33h8.16a.3.3,0,0,0,.33-.33V180.92a.53.53,0,0,1,.56-.56h3.41a.53.53,0,0,1,.56.56v36.86a.53.53,0,0,1-.56.56h-3.41a.53.53,0,0,1-.56-.56V201.31a.3.3,0,0,0-.33-.34h-8.16a.3.3,0,0,0-.33.34v16.48a.53.53,0,0,1-.56.56h-3.41a.53.53,0,0,1-.56-.56Z"/><path d="M327.34,180.92c.11-.34.28-.56.61-.56h3.35a.61.61,0,0,1,.61.56l8,36.86a.46.46,0,0,1-.5.56h-3.35a.57.57,0,0,1-.61-.56l-1.68-8.32h-8.44l-1.68,8.32c-.06.33-.22.56-.56.56h-3.35a.46.46,0,0,1-.5-.56ZM333,205.55,329.74,189h-.17l-3.46,16.53Z"/><path d="M360,218.34a.56.56,0,0,1-.61-.39l-4.75-15.86a14.61,14.61,0,0,1-1.57.06h-2.29a.3.3,0,0,0-.33.34v15.3a.53.53,0,0,1-.56.56H346.5a.53.53,0,0,1-.56-.56V180.92a.53.53,0,0,1,.56-.56h6.65c6.7,0,10.28,2.9,10.28,10.95,0,5.08-1.68,8.16-4.64,9.66l5.31,16.81c.11.28,0,.56-.28.56Zm-1.12-27c0-5.14-1.68-6.76-5.7-6.76h-2.4a.3.3,0,0,0-.33.33v12.85a.3.3,0,0,0,.33.33h2.4C357.12,198.07,358.91,196.5,358.91,191.31Z"/><path d="M371.26,213.2c-.56-1.68-.73-3.07-.73-13.85s.17-12.18.73-13.85c1.17-3.63,4-5.64,8.32-5.64s7.21,2,8.32,5.64c.56,1.68.73,3.07.73,13.85s-.17,12.17-.73,13.85c-1.12,3.63-4,5.64-8.32,5.64S372.43,216.83,371.26,213.2Zm12.35-1.28c.34-1.12.45-2,.45-12.57s-.11-11.45-.45-12.57a3.88,3.88,0,0,0-4-2.68,3.82,3.82,0,0,0-4,2.68c-.39,1.12-.5,2-.5,12.57s.11,11.45.5,12.57a3.82,3.82,0,0,0,4,2.68A3.88,3.88,0,0,0,383.6,211.92Z"/><path d="M396.4,180.92a.53.53,0,0,1,.56-.56h4.19a.76.76,0,0,1,.84.56l8.49,28.48h.22V180.92a.53.53,0,0,1,.56-.56h3a.53.53,0,0,1,.56.56v36.86a.53.53,0,0,1-.56.56h-4a.75.75,0,0,1-.84-.56l-8.66-28.48h-.28v28.48a.53.53,0,0,1-.56.56h-3a.53.53,0,0,1-.56-.56Z"/><path d="M423.16,180.92a.53.53,0,0,1,.56-.56h3.41a.53.53,0,0,1,.56.56v36.86a.53.53,0,0,1-.56.56h-3.41a.53.53,0,0,1-.56-.56Z"/></g></g></svg>