<svg id="Design" xmlns="http://www.w3.org/2000/svg" width="287" height="436.79" viewBox="0 0 287 436.79">
  <title>h_w_menu_1</title>
  <g>
    <path d="M-651.58,7587q2.3,5.83,4.59,11.66c1.54,3.93,3.09,7.86,4.59,11.8,0.67,1.75,1.18,3.56,1.87,5.31,1.83,4.64,3.65,9.28,5.62,13.86,1,2.42,2.4,4.71,3.55,7.09,2.87,5.9,5.82,11.77,8.54,17.74a177.48,177.48,0,0,1,7.51,18.75c1,3.08,1.93,6.19,3,9.26a44.44,44.44,0,0,0,2.4,5.84c-0.07-.7-0.11-1.41-0.23-2.1-1.25-6.91-2.54-13.8-3.76-20.71-1.05-6-2-12-3-18-0.53-3.1-1.15-6.19-1.69-9.29s-1-6.46-1.61-9.69a148.55,148.55,0,0,0-3.55-14.76c-1.25-4.33-2.51-8.67-3.71-13a10.39,10.39,0,0,1-.58-4.58,7,7,0,0,1,.74,1.05c1.94,4.27,4,8.51,5.77,12.83a202.19,202.19,0,0,1,8.93,25c2,7.39,4.15,14.74,6.39,22.06,0.87,2.86,1.92,5.67,3,8.48a76.57,76.57,0,0,1,3.24,12.1c0.58,3,1.17,5.94,1.6,8.93,0.37,2.56.57,5.16,0.75,7.75,0.21,3,.25,6,0.51,9A55.58,55.58,0,0,0-596,7711c0.11-.33.24-0.66,0.31-1,0.94-4.37,2-8.72,2.76-13.12a81.27,81.27,0,0,0,1-10,38.92,38.92,0,0,0-.53-6q-0.92-8.18-1.89-16.35a4.36,4.36,0,0,0-.29-1.23c-1.25-3-2.55-6-3.8-8.94-1.57-3.73-3.17-7.45-4.62-11.23-0.91-2.38-1.54-4.87-2.32-7.3-1-3-2-6.07-3-9.11-0.73-2.22-1.57-4.42-2.16-6.68-0.45-1.72-.57-3.52-0.86-5.28-0.6-3.69-1.23-7.39-1.8-11.08q-1.16-7.56-2.25-15.13a10.42,10.42,0,0,1,.09-3.17,9.58,9.58,0,0,1,.91.89c0.74,0.93,1.48,1.87,2.16,2.85a6.74,6.74,0,0,1,.77,1.59c1.16,3.21,2.35,6.4,3.41,9.64,1.54,4.74,2.91,9.53,4.46,14.27,1.91,5.83,3.93,11.63,5.92,17.44,1,2.78,2,5.55,2.92,8.33q1.75,5.08,3.45,10.16c1.13,3.4,2.26,6.8,3.31,10.22,0.88,2.85,1.73,5.71,2.43,8.61a45.43,45.43,0,0,1,.94,9,71,71,0,0,0,1.58,10.73c0.78,4,1.6,8.06,2.3,12.11a10.52,10.52,0,0,1,.15,2.66,28.71,28.71,0,0,1-5,13.72c-1.84,2.77-3.61,5.58-5.42,8.36-0.44.68-.91,1.34-1.4,2a2.36,2.36,0,0,0-.34,2.17,86.29,86.29,0,0,0,4.09,11.56,70.1,70.1,0,0,0,4.05,8.54,21.86,21.86,0,0,0,4.21,4.78,30.91,30.91,0,0,1,6.8,8.72,11.24,11.24,0,0,1,.74,1.9c0.21,0.69.27,1.43,0.51,2.11a12.7,12.7,0,0,1,.64,5.15,6.22,6.22,0,0,1-.49,2.21c-0.64,1.43-1.29,2.87-2,4.25a2.34,2.34,0,0,0,0,2.3c1.27,2.75,2.5,5.51,3.73,8.28a2.8,2.8,0,0,1,.21,1.23c-2.47-1.31-4-3.6-6.16-5.57,0.35,1.59.64,2.94,0.95,4.28s0.69,2.73,1,4.11,1.14,2.57,1,4.17a7.65,7.65,0,0,1-2.22-2.55q-1-1.61-2-3.27a7.3,7.3,0,0,1-.56-1.41,3.8,3.8,0,0,0-.45-1.15c-0.75,3.07-1.5,6.15-2.28,9.38a3,3,0,0,1-.37-0.78c-0.13-1.1-.23-2.2-0.33-3.3-0.19-2.12-.26-4.25-0.59-6.35a44.09,44.09,0,0,1-.31-6,1.55,1.55,0,0,0-.52-1.23c-0.41-.37-0.81-0.77-1.24-1.11a32.39,32.39,0,0,1-6.16-7.07,45,45,0,0,1-2.44-4.19,17.7,17.7,0,0,1-1.6-6,2.16,2.16,0,0,1,0-.74c0.71-2.8,1.41-5.61,2.19-8.39a2.54,2.54,0,0,0,0-1.48c-0.8-2.69-1.54-5.4-2.44-8.06A27.17,27.17,0,0,0-600,7735c-0.62-.7-1.07-1.53-1.64-2.27a11.29,11.29,0,0,0-1.28-1.41,24,24,0,0,0-4.94-3.38c-2.56-1.37-5.07-2.84-7.67-4.12-4-2-8.07-3.7-12-5.69a41.49,41.49,0,0,1-13.53-11.35,113.12,113.12,0,0,1-8.23-11.84c-1.23-2-2.79-3.77-4-5.76-1.48-2.43-2.77-5-4.13-7.48-0.35-.64-0.6-1.33-1-1.93-0.8-1.22-.89-2.69-1.52-4-1.07-2.18-2.07-4.39-3-6.64-1.31-3.29-2.46-6.64-3.74-9.93-2.26-5.87-2.88-12.08-3.87-18.22-0.17-1.06-.3-2.13-0.41-3.2a1,1,0,0,1,.47-1,30.84,30.84,0,0,1,1.19,3.5,43.7,43.7,0,0,0,2.47,7.05c0.92,2.11,1.45,4.41,2.38,6.53a20.7,20.7,0,0,0,2.14,3.76c4.17,5.73,8.35,11.44,12.06,17.47a35.05,35.05,0,0,1,2.39,4.62,19.29,19.29,0,0,0,2.89,5q5.57,6.6,11.14,13.2c1.46,1.73,3,3.43,4.45,5.12,0.52,0.59,1.12,1.12,1.68,1.67l0.23-.14c-0.18-.54-0.32-1.1-0.53-1.63-1.45-3.5-2.92-7-4.37-10.5-0.84-2-1.55-4.16-2.48-6.17-1.57-3.4-3.26-6.74-4.9-10.1-1.1-2.26-2.18-4.53-3.26-6.79-0.28-.58-0.52-1.17-0.82-1.73-1.32-2.46-1.59-5.18-2.07-7.86a41.6,41.6,0,0,0-1.87-7.53,0.71,0.71,0,0,1,.09-0.29c0.93-.16,1.06.91,1.55,1.22a4,4,0,0,1,1.32,1.59c2.9,5.69,6.71,10.72,10.5,15.77,2.22,3,4.43,6,6.47,9,1.54,2.35,2.81,4.87,4.21,7.31a0.94,0.94,0,0,0,.49.48c-0.35-1.08-.65-2.18-1.06-3.24-1.32-3.46-2.6-6.94-4-10.35-1.19-2.82-2.6-5.54-3.9-8.31s-2.7-5.6-3.9-8.46c-1.42-3.38-2.72-6.8-4-10.24s-2.44-6.82-3.53-10.27A78.76,78.76,0,0,1-646,7626c-0.81-4.78-1.68-9.55-2.46-14.33-1-6.25-2-12.52-2.93-18.78q-0.44-2.83-.87-5.66Z" transform="translate(670.97 -7461.42)"/>
    <path d="M-490.15,7587.72c-1.22,2.57-3.46,4.15-5.67,5.78a39.49,39.49,0,0,1-12.26,5.8,24.59,24.59,0,0,1-3.77.67c-1.61.23-3.23,0.44-4.86,0.6-2.41.25-4.74-.38-7.08-0.77a15.56,15.56,0,0,1-5.57-2.33c-1.45-.88-3-1.59-4.41-2.56a13.78,13.78,0,0,1-5.28-6.77,26.46,26.46,0,0,1-.71-3.2l0.22-.06c0.74,1.14,1.46,2.29,2.24,3.41a21.71,21.71,0,0,0,7.22,6.1,17.07,17.07,0,0,0,7.35,2,66.55,66.55,0,0,0,13.22-.29,10,10,0,0,0,3-.92c2.65-1.31,5.32-2.6,7.83-4.15a10.07,10.07,0,0,0,4.75-5.4,3.45,3.45,0,0,0-.15-2.36c-0.38-.91-0.73-1.84-1.18-2.71a4.37,4.37,0,0,0-1-1.19c-1.34-1-2.74-2-4.12-3a1.94,1.94,0,0,0-.59-0.29c-2.91-.86-5.81-1.81-9-0.84a20.37,20.37,0,0,1-5.36.79c-3.15.09-5.39,1.76-7.49,3.67-1.06,1-1.19,3.89.32,5.32a11.41,11.41,0,0,0,1.79,1.33c1.39,0.86,2.8,1.66,4.21,2.49l0.79,0.44-0.24.29a6.15,6.15,0,0,1-.89-0.07,31.4,31.4,0,0,1-8-2.81,3.83,3.83,0,0,1-2.1-3,8.63,8.63,0,0,1,4.82-8.89c4.9-2,9.92-3.29,15.37-2.93a11.28,11.28,0,0,0,2.56-.21c2.89-.47,5,1,7.07,2.43,0.29,0.2.55,0.44,0.85,0.63,3.29,2,4.94,5.14,6,8.7a10.86,10.86,0,0,1,.5,2.44,4.07,4.07,0,0,1-.39,1.87m13.44,2.13a39.77,39.77,0,0,0-.68-10.78,4.49,4.49,0,0,0-1.35-2.34c-1.18-1.12-2.24-2.37-3.33-3.59-0.52-.58-1-1.25-1.52-1.8a31.78,31.78,0,0,0-2.59-2.26c-1.35-1.06-2.71-2.13-4.16-3.06a41,41,0,0,0-11.6-4.71,43.26,43.26,0,0,0-6.82-.94,35.43,35.43,0,0,0-11.68.63c-3.88.89-7.71,2-11.58,3a18.26,18.26,0,0,0-9.07,5.4,36.59,36.59,0,0,0-6.51,9.42q-2.5,5.32-4.73,10.75a9.17,9.17,0,0,0-.33,3,1.32,1.32,0,0,0,.43.78,43.62,43.62,0,0,0,9.1,8,135.76,135.76,0,0,0,12.73,6.77,17.37,17.37,0,0,0,7.05,1.72,25.7,25.7,0,0,1,5.61.82,23.91,23.91,0,0,0,10.38.07c2.73-.51,5.41-1.28,8.12-1.88a19.25,19.25,0,0,0,6.71-3c2-1.39,4.2-2.6,6.32-3.87a11.6,11.6,0,0,1,1.2-.56,27.19,27.19,0,0,1-5.21,5.71,31.93,31.93,0,0,1-11.69,5.42,85.66,85.66,0,0,1-9.25,1.64,25.72,25.72,0,0,1-9.73-.39,77.74,77.74,0,0,1-9.91-3.33,55.21,55.21,0,0,1-12.58-6.15c-3.19-2.24-6.28-4.58-8.31-8a3.35,3.35,0,0,0-.54-0.48c0,0.56,0,.9,0,1.22,0.18,1.61.39,3.23,0.58,4.84a8.73,8.73,0,0,0,.33,2.59,15.43,15.43,0,0,0,1.77,2.09,22.61,22.61,0,0,0,5.92,5.42q1.21,0.81,2.44,1.59a49.66,49.66,0,0,0,13.24,6.26,79.12,79.12,0,0,0,19.07,2.87,10.22,10.22,0,0,0,4.53-.78c2.94-1.32,5.9-2.61,8.75-4.09a88.64,88.64,0,0,0,10.79-6.7A7.69,7.69,0,0,0-482,7608c0.78-1.78,1.68-3.5,2.42-5.29,0.84-2,1.48-4.15,2.37-6.17,1-2.18.45-4.44,0.54-6.65" transform="translate(670.97 -7461.42)"/>
    <path d="M-484.72,7523.87c-2.62-3-5.06-6.07-6.43-9.85a2,2,0,0,0-1.4-1.25q-4.64-1.73-9.23-3.55a40.22,40.22,0,0,1-7.38-4.29c-4.37-2.94-8.66-6-13-9a2.92,2.92,0,0,1-.67-0.68c1.09,0.52,1.74-.09,2.5-0.72,2.38-1.94,4.81-3.83,7.86-4.68l0.75-.2-8.39,6.13a4.76,4.76,0,0,0,1,1,96.72,96.72,0,0,1,9.8,5.43,2.46,2.46,0,0,0,1.72.31,212.63,212.63,0,0,1,21.86-2.9c0.7-.05,1.41,0,2.11-0.06a0.67,0.67,0,0,1,.55.25c-0.5.11-1,.25-1.5,0.33-2.34.4-4.69,0.72-7,1.19-3.66.74-7.3,1.57-11,2.36-0.6.13-1.23,0.14-1.82,0.3a1.41,1.41,0,0,0-.91.57,0.84,0.84,0,0,0,.71.94c2.13,1,4.24,1.94,6.37,2.87,3.11,1.35,6.24,2.64,9.33,4a3.28,3.28,0,0,0,2.53.12,36.4,36.4,0,0,1,10.2-2,10.48,10.48,0,0,1,2.11.15c-3.4,1.59-7.13,2-11,3,1.3,1.25,2.86,1.58,4,2.58l-8.54-2.39a1.92,1.92,0,0,0,.39,1.85c1.27,2,2.51,4,4,5.89,1.31,1.69,2.88,3.19,4.33,4.77,0.41,0.45.85,0.88,1.23,1.36a15.27,15.27,0,0,1-5.12-3.84m-40.25,3.37a8.69,8.69,0,0,0,1.11-.71,3.06,3.06,0,0,1,4.26.75,11.72,11.72,0,0,0,1.89,1.89c2.1,1.59,4.21,3.2,6.45,4.57a5.27,5.27,0,0,0,4.56.68,15,15,0,0,1,8.77-.47,13.12,13.12,0,0,0,1.52.28,13,13,0,0,0,6.83-.76,11.1,11.1,0,0,1,6.59-.6,12.83,12.83,0,0,0,2,.15c1.05,0,2.1-.07,3.15-0.18a3.62,3.62,0,0,0,2.38-1.29c0.8-.92,1.63-1.82,2.44-2.74a0.91,0.91,0,0,0,.18-0.45c0.14-1.62,1.28-2.4,2.62-3a18.12,18.12,0,0,0,4.24-3.06,6.7,6.7,0,0,0,2.11-4.28,11.46,11.46,0,0,0-.66-6.44,4.19,4.19,0,0,1-.33-1,2.73,2.73,0,0,0-1.1-1.7,28.12,28.12,0,0,1-6.33-8,10.84,10.84,0,0,0-2.05-3.34c-1.06-1-2-2-3-3a3.9,3.9,0,0,0-1-.67,24.19,24.19,0,0,0-3-1,19.5,19.5,0,0,1-8.09-5.26,7.08,7.08,0,0,0-3.66-2.12,35.3,35.3,0,0,0-9.34-1.28,9.05,9.05,0,0,1-5.11-1.39,19.11,19.11,0,0,0-3.16-1.29c-3.09.41-6.22,0.72-9,2.22-1.86,1-3.67,2.08-5.54,3.06a8.58,8.58,0,0,1-7.73.56c-0.4-.17-0.83-0.29-1.25-0.43-1.49-.52-3-0.93-4.47-1.57a55.76,55.76,0,0,1-11.23-6.82,9.38,9.38,0,0,0-4.23-2c-1.93-.3-3.88-0.47-5.67.83-3.59,2.62-3.12,1.75-4.83,6.07-0.87,2.19-.81,2.17,0,4.33a3.93,3.93,0,0,0,1.84,1.78,4.13,4.13,0,0,0,2.91,1,2.43,2.43,0,0,1,.78.14,62,62,0,0,1,11.3,3.62,27,27,0,0,1,7.75,4.7,7.32,7.32,0,0,1,.84,1c0.36,0.48.69,1,1.05,1.46s0.74,0.87,1.08,1.32a10.15,10.15,0,0,1,1.8,4.21c0.54,0,1,.06,1.49.06,1.06,0,2.12-.08,3.16,0a125.37,125.37,0,0,1,17.14,2.18c1.92,0.42,6,1.63,6.09,1.67,3.08,1,6.16,2,9.2,3.22a7.69,7.69,0,0,1-1-.09c-2-.43-3.91-0.94-5.89-1.3a16.14,16.14,0,0,0-3.47-.4,4.87,4.87,0,0,0,.3.81c1.22,2,2.34,4,3.69,5.9a47.46,47.46,0,0,0,7.81,8.18c0.74,0.64,1.43,1.33,2.15,2a28.11,28.11,0,0,1-3.11-1.24,12.23,12.23,0,0,1-4.1-2.81,57.08,57.08,0,0,1-6.14-7.2,21.68,21.68,0,0,1-3.59-7.09c-2.24-.53-4.59-1.1-6.91-1.6a22.7,22.7,0,0,0-3.17-.47c-1.62-.12-3.25-0.16-4.88-0.25l-1.55-.06c0.1,1.62.1,3.11,0.32,4.57s0.65,2.83,1,4.44a10.59,10.59,0,0,1-2.51-4.57c-0.55-1.58-1.41-3.09-1.1-4.73l-4.38-.19c0,1.36.13,2.53,0.1,3.7a27.94,27.94,0,0,0,3,13.07,2.23,2.23,0,0,0,.67.89c0.76,0.51,1.65.85,2.37,1.41,1.25,1,2.46.67,3.71,0.11" transform="translate(670.97 -7461.42)"/>
    <path d="M-495.31,7748.13a7.84,7.84,0,0,1-2.88.95,1.65,1.65,0,0,0,0,.28,14,14,0,0,0,2.89,5,1.76,1.76,0,0,0,.75.49c0.46,0.16.91,0.35,1.38,0.51h0.24c0.51-.13,1-0.29,1.52-0.41a3.31,3.31,0,0,0,2.11-1.58c0.27-.44.48-0.92,0.73-1.4a17.1,17.1,0,0,1-3-4.27,4.82,4.82,0,0,1,1.24-1.68,5.52,5.52,0,0,0,.63-0.73,13.13,13.13,0,0,1,2.61-2.34c0.61-.48,1.23-1,1.82-1.47a4.7,4.7,0,0,0,1.32-1.86,4.52,4.52,0,0,0,.46-2.17,11.12,11.12,0,0,0-1.29-4.59,5.22,5.22,0,0,0-2.22-2.14c-1.16-.57-2.26-1.28-3.39-1.92-0.54-.3-1.07-0.59-1.62-0.87a12.19,12.19,0,0,0-3.65-1,17.09,17.09,0,0,0-3.41,0,6.71,6.71,0,0,0-2.84,1.1,6.37,6.37,0,0,0-2.53,2.76,26.27,26.27,0,0,1-3.45,4.64,10.1,10.1,0,0,0-1.52,2.38,5,5,0,0,0-.37,1.35c-0.07.63-.11,1.26-0.13,1.89a2.15,2.15,0,0,0,.12.76q0.56,1.64,1.16,3.26a1.87,1.87,0,0,0,.84,1,14.35,14.35,0,0,0,3.92,1.68,7.31,7.31,0,0,0,1.55.17c1,0,2-.07,3,0a23.76,23.76,0,0,0,2.92.09c0.36,0,.72-0.05,1.07-0.08l0,0.12" transform="translate(670.97 -7461.42)"/>
    <path d="M-464.24,7779.71a23,23,0,0,1-1.72,2.72,1.31,1.31,0,0,1,0-.22c0.17-.63.33-1.26,0.52-1.89a3.4,3.4,0,0,0,.1-1.73,22.31,22.31,0,0,0-1.61-5,19.47,19.47,0,0,1-1-2.8c-0.21-.68-0.29-1.4-0.52-2.07a5.76,5.76,0,0,0-2.84-3.67c-1.34-.63-2.62-1.4-4-2s-2.72-1.18-4.06-1.81c-0.37-.18-0.74-0.37-1.1-0.56a1.43,1.43,0,0,1-.24-0.25,4.19,4.19,0,0,1,.46,0l2.6,0.52a10.45,10.45,0,0,0,1.22.2,4.34,4.34,0,0,1,2,.66,34.15,34.15,0,0,1,4.28,2.69,9.83,9.83,0,0,1,.95.79,4,4,0,0,1,.66.9,18,18,0,0,1,1.82,5.17,20.14,20.14,0,0,0,2,5.65,7.87,7.87,0,0,1,.61,1.74,1.4,1.4,0,0,1-.11.92m5.47-7.39c-0.41-2.38-.86-4.75-1.3-7.12a0.38,0.38,0,0,0,0-.12c-0.72-1.27-1.47-2.53-2.2-3.8a5.31,5.31,0,0,0-2.4-2.29c-0.65-.29-1.32-0.55-2-0.82-1.07-.43-2.15-0.8-3.18-1.29a19.56,19.56,0,0,0-4-1.52,10,10,0,0,1-1.74-.47,4.29,4.29,0,0,0-2-.16c-0.28,0-.56.07-0.84,0.08a13,13,0,0,0-4.45,1.31l0,0a45.6,45.6,0,0,0-3.06,3.75,3.51,3.51,0,0,0-.77,2.58,46.55,46.55,0,0,0,.55,4.84,34.37,34.37,0,0,0,2.68,7.24c0.89-.31,1.77-0.61,2.65-0.93l0.08-.05c1.36-1.25,2.69-2.52,3-4.45a9.14,9.14,0,0,1,.22-1c0.13-.47.29-0.94,0.44-1.41l0.11,0a1.81,1.81,0,0,1,0,.26c-0.06.87-.13,1.75-0.17,2.62a0.76,0.76,0,0,1-.06.25,11.44,11.44,0,0,1-1.69,2.29,11.86,11.86,0,0,1-4,3.33,3.1,3.1,0,0,1-1.13.33,5.49,5.49,0,0,0-1.47.26,20.26,20.26,0,0,0-6.88,3.67l-0.07.08c-0.5.86-1,1.73-1.45,2.59a0.22,0.22,0,0,0,0,.16c0.3,1.28.55,2.58,0.82,3.87,0,0.13.06,0.25,0.11,0.46,0.76,0.2,1.54.43,2.32,0.6a8.5,8.5,0,0,0,5.53-.19l0.78-.34a46.79,46.79,0,0,0,7.65-4.41c0.45-.33.94-0.62,1.36-1,1.27-1.12,2.51-2.26,3.76-3.4l0.76-.7a48.46,48.46,0,0,1-3.85,4.54,3,3,0,0,0,.22.2c0.34,0.23.7,0.44,1,.69a14,14,0,0,0,4,2.26,15,15,0,0,0,4.09.83,0.15,0.15,0,0,0,.11,0c1.26-1.31,2.54-2.6,3.81-3.91a5,5,0,0,0,1.24-1.92c0.36-1.12.75-2.24,1.09-3.37a9.55,9.55,0,0,0,.34-4.45" transform="translate(670.97 -7461.42)"/>
    <path d="M-422.72,7603.64a12.06,12.06,0,0,1-3.19,2.39,6.56,6.56,0,0,0-3.4,3.08,18.9,18.9,0,0,1-3.89,4.91,8.69,8.69,0,0,0-2.05,3.19c-0.91,2.45-1.93,4.86-2.9,7.28a1.19,1.19,0,0,1-.48.57c0-.8,0-1.61.13-2.41a26.2,26.2,0,0,1,.54-3.34,13.55,13.55,0,0,1,1-2.34,8.43,8.43,0,0,1,.69-1.18,12.87,12.87,0,0,1,1.53-2,10.62,10.62,0,0,0,2.37-3.57,6.56,6.56,0,0,1,3.25-3.49c2.08-1,4.12-2.17,6.17-3.26l0.19,0.21m0.17-6.66a37.07,37.07,0,0,0-9.89,3.08,18.47,18.47,0,0,0-5.41,3.34c-1.81,1.7-3.48,3.56-5.2,5.36a2.9,2.9,0,0,0-.59,1.07,21.9,21.9,0,0,0-.9,4.12,54.61,54.61,0,0,0,0,7,7.71,7.71,0,0,0,.94,3.33,20.82,20.82,0,0,0,4.36,5.13,1.4,1.4,0,0,0,1.26.36c1-.15,2-0.22,3-0.34a9.13,9.13,0,0,0,2.41-.39,12.91,12.91,0,0,0,3.93-2.45c1.3-1.24,2.58-2.49,3.88-3.71,0.53-.49,1.1-0.93,1.77-1.49l-2.52-2.71a5.55,5.55,0,0,1,1.76,1.06,29.67,29.67,0,0,1,4.36,5.59,7.61,7.61,0,0,0,1.6,2.24,8.25,8.25,0,0,0,2.82.64,0.86,0.86,0,0,0,.27,0c1.21-1.54,2.44-3.09,3.66-4.65a7.14,7.14,0,0,0,1.54-2.16c0.22-.84-0.17-1.84-0.19-2.76,0-1.79-1.5-2.64-3-3.86a31.7,31.7,0,0,0-4.07-2.86c-1.5-.87-3-1.76-4.47-2.64a0.94,0.94,0,0,1,.68-0.07l4.43,1.45,1.43,0.49a14.67,14.67,0,0,0,3-10c-1.15-1.12-2.38-2.36-3.66-3.56a2,2,0,0,0-1.09-.6,39,39,0,0,0-6.18,0" transform="translate(670.97 -7461.42)"/>
    <path d="M-411.29,7685.78c-0.83-.57-1.64-1.16-2.53-1.81a15.73,15.73,0,0,1,1-1.4c0.64-.74,1.32-1.45,2-2.15s1.65-1.64,2.47-2.45a1,1,0,0,1,.3-0.2c1.32-.58,2.63-1.18,4-1.7a7,7,0,0,1,3.79-.2c0.16-.35.32-0.67,0.45-1,1.47-3.59,2.73-7.27,4.51-10.72,1.12-2.16,2.28-4.29,3.56-6.35,0.79,0.31,1.58.65,2.37,1-0.75,1.07-1.49,2.16-2.21,3.25-2.55,3.93-4.17,8.28-6.39,12.34l0.16,0.09c0.45-.65.9-1.29,1.35-1.94,1.6-2.41,3.23-4.79,4.83-7.19,1.06-1.57,2.06-3.18,3.17-4.71,0.24-.33.49-0.65,0.73-1,0.53,0.3,1.05.62,1.57,1-1.79,2.31-3.5,4.68-5.08,7.15,2.13-1.94,3.82-4.31,6.12-6l0.22-.17c0.35,0.29.68,0.6,1,.91-0.8.69-1.6,1.39-2.36,2.14-1.81,1.78-3.61,3.57-5.39,5.38a6.11,6.11,0,0,0-.73,1.14l-3.4,5.55a4.6,4.6,0,0,0-.26.56c1.27,0.93,1.73,2.4,2.52,3.65a22.07,22.07,0,0,1,1.34,2.4,9.62,9.62,0,0,1,.93,5.78,31.83,31.83,0,0,1-2.82,8.78c-0.89,1.88-1.86,3.72-2.8,5.57a3.34,3.34,0,0,1-.32.45,27.58,27.58,0,0,0-8.35-2.87,65.34,65.34,0,0,0,7.6,4.29l-1.59,2.67c-2.7,4.59-5.78,8.93-8.78,13.32-2.5,3.66-4.83,7.43-7.26,11.14-2.11,3.23-4.21,6.47-6.39,9.66-2.36,3.46-4.51,7-6.58,10.69l-0.22.38c-0.25-.12-0.5-0.21-0.72-0.34a33.19,33.19,0,0,0-6.58-3c-0.41-.12-0.83-0.22-1.25-0.31a0.71,0.71,0,0,0-.25,0l-0.11.2c1.35,0.83,2.67,1.71,4.06,2.48s2.77,1.4,4.25,2.13c-0.32.6-.57,1.12-0.86,1.61a96.57,96.57,0,0,1-7.9,11.25,78.44,78.44,0,0,0-6,8.58c-0.57.94-1.21,1.84-1.83,2.75a5.55,5.55,0,0,1-.39.45c0-.9.08-1.62,0.1-2.35,0.1-3.2.13-6.41,0.32-9.62a77.52,77.52,0,0,1,1.27-9.43,46.81,46.81,0,0,1,3.09-9.47c1-2.31,1.93-4.62,2.86-6.93a28.1,28.1,0,0,1,2.69-5.13,20.35,20.35,0,0,0,2.18-4.71c0.87-2.51,1.82-5,2.65-7.51q1.13-3.44,2.06-6.94a90,90,0,0,1,5.35-14.7c0.84-1.8,1.67-3.61,2.61-5.35,0.64-1.17,1.51-2.21,2.24-3.34,0.63-1,1-2.06,1.7-3a12.43,12.43,0,0,0,2-4,2.42,2.42,0,0,1,.52-0.78c1.61,1,3.17,2.11,4.79,3.07a42.53,42.53,0,0,0,5,2.62,3.52,3.52,0,0,0-1-1.35,39.35,39.35,0,0,0-5.35-4.32" transform="translate(670.97 -7461.42)"/>
    <path d="M-549.63,7758.1a23.9,23.9,0,0,0,.84,5.38,3.08,3.08,0,0,0,.84,1.4c0.77,0.74,1.52,1.49,2.26,2.26a14.85,14.85,0,0,0,5.68,3.77,3.32,3.32,0,0,0,1.61.35,43.24,43.24,0,0,0,4.64-1.14,14.07,14.07,0,0,0,4.2-1.89A23.61,23.61,0,0,0-525,7764a2.21,2.21,0,0,0,.45-0.94,18.29,18.29,0,0,0,.23-5.93,18.55,18.55,0,0,0-2.18-6.75,3.42,3.42,0,0,0-1.58-1.63c-0.67-.29-1.3-0.66-2-0.93-1.56-.61-3.18-1.1-4.7-1.79a5.46,5.46,0,0,0-3-.34c-0.31,0-.61.08-0.92,0.14a17.35,17.35,0,0,0-5.19,1.63,18.52,18.52,0,0,0-4.63,3.72,1.58,1.58,0,0,0-.42.7,29.7,29.7,0,0,0-.73,6.23m35-5.62a22.94,22.94,0,0,1-.76,6.46,41.31,41.31,0,0,1-2.72,7.82,18.83,18.83,0,0,1-3.94,5.48,10.68,10.68,0,0,1-3.53,2.2c-1.82.74-3.64,1.47-5.49,2.11a21.37,21.37,0,0,1-8,1.11c-1.51-.07-3-0.19-4.54-0.41a10.1,10.1,0,0,1-4.84-2.38c-1.07-.86-2.07-1.8-3.13-2.67a8.86,8.86,0,0,1-2.22-3.41c-0.83-1.83-1.66-3.67-2.31-5.56a17,17,0,0,1-.86-6.54,63.39,63.39,0,0,1,6-22.79,46.58,46.58,0,0,1,7.49-11.28,12.13,12.13,0,0,1,2.89-2.27c0.43-.26.87-0.51,1.29-0.79a5.19,5.19,0,0,1,6.21-.07,37.71,37.71,0,0,1,8.53,7.52,26.17,26.17,0,0,1,3.84,6.47c1.29,3.12,2.64,6.22,3.89,9.35a25.51,25.51,0,0,1,2.12,8.15c0,0.5,0,1,0,1.5" transform="translate(670.97 -7461.42)"/>
    <path d="M-527.5,7698.54a2.3,2.3,0,0,1,.08-0.3c1.63-3.5,2.78-7.17,4.08-10.79,0.73-2,1.44-4.1,2.1-6.16a21.3,21.3,0,0,0,1-5.89c0.11-3.45.15-6.91,0.24-10.37a24.24,24.24,0,0,1,.85-5.64,33.34,33.34,0,0,1,1.77-5.31,35.31,35.31,0,0,1,2.8-5.14c0.6-.88,1.12-1.82,1.67-2.73,0.06-.09.09-0.2,0.16-0.35l-1.79-.62a5.61,5.61,0,0,1-1.88-1,0.84,0.84,0,0,1-.28-0.88c0.14-1.24,1.11-1.69,2-2.17a1,1,0,0,1,.52,0c1.3,0.17,2.62.28,3.91,0.54a5.91,5.91,0,0,1,4.2,3.48,1.82,1.82,0,0,1,.28,1,7,7,0,0,1-.7,1.45l-0.15.1a3.45,3.45,0,0,1-2,0,9.87,9.87,0,0,0-1-.41,0.9,0.9,0,0,0-1,.38c-0.42.69-.8,1.4-1.19,2.09-0.21.36-.38,0.75-0.62,1.09a24.25,24.25,0,0,0-2.12,4.15,34.24,34.24,0,0,0-2.19,6,41.21,41.21,0,0,0-.94,7.33c0,1.2.1,2.4,0.12,3.6,0,1.58,0,3.15,0,4.73,0,0.62-.06,1.24,0,1.87a13.81,13.81,0,0,1-.81,4.06,25,25,0,0,1-2.25,5.36c-0.9,1.59-1.7,3.24-2.67,4.79-1.11,1.8-2.33,3.53-3.51,5.28a6.76,6.76,0,0,1-.52.59l-0.14-.08" transform="translate(670.97 -7461.42)"/>
    <path d="M-533.12,7657c-1.18.17-2.11-.46-3.15-0.56a0.51,0.51,0,0,1-.37-0.2c-0.46-.64-1-1.25-1.49-1.91,0.33-.74.64-1.48,1-2.2a0.49,0.49,0,0,1,.21-0.2,18.06,18.06,0,0,1,2.41-1,5.35,5.35,0,0,1,1.65,0c0.38,0,.75.14,1.13,0.15a8.09,8.09,0,0,1,3.26,1.09c0.56,0.28,1.13.52,1.7,0.78a3.82,3.82,0,0,1,1.62,1.63,0.59,0.59,0,0,1-.07.48c-0.35.65-.72,1.28-1.14,1.9a0.62,0.62,0,0,1-.52.26,9.12,9.12,0,0,1-2.37,0,6.15,6.15,0,0,0-.94-0.06,2.06,2.06,0,0,0-.13.35,39.74,39.74,0,0,1-1.9,6c-0.68,2-1.37,3.95-2,5.94a17.67,17.67,0,0,0-.73,5.59,30.08,30.08,0,0,0,.94,7.58c0.1,0.36.22,0.72,0.33,1.08a17.26,17.26,0,0,1,.35,6.26,2.09,2.09,0,0,1-.21.7,7.51,7.51,0,0,0-.43,1.6h-0.18c-0.13-.43-0.29-0.85-0.39-1.28-0.34-1.5-.63-3-1-4.48s-0.74-2.84-1.1-4.27c-0.17-.67-0.29-1.35-0.49-2a14.31,14.31,0,0,1-.48-6.13c0.24-1.71.62-3.4,1-5.09s0.77-3.23,1.21-4.83c0.31-1.13.67-2.25,1.07-3.35a27.07,27.07,0,0,0,1.22-3.87" transform="translate(670.97 -7461.42)"/>
    <path d="M-498.51,7706c0.05-.45.08-0.91,0.16-1.36,0.27-1.53.56-3.05,0.84-4.58,0.07-.39.12-0.8,0.21-1.18a13.21,13.21,0,0,0,.16-3.65,54.87,54.87,0,0,0-.91-7.06,27.25,27.25,0,0,1-.49-3.89,18.35,18.35,0,0,1,.52-5.08c0.18-.73.31-1.47,0.48-2.25l-0.49-.09c-0.55-.06-1.1-0.11-1.65-0.19s-0.67-.65-1-1a22.17,22.17,0,0,1,1.63-2.43,7.87,7.87,0,0,1,1.56-1,2.18,2.18,0,0,1,1.52-.32c1.13,0.1,2.27.14,3.4,0.24a1.78,1.78,0,0,1,.72.22c0.61,0.34,1.2.7,1.79,1.08a2.74,2.74,0,0,1,.55.55,0.83,0.83,0,0,1,.1,1c-0.22.47-.37,1-0.55,1.45a1.62,1.62,0,0,1-1.54,1.07c-0.52,0-1-.13-1.56-0.19a3.9,3.9,0,0,0-.59-0.06,0.58,0.58,0,0,0-.61.51,29.65,29.65,0,0,0-.54,7.14c0.09,3,.88,5.82,1.31,8.73a9.25,9.25,0,0,1-.49,4.61c-0.63,1.68-1.3,3.36-2.06,5a10.64,10.64,0,0,1-1.39,1.86c-0.27.34-.55,0.67-0.83,1l-0.2-.07" transform="translate(670.97 -7461.42)"/>
    <path d="M-511.62,7706.77a6.63,6.63,0,0,1-.05-0.89c0.22-3.48.43-7,.69-10.44a46.14,46.14,0,0,0-.15-9.18,30,30,0,0,1,0-7.11c0.2-1.79.34-3.6,0.68-5.36a38,38,0,0,1,1.36-5.07c0.87-2.56,1.88-5.08,2.82-7.63,0.08-.23.13-0.46,0.21-0.71a1.79,1.79,0,0,0-.42-0.16c-1-.07-1.57-0.85-2.24-1.45a0.85,0.85,0,0,1,.21-1.16,15.34,15.34,0,0,1,1.38-.68,0.41,0.41,0,0,1,.22,0,17.74,17.74,0,0,1,6.33,2.12,0.8,0.8,0,0,1,.47.67c0.07,0.64.17,1.28,0.27,1.91a0.79,0.79,0,0,1-.32.75,1.36,1.36,0,0,1-2,.2,8.08,8.08,0,0,0-1.37-.61c-0.13.31-.22,0.53-0.31,0.75-0.17.44-.31,0.88-0.49,1.31-0.9,2.22-1.89,4.42-2.68,6.68a29.52,29.52,0,0,0-1.83,8.85,44.44,44.44,0,0,0,.19,5.05,46.34,46.34,0,0,1,0,9.32,53.41,53.41,0,0,1-1.35,8.22c-0.44,1.56-1,3.09-1.45,4.64h-0.21" transform="translate(670.97 -7461.42)"/>
    <path d="M-486.95,7644.22a1,1,0,0,0-.32,0,2.17,2.17,0,0,1-1.89-.36,0.88,0.88,0,0,1-.3-0.34c-0.15-.25-0.29-0.5-0.41-0.76a2.05,2.05,0,0,1,.38-2.64c0.41-.44.83-0.88,1.21-1.33a0.74,0.74,0,0,1,.63-0.28,17.11,17.11,0,0,1,3.89.59l0.06,0a6.43,6.43,0,0,1,2.09,2c0.29,0.5.43,1.07,0.66,1.6a0.69,0.69,0,0,1-.07.75c-0.19.29-.37,0.61-0.56,0.91a1.62,1.62,0,0,1-2.07.79l-0.71-.17c-0.49-.11-0.64,0-0.77.46s-0.24,1-.35,1.5c-0.44,1.95-.91,3.89-1.31,5.85a16.64,16.64,0,0,0,.76,9.37c0.64,1.69,1.56,3.24,2.31,4.87a42.46,42.46,0,0,1,1.86,4.55c0.45,1.37,1,2.71,1.47,4.07a2.68,2.68,0,0,1,.15.7c0.06,1,.1,2,0.14,3.06a1.64,1.64,0,0,1-.09.31c-0.17-.28-0.31-0.46-0.41-0.66q-0.77-1.51-1.52-3c-0.81-1.65-1.67-3.29-2.4-5-1.09-2.5-2.11-5-3.14-7.56a26.23,26.23,0,0,1-1.75-8c0-.58-0.09-1.15-0.16-1.72a3.19,3.19,0,0,1,.14-1.38c0.66-2,1.3-4,1.95-6a12.55,12.55,0,0,0,.52-2.22" transform="translate(670.97 -7461.42)"/>
    <path d="M-453.21,7825.06c-3.1,1.27-6.16,2.61-9.35,3.69a116.5,116.5,0,0,1-29.77,6c-1.61.11-3.21,0.37-4.82,0.5-3.54.29-7.08,0.73-10.63,0.79-5.61.1-11.2,0.37-16.78,0.8a40.93,40.93,0,0,1-9.19-.33c-4.35-.65-8.73-1.17-13.07-1.89s-8.51-1.62-12.76-2.42c-3.68-.7-7.36-1.41-11.06-2-1.89-.32-3.83-0.43-5.74-0.65a12,12,0,0,1-1.33-.34c1.35-.81,2.43-1.52,3.57-2.15,3.76-2.1,7.56-4.14,11.3-6.26a113.33,113.33,0,0,1,14.29-6.54,82.35,82.35,0,0,1,18.11-4.38c3.39-.52,6.81-0.92,10.22-1.33,1.06-.13,2.15-0.14,3.23-0.17s1.95,0,2.91,0a49,49,0,0,1,10.3.6c2.18,0.3,4.37.62,6.56,0.81A65.37,65.37,0,0,1-486.1,7812c5.18,1.38,10.32,2.91,15.46,4.38,0.91,0.26,1.8.6,2.69,0.91,2,0.72,4,1.56,6.11,2.14a61.12,61.12,0,0,1,9.37,3.91,10.36,10.36,0,0,1,.91.57,10.43,10.43,0,0,1-1.67,1.09m10.42-4.46a125.15,125.15,0,0,0-17.23-9.26,199.38,199.38,0,0,0-29.73-10.71,98.89,98.89,0,0,0-18.33-3.15,8.32,8.32,0,0,0-1.51,0c-1.79.2-3.59,0.36-5.37,0.64-6.15,1-12.32,1.87-18.43,3a84.89,84.89,0,0,0-13.09,3.23c-3.81,1.35-7.68,2.6-11.49,4a72.28,72.28,0,0,0-14.14,6.84c-3.48,2.2-6.75,4.62-10,7-2.37,1.72-4.64,3.53-6.94,5.3-0.47.37-.91,0.77-1.41,1.2,0.39,0.52.7,1,1.07,1.43,3.25,3.82,6.44,7.67,9.79,11.44a143.24,143.24,0,0,0,17.26,16.71,217.27,217.27,0,0,0,19.47,14.14c6.74,4.3,17.59,9.81,17.59,9.81s-2.64,13.35-2.66,14c8.31,3,28.09,2.51,35.19-1,0-.32-3.87-14.07-3.87-14.07s22.15-13.19,29.11-19.37a75.94,75.94,0,0,0,7.2-7.11c2.54-3,4.7-6.11,7-9.19a66,66,0,0,0,8.77-14.93c1.16-2.94,2.27-5.89,3.43-8.89l-1.62-1.1" transform="translate(670.97 -7461.42)"/>
    <path d="M-404.12,7495.64c0.32-.43.59-0.85,0.92-1.21,1.43-1.54,2.92-3,4.31-4.61,1.07-1.22,2-2.55,3-3.81,0.54-.66,1.14-1.26,1.7-1.91,1.35-1.58,2.68-3.17,4-4.76a1.73,1.73,0,0,0,.12-0.19,3.86,3.86,0,0,0-1.52.8c-1.92,1.36-3.85,2.72-5.8,4-0.93.63-1.93,1.16-2.92,1.75a0.58,0.58,0,0,1,0-.7,59.13,59.13,0,0,1,3.11-7.3,1.89,1.89,0,0,0,.15-0.35c1.47-4.87,3-9.73,4.52-14.59a5.5,5.5,0,0,0,.23-1.36c-0.52.7-1.22,1.29-.48,2.73a1.9,1.9,0,0,1-.5,2.31,32.61,32.61,0,0,0-10.16,15.19,9.66,9.66,0,0,1-.49,1.46,1.11,1.11,0,0,1,.06-1,0.83,0.83,0,0,0,.16-0.59c-0.33-3.57.07-7.15,0.08-10.72,0-1.95-.08-3.9-0.15-5.85a11.37,11.37,0,0,0-.24-2.12c0,0.17-.11.33-0.15,0.51-0.72,3.53-1.45,7.06-2.14,10.6a31.41,31.41,0,0,0-.56,8.36c0.14,1.89.17,3.79,0.25,5.69a0.65,0.65,0,0,1-.11.15c-0.07-.34-0.14-0.62-0.19-0.89-0.42-2.21-.86-4.42-1.25-6.64-0.3-1.67-.49-3.36-0.81-5a31.62,31.62,0,0,0-.92-3.48c-0.55-1.74-1.17-3.46-1.76-5.19a0.44,0.44,0,0,0-.27-0.27c0,0.67.06,1.33,0.09,2a74.93,74.93,0,0,0,1.4,11.46,42.64,42.64,0,0,1,.86,6.54c0.07,1.6.32,3.18,0.45,4.78,0.05,0.64,0,1.29,0,2-1.68-.18-2.78-0.92-4.41-1a0.36,0.36,0,0,1-.16,0,9.14,9.14,0,0,0-7.07-.83,40.27,40.27,0,0,0-5.2,1.5c-1.52.56-3,1.28-4.46,1.95l0,0q-1.59,1.64-3.13,3.33a10.49,10.49,0,0,0-1.85,3.41c-0.52,1.35-1,2.7-1.46,4.07a0.28,0.28,0,0,0,0,.07,26.17,26.17,0,0,0,.54,8.39c0.34,1.25.77,2.48,1.24,3.7s1.8,1.91,1.63,2.64a0.88,0.88,0,0,0,.4,1,8,8,0,0,1,4.45,4.85c0.44,1.41,1,2.79,1.35,4.22a9.42,9.42,0,0,1,.24,3.42c-0.44,4.08-2.56,7.51-5.49,10.73a1.3,1.3,0,0,0-.33.89c0,3.28-1.48,6-2.68,8.9-0.23.55-.44,1.11-0.66,1.66l0.13,0.11a5.64,5.64,0,0,0,.56-0.52,21.1,21.1,0,0,0,3.49-5,1.56,1.56,0,0,1,.52-0.66c2.51-1.81,3.83-4.34,5.13-6.89a32.33,32.33,0,0,1,3.64-5.77c0.22-.27.41-0.57,0.65-0.83a10.08,10.08,0,0,1,1-.94,20.16,20.16,0,0,1,3.61-2.42,25,25,0,0,1,10.34-2.64l0.26,0c2.5-.7,5.47-1.26,7.63-3.26a1,1,0,0,1,.21-0.15,12.52,12.52,0,0,0,5.74-5.6,7.4,7.4,0,0,1,1.44-1.91,6.09,6.09,0,0,0,1.6-2.9c0.39-1.54.79-3.08,1.13-4.64a0.16,0.16,0,0,0,0,0c-0.11-1.14-.42-2.25-0.59-3.38a7.32,7.32,0,0,0-2-3.93,37.67,37.67,0,0,0-8.76-7.28c-1-.58-2.07-1.12-3.1-1.69Z" transform="translate(670.97 -7461.42)"/>
    <path d="M-634.49,7505.34c-0.83-.81-1.69-1.59-2.5-2.42-1.59-1.62-3.13-3.28-4.73-4.89a0.26,0.26,0,0,1-.07-0.21c0.14-1,.21-2,0.26-3.07a0.86,0.86,0,0,1,1-.92,12.26,12.26,0,0,1,5.9,1.13c0.35,0.15.73,0.25,1.28,0.43a16.72,16.72,0,0,0-3.53-6.3c-1.8-1.85-3.45-3.85-5.18-5.77a1,1,0,0,1-.2-1.19c0.25-.55.38-1.14,0.58-1.72,0.11-.33.25-0.65,0.43-1.11,1.72,0.84,3.4,1.53,4.93,2.46s2.92,2.11,4.53,3.11c-0.34-.6-0.65-1.21-1-1.79a13,13,0,0,1-2.09-8.42c0.27-3,.87-6.06,1.36-9.27a10.5,10.5,0,0,0,1.78,1.14c1.67,0.63,2.28,1.91,2.7,3.53,0.58,2.26,1.45,4.45,2.09,6.71,0.39,1.35.58,2.76,0.85,4.15,0.1,0.51.18,1,.32,1.8l3-5.26a1.53,1.53,0,0,1,1.42,1.09c1.08,3.43,2.26,6.83,3.3,10.27-0.11,1.41.88,2.64,0.37,4.12l0.36,0.06c0.23-.39.48-0.77,0.7-1.16,0.38-.67.79-1.32,1.11-2,0.84-1.85,2.46-2.59,4.26-3.08a1.26,1.26,0,0,1,.41.06c0,0.36.08,0.72,0.08,1.07,0,2.58,0,5.16-.18,7.73-0.09,1.44-.48,2.86-0.71,4.3a5.35,5.35,0,0,0,0,1.89,6.61,6.61,0,0,0,.38-0.73c0.38-1,.77-2,1.12-3.07a1.37,1.37,0,0,1,1.23-1c0.55-.07,1.1-0.16,1.77-0.27,0.3,1.16.62,2.23,0.84,3.32,0.55,2.73,1.06,5.47,1.57,8.2a8.35,8.35,0,0,0,1.13,2.86,0.91,0.91,0,0,0,1.54,0c1.34-2.28,2.48-4.61,3.73-7a13.61,13.61,0,0,1,3,1.52,1.24,1.24,0,0,1,.39.72c0.56,2.48,1.19,4.94,1.59,7.45,0.34,2.14.42,4.33,0.58,6.5a16.3,16.3,0,0,1-.95,5.68c-0.51,1.82-.84,3.69-1.21,5.55-0.34,1.7-.67,3.4-0.91,5.11a5.12,5.12,0,0,0,.16,1.77c0.88,4,3.35,7.5,4.14,11.55,2.42,3.62,3.92,7.65,5.73,11.55,1.29,2.78,2.6,5.54,3.91,8.31a67.79,67.79,0,0,1,4.4,10.87c0.55,2,1.35,4,2,5.94,0.1,0.31.18,0.62,0.26,1a1.56,1.56,0,0,1-.72,1.7l-1,.56a0.46,0.46,0,0,1-.63-0.17c-0.5-.84-1-1.64-1.44-2.44-3.44-5.94-6.85-11.9-10.32-17.82-1.42-2.44-3.05-4.76-4.41-7.24-2.89-5.28-5.11-10.93-8.38-16v0c-0.25-2.26-.91-2.65-2.08-2.93a22.24,22.24,0,0,0-6.84-.85c-3.81.26-7.63,0.35-11.35,1.35h0c-3.55-1.75-7.41-2.53-11.2-3.54l-0.9-.26a7.24,7.24,0,0,1,.51-0.86c1.23-1.53,2.44-3.08,3.76-4.52h0a30.6,30.6,0,0,1,5.18-.94,21.22,21.22,0,0,0,5.18-1.12,4.53,4.53,0,0,0-.59-0.63c-1.89-1.31-3.74-2.71-5.72-3.88a14.5,14.5,0,0,0-3.42-1.18,2.41,2.41,0,0,0-1.07.12,15.58,15.58,0,0,1-7.45-.3,2.31,2.31,0,0,1-1.11-.85c-1.28-1.71-2.51-3.46-3.84-5.32a6.54,6.54,0,0,1,1-.76,12.91,12.91,0,0,1,5.67-1.63c0.82,0,1.65-.15,2.47-0.22l0.06-.26-1.16-.81-4.12-2.78a15.3,15.3,0,0,1-3.76-3.91,4.39,4.39,0,0,0-.49-0.69c-1.12-1-1.06-2.22-.65-3.54a1,1,0,0,1,1.08-.88c1.46,0.05,2.91.07,4.37,0.13S-635.85,7505.25-634.49,7505.34Z" transform="translate(670.97 -7461.42)"/>
  </g>
</svg>
