<svg id="Design" xmlns="http://www.w3.org/2000/svg" width="173" height="181" viewBox="0 0 173 181"><defs><style>.cls-1{fill:#231f20;}</style></defs><title>h_w_contact_logo</title><path class="cls-1" d="M507,10365.9H494.2c0-.3-0.1-0.5-0.1-0.8s-0.2-2.8-.3-4.1c-0.2-4.1-.5-8.1-0.7-12.2s-0.4-10.4-.6-15.6q-0.2-5-.3-10.1c-0.1-3.8-.2-7.7-0.2-11.5s0-9.8-.1-14.6c0-.2,0-0.4,0-0.6,5-.4,10-0.4,15-0.5v0.4c0,1-.1,2,0,3a26.3,26.3,0,0,1-.1,2.8c0,3.2-.1,6.3-0.1,9.5s0.1,4.8,0,7.2-0.1,5.3-.2,7.9,0,5.3,0,7.9c0,4.5,0,8.9,0,13.4,0,2.7.1,5.5,0.2,8.2s0.1,5.8.1,8.7C507,10365.1,507,10365.5,507,10365.9Z" transform="translate(-371.2 -10280.4)"/><path class="cls-1" d="M476.7,10359.4c0-5.5-.1-11.1-0.2-16.6s-0.1-9.7-.2-14.5c-0.2-7.5-.3-15-0.5-22.5-0.2-5.9-.4-11.8-0.6-17.6-0.1-2-.2-4-0.3-6,0-.4-0.1-0.7-0.1-1.1l-11.6-.6c0,0.6,0,1.1,0,1.6,0,4.2,0,8.3,0,12.5s0.1,7.9.1,11.9c0,5.9,0,11.8-.1,17.7l-4.9-.2-10.5-.2H435.1c-0.1-11.7-.2-21.9-0.4-22.5s-10.5.3-11.4,0.4-0.1.5-.1,0.8-0.1,2.9-.2,4.3c-0.1,3.8-.1,7.7-0.2,11.5,0,1.8-.1,3.6-0.1,5.5l-9.5.2h-4.5l-0.5,11.6h1l7.9,0.2h5.2c0,0.5-.1,1.1-0.1,1.6-0.1,4.4-.1,8.8-0.2,13.1v8.2c0,0.2,0,.3,0,0.5s11.8,0.2,13.2-.2,0.1-11.1,0-22.8h1.6l7.2,0.3,7.2,0.4,6.5,0.2,5.4,0.3c0,3.5-.1,7.1-0.2,10.6s0,6.9,0,10.3-0.1,9.1-.1,13.7c0,1.3-.2,2.7-0.1,4s0,2.9,0,4.3a4.5,4.5,0,0,0,.1.6,110.4,110.4,0,0,0,13.7,0c0-.4,0-0.6,0-0.9C476.7,10373.4,476.7,10366.4,476.7,10359.4Z" transform="translate(-371.2 -10280.4)"/><path class="cls-1" d="M469.1,10438.4c3.8,7.2,7.5,14.3,10.9,21.7H467.2a1,1,0,0,1-1.2-.7c-0.6-1.3-1.2-2.5-1.8-3.8l-2.4-5.1-2.1-4.3c-0.4-.9-0.9-1.9-1.3-2.8a13.1,13.1,0,0,0-1.1-2.2c-0.3-.5-0.8-1.4-0.8-1.1l-12.3.4-11.8.3H412.9l-22.5.4h-4.8v1.6c0,0.9-.1,1.7-0.1,2.6s0.1,1.4.1,2.2l0.5,7.6q0.1,2.2.3,4.3c0,0.3,0,.6,0,0.9-3.4.4-11.4,0.9-11.9,0.4s0-.9,0-1.2-0.1-1.7-.2-2.5,0-1-.1-1.5c-0.2-4-.4-8.1-0.5-12.1s-0.4-7.5-.6-11.3-0.4-8.7-.6-13.1c-0.1-2.4-.3-4.7-0.4-7.1s-0.3-6.9-.5-10.3l-0.2-4.4c0-.2,0-0.5,0-0.8h83.3l4.5,0.3,5.9,0.8a28.1,28.1,0,0,1,7.5,2.3l4,1.9a16.5,16.5,0,0,1,3.3,2.6,25.5,25.5,0,0,1,3.9,4.5,23.5,23.5,0,0,1,2.9,6.2c0.4,1.2.7,2.4,1,3.6a5.4,5.4,0,0,1,.1,1.1,13.9,13.9,0,0,1-.2,3.9,9.5,9.5,0,0,1-.8,2,13.2,13.2,0,0,1-2.7,3.5,40.1,40.1,0,0,1-3,2.8,27.3,27.3,0,0,1-7.2,4.4l-1.4.5Zm-85.1-28.8c-0.1,6.5.1,12.9,0.5,19.4h41.8l13.3-.3,9.4-.4a56.1,56.1,0,0,1,6.9,0,17.6,17.6,0,0,0,4.6-.3,56.2,56.2,0,0,0,8-2.3,8.4,8.4,0,0,0,3.6-2.5l1.4-1.6a8.2,8.2,0,0,0,.5-2.1,8.7,8.7,0,0,0-1.1-5.5,8.3,8.3,0,0,0-2.7-2.9l-2.3-1.3a3.3,3.3,0,0,0-1.4-.4l-4.7-.4a19.3,19.3,0,0,1-2.4-.1,19.7,19.7,0,0,0-3.3-.2H444.6c-3,0-6.1.3-9.1,0.2H416.9l-8.2-.2H397.9c-4.4.1-8.7,0.5-13.1,0.8H384Z" transform="translate(-371.2 -10280.4)"/><path class="cls-1" d="M499.7,10414.7a9.6,9.6,0,0,1,1.8-5.9,25.3,25.3,0,0,1,10.4-9.6l2.3-1.2a8.2,8.2,0,0,1,3.3-1.1,21.6,21.6,0,0,1,11.9,1.6,13.8,13.8,0,0,1,2.7,2,39,39,0,0,1,6.7,7.5,33.1,33.1,0,0,1,3.6,6.4,13,13,0,0,1,1.1,4.5c0.1,1.8.2,3.6,0.2,5.4a4.5,4.5,0,0,1-.3,1.6l-2.1,5.6c-0.7,2-2.2,3.4-3.6,4.8a20,20,0,0,1-10.4,5.3,22.9,22.9,0,0,1-7.2.7l-1.7-.4a52.2,52.2,0,0,1-11.7-5.8,14.2,14.2,0,0,1-5.2-6.5,25.3,25.3,0,0,1-1.8-8.9c-0.1-1.1,0-2.1,0-3.2S499.7,10415.6,499.7,10414.7Z" transform="translate(-371.2 -10280.4)"/><path class="cls-1" d="M544.2,10450v9h-0.5l-2.6.2-7.6.4-9.7.4-6.3.2H500.7c-0.3-3.5-.3-7.1-0.3-10.6h14.3l5,0.2h24.5Z" transform="translate(-371.2 -10280.4)"/></svg>