<svg xmlns="http://www.w3.org/2000/svg" width="74" height="74" viewBox="0 0 74 74">
  <defs>
    <style>
      .cls-1 {
        fill: #fff;
      }
    </style>
  </defs>
  <title>h_w_m_instagram</title>
  <g id="Layer_2" data-name="Layer 2">
    <g id="Design">
      <path class="cls-1" d="M64.75,23.13H50.88V9.25H64.75Zm0,41.63H9.25V32.38h6.09a22.15,22.15,0,1,0,43.32,0h6.09ZM37,24.08A12.91,12.91,0,1,1,24.08,37,12.91,12.91,0,0,1,37,24.08M70.65,0H3.33A3.34,3.34,0,0,0,0,3.33V70.67A3.34,3.34,0,0,0,3.33,74H70.65A3.36,3.36,0,0,0,74,70.67V3.33A3.35,3.35,0,0,0,70.65,0"/>
    </g>
  </g>
</svg>
