<svg id="Design" xmlns="http://www.w3.org/2000/svg" width="494" height="245.1" viewBox="0 0 494 245.1"><defs><style>.cls-1{fill:#fff;opacity:0.9;}</style></defs><title>h_w_full_logo</title><path class="cls-1" d="M902.1,4495.3H897v244h0.6c0.5,1,1.4.4,2.4,0.4h0c1,0,1.3.7,1.8-.3H1389v-244H902.1Zm0.9,5h236v234H903v-234Zm482,234H1145v-234h240v234Z" transform="translate(-897 -4494.8)"/><polygon class="cls-1" points="493.8 0 493.8 0.3 494 0.3 493.8 0"/><rect class="cls-1" x="11.1" y="10.1" width="226.6" height="224.17"/><rect class="cls-1" x="255" y="10.1" width="226.6" height="224.17"/><path d="M1070.9,4612.1H1058c0-.3-0.1-0.5-0.1-0.8s-0.2-2.8-.3-4.2c-0.2-4.1-.5-8.2-0.7-12.3s-0.4-10.4-.6-15.7q-0.2-5-.3-10.1c-0.1-3.9-.2-7.7-0.2-11.6s0-9.8-.1-14.7c0-.2,0-0.4,0-0.6,5-.4,10.1-0.4,15.1-0.5a1.9,1.9,0,0,1,.1.4c0,1-.1,2,0,3a26.1,26.1,0,0,1-.1,2.8c0,3.2-.1,6.4-0.1,9.5s0.1,4.8,0,7.2-0.1,5.3-.2,8,0,5.3,0,7.9c0,4.5,0,8.9,0,13.4,0,2.8.1,5.5,0.2,8.3s0.1,5.8.1,8.7c0,0.3,0,.7,0,1.1" transform="translate(-897 -4494.8)"/><path d="M1040.4,4605.5c0-5.6-.1-11.1-0.2-16.7s-0.1-9.7-.2-14.6c-0.2-7.5-.3-15.1-0.5-22.6-0.2-5.9-.4-11.8-0.6-17.7-0.1-2-.2-4-0.3-6,0-.4-0.1-0.7-0.1-1.1l-11.7-.6c0,0.6,0,1.1,0,1.6,0,4.2,0,8.3,0,12.5s0.1,7.9.1,11.9c0,5.9,0,11.9-.1,17.8l-5-.2-10.6-.2H998.6c-0.1-11.8-.3-22-0.4-22.6s-10.5.3-11.5,0.5-0.1.5-.1,0.8-0.1,2.9-.2,4.3c-0.1,3.9-.1,7.7-0.2,11.6,0,1.8-.1,3.7-0.1,5.5H972.2l-0.5,11.7h1l7.9,0.2h5.2c0,0.5-.1,1.1-0.1,1.6-0.1,4.4-.1,8.8-0.2,13.2v8.2c0,0.2,0,.3,0,0.5s11.9,0.2,13.3-.2,0.1-11.1,0-22.8h1.6l7.2,0.3,7.3,0.4,6.6,0.2,5.4,0.3c0,3.5-.1,7.1-0.2,10.6s0,6.9,0,10.4-0.1,9.2-.1,13.7c0,1.4-.2,2.7-0.1,4.1s0,2.9,0,4.4a4.5,4.5,0,0,0,.1.6,110.9,110.9,0,0,0,13.8,0c0-.4,0-0.6,0-0.9,0-7.1,0-14.1,0-21.2" transform="translate(-897 -4494.8)"/><path d="M947.2,4655.9c-0.1,6.5.1,13,.5,19.5h42l13.4-.3,9.5-.4a56.1,56.1,0,0,1,7,0,17.8,17.8,0,0,0,4.6-.3,56.6,56.6,0,0,0,8.1-2.3,8.5,8.5,0,0,0,3.6-2.5l1.4-1.6a8.1,8.1,0,0,0,.5-2.1,8.7,8.7,0,0,0-1.1-5.5,8.3,8.3,0,0,0-2.7-2.9l-2.3-1.3a3.3,3.3,0,0,0-1.4-.5l-4.7-.4a19.3,19.3,0,0,1-2.4-.1,20,20,0,0,0-3.4-.2h-11.5c-3,0-6.1.3-9.1,0.2H980.3l-8.2-.2H961.2c-4.4.1-8.8,0.5-13.2,0.8h-0.8m85.5,28.9c3.8,7.2,7.5,14.4,11,21.8h-12.9a1,1,0,0,1-1.2-.7c-0.6-1.3-1.2-2.5-1.8-3.8l-2.4-5.1-2.1-4.4c-0.4-.9-0.9-1.9-1.3-2.8a13.1,13.1,0,0,0-1.1-2.2c-0.3-.5-0.8-1.4-0.8-1.1l-12.4.4-11.9.3H976.4l-22.6.4h-4.8c0,0.6-.1,1.1-0.1,1.7s-0.1,1.7-.1,2.6,0.1,1.5.1,2.2l0.5,7.6q0.1,2.2.3,4.4c0,0.3,0,.6,0,0.9-3.5.4-11.5,0.9-12,.4s0-.9,0-1.2-0.1-1.7-.2-2.5,0-1-.1-1.5c-0.2-4.1-.4-8.1-0.6-12.2s-0.4-7.5-.6-11.3-0.4-8.8-.6-13.2c-0.1-2.4-.3-4.7-0.4-7.1s-0.3-6.9-.5-10.4l-0.2-4.4c0-.2,0-0.5,0-0.8h83.7l4.5,0.3,5.9,0.9a28.2,28.2,0,0,1,7.6,2.4l4,1.9a16.6,16.6,0,0,1,3.3,2.6,25.6,25.6,0,0,1,3.9,4.5,23.6,23.6,0,0,1,2.9,6.2c0.4,1.2.7,2.4,1,3.6a5.5,5.5,0,0,1,.1,1.1,13.9,13.9,0,0,1-.2,3.9,9.5,9.5,0,0,1-.8,2,13.2,13.2,0,0,1-2.7,3.5,39.8,39.8,0,0,1-3,2.8,27.5,27.5,0,0,1-7.2,4.4l-1.4.5-3.1,1.2" transform="translate(-897 -4494.8)"/><path d="M1063.5,4661a9.6,9.6,0,0,1,1.9-6c2.7-4.1,5.9-7.5,10.4-9.6l2.3-1.2a8.3,8.3,0,0,1,3.3-1.1,21.7,21.7,0,0,1,12,1.6,14,14,0,0,1,2.7,2,39.2,39.2,0,0,1,6.8,7.6,33.3,33.3,0,0,1,3.6,6.4,13,13,0,0,1,1.2,4.5c0.1,1.8.2,3.6,0.2,5.4a4.6,4.6,0,0,1-.3,1.6l-2.2,5.6c-0.7,2-2.2,3.4-3.7,4.8a20.1,20.1,0,0,1-10.4,5.3,23.2,23.2,0,0,1-7.2.7l-1.8-.4a52.4,52.4,0,0,1-11.8-5.8,14.3,14.3,0,0,1-5.2-6.5,25.4,25.4,0,0,1-1.8-9c-0.1-1.1,0-2.2,0-3.2s0.1-1.8,0-2.8" transform="translate(-897 -4494.8)"/><path d="M1108.3,4696.5c0,3,0,6,0,9h-0.5l-2.6.2-7.7.4-9.8.4-6.3.2h-16.8c-0.3-3.6-.3-7.1-0.3-10.6h14.4l5,0.2h24.6" transform="translate(-897 -4494.8)"/><polygon points="276.6 25.8 291.6 25.8 291.6 31 281.6 31 281.6 42.8 290.3 42.8 290.3 48 281.6 48 281.6 64.6 276.6 64.6 276.6 25.8"/><path d="M1199.8,4537.9h2.9q2.6,0,3.3-1.6a11.1,11.1,0,0,0,.7-4.5,10.5,10.5,0,0,0-.8-4.5q-0.8-1.6-3.5-1.6h-2.6v12.1Zm-5-17.3h8.1q4.5,0,6.7,2.9t2.2,8.5a15.9,15.9,0,0,1-1,5.8,7.9,7.9,0,0,1-3.4,3.9l5.4,17.7h-5.3l-4.7-16.6h-3v16.6h-5v-38.8Z" transform="translate(-897 -4494.8)"/><polygon points="321.8 25.8 336.8 25.8 336.8 31 326.8 31 326.8 42.4 335.5 42.4 335.5 47.6 326.8 47.6 326.8 59 336.8 59 336.8 64.6 321.8 64.6 321.8 25.8"/><polygon points="343 25.8 358 25.8 358 31 348 31 348 42.4 356.7 42.4 356.7 47.6 348 47.6 348 59 358 59 358 64.6 343 64.6 343 25.8"/><path d="M1277.4,4531.8h-5v-1.3a6.4,6.4,0,0,0-.8-3.3,2.9,2.9,0,0,0-2.7-1.4,2.7,2.7,0,0,0-2.7,1.6,8.7,8.7,0,0,0-.7,3.5,9.4,9.4,0,0,0,.4,3.2,3.8,3.8,0,0,0,2.1,1.9h0.4l3.8,1.7a7.1,7.1,0,0,1,4.3,3.9,19.3,19.3,0,0,1,1,6.8,15.8,15.8,0,0,1-1.9,8.1q-1.9,3.2-6.8,3.2a8.1,8.1,0,0,1-6.1-2.6,9.2,9.2,0,0,1-2.5-6.5v-2.1h5v1.7a4.9,4.9,0,0,0,.8,2.7,3,3,0,0,0,2.7,1.2q2.6,0,3.1-1.6a13.1,13.1,0,0,0,.5-4.2,12.2,12.2,0,0,0-.4-3.8,3.4,3.4,0,0,0-1.8-1.7h-0.3l-0.4-.2-3.6-1.6a8.2,8.2,0,0,1-4.4-3.9,14.6,14.6,0,0,1-1.1-6.1,12.9,12.9,0,0,1,2.1-7.5,7.3,7.3,0,0,1,6.5-3.1,7.5,7.5,0,0,1,5.9,2.6,9.5,9.5,0,0,1,2.5,5.8v3.2Z" transform="translate(-897 -4494.8)"/><polygon points="390.5 31 384.6 31 384.6 25.8 401.3 25.8 401.3 31 395.5 31 395.5 64.6 390.5 64.6 390.5 31"/><polygon points="412.2 48.2 405.3 25.8 410.6 25.8 414.6 41.2 414.7 41.2 418.8 25.8 424.1 25.8 417.2 48.2 417.2 64.6 412.2 64.6 412.2 48.2"/><polygon points="429.6 25.8 434.6 25.8 434.6 59 444.5 59 444.5 64.6 429.6 64.6 429.6 25.8"/><polygon points="450.8 25.8 465.7 25.8 465.7 31 455.8 31 455.8 42.4 464.5 42.4 464.5 47.6 455.8 47.6 455.8 59 465.7 59 465.7 64.6 450.8 64.6 450.8 25.8"/><path d="M1178.6,4589.2h2.9c1.7,0,2.9-.5,3.3-1.6a11.2,11.2,0,0,0,.7-4.5,10.4,10.4,0,0,0-.8-4.5c-0.5-1-1.7-1.6-3.5-1.6h-2.6v12.1Zm-5-17.3h8.1q4.5,0,6.7,2.9t2.2,8.5a15.8,15.8,0,0,1-1,5.8,7.9,7.9,0,0,1-3.4,3.9l5.4,17.7h-5.3l-4.7-16.6h-3v16.6h-5v-38.8Z" transform="translate(-897 -4494.8)"/><path d="M1205.3,4583h-0.1l-2.5,14.1h5Zm-2.1-11.2h4.2l7.8,38.8h-5l-1.5-8.3h-6.9l-1.5,8.3h-5Z" transform="translate(-897 -4494.8)"/><polygon points="323.6 77 328.4 77 334.9 97.5 335 97.5 341.4 77 346.3 77 346.3 115.8 341.2 115.8 341.2 92.2 341.1 92.2 336.2 108.9 333.7 108.9 328.7 92.2 328.6 92.2 328.6 115.8 323.6 115.8 323.6 77"/><polygon points="354 77 369 77 369 82.2 359 82.2 359 93.6 367.7 93.6 367.7 98.9 359 98.9 359 110.2 369 110.2 369 115.8 354 115.8 354 77"/><polygon points="375 77 379.8 77 387.4 100.4 387.5 100.4 387.5 77 392.5 77 392.5 115.8 387.8 115.8 380.1 92.5 380 92.5 380 115.8 375 115.8 375 77"/><path d="M1178.6,4656.3h2.2c2,0,3.3-.6,3.7-1.9a14.6,14.6,0,0,0,.6-4.7,10,10,0,0,0-.8-4.4c-0.5-1-1.7-1.5-3.5-1.5h-2.2v12.4Zm0-17.3h2.3q2.5,0,3.4-1.4a8,8,0,0,0,.9-4.1,6.4,6.4,0,0,0-1-3.9,4,4,0,0,0-3.4-1.3h-2.1V4639Zm-5-15.9h7.3q4.9,0,6.9,3a11.8,11.8,0,0,1,2,6.8v1.4a9.1,9.1,0,0,1-.9,4.6,8.6,8.6,0,0,1-2.6,2.6,5.7,5.7,0,0,1,2.6,2.8,11.9,11.9,0,0,1,.8,4.9v2.2q0,5.1-2.3,7.8t-7.1,2.8h-6.9v-38.8Z" transform="translate(-897 -4494.8)"/><path d="M1204.7,4634.2h-0.1l-2.5,14.1h5Zm-2.1-11.2h4.2l7.8,38.8h-5l-1.5-8.3h-6.9l-1.5,8.3h-5Z" transform="translate(-897 -4494.8)"/><path d="M1225,4640.4h2.9c1.7,0,2.9-.5,3.3-1.6a11.1,11.1,0,0,0,.7-4.5,10.4,10.4,0,0,0-.8-4.5q-0.8-1.6-3.5-1.6H1225v12.1Zm-5-17.3h8.1q4.5,0,6.7,2.9t2.2,8.5a15.8,15.8,0,0,1-1,5.8,7.9,7.9,0,0,1-3.4,3.9l5.4,17.7h-5.3l-4.7-16.6h-3v16.6h-5v-38.8Z" transform="translate(-897 -4494.8)"/><path d="M1261.1,4656.3h2.2c2,0,3.3-.6,3.7-1.9a14.5,14.5,0,0,0,.6-4.7,10,10,0,0,0-.8-4.4c-0.5-1-1.7-1.5-3.5-1.5h-2.2v12.4Zm0-17.3h2.3q2.5,0,3.4-1.4a7.9,7.9,0,0,0,.9-4.1,6.4,6.4,0,0,0-1-3.9,4,4,0,0,0-3.5-1.3h-2.1V4639Zm-5-15.9h7.3q4.9,0,6.9,3a11.8,11.8,0,0,1,2,6.8v1.4a9.1,9.1,0,0,1-.9,4.6,8.6,8.6,0,0,1-2.6,2.6,5.7,5.7,0,0,1,2.6,2.8,11.9,11.9,0,0,1,.8,4.9v2.2q0,5.1-2.3,7.8t-7.1,2.8h-6.9v-38.8Z" transform="translate(-897 -4494.8)"/><polygon points="387.7 150.6 380.8 128.2 386.2 128.2 390.2 143.7 390.3 143.7 394.3 128.2 399.7 128.2 392.8 150.6 392.8 167 387.7 167 387.7 150.6"/><path d="M1183.3,4685.5h-0.1l-2.5,14.1h5Zm-2.1-11.2h4.2l7.8,38.8h-5l-1.5-8.3h-6.9l-1.5,8.3h-5Z" transform="translate(-897 -4494.8)"/><polygon points="300.6 179.5 305.7 179.5 305.7 196.1 311.9 196.1 311.9 179.5 316.9 179.5 316.9 218.3 311.9 218.3 311.9 201 305.7 201 305.7 218.3 300.6 218.3 300.6 179.5"/><path d="M1228.3,4685.5h-0.1l-2.5,14.1h5Zm-2.1-11.2h4.2l7.8,38.8h-5l-1.5-8.3h-6.9l-1.5,8.3h-5Z" transform="translate(-897 -4494.8)"/><path d="M1248.7,4691.6h2.9c1.7,0,2.9-.5,3.3-1.6a11.2,11.2,0,0,0,.7-4.5,10.5,10.5,0,0,0-.8-4.5q-0.8-1.6-3.5-1.6h-2.6v12.1Zm-5-17.3h8.1q4.5,0,6.7,2.9t2.2,8.5a15.8,15.8,0,0,1-1,5.8,7.9,7.9,0,0,1-3.4,3.9l5.4,17.7h-5.3l-4.7-16.6h-3v16.6h-5v-38.8Z" transform="translate(-897 -4494.8)"/><path d="M1270.3,4704a3.9,3.9,0,0,0,1,3,3.5,3.5,0,0,0,4.8,0,3.9,3.9,0,0,0,1-3v-20.5a3.9,3.9,0,0,0-1-3,3.5,3.5,0,0,0-4.8,0,3.9,3.9,0,0,0-1,3V4704Zm-5-20.5q0-4.5,2.4-6.8a8.4,8.4,0,0,1,5.4-2.6h1.3a8.4,8.4,0,0,1,5.4,2.6q2.4,2.4,2.4,6.8V4704q0,4.5-2.4,6.8a8.5,8.5,0,0,1-5.4,2.6h-1.3a8.5,8.5,0,0,1-5.4-2.6q-2.4-2.3-2.4-6.8v-20.5Z" transform="translate(-897 -4494.8)"/><polygon points="390.4 179.5 395.2 179.5 402.8 202.9 402.9 202.9 402.9 179.5 407.9 179.5 407.9 218.3 403.2 218.3 395.5 195 395.4 195 395.4 218.3 390.4 218.3 390.4 179.5"/><rect x="415.6" y="179.5" width="5" height="38.8"/></svg>