<svg xmlns="http://www.w3.org/2000/svg" viewBox="0 0 214.66 361.48"><defs><style>.cls-1{fill:#fff;}</style></defs><title>Asset 18</title><g id="Layer_2" data-name="Layer 2"><g id="Design"><path class="cls-1" d="M82.61,34.46S91.27,20,95.36,16.29C102.22,10,119.84,2.14,129,.36,136-1,157.55,2,157.55,2L178.87,12.6s15,13.3,18.56,18.91c3,4.7,7.51,20.9,7.51,20.9s2.53,16.78,2.71,22.42c.21,6.73-1.53,26.88-1.53,26.88s5.34.91,6.49,2.17c1.88,2.06,2,8.19,2,11a76.19,76.19,0,0,1-2,15.8c-1,4-5.25,15.53-5.25,15.53l-7.06,10.13-6.39,4s-7.69,19.52-11.56,25.29c-4.21,6.25-20.67,22-20.67,22L140.39,219.5,119.09,232l-19.21-4.55-12.9-11-8.52-22.18-3.6-24.14S71,154.84,70.29,149.65c-.64-4.61-1-18.59-1-18.59l-2.87-24,1.72-30.17s1.16-17,3-22.3C72.93,49.05,82.61,34.46,82.61,34.46Z"/><path d="M213.9,88.55c-2,.34-26.16,9.94-34.52,12.91-5.48,1.95-9.68,3.65-15.17,5.59l-3-.12c-2.19-.08-4.39-.23-6.58-.21l-4.35,0c2.4-.66,4.77-1.42,7.11-2.25a9.41,9.41,0,0,0,4.73-3.41c1.39-2,2.8-4,4.18-6a3.82,3.82,0,0,0,.58-1.22,25.55,25.55,0,0,0,1-7.19A5.07,5.07,0,0,0,166.26,83a10.66,10.66,0,0,0-2.11-1.72c-2.43-1.34-4.32-2.86-6.86-4-.3-.13-1.54-.64-2.62-1a6.57,6.57,0,0,0-3.74-.62c-4.13.7-6,5.64-6,5.64l4.51-1.28,4.87,2.73a1.91,1.91,0,0,1,.79,2c-.54,2.6-1.35,5.41-3.78,6.8-.88.5-1.46.54-2.37,1-.45.21-2.32.84-2.32.84s-3.24.17-5,.22c-5.16.13-9.59,1.12-14.58,1.94a56.67,56.67,0,0,0-8,2.35,91.49,91.49,0,0,0,.8,10.9c.08.36.32,1.91.45,2.72l-1.73.56a18.08,18.08,0,0,1-11.26.25c-1-.32-2-.54-3-.8,0-1.25-.12-6.1-.22-8A30.61,30.61,0,0,0,103,96.36S89.31,95,84.56,95.19a47.91,47.91,0,0,1-8-.09c-2.62-.35-5-1-6.76-3.28a7,7,0,0,1-1.41-3.19S69,85.2,69.7,84.28c.89-1.22,4.87-3.11,4.87-3.11l4.56,1-1.54-2a4.69,4.69,0,0,0-3.09-1.83l-2.81-.4s-6.82,1.82-8.52,3.36c-1,.91-2.47,4.82-2.47,4.82q-.23.4-.42.82h0a21.22,21.22,0,0,0-1.4,4.45,1.21,1.21,0,0,0,0,.51c.6,2.81,1.09,5.59,3.28,7.82,2.37,2.42,4.51,5,7.82,6.28,1.49.56,2.91,1.34,4.43,1.74.91.24,1.83.42,2.77.58-2.43.14-4.87.43-7.29.62-6.88.54-13.75,1.16-20.63,1.73-1.82.15-1.83.12-2.35,1.79a16.37,16.37,0,0,0-.64,2.36,13.75,13.75,0,0,0,0,2.1,11.72,11.72,0,0,1,1.91.37c.62.23,1.14.73,1.76.93,2,.63,3.95,1.23,5.94,1.75a1.87,1.87,0,0,1,1.58,1.78c.42,2.92.83,5.85,1.49,8.72,1.26,5.48,2.91,10.76,7.51,14.59a6.33,6.33,0,0,0,4.8,1.62,81.31,81.31,0,0,0,19.22-3.36c2.61-.85,5.1-1.73,6.6-4.25.29-.48.74-.86,1.06-1.32,2.18-3.15,4.25-6.37,6.54-9.43a35.31,35.31,0,0,1,3.85-3.82l4.7.64c.78,1.88,1.76,3.85,2.42,5.92A57.74,57.74,0,0,1,117,137c.48,2.34.91,4.68,1.36,7a2.21,2.21,0,0,0,1.39,1.84c4.43,1.81,8.89,3.45,13.7,3.9,2.81.26,5.6.74,8.41.93,3.28.23,6.49-.32,8.93-2.68A36.64,36.64,0,0,0,158,137.82c2-4,3.66-8.12,5.26-12.28a5.7,5.7,0,0,1,2.13-2.24c4-2.52,17.47-8.21,20.27-9.63,6.83-3.48,13.76-6.74,20.54-10.32,2-1.07,8.08-4.14,8.08-4.14S215.32,90.65,213.9,88.55ZM98.44,123.39c-.91,2.47-2,4.89-3.07,7.28a18.77,18.77,0,0,1-2.17,3.51,10,10,0,0,1-6,3.94c-4.84,1-9.65,2.21-14.46,3.36a1.43,1.43,0,0,1-1.63-.6,23,23,0,0,1-2.29-3.19A81.7,81.7,0,0,1,63,122.2a5.35,5.35,0,0,1-.09-.88c6-3.3,29-5.41,37-3.34C99.45,119.79,99.09,121.64,98.44,123.39Zm58.11.07c-.76,2.85-1.51,5.7-2.35,8.53A10.38,10.38,0,0,1,153,134.7q-2.27,3.46-4.73,6.79a2.61,2.61,0,0,1-1.56.84,37.68,37.68,0,0,1-15.86-.28,8.78,8.78,0,0,0-1.45-.37c-2.13-.17-3.21-1.47-4.07-3.31A50.82,50.82,0,0,1,121,123a10.06,10.06,0,0,1,0-1.09,21.32,21.32,0,0,1,2.92-1.2c3.22-.81,6.45-1.64,9.71-2.22a24.78,24.78,0,0,1,6-.31,95.5,95.5,0,0,1,16.44,3,4.53,4.53,0,0,1,.8.41C156.77,122.26,156.71,122.87,156.55,123.45Z"/><path d="M143.72,184.55a14.59,14.59,0,0,0-3.2-4,17.12,17.12,0,0,0-3.52-2.45,20.84,20.84,0,0,0-5.85-1.45c-6-.85-11.83-1.76-17.8-1.48-5.57.27-11.12.9-16.67,1.48a19.18,19.18,0,0,0-4.47,1.14c-2.23.81-4.43,1.72-6.58,2.73a22.16,22.16,0,0,0-5.75,3.57,17.22,17.22,0,0,0-4.62,7.51c-1.16,3.46-2.36,6.91-3.67,10.31a183.75,183.75,0,0,0-6,19.13,46.13,46.13,0,0,1-2,7,60.28,60.28,0,0,1-3.3,6.4l-2-4.91s-17.41-41-18.53-43.93c-.38-.9-1.85-5-3.8-10.49a19.07,19.07,0,0,0-5.55,2.3c2.66,6.89,5.34,13.78,8.1,20.63q5.37,13.3,11,26.47c2.19,5.07,4.71,10,7,15l.08.18-.4.51q-3.19,3.87-6.48,7.67c-1.55-2.23-2.91-4.21-3.83-5.63C46,242.19,11.2,194,5.73,185A48.48,48.48,0,0,0,0,188.52q4.24,5.77,8.47,11.56,7.31,10,14.52,20.14c4.72,6.62,9.34,13.3,14.07,19.91q4.36,6.1,8.85,12.11L44,254.43a30,30,0,0,0-5.32,8.34,95.93,95.93,0,0,1-4.31,9.68,88.68,88.68,0,0,0-8.52,21.7,40.54,40.54,0,0,0-1.22,14c.08.79.13,1.58.13,2.37-3.93-.15-7.86-.28-11.79-.49-1.84-.1-3.79-.3-5.77-.47a16.44,16.44,0,0,0,.25,2.34c1.11,5.06,2,10.17,3.46,15.14,2.64,9.27,8.76,15.65,17.37,19.73,2.85,1.35,5.77,2.58,8.74,3.9l-.53,9.64C43.06,362,65.29,361.84,70,360c-.11-1.16-.19-2.38-.37-3.59q-.42-2.87-1-5.72a1.71,1.71,0,0,1,.92-2.07c.6-.33,1.15-.77,1.73-1.14,4.85-3.08,9.55-6.34,13.14-11,2.73-3.52,5.09-7.22,6.12-11.62.54-2.28,1.07-4.57,1.43-6.87a22.23,22.23,0,0,0,.21-6c-3.16-.12-6.34-.36-9.51-.28s-6.37,0-9.55-.1a83,83,0,0,1,7.69-9.12c3.21-3.26,6.5-6.46,9.78-9.66,2.49-2.43,5.09-4.75,7.48-7.27q6.1-6.43,12-13.07c3.21-3.62,6.51-7.13,8.93-11.46,4-7.11,7.49-14.42,10.78-21.85,2.06-4.64,3.84-9.41,5.63-14.17,2.08-5.53,4.15-11.06,6-16.67.64-1.93,1.18-3.89,1.78-5.83l.07-.24.07-.21,2.15-6.88C146.58,191.93,145.51,187.59,143.72,184.55Zm-32.34-.33c6.22.36,18.65-1.2,19-1.36-.72,4.67-6.72,9.28-6.75,9.31-3.88,2.71-12.63,2.17-14,2.1-6.48-.35-11.46-4.91-11.62-5-3.35-2.32-5.63-7-5.63-7C95.79,183.34,111.16,184.43,111.38,184.22Zm14.76,18.87c-.2.25-.38.51-.59.76-2.84,3.51-4.59,5.38-6.52,9.53-1.26,2.71-2.39,5.5-3.47,8.29a32.66,32.66,0,0,1-4,7.66c-4,5.5-8.12,11-12.14,16.51-1.61,2.21-3.12,4.49-4.68,6.73-.23.32-.51.61-.76.91a33.29,33.29,0,0,1,3.44-8.14c2.86-5,5.84-9.87,8.52-14.93a88.07,88.07,0,0,0,4.11-9.55c2.55-6.59,5-10.72,10.85-14.81A34.9,34.9,0,0,1,126.14,203.09Zm-22.74-.7c-3.39,5.53-4.27,9.51-6.59,15.56a106.49,106.49,0,0,1-11.72,22.23c-1.19,1.73-2.27,3.53-3.42,5.29A91.34,91.34,0,0,1,71.51,258.1l-1.11,1.15L68.25,254,70,251.94c2-2.36,4.17-4.56,6.08-7,2.64-3.33,5.12-6.79,7.65-10.2.46-.62.84-1.3,1.29-1.93a51.08,51.08,0,0,0,6.32-12.73C92.81,215.94,95,207.06,103.39,202.38ZM89.7,210.71c-1.88,6.6-5.32,12.33-9.39,17.77-2.25,3-4.39,6.09-6.58,9.14-.22.3-.46.58-.69.87l-.37-.21c1.22-3.31,2.35-6.66,3.69-9.93,2.65-6.43,5.45-12.81,8.15-19.22,2.52-6,3.84-7.28,7.57-12.61A80.86,80.86,0,0,1,89.7,210.71ZM65.33,236.32A81.38,81.38,0,0,0,69.19,225c1.46-4.8,3.08-9.55,4.45-14.38s3.72-9,6-13.22c1.83-3.37,4.23-5.38,6.82-8.18a30.46,30.46,0,0,1-2.11,4.74c-1.7,3.25-3.48,6.46-5.13,9.74a47,47,0,0,0-3.58,11.74c-.56,2.69-.83,5.46-1.54,8.11a51.79,51.79,0,0,1-2.65,7.3c-2.09,4.8-4.29,9.55-6.52,14.29l-.19.39L63,241.1Q64.19,238.73,65.33,236.32ZM65,258l2.15,4.64c-.88.91-1.75,1.84-2.64,2.75-.47.48-.93,1-1.39,1.46L62.6,266l-1.85-2.58,1.82-2.4C63.36,260,64.18,259,65,258Zm-6.83-8.48c.57-.91,1.11-1.83,1.66-2.75l2,4.39c-1.42,2.58-2.91,5.11-4.44,7.62L54.73,255Q56.44,252.27,58.17,249.52Zm1.28,21.73a49.74,49.74,0,0,0-5,8.22c-1,2-2,3.94-3,5.9-.3.57-.64,1.12-1.06,1.83a2.49,2.49,0,0,1,0-.52c1.77-6,3.5-12.14,6.65-17.64.17-.3.37-.6.55-.9C58.2,269.23,58.86,270.29,59.46,271.25ZM31.57,310.74l-1.39,0c0-.46,0-.92.08-1.39.39-4.56.76-9.13,1.33-13.66a62,62,0,0,1,1.6-7.44c1.24-4.87,2.33-9.81,4.58-14.34C39.28,270.83,41.2,268,43,265c.37-.61.82-1.17,1.23-1.76a6.77,6.77,0,0,1-1,3.78c-1.72,3.83-3.47,7.65-5.21,11.47a27.42,27.42,0,0,0-2,7.85c-.65,4.87-1.13,9.77-2,14.61A64.92,64.92,0,0,1,31.57,310.74Zm9.77-10.13q-1.09,5.08-2.17,10.16l-3.16,0c.37-1.59.73-3.18,1.09-4.77,1.88-8.15,3.5-16.37,5.54-24.49a73.93,73.93,0,0,1,6.09-16.18c1-1.86,2-3.69,3.07-5.49.8,1,1.59,2,2.32,3.1l.37.55-1.21,2a67.53,67.53,0,0,0-9,21.53Q42.8,293.81,41.34,300.62Zm3,10.09c1-2.42,1.91-4.84,3-7.21,2.19-4.85,4.33-9.74,6.92-14.38s5.64-9,8.62-13.44c1.32-1.95,3-3.63,4.46-5.5,3.51-4.51,7.63-8.44,11.44-12.68,1.76-2,3.32-4.09,5-6.13,1.15-1.41,2.39-2.77,3.47-4.23a27.12,27.12,0,0,0,2.39-3.82c1.55-3.06,3-6.16,4.48-9.28,1.92-4.14,3.75-8.32,5.65-12.47,1.39-3,2.53-6.21,4.3-9,5.7-9,8.16-10.8,15.06-12.79a30.62,30.62,0,0,0-7.49,8.31,84.22,84.22,0,0,0-6.87,12q-3,6.9-6,13.76a101.28,101.28,0,0,1-13.77,23.25c-2.21,2.7-4.66,5.21-7,7.79-8.67,9.48-16.46,19.59-22.39,31-2.54,4.91-5.11,9.8-7.62,14.72Zm9.85,0h-.64q.88-1.43,1.78-2.84c3.16-4.92,6.35-9.83,9.65-14.65,2.25-3.28,4.56-6.53,7.11-9.57s5.38-5.69,8.06-8.56c3.13-3.35,6.25-6.7,9.32-10.1,2.81-3.11,5.64-6.22,8.29-9.47,2.93-3.59,5.74-7.29,8.46-11,3.5-4.83,6.87-9.76,10.81-14.25a68,68,0,0,0,11.77-18.92,109,109,0,0,0,5.29-16.9c.53-2.26.74-2.31,1.24-4.58.11-.5.32-1,.48-1.48a45.22,45.22,0,0,1-.36,8.7A65.66,65.66,0,0,1,131,212.63a103,103,0,0,1-8.46,16.31c-2.12,3.3-5,5.87-7.6,8.73-3.52,3.9-6.88,7.92-10,12.15a212.62,212.62,0,0,1-16.74,20.33q-8,8.41-15.15,17.57-4,5.09-7.92,10.21a118.87,118.87,0,0,0-8.47,12.85Zm5.64.24a57.8,57.8,0,0,1,10.54-15.38c-1.87,5.88-5.09,10.79-8.56,15.5ZM73,304.08a37.6,37.6,0,0,1-3.27,7.44l-4-.23.14-.19a19.68,19.68,0,0,0,1.69-2.65c1.37-2.58,2.75-5.15,4-7.79,1.06-2.24,1.91-4.58,2.9-6.85,1.14-2.62,2.34-5.21,3.51-7.82l.21.1q-2.13,7.58-4.26,15.15C73.71,302.21,73.34,303.13,73,304.08Zm64.53-91.5c-1.14,3-2.68,5.94-4,8.91-.81,1.82-1.49,3.69-2.31,5.49-1.77,3.87-3.56,7.73-5.41,11.56s-3.66,7.56-5.63,11.27a60.52,60.52,0,0,1-9.65,13c-3.37,3.58-6.83,7.08-10.25,10.6-3.62,3.72-7.58,7.14-10.63,11.37-2.06,2.86-4,5.86-5.78,8.88A23,23,0,0,1,79,299.46a12.05,12.05,0,0,1-1.05.68,6.84,6.84,0,0,1,.28-1.28c2-4.19,3.86-8.46,6.12-12.51a37.67,37.67,0,0,1,4.92-6.44c3.63-4.09,7.38-8.07,11.09-12.07,1.91-2.06,3.82-4.14,5.81-6.13,3.73-3.74,6.64-8.12,9.66-12.4,2.13-3,4.14-6.14,6.07-9.29,1.7-2.77,3.18-5.67,4.81-8.48,2-3.48,3.41-7.54,5.82-10.81a5.49,5.49,0,0,0,1-2.34c.83-3.26,2.12-6.37,3-9.61.85-3.09,1.66-6.19,2.51-9.28.56-2,2.54-7.75,2.63-7.75C141.76,192,140,206.07,137.56,212.58Z"/></g></g></svg>