<svg id="Design" xmlns="http://www.w3.org/2000/svg" width="1080" height="1918" viewBox="0 0 1080 1918">
  <defs>
    <style>
      .cls-1 {
        fill: #fff;
      }
    </style>
  </defs>
  <title>h_w_curtain_small</title>
  <path d="M6529.27,1550.37c-1.81-10.64-3.68-21.27-5.52-31.9l-0.38,0c0.13,6,.21,11.9.41,17.85,0.17,5,.65,10,0.67,15,0,6.09-.28,12.18-0.54,18.26a31.57,31.57,0,0,1-.61,5c-2,9.51-4.15,19-6,28.5a347.15,347.15,0,0,0-6.32,54.43c-0.14,4-.09,8-0.13,12.49a7.63,7.63,0,0,0,.71-1.29c3.35-14.33,7-28.59,9.93-43,3-15.08,5.09-30.35,8-45.45a72.58,72.58,0,0,0,.49-23.95C6529.73,1554.36,6529.61,1552.34,6529.27,1550.37Z" transform="translate(-6319 -2.33)"/>
  <path d="M6517.66,1543.15c-5.46,15.37-7.06,36.51-4.92,49.51C6516,1576.49,6520.05,1560.39,6517.66,1543.15Z" transform="translate(-6319 -2.33)"/>
  <path d="M7100.94,773.54l0,0.24,3.64,9.55,5,6.9,6,7.61,8.87,8.79,9.59,4.09,10.25,5.69,11.24,3.16,10.63,1.26,11.78,3.52,10.91,3.34,12.44,7.05,12.27,7.56,10.83,8.35,19.28,13.41,14.77,11.47s16.47,14.08,17.32,14.46,13.83,11.69,13.83,11.69l9,7.88,7.45,2.54,5.59-1.36,5.19-4.4,1.1-5.81,0-.59h0l-1.94-6.3-5.52-3.87-8.65-6.61-9.52-8.66-11.76-11.59-10.28-7.47-11.81-11.2L7242.6,830.5l-9.42-9.14L7222.75,809l-5.93-6.37-4.91-7.14L7204.81,781l-3.28-8-6.08-11.3-6.56-10.12-6.18-6.7-6.67-5.52-8.06-6.26-8.87-2.95-9.21-2.67-11-1-9.73-.17-7.48,2.62-7.22,4-6.18,5-4.63,6.65-4,8.25-0.06,10.14,1.13,10.24Zm6.72-17.31,2.13-7,2.89-5.67,4.53-4.8,5.62-4.32,8-1.73,9-.87,8.37,1.33,6.82,3,8.18,4.1,9,5.95,6.69,7.06,6.12,9.26,4.79,9.19,3.43,10.19,5.93,13.6,6.58,9,9.62,10.91,9.91,10.47,10.78,9.27,17.09,16.13,14.63,12.42c7.34,5.67,15.57,12.1,17,13.35,1,1,3.9,3.38,15.05,11.82l11.11,9.2,0.19,3.41-1.83,2.27-1.79.67-2.69-.17-12-10.46-10.42-7.51-0.11-.08-13.44-8.91-10.28-8-12.7-9.9-16.73-12.8-11.6-7.79-14-7.61-7.75-4.68-8.92-3.73-16.15-4.08-0.21-.05-8.35-1.55-11.71-3.46-10.45-4-6.94-4.15-6.33-5-6.81-5.79-4.05-7-4.9-7.39-3.22-9.59-1.32-8.19Z" transform="translate(-6319 -2.33)"/>
  <path d="M6484.94,1037.52l1.63,2.35,9.76-4,0.12,6.69H6500l-1.59-11.94C6493.73,1032.48,6489.5,1035.08,6484.94,1037.52Z" transform="translate(-6319 -2.33)"/>
  <path d="M7133.74,1357.85c-0.3-1.79-.48-3.61-0.73-5.41a27.54,27.54,0,0,0-.92-5.67c-2.34-6.33-6.9-11-11.91-15.33l-0.06-.05a1.62,1.62,0,0,0-2.37,2.16c1.42,2.17,2.83,4.34,4.19,6.55,1.15,1.86,2,3.89,3.06,5.82,1.42,2.63,2,5.71,3.22,8.46l0,0.07c0.86,5.47,1.65,11,2.47,16.43,0.28,1.87.55,3.75,0.86,5.9a3.38,3.38,0,0,0,1-.94,30.06,30.06,0,0,0,1.45-5.48c0.21-2-.19-4-0.16-5.95s0.26-3.88.43-6.07A0.83,0.83,0,0,1,7133.74,1357.85Z" transform="translate(-6319 -2.33)"/>
  <path d="M6528,131.06c2.31,2.61,4.8,5.06,7.35,7.43a10.62,10.62,0,0,0,2.86,2c-1-1.53-2-3.05-3-4.6-0.67-1.07-1.24-2.21-1.95-3.26a27.23,27.23,0,0,0-2.17-2.85c-1.11-1.27-2.32-2.45-3.47-3.7a31.86,31.86,0,0,0-7-5.4c-1.17-.72-2.39-1.35-3.6-2a1,1,0,0,0-.76-0.11c0.57,0.64,1.13,1.3,1.72,1.92C6521.39,124,6524.83,127.43,6528,131.06Z" transform="translate(-6319 -2.33)"/>
  <path d="M6462.83,381.61c2.8,3.7,5.19,7.72,7.78,11.54a22.42,22.42,0,0,1,1.46,2.49c0.73,1.45,1.88,2.73,2.53,4.22,0.84,1.94,1.48,4,2.21,6a2.77,2.77,0,0,0,.29.48c1-1,1.9-1.95,2.89-2.85,1.18-1.09,2.42-2.1,3.6-3.18,1.8-1.65,3.55-3.36,5.39-5a2,2,0,0,1,2.15-.69c3.28,1,6.63,1.73,9.94,2.59a1,1,0,0,1,.59.52c0.42,1.06.79,2.13,1.18,3.2,0.17,0.48.34,1,.51,1.45,0.91,2.59,1.77,5.19,2.76,7.75,0.53,1.38-.26,2.24-0.9,3.22-0.77,1.18-1.49,2.4-2.26,3.59a30.4,30.4,0,0,1-2.19,3.18c-1.23,1.45-2.59,2.79-3.91,4.17a1.81,1.81,0,0,1-2.13.5,16.09,16.09,0,0,0-2.45-.33c-1.49-.27-3-0.66-4.46-0.89-1.2-.18-2.42-0.16-3.62-0.29-0.86-.1-1.72-0.3-2.9-0.52,0.45,1.77.77,3.35,1.26,4.87,0.82,2.52,1.74,5,2.64,7.51,0.4,1.12.86,2.22,1.24,3.35,0.68,2,1.36,4.09,2,6.16,0.41,1.43.65,2.91,1,4.36a11.83,11.83,0,0,0,.53,1.44c1-.21,1.84-0.42,2.69-0.56,1.26-.21,2.54-0.33,3.8-0.56s2.67-.58,4-0.83c2.43-.46,4.87-0.88,7.3-1.34,1.17-.22,2.33-0.47,3.5-0.74,2.52-.57,5-1.21,7.55-1.74a75.4,75.4,0,0,0,14.81-4.62c3-1.32,6.13-2.49,9.18-3.77,2.47-1,5-2,7.35-3.2,2.8-1.39,5.52-2.94,8.23-4.51s5.54-3.31,8.26-5c1-.65,2-1.46,3-2.21,0.13-.1,4.72-6.05,6.37-8a31.42,31.42,0,0,0,4-5.48,23.51,23.51,0,0,0,1.82-6.13,76.47,76.47,0,0,0,1.09-8c0.22-2.54.31-5.09,0.29-7.64a66.39,66.39,0,0,0-.4-7.21c-0.25-2.16-.74-4.3-1.19-6.44-0.6-2.87-1.19-5.74-1.92-8.58-0.57-2.26-1.5-4.43-2-6.7-0.76-3.59-2.81-6.53-4.53-9.62-1.33-2.4-2.79-4.74-4.3-7a39.93,39.93,0,0,0-5.15-6.41c-3.22-3.22-6.26-6.68-10.24-8.95-2.59-1.48-5.32-2.71-8-4-2.45-1.17-5.09-2-7.36-3.46-1.94-1.23-3.9-1.26-6-1.31-2.25,0-4.5-.13-6.74-0.07a34.78,34.78,0,0,0-5.18.51c-3.39.62-6.75,1.38-10.12,2.07-1.5.3-3,.48-4.49,0.89a6.15,6.15,0,0,0-1.77,1.22c-0.19.14-.3,0.38-0.48,0.53-2.07,1.78-4.15,3.54-6.22,5.33q-4.06,3.51-8.11,7.05c-1.64,1.43-3.32,2.83-4.92,4.32-2.41,2.25-4.78,4.56-7.14,6.87-1.59,1.55-3.18,3.1-4.69,4.73-1.8,1.94-3.51,4-5.27,5.94-1.22,1.37-2.51,2.68-3.69,4.09-2,2.44-4,4.92-6,7.41-1,1.3-2,2.66-3,4,1.36,1.67,2.68,3.31,4,4.93C6459.77,378,6461.41,379.74,6462.83,381.61Z" transform="translate(-6319 -2.33)"/>
  <path d="M6445,1531.36a19,19,0,0,0-.84-12c-1.56-3.89.3-8.33-2.26-12.23-0.24,1.42-.58,2.84-0.72,4.27-0.65,6.88-1.67,13.75-1.78,20.64-0.16,10.2,2.16,20.15,4.13,30.11a125.31,125.31,0,0,0,3.56,14.95c2.89,8.77,6.19,17.41,9.45,26.06,1.24,3.28,2.85,6.42,4.29,9.63a123.84,123.84,0,0,0-4.62-28.11c-2.65-9.56-6-18.91-9.08-28.35C6444.61,1548.35,6442.63,1540.29,6445,1531.36Z" transform="translate(-6319 -2.33)"/>
  <path d="M6574.73,570.38a6.3,6.3,0,0,0-3.22-.63,3.74,3.74,0,0,1-2.26-.32,32.33,32.33,0,0,0-14.71-2.87c-3.19.07-6.4,0.32-9.57,0.69s-6.27,1-9.4,1.5a8.57,8.57,0,0,0-1.59.67c0.65,0.2,1,.29,1.27.4,2,0.73,4,1.55,6.06,2.18,2.42,0.74,4.91,1.22,7.32,2a20.3,20.3,0,0,0,7.88,1.15,14.43,14.43,0,0,1,3-.13c3.87,0.54,7.22-.93,10.56-2.53C6571.64,571.77,6573.18,571.09,6574.73,570.38Z" transform="translate(-6319 -2.33)"/>
  <path d="M6525.11,1368.83a186.71,186.71,0,0,1,.86,22c-0.51,12.14-1.75,24.24-2.68,36.36a70.55,70.55,0,0,0,.86,18.72c0.21-.81.49-1.61,0.62-2.44,0.95-5.72,1.75-11.46,2.81-17.16,2.66-14.24,5.43-28.47,8.15-42.7a69.29,69.29,0,0,0,.68-18.32c-0.48-6.33-.87-12.69-0.93-19-0.09-9.7,2.78-18.93,5-28.24,0.16-.66.29-1.33,0.43-2a74.17,74.17,0,0,0-7.33,10.49C6526.17,1339.69,6524,1353.9,6525.11,1368.83Z" transform="translate(-6319 -2.33)"/>
  <path d="M7084.65,565.19c-0.77-2.8-1.67-5.58-2.69-8.29a43.59,43.59,0,0,0-2.5-5.11c-0.46-.87-1.18-1.6-1.62-2.48a33.08,33.08,0,0,0-1.79-3c-0.22-.33-0.43-0.67-0.66-1-0.5-.72-1-1.41-1.6-2.08s-1-1.15-1.49-1.7a43.87,43.87,0,0,0-5.12-4.74c-3.8-3-7.4-6.25-12-7.9-2.45-.88-5-2-7.51-2.1a17.5,17.5,0,0,0-8.83,2.25c-3.67,1.92-6.15,5-8.44,8.38-1.37,2-2.5,4.19-3.89,6.18a9.89,9.89,0,0,0-1.89,5.32c-0.15,3.6-.36,7.2-0.27,10.79a43.41,43.41,0,0,0,2.8,15.31c1.46,3.56,3.83,6.73,5.79,10.07a0.89,0.89,0,0,0,.16.16L7037,589a30.07,30.07,0,0,0,6.6,5.31,11.55,11.55,0,0,0,1.06.48,34.9,34.9,0,0,0,5.54,2.09,29,29,0,0,0,8,.9,43.28,43.28,0,0,0,11-1.79,25.93,25.93,0,0,0,11.07-7.18c3.31-3.66,5.77-7.64,5-13.08A22,22,0,0,0,7084.65,565.19ZM7067.84,553c-0.27.84-.41,1.38-0.62,1.88a23.37,23.37,0,0,1-4,6.63,8.93,8.93,0,0,1-7.37,3.1,3.06,3.06,0,0,1-2.89-2.06,3.81,3.81,0,0,1,.46-3.86,7.84,7.84,0,0,1,1.54-1.48,18.63,18.63,0,0,1,7-3.49A51,51,0,0,1,7067.84,553Zm-15.72-5.55c0.16-.49.28-1,0.47-1.46a3.4,3.4,0,0,1,2.84-2.27c3.34-.67,5.6,1,7.71,3.18,1,1,1.87,2.26,2.85,3.47a3,3,0,0,1-.65.39c-1.87.43-3.74,0.87-5.61,1.24a8.48,8.48,0,0,1-1.87.07c-2.36-.06-4-1.39-5.45-3.18A1.45,1.45,0,0,1,7052.12,547.5Zm-19.41,8.41q0.53-2.08,1.17-4.12a8.18,8.18,0,0,1,2.27-3,3,3,0,0,1,2.28-.92,7.07,7.07,0,0,0,.81,0c2.1-.16,2.31.57,2.88,2.22a2.32,2.32,0,0,1-.85,2.46,18.09,18.09,0,0,1-5.87,4c-0.89.33-1.75,0.75-2.83,1.22A11,11,0,0,1,7032.71,555.91Zm-1.26,6.57c1.23-.93,2.42-1.92,3.7-2.77a28.73,28.73,0,0,1,5.12-2.7,3.93,3.93,0,0,1,4.84,1.29c0.41,0.55.73,1.17,1.08,1.76a1.81,1.81,0,0,1-.19,2.14,3,3,0,0,1-.88.78,9.53,9.53,0,0,1-6,1.57,39.23,39.23,0,0,1-7.63-1.82Zm7.68,10.94a5.37,5.37,0,0,1-3.23-1.93,31.35,31.35,0,0,1-3.32-5.3,1.29,1.29,0,0,1,0-.33l1.49-.06a17.44,17.44,0,0,1,4.94.48,6.29,6.29,0,0,1,3.62,3.07,1.76,1.76,0,0,1,.14.82,4,4,0,0,1-.06.76A2.77,2.77,0,0,1,7039.12,573.41Zm9.6,13.08q-1.84-.78-3.63-1.68a7.13,7.13,0,0,1-2.34-2.44,3.3,3.3,0,0,1-.65-2.55c0-.24,0-0.49.05-0.73,0.14-2.06.83-2.17,2.42-2.5a2.11,2.11,0,0,1,2.15,1.14,18,18,0,0,1,2.86,6.21c0.19,0.91.46,1.8,0.75,2.91A9.68,9.68,0,0,1,7048.72,586.49Zm7.14-.45c-0.5.6-1,1.19-1.61,1.87a11,11,0,0,1-2.43-5.08,15.3,15.3,0,0,1,0-6,5.17,5.17,0,0,1,5.23-3.9,2.86,2.86,0,0,1,2.32,3.1A15.43,15.43,0,0,1,7055.86,586Zm11.26-2.56a5.28,5.28,0,0,1-2.55,2.62,28.81,28.81,0,0,1-5.64,1.88,1.17,1.17,0,0,1-.31,0c0.11-.5.2-1,0.31-1.44a18.08,18.08,0,0,1,1.66-4.62,6,6,0,0,1,3.68-2.72,1.58,1.58,0,0,1,.78.07,3.61,3.61,0,0,1,.68.24A2.77,2.77,0,0,1,7067.11,583.49Zm6.62-18.17a3.63,3.63,0,0,1-1.18,2.67,8.46,8.46,0,0,0-.64.72c-1.64,1.89-2.39,1.45-4.17.55a2.7,2.7,0,0,1-1.23-2.77,22.25,22.25,0,0,1,1.8-8.22c0.48-1,.88-2.1,1.41-3.39a12.4,12.4,0,0,1,1.28,1.59q1.2,2.18,2.27,4.43C7073.93,562.3,7073.74,563.83,7073.73,565.32Z" transform="translate(-6319 -2.33)"/>
  <path d="M6534.34,1301.36c0.57-.92,1.19-1.62-0.25-2.66-1.27,1.16-2.64,2.26-3.86,3.52a74.22,74.22,0,0,0-13,17.34c-2.49,4.84-5.3,9.71-6.6,14.91a127.91,127.91,0,0,0-3.17,21.8c-0.5,6.88-.1,13.82,0,20.74,0.14,9.47.45,18.93,0.56,28.39,0.08,7.13.07,14.26-.1,21.38a56.22,56.22,0,0,1-1.06,9.29c-0.89,4.58-2.36,9.05-3.3,13.63-0.69,3.36-1.41,6.71-2.32,10-3.45,12.5-8.25,24.58-11,37.28-1,4.78-2.71,9.46-3.43,14.28-1.65,10.92-3.43,21.86-4.14,32.86-0.64,10-.39,20-0.17,30,0.15,6.83.43,13.67,1,20.48,0.75,9.08.78,18.23,1.65,27.3,0.38,4,1.63,7.92,2.48,11.88l0.72-.07a13.68,13.68,0,0,0,.39-1.78c0.47-5.33,1.15-10.66,1.29-16,0.2-7.25-.19-14.51,0-21.75,0.29-12.83.8-25.65,1.22-38.47,0.88-26.75,6.42-52.66,14.19-78.16,2.12-6.94,4.47-13.82,6.19-20.85,4.49-18.34,5.52-37,5-55.85q-0.42-15.56-1.06-31.12c-0.39-9.64.93-19.16,2.11-28.67a74.59,74.59,0,0,1,8.79-26.55C6528.87,1310.06,6531.63,1305.72,6534.34,1301.36Z" transform="translate(-6319 -2.33)"/>
  <path d="M6494.75,1442c0.57-4.2,1-8.42,1.63-12.61a214.94,214.94,0,0,0,2-50.71,212.29,212.29,0,0,1,.21-39.09c0.64-6.09,1.16-12.17,3.46-18a78.08,78.08,0,0,1,19-28.23,3.13,3.13,0,0,0,.85-1.33c0.35-1.13,2.32-1.57,1.49-3.77-1.09.65-2.14,1.18-3.09,1.85a64.48,64.48,0,0,0-13.78,12.61c-3.22,4.12-6.6,8.25-9,12.84a117,117,0,0,0-8.28,19.71c-2.66,8.44-2.89,16.89-2,25.49,0.94,8.88,2.16,17.73,3,26.62,1,9.57,1.27,19.16-.45,28.7-0.28,1.54-.37,3.11-0.67,4.64-1.65,8.42-3.15,16.88-5.07,25.24-1.39,6.07-3.45,12-5,18-2,7.65-3.94,15.32-5.58,23.05a148.18,148.18,0,0,0-3.26,19.44c-1,12.77,1.17,25.36,3.21,37.92a5.06,5.06,0,0,0,.49.92c0.14-1.67.3-3,.34-4.26,0.15-4.46.33-8.92,0.35-13.37a107.46,107.46,0,0,1,6.16-34.43q3.31-9.66,6.44-19.38A184.44,184.44,0,0,0,6494.75,1442Z" transform="translate(-6319 -2.33)"/>
  <path d="M6472.1,1436.75l0.85,0.06a13.2,13.2,0,0,0,.63-4.1,18.25,18.25,0,0,1,.57-5.94c4.91-19.42,8.58-38.69,4.36-58.45a37.65,37.65,0,0,1-.71-5c-0.81-10.72-2.82-22.06.29-32.79s7.09-21.4,14.15-30.47a23.71,23.71,0,0,0,1.91-2.75,5.34,5.34,0,0,0,.33-1.64,31.51,31.51,0,0,0-6.46,5.28c-3.55,3.84-7.42,7.5-10.3,11.82-4.3,6.46-6.39,13.88-7.67,21.57-2.15,13-2.33,26-1.73,39,0.65,14,1.1,28.08,1.86,42.11C6470.59,1422.56,6471.46,1429.65,6472.1,1436.75Z" transform="translate(-6319 -2.33)"/>
  <path d="M7095.8,1340.12a1,1,0,0,1-.31-0.53c-0.31-2.61-2.84-3.15-4.33-4.64a0.81,0.81,0,0,0-.5-0.06,6.55,6.55,0,0,0-3.46,2.46c-0.89,2.28-.28,4.48.33,6.68a1.42,1.42,0,0,0,.46.4l1.55,1.42a2.1,2.1,0,0,0,.8.65c1.37,0.19,2.76.61,4-.41a4,4,0,0,1,1.45-.36,24.34,24.34,0,0,1,.7-2.45C7097.11,1341.77,7097,1341.2,7095.8,1340.12Z" transform="translate(-6319 -2.33)"/>
  <path d="M6903.27,1412.65a29.58,29.58,0,0,0-3.46-1.72c3,8.56,3.35,17.15,4.55,25.66,2.31-7.33,4.75-14.59,6.65-22.14-0.9-.08-1.56-0.19-2.22-0.19A9.51,9.51,0,0,1,6903.27,1412.65Z" transform="translate(-6319 -2.33)"/>
  <path d="M6817.44,225.08c-2.69,5.13-5.18,10.35-7.65,15.59-1.45,3.08-2.34,6.44-3.71,9.53a33.22,33.22,0,0,0-2.65,11.74c-0.69,13.2-3.66,26.18-2.46,39.51a53.45,53.45,0,0,1,.09,7.38c-0.36,7.4-.85,14.77,1.8,21.76,1.76,4.65,3.7,9.22,5.56,13.83l0.85-.22c-0.31-2.42-.66-4.84-0.93-7.27-0.76-7-1.69-14-2.18-21-1.09-15.68-.15-31.33,1.34-46.93,0.87-9,1.56-18.19,4.8-26.75,2.65-7,6-13.72,9-20.56,0.43-1,.88-1.92,1.32-2.87l-0.77-.44A73.22,73.22,0,0,0,6817.44,225.08Z" transform="translate(-6319 -2.33)"/>
  <path d="M6925.94,228.15c1.36,3.35,3.09,6.61,4,10.08,1.56,5.91,2.69,11.94,3.84,18,2.91,15.18,1.8,30.46-.79,45.42-3.06,17.69-8.83,34.77-15.12,51.61-0.37,1-.64,2-1,3a1.65,1.65,0,0,0,1.42-.57,71.92,71.92,0,0,0,13-26.66,47.62,47.62,0,0,1,2.8-8.19,86.84,86.84,0,0,0,7.47-30.61,148.46,148.46,0,0,0-2.35-35.27C6937.35,244.81,6933.18,235.67,6925.94,228.15Z" transform="translate(-6319 -2.33)"/>
  <path d="M6862.39,217.24c-5.18,9.23-9.79,18.69-11.53,29.3-0.94,5.71-2.06,11.39-3.11,17.08-1.12,6-2.62,12-3.31,18.08-1.62,14.33-2.49,28.68-.41,43.09,1.18,8.2,1.79,16.49,6.2,23.82,0.4,0.67.93,1.25,1.39,1.88a9.65,9.65,0,0,0,.27-3.63c-0.84-11.67-1.8-23.34-2.47-35a164.43,164.43,0,0,1,1.33-31.74c1.43-10.38,2.2-20.83,4.8-31,2.25-8.8,4.39-17.58,8.25-25.9,2.27-4.9,3.69-10.2,5.5-15.31l-0.88-.36C6866.41,210.74,6864.26,213.91,6862.39,217.24Z" transform="translate(-6319 -2.33)"/>
  <path d="M6526.15,157.68c1-5.32-1.5-18.23-4.18-22C6521.54,138.21,6524.57,154.32,6526.15,157.68Z" transform="translate(-6319 -2.33)"/>
  <path d="M6891.3,1411.9c-3.36.52-6.71,1.13-10.05,1.72a2.09,2.09,0,0,0-.5.27c2.82,7,8.16,12,13,17.95a17.7,17.7,0,0,0,.25-5.14,50,50,0,0,1,.14-10.37c0.18-1.42.57-2.82,0.89-4.32A8,8,0,0,0,6891.3,1411.9Z" transform="translate(-6319 -2.33)"/>
  <path d="M6886.45,1652.32a168.58,168.58,0,0,0-23.65-11c-9.49-3.76-19.42-5.27-29.45-6.4-5.48-.61-11-1-16.48-1.43a48,48,0,0,0-5.17,0c-1.55.05-3.1,0.29-4.65,0.26-5.57-.11-11,1-16.33,2.31-3.44.82-6.87,1.67-10.35,2.29-6.09,1.08-11.76,3.41-17.43,5.69-8.08,3.24-16.05,6.74-24.06,10.16-1.42.61-2.79,1.35-4.17,2.06-3.15,1.61-6.2,3.44-9.45,4.8-5.22,2.19-9.73,5.49-14.4,8.57a15.55,15.55,0,0,0-1.38,1.21,16.87,16.87,0,0,0,2.8,1.9c5.11,2.09,10.17,4.34,15.4,6.06a158.57,158.57,0,0,0,48.26,8.28c2.58,0,5.16.35,7.75,0.43,7.24,0.22,14.51.87,21.69-.08a86.32,86.32,0,0,1,18.64-.12,54.34,54.34,0,0,0,18.19-1.47c6.85-1.74,13.77-3.22,20.58-5.1s13.35-4.07,20-6.09c5.26-1.59,10.51-3.23,15.8-4.72,2.89-.81,7.73-1.66,10.66-2.33a18.38,18.38,0,0,0,2-.8c-2.25-1.41-4.08-2.64-6-3.74C6899,1659.49,6892.69,1656,6886.45,1652.32Z" transform="translate(-6319 -2.33)"/>
  <path d="M7233.86,1730.88c3.25-4.17,5-8.49,4.74-13.52C7236.26,1721.47,7233.45,1725.4,7233.86,1730.88Z" transform="translate(-6319 -2.33)"/>
  <path d="M7211.46,1719a8.51,8.51,0,0,1-2.43,6.48c-1.35,1.32-2.08,2.43-1.1,3.88,3.52-5.81,5-9.8,4.63-12.77C7211.92,1717.51,7211.42,1717.93,7211.46,1719Z" transform="translate(-6319 -2.33)"/>
  <path d="M6966.77,344.08l0.14,0,0.5-1.91-0.14,0Z" transform="translate(-6319 -2.33)"/>
  <path d="M7196.32,1717.71c3.93-4.21,5.61-9.6,7.82-14.72C7198.84,1706.47,7197.08,1711.83,7196.32,1717.71Z" transform="translate(-6319 -2.33)"/>
  <path d="M7268.2,1745.38c2.19-3.29,3.55-6.65,2.83-10.79C7267.33,1738.05,7266.56,1740.72,7268.2,1745.38Z" transform="translate(-6319 -2.33)"/>
  <path d="M6979.14,232.6c-2.58-4.88-5.49-9.41-9.65-13.06a18,18,0,0,0-1.66-1.16,8.59,8.59,0,0,0,1.09,3,178.32,178.32,0,0,1,11.3,24.4c0.83,2.35,2.05,4.69,2.27,7.11,0.68,7.45,1.7,15,1.27,22.4-1.08,18.36-5.64,36.08-11.57,53.45-1.17,3.42-2.42,6.81-3.64,10.21l0.49,0.23c2.16-3.82,4.41-7.58,6.45-11.46,4.83-9.15,9.35-18.45,11.39-28.7,1.26-6.33,2.35-12.7,3.52-19a38.92,38.92,0,0,0-.15-14.79C6988,253.85,6984.58,242.89,6979.14,232.6Z" transform="translate(-6319 -2.33)"/>
  <path d="M7162.88,1709.77c0.56-.64,1-1,1.3-1.48a31.27,31.27,0,0,0,4.62-8.36c1.39-3.74,2.73-7.51,4.09-11.27a4.71,4.71,0,0,0,.14-0.75l-0.4-.13A45.05,45.05,0,0,0,7162.88,1709.77Z" transform="translate(-6319 -2.33)"/>
  <path d="M6568,1333.46c-1.22-14-4.84-27.46-9.81-40.57a5,5,0,0,0-.71-1l-0.53.24c0.12,1.21.18,2.44,0.37,3.64,0.67,4.18,1.36,8.37,2.1,12.54,1.14,6.37,2.36,12.73,3.5,19.09,1.28,7.1,2.58,14.21,3.69,21.34a11.11,11.11,0,0,1-.08,3.91c-1.65,8.21-1.13,16.55-1.79,24.81-0.52,6.54-.71,13.12-1.39,19.64-0.78,7.43-1.73,14.85-3,22.21-1.79,10.43-3.27,20.94-6.82,31-3,8.45-5.43,17.09-8.26,25.58-2.16,6.47-4.1,13-6,19.59-1.72,6.08-3.75,12.4-4.15,18.72-0.58,9.34-.25,18.74-0.27,28.11a13.63,13.63,0,0,0,.6,2.58,24.45,24.45,0,0,0,1.32-2.15,46.39,46.39,0,0,0,3.86-14.8c0.69-7.1,1.54-14.2,2.81-21.21,1.88-10.37,6.12-20,9.49-30,3.18-9.4,6.44-18.79,9.47-28.24,3.34-10.44,5.82-21.11,6.28-32.1,0.36-8.47.42-16.95,0.46-25.42s-0.06-17.18-.2-25.77c-0.07-4-.45-8-0.56-12C6568.3,1346.61,6568.6,1340,6568,1333.46Z" transform="translate(-6319 -2.33)"/>
  <path d="M7182,1695.11c-4.22,6-5.85,13-7.32,20A37.33,37.33,0,0,0,7182,1695.11Z" transform="translate(-6319 -2.33)"/>
  <path d="M6490.94,127.59c-2.91,5.3-4.79,19.86-3.26,24.81C6489,149.85,6491.45,131.7,6490.94,127.59Z" transform="translate(-6319 -2.33)"/>
  <path d="M7276.05,393.13a27.52,27.52,0,0,0-3.25-10.34c-2.21-3.64-4.4-7.29-6.67-10.89a31.73,31.73,0,0,0-6.38-7.33c-2.53-2.14-5-4.33-7.74-6.21a29.23,29.23,0,0,0-7-3.72c-4.79-1.65-9.73-2.88-14.61-4.25a10.1,10.1,0,0,0-2.21-.38,28.84,28.84,0,0,0-19.55,6.4c-4,3.1-7.5,6.81-11.32,10.15a12.83,12.83,0,0,0-2.91,3.71c1.23,0.26,2.45.59,3.67,1,6.13,1.88,12.19,3.92,17.72,7.29l0.56,0.37c-0.11-1.39-.14-2.83-0.25-4.41,0.85,0.34,1.4.51,1.91,0.76a24,24,0,0,1,6.67,4.63,10,10,0,0,1,2.88,8l0.94,0.82a9.45,9.45,0,0,1,1.13,1.19c5.87,7.75,10.44,16.1,11.77,26.06,0.51,3.84.06,7.61-.17,11.4-0.15,2.43-.27,4.88-0.56,7.29a21.76,21.76,0,0,1-1,4.32c1-.15,2-0.3,2.93-0.43a22.06,22.06,0,0,0,12.71-6,24.14,24.14,0,0,1,3.18-2.61,52,52,0,0,0,10.54-9.67c1-1.18,1.66-2.86,3.45-3.21a1.33,1.33,0,0,0,.51-0.65c2-3.31,3.63-6.76,4-10.67a53.39,53.39,0,0,0-.1-5.73C7276.7,398.23,7276.44,395.67,7276.05,393.13Zm-43.2-17.78a2.73,2.73,0,0,1-2.92,1.22,22,22,0,0,1-8.4-2.34c-1-.57-2.13-1.05-3.44-1.69a12.92,12.92,0,0,1,1.7-1.33q2.31-1.21,4.68-2.27a8.91,8.91,0,0,1,4.32-.32,4.07,4.07,0,0,1,3,1.49c0.2,0.24.44,0.45,0.66,0.67C7234.35,372.65,7233.86,373.45,7232.85,375.35Zm14.72,9a5,5,0,0,1,.18-0.93,3.41,3.41,0,0,1,4.72-2.5,6.72,6.72,0,0,1,3.69,2.89,39.25,39.25,0,0,1,3.29,7.05,1.62,1.62,0,0,1,0,.41c-0.63-.05-1.24-0.1-1.84-0.16a21.7,21.7,0,0,1-6-1.38,7.88,7.88,0,0,1-4-4.35A2.2,2.2,0,0,1,7247.57,384.32Zm10.18,19.13q-1,2.47-2.06,4.88c-0.68,1.49-2,2.35-3.25,3.34a3.63,3.63,0,0,1-2.93.77,8.44,8.44,0,0,0-1-.07c-2.61-.14-2.76-1.07-3.22-3.19a2.86,2.86,0,0,1,1.41-2.89,22.26,22.26,0,0,1,7.82-3.94c1.15-.27,2.27-0.65,3.67-1.06A13.56,13.56,0,0,1,7257.74,403.45Zm-2.43-5.06a35.38,35.38,0,0,1-6.71,2.51,4.9,4.9,0,0,1-5.76-2.35c-0.42-.74-0.72-1.56-1.06-2.34a2.24,2.24,0,0,1,.56-2.6,3.71,3.71,0,0,1,1.2-.82,11.78,11.78,0,0,1,7.61-1,48.89,48.89,0,0,1,9.11,3.44v0.33C7258.62,396.52,7257,397.55,7255.31,398.39Z" transform="translate(-6319 -2.33)"/>
  <path d="M7155.69,462.32c-0.64-1.65-1.14-3.35-1.72-5-3.27-9.43-8-17.87-16.12-23.78-3-2.18-6.16-4.17-9.3-6.15l-0.29-.16h0a10.7,10.7,0,0,0-2.3-1l-0.17,0a10.37,10.37,0,0,0-1.06-.25,11.2,11.2,0,0,0-1.3-.15,64.61,64.61,0,0,0-12.82.78,34.37,34.37,0,0,0-9.2,2.22,29.49,29.49,0,0,0-14.8,14.35c-3.63,7.31-6.77,14.83-8.2,23-0.59,3.37-.69,6.64.65,9.78a78.5,78.5,0,0,0,5.1,10.83c2.81,4.52,5.6,9.06,9.32,12.86a55.79,55.79,0,0,1,14.68-6.31h0a18.82,18.82,0,0,1,2.34-12.63,3.35,3.35,0,0,1,4.28-1.78c2.48,1.07,4,4.73,3.13,7.37a17.94,17.94,0,0,1-2.72,5.16l1.16-.3a27.25,27.25,0,0,1,14,.16,47.88,47.88,0,0,1,15.58,7.58l0.25-.27c1.27-1.39,2.48-2.83,3.61-4.35a47.37,47.37,0,0,0,3.66-5.61c2.71-4.92,4.44-9.92,4.17-15.61A33.3,33.3,0,0,0,7155.69,462.32Zm-58.45,3.33a3.92,3.92,0,0,1-1.43-2.61,8.86,8.86,0,0,1,.11-4q0.83-2.2,1.79-4.34a11.72,11.72,0,0,1,1.08-1.6c0.6,1.17,1,2.14,1.58,3.06a20.86,20.86,0,0,1,2.32,7.55,2.55,2.55,0,0,1-.94,2.69c-1.6,1-2.27,1.46-4-.17C7097.61,466,7097.44,465.81,7097.24,465.65Zm7.42,26.19c-0.17.56-.35,1.12-0.54,1.7a1.42,1.42,0,0,1-.34-0.15,36.26,36.26,0,0,1-4.77-5.52,6.62,6.62,0,0,1-1.09-4.35,3.26,3.26,0,0,1,3.84-3.31,4.38,4.38,0,0,1,.86.18,2,2,0,0,1,.86.42,7.61,7.61,0,0,1,2.22,5.16A22.05,22.05,0,0,1,7104.66,491.84Zm7.32-31.1a21.8,21.8,0,0,1-2.11.73,4.35,4.35,0,0,1-5-2.36,33.17,33.17,0,0,1-2.53-6c-0.52-1.64-.86-3.33-1.28-5l0.2-.18a43.61,43.61,0,0,1,7.72,3.9,11,11,0,0,1,4,5.61,3.46,3.46,0,0,1,.22,1.29A1.94,1.94,0,0,1,7112,460.74Zm4.35-11.77a4.36,4.36,0,0,1-.47.69,1.87,1.87,0,0,1-.67.6,6.7,6.7,0,0,1-5.16,0,19.62,19.62,0,0,1-4.53-3.12c-0.41-.36-0.8-0.73-1.22-1.11a1.36,1.36,0,0,1,.26-0.25,32.78,32.78,0,0,1,6.41-2.14,5.79,5.79,0,0,1,4.05.67A3.15,3.15,0,0,1,7116.33,449Zm14.51,3.62c0.78-2.09,1.07-3,3.76-2.75,0.29,0,.58.07,0.88,0.08a4.6,4.6,0,0,1,3.24,1.45,9.69,9.69,0,0,1,2.64,3.72q0.77,2.64,1.38,5.32a14,14,0,0,1,.12,2.27c-1.37-.63-2.46-1.2-3.6-1.65a23.25,23.25,0,0,1-7.41-5.25A3,3,0,0,1,7130.84,452.59ZM7129.28,472a8.29,8.29,0,0,1-2.32,0,4,4,0,0,1-3.17-2.76,3.51,3.51,0,0,1,.83-3.88,9.79,9.79,0,0,1,8.19-3.14,24.37,24.37,0,0,1,8,2.31c0.54,0.24,1,.57,1.86,1a57.57,57.57,0,0,1-5.21,3.86A20.31,20.31,0,0,1,7129.28,472Zm14,2.09c-0.14,3.35-.72,6.45-3.91,8.47a3.63,3.63,0,0,1-3.94.34c-0.49-.24-1-0.56-1.44-0.82a1.57,1.57,0,0,1-.81-1.38c-0.15-2.52.23-4.88,2.09-6.74a9.63,9.63,0,0,1,1.56-1.37c1.79-1.14,3.61-2.21,5.43-3.3a3.2,3.2,0,0,1,.8-0.18C7143.19,470.86,7143.39,472.49,7143.33,474.11Z" transform="translate(-6319 -2.33)"/>
  <path d="M6319,2.33v1918H7399V2.33H6319Zm854.05,129.76c0.44-2.73.4-5.63,1.73-8.16q1.6-3.06,3.31-6.06h0c1.9-1.53,3.77-3.14,5.77-4.53a60.26,60.26,0,0,1,7-4.13c3.19-1.62,6.47-2.57,10.32-1.52a1.88,1.88,0,0,0,.79,0c2.28-.37,4.11.25,6.53-0.11-0.28-1.07-.46-2-0.78-2.94-1.21-3.47-2.8-6.82-3.29-10.51v0a111.29,111.29,0,0,1-9.19-21.69l-0.88-2.89a0.66,0.66,0,0,1,.5.3c1.51,2.3,3.05,4.58,4.51,6.91A47.66,47.66,0,0,1,7202,81.5c1.1,2.31,2,4.7,3.07,7,1.4,3.09,2.87,6.15,4.3,9.22,0.18,0.38.38,0.76,0.62,1.23a1,1,0,0,0,.1-0.25c-0.83-2.74-1.58-5.5-2.5-8.2a47.46,47.46,0,0,1-2.33-12.41c-0.34-5.42-.59-10.84-0.88-16.26,0-.26,0-0.53,0-0.79a17.22,17.22,0,0,1,1.14,3c0.82,2.82,1.68,5.63,2.41,8.47,1.19,4.62,1.91,9.35,3.33,13.91a7.89,7.89,0,0,1,.49,3,2.39,2.39,0,0,0,.36,1.12,14.61,14.61,0,0,0,.16-2.32c0.67-8.71,7.41-23.92,8.45-25.07-0.28,5.57-.56,11.14-0.78,16.72h0A86.86,86.86,0,0,0,7218.13,92a0.88,0.88,0,0,0,.27,1c1.21-1.23,2.46-2.37,3.58-3.64,2.34-2.65,4.63-5.35,6.92-8.05a5.79,5.79,0,0,1,1.91-1.74,2.65,2.65,0,0,1-.11.33c-1.35,2.82-2.69,5.64-4.05,8.45-0.56,1.15-1.21,2.26-1.75,3.42-1,2.22-1.89,4.52-3,6.7-1.43,2.82-3,5.55-4.54,8.34-0.35.65-.58,1.36-0.89,2.11l0.88,0.25c1.71,0.43,3.44.83,5.14,1.3A56.6,56.6,0,0,1,7238,117.8a11.54,11.54,0,0,1,4.67,5,34.87,34.87,0,0,0,2.36,4.75h0c0,2.41-.14,4.82-0.13,7.23a9.16,9.16,0,0,1-2.42,6.3h-0.06a18.7,18.7,0,0,1-6.72,12.28h0c-2.41,3.9-6.71,5.86-10.15,7.87h0a37.5,37.5,0,0,0-14.23,7.78,30.27,30.27,0,0,0-4.35,4.88,15.22,15.22,0,0,0-1,1.73c-0.25.46-.41,1-0.63,1.45a48.67,48.67,0,0,0-3.12,9.78c-1,4.41-2,8.79-5.3,12.47v0c-0.33,3.39-1.88,6.33-3.26,9.32a8.41,8.41,0,0,1-.62,1l-0.23-.11c0.11-.89.21-1.79,0.34-2.67,0.69-4.85,1.92-9.65.34-14.69a0.07,0.07,0,0,1,0-.05c3.25-6,5.23-12,4.29-18.35a14.24,14.24,0,0,0-1.63-4.9c-1.08-1.94-2.37-3.76-3.55-5.65a11.1,11.1,0,0,0-5.56-4.6,15.92,15.92,0,0,1-6-4.14l-0.59-.66a63.59,63.59,0,0,1-3.64-5.57c-2.12-3.74-3.11-7.9-3.94-12.09v-0.46A21.32,21.32,0,0,1,7173.05,132.09Zm-709.26,6.49a66,66,0,0,1,7.17-19.78,169.89,169.89,0,0,1,12.73-19.63,12,12,0,0,0,2.65-7.78c-0.06-3.76-.16-7.52-0.26-11.29,0-.77-0.12-1.5.73-2,1.85-1,3.69-2,5.9-3.24,0.12,1.36.21,2.24,0.28,3.11,0.48,5.88,1.54,11.57,5.69,16.15,2.06,2.27,3.65,5,6.29,6.72,4.43,2.85,8.91,5.64,13.44,8.33,6.46,3.84,13.71,6.84,19.46,11.77a29.74,29.74,0,0,1,9.43,15.35c1.35,5.76,1.64,11.76-.92,17.06q-0.18.38-.39,0.76c-2.19,4-4.31,9.14-9.57,9.78-2.43.3-5,.22-7.34,0.48-2.15.23-3.28,1.27-5.32,2.07-2.57,1-5,.39-7.69.22-3.54-.22-6,2.76-9,4-4.41,1.84-7.16-1.5-10.93-2.87-3.62-1.31-5,1.69-8.38,2.17-2.14.31-3.61-.93-5.31-1.89a5.83,5.83,0,0,0-4.61-.39c-7.65,2.38-12.49-5.84-14.81-11.49S6462.64,144.25,6463.79,138.58Zm-74.72,356c-0.59-.75-1.06-1.6-1.72-2.3a18.75,18.75,0,0,1-1.57-1.88c-2.18-3-4.34-6.1-6.25-9.31-1.45-2.44-2.75-5-4.07-7.49-0.49-.93-0.81-2-1.31-2.89-1.41-2.59-3-5.08-4.28-7.74-1.47-3.07-2.59-6.32-3.89-9.47-0.32-.77-0.61-1.54-0.85-2.33a54.4,54.4,0,0,1-2.06-9.16c-0.13-1.08-.32-2.16-0.42-3.24-0.32-3.39-.59-6.79-0.86-10.19a27.56,27.56,0,0,1-.08-3.43c0.11-2.59.33-5.18,0.55-7.76s0.51-5.46.86-8.17c0.41-3.12.9-6.23,1.43-9.33,0.49-2.93,1-5.87,1.64-8.76,0.6-2.55,1.48-5,2.21-7.54a4.38,4.38,0,0,1,1.89-2.65c2.62-1.64,5.16-3.39,7.85-4.9s5.62-2.61,8.42-3.9a35.82,35.82,0,0,1,8.11-2.71c2.4-.47,4.76-1.15,7.16-1.62,0.51-.1,1.34-0.21,1.86-0.25,4.1-.36,8.2-0.72,12.31-1,2.13-.16,4.26-0.26,6.4-0.27s4.19,0.09,6.28.17c2.57,0.1,5.14.23,7.71,0.32a7.47,7.47,0,0,1,1.48.2c0.74-.21,1.71-0.19,2.17-0.67a45.3,45.3,0,0,0,3.39-4.21c0.88-1.16,1.64-2.41,2.57-3.52,1.18-1.41,2.51-2.69,3.72-4.07,1.7-1.94,3.34-3.93,5-5.88s3.31-3.77,4.95-5.67c1.84-2.13,3.66-4.29,5.51-6.41q1.71-1.95,3.52-3.81c2.18-2.24,4.35-4.5,6.6-6.67,1.51-1.46,3.12-2.82,4.74-4.17,2.15-1.79,4.34-3.54,6.54-5.27,1.8-1.42,3.63-2.8,5.44-4.21,2.75-2.14,5.47-4.33,8.26-6.4,1.85-1.37,3.81-2.6,5.73-3.88a0.43,0.43,0,0,1,.19-0.07c2-.24,4-0.42,6-0.74,0.81-.13,1.62-0.24,2.44-0.31,3.7-.29,7.41-0.52,11.12-0.6,0.88,0,1.75,0,2.63,0a91.44,91.44,0,0,1,9.12.95c2.47,0.39,4.94.81,7.35,1.43a71.11,71.11,0,0,1,7,2.28,49.21,49.21,0,0,1,5.66,2.47c2,1,3.88,2.34,5.84,3.47a33.54,33.54,0,0,1,9.2,7.49c0.91,1.1,2,2,2.93,3.12a28.67,28.67,0,0,1,4,5.06c2,3.93,3.7,8,5.46,12.1q2.46,5.67,4.75,11.42,0.88,2.19,1.6,4.43c1.25,3.87,2.47,7.74,3.6,11.65,0.94,3.24,1.76,6.51,2.62,9.77,0.58,2.2,1.15,4.41,1.59,6.65,0.13,0.65.28,1.73,0.36,2.4q0.48,4.29.78,8.6a25,25,0,0,1-.09,3.82c-0.36,3-.83,6.08-1.33,9.1a9.75,9.75,0,0,1-1,3.66,46.69,46.69,0,0,1-4.1,5.06c-1.77,2-3.67,4-5.37,6a79.18,79.18,0,0,1-9.92,9.78c-1.37,1.17-2.78,2.29-4.22,3.36-2.7,2-5.32,4.23-8.2,6a119.35,119.35,0,0,1-21,10.31c-2.67,1-5.35,1.94-8.07,2.74-3,.89-6.08,1.59-9.12,2.36q-2.53.64-5.08,1.22c-1,.24-2.07.45-3.12,0.62-2.28.38-4.57,0.71-6.85,1.07l-3.53.59c-0.9.15-1.79,0.35-2.7,0.43-2.71.23-5.43,0.41-8.15,0.61-1.73.12-3.46,0.26-5.19,0.35a1,1,0,0,0-1.05,1.32c0.2,1.21.46,2.41,0.7,3.62s0.5,2.4.67,3.6c0.28,2,.5,4.08.74,6.13,0.21,1.74.44,3.48,0.6,5.23,0.22,2.31.39,4.62,0.6,7a34.57,34.57,0,0,0,4.21-.15c3.11-.48,6.1.13,9.12,0.68,2.35,0.42,4.69.83,7,1.28,2,0.38,4,.77,5.92,1.22,2.61,0.61,5.22,1.24,7.81,2s4.93,1.35,7.3,2.26a61.79,61.79,0,0,1,7.21,3.54c1.23,0.67,3.21,1.84,4.42,2.57a61.3,61.3,0,0,1,6.85,4.36,3.59,3.59,0,0,1,1,1.09,8.17,8.17,0,0,1,.48,2.87c0.26,2.56.48,5.13,0.73,7.69,0.22,2.33.45,4.66,0.7,7.2-1.42-.2-2.66-0.39-3.9-0.54-2.63-.32-5.26-0.64-7.89-0.93-2.36-.26-4.72-0.51-7.09-0.68s-4.81-.24-7.21-0.34c-2-.08-4-0.18-6-0.22-2.16,0-4.33,0-6.49,0-2.89,0-5.77.13-8.66,0.2-1.49,0-3,0-4.48.07s-2.94,0-4.41.15c-1.22.09-2.43,0.31-3.64,0.44-2.67.28-5.37,0.42-8,.86s-5.12,1.14-7.69,1.72c-1.08.24-2.16,0.52-3.26,0.67-2,.29-4,0.39-6,0.76-2.65.5-5.26,1.19-7.89,1.8l-0.6.14c-1.46.27-2.92,0.49-4.37,0.82-1.15.27-2.27,0.67-3.4,1-1.5.46-3,1.08-4.6,0.71-4.42-1-8.86-2-13.21-3.25s-8.4-3-12.6-4.45c-1-.33-1.9-0.69-2.82-1.11-2.38-1.08-4.74-2.22-7-3.46a36.12,36.12,0,0,1-3.18-2.19c-1.24-.85-2.51-1.65-3.73-2.53-1.71-1.22-3.4-2.48-5.09-3.74s-3.29-2.42-4.88-3.69a17.65,17.65,0,0,1-1.9-1.81c-2-2.15-4.08-4.19-6-6.37C6391,497.15,6390.08,495.83,6389.07,494.55ZM6567.8,622.35c-2.29.23-4.37,0.59-6.45,0.6-3.43,0-6.87-.22-10.3-0.33a1.06,1.06,0,0,1-1-1c0-2.07,0-4.14,0-6.21,0-.81.09-1.63,0-2.44a0.92,0.92,0,0,0-.66-0.62c-1.49.19-2.34-1-3.45-1.57a34.23,34.23,0,0,1-4.31-2.76,15.15,15.15,0,0,1-6.32-8.93c-0.67-2.8-1.79-5.49-2.65-8.24-0.44-1.4-.79-2.84-1.1-4.28-1-4.49-1.95-9-2.85-13.48-0.41-2.07-.65-4.17-1-6.26a1.33,1.33,0,0,1,1.12-1.73c3-.72,6-1.75,9.1-2.2,4.24-.63,8.54-1,12.83-1.19a77.31,77.31,0,0,1,9.55.23c3.15,0.24,6.28.68,9.4,1.19s6.34,1.37,9.53,2c0.8,0.15,1.61.21,2.42,0.3a0.91,0.91,0,0,1,1,.9c0.28,2.55.68,5.1,0.88,7.66a54.73,54.73,0,0,1,.08,5.84c-0.08,2.95-.21,5.89-0.42,8.83-0.16,2.19-.44,4.37-0.72,6.55-0.24,1.91-.5,3.82-0.87,5.71a3,3,0,0,1-1,1.42c-1.88,1.77-3.82,3.49-5.72,5.25s-3.71,3.51-6.15,4.49a27.09,27.09,0,0,0-2.52,1.35Zm-30.51,232.77a81.78,81.78,0,0,1,7.48,11c2.42,4.36,2.15,8.57.23,13-1.15,2.63-2.61,4.66-5.5,5.58a31.46,31.46,0,0,0-4.37,2.24,4.6,4.6,0,0,1-4.28.2c-0.21-.1-0.45-0.15-0.65-0.25-7-3.68-13.41-8-16.34-15.92-1.51-4.1-3.26-8.11-5.09-12.08a55.71,55.71,0,0,0-3.48-5.66,19.5,19.5,0,0,0-1.64,1.93c-1.38,2.18-2.71,4.39-4,6.59-0.68,1.14-1.37,2.28-2,3.46a5.49,5.49,0,0,1-5,3.27c-1.72.08-2,.17-2.7-1.47-2.17-4.82-3.57-9.75-3.09-15.18s1.55-10.49,2.28-15.74c0.85-6.08,2.07-12.26,0-18.33a71,71,0,0,0-11.64-21.31,10.1,10.1,0,0,0-.6,1.63,11.05,11.05,0,0,0-.18,2.33,55.51,55.51,0,0,1-1.68,14.62,6.66,6.66,0,0,1-.53,1.54c-1.11,2.24-2.31,4.44-3.36,6.7a4.8,4.8,0,0,1-4,2.84c-5.34.84-8.92-2.16-10.09-7.44-1.75-7.85-1-15.71.49-23.5,0.82-4.36,2-8.66,3-13a11,11,0,0,0,.37-2.53,36.44,36.44,0,0,0-3.57-15.16,7.48,7.48,0,0,0-.86-1.39,2.66,2.66,0,0,0-4.35-.13c-1.76,2.48-3.27,5.13-5,7.65a27.39,27.39,0,0,0-4.1,12.06,22.37,22.37,0,0,1-.8,3.66,5.72,5.72,0,0,1-3.44,3.9,1.87,1.87,0,0,1-2.61-.82c-1.77-3.22-3.42-6.33-2.68-10.37a133.62,133.62,0,0,1,3.32-15.32c0.73-2.39,1.25-4.84,2-7.24a2.77,2.77,0,0,0-.5-2.62c-1-1.32-1.89-2.68-2.81-4q-4.28-6.29-8.54-12.6a3.9,3.9,0,0,0-4.78-1.74,20.07,20.07,0,0,0-3.88,2.09c-2.59,1.74-5.09,3.6-7.65,5.39a4.6,4.6,0,0,1-1.48.69c-2,.5-3.51-0.64-3.31-2.69a13.76,13.76,0,0,1,1-4.05,43.54,43.54,0,0,1,2.84-5.38A53,53,0,0,0,6415,719a5.9,5.9,0,0,0-.62-5c-2-3.36-4-6.73-6-10.09-2.72-4.56-5.57-9-7.31-14.12-0.76-2.2-2-4.24-2.92-6.38-0.5-1.13-.87-2.32-1.48-4,2.42-.74,4.64-1.41,6.85-2.12a1.58,1.58,0,0,1,1.81.72c1,1.18,2.05,2.35,3,3.56,4.24,5.2,8.56,10.34,12.64,15.66a14.8,14.8,0,0,0,8.64,5.6c2.89,0.69,5.78,1.32,8.67,2a22.49,22.49,0,0,1,9,4.43c4.12,3.34,8,6.93,12,10.44,1.69,1.49,1.88,3.63,1.84,5.61,0,2.21-2.6,3.71-5.35,3.22a41.74,41.74,0,0,1-5.6-1.65c-3.48-1.15-6.94-2.36-10.41-3.52-1.38-.46-2.79-0.85-4.76-1.45,1.36,2.34,2.39,4.23,3.52,6.05a38.54,38.54,0,0,0,7.8,9,10.68,10.68,0,0,0,5.69,2.52,70.39,70.39,0,0,0,16.13-.08c5.08-.47,9.74,1,14.38,2.61a2.71,2.71,0,0,1,1.9,2.67,4.77,4.77,0,0,1-2.81,3.18c-1.43.41-2.87,0.74-4.29,1.17-1,.32-2,0.83-3.08,1.12-3.59,1-5.22,3.68-6.25,7a1.8,1.8,0,0,0,.78,2,72.93,72.93,0,0,0,6.55,5.65,107.47,107.47,0,0,0,18.33,9.88c3.63,1.61,7.41,2.84,10.92,4.79s7.15,3.14,10.65,4.85c3.71,1.82,7.39,3.73,11,5.82s5.89,5.54,8.63,8.53a2,2,0,0,1,.26,1.52c-0.4,1.91-.91,3.79-1.36,5.69a1.85,1.85,0,0,1-1.63,1.45,7.31,7.31,0,0,1-4.37,0c-1.81-.73-3.64-1.41-5.44-2.17-2.52-1.06-5-2.16-7.51-3.25-0.14-.06-0.3-0.1-0.43-0.18-3.22-1.75-6.49-3.39-9.63-5.27a58.16,58.16,0,0,0-10-4.32,15,15,0,0,0,.58,1.54q7.94,14.87,15.91,29.73c2,3.74,5.23,6.12,8.87,8.06,1.51,0.81,3,1.65,4.5,2.51,3.47,2,7.35,2.62,11.2,3.13,6.67,0.88,12.74,3,17.93,7.4,1.83,1.55,1.84,3.36-.39,4.31a53.54,53.54,0,0,1-8.45,2.68c-2.79.67-5.67,1-9,1.54C6536.48,853.94,6536.85,854.56,6537.29,855.13ZM6423.36,1211.2c-4.07,9.91-8.66,19.57-13.24,29.25-0.32.68-.74,1.32-1.17,2.07-5.09-1.95-9.85-4.18-14.85-6.52,0.95-2.08,1.73-3.92,2.62-5.71,1.36-2.74,2.83-5.43,4.2-8.16,3.4-6.77,6.4-13.72,9.1-20.78,2.65-6.91,5.11-13.89,7.66-20.84,1.91-5.22,3.71-10.49,5.77-15.66a130.52,130.52,0,0,1,10.3-21.11c1.81-2.88,3.44-5.86,5-8.9,1.65-3.27,3.75-6.34,5.24-9.68,2.67-6,5.13-12.08,7.65-18.14,0.58-1.38,1-2.81,1.62-4.2,1.37-3.29,2.85-6.53,4.15-9.84,3.6-9.11,7.13-18.25,10.67-27.38a2.35,2.35,0,0,0,.22-1.1,36.93,36.93,0,0,0-2-8.24c-0.4-1-.74-2.1-1.1-3.15a2.82,2.82,0,0,1,.13-2.42c0.73-1.31,1.37-2.67,2.14-4a2.64,2.64,0,0,0,.34-2.19c-0.58-2.26-1-4.56-1.58-6.83a2.3,2.3,0,0,1,.78-2.51c1.88-1.74,3.65-3.59,5.47-5.39,0.73-.72.88-1.52,0.6-3.15a7,7,0,0,1,0-2.45c2-11-.15-8.71,4.3-12.18a2.13,2.13,0,0,0,.88-1.51c0.4-3,1-6,1.3-9.08a5,5,0,0,1,2.62-4c4.42-2.8,4.39-2.84,7.29-7.09a33.68,33.68,0,0,0,2.16-3.42,1,1,0,0,1,.9-0.55,5.7,5.7,0,0,0,3.92-1.65c3.52-2.8,7.13-5.51,10.71-8.24a7.26,7.26,0,0,1,1.17-.58c0.45,4,.78,7.77,1.39,11.54a2.28,2.28,0,0,1-.51,1.83c-0.89,1.06-1.08,2.52-1.78,3.68s-0.36,2.14.53,3.08c1.46,1.53,2.82,3.15,4.3,4.66a2.32,2.32,0,0,1,.64,2.27c-0.3,1.55-.59,3.11-0.78,4.68a1.13,1.13,0,0,0,0,.42c0.7,2.7,1.58,5.34,2.2,8.06a1.67,1.67,0,0,1,0,.67,36.21,36.21,0,0,1-1.9,5.13,33.87,33.87,0,0,0-3,14.76,43.67,43.67,0,0,1-1,10.28,3.35,3.35,0,0,1-1.14,1.95q-4.57,4.05-9,8.25a1.12,1.12,0,0,0-.28.5,71.52,71.52,0,0,0-1.66,8.19,7.51,7.51,0,0,1-4.25,6.3,8.57,8.57,0,0,1-1.31.73c-3.07,1-5,3.24-6.31,6l-0.07.15c-4.19,7.76-7.35,16-10.48,24.18-1.59,4.16-3.12,8.34-4.94,12.4s-3.88,7.88-5.92,11.77c-3.05,5.81-6.16,11.59-9.27,17.37-2.66,4.94-5.5,9.8-8,14.82s-5.43,10.07-6.93,15.7a60.43,60.43,0,0,1-3.37,9.39c-3.48,7.65-5.31,15.91-10.2,22.92A18.5,18.5,0,0,0,6423.36,1211.2Zm196.4,68.3c-11.84,4.41-23.81,8.5-36,11.88-5.05,1.4-10.08,3.16-15,4.79-0.46,9,1.65,17.58,2.75,26.31,1.48,11.83,2.52,23.72,3.53,35.6,0.87,10.22,1.77,20.47,2.07,30.72,0.47,16.4.41,32.78-.64,49.19-0.64,10-3.61,19.25-6.31,28.65q-4.95,17.21-10.47,34.25c-2.16,6.68-4.9,13.17-7.32,19.76-3.18,8.69-6.4,17.37-9.42,26.11a182,182,0,0,0-7.57,31.87c-1.9,12.33-2.89,24.8-4.35,37.2-1,9-2.57,17.82-4.33,26.67s-4.76,17.18-7.11,25.78c-1,3.65-2.07,7.27-3.1,10.92,1.54,0,3.09,0,4.63,0h2.24c6.14,0,12.29.11,18.43,0.26,1.12,0,2.25,0,3.38,0a31.25,31.25,0,0,1-.32,7.33c-0.1.65-.21,1.29-0.33,1.94-0.45,2.49-1,5-1.58,7.44-1.39,6-4.59,11.06-8.3,15.87-4.86,6.31-11.25,10.78-17.86,15-0.79.51-1.53,1.11-2.35,1.56a2.33,2.33,0,0,0-1.24,2.83q0.75,3.88,1.35,7.79c0.25,1.65.36,3.32,0.52,4.9-6.46,2.49-36.76,2.82-45.75.51l0.68-13.15c-4.06-1.79-8-3.45-11.93-5.28-11.76-5.51-20.14-14.18-23.78-26.8-2-6.77-3.25-13.73-4.79-20.63a23.68,23.68,0,0,1-.37-3.32c1.4-.14,13.75,1.05,18.6,1.26,3.2,0.14,6.41.31,9.61,0.48,0-1.1-.06-2.2-0.12-3.31-0.33-6.69-.95-13.36-1.6-20-0.82-8.34-1.75-16.66-2.73-25a55.76,55.76,0,0,0-7.64-23c-5-8.21-8-17.17-9.93-26.51a179.06,179.06,0,0,1-3.34-47c0.4-7.1-.17-14.27-0.56-21.4a60.67,60.67,0,0,1,2.45-19.83c3.39-12.14,6.76-24.3,9.81-36.53a106,106,0,0,0,2.79-28.58c-0.13-4.86-1.48-9.7-2.39-14.53a371.53,371.53,0,0,1-5.61-40c-0.57-7.34-1.36-14.67-2.27-22-0.76-6.12-.48-12,1.87-17.84,1.89-4.68,4.9-8.53,8-12.31q2.57-3.09,5.31-6c3.12-3.35,6.63-7.27,10.8-9.83,9.6-5.89,19.18-11.87,29.09-17.2a118.6,118.6,0,0,1,33.82-12.4c4.22-.81,8.43-1.75,12.6-2.79a12.91,12.91,0,0,0,3.66-1.54c8-4.93,16.16-9.72,24-15,6-4.07,11.45-8.92,17.29-13.22q14.42-10.62,29-21c13.41-9.45,27-18.7,40.39-28.14q20.51-14.42,40.88-29,20.6-14.81,41.12-29.74a115.81,115.81,0,0,1,11.73,13.94c-21.19,16.08-43.16,31-65.31,45.75-18.22,12.11-36.26,24.51-54.3,36.9-10.77,7.4-21.29,15.14-32.06,22.54-8.1,5.56-16.41,10.81-24.61,16.23-2.69,1.78-5.31,3.66-8.14,5.61l1.92,6.9a7.87,7.87,0,0,0,1.69-.31c15.89-7.1,31.8-14.18,47.66-21.37,10.16-4.6,20.14-9.64,30.41-14q26.67-11.29,53.6-21.93c17.64-7,35.39-13.69,53.15-20.37,5.69-2.14,11.43-4.18,17.18-6.17,3.19,6.16,6.19,12.43,9.11,18.75-2.16.82-4.31,1.63-6.46,2.46-20.18,7.85-40.33,15.78-60.36,24-12.38,5.1-24.38,11.13-36.76,16.22C6655,1265.84,6637.48,1272.89,6619.75,1279.5Zm304.64,389.15c-4.44,7.7-8.78,15.45-13.36,23.06a253.86,253.86,0,0,1-24,34,347.59,347.59,0,0,1-27.75,29.3,323.58,323.58,0,0,1-30.81,24.82c-1.56,1.13-2.52,2.23-1.94,4.25,0.28,1,.32,2,0.51,3.06,1.49,8.15,3,16.29,4.47,24.45,0.19,1.06.24,2.16,0.37,3.47-12.76,1.4-25.15.4-37.62-.89,0-.63,0-1.05,0-1.47,1.07-9.77,2.09-19.56,3.29-29.32,0.27-2.21-.32-3.43-2.36-4.47s-4.16-2.08-6.16-3.26c-16.32-9.63-32.34-19.74-46-33a135.57,135.57,0,0,1-11.91-12.91c-4.27-5.41-8-11.25-11.9-16.93-6-8.76-11.47-17.85-15.37-27.79-2.17-5.53-4.26-11.1-6.42-16.75,1-1,1.64-1.64,2.32-2.29a182.18,182.18,0,0,1,25-19.66,266.15,266.15,0,0,1,43.82-23.79,122.74,122.74,0,0,1,27.71-8,7.45,7.45,0,0,1,1.74-.08c2.87,0.2,5.75.32,8.6,0.68,9.5,1.19,19,2.29,28.47,3.77a107.55,107.55,0,0,1,20.37,4.82c6,2.19,12.05,4.18,18,6.42a102.91,102.91,0,0,1,22.45,11.66c5.6,3.87,10.91,8.17,16.25,12.4,3.85,3,7.54,6.29,11.28,9.46,0.77,0.65,1.49,1.38,2.32,2.15C6925.32,1666.81,6924.91,1667.76,6924.4,1668.65Zm30.54-273.33c-2.07,1.6-2.09,1.86-1.11,4.36,0.66,1.68.74,3.21-.49,4.66a8.16,8.16,0,0,0-1,1.36c-0.83,1.54-2.36,1.84-4.23,2.12a12.65,12.65,0,0,0-2.31.57c-5.6,2-5.73.91-5.83,3.38,0,0.22,0,.45,0,0.67,0.06,2-1.12,2.91-4.74,3.37a10.48,10.48,0,0,0-5.89,2.9c-1.42,1.36-2.43,1.59-3.61,1.16-1.62-.6-3.26-1.16-4.89-1.74l-1.2-.43-0.81,4.52q-1.54,8.58-3.09,17.16c-0.56,3.14-1.07,6.29-1.65,9.42-0.47,2.55-1.09,5.08-1.51,7.64a30.89,30.89,0,0,0-.4,4.77c-0.05,4.91,0,9.83-.06,14.74-0.06,3-.35,6-0.6,9-0.32,3.9-.73,7.78-1.06,11.68a1.49,1.49,0,0,1-1.15,1.43,37.8,37.8,0,0,1-13.69,2c-2.13,0-4.25-.11-6.37-0.19-0.5,0-1-.1-1.5-0.17a1.48,1.48,0,0,1-1.42-1.4c-0.1-.83-0.25-1.66-0.31-2.5-0.33-4.35-.63-8.7-1-13.05-0.08-1.11-.27-2.22-0.33-3.34-0.12-2.09-1.4-3.74-2.06-5.62-0.75-2.16-1.54-4.31-2.38-6.43s-1.81-4.45-2.78-6.65c-1.13-2.56-2.34-5.08-3.48-7.63-0.59-1.31-.53-1.64.57-2.63a11.88,11.88,0,0,1,3.17-2.42c2.79,4.57,6.48,8.45,8.41,13.47l0.34,0a10.86,10.86,0,0,0,.53-1.28q1-3.65,2-7.31a1.67,1.67,0,0,0,0-.94,70.88,70.88,0,0,0-5.68-13.6c-1.41-2.45-2.25-5.23-3.43-7.83-1.95-4.27-4-8.51-6-12.9-1.75.15-3.37,0.16-4.95,0.45-4.28.78-8.2-.58-12.12-1.92a1.49,1.49,0,0,1-.39-0.2c-1.87-1.35-3.7-2.75-5.59-4.07a3,3,0,0,1-1.23-1.5c-0.7-1.94-1.54-3.84-2.23-5.78a55.9,55.9,0,0,1-1.9-6.1,3.11,3.11,0,0,0-1.74-2.07,3.53,3.53,0,0,1-2.09-3c-0.22-1.82-.65-3.62-0.94-5.44a4.07,4.07,0,0,1,.48-2.89c0.86-1.43,1.47-3,2.42-4.39a16.24,16.24,0,0,1,2.86-3,56,56,0,0,0,7.51-7.65c1.45-1.83,3-3.6,4.41-5.44a4.11,4.11,0,0,1,2.66-1.59,58.94,58.94,0,0,1,7-1.08,63.22,63.22,0,0,0,19-3.9,17,17,0,0,1,11.91.23,53.5,53.5,0,0,0,5.75,1.8,14,14,0,0,0,4,.14,9.09,9.09,0,0,1,3.92.64c3.45,1.29,6.79,2.91,10.51,3.4a4.57,4.57,0,0,1,2,1.13c2.17,1.76,4.3,3.57,6.44,5.36,1,0.86,1.54,1.86,2,3.89a9.53,9.53,0,0,0,5.36,1.41,5.08,5.08,0,0,1,2.77.85,44.55,44.55,0,0,1,9.48,8.42c1.21,1.46,2.64,2.72,3.94,4.1a5.83,5.83,0,0,1,1.18,1.75C6957,1393.07,6956.41,1394.18,6954.93,1395.32Zm60.55-1095.41c-3.49,9.48-6.28,19.26-10.35,28.48-5.36,12.13-12.53,23.31-23.61,31.1-7.22,5.08-15.41,7.06-24.19,3.78-3.33-1.25-3.29-1.17-5.38,1.86-1.77,2.56-3.68,5-5.58,7.5a2.45,2.45,0,0,1-1,.75c-8.47,3.74-17.08,4.73-25.65.21a14,14,0,0,0-13.67.14c-12.7,7.52-25.57,7.11-38.09.28-6-3.28-11.68-7.15-17.47-10.82a4.17,4.17,0,0,0-4.42,0c-4.47,2.76-9.12,5.32-14.39,6-6.88.91-12.68-1.8-17.8-6.15-2.33-2-4.52-4.11-6.78-6.17a11.45,11.45,0,0,1-11.34,1.81,5.21,5.21,0,0,1-1.67-1,54.72,54.72,0,0,1-12.88-16.15,98.51,98.51,0,0,1-9-25.79A67.09,67.09,0,0,1,6771.1,303c0.37-13.39,1.19-26.76,1.84-40.14a14.88,14.88,0,0,1,.45-2.77,167.07,167.07,0,0,1,12.05-31.59c2-3.83,3.92-7.68,5.92-11.49,3.18-6.07,8.45-9.74,14.59-12.32a6.81,6.81,0,0,1,2.79-.41,39.23,39.23,0,0,1,12.9,3.25c1.21,0.57,2.48,1,3.88,1.55a44.11,44.11,0,0,0,2.91-4.86c4.63-10.64,13.52-14.4,24.27-15.2,5-.37,10-0.48,14.79,1.35a27.33,27.33,0,0,0,4.35.85c1.06-11.49,2.37-22.68,1.3-34s-4.47-22.12-8.71-33.12c1.53-.22,2.69-0.48,3.88-0.55,2.49-.16,5,0,7.47-0.37,2.89-.45,4.86.56,6.83,2.6A93.47,93.47,0,0,1,6905.09,165a234.08,234.08,0,0,1,7.58,34.22,17.32,17.32,0,0,0,.92,2.69c0.55-.53.86-0.88,1.21-1.17,7.27-5.76,15.86-7,24.73-6.93,8.13,0.09,15.08,3.15,20.25,9.56,1.61,2,3.08,2.5,5.48,1.5,9.72-4,18-.73,25.46,5.52,8.69,7.31,13.77,17.14,17.78,27.47a187.14,187.14,0,0,1,7.25,22.34c1.3,5.23,1.31,10.79,1.83,16.2,0.17,1.8.08,3.63,0.22,5.44A42,42,0,0,1,7015.48,299.91ZM7297,1753.46c-1.87-.44-3.76-0.82-5.61-1.34a137.56,137.56,0,0,0-17.83-3.88,168.39,168.39,0,0,1-23.48-5c-1-.28-1.9-0.64-3-1,1-2.69,2-5.2,2.86-7.77s1.48-5.33,2.21-8l-0.38-.13a1.32,1.32,0,0,0-.36.26c-0.42.62-.84,1.24-1.21,1.89a57.5,57.5,0,0,0-4.77,11.69c-0.13.43-.34,0.85-0.52,1.3a12.55,12.55,0,0,1-2.13-.77,41.94,41.94,0,0,0-9.62-3.12c-10-2-19.89-4.46-29.78-6.9-11.35-2.8-22.59-6-34.15-7.87a52.44,52.44,0,0,1-8.48-2.1c-4.55-1.53-7.89-2.47-12.19-3.73,1.6-4.95,3.65-9.55,4.55-14.52a48,48,0,0,0-7.2,13.6,7.07,7.07,0,0,1-1-.19c-3.41-1.25-6.83-2.46-10.2-3.79a55.9,55.9,0,0,1-14.08-7.85,16.94,16.94,0,0,1-5.71-8.49,40,40,0,0,1-1.17-4.66c-0.49-2.54-1.66-5-1.16-7.67a9.78,9.78,0,0,0-1-.41l-10.95-3a10.84,10.84,0,0,0-2.3-.59c-4.43-.2-8.86-0.33-13.28-0.46a113.23,113.23,0,0,0-18.35,1.37,13.39,13.39,0,0,1-1.49,0l-0.14-2.08c5.1-1,10.12-1.13,15.08-1.65s10,0.51,15,.45a237.28,237.28,0,0,0-30.07-5.19,7.44,7.44,0,0,1-.07-3.52l2.57,0.42c1.69,0.28,3.37.56,5.06,0.82,3.48,0.54,7,1,10.45,1.64,3.25,0.63,6.44,1.5,9.67,2.25l13.88,3.23c1.63,0.38,3.26.72,4.89,1.08l0.09-.3c-7.68-2.55-14.93-6.19-22.87-8.16a239.15,239.15,0,0,0-24-4.56l0.16-4.34a8.17,8.17,0,0,1,1.62.1,15.46,15.46,0,0,0,2.35.41c9.39,0.76,18.27,3.48,27,6.61,6.4,2.29,12.39,5.49,18.54,8.33,0.56,0.26,1.15.48,1.77,0.74a12.16,12.16,0,0,1,5.06-4.25c2.38-1,4.82-1.76,7.25-2.61a0.85,0.85,0,0,1,.25,0c2.09,0.05,4.18.09,6.26,0.19,1.71,0.08,3.41.19,5.11,0.38a27.56,27.56,0,0,1,2.9.64,82.67,82.67,0,0,1-2.26,9.78,12.83,12.83,0,0,0-.48,5.53c0.19,1.58-.32,3.2.38,4.77a74.25,74.25,0,0,0,3.27-9.33c0.92-3.15,1.62-6.37,2.44-9.62,1.51,0.26,1.63-.08,3.26,2.38a1.89,1.89,0,0,0,2.06.74c3.35-.84,6.17,1,9.25,1.8,2.27,0.56,4.62.87,6.83,1.6,6.11,2,12,4.88,18.05,6.86a30.08,30.08,0,0,1,7.57,3.76c6.25,4.24,12.71,8.26,19.35,11.92,4.06,2.24,8.24,4.28,12.34,6.45a38.76,38.76,0,0,0,7.33,3.15,85.41,85.41,0,0,1,12.34,4.45q5.08,2.36,10.19,4.65a82.34,82.34,0,0,1,15.25,8.42,135.3,135.3,0,0,1,12.86,10.55c4.07,3.85,7.93,7.92,11.89,11.9,0.89,0.9,1.81,1.77,2.94,2.88C7297.47,1753.51,7297.22,1753.51,7297,1753.46ZM7353,1246.84c-5.62.31-11.23,0.79-16.82,1.46-5.19.63-10.32,1.75-15.5,2.42a47.44,47.44,0,0,0-19.84,7.24c-3,1.91-4.38,4.87-6.17,7.61-2.18,3.35-4.08,6.9-6.4,10.15-4.23,5.92-8.55,11.78-13.07,17.48-3.24,4.08-6.81,7.91-10.33,11.77-4.09,4.48-8.22,8.92-12.48,13.23q-0.85.86-1.76,1.66-11.86,10.46-23.78,20.87c-0.61.53-1.34,0.94-2,1.42-6.71,4.91-13.43,9.81-20.08,14.8-0.39.29-.77,0.6-1.14,0.91-10,8.53-22.28,13.44-34.12,18.61a44.62,44.62,0,0,1-4.82,1.7c-4.38,1.23-8.66,3.47-13.19,4.53-4.77,1.12-9.59,2-14.42,2.81-3.52.58-7.09,0.94-10.65,1.26-4.88.44-9.76,0.76-14.65,1.1-3,.2-5.92.38-8.89,0.5-4.3.18-8.6,0.41-12.9,0.4a65.6,65.6,0,0,1-11.22-.61,124.16,124.16,0,0,1-15.6-3.85c-4.54-1.44-8.89-3.5-13.32-5.3-1.81-.73-1.92-1.33-0.91-3,3-5.08,5.87-10.21,8.85-15.29,2.8-4.77,5.76-9.46,8.48-14.28s5.07-9.58,7.65-14.34,5.16-9.51,7.85-14.2c3.26-5.69,6.63-11.32,10-16.93a3.41,3.41,0,0,1,.57-0.71,72.91,72.91,0,0,1,7.74-6.86c5.19-3.69,10.6-7.06,15.83-10.69,6.16-4.29,13.47-5.45,20.4-7.6,0.7-.22,1.85-0.53,2.57-0.68,8.72-1.82,17.53-3.18,26.31-4.67,2-.33,4-0.74,5.95-1,4.38-.57,8.77-1.05,13.16-1.58,3.53-.43,7.05-0.89,10.58-1.29,5.45-.63,10.93-1,16.34-1.9a86.1,86.1,0,0,0,10.4-2.76c7.58-2.23,15.15-4.49,22.68-6.87a9.27,9.27,0,0,0,1.52-.66c3.72-2,8.12-2.82,11.69-5,4.58-2.83,8.72-6.38,13.24-9.32,4-2.58,7-6,10-9.52a67.21,67.21,0,0,0,8.41-12.68c2-3.82,3.87-7.74,5.72-11.64,2.08-4.39,4-8.85,6.11-13.23s4.46-9,6.72-13.42a2.62,2.62,0,0,1,.73-0.55c3.49,15.35,7.19,30.4,6.6,46.23,20.38,2.43,38.06,11.62,55.91,21.82C7364.58,1246.5,7358.8,1246.52,7353,1246.84ZM7093.19,767.13s0.39-10.37,1.45-16.81c0.07-.44.66-3.13,0.82-3.58a47.63,47.63,0,0,1,6.63-11.37l0-.06a19.28,19.28,0,0,1,1.73-1.92c2.65-2.5,12.2-8,12.2-8l16.58-5.72,13.57,0.79,18.08,2.76s7.06,4.15,9.34,5.65c0.7,0.46,4.25,2.94,5.06,3.52l4.26,3.06c2.93,2.12,5.32,3.87,5.32,3.87l9,9.06,7.77,15.11,2,4.71,4.05,9.41s4.55,12,4.61,12.13,7.38,10,7.38,10l15.41,18.82,21.28,17.6,21.24,17.45,21,18.31L7317,887s7.95,6.1,9.06,9.11c0.72,2-.66,8.39-0.66,8.39l-3.8,5.49-5.23,5.46-5.66,3.82-5.72,0-7.91-4.73L7245.43,872l-21.62-15.28-25.83-15s-9.66-6.27-13.21-7.66c-2.11-.82-6.62-1.48-8.83-2-5.59-1.25-22.08-6.12-22.08-6.12l-23.8-9.07-16.29-9.48-11.21-13.72-1.59-3.5h0c-1.1-2.44-2.53-5.68-3.54-8.16-0.39-1-.72-1.81-0.94-2.45C7095.41,776.56,7093.19,767.13,7093.19,767.13Zm277.16-440.78-8.11,16.08-9.1,13.47-7.85,8.66h0l-8.72,7.08c-8.2,6.64-16.48,13.2-24.55,20-6,5-11.66,10.42-17.49,15.64q-8.27,7.39-16.58,14.75-7.51,6.64-15.08,13.22a43.48,43.48,0,0,1-11.76,7.68c-1.68.69-3.32,1.49-5,2.29a21.72,21.72,0,0,1-7.8,2.21l-3.42.32c-1.49,2.33-3,4.65-4.63,6.89-4.64,6.42-11.19,10.09-18.26,13-1.09.44-2.2,0.83-3.31,1.21a92.6,92.6,0,0,1-6.24,11.7,80.61,80.61,0,0,1-8.48,11.13,16.42,16.42,0,0,1-6.54,4.47c-4,1.5-7.93,3.14-12,4.38a29.86,29.86,0,0,1-8.22,1.4c-2.71,0-5.42,0-8.1-.24a22.22,22.22,0,0,1-3.22,3.7q-1,.85-2,1.69a20.47,20.47,0,0,1,1.78,3.59c0.59,1.57,1.5,3,2.05,4.6,0.75,2.15,1.34,4.36,1.94,6.56,0.32,1.18.44,2.42,0.78,3.59a25.1,25.1,0,0,1,.53,11.84,31.71,31.71,0,0,1-3.82,10.72c-1.29,2.14-2.34,4.44-3.58,6.61a22.66,22.66,0,0,1-11.26,9.75c-2.62,1.11-5.15,2.42-7.74,3.59-5,2.28-10.45,3.08-15.81,4.1-5,.94-10,0.49-15,0.81a21.72,21.72,0,0,1-9.66-1.8c-0.57,1.87-1.24,3.7-2,5.52s-1.48,3.55-2.21,5.32l-0.38.92c-0.33.82-.69,1.62-1.07,2.42s-0.78,1.57-1.22,2.32a24.21,24.21,0,0,1-3.08,4.24c-0.94,1-1.9,2-2.91,2.9l-0.34.29a31.11,31.11,0,0,1-3,2.35,25.38,25.38,0,0,1-3.58,2,23,23,0,0,1-4,1.42,78.26,78.26,0,0,1-15.51,2.26,12.8,12.8,0,0,1-1.63,0,9.56,9.56,0,0,1-4.58-1.51c-1.27-.82-2.56-1.62-3.85-2.41-1.5-.92-3-1.83-4.49-2.78-0.92-.59-1.83-1.18-2.73-1.8q-0.9-.62-1.72-1.3a33.38,33.38,0,0,1-7.87-10q-0.51-.94-1-1.91a121.23,121.23,0,0,1-5.1-11.64q-0.73-2-1.37-4-0.4-1.27-.7-2.55a29.88,29.88,0,0,1-.81-7.68q0-1.28.2-2.56a26.47,26.47,0,0,1,2.18-7.64c0.65-1.44,1.37-2.83,2.12-4.18q0.5-.9,1-1.79c0.78-1.3,1.6-2.58,2.48-3.81q1.62-2.28,3.44-4.42t3.81-4.17a35.24,35.24,0,0,1,5.36-4.36c2.2-1.5,4.48-2.86,6.69-4.35a4.43,4.43,0,0,1,1.69-.52q1.27-.22,2.52-0.35a30.65,30.65,0,0,1,16.9,3.13c0.34,0.17.68,0.32,1,.47l1,0.47,0.1-.15,0,0c1.61,1,3.24,2.08,4.86,3.12,0.39-1.34.81-2.67,1.3-4a33.33,33.33,0,0,1,5.84-10c1.77-2.08,3.55-4.15,5.39-6.16a13.49,13.49,0,0,1,2.39-2.07l0,0q-2.46-2.58-4.84-5.28a47.67,47.67,0,0,1-8.91-16,35.86,35.86,0,0,1-1.34-20.08,104.37,104.37,0,0,1,3-10.93c1.66-4.85,4.79-8.91,7.37-13.26,2.69-4.52,6.47-8,10.5-11.07a31.84,31.84,0,0,1,7.7-3.8,64.57,64.57,0,0,1,24.28-4.37,25.27,25.27,0,0,1,4.71-5c3-2.19,5.85-4.71,9.09-6.46a30.81,30.81,0,0,1,3.68-1.65,76.47,76.47,0,0,1,10.82-19.94,15.12,15.12,0,0,1,4.09-3.78c4.28-2.6,8.67-5,13.07-7.37s9.07-2.72,13.79-3.31c0.61-.08,1.21-0.11,1.81-0.13,2.3-3.52,4.83-6.88,7.36-10.23,3.3-4.37,7.6-7.51,12.22-10.25,2.77-1.64,5.55-3.28,8.29-5q10.74-6.63,21.45-13.33c2.67-1.68,5.23-3.55,7.91-5.22,8.92-5.58,17.83-11.18,26.81-16.64,4.25-2.58,8.57-5.08,13-7.26,10.06-4.9,20.21-9.61,30.36-14.33l15.16-4.18,12.63-.9,11.67,1.92,12.48,9,3.85,8.6,0.34,12.33Z" transform="translate(-6319 -2.33)"/>
  <path d="M6481.38,1057.47l0.55,5.47,3.07-.38c0.19-1.31-1.08-7.52-2.05-10.22l-9.57,3.44,0.6,3.14C6476.53,1059,6478.72,1057.58,6481.38,1057.47Z" transform="translate(-6319 -2.33)"/>
  <path d="M7193.26,436.26c-2.95-7.24-6.43-14.15-12.78-19-4-3-7.93-6-12.73-7.64-4.14-1.43-8.47-1.51-12.68-2.37a8.7,8.7,0,0,0-5.12.65c-2.39,1-4.77,2-7.09,3.14a28.89,28.89,0,0,0-9,6.81A41.47,41.47,0,0,1,7148,422.1a45.27,45.27,0,0,1,14.4,12.44c3.29,4.18,4.6,9.17,5.83,14.18s2.29,10.09,3.12,15.2a92,92,0,0,1,.73,10.24,4.32,4.32,0,0,1-1.12,3.16,10.15,10.15,0,0,0-2.79,6.62,19.4,19.4,0,0,1-4,11.12,17.88,17.88,0,0,0,5.11-1.18,43.49,43.49,0,0,0,12-7c1.92-2,4-3.83,5.75-5.92,2.62-3.09,4.91-6.5,5.7-10.59,1.47-7.57,3-15.16,2.4-23C7194.81,443.65,7194.7,439.81,7193.26,436.26Zm-28.62-5.74a2.48,2.48,0,0,1-2.9,0,20.76,20.76,0,0,1-6.38-5c-0.69-.86-1.46-1.65-2.36-2.66a11.61,11.61,0,0,1,1.9-.53q2.37-.21,4.76-0.28a8.26,8.26,0,0,1,3.8,1.26,3.84,3.84,0,0,1,2.07,2.34c0.09,0.28.22,0.54,0.34,0.81C7166.83,428.75,7166.15,429.26,7164.64,430.52Zm16.25,22a3.15,3.15,0,0,1-.78-0.22c-1.74-1.16-3.49-2.32-5.2-3.54a9.57,9.57,0,0,1-1.47-1.44c-1.74-1.93-2-4.28-1.73-6.76a1.54,1.54,0,0,1,.87-1.32c0.49-.24,1-0.52,1.46-0.74a3.59,3.59,0,0,1,3.87.54c3,2.16,3.46,5.25,3.44,8.56C7181.34,449.26,7181.06,450.86,7180.9,452.56Z" transform="translate(-6319 -2.33)"/>
  <path d="M7148.25,510.94c-0.67-.6-1.35-1.16-2-1.68l-0.45-.32c-0.57-.42-1.15-0.82-1.73-1.18l-0.4-.24c-0.64-.38-1.29-0.74-2-1.06l-0.24-.12a22.91,22.91,0,0,0-2.31-.94,22,22,0,0,0-7.3-1.19c-2,0-4,.39-6,0.5-5.14.29-10,1.93-14.77,3.59q-1.45.5-2.84,1.11c-1,.45-2,0.94-3,1.48l-0.22.12q-1.44.78-2.83,1.64a85.84,85.84,0,0,0-11.65,9q-0.52.38-1,.8a11.51,11.51,0,0,0-1.32,15.89q0.71,0.88,1.35,1.8a42.25,42.25,0,0,1,3.34,5.77c1.29,2.66,2.38,5.44,3.43,8.23a7.43,7.43,0,0,1,.34,2.36c0,0.27,0,.54,0,0.81a24.88,24.88,0,0,1,0,2.69,7.84,7.84,0,0,0,7.14,8.49q0.86,0.06,1.73.08a39.6,39.6,0,0,0,13.35-1.65h0c11.51-.92,21.56-5,29.71-13.23,3.52-3.55,6.56-7.48,7.27-12.65a130.81,130.81,0,0,0,1-16.32A30.85,30.85,0,0,0,7148.25,510.94Zm-45.76,39.88c-0.1,1-.11,2.06-0.18,3.33a10.93,10.93,0,0,1-1.57-.95q-1.68-1.47-3.26-3a8.8,8.8,0,0,1-1.73-3.61,3.28,3.28,0,0,1,.19-2.63,7.5,7.5,0,0,0,.34-0.83c0.83-2.13,1.6-2,3.38-1.79a2.38,2.38,0,0,1,1.88,2A20.18,20.18,0,0,1,7102.48,550.82Zm0.83-19.72a3.54,3.54,0,0,1-1.33-3.45c0.32-3.5,2.56-5.25,5.17-6.73,1.26-.72,2.65-1.21,4.06-1.84a3.16,3.16,0,0,1,.18.75c-0.13,2-.24,3.95-0.43,5.91a9.21,9.21,0,0,1-.46,1.87,7.3,7.3,0,0,1-4.53,4.5,1.36,1.36,0,0,1-1.43-.12C7104.15,531.68,7103.71,531.42,7103.32,531.1Zm2.77,25.55a12.35,12.35,0,0,1-.87-6.2,16.83,16.83,0,0,1,2-6.35,5.63,5.63,0,0,1,6.81-2.27,3.22,3.22,0,0,1,1.41,4.09,16.77,16.77,0,0,1-7,9.34C7107.68,555.7,7106.93,556.14,7106.08,556.65Zm15-.15a5.72,5.72,0,0,1-3.56,1.87,31.71,31.71,0,0,1-6.57,0,1.29,1.29,0,0,1-.31-0.15c0.28-.49.54-1,0.81-1.41a19.61,19.61,0,0,1,3.29-4.29,6.58,6.58,0,0,1,4.79-1.57,1.78,1.78,0,0,1,.8.35,4.1,4.1,0,0,1,.64.5A3.09,3.09,0,0,1,7121.13,556.5Zm0.6-23.39a3.09,3.09,0,0,1-2.76,2.28,3.61,3.61,0,0,1-3.49-1.55,8.1,8.1,0,0,1-1-1.95,19.94,19.94,0,0,1-1.28-8,55.48,55.48,0,0,1,1-6c0.71,0.51,1.18.79,1.59,1.15a23.17,23.17,0,0,1,5.1,5.81A9.56,9.56,0,0,1,7121.73,533.11Zm4.73-10a21.13,21.13,0,0,1-7.2-4.11c-0.83-.77-1.72-1.46-2.78-2.36a12,12,0,0,1,1.86-.82q2.39-.57,4.8-1a8.45,8.45,0,0,1,4,.71,3.91,3.91,0,0,1,2.44,2.07c0.13,0.27.3,0.52,0.46,0.77,1.3,2.16.68,2.78-.67,4.29A2.56,2.56,0,0,1,7126.46,523.12ZM7140.34,546q-1.38,1.62-2.86,3.15c-1,1-2.41,1.27-3.67,1.76a2.14,2.14,0,0,1-2-.26,4.94,4.94,0,0,0-.89-0.42c-2-.84-1.83-1.59-1.62-3.33a2.26,2.26,0,0,1,1.84-1.81,17.76,17.76,0,0,1,7-.83c0.95,0.11,1.91.14,3.08,0.22A10.78,10.78,0,0,1,7140.34,546Zm4-5.31c-1.51.26-3,.6-4.53,0.77a28.38,28.38,0,0,1-5.78,0,4.05,4.05,0,0,1-3.78-3.4c-0.12-.68-0.14-1.39-0.19-2.08a1.78,1.78,0,0,1,1.11-1.83,2.94,2.94,0,0,1,1.13-.29,9.56,9.56,0,0,1,6.07,1.37,40.56,40.56,0,0,1,6.05,5.17Zm0.52-3.54c-0.47-.22-0.92-0.42-1.36-0.64a17.93,17.93,0,0,1-4.22-2.73,6.53,6.53,0,0,1-1.9-4.43,1.77,1.77,0,0,1,.24-0.8,4,4,0,0,1,.39-0.66,2.73,2.73,0,0,1,4.27-.59,5.58,5.58,0,0,1,2.05,3.23,32.21,32.21,0,0,1,.65,6.3A1.29,1.29,0,0,1,7144.88,537.2Z" transform="translate(-6319 -2.33)"/>
  <path d="M6498.09,112.34a60.07,60.07,0,0,0,9.46,15.41c2,2.43,4.26,4.64,6.41,7a0.87,0.87,0,0,0,.56.28,9.22,9.22,0,0,0-.41-0.88c-2.4-4-4.72-8.09-7.24-12-2.77-4.33-5.93-8.41-8.81-12.66a13.8,13.8,0,0,1-1.92-3.57,2.31,2.31,0,0,0-.33-0.55l-0.14.05a9.66,9.66,0,0,0,.28,1.28C6496.65,108.53,6497.32,110.45,6498.09,112.34Z" transform="translate(-6319 -2.33)"/>
  <path d="M6472.57,154.06c0-.73,0-1.46.05-2.19a104.33,104.33,0,0,1,1.15-13.58q1-6,1.94-12c0.07-.41.07-0.83,0.12-1.34-1.53,1.55-4.05,9.84-4.45,14.25a57.5,57.5,0,0,0,.85,14.89Z" transform="translate(-6319 -2.33)"/>
  <path d="M6501,1643a378.93,378.93,0,0,0,3.89-39.26c0.66-17.4,1.81-34.73,5.43-51.8,2.06-9.73,4.21-19.44,6.36-29.15,3.1-14,7-27.83,11.5-41.48,5.53-16.92,9.47-34.24,12.86-51.68,2-10.43,4.65-20.67,7.67-30.84,2.22-7.47,5.26-14.66,6.26-22.52a207.81,207.81,0,0,0,1.23-37.08,132.63,132.63,0,0,0-5.62-32.28c-2.16-7-5.06-13.73-7.62-20.58l-0.8.17c0.13,1,.18,2.1.41,3.11,1.05,4.57,2.22,9.11,3.23,13.68,3.6,16.37,5.79,33,5.21,49.9a118.05,118.05,0,0,1-4.76,28.89c-3.51,12.05-5.42,24.42-7.68,36.72-1.69,9.21-3.59,18.39-5.81,27.49-2,8.23-4.47,16.35-6.88,24.47-2.64,8.87-5.41,17.7-8.2,26.52-2.39,7.54-5.27,15-7.24,22.6s-3.4,15.71-4.64,23.64c-1.82,11.67-3.38,23.38-4.85,35.1-0.94,7.52-1.62,15.07-2.25,22.63-0.64,7.77-1,15.56-1.65,23.32-0.5,5.77-1.41,11.51-2,17.27a271.58,271.58,0,0,0-.72,34.44c0,1,.14,2,0.26,2.94q1.52,0.06,3,.1C6498.71,1667.24,6499.27,1655.06,6501,1643Z" transform="translate(-6319 -2.33)"/>
  <path d="M6486.94,1015.28l3.3,6.68,2.91-1.51-5.55-9.67-8.22,4.49,1.06,3C6482.77,1017.48,6484.63,1016,6486.94,1015.28Z" transform="translate(-6319 -2.33)"/>
  <path d="M6479.41,1668.54q-0.74-18.23-1.24-36.46c-0.24-9.5-.36-19-2.55-28.3-2.1-8.91-4.26-17.81-6.39-26.71q-3.35-14-6.7-28c-3.82-15.93-4.09-32-2.31-48.22,1.75-16.07,3.73-32.15,3.65-48.36-0.06-10.82-.2-21.65-0.56-32.46a107,107,0,0,0-1.56-16c-1-5.58-3-11-4.35-16.5-2-8.24-3.95-16.54-3.77-25.1,0.15-7.58.61-15.16,0.9-22.74,0.16-4.17.23-8.34,0.34-12.51l-0.82-.13c-2.35,7.61-4.84,15.26-5.25,23.26-0.51,10-1.18,20,.53,30,1.75,10.22,3,20.54,4.51,30.79,1.23,8.16,2.88,16.28,2.9,24.58,0,5,0,10-.31,15-0.28,5.34-.68,10.68-1.3,16-1.46,12.62-3.06,25.22-3.51,38a152.91,152.91,0,0,0,3,35.62c3.42,17,7.73,33.73,11.47,50.62,2.44,11,5.2,22,5.81,33.28,0.67,12.35.75,24.74,1,37.11,0.12,5.62.35,11.23,0.77,16.82l5.8,0.34C6479.61,1675.16,6479.54,1671.85,6479.41,1668.54Z" transform="translate(-6319 -2.33)"/>
  <path d="M6494.72,998.88l6.86-1.67,1.46,5.8,3-.15c-0.77-3.77-2.47-7-3.13-10.72l-9.2,5.22c0.27,0.49.39,0.74,0.54,1A5.94,5.94,0,0,0,6494.72,998.88Z" transform="translate(-6319 -2.33)"/>
  <path d="M6465.11,1676.54c-0.6-7-1.24-14-.47-21q0.79-7.15,1.39-14.32a73.27,73.27,0,0,0-.73-17.63l-0.69-.08c-0.16.6-.34,1.2-0.48,1.81-0.62,2.83-1.31,5.66-1.83,8.51a99.73,99.73,0,0,0-1.55,10.18c-0.26,3.44,0,6.91-.06,10.37a65.64,65.64,0,0,0,3.74,23.26l0.77,0Z" transform="translate(-6319 -2.33)"/>
  <path d="M7230.55,407a16.38,16.38,0,0,0-4.46-7.78q-6.68-6.39-13.59-12.51a20.93,20.93,0,0,0-5.19-3.51A72,72,0,0,0,7192,378q-1.41-.28-2.84-0.47l-0.17,0c-1-.13-2-0.22-3-0.27-2.05-.1-4.17-0.44-6.15.45a43.86,43.86,0,0,0-17.65,14.63,86,86,0,0,0-5.92,9.43,78.25,78.25,0,0,1,11.92-.1,36.46,36.46,0,0,1,8.45,1.61,7.7,7.7,0,0,1,.12-0.88c0.06-.3.13-0.59,0.16-0.89a4,4,0,0,1,1.57-2.82,8.6,8.6,0,0,1,3.54-2.13q2.41-.48,4.84-0.81a11.83,11.83,0,0,1,2,.09c-0.69,1.22-1.28,2.19-1.79,3.21a21.22,21.22,0,0,1-5.09,6.23q0.9,0.4,1.8.82c1.25,0.6,2.48,1.25,3.68,1.94a10.46,10.46,0,0,1,.1-2.86,23.74,23.74,0,0,1,2.77-7.28c0.26-.48.6-0.92,1.09-1.65a54.47,54.47,0,0,1,2.94,5.23,19.92,19.92,0,0,1,1.54,7.91,8.2,8.2,0,0,1-.22,2.17,3.87,3.87,0,0,1-.78,1.48c0.37,0.28.75,0.53,1.11,0.82a31.36,31.36,0,0,1,4.65,4.9,39.36,39.36,0,0,1,4,6.07,18,18,0,0,1,4.76,2.65,13.34,13.34,0,0,1,4.21,5.46c-1.05.31-2,.6-2.88,0.85a17.62,17.62,0,0,1-2.2.44c0.62,1.56,1.24,3.12,1.82,4.69l0,0.06,0.08,0.21a33.82,33.82,0,0,1,1.77,14.36c-0.16,2.14-.15,2.67-0.41,4.79v0c1.07-.53,2.13-1.08,3.18-1.71,4.37-2.62,7.9-6.15,11.31-9.83l1.71-1.86a13,13,0,0,0,2.42-4,56.81,56.81,0,0,0,3.25-16.53,31,31,0,0,0-1.09-10.86C7232,411.34,7231.13,409.23,7230.55,407ZM7204,406.5a7.12,7.12,0,0,1-5.78-2.57,9,9,0,0,1-1.07-1.58c-0.85-1.77-1.63-3.58-2.43-5.38a3.15,3.15,0,0,1-.09-0.77c1.54,0.08,3,0,4.44.25,3,0.44,5.65,1.26,7.15,4.43a3.57,3.57,0,0,1-.06,3.71c-0.26.44-.58,0.84-0.86,1.27A1.38,1.38,0,0,1,7204,406.5ZM7215,425.88a12.85,12.85,0,0,1-.46,2c-1-.91-1.87-1.69-2.75-2.39a21.75,21.75,0,0,1-5.21-6.55,2.74,2.74,0,0,1-.1-3.06c1.2-1.63,1.69-2.37,4-1.44a8.41,8.41,0,0,0,.89.34,3.55,3.55,0,0,1,2.24,1.85c0.66,1.34,1.5,2.62,1.51,4.18S7215.12,424.21,7215,425.88Z" transform="translate(-6319 -2.33)"/>
  <g>
    <g>
      <path class="cls-1" d="M6916,784.39l-25.65-.1c-0.08-.57-0.18-1.07-0.22-1.56-0.22-2.77-.47-5.54-0.63-8.32-0.47-8.19-1-16.38-1.34-24.57-0.47-10.46-.84-20.92-1.2-31.38q-0.35-10.11-.58-20.22c-0.18-7.73-.36-15.46-0.44-23.2-0.1-9.81-.09-19.62-0.13-29.42,0-.37,0-0.73.08-1.25,10.09-.88,20.15-0.84,30.23-0.93a4.17,4.17,0,0,1,.24.83c0.06,2-.22,4,0,6.06a52.93,52.93,0,0,1-.16,5.64c-0.07,6.36-.14,12.72-0.16,19.09,0,4.81.11,9.62,0.06,14.43-0.06,5.33-.29,10.65-0.36,16s0,10.56,0,15.84c0,9-.09,17.91-0.05,26.87,0,5.52.25,11,.33,16.55,0.08,5.8.1,11.6,0.14,17.39C6916.12,782.79,6916.06,783.49,6916,784.39Z" transform="translate(-6319 -2.33)"/>
      <path class="cls-1" d="M6855.1,771.25c0-11.14-.19-22.29-0.33-33.43q-0.18-14.58-.47-29.16c-0.3-15.09-.61-30.18-1-45.26-0.31-11.82-.74-23.64-1.15-35.46-0.14-4-.35-8-0.55-12,0-.72-0.12-1.44-0.2-2.26L6828,612.4c0,1.29-.1,2.29-0.09,3.29,0,8.35,0,16.71.08,25.06,0.06,7.95.25,15.9,0.25,23.85,0,11.88-.07,23.76-0.12,35.64-3.31-.11-6.63-0.23-9.95-0.33-7-.2-14.09-0.31-21.13-0.42q-9.21-.14-18.43-0.19l-7.07,0c-0.21-23.57-.5-44.1-0.74-45.14-1.33-.25-21.11.51-22.94,0.9-0.06.55-.14,1-0.15,1.53-0.11,2.87-.25,5.74-0.3,8.61-0.16,7.72-.25,15.45-0.42,23.17-0.08,3.66-.2,7.32-0.29,11-6.37.06-12.74,0.19-19.11,0.31-2.53,0-5.07.17-7.6,0.28-0.46,0-.91.09-1.43,0.14l-1,23.35c0.81,0.07,1.45.15,2.08,0.17,5.28,0.17,10.56.36,15.84,0.49,3.46,0.08,6.93.12,10.39,0.18,0,1.1-.1,2.19-0.13,3.29-0.18,8.81-.26,17.62-0.38,26.43q-0.11,8.23-.22,16.46c0,0.34,0,.67,0,1,2.28,0.79,23.78.4,26.52-.44,0.21-1.58.19-22.24,0-45.75l3.28,0.14c4.81,0.2,9.62.35,14.42,0.6s9.69,0.65,14.53.89c4.38,0.22,8.76.27,13.14,0.46,3.63,0.15,7.26.34,10.89,0.52-0.09,7.11-.29,14.21-0.35,21.32-0.06,6.92,0,13.86,0,20.78q-0.06,13.75-.2,27.49c0,2.71-.32,5.43-0.16,8.11,0.17,2.95-.09,5.82,0,8.73a9,9,0,0,0,.21,1.21c9.19,0.32,18.36.82,27.56,0,0-.74.08-1.27,0.08-1.8C6855.12,799.52,6855.16,785.39,6855.1,771.25Z" transform="translate(-6319 -2.33)"/>
      <g>
        <path class="cls-1" d="M6839.82,930.05c7.66,14.49,15.07,28.82,22,43.63-0.62.05-1,.12-1.46,0.12l-22.7-.28a11.84,11.84,0,0,0-1.59,0,2.07,2.07,0,0,1-2.42-1.49c-1.11-2.55-2.4-5-3.59-7.55-1.61-3.39-3.19-6.79-4.8-10.18-1.38-2.92-2.79-5.82-4.16-8.74-0.88-1.87-1.82-3.73-2.55-5.67a26.32,26.32,0,0,0-2.25-4.38c-0.57-.93-1.6-2.8-1.53-2.21-0.23.06-16.72,0.65-24.73,0.86s-15.84.4-23.76,0.56c-7,.13-14,0.19-21,0.29q-9.16.13-18.32,0.27-22.63.38-45.27,0.79c-2.83.05-5.66,0.18-8.49,0.28a11.42,11.42,0,0,0-1.16.17c-0.06,1.13-.12,2.22-0.17,3.31-0.07,1.72-.18,3.44-0.18,5.16,0,1.45.14,2.91,0.24,4.36,0.34,5.07.69,10.15,1,15.22q0.29,4.36.53,8.72c0,0.56,0,1.13,0,1.84-6.9.74-23,1.73-24,.76-0.05-.35,0-1.86-0.09-2.42q-0.21-2.51-.37-5c-0.06-1-.08-2-0.12-3-0.36-8.12-.71-16.25-1.1-24.37-0.36-7.55-.79-15.1-1.17-22.66-0.44-8.79-.84-17.59-1.28-26.38-0.24-4.73-.53-9.45-0.78-14.18-0.36-6.94-.69-13.87-1-20.81-0.15-2.92-.31-5.83-0.46-8.75,0-.48,0-1,0-1.6,0.64-.05,1.15-0.13,1.66-0.13l9.16,0c4.16,0,8.32,0,12.47,0,9.91,0.07,19.82.18,29.73,0.23q13.73,0.07,27.46,0,9.69,0,19.38-.11c7.17-.07,14.33-0.19,21.5-0.29,5-.07,10.08-0.18,15.12-0.19,5.75,0,11.49.09,17.24,0.12,4.55,0,9.11-.07,13.66,0,3,0.06,6,.24,9,0.59,3.95,0.46,7.88,1.1,11.81,1.7a56.46,56.46,0,0,1,15.12,4.72q4,1.86,8,3.9a33.19,33.19,0,0,1,6.68,5.21,51.24,51.24,0,0,1,7.76,9,47.18,47.18,0,0,1,5.84,12.44c0.77,2.35,1.37,4.75,2,7.14a10.8,10.8,0,0,1,.28,2.23,27.91,27.91,0,0,1-.49,7.79,19,19,0,0,1-1.64,4,26.46,26.46,0,0,1-5.4,7,80.6,80.6,0,0,1-6.05,5.56c-4.45,3.5-9,6.86-14.39,8.87-1,.36-1.95.59-2.9,1C6844,928.33,6842,929.16,6839.82,930.05Zm-171.1-57.83c-0.29,13.08.16,26,.95,39,0.29,0,.54,0,0.8,0,3.19,0,6.37-.06,9.56,0,5.75,0.06,11.5.18,17.25,0.25,4.91,0.06,9.82.07,14.73,0.1,7.12,0.05,14.24.17,21.36,0.16,6.77,0,13.53-.09,20.3-0.21,8.93-.15,17.87-0.32,26.8-0.57,6.32-.17,12.65-0.36,19-0.75a112.89,112.89,0,0,1,13.91,0,35.42,35.42,0,0,0,9.25-.6,113,113,0,0,0,16.18-4.64A16.94,16.94,0,0,0,6846,900l2.74-3.23a16.45,16.45,0,0,0,.94-4.23c0.31-3.86-.06-7.62-2.14-11a16.64,16.64,0,0,0-5.48-5.85c-1.52-.9-3.1-1.7-4.65-2.55a6.59,6.59,0,0,0-2.85-.9c-3.17-.18-6.33-0.53-9.49-0.77a38.73,38.73,0,0,1-4.75-.27,39.68,39.68,0,0,0-6.71-.4c-4.85-.16-9.7,0-14.55.05-2.82,0-5.65-.06-8.47-0.05-6.1,0-12.18.62-18.29,0.33-2.78-.13-5.57-0.11-8.36-0.16l-15.52-.27c-4.51-.08-9-0.15-13.53-0.25-5.48-.13-11-0.4-16.45-0.42-7.26,0-14.51.1-21.77,0.24-8.81.17-17.58,1-26.36,1.67C6669.86,872,6669.39,872.12,6668.72,872.23Z" transform="translate(-6319 -2.33)"/>
        <g>
          <path class="cls-1" d="M6901.38,882.43c-0.28-4.46,1.35-8.32,3.71-11.91,5.35-8.14,11.88-15,20.89-19.21a49.75,49.75,0,0,0,4.66-2.46,16.56,16.56,0,0,1,6.54-2.16c8.26-1.07,16.31-.3,23.93,3.16,2,0.9,3.63,2.57,5.37,4,5.37,4.27,9.45,9.69,13.51,15.14a66.53,66.53,0,0,1,7.29,12.88,26.06,26.06,0,0,1,2.31,9c0.23,3.59.39,7.18,0.48,10.77a9.12,9.12,0,0,1-.52,3.28c-1.38,3.75-2.94,7.42-4.32,11.17-1.46,4-4.47,6.74-7.31,9.65-5.76,5.88-13,8.83-20.85,10.56-4.75,1.05-9.57,1.94-14.49,1.45a16.07,16.07,0,0,1-3.5-.73,104.87,104.87,0,0,1-23.58-11.62c-5-3.24-8.11-7.75-10.49-13-2.59-5.72-3.25-11.82-3.67-18-0.15-2.15,0-4.31,0-6.47C6901.35,887.94,6901.49,884.26,6901.38,882.43Z" transform="translate(-6319 -2.33)"/>
          <path class="cls-1" d="M6990.87,953.53l0,18.07c-0.36.06-.67,0.12-1,0.15-1.73.14-3.46,0.31-5.19,0.41-5.11.3-10.23,0.62-15.34,0.85-6.53.29-13.06,0.51-19.6,0.73q-6.31.21-12.63,0.33c-4.83.1-9.66,0.19-14.49,0.22-6.12,0-12.25,0-18.38,0-0.23,0-.46,0-0.78-0.06-0.59-7.11-.6-14.2-0.7-21.3a2.36,2.36,0,0,1,.52-0.16c1.26,0,2.51.17,3.78,0a29.36,29.36,0,0,1,3.52.13c4,0.08,7.95.15,11.92,0.19,3,0,6,0,9,0,3.33,0.06,6.65.25,10,.32s6.6,0.06,9.89.09c5.59,0,11.19.14,16.78,0.14,3.44,0,6.89-.13,10.33-0.17,3.62,0,7.24,0,10.86,0C6989.88,953.45,6990.31,953.5,6990.87,953.53Z" transform="translate(-6319 -2.33)"/>
        </g>
      </g>
    </g>
    <g>
      <path class="cls-1" d="M6902.36,1036.2H6916v4.36h-9.09v9.82h7.92v4.36h-7.92v13.81h-4.59V1036.2Z" transform="translate(-6319 -2.33)"/>
      <path class="cls-1" d="M6921.7,1036.2h7.38q4.09,0,6.09,2.39t2,7.11a12.16,12.16,0,0,1-.88,4.82,6.77,6.77,0,0,1-3.08,3.27l4.95,14.77h-4.86l-4.27-13.81h-2.74v13.81h-4.59V1036.2Zm4.59,14.45h2.61q2.39,0,3-1.32a8.6,8.6,0,0,0,.65-3.73,8.08,8.08,0,0,0-.7-3.75q-0.7-1.3-3.22-1.3h-2.38v10.09Z" transform="translate(-6319 -2.33)"/>
      <path class="cls-1" d="M6943.56,1036.2h13.68v4.36h-9.09v9.5h7.92v4.36h-7.92v9.49h9.09v4.64h-13.68V1036.2Z" transform="translate(-6319 -2.33)"/>
      <path class="cls-1" d="M6962.91,1036.2h13.68v4.36h-9.09v9.5h7.92v4.36h-7.92v9.49h9.09v4.64h-13.68V1036.2Z" transform="translate(-6319 -2.33)"/>
      <path class="cls-1" d="M6997.1,1045.52h-4.59v-1a5,5,0,0,0-.74-2.75,2.73,2.73,0,0,0-2.5-1.16,2.47,2.47,0,0,0-2.5,1.3,6.73,6.73,0,0,0-.61,2.88,7.25,7.25,0,0,0,.36,2.63,3.4,3.4,0,0,0,1.89,1.55l0.18,0.07,0.18,0.07,3.51,1.41a6.31,6.31,0,0,1,3.94,3.22,14.86,14.86,0,0,1,.88,5.63,12.25,12.25,0,0,1-1.73,6.77q-1.73,2.68-6.18,2.68a7.7,7.7,0,0,1-5.58-2.18,7.29,7.29,0,0,1-2.25-5.45v-1.73h4.59v1.45a3.8,3.8,0,0,0,.74,2.29,2.88,2.88,0,0,0,2.5,1q2.34,0,2.83-1.3a10.13,10.13,0,0,0,.49-3.52,9.36,9.36,0,0,0-.36-3.18,3,3,0,0,0-1.62-1.45l-0.32-.11-0.36-.16-3.29-1.36a7.3,7.3,0,0,1-4-3.25,11.27,11.27,0,0,1-1-5.07,10.09,10.09,0,0,1,2-6.27,6.94,6.94,0,0,1,5.91-2.59,7.14,7.14,0,0,1,5.4,2.16,7.56,7.56,0,0,1,2.25,4.79v2.63Z" transform="translate(-6319 -2.33)"/>
      <path class="cls-1" d="M7006.23,1040.56h-5.31v-4.36h15.21v4.36h-5.31v28h-4.59v-28Z" transform="translate(-6319 -2.33)"/>
      <path class="cls-1" d="M7026,1054.88l-6.3-18.67h4.86l3.69,12.86h0.09l3.69-12.86h4.86l-6.3,18.67v13.68H7026v-13.68Z" transform="translate(-6319 -2.33)"/>
      <path class="cls-1" d="M7041.91,1036.2h4.59v27.72h9.09v4.64h-13.68V1036.2Z" transform="translate(-6319 -2.33)"/>
      <path class="cls-1" d="M7061.25,1036.2h13.68v4.36h-9.09v9.5h7.92v4.36h-7.92v9.49h9.09v4.64h-13.68V1036.2Z" transform="translate(-6319 -2.33)"/>
      <path class="cls-1" d="M6902.36,1078.93h7.38q4.09,0,6.09,2.39t2,7.11a12.16,12.16,0,0,1-.88,4.82,6.77,6.77,0,0,1-3.08,3.27l4.95,14.77H6914l-4.27-13.81h-2.74v13.81h-4.59v-32.35Zm4.59,14.45h2.61q2.39,0,3-1.32a8.6,8.6,0,0,0,.65-3.73,8.08,8.08,0,0,0-.7-3.75q-0.7-1.3-3.22-1.3h-2.38v10.09Z" transform="translate(-6319 -2.33)"/>
      <path class="cls-1" d="M6929.3,1078.93h3.82l7.15,32.35h-4.59l-1.35-7h-6.25l-1.35,7h-4.59Zm1.93,9.31h-0.09L6928.9,1100h4.59Z" transform="translate(-6319 -2.33)"/>
      <path class="cls-1" d="M6945.23,1078.93h4.41l5.89,17.13h0.09l5.85-17.13h4.46v32.35h-4.59v-19.68h-0.09l-4.54,13.9h-2.29l-4.5-13.9h-0.09v19.68h-4.59v-32.35Z" transform="translate(-6319 -2.33)"/>
      <path class="cls-1" d="M6972.94,1078.93h13.68v4.36h-9.09v9.5h7.92v4.36h-7.92v9.49h9.09v4.64h-13.68v-32.35Z" transform="translate(-6319 -2.33)"/>
      <path class="cls-1" d="M6992.1,1078.93h4.41l6.93,19.49h0.09v-19.49h4.59v32.35h-4.32l-7-19.45h-0.09v19.45h-4.59v-32.35Z" transform="translate(-6319 -2.33)"/>
      <path class="cls-1" d="M6902.36,1121.66h6.7q4.46,0,6.3,2.49a9.23,9.23,0,0,1,1.85,5.65V1131a7.07,7.07,0,0,1-.81,3.82,7.49,7.49,0,0,1-2.34,2.19,5,5,0,0,1,2.38,2.3,9.17,9.17,0,0,1,.77,4.08v1.82a9.43,9.43,0,0,1-2.07,6.53q-2.07,2.3-6.52,2.3h-6.25v-32.35Zm4.59,13.27H6909q2.3,0,3.08-1.17a6.17,6.17,0,0,0,.79-3.42,5,5,0,0,0-.9-3.22,3.87,3.87,0,0,0-3.15-1.1h-1.89v8.91Zm0,14.45h2q2.79,0,3.37-1.55a11.19,11.19,0,0,0,.58-3.91,7.68,7.68,0,0,0-.7-3.66q-0.7-1.25-3.22-1.25h-2v10.36Z" transform="translate(-6319 -2.33)"/>
      <path class="cls-1" d="M6928.77,1121.66h3.82l7.15,32.35h-4.59l-1.35-7h-6.25l-1.35,7h-4.59Zm1.93,9.32h-0.09l-2.25,11.72h4.59Z" transform="translate(-6319 -2.33)"/>
      <path class="cls-1" d="M6944.69,1121.66h7.38q4.1,0,6.1,2.39t2,7.11a12.14,12.14,0,0,1-.88,4.82,6.8,6.8,0,0,1-3.08,3.27l4.95,14.77h-4.86L6952,1140.2h-2.74V1154h-4.59v-32.35Zm4.59,14.45h2.61q2.38,0,3-1.32a8.57,8.57,0,0,0,.65-3.73,8.06,8.06,0,0,0-.7-3.75q-0.7-1.29-3.21-1.3h-2.39v10.09Z" transform="translate(-6319 -2.33)"/>
      <path class="cls-1" d="M6977.62,1121.66h6.7q4.45,0,6.3,2.49a9.24,9.24,0,0,1,1.84,5.65V1131a7.09,7.09,0,0,1-.81,3.82,7.5,7.5,0,0,1-2.34,2.19,5,5,0,0,1,2.39,2.3,9.17,9.17,0,0,1,.76,4.08v1.82a9.43,9.43,0,0,1-2.07,6.53q-2.07,2.3-6.52,2.3h-6.25v-32.35Zm4.59,13.27h2.07q2.29,0,3.08-1.17a6.14,6.14,0,0,0,.79-3.42,5,5,0,0,0-.9-3.22,3.87,3.87,0,0,0-3.15-1.1h-1.89v8.91Zm0,14.45h2q2.79,0,3.37-1.55a11.13,11.13,0,0,0,.58-3.91,7.69,7.69,0,0,0-.7-3.66q-0.7-1.25-3.22-1.25h-2v10.36Z" transform="translate(-6319 -2.33)"/>
      <path class="cls-1" d="M7003.75,1140.33l-6.3-18.68h4.86l3.69,12.86h0.09l3.69-12.86h4.86l-6.3,18.68V1154h-4.59v-13.68Z" transform="translate(-6319 -2.33)"/>
      <path class="cls-1" d="M6909.26,1164.38h3.82l7.15,32.35h-4.59l-1.35-7H6908l-1.35,7h-4.59Zm1.93,9.32h-0.09l-2.25,11.72h4.59Z" transform="translate(-6319 -2.33)"/>
      <path class="cls-1" d="M6924.28,1164.38h4.59v13.86h5.67v-13.86h4.59v32.35h-4.59v-14.4h-5.67v14.4h-4.59v-32.35Z" transform="translate(-6319 -2.33)"/>
      <path class="cls-1" d="M6950.31,1164.38h3.82l7.15,32.35h-4.59l-1.35-7h-6.25l-1.35,7h-4.59Zm1.94,9.32h-0.09l-2.25,11.72h4.59Z" transform="translate(-6319 -2.33)"/>
      <path class="cls-1" d="M6966.24,1164.38h7.38q4.09,0,6.09,2.39t2,7.11a12.14,12.14,0,0,1-.88,4.82,6.78,6.78,0,0,1-3.08,3.27l4.95,14.77h-4.86l-4.27-13.81h-2.74v13.81h-4.59v-32.35Zm4.59,14.45h2.61q2.39,0,3-1.32a8.61,8.61,0,0,0,.65-3.73,8.09,8.09,0,0,0-.7-3.75q-0.7-1.29-3.22-1.3h-2.38v10.09Z" transform="translate(-6319 -2.33)"/>
      <path class="cls-1" d="M6986,1172a7.26,7.26,0,0,1,2.2-5.7,8,8,0,0,1,4.9-2.16,0.9,0.9,0,0,1,.29,0H6994a0.92,0.92,0,0,1,.29,0,8,8,0,0,1,4.9,2.16,7.27,7.27,0,0,1,2.21,5.7v17.08a7.19,7.19,0,0,1-2.21,5.68,8.07,8.07,0,0,1-4.9,2.14,0.92,0.92,0,0,1-.29,0h-0.58a0.9,0.9,0,0,1-.29,0,8.07,8.07,0,0,1-4.9-2.14,7.18,7.18,0,0,1-2.2-5.68V1172Zm4.59,17.08a3.1,3.1,0,0,0,.92,2.48,3.39,3.39,0,0,0,4.36,0,3.1,3.1,0,0,0,.92-2.48V1172a3.1,3.1,0,0,0-.92-2.48,3.39,3.39,0,0,0-4.36,0,3.09,3.09,0,0,0-.92,2.48v17.08Z" transform="translate(-6319 -2.33)"/>
      <path class="cls-1" d="M7006.15,1164.38h4.41l6.93,19.49h0.09v-19.49h4.59v32.35h-4.32l-7-19.45h-0.09v19.45h-4.59v-32.35Z" transform="translate(-6319 -2.33)"/>
      <path class="cls-1" d="M7029.13,1164.38h4.59v32.35h-4.59v-32.35Z" transform="translate(-6319 -2.33)"/>
    </g>
  </g>
</svg>
