<svg xmlns="http://www.w3.org/2000/svg" width="514" height="184" viewBox="0 0 514 184"><defs><style>.cls-1{fill:#fff;opacity:0.9;}</style></defs><title>Asset 31</title><g id="Layer_2" data-name="Layer 2"><g id="Design"><rect class="cls-1" x="11.24" y="11.28" width="163.41" height="161.43"/><path class="cls-1" d="M190.44,11.28V172.71h312.8V11.28Z"/><path d="M202.76,22.81a.52.52,0,0,1,.55-.56h14.15a.52.52,0,0,1,.55.56v3a.52.52,0,0,1-.55.55h-9.91a.29.29,0,0,0-.33.33v12a.29.29,0,0,0,.33.33h8.59a.52.52,0,0,1,.55.55v3a.52.52,0,0,1-.55.56h-8.59a.29.29,0,0,0-.33.33V59.31a.52.52,0,0,1-.55.55h-3.36a.52.52,0,0,1-.55-.55Z"/><path d="M238.34,59.86a.56.56,0,0,1-.61-.39l-4.68-15.71a13.22,13.22,0,0,1-1.54.06h-2.26a.29.29,0,0,0-.33.33V59.31a.52.52,0,0,1-.55.55H225a.52.52,0,0,1-.55-.55V22.81a.52.52,0,0,1,.55-.56h6.55c6.61,0,10.14,2.88,10.14,10.84,0,5-1.65,8.08-4.57,9.57l5.23,16.65c.11.27,0,.55-.28.55Zm-1.1-26.77c0-5.09-1.66-6.69-5.62-6.69h-2.37a.29.29,0,0,0-.33.33V39.45a.29.29,0,0,0,.33.33h2.37C235.47,39.78,237.24,38.24,237.24,33.09Z"/><path d="M249.3,22.81a.52.52,0,0,1,.55-.56H264a.52.52,0,0,1,.55.56v3a.51.51,0,0,1-.55.55h-9.91a.29.29,0,0,0-.33.33V38.46a.29.29,0,0,0,.33.33h8.59a.52.52,0,0,1,.55.55v3a.53.53,0,0,1-.55.56h-8.59a.29.29,0,0,0-.33.33V55.38a.29.29,0,0,0,.33.33H264a.51.51,0,0,1,.55.55v3.05a.51.51,0,0,1-.55.55H249.85a.52.52,0,0,1-.55-.55Z"/><path d="M271.17,22.81a.52.52,0,0,1,.55-.56h14.15a.52.52,0,0,1,.55.56v3a.52.52,0,0,1-.55.55H276a.29.29,0,0,0-.33.33V38.46a.29.29,0,0,0,.33.33h8.59a.52.52,0,0,1,.55.55v3a.53.53,0,0,1-.55.56H276a.29.29,0,0,0-.33.33V55.38a.29.29,0,0,0,.33.33h9.91a.52.52,0,0,1,.55.55v3.05a.52.52,0,0,1-.55.55H271.72a.52.52,0,0,1-.55-.55Z"/><path d="M300.52,60.36c-5.67,0-8.53-3.21-8.81-9.68,0-.33.11-.56.44-.61l3.25-.61a.48.48,0,0,1,.61.5c.22,4.64,1.7,6.3,4.57,6.3s4.18-1.38,4.18-6.47c0-4.31-.82-5.91-3.8-7.08l-2.25-.88c-5.13-2-6.56-4.54-6.56-10.34,0-6.42,2.75-9.73,8.37-9.73s8.21,3.09,8.48,9a.55.55,0,0,1-.49.61l-3.09.5a.44.44,0,0,1-.6-.44c-.11-3.71-1.32-5.53-4.19-5.53s-4.07,1.66-4.07,5.47.88,5.2,3.91,6.36l2.26.89c4.79,1.93,6.49,4.42,6.49,10.67C309.22,56.82,306.86,60.36,300.52,60.36Z"/><path d="M320.79,59.86a.52.52,0,0,1-.55-.55V26.73a.29.29,0,0,0-.33-.33h-6.17a.52.52,0,0,1-.55-.55v-3a.52.52,0,0,1,.55-.56H331.2a.52.52,0,0,1,.55.56v3a.52.52,0,0,1-.55.55H325a.29.29,0,0,0-.33.33V59.31a.52.52,0,0,1-.55.55Z"/><path d="M342.93,59.86a.52.52,0,0,1-.55-.55v-15l-7.21-21.51c-.11-.34,0-.56.39-.56H339c.39,0,.56.17.67.56l4.9,15.76h.16l4.9-15.76c.11-.39.28-.56.61-.56h3.41c.39,0,.5.22.39.56l-7.21,21.51v15a.53.53,0,0,1-.56.55Z"/><path d="M359.9,22.81a.52.52,0,0,1,.55-.56h3.36a.52.52,0,0,1,.55.56V55.38a.29.29,0,0,0,.33.33h9.8a.52.52,0,0,1,.55.55v3.05a.52.52,0,0,1-.55.55h-14a.52.52,0,0,1-.55-.55Z"/><path d="M381.27,22.81a.52.52,0,0,1,.55-.56H396a.52.52,0,0,1,.56.56v3a.52.52,0,0,1-.56.55h-9.91a.29.29,0,0,0-.33.33V38.46a.29.29,0,0,0,.33.33h8.59a.52.52,0,0,1,.55.55v3a.53.53,0,0,1-.55.56h-8.59a.29.29,0,0,0-.33.33V55.38a.29.29,0,0,0,.33.33H396a.52.52,0,0,1,.56.55v3.05a.52.52,0,0,1-.56.55H381.82a.52.52,0,0,1-.55-.55Z"/><path d="M216.47,110.8a.54.54,0,0,1-.6-.44l-4.25-14.27h-2.09a.29.29,0,0,0-.33.33v13.83a.52.52,0,0,1-.55.55h-6.11a.52.52,0,0,1-.55-.55V73.75a.52.52,0,0,1,.55-.55h8.92c6.66,0,11,3.15,11,11.5,0,4.75-1.6,7.85-4.19,9.62l5.12,15.93c.12.27,0,.55-.27.55Zm-1.32-26.1c0-3.93-1.21-5.14-4-5.14h-1.6a.29.29,0,0,0-.33.33v9.62a.29.29,0,0,0,.33.33h1.6C213.94,89.84,215.15,88.68,215.15,84.7Z"/><path d="M234.76,73.75c.11-.33.27-.55.6-.55h6.5a.61.61,0,0,1,.61.55l8,36.5c.05.33-.11.55-.44.55H244a.57.57,0,0,1-.61-.55l-1.21-6.8H235l-1.26,6.8a.57.57,0,0,1-.61.55h-6.11a.42.42,0,0,1-.44-.55Zm6.33,23.94-2.37-13h-.16l-2.48,13Z"/><path d="M255.2,73.75a.51.51,0,0,1,.55-.55h5.94c.5,0,.77.16.88.55l5.73,19.74h.22L274,73.75c.11-.39.38-.55.88-.55h5.89a.52.52,0,0,1,.55.55v36.5a.52.52,0,0,1-.55.55h-5.34a.52.52,0,0,1-.55-.55V88.52h-.33l-4.07,15a.73.73,0,0,1-.72.55h-3a.71.71,0,0,1-.72-.55l-4.07-15h-.33v21.73a.52.52,0,0,1-.55.55h-5.34a.51.51,0,0,1-.55-.55Z"/><path d="M288.08,73.75a.52.52,0,0,1,.55-.55H305a.52.52,0,0,1,.55.55v5.42a.52.52,0,0,1-.55.55h-9.36a.29.29,0,0,0-.33.33v8.19a.29.29,0,0,0,.33.33h8.1a.52.52,0,0,1,.55.55v5.42a.53.53,0,0,1-.55.56h-8.1a.29.29,0,0,0-.33.33v8.51a.3.3,0,0,0,.33.34H305a.52.52,0,0,1,.55.55v5.42a.52.52,0,0,1-.55.55H288.63a.52.52,0,0,1-.55-.55Z"/><path d="M311.21,73.75a.52.52,0,0,1,.55-.55h6.89a.68.68,0,0,1,.77.55l6.22,23.61h.28V73.75a.51.51,0,0,1,.55-.55h5.23a.52.52,0,0,1,.55.55v36.5a.52.52,0,0,1-.55.55h-6.61a.69.69,0,0,1-.77-.55l-6.5-23.62h-.28v23.62a.52.52,0,0,1-.55.55h-5.23a.52.52,0,0,1-.55-.55Z"/><path d="M358.14,90.84l-.44-.78c-2.26-3.54-3.58-6.19-3.58-9.12,0-5,3.58-8.24,8.64-8.24s8.65,3.21,8.65,8.24c0,2.82-1.32,5.64-5.62,10.51l3.36,5.36,2.31-3.71a.51.51,0,0,1,.78-.16l3.69,2.43a.54.54,0,0,1,.16.78l-3.69,5.91,1.05,1.66c.6,1,1.1,1.27,1.87,1.27h.22a.53.53,0,0,1,.55.56v4.7a.52.52,0,0,1-.55.55h-2.09a4.21,4.21,0,0,1-4.3-2.38l-.49-.77a9.67,9.67,0,0,1-8,3.65c-5.29,0-8.76-3.37-8.76-8.68C351.86,98.86,353.9,95.54,358.14,90.84Zm3.08,14.54c1.38,0,2.53-.55,4.24-2.82l-4-6.47c-2.26,2.65-3.14,4.32-3.14,6.14A2.84,2.84,0,0,0,361.22,105.38Zm4-24.72c0-1.77-.93-2.82-2.48-2.82s-2.42,1-2.42,2.82c0,.94.39,2.38,2.2,5.48C364.75,83.59,365.24,82.32,365.24,80.66Z"/><path d="M208.1,124.69c.11-.33.28-.55.61-.55h6.49a.6.6,0,0,1,.61.55l8,36.5a.42.42,0,0,1-.44.55H217.3a.57.57,0,0,1-.61-.55l-1.21-6.8h-7.1l-1.27,6.8a.57.57,0,0,1-.61.55h-6.11a.42.42,0,0,1-.44-.55Zm6.33,23.95-2.36-13h-.17l-2.48,13Z"/><path d="M237.35,162.24c-6.78,0-10-3.59-10.14-10.06,0-.33.11-.56.45-.61l5.89-.94c.38-.06.6.11.6.44.11,3.48,1.1,4.87,3.25,4.87s3-1.05,3-4.48-.66-4.48-3.47-5.59l-2.26-.88c-5.29-2.05-7.11-4.87-7.11-10.9,0-6.8,3.25-10.45,9.92-10.45s9.64,3.43,9.91,9.35a.56.56,0,0,1-.5.61l-5.61.88a.47.47,0,0,1-.61-.44c-.05-2.71-1-4.09-3-4.09s-2.87,1.21-2.87,3.76c0,2.82.61,3.7,3.53,4.86l2.26.89c5.12,2,7.1,4.75,7.1,11.11C247.7,158.26,244.78,162.24,237.35,162.24Z"/><path d="M253.27,124.69a.52.52,0,0,1,.55-.55h6.11a.52.52,0,0,1,.55.55v36.5a.52.52,0,0,1-.55.55h-6.11a.52.52,0,0,1-.55-.55Z"/><path d="M273.31,124.69c.11-.33.28-.55.61-.55h6.5a.59.59,0,0,1,.6.55l8,36.5a.42.42,0,0,1-.44.55h-6.11a.56.56,0,0,1-.6-.55l-1.22-6.8h-7.1l-1.27,6.8a.56.56,0,0,1-.6.55H265.6c-.33,0-.49-.22-.44-.55Zm6.34,23.95-2.37-13h-.17l-2.47,13Z"/><path d="M293.75,124.69a.52.52,0,0,1,.55-.55h6.88a.7.7,0,0,1,.78.55l6.22,23.62h.27V124.69a.52.52,0,0,1,.55-.55h5.24a.52.52,0,0,1,.55.55v36.5a.52.52,0,0,1-.55.55h-6.61a.68.68,0,0,1-.77-.55l-6.5-23.61h-.28v23.61a.52.52,0,0,1-.55.55H294.3a.52.52,0,0,1-.55-.55Z"/><path d="M333.9,124.69a.52.52,0,0,1,.55-.55h6.12a.52.52,0,0,1,.55.55v14.44L348,124.58a.7.7,0,0,1,.71-.44h6.39a.34.34,0,0,1,.28.55l-7.49,14.6,8.42,21.9a.38.38,0,0,1-.33.55h-6.55c-.33,0-.5-.11-.55-.38l-5.51-15-2.2,4.65v10.17a.52.52,0,0,1-.55.55h-6.12a.52.52,0,0,1-.55-.55Z"/><path d="M361.22,124.69a.52.52,0,0,1,.55-.55h6.12a.52.52,0,0,1,.55.55v36.5a.52.52,0,0,1-.55.55h-6.12a.52.52,0,0,1-.55-.55Z"/><path d="M380.72,161.74a.52.52,0,0,1-.55-.55V131a.29.29,0,0,0-.33-.33h-5.9a.53.53,0,0,1-.55-.56v-5.42a.52.52,0,0,1,.55-.55H393.6a.52.52,0,0,1,.56.55v5.42a.53.53,0,0,1-.56.56h-5.89a.29.29,0,0,0-.33.33v30.19a.52.52,0,0,1-.55.55Z"/><path d="M397.58,142.94c0-9.73.21-11.45.71-13.05,1.32-4,4.35-6.25,9.31-6.25,6,0,9.53,3.21,9.86,9.51,0,.34-.11.61-.5.67l-5.78,1a.48.48,0,0,1-.61-.5c-.11-3-1-4.14-2.86-4.14a2.32,2.32,0,0,0-2.48,1.71c-.22.83-.33,1.49-.33,11.06s.11,10.23.33,11.06a2.32,2.32,0,0,0,2.48,1.72c1.82,0,2.75-1.17,2.86-4.15a.48.48,0,0,1,.61-.5l5.78,1c.39.05.5.33.5.66-.33,6.31-3.86,9.51-9.86,9.51-5,0-8-2.21-9.31-6.25C397.79,154.39,397.58,152.67,397.58,142.94Z"/><path d="M422.53,124.69a.52.52,0,0,1,.55-.55h6.11a.52.52,0,0,1,.55.55V139a.29.29,0,0,0,.33.33h5.23a.29.29,0,0,0,.33-.33V124.69a.52.52,0,0,1,.55-.55h6.12a.52.52,0,0,1,.55.55v36.5a.52.52,0,0,1-.55.55h-6.12a.52.52,0,0,1-.55-.55v-15a.29.29,0,0,0-.33-.33h-5.23a.29.29,0,0,0-.33.33v15a.52.52,0,0,1-.55.55h-6.11a.52.52,0,0,1-.55-.55Z"/><path d="M449.57,124.69a.52.52,0,0,1,.55-.55h16.36a.52.52,0,0,1,.55.55v5.42a.53.53,0,0,1-.55.56h-9.37a.29.29,0,0,0-.33.33v8.18a.29.29,0,0,0,.33.33h8.1a.52.52,0,0,1,.55.56v5.42a.52.52,0,0,1-.55.55h-8.1a.29.29,0,0,0-.33.33v8.52a.29.29,0,0,0,.33.33h9.37a.52.52,0,0,1,.55.55v5.42a.52.52,0,0,1-.55.55H450.12a.52.52,0,0,1-.55-.55Z"/><path d="M472.7,124.69a.52.52,0,0,1,.55-.55h6.89a.68.68,0,0,1,.77.55l6.22,23.62h.28V124.69a.52.52,0,0,1,.55-.55h5.23a.52.52,0,0,1,.55.55v36.5a.52.52,0,0,1-.55.55h-6.61a.68.68,0,0,1-.77-.55l-6.5-23.61H479v23.61a.52.52,0,0,1-.55.55h-5.24a.52.52,0,0,1-.55-.55Z"/><path class="cls-1" d="M0,0V184H514V0ZM5.72,5.75h174v172.5H5.72Zm502.56,172.5H185.4V5.75H508.28Z"/><path d="M114.45,127c-.23-.87-.44-1.74-.72-2.59a17.28,17.28,0,0,0-2.11-4.5,18.2,18.2,0,0,0-2.8-3.27,11.85,11.85,0,0,0-2.41-1.88c-.94-.49-1.9-1-2.87-1.41a20.09,20.09,0,0,0-5.45-1.71c-1.42-.22-2.84-.46-4.26-.62-1.08-.13-2.16-.19-3.24-.22-1.64,0-3.29,0-4.93,0-2.07,0-4.14,0-6.22,0-1.81,0-3.63,0-5.45.06l-7.75.11-7,0h-9.9l-10.72-.09c-1.49,0-3,0-4.49,0H30.83l-.59,0c0,.23,0,.41,0,.58.06,1.06.12,2.11.17,3.17q.18,3.76.37,7.53c.09,1.71.2,3.42.28,5.13q.24,4.79.46,9.55c.14,2.74.29,5.47.43,8.21.14,2.94.26,5.88.39,8.82,0,.36,0,.73,0,1.09,0,.61.08,1.22.13,1.82,0,.21,0,.75,0,.88.36.35,6.16,0,8.65-.28,0-.25,0-.46,0-.67-.06-1.05-.12-2.1-.19-3.15-.12-1.84-.25-3.68-.37-5.51,0-.53-.09-1.05-.09-1.58s0-1.25.07-1.87c0-.4,0-.79.06-1.2a2.53,2.53,0,0,1,.41-.06c1,0,2-.09,3.07-.11L60.5,143l6.6-.1c2.52,0,5-.06,7.56-.11,2.86-.05,5.71-.12,8.57-.2s8.83-.29,8.91-.31c0-.21.35.47.56.8a9.9,9.9,0,0,1,.81,1.59c.26.7.6,1.37.92,2.05.49,1.06,1,2.11,1.5,3.16l1.73,3.69c.43.91.89,1.81,1.29,2.73a.76.76,0,0,0,.87.54,3.77,3.77,0,0,1,.58,0l8.18.1c.15,0,.3,0,.52-.05-2.49-5.36-5.17-10.55-7.93-15.79l2.25-.91c.34-.13.7-.21,1-.34a19.83,19.83,0,0,0,5.19-3.21c.78-.62,1.47-1.33,2.18-2a9.62,9.62,0,0,0,2-2.53,7.32,7.32,0,0,0,.59-1.46,10.28,10.28,0,0,0,.18-2.82A3.66,3.66,0,0,0,114.45,127Zm-9.71.52a5.65,5.65,0,0,1-.34,1.53l-1,1.17a6.08,6.08,0,0,1-2.63,1.78A39.59,39.59,0,0,1,95,133.71a12.48,12.48,0,0,1-3.34.22,41.87,41.87,0,0,0-5,0c-2.28.14-4.56.21-6.84.27-3.22.09-6.44.15-9.66.21-2.44,0-4.88.07-7.32.07s-5.14,0-7.7-.06l-5.31,0-6.22-.09c-1.15,0-2.3,0-3.45,0l-.29,0c-.28-4.7-.44-9.37-.34-14.11.24,0,.42-.08.59-.09,3.16-.25,6.32-.55,9.5-.61,2.62,0,5.23-.09,7.85-.08,2,0,3.95.1,5.93.15l4.88.09,5.6.1c1,0,2,0,3,0,2.2.11,4.39-.11,6.59-.12,1,0,2,0,3.06,0,1.75,0,3.5-.07,5.24,0a15.06,15.06,0,0,1,2.42.15,16.37,16.37,0,0,0,1.72.1c1.14.08,2.28.21,3.42.28a2.39,2.39,0,0,1,1,.32c.56.31,1.12.6,1.67.93a6.06,6.06,0,0,1,2,2.11A6.4,6.4,0,0,1,104.74,127.55Z"/><path d="M63.56,66.55l3.74.07c0,.4,0,.79,0,1.19-.07,3.19-.09,6.38-.14,9.57q0,3-.08,6c0,.12,0,.24,0,.35a52.9,52.9,0,0,0,9.56-.16c.07-.57.07-8,0-16.56l1.18,0c1.74.07,3.47.12,5.2.21s3.5.24,5.24.32c1.58.08,3.16.1,4.74.17l3.93.19c0,2.57-.11,5.14-.13,7.71s0,5,0,7.53c0,3.32,0,6.63-.07,9.95,0,1-.11,2-.06,2.94s0,2.11,0,3.16a2.94,2.94,0,0,0,.08.43,78.34,78.34,0,0,0,9.93,0c0-.26,0-.46,0-.65,0-5.11,0-10.23,0-15.34,0-4-.07-8.07-.12-12.11,0-3.52-.1-7-.17-10.56-.11-5.46-.22-10.92-.36-16.38-.11-4.28-.26-8.56-.41-12.84-.05-1.45-.13-2.9-.2-4.35,0-.26,0-.52-.07-.82l-8.43-.46c0,.47,0,.83,0,1.2,0,3,0,6,0,9.07S97,42.15,97,45c0,4.31,0,8.61,0,12.91l-3.58-.12c-2.54-.08-5.08-.12-7.62-.16-2.22,0-4.43,0-6.65-.06-.85,0-1.7,0-2.55,0-.07-8.54-.18-16-.26-16.35-.48-.09-7.61.18-8.27.32,0,.2,0,.38-.06.56,0,1-.09,2.07-.11,3.11-.06,2.8-.09,5.59-.15,8.39,0,1.33-.07,2.65-.11,4-2.3,0-4.59.06-6.89.11-.91,0-1.82.06-2.74.1-.16,0-.32,0-.51,0-.12,2.82-.24,5.6-.36,8.45a7.49,7.49,0,0,0,.75.06C59.75,66.44,61.66,66.5,63.56,66.55Z"/><path d="M128.68,87.56c0-2.1,0-4.2-.05-6.3s-.11-4-.12-6c0-3.24,0-6.48,0-9.72,0-1.92,0-3.83,0-5.74s.11-3.86.13-5.78c0-1.74,0-3.49,0-5.23q0-3.45.06-6.91a19.94,19.94,0,0,0,.06-2c-.08-.74,0-1.46,0-2.19a2.78,2.78,0,0,0-.09-.3c-3.63,0-7.26,0-10.9.33,0,.19,0,.32,0,.46,0,3.55,0,7.1,0,10.65,0,2.8.09,5.6.16,8.4q.07,3.66.2,7.32c.14,3.79.27,7.57.44,11.36.13,3,.31,5.93.48,8.9.06,1,.15,2,.23,3,0,.18.05.36.08.57l9.24,0C128.66,88.07,128.68,87.81,128.68,87.56Z"/><path d="M128.46,139.44a37.58,37.58,0,0,0,8.5,4.2,5.89,5.89,0,0,0,1.26.27,16.75,16.75,0,0,0,5.23-.53,14.51,14.51,0,0,0,7.52-3.83,10.16,10.16,0,0,0,2.63-3.49c.5-1.36,1.06-2.69,1.56-4.05a3.38,3.38,0,0,0,.18-1.18c0-1.3-.09-2.6-.17-3.9a9.44,9.44,0,0,0-.83-3.26,24.27,24.27,0,0,0-2.63-4.66,28.3,28.3,0,0,0-4.87-5.49,10.21,10.21,0,0,0-1.94-1.43,15.53,15.53,0,0,0-8.62-1.14,6,6,0,0,0-2.36.78c-.55.32-1.11.62-1.68.89a18.31,18.31,0,0,0-7.54,6.95,7,7,0,0,0-1.33,4.32c0,.66,0,2,0,2,0,.78,0,1.57,0,2.34a18.41,18.41,0,0,0,1.33,6.51A10.31,10.31,0,0,0,128.46,139.44Z"/><path d="M155.12,149.6H151.2c-1.24,0-2.48.06-3.73.06-2,0-4,0-6.05,0l-3.56,0-3.6-.12H131c-1.43,0-2.87,0-4.3-.07a10.79,10.79,0,0,0-1.27-.05c-.46.05-.91,0-1.36,0a.78.78,0,0,0-.19.06c0,2.57,0,5.13.25,7.71l.28,0c2.21,0,4.42,0,6.63,0,1.74,0,3.48,0,5.22-.08,1.52,0,3-.07,4.55-.12,2.36-.08,4.72-.16,7.07-.26,1.84-.08,3.69-.2,5.53-.31.63,0,1.25-.09,1.87-.15l.36-.05c0-2.19,0-4.34,0-6.54Z"/></g></g></svg>