<svg xmlns="http://www.w3.org/2000/svg" width="194" height="433" viewBox="0 0 194 433">
  <title>Asset 1</title>
  <g id="Layer_2" data-name="Layer 2">
    <g id="Links_Info" data-name="Links&amp;Info">
      <g>
        <path d="M105.94,76.31s-13.6,3-23.39,3.26A179.71,179.71,0,0,1,53.16,78c-8.42-1.32-22.41-1.15-24.78-4.06s-4.78-9.27-3.61-16.18,3.71-17.57,9.84-25.35A120.56,120.56,0,0,1,49.68,17.23S75.41,4,95.94.68c13.56-2.22,50.79,1.5,55,3.76s13.68,2.85,19,11.27,11.72,13.88,11.25,18.42-.33,8.45-3.45,12.1-13.27,11.1-13.27,11.1S141,69,135.24,69.76s-29.3,6.55-29.3,6.55"/>
        <path d="M32.84,363.82a3.19,3.19,0,0,0-.72.66,1.44,1.44,0,0,0,0,.19A10.45,10.45,0,0,1,32.84,363.82Z"/>
        <path d="M156.55,408.75c-4.94,2.6-20.12,3.41-36.54,5.56s-42.92-7.12-47.9-8.18-14.44-6-21.1-8.7-6-3.86-6-3.86l-3.21-3.36s-.31-6.53,1.31-3.94,8.64,6.84,8.64,6.84c5.66,2.77,11.72,6.33,23.46,9.54,8,2.17,17.67,5.41,32.07,5.86s26.17.76,35.15-1,19.67-4.12,24.87-7.24c4.18-2.51,11.64-7.44,15.42-11,.34-2.32-.06-3.57-.71-3.83-.94-2.29-3.44-3.39-5.51-5.12-2.43-2-5.47-5.87-9.51-10.53s-15.19-7.7-17.62-8.71-15.59-2-16.6-2H115.55a233.17,233.17,0,0,1-24.7-2.43c-8.3-1.42-9.52-.81-9.52-.81l-16.2-1-11,2.15-11.34,2.23s-5.83.5-9.62,4.27c-.89,0-1.23.41-1.09,1a3.19,3.19,0,0,1,.72-.66,10.45,10.45,0,0,0-.69.85,1.44,1.44,0,0,1,0-.19,10.06,10.06,0,0,0-1.5,3.11,36.33,36.33,0,0,0-1.29,6.52c-1.48,12.41,4.86,23.64,4.86,23.64s2.55,5.95,12.14,15.32,31.81,15.2,50.11,17.8,37.2,2.85,52.07.59,16.23-6.68,26.45-17.12a21.94,21.94,0,0,0,6.8-15.26,2.78,2.78,0,0,0,.45-1c.13-.92.21-2,.28-3-1.88,2-8,4.47-11.6,7.17S161.49,406.15,156.55,408.75Z"/>
        <path d="M116.8,243.42a98.48,98.48,0,0,1,3.84-11.53,75.42,75.42,0,0,1,3.66,10.2c-2.39,1.39-4.84,1.5-7.51,1.33m-6.7-15c3-.19,6-.72,9.24-.71-2.47,3.81-4,7.9-6.65,11.62-1.54-3.61-2.87-7-2.59-10.9m20.26-14.62c.54-1.73.68-3.67,2.31-5.28.85,2.82,1.94,5.22,2,7.88l0,.12L129,219.62c.5-2.17.83-4.05,1.39-5.86m-18.23,7.81a18.9,18.9,0,0,1,4.18-7,24,24,0,0,1,3.2,7.63c-1.09.42-5.19.08-7.38-.62m16.66-15.41c-.17,1.62-.29,3.1-.5,4.58-.29,2.06-.64,4.1-1,6.15-.25,1.51-.31,1.55-2.13,1.95-2.2-2.56-3.81-5.61-6.12-8.46,3.19-1.68,6-3.71,9.73-4.22m4.22,18c-.46.42-1.2.31-2.46-.18-.65-.25-1.28-.54-2.18-.93,1.27-.37,3.36-.72,5.11-1.06l.25,0a.59.59,0,0,1,0,.19,3.45,3.45,0,0,1-.73,2m-1.48,3.64c-1.63,3.41-3,6.84-4.8,10.17-1-1.37-2.84-10.61-2.63-12.69,1.33-.06,4.75,1.08,7.44,2.52m-2.78,15.9c2.39-2.56,8.5-5.48,9.77-8.71,1-2.58,1.63-4.84,2.6-7.44a23,23,0,0,0,.45-3.15c.19-4.76-.84-9.42-1.46-14.18-.12-.92-.56-1.59-.64-2.52a21.16,21.16,0,0,0-1.48-6.35,17.75,17.75,0,0,0-3.59-1.78,28.61,28.61,0,0,0-8.42.81,19.22,19.22,0,0,0-6.05,3,25.34,25.34,0,0,0-7.74,7.94c-1.86,3.12-3.69,6.26-5.59,9.36a5.29,5.29,0,0,0-.82,2.8c0,1.65-.15,3.3-.08,4.95.12,2.77.34,5.55.55,8.32a2.81,2.81,0,0,0,.33,1.22c1,1.69,2.09,3.36,3.21,5a4.09,4.09,0,0,0,1.22,1.09c2.07,1.31,4.2,2.55,6.26,3.88.48.31.94.15,1.43.37,3,1.39,10-4.64,10-4.64"/>
        <path d="M62.67,285.19a3.35,3.35,0,0,1,1.25,1.74c.75,1.89,1.62,3.75,2.31,5.66a17.28,17.28,0,0,1,.71,7.27c-.1,1.29-.23,2.56-.36,3.85a1.63,1.63,0,0,1-.19.69c-1,1.65-2.14,3.25-3.11,4.93a19,19,0,0,1-2.78,3.43c-2.52,2.68-5.71,4.38-8.79,6.25a15.53,15.53,0,0,1-2.06.93,3.91,3.91,0,0,1-2.21.3l-3.53-.58a2.2,2.2,0,0,1-1.36-.89C40,315.7,38.82,312,37.67,308.33c-.19-.63-.36-1.27-.55-1.9a12.52,12.52,0,0,1-.11-5.52,24,24,0,0,1,1.06-4.49,11.73,11.73,0,0,1,1.66-2.83c1.53-2.15,3.11-4.27,4.71-6.37a2.57,2.57,0,0,1,1-.73c1.87-.89,3.76-1.75,5.65-2.61a14.47,14.47,0,0,1,5.13-1.49,5.76,5.76,0,0,1,4.4,1.27c.57.5,1.21.89,2.11,1.54m.4,17.56-.1-.06-1.35,1.53q-3.36,3.75-6.72,7.49A11.78,11.78,0,0,1,50.48,315L47.76,316l-.65.25c0,.08,0,.14,0,.21,1.33-.15,2.65-.28,4-.46a4.93,4.93,0,0,0,2.69-1.27c1-.86,2-1.68,2.84-2.61A25.44,25.44,0,0,0,59.3,309c1.11-1.63,2.07-3.36,3.09-5.05.23-.39.45-.79.67-1.19m-11.9,7.15.47-.93a7.12,7.12,0,0,0,.56-3.13,7.83,7.83,0,0,0-.09-2.24c-.29-1.1-.73-1.52-1.76-1.36a6.11,6.11,0,0,1-.85.09.78.78,0,0,0-.76.58,6.89,6.89,0,0,0-.21,3.33.72.72,0,0,0,.13.35l2.5,3.3m9.3-11c0-.08,0-.16,0-.24-.93-.21-1.86-.44-2.8-.6-1.29-.23-2.59-.44-3.89-.59a1.06,1.06,0,0,0-1.28.85c-.2.56-.34,1.12-.5,1.65a2.94,2.94,0,0,0,3.83.9c.69-.29,1.38-.6,2.07-.89l2.58-1.08m-19,1.41.07.22,3.48.79a1.71,1.71,0,0,0,.36.1.84.84,0,0,0,.46,0c.75-.45,1.5-.91,2.21-1.41a.89.89,0,0,0,.29-.65,1.94,1.94,0,0,0-2.62-1.81c-1.77.45-2.92,1.76-4.25,2.82m15.11-12.29a13.57,13.57,0,0,0-3.4,2.25,7.24,7.24,0,0,0-1.83,3.4,5.19,5.19,0,0,0,1.55.33,3.86,3.86,0,0,0,2.07-.83c.51-.42.46-1,.61-1.53.09-.33.19-.66.29-1q.36-1.3.71-2.62m-9.89,1a16,16,0,0,0-.73,3.85.65.65,0,0,0,.13.44c.49.59,1,1.16,1.5,1.73,1.27-1.23,1.51-2.44.73-3.69-.47-.76-1-1.47-1.64-2.34"/>
        <path d="M72.83,314.32c.91-2.89,1.67-5.85,2.77-8.67a17,17,0,0,1,5.79-7.32c3.61-2.72,3.91-2.74,8.16-1.15,2.24.84,4.61,1.51,6.13,3.65a15.93,15.93,0,0,1,1.08,1.46c1.21,2.19,2.45,4.37,3.56,6.62,2.27,4.57,2.69,9.47,2.31,14.45a11.76,11.76,0,0,1-3,6.9c-1.54,1.75-3.22,3.38-4.87,5a1.66,1.66,0,0,1-1,.57c-2.74-.13-5.23.91-7.74,1.7a4.91,4.91,0,0,1-4.84-.84A40.33,40.33,0,0,0,77,333.88c-1.81-1-2.52-2.77-3.15-4.55a36.84,36.84,0,0,1-1.08-4.29,30.65,30.65,0,0,1-1.08-5.86c0-1.63.69-3.27,1.09-4.9l.09,0m18,12.42c-.37-3.84-1.37-5.19-4-5.54.12,3.92.31,4.44,2.25,6.13l1.73-.6M78.2,329.35c2.87-1.09,4.53-3,3.75-6.8-3.14,1.19-2.92,4.22-3.75,6.8m8.14-19.81c.15,1.56.26,2.7.37,3.83a7.56,7.56,0,0,0,3-7.09,6.54,6.54,0,0,0-3.42,3.26m-8.64.18c.56,3.85,1.87,5.94,4,6.63a1.38,1.38,0,0,0,.14-.35c.27-3.27-2.54-4.36-4.17-6.28m10.9,7.36c3.28.87,4.84-.11,4.63-3.09a18,18,0,0,0-4.63,3.09"/>
        <path d="M12.68,282.05A13.91,13.91,0,0,1,16,280.86a18.49,18.49,0,0,1,4,.33,21.64,21.64,0,0,1,2.92.45,4.66,4.66,0,0,1,3.15,2,26.12,26.12,0,0,0,2,2.82,3.71,3.71,0,0,1,.7,3.49,18.19,18.19,0,0,0-.93,5.81,1.32,1.32,0,0,1-.35.79c-1.07,1.34-2.12,2.71-3.26,4a8.37,8.37,0,0,1-4.56,2.78,16.53,16.53,0,0,1-9.8-.55c-1.54-.64-3-1.37-4.56-2.09a8.84,8.84,0,0,1-1-.67c-1.48-.94-2-2.63-2.63-4.21-1.19-3-1.19-3.21.54-6.08a13,13,0,0,1,4.76-4.83c1.86-1,3.83-1.82,5.76-2.72Zm9.25,11c-1.19-1.29-1.55-1.39-4.19-1.16.31,1.88,1.25,2.51,3.84,2.47.13-.49.25-.91.35-1.31m-3.42-4.87c2.55.27,3.82-1.1,4.48-3.29-1.72.82-3.76.89-4.48,3.29m-10.73,7c1.85,0,3.4-.88,4.69-2.8l-2.59,0a5.19,5.19,0,0,0-2.1,2.77m6.32-6.56a.92.92,0,0,0,.23-.13c-.52-1.52-2-2.32-4.58-2.43,1.34,1,2.15,3,4.35,2.56m-1,8.5c2-.09,2.63-1.31,1.95-3.64a14.81,14.81,0,0,0-1.95,3.64"/>
        <path d="M142.65,309.25c-.09.14-.11.2-.14.22l-2.5,1.37c-1-.6-2.11-1.13-3.07-1.82a2.45,2.45,0,0,1-.29-3.18,9.55,9.55,0,0,1,.71-.84,1.2,1.2,0,0,1,1.61-.25c1,.56,1.92,1.1,2.84,1.7a1.28,1.28,0,0,1,.5.75c.17.7.24,1.44.34,2.06"/>
        <path d="M172.55,321.66a2.24,2.24,0,0,1-.31-.19l-2.16-2.87a27.13,27.13,0,0,1,1.94-3c.71-.85,2.9-.69,4.13.16.42.28.83.57,1.21.88.7.57.94,1.16.56,1.76-.6.93-1.16,1.89-1.81,2.79a1.29,1.29,0,0,1-.91.43c-.9.08-1.85,0-2.66.06"/>
        <path d="M171.62,307.17c.06-.12.07-.15.1-.17l1.81-1.28a23.59,23.59,0,0,1,2.4.89,1.59,1.59,0,0,1,.36,2.19,6.88,6.88,0,0,1-.49.68,1,1,0,0,1-1.2.38c-.74-.28-1.49-.53-2.21-.83a.8.8,0,0,1-.41-.46c-.15-.48-.25-1-.35-1.41"/>
        <path d="M120.26,305.89c0,.13,0,.17,0,.2l-1,2a25.54,25.54,0,0,1-2.54.31c-.77,0-1.43-1-1.33-1.78a6.43,6.43,0,0,1,.12-.83,1,1,0,0,1,.89-.89c.79-.1,1.57-.22,2.35-.29a.8.8,0,0,1,.58.22c.36.35.67.76,1,1.09"/>
        <path d="M161.26,298.81c-.12,0-.16,0-.18-.06l-1.42-1.51c.23-.84.4-1.7.71-2.5a1.79,1.79,0,0,1,2.19-.79,7.11,7.11,0,0,1,.73.34.88.88,0,0,1,.47,1.1c-.22.77-.42,1.55-.67,2.31a.94.94,0,0,1-.43.49c-.47.25-1,.43-1.39.62"/>
        <path d="M154.86,330.51c-1.64-.39-3-.68-4.33-1.06a1.39,1.39,0,0,1-.82-.71c-.76-1.85-1.46-3.73-2.31-5.94.81.23,1.32.34,1.8.51.73.26,1.46.56,2.19.85,2.9,1.18,2.91,1.18,3.32,4.24.08.6.09,1.2.15,2.11"/>
        <path d="M168.67,303.43c-.1,1.67-.15,3.05-.28,4.42a1.36,1.36,0,0,1-.52.91c-1.57,1-3.17,1.95-5.06,3.1.08-.83.1-1.35.18-1.85.12-.76.27-1.52.43-2.28.61-3,.61-3,3.35-3.86.54-.16,1.08-.25,1.91-.44"/>
        <path d="M149.5,308.7l3.56.35c-.33,1.48-.63,2.82-1,4.37l-4.23.36,1.64-5.08"/>
        <path d="M134.2,326.53c-.52,1.3-.9,2.27-1.32,3.33L129,327.72c.26-1.31.52-2.63.82-4.16l4.43,3"/>
        <path d="M132.64,313.26l-3.78,1.84-1.06-2.65c1.72-1.79,2.73-2.52,4.09-2.92.25,1.25.51,2.48.76,3.72"/>
        <path d="M141.12,323.93l-4-1.28,1.25-3.28c2.54-.3,3.79-.18,5,.52l-2.28,4"/>
        <path d="M181.19,295.31l-1.74,3.83-3.11-1.63c0-2.56.27-3.79,1.11-4.94l3.74,2.74"/>
        <path d="M159,319.29,155,318l1.26-3.28c2.54-.3,3.79-.18,5,.52l-2.28,4"/>
        <path d="M122.56,313.72l2.82,4.7-3,1.79c-2.43-2-3.48-3.2-4.17-4.93l4.37-1.56"/>
        <path d="M77.18,249.42c.77.11,1.56.2,2.32.34,1.58.27,3.14.58,4.71.85a1.31,1.31,0,0,1,1,.66c.32.56.66,1.1,1,1.63s.19.7-.21,1a9.59,9.59,0,0,1-4.3,2c-.3.07-.58.18-1,.32a13.31,13.31,0,0,0,5.19,2.41c2,.35,4,.87,6,1.31a.75.75,0,0,1,.68.67c.1.47.29.91.43,1.37.08.26.14.54.24.91-1.5.26-2.89.6-4.3.71s-2.85,0-4.34.1c.5.23,1,.48,1.49.67a10.35,10.35,0,0,1,5.25,4.44c1.24,2.08,2.25,4.3,3.43,6.59a8.16,8.16,0,0,0-1.67.09,3.52,3.52,0,0,1-3.36-1c-1.42-1.18-3-2.19-4.45-3.34-.87-.69-1.65-1.5-2.47-2.27-.3-.28-.59-.57-1-1,.18,1.73.35,3.26.51,4.78a1.21,1.21,0,0,1-1.42,0c-1.9-1.41-3.82-2.79-5.72-4.2a14.94,14.94,0,0,1-1.58-1.39c-.62-.61-1.44-1-1.73-2l-.25.13c0,.36.05.72.09,1.07.07.6.11,1.21.23,1.81a4.61,4.61,0,0,1-1.3,3.95c-.05.07-.16.09-.29.15-.19-.22-.38-.42-.55-.65-1.17-1.68-2.38-3.33-3.48-5-.61-1-1-2.06-1.54-3.08a4.15,4.15,0,0,0-.89-1.21,5.09,5.09,0,0,0,.1.65c.23.83.45,1.66.71,2.48a1.08,1.08,0,0,1-.32,1.21c-.32.3-.63.62-1,1-.73-.61-1.43-1.15-2.08-1.75-1.62-1.5-3.21-3-4.81-4.54a7.37,7.37,0,0,0-3.12-1.68c.17,2.48.59,4.84.95,7.31a10.74,10.74,0,0,1-2.65.43A1,1,0,0,1,51,267c-1.51-1.33-3.06-2.62-4.48-4-1.21-1.22-2.28-2.59-3.39-3.91a13,13,0,0,1-2-4.09c-.52-1.41-1.18-2.76-1.81-4.12s-1.15-2.49-1.79-3.71a4,4,0,0,0-.92-1.06,41.93,41.93,0,0,0-5.67-3.73c-2.39-1.52-4.92-2.82-7.39-4.23-1.33-.76-2.64-1.56-4-2.31-2.11-1.19-4.24-2.36-6.36-3.53a53.33,53.33,0,0,1-7.86-4.94c-1.29-1-2.7-1.91-4-2.88-.43-.31-.82-.69-1.3-1.1l.86-2,2.39,1c5,2.23,9.91,4.47,14.87,6.67,2,.91,4.17,1.64,6.18,2.61,2.33,1.12,4.59,2.39,6.88,3.6s4.69,2.47,7,3.74a1.66,1.66,0,0,0,1.6,0,17.46,17.46,0,0,0,4.77-2.62c1.42-1.19,2.88-2.34,4.24-3.6a15.49,15.49,0,0,1,5.82-3.4c1.82-.6,3.59-1.35,5.38-2l.7-.25a6.13,6.13,0,0,1,.07.79c-.06,1.34-.12,2.69-.24,4a2.11,2.11,0,0,1-.49,1.11,17.7,17.7,0,0,1-2.46,2.53,16.78,16.78,0,0,0-2.79,3.12,3.67,3.67,0,0,0,.67.13c1.82,0,3.65,0,5.46-.15a11.37,11.37,0,0,0,2.74-.83,1.8,1.8,0,0,0,.62-.57,12.28,12.28,0,0,1,4.91-3.25,1.83,1.83,0,0,1,1.1,0c1.61.5,3.21,1.06,4.93,1.64a5.36,5.36,0,0,1-.26.92,10.18,10.18,0,0,1-2.87,3.67c-.52.39-1,.86-1.48,1.29l.09.2,1.11,0,3.93-.12a12.14,12.14,0,0,1,4.22.77,3.3,3.3,0,0,0,.63.21,2.43,2.43,0,0,1,2.06,2c.15.47.13.79-.29,1.07-1,.64-1.89,1.31-2.86,1.93-.79.52-1.61,1-2.41,1.5l.06.27"/>
        <path d="M135.73,276.47c-.37.44-.74.9-1.13,1.33-.79.88-1.6,1.75-2.39,2.62a1,1,0,0,1-.8.36c-.48,0-.95,0-1.42,0s-.52-.15-.58-.54a7.16,7.16,0,0,1,.43-3.49c.08-.21.12-.44.2-.77a9.82,9.82,0,0,0-3.55,2.31c-1,1.12-2.12,2.16-3.17,3.25a.56.56,0,0,1-.69.16c-.33-.12-.69-.18-1-.27l-.66-.21c.42-1,.76-2,1.24-3s1.12-1.79,1.65-2.77c-.34.22-.69.43-1,.67a7.65,7.65,0,0,1-4.85,1.55c-1.79,0-3.58-.27-5.48-.43a6.13,6.13,0,0,0,.6-1.08,2.61,2.61,0,0,1,2-1.71c1.31-.43,2.55-1,3.85-1.48.78-.28,1.59-.44,2.39-.66l1-.26-3.2-1.56a.9.9,0,0,1,.58-.87c1.63-.64,3.25-1.31,4.89-1.95a11.33,11.33,0,0,1,1.49-.45,3.62,3.62,0,0,1,1.9-.31l0-.21-.71-.37c-.4-.19-.81-.41-1.23-.57a3.43,3.43,0,0,1-2-2.37.69.69,0,0,1,0-.24c.21,0,.42-.08.62-.09,1.51-.08,3-.19,4.54-.2.85,0,1.69.17,2.54.25a3.16,3.16,0,0,0,1.11-.08,4.79,4.79,0,0,0-.44-.19c-.61-.18-1.23-.37-1.84-.53a.8.8,0,0,1-.63-.68c-.07-.32-.14-.64-.23-1,.67-.22,1.28-.45,1.91-.62,1.58-.43,3.16-.83,4.74-1.24a5.43,5.43,0,0,0,2.28-1.29c-1.62-.87-3.27-1.54-5-2.28a8,8,0,0,1,.77-1.84.75.75,0,0,1,.41-.26c1.43-.42,2.84-.89,4.3-1.22,1.25-.28,2.52-.41,3.78-.59a9.64,9.64,0,0,1,3.36.33c1.09.23,2.2.35,3.3.49s2,.25,3,.33a3,3,0,0,0,1-.17,30.62,30.62,0,0,0,4.57-2.1c1.9-.9,3.71-2,5.56-3,1-.54,2-1,3-1.59,1.58-.86,3.15-1.73,4.72-2.61a39.74,39.74,0,0,1,6.19-3c1.15-.4,2.26-.94,3.4-1.41.37-.15.75-.24,1.2-.38l.89,1.31-1.59,1.09c-3.34,2.24-6.7,4.47-10,6.72-1.38.93-2.67,2-4.07,2.86-1.62,1-3.3,1.95-5,2.91s-3.4,2-5.11,2.94a1.24,1.24,0,0,0-.61,1,13.08,13.08,0,0,0-.23,4c.19,1.36.33,2.73.59,4.08a11.53,11.53,0,0,1-.15,5c-.34,1.38-.56,2.79-.84,4.18,0,.16-.07.32-.12.54a4.21,4.21,0,0,1-.52-.26c-.82-.57-1.64-1.13-2.43-1.73a1.56,1.56,0,0,1-.5-.74,13.34,13.34,0,0,1-.62-2.54,12.32,12.32,0,0,0-.86-3,3.06,3.06,0,0,0-.35.37c-.69,1.16-1.44,2.29-2.05,3.49a8.31,8.31,0,0,0-.55,2,1.34,1.34,0,0,0,.11.62,9.12,9.12,0,0,1,.11,4.36,1.32,1.32,0,0,1-.45.68c-1,.81-1.93,1.6-3,2.45a3.76,3.76,0,0,1-.48-.53,7.53,7.53,0,0,1-1.17-3.25c0-.48-.15-1-.23-1.43l-.15,0-.43.71-1.46,2.52A9,9,0,0,1,139,281a2.73,2.73,0,0,0-.38.32,1.8,1.8,0,0,1-2,.52c-.36-.09-.55-.22-.56-.6,0-.85-.08-1.7-.09-2.55s0-1.41,0-2.11l-.19-.07"/>
        <path d="M114.78,119c-.1-.87-.19-1.66-.28-2.46,0-.3.14-.44.36-.57.46-.27.93-.55,1.4-.81,2-1.11,4.05-2.25,6.11-3.29a5.13,5.13,0,0,0,2.44-2.58c.42-.94.82-1.88,1.23-2.81a7.75,7.75,0,0,1,2.07-2.76c1.39-1.19,2.86-2.29,4.3-3.42a2.35,2.35,0,0,1,2-.27,1.44,1.44,0,0,1,.75,2,14.42,14.42,0,0,1-.92,1.79c-.61,1.11-1.24,2.21-1.86,3.31-.24.44-.46.89-.79,1.52.88-.31,1.59-.54,2.28-.81a13.27,13.27,0,0,0,3.53-2.08,3.67,3.67,0,0,0,1.21-1.77,24.36,24.36,0,0,0,1-5.48,11.46,11.46,0,0,1,1.8-4.71.94.94,0,0,1,1-.48,1.65,1.65,0,0,1,.9,1.16c0,.51.07,1,.12,1.53s.15.74.18,1.12a3.16,3.16,0,0,0,2,2.56.62.62,0,0,0,.74-.13,25.32,25.32,0,0,0,2.33-1.86,36.82,36.82,0,0,0,4.51-5.59c.78-1.13,1.44-2.33,2.32-3.4s1.52-2.22,2.32-3.3,1.73-2.27,2.67-3.35A14,14,0,0,1,164,79.66a.69.69,0,0,1,.53,0c.62.26,1.23.55,1.84.82a.64.64,0,0,1,.38.65,2.5,2.5,0,0,1-.29,1.48c-.36.57-.71,1.15-1.08,1.71-.52.79-1.05,1.56-1.58,2.34l-.09.14c-.8,1-1.56,2-2.4,2.93a20.46,20.46,0,0,0-2.1,3.12,4.94,4.94,0,0,0,.56-.1l11.09-3.51a6.93,6.93,0,0,0,3.3-2.5c.37-.46.75-.92,1.14-1.37a10.31,10.31,0,0,0,1.77-3.6,11.58,11.58,0,0,1,3.65-5.61c.64-.52,1.26-.41,1.44.4a18.57,18.57,0,0,1,.37,3c.05,1,0,2,0,3.14.34-.15.58-.23.79-.35a28.37,28.37,0,0,1,4.21-1.84,4.75,4.75,0,0,1,4.42.75,3.05,3.05,0,0,1,1.54,2.22,11.54,11.54,0,0,0,.48,1.63,1.58,1.58,0,0,1-.2,1.46c0,.06-.08.14-.13.21-1.69,2.15-3.55,4-6.44,4.53-1.48.25-3,.59-4.42,1a19.63,19.63,0,0,0-2.14.82,6.71,6.71,0,0,0,.55.68c.65.61,1.31,1.2,2,1.79.34.31.69.61,1,.89a1.88,1.88,0,0,1,.79,1.89c-.08.59-.07.67-.67.82a10.35,10.35,0,0,1-5.35.08c-1.77-.5-3.46-1.19-5.19-1.77-2-.67-4-1.48-6.22-1.17a26.33,26.33,0,0,0-3.31.71A25.37,25.37,0,0,0,159.57,99a3.23,3.23,0,0,0,.51.31,3.86,3.86,0,0,0,.78.21,19.07,19.07,0,0,1,4.85,1.5,2.12,2.12,0,0,1,.49.28c.69.52,1.36,1.06,2.06,1.56a1.65,1.65,0,0,1,.71,1.53,2.92,2.92,0,0,1-3.16,2.95,19.94,19.94,0,0,1-7.94-1.66c-1.43-.56-2.81-1.23-4.22-1.84a3.93,3.93,0,0,0-.84-.29,12.51,12.51,0,0,0-5.37.25,2.34,2.34,0,0,0-.52.2.92.92,0,0,0-.32,1.47c.73.75,1.53,1.44,2.28,2.18a9.44,9.44,0,0,0,3.83,2.16,7.83,7.83,0,0,1,1.19.5,2,2,0,0,1,1.11,1.41.65.65,0,0,1-.44.83,5.16,5.16,0,0,1-3.69.25,46.17,46.17,0,0,1-5-2.1c-.76-.4-1.56-.73-2.33-1.12a.94.94,0,0,0-.92,0c-.51.24-1,.47-1.55.69l-4.81,2.1a1.34,1.34,0,0,0-.9,1.51,6.93,6.93,0,0,0,.46,1.45c.42,1,.9,2,1.34,2.94a1.62,1.62,0,0,1,.14.54.84.84,0,0,1-1.12,1,4.79,4.79,0,0,1-1.31-.61,14.83,14.83,0,0,1-1.65-1.3,18.23,18.23,0,0,0-3.92-2.56,2,2,0,0,0-1.72-.1l-3.8,1.38a26.46,26.46,0,0,1-5.25,1.58c-.79.12-1.56.4-2.35.59-.41.1-.84.15-1.43.25"/>
        <path d="M90.45,112.74c-.33.81-.65,1.54-.94,2.29-.11.28-.34.32-.59.33-.54,0-1.08,0-1.61,0-2.32,0-4.63,0-6.94-.08A5.1,5.1,0,0,0,77,116.35l-2.44,1.86a7.69,7.69,0,0,1-3.15,1.41c-1.79.36-3.61.62-5.42.9a2.34,2.34,0,0,1-1.9-.74,1.44,1.44,0,0,1,.32-2.13,14.2,14.2,0,0,1,1.67-1.13l3.23-2c.42-.27.84-.55,1.43-.94-.92-.15-1.65-.29-2.38-.4a13.27,13.27,0,0,0-4.1.1,3.67,3.67,0,0,0-1.92,1,24.14,24.14,0,0,0-3.53,4.31,11.52,11.52,0,0,1-3.86,3.25.93.93,0,0,1-1.13-.08,1.65,1.65,0,0,1-.23-1.44c.21-.47.44-.93.63-1.4s.23-.72.38-1.06a3.16,3.16,0,0,0-.48-3.19.61.61,0,0,0-.71-.24,25.17,25.17,0,0,0-2.94.5,36.79,36.79,0,0,0-6.66,2.7c-1.23.61-2.38,1.34-3.68,1.85s-2.4,1.21-3.63,1.76-2.61,1.15-4,1.63a14.11,14.11,0,0,1-4.17.42.69.69,0,0,1-.46-.27c-.42-.53-.81-1.08-1.21-1.62a.64.64,0,0,1,0-.75,2.52,2.52,0,0,1,1-1.15c.6-.32,1.18-.66,1.77-1l2.52-1.28.15-.08c1.17-.47,2.33-1,3.52-1.4A20.07,20.07,0,0,0,39,114a4.72,4.72,0,0,0-.54-.19L27,111.51a7,7,0,0,0-4.09.58c-.54.23-1.1.44-1.65.65A10.15,10.15,0,0,0,18,115a11.58,11.58,0,0,1-5.91,3.14c-.81.15-1.3-.25-1.06-1.05a18,18,0,0,1,1.15-2.83c.44-.89,1-1.73,1.56-2.72-.36,0-.61-.07-.86-.08A28.2,28.2,0,0,1,8.27,111a4.75,4.75,0,0,1-3.5-2.8,3.06,3.06,0,0,1-.27-2.69,11.27,11.27,0,0,0,.37-1.66,1.59,1.59,0,0,1,.89-1.18l.21-.12c2.52-1.06,5.07-1.81,7.83-.84,1.42.5,2.87.92,4.33,1.31a19.76,19.76,0,0,0,2.27.32,7.5,7.5,0,0,0-.15-.86c-.28-.85-.57-1.69-.87-2.52-.15-.43-.3-.87-.48-1.29a1.9,1.9,0,0,1,.23-2c.35-.47.38-.56,1-.39a10.3,10.3,0,0,1,4.71,2.52c1.31,1.29,2.45,2.72,3.68,4.07,1.43,1.56,2.8,3.25,4.87,4a26.27,26.27,0,0,0,3.24,1,25.2,25.2,0,0,0,5,.62,3.43,3.43,0,0,0-.3-.52,3.68,3.68,0,0,0-.58-.56,19.34,19.34,0,0,1-3.52-3.66,2.29,2.29,0,0,1-.29-.48c-.35-.79-.67-1.59-1-2.37A1.65,1.65,0,0,1,36,99.21a2.92,2.92,0,0,1,4.19-1,20,20,0,0,1,6.14,5.3c1,1.18,1.86,2.44,2.8,3.66a3.73,3.73,0,0,0,.59.65,12.57,12.57,0,0,0,4.82,2.39,2.4,2.4,0,0,0,.56.08.91.91,0,0,0,1-1.13c-.27-1-.64-2-.93-3a9.5,9.5,0,0,0-2.3-3.75,7.35,7.35,0,0,1-.8-1,2,2,0,0,1-.28-1.77.64.64,0,0,1,.79-.51,5.18,5.18,0,0,1,3.35,1.57,46,46,0,0,1,3.34,4.26c.47.72,1,1.4,1.49,2.12a1,1,0,0,0,.81.44c.57,0,1.13.09,1.69.14l5.22.5a1.35,1.35,0,0,0,1.52-.89,7.06,7.06,0,0,0,.3-1.49c.1-1.07.16-2.15.25-3.22a1.62,1.62,0,0,1,.14-.54.84.84,0,0,1,1.44-.29,4.83,4.83,0,0,1,.85,1.17,14.76,14.76,0,0,1,.81,1.94,18.36,18.36,0,0,0,2.18,4.14,2,2,0,0,0,1.45.92l4,.64a26.41,26.41,0,0,1,5.36,1.16c.75.28,1.56.41,2.34.63.41.12.81.28,1.38.48"/>
        <path d="M92.21,121.69a76.54,76.54,0,0,1,9,1.71c-.06.68-.1,1.35-.19,2-.48,3.48-1,7-1.47,10.43-.21,1.6-.33,3.21-.5,4.87.55.18,1,.36,1.52.5,3.06.93,6.12,1.87,9.19,2.77a1.14,1.14,0,0,1,.93,1,17.15,17.15,0,0,1,.37,1.93,24.87,24.87,0,0,1-1.28,10.48,16.1,16.1,0,0,1-3.89,5.91,9.36,9.36,0,0,1-2.47,1.47c-1.11.54-2.27,1-3.42,1.44a9.72,9.72,0,0,1-4,.49c-5-.17-9.44-2-13.71-4.44a16.9,16.9,0,0,1-7.7-9,15.09,15.09,0,0,1-1-6.18c0-1,.09-1.93.06-2.89a6.91,6.91,0,0,1,1.23-3.87,1.61,1.61,0,0,1,1.33-.85c2.06-.16,4.11-.38,6.17-.5,1.72-.1,3.44-.1,5.16-.15a5.29,5.29,0,0,0,.61-.06c.79-.13.93-.23,1.07-1,.27-1.49.49-3,.76-4.49q.88-5,1.79-10.07c.08-.46.23-.92.38-1.47"/>
        <path d="M58.36,144a54.43,54.43,0,0,1-1.21,6.41c-.48,0-1-.07-1.44-.13-2.47-.34-4.94-.71-7.41-1-1.13-.15-2.28-.23-3.46-.35-.13.39-.25.73-.36,1.08-.66,2.18-1.32,4.35-2,6.54a.8.8,0,0,1-.68.66,11.8,11.8,0,0,1-1.36.26A17.64,17.64,0,0,1,33,156.5a11.38,11.38,0,0,1-4.2-2.76,6.58,6.58,0,0,1-1-1.75c-.38-.79-.71-1.62-1-2.44a7,7,0,0,1-.35-2.82A21.3,21.3,0,0,1,29.56,137a12,12,0,0,1,6.38-5.47,10.72,10.72,0,0,1,4.39-.71c.68,0,1.37.06,2.06,0a4.89,4.89,0,0,1,2.75.88,1.15,1.15,0,0,1,.61.94c.11,1.46.27,2.92.36,4.39.07,1.22.07,2.45.11,3.67a3.19,3.19,0,0,0,0,.44c.09.56.16.66.73.76,1.06.19,2.12.35,3.19.54l7.15,1.28c.33.06.65.17,1,.27"/>
        <path d="M166.59,131.22a16.19,16.19,0,0,1,2.22-.76c2.25-.43,4.52-.77,6.78-1.17a9.67,9.67,0,0,1,5.31,1c1,.38,1.92.81,2.88,1.21a8.29,8.29,0,0,1,4,3.43,8.89,8.89,0,0,1,1,8.13,47.81,47.81,0,0,1-4.34,7.79c-.46.73-1,1.42-1.44,2.14a12.84,12.84,0,0,1-3.34,3.44,63.51,63.51,0,0,1-5.54,3.66c-1.9-3.14-3.38-6.44-5.14-9.72a115.29,115.29,0,0,1-17.37,6.18,14.51,14.51,0,0,1-1.2-5.07c.65-.26,1.32-.49,2-.79,2.34-1.07,4.71-2.12,7-3.26,1.86-.92,3.65-2,5.48-3a3.19,3.19,0,0,0,1.79-3.26c-.09-2.62-.08-5.24-.11-7.86,0-.68,0-1.36,0-2.12"/>
        <path d="M119.44,141.31a11.65,11.65,0,0,1,.45-1.52c.65-1.41,1.35-2.79,2-4.18a6.55,6.55,0,0,1,2.62-2.53c.59-.38,1.19-.73,1.79-1.11a5.58,5.58,0,0,1,3.47-.87,6,6,0,0,1,4.84,2.65,31.68,31.68,0,0,1,2.57,5.44c.22.54.39,1.09.61,1.63a8.66,8.66,0,0,1,.58,3.18,41.91,41.91,0,0,1-.16,4.48c-2.47-.19-4.86-.67-7.35-1a77.86,77.86,0,0,1-3.41,12,9.83,9.83,0,0,1-3.25-1.33c.11-.46.25-.92.34-1.39.33-1.71.68-3.42,1-5.13.22-1.39.33-2.79.52-4.18a2.16,2.16,0,0,0-1.09-2.26c-1.47-1-2.9-2-4.35-3-.38-.26-.74-.54-1.15-.85"/>
        <path d="M61.53,189.48c-15.07-1.14-26.14-7.35-34.39-18.67,6.74-1,27.55,10,34.39,18.67"/>
        <path d="M147.67,177.71c-13.31,7.17-26,7.9-39,2.82,5.16-4.45,28.58-6.47,39-2.82"/>
        <path d="M178.49,173c-.46,15.11-6.16,26.46-17.09,35.22-1.27-6.7,8.7-28,17.09-35.22"/>
        <path d="M80.2,174.86c1,9.46-1.36,16.11-7,20.7-1.31-4.31,2.72-16.86,7-20.7"/>
        <path d="M95.15,198.82c-6.5,11.1-15.38,17.25-27.12,19.34,1.78-5.52,17.9-17.36,27.12-19.34"/>
        <path d="M42.07,196.13c6.68,4.9,10,11,10.58,18.66-3.42-1.5-9.93-12.62-10.58-18.66"/>
      </g>
    </g>
  </g>
</svg>
