<svg xmlns="http://www.w3.org/2000/svg" viewBox="0 0 647 92"><defs><style>.cls-1{fill:#231f20;}</style></defs><title>Asset 7</title><g id="Layer_2" data-name="Layer 2"><g id="Design"><path class="cls-1" d="M32.06,69.91c0-.59.06-1.45.17-2.59s.16-2,.16-2.59V60h2.27q5.61,0,10.25.11v2Q45,76.65,43.59,81.39q-1.21,4.09-5.87,7.24a16.26,16.26,0,0,1-9.06,3.15,11.34,11.34,0,0,0-1.76-.33,25.36,25.36,0,0,0-4.83-.33H15q-9,0-11.53-5.62Q0,78,0,54.87a29,29,0,0,1,.25-4.19c.27-2.06.41-3.16.41-3.31V45.06Q.66,44,.77,42c.07-1.32.11-2.24.11-2.75q.22-8.16.44-16.31Q1.87,12.78,4,7.27,6.82,0,16.4,0a41.45,41.45,0,0,1,7,.77,8.5,8.5,0,0,1,2.2-.33q1.21,0,3.58.11C30.8.62,32,.66,32.8.66A9,9,0,0,1,33.9,1q5.39,2,6.93,4.64a20,20,0,0,1,1.1,2.81q.77,2.27,2,6.68.88,4.09,1,17.45a25.18,25.18,0,0,1-2.55.11q-1.88,0-10.3-.22L32,30.92q0-.89.77-12.81a14,14,0,0,0-5-2.87A38,38,0,0,0,22.14,15q-1.13,0-2.48-.11-5.17,2.87-5.17,8.28v1.88A4.31,4.31,0,0,1,15,26.84a8.54,8.54,0,0,1-.55,3.42v7.18q0,3.75-.33,11.15t-.33,11a64.87,64.87,0,0,0,1.43,14.47q3.51,2.54,6.26,2.54A28.66,28.66,0,0,0,31,74.88,10.2,10.2,0,0,0,32.06,69.91Z"/><path class="cls-1" d="M104.41,29.93V40q0,8.18-.33,15.58t-.33,7.62V66q0,15.69-9,22.75Q84.1,91,78.72,91q-9.11,0-14.93-5.08a17.37,17.37,0,0,1-1.65-1.66,6.51,6.51,0,0,1-.44-1.43,100,100,0,0,1-2.42-14.91q-.66-7.62-1.43-15.13A5,5,0,0,0,58.19,51a6.35,6.35,0,0,0-.28-1.54,6.26,6.26,0,0,1-.27-1.54v-.55a1.86,1.86,0,0,0,.11-.55q0-17.9.77-19.55L57.2,24.63a124.44,124.44,0,0,1,1.32-13.92q1.32-5.52,5.38-7.78T77.62.66A70.78,70.78,0,0,1,95.3,3.31a38.49,38.49,0,0,1,4.94,4.53A22.45,22.45,0,0,1,103.86,16c.07.51.15,1.29.22,2.32q.33,4.31.33,4.09v7.51Zm-15-3.2a24.87,24.87,0,0,1,.27-3,25.61,25.61,0,0,0,.27-3q0-5.19-5.16-7.18l-7.36.44q-4.28.55-6,3.53-.22,7-.22,9.06V37.22q0,5.52.33,15.46.33,11,.44,15.46a26.92,26.92,0,0,0,0,3.54q.55,4.64,8.23,4.64,1.32,0,3.51-.22a27.56,27.56,0,0,1,3.4-.44l2.86-3.31V64.06q0-4.74.17-14.14t.16-14.14a32.69,32.69,0,0,0-.58-7.29C89.47,27.46,89.37,26.88,89.37,26.72Z"/><path class="cls-1" d="M144.54,90.12q0-.33-1.2-6.07l-.88-4.53a29.6,29.6,0,0,0-1.31-7.18q-1-3.54-2.62-10.72-.55-3.31-1.86-9.5-3.83-14.8-4.59-18.55a80.29,80.29,0,0,1-2-11.16V53.9q0,5.52-1.1,37.11l-12.08-1.44q.77-10.71.77-23.3,0-6.51-.38-19.39t-.38-19.27q0-14.8,1.21-26.84H137.8q.55,2.1,1.55,5.85,1,6.07,3.31,18.11.77,3.42,2,10.27.77,4.42,2.1,13.25,1,1,2.65,10,1.66-10.26,5.43-26.05a86.5,86.5,0,0,0,1.52-10.72q.76-7.51,1.41-10.72.76-3.86.76-4a8.57,8.57,0,0,0,.65-3q.33-3,.33-3.09h20.33q.54,4.85.65,10.69V32.83q0,5.95.38,17.9t.38,17.79q0,11.68.55,21.26a3.62,3.62,0,0,1-1.65.33h-7.25a20.9,20.9,0,0,0-4.06.33V82.74q0-10.81-.66-29.11-.77-21.38-.88-29-1.65,7.62-4.5,20.32-.88,3.29-2.42,10.11-.44,1.32-1.1,4.07v1.54q-1,4.73-2.73,14.29a84,84,0,0,1-1.64,8.68,23.22,23.22,0,0,0-1,6.15,4.57,4.57,0,0,1-2,.33h-3.72A31.19,31.19,0,0,0,144.54,90.12Z"/><path class="cls-1" d="M194.33,90.46V37.28q0-9.49-.07-15.88-.15-8.72-.15-7.28c0-.44,0-1.08.11-1.93s.11-1.49.11-1.93q0-1.44-.16-4.42c-.11-2-.16-3.49-.16-4.52V.22h1q.87,0,2.45.16c1.05.11,1.83.17,2.34.17a13.11,13.11,0,0,0,3.16-.33q1.85.33,5,.55,0,8.83.22,26.25.33,6.62.33,5.29c0,.51,0,1.29-.11,2.32s-.11,1.8-.11,2.32c0,2.13,0,3.83.13,5.08q.09,1.21.09,1.1c0-.22,0,1.51-.09,5.18q-.14,6-.13,15.22a41.84,41.84,0,0,0,.33,4.3,41.15,41.15,0,0,1,.33,4.3q0,2.32-.33,6.84t-.33,6.73a35,35,0,0,0,.22,4.52,18.38,18.38,0,0,0-2.85-.33A3.66,3.66,0,0,0,203,88.68a8.68,8.68,0,0,0-3,.83l-.22.52Q198,90.25,194.33,90.46Z"/><path class="cls-1" d="M267.56,23.52a13.24,13.24,0,0,0,.55,2.54l-.55.88v3.32a48.62,48.62,0,0,1-.38,5.3q-.38,4.31-.38,5.3-.77,11.49-.77,16V67.7a9.59,9.59,0,0,1-.44,3.2,5.23,5.23,0,0,1,.44,2.32v8.29a30.31,30.31,0,0,1-.44,4.53q-.44,3.2-.55,4.64a6.09,6.09,0,0,1-1.2.11,60.22,60.22,0,0,1-8.29-.66q-1.85-3.75-5-11.26Q249.67,76.54,248,72a65.56,65.56,0,0,1-3.38-8.73,41.44,41.44,0,0,1-3.27-7.18q-1.85-5.19-6.32-14.8v1.43q0,3.2.22,9,.22,6.4.22,9.15,0,5.62.49,14.33.6,11.68.73,14.33a56.32,56.32,0,0,1-12.4,1.21q-.55-3.53-.56-15.11,0-10.37-1-31.22t-1-31.22q0-6.29.22-12.13A104.45,104.45,0,0,1,232.8.44a11.81,11.81,0,0,1,1.42,1.88q1.2,1.77,3.93,11.6,3.6,13.26,3.71,13.58,2.62,7.19,7.09,19.88.87,2.65,2.62,7.84l4.8,12.92q-.77-26-.77-53.45a115.5,115.5,0,0,1,.67-13.25c.75-.07,1.56-.11,2.46-.11a92.31,92.31,0,0,1,9.39.77A4.35,4.35,0,0,0,267.56,4a8.83,8.83,0,0,0,.55,3.2v11A25,25,0,0,1,267.56,23.52Z"/><path class="cls-1" d="M325.42,41.42a100.58,100.58,0,0,1,1,15.46q0,1.1-.33,15.46,0,2.32-.33,7-1.1,5.41-8.12,8.95a27.19,27.19,0,0,1-12.3,3.09,22.86,22.86,0,0,1-13.45-3.81,22.57,22.57,0,0,1-8-9.67,42.24,42.24,0,0,1-2.63-12.37Q280,47.27,280,37.44q0-19.11,4.61-28.39a11.82,11.82,0,0,1,6-5.3L298.3.66c.88,0,2.38,0,4.5-.11q2.74-.11,4.39-.11,9.44,0,13.72,4.31a17.35,17.35,0,0,1,4.83,12.59v1.43A7.19,7.19,0,0,0,325,22.2v2.43l-11.09-.11q.11-6.73-4.39-10.27-1,.11-8.12.11-4.94,0-6.59,5.19a31.33,31.33,0,0,0-1,9.17q0,8.83,1.43,45.94,7.25.66,9.56.66a54.31,54.31,0,0,0,10.1-1.21q.11-1.66.66-21.31-.66-.33-6.37-.67V50.69q.33-3.09.55-9.39,3.51-.33,7.14-.33A83.27,83.27,0,0,1,325.42,41.42Z"/><path class="cls-1" d="M400.52,24.63a12.55,12.55,0,0,1-4.94.89c-.88,0-2-.07-3.51-.22-1.83-.22-3-.33-3.41-.33q0-1.44.22-4.14t.22-4q0-3.76-2.17-5.08a16.28,16.28,0,0,0-5.75-1,1.92,1.92,0,0,1-1,.33c-.51,0-1.29-.05-2.33-.17s-1.83-.16-2.33-.16q-3.25,0-4.23,2.54v4.53q-.77,2.32-.77,8.84A24.16,24.16,0,0,0,372,31.36q13.94,11.38,15,12.37a71,71,0,0,1,12.85,14.47l.22.44a7.16,7.16,0,0,1-.33,1.71,7,7,0,0,0-.33,1.71,4.48,4.48,0,0,0,.55,2.21,4.29,4.29,0,0,0-.55,2.1v6.07a14.86,14.86,0,0,0,.17,1.77,14.87,14.87,0,0,1,.16,1.88,21.18,21.18,0,0,1-1.65,8.17q-1.87,4.63-5.22,6.19T379,92a68.5,68.5,0,0,1-8.45-.66,32.32,32.32,0,0,1-8-1.77q-3.18-1.55-3.18-17,0-3,.11-6.19a12.56,12.56,0,0,0,1.75.11,16.64,16.64,0,0,0,5.49-1c1,.37,1.79.66,2.53.89v4.75q0,5.19,2.07,7.34t7.2,2.15a14.48,14.48,0,0,0,7.31-2.43,60.2,60.2,0,0,0,.66-7.29A42.39,42.39,0,0,0,385,61.3a100.4,100.4,0,0,0-12.41-11.54Q363.82,42.52,360.11,38q-.11-3.42-.66-13.14-.55-8.17-.55-13,0-1.54.11-3.09a11.83,11.83,0,0,0,1.65-4.2c.22-1,.62-1.5,1.21-1.43a19.24,19.24,0,0,1,10.87-3h9.55a38.45,38.45,0,0,0,4.83.55,64.74,64.74,0,0,1,7,.88Q399.2,3,400,6.62a47.92,47.92,0,0,1,.77,9.06Q400.73,15.24,400.52,24.63Z"/><path class="cls-1" d="M459.91,29.93V40q0,8.18-.33,15.58t-.33,7.62V66q0,15.69-9,22.75Q439.6,91,434.22,91q-9.12,0-14.93-5.08a17.37,17.37,0,0,1-1.65-1.66,6.32,6.32,0,0,1-.44-1.43,100.66,100.66,0,0,1-2.42-14.91q-.66-7.62-1.43-15.13a5,5,0,0,0,.33-1.77,6.26,6.26,0,0,0-.27-1.54,6.26,6.26,0,0,1-.27-1.54v-.55a1.86,1.86,0,0,0,.11-.55q0-17.9.77-19.55l-1.32-2.65A124,124,0,0,1,414,10.71q1.32-5.52,5.38-7.78T433.12.66A70.8,70.8,0,0,1,450.8,3.31a38.58,38.58,0,0,1,4.94,4.53A22.5,22.5,0,0,1,459.36,16c.07.51.15,1.29.22,2.32q.33,4.31.33,4.09v7.51Zm-15-3.2a25.19,25.19,0,0,1,.27-3,25.27,25.27,0,0,0,.27-3q0-5.19-5.16-7.18l-7.36.44q-4.28.55-6,3.53-.22,7-.22,9.06V37.22q0,5.52.33,15.46.33,11,.44,15.46a28.08,28.08,0,0,0,0,3.54q.55,4.64,8.24,4.64,1.31,0,3.51-.22a27.53,27.53,0,0,1,3.4-.44l2.85-3.31V64.06q0-4.74.16-14.14t.17-14.14a32.58,32.58,0,0,0-.59-7.29C445,27.46,444.87,26.88,444.87,26.72Z"/><path class="cls-1" d="M519.74,29.93V40q0,8.18-.33,15.58t-.33,7.62V66q0,15.69-9,22.75Q499.43,91,494.05,91q-9.12,0-14.93-5.08a17.37,17.37,0,0,1-1.65-1.66,6.41,6.41,0,0,1-.44-1.43,100.24,100.24,0,0,1-2.42-14.91q-.66-7.62-1.43-15.13a5,5,0,0,0,.33-1.77,6.41,6.41,0,0,0-.27-1.54,6.3,6.3,0,0,1-.28-1.54v-.55a1.79,1.79,0,0,0,.11-.55q0-17.9.77-19.55l-1.32-2.65a124,124,0,0,1,1.32-13.92q1.32-5.52,5.38-7.78T493,.66a70.76,70.76,0,0,1,17.68,2.65,38.37,38.37,0,0,1,4.94,4.53A22.45,22.45,0,0,1,519.2,16c.07.51.15,1.29.22,2.32q.33,4.31.33,4.09v7.51Zm-15-3.2a24.7,24.7,0,0,1,.28-3,25.79,25.79,0,0,0,.27-3q0-5.19-5.16-7.18l-7.35.44q-4.29.55-6,3.53-.22,7-.22,9.06V37.22q0,5.52.33,15.46.33,11,.44,15.46a26.92,26.92,0,0,0,0,3.54q.54,4.64,8.23,4.64c.88,0,2-.07,3.51-.22a27.53,27.53,0,0,1,3.4-.44l2.85-3.31V64.06q0-4.74.17-14.14t.16-14.14a32.81,32.81,0,0,0-.58-7.29C504.8,27.46,504.7,26.88,504.7,26.72Z"/><path class="cls-1" d="M578.59,23.52a13.24,13.24,0,0,0,.55,2.54l-.55.88v3.32a48.62,48.62,0,0,1-.38,5.3q-.38,4.31-.38,5.3-.77,11.49-.77,16V67.7a9.59,9.59,0,0,1-.44,3.2,5.23,5.23,0,0,1,.44,2.32v8.29a30.31,30.31,0,0,1-.44,4.53q-.44,3.2-.55,4.64a6.09,6.09,0,0,1-1.2.11,60.22,60.22,0,0,1-8.29-.66q-1.85-3.75-5-11.26-.87-2.32-2.51-6.85a65.56,65.56,0,0,1-3.38-8.73,41.44,41.44,0,0,1-3.27-7.18q-1.85-5.19-6.32-14.8v1.43q0,3.2.22,9,.22,6.4.22,9.15,0,5.62.49,14.33.6,11.68.73,14.33a56.32,56.32,0,0,1-12.4,1.21q-.55-3.53-.56-15.11,0-10.37-1-31.22t-1-31.22q0-6.29.22-12.13a104.45,104.45,0,0,1,10.8-.67,11.81,11.81,0,0,1,1.42,1.88q1.2,1.77,3.93,11.6,3.6,13.26,3.71,13.58,2.62,7.19,7.09,19.88.87,2.65,2.62,7.84l4.8,12.92q-.77-26-.77-53.45a115.5,115.5,0,0,1,.67-13.25c.75-.07,1.56-.11,2.46-.11a92.31,92.31,0,0,1,9.39.77A4.35,4.35,0,0,0,578.59,4a8.83,8.83,0,0,0,.55,3.2v11A25,25,0,0,1,578.59,23.52Z"/><path class="cls-1" d="M591.33,84.27c0-4.2,2.64-7.07,6.48-7.07s6.48,2.87,6.48,7.07c0,3.86-2.53,6.85-6.59,6.85A6.37,6.37,0,0,1,591.33,84.27Z"/><path class="cls-1" d="M612.69,84.27c0-4.2,2.64-7.07,6.48-7.07s6.48,2.87,6.48,7.07c0,3.86-2.53,6.85-6.59,6.85A6.37,6.37,0,0,1,612.69,84.27Z"/><path class="cls-1" d="M634,84.27c0-4.2,2.64-7.07,6.48-7.07S647,80.07,647,84.27c0,3.86-2.53,6.85-6.59,6.85A6.37,6.37,0,0,1,634,84.27Z"/></g></g></svg>