<svg id="Design" xmlns="http://www.w3.org/2000/svg" width="184.63" height="500.76" viewBox="0 0 184.63 500.76">
  <title>h_w_menu_3</title>
  <g>
    <g>
      <path d="M-483.13,8638.08c1.08-2.56,2.13-5.19,3.31-7.78a7,7,0,0,1,1.57-2,28.33,28.33,0,0,1,2.26-1.81,9,9,0,0,1,3.34-1.75l13.83-3.57a17.44,17.44,0,0,0,1.73-.56c3.22-1.21,6.41-2.5,9.67-3.61a32.21,32.21,0,0,1,8.81-1.52c1.45-.07,2.89-0.24,4.34-0.37l0.26-.37a2.44,2.44,0,0,0-.81-0.39c-2.66-.17-5.06-1.44-7.69-1.74s-5.45.29-8.14,0.76c-1.74.3-3.48,0.65-5.24,0.78a21.84,21.84,0,0,0-7.48,1.85c-2.77,1.24-5.61,2.35-8.42,3.51a10.21,10.21,0,0,0-3.65,2.66c-2,2.13-4,4.2-5.86,6.39a7.34,7.34,0,0,0-1.37,2.67c-0.53,1.79-.87,3.64-1.29,5.44-1.05.1-2.09,0.25-3.13,0.28-2.13.07-4.26,0.15-6.39,0.09a6.89,6.89,0,0,1-2.49-.61c-2.14-.92-4.27-1.89-6.35-2.94a14.88,14.88,0,0,1-4.64-4.09c-1.88-2.26-3.93-4.39-5.67-6.76a52.9,52.9,0,0,1-3.95-6.48,115.17,115.17,0,0,1-7.73-19.33,28.12,28.12,0,0,0-1.08-3,5.69,5.69,0,0,0-1.16-1.57c-0.82-.83-1.69-1.61-2.57-2.38a30.49,30.49,0,0,1-3.94-4.2,55.69,55.69,0,0,0-4.17-4.61,2.37,2.37,0,0,1-.81-2.54,21.58,21.58,0,0,0,.38-3.22,6,6,0,0,1,4.56-.79c2.59,0.56,4.63,2,6.68,3.46,2.86,2,5.56,4.24,8.32,6.38,2.28,1.77,4.6,3.51,6.83,5.34a5.9,5.9,0,0,0,4.55,1.57c2.62-.25,5.26-0.28,7.69-0.4,0.68,0.59,1.21,1.11,1.8,1.55,2.59,2,5.23,3.84,7.79,5.83a16.91,16.91,0,0,1,4.1,4.86c0.86,1.44,1.77,2.84,2.79,4.46a4.09,4.09,0,0,0,.12-0.78,43.81,43.81,0,0,0-3.78-14.19,4.78,4.78,0,0,0-3.67-3c-4.86-1-9.71-2-14.53-3.19-2.85-.69-5.62-1.67-8.44-2.47a7.15,7.15,0,0,1-2.55-1.58l-7.53-6.18a3.23,3.23,0,0,1-.36-0.47c5-4.08,10-8.22,15.12-12.2,2.87-2.24,5.91-4.29,9-6.31a34.6,34.6,0,0,1,10.93-4.4c1.72-.44,3.46-0.79,5.16-1.31a23.82,23.82,0,0,1,8.89-.68c5.91,0.44,11.82,1,17.74,1.29a14.24,14.24,0,0,1,7.56,2.7c3.86,2.62,7.8,5.12,11.75,7.62a8.68,8.68,0,0,1,2.9,2.83c2.51,4.11,5.16,8.15,7.62,12.3a37,37,0,0,1,2.81,6.07,15.82,15.82,0,0,1,.53,3.9c0.21,2.33.37,4.66,0.58,7a11.69,11.69,0,0,0,.31,1.45h0.35c0.08-1.07.18-2.14,0.22-3.21a68.25,68.25,0,0,1,.37-7.44,6.72,6.72,0,0,0-1-4.63c-1.85-3.32-3.49-6.77-5.25-10.14-1-1.89-2-3.75-3.09-5.74l4.14-2.21a22.81,22.81,0,0,0,2.74.78c2.19,0.35,3.92,1.6,5.72,2.71a11.85,11.85,0,0,1,3.92,4.17,167.25,167.25,0,0,1,9.38,18.29,6,6,0,0,1,.44,4.27c-0.68,2.39-1.21,4.83-1.79,7.24a19.91,19.91,0,0,1-3.77,7.42c-1.26,1.65-2.6,3.25-4,4.84a4.22,4.22,0,0,0-1.29,3.42c0.11,0.9,0,1.83,0,2.74a6.56,6.56,0,0,1-1.37,4.68,19.38,19.38,0,0,1-5.55,5.52c-4.05,2.5-7.91,9.32-11.88,12a5.1,5.1,0,0,1-1.82.66c-4.87,1-9.74,1.93-14.62,2.84a43.28,43.28,0,0,1-4.67.56c-6.27.48-12.54-3.12-18.81-2.62a12.29,12.29,0,0,1-3.31-.1,6.52,6.52,0,0,1-4.44-2.64,10.51,10.51,0,0,0-1.36-1.31" transform="translate(552.98 -8386.03)"/>
      <path d="M-496.14,8862.58a97.33,97.33,0,0,0,19.05,5.39c3.76,0.69,7.64.77,11.45,1.17a163.77,163.77,0,0,0,23.94.5c5.09-.22,10.15-1.24,15.22-2a142.5,142.5,0,0,0,25.47-6,3,3,0,0,1,.68,0c-0.36.37-.6,0.66-0.88,0.89-5.91,4.84-12.51,8.66-18.86,12.86a15.17,15.17,0,0,1-2.7,1.12c-6.35,2.57-12.69,5.18-19.07,7.68a18.51,18.51,0,0,1-4,.78,153.19,153.19,0,0,1-23,1.72c-4.5,0-9-.52-13.51-0.93-3.07-.28-6.11-0.83-9.18-1.18a12.07,12.07,0,0,1-4.65-1.54c-8-4.51-16.08-8.92-24.09-13.43a56.18,56.18,0,0,1-5.42-3.63c-3.53-2.58-7-5.21-10.51-7.85a18.86,18.86,0,0,1-2.35-2.19c-2.61-3-5.19-6-7.78-9a4.33,4.33,0,0,0-.59-0.69c-3.48-2.59-4.9-6.35-6-10.34a2,2,0,0,1,.21-2.09,0.57,0.57,0,0,0,.12-0.19c1.5-4.44,4.72-7.31,8.5-9.83s7-5.18,10.58-7.76a8.72,8.72,0,0,1,2.36-1.29q13-4.2,26-8.29c1.56-.49,3.14-1,4.73-1.38a33.64,33.64,0,0,1,7.11-1c4.31-.15,8.62-0.05,12.93-0.28,5.64-.3,11.26-1,16.9-1.17a71.53,71.53,0,0,1,11,.55c6.8,0.83,13.62,1.62,20.32,3a178.9,178.9,0,0,1,19.19,5.09c6.51,2.09,12.91,4.58,19.23,7.21,3.9,1.62,7.55,3.84,11.29,5.81a4.25,4.25,0,0,1,1.35,1.11c1.93,2.41,3.86,4.83,5.66,7.34,1.63,2.29,1.53,4.54.2,7.17-2.1,4.17-5.27,7.3-8.63,10.33a4.49,4.49,0,0,1-1.39.73c-7.58,2.94-15.1,6.08-22.79,8.72a97.16,97.16,0,0,1-13.4,3.1c-4.73.9-9.5,1.67-14.29,2.22-3.66.42-7.37,0.39-11.05,0.58-10.72.54-21.4-.15-32.07-1-4.2-.33-8.35-1.09-12.53-1.61-1.64-.21-3.29-0.31-4.94-0.47" transform="translate(552.98 -8386.03)"/>
      <path d="M-426.88,8494.22c0.9-.89,1.57-1.5,2.19-2.15,2.16-2.25,2-3.11-.64-4.73a3.35,3.35,0,0,0-.76-0.21c-0.25,2.3-.5,4.51-0.79,7.1m-15.26-12.35c1.11,2.75,3.36,3.88,5.17,5.38s4,2.89,6.31,4.57c-0.34-3.13-.64-5.78-0.93-8.44-3.27-1.25-6.71-1.12-10.55-1.51m5.49,31.1c1.93-2.28,4.35-7,4.39-8.54-1.8-.61-8.94-0.58-10.7.05a24.57,24.57,0,0,0,6.31,8.49m16.53-5.11a126.52,126.52,0,0,0,11.88,10.32c1.52-3.11,2.59-6.11,2.12-9.66a98.31,98.31,0,0,0-14-.66m0.48-15.08c-3.05,2.5-6.1,6-6.68,7.66,2.38,1.28,14.35,3.63,16.47,3.13-3.11-3.8-6.52-7.15-9.78-10.79m-9.86,26c4.58,2.28,9.23,2.35,14.3,2.29-3.1-5.06-7.25-8.87-10.59-13.71-1.61,3.89-2.43,7.69-3.71,11.42m-4-22.79c0.43-2.36.41-2.45-1.27-3.51-2.28-1.42-4.55-2.86-6.86-4.22-1.66-1-3.39-1.86-5.23-2.86-1.22,4.7-.2,9.09.24,13.75,4.54-1.36,9-1.78,13.13-3.16m-8.47-19.74c1.15,0.38,2.28.83,3.45,1.14,6,1.6,11.56,4.23,17.15,6.81a5.82,5.82,0,0,1,1.53,1c2.64,2.45,5.27,4.91,7.85,7.41a35.4,35.4,0,0,1,7.87,10.73,5.67,5.67,0,0,0,.62.88,43.15,43.15,0,0,0-4.15-12.51,12,12,0,0,0-2.07-2.66,54.36,54.36,0,0,0-9.95-7.67,27.11,27.11,0,0,0-6.7-2.89,77.05,77.05,0,0,0-15.62-2.26m41.85-3.27c1,6.48,2.45,12.86,2.69,19.45,0.13,3.86.41,7.73-.43,11.51-1.08,4.82-2.38,9.6-3.6,14.39a2.55,2.55,0,0,1-1.15,1.53c-2.61,1.81-5.14,3.74-7.73,5.58a5.3,5.3,0,0,1-1.91.92c-2.51.52-5,1-7.56,1.37a3.6,3.6,0,0,1-1.61-.22c-3.42-1.13-6.85-2.23-10.22-3.46-2-.73-3.91-1.71-5.87-2.55a6.85,6.85,0,0,1-2.94-2.37c-2.77-3.81-5.63-7.55-8.43-11.33a32.83,32.83,0,0,1-5.66-13.2,24.83,24.83,0,0,1-.63-8.75,37.12,37.12,0,0,1,3.2-10.48,2.66,2.66,0,0,1,1.32-1.15c6.35-2.58,12.73-5,19.65-5.6a57.24,57.24,0,0,1,16.56,1.32c3.88,0.82,7.73,1.77,11.61,2.63,0.82,0.18,1.67.26,2.73,0.41" transform="translate(552.98 -8386.03)"/>
      <path d="M-456.87,8735.17l0.47-.24-1-4.81h-0.28l-1.08,3.42,1.86,1.64m-1.49,3.4c-0.24,1.6-.63,3,0.43,4.52l2.3-3.65-2.72-.86m11.8-6.5a11.27,11.27,0,0,0-4.94,2.23l5.92,1-1-3.24m-1.12,12.66c0.85-3.13-1.44-5.28-5.21-7.37,0.23,1-.36,2,0.54,2.84,0.58,0.54,1,1.24,1.6,1.79,1,0.93,2,1.79,3.07,2.75m-6.18,7.93c2.55-1.66,2.91-2.69,2.06-5-0.42-1.13-.83-2.26-1.28-3.39a10.91,10.91,0,0,0-.67-1.17,32.67,32.67,0,0,0-.11,9.55m0.45-30.29a34.94,34.94,0,0,0-.25,7.66,21.06,21.06,0,0,0,4.08-6.45l-3.83-1.22m25.49,15.1c8,5.59,17,8.87,26.12,12-8.22-5.07-16.58-9.84-26.12-12m-18.51-17.65a22.3,22.3,0,0,0,.58,2.33c1.51,4,3.06,8.07,4.58,12.11a1.36,1.36,0,0,1,.07.68c-0.34,2.26-.52,4.56-1.06,6.78-0.59,2.44-1.47,4.81-2.23,7.22a2,2,0,0,0,.93-0.78,32.62,32.62,0,0,0,3.27-6.06,18.56,18.56,0,0,0,1.63-9.92,9,9,0,0,0-1.61-4.86c-1.78-2.41-3.63-4.77-5.46-7.14a2.87,2.87,0,0,0-.7-0.36m59.48,32.45,0.25-.42c-1.1-1-2.16-2-3.32-2.91-4.34-3.41-8.66-6.83-13.07-10.15-2.75-2.07-5.26-4.5-8.45-5.94-1.78-.81-3.55-1.64-5.34-2.42a55.6,55.6,0,0,0-11.32-3.59,11.6,11.6,0,0,0,1.72,1c1.13,0.57,2.3,1.06,3.39,1.7,5.29,3.13,10.54,6.32,15.82,9.46q9.2,5.47,17.86,11.75c0.77,0.56,1.64,1,2.46,1.49m0.17,10.9,0.08-.37c-0.72-.18-1.44-0.38-2.17-0.52-2.26-.44-4.55-0.72-6.77-1.3-3.06-.81-6.09-1.72-9.07-2.79a122.79,122.79,0,0,0-18.62-5.21,30.76,30.76,0,0,0-7.9-.66,7,7,0,0,0-1,.2,4.2,4.2,0,0,0,1.71.6,60.23,60.23,0,0,1,12.15,3.32c5.89,2.18,11.72,4.49,17.74,6.33,4.64,1.43,9.19.92,13.81,0.41m-73.78-35.82c0.56-3.63,3.08-5.8,5.79-7.83,1.49-1.12,3-2.22,4.53-3.26a2.13,2.13,0,0,1,1.38-.35q8.68,0.78,17.35,1.65a25.28,25.28,0,0,1,9.1,2.49c3.58,1.82,7.31,3.38,10.91,5.17,5.74,2.86,11,6.56,16.22,10.19,1.89,1.3,3.75,2.66,5.72,3.83,4.19,2.49,7.41,6,10.53,9.65,2.86,3.31,5.48,6.84,8.19,10.28a2.88,2.88,0,0,1-.58,4.43c-3.49,2.38-7.09,4.57-11.24,5.6-2.51.62-5.06,1.07-7.62,1.46a30.28,30.28,0,0,1-13.62-1.47c-3.57-1.11-7-2.53-10.54-3.86-5-1.9-10-4-15.37-4.9a79.22,79.22,0,0,1-8.42-1.85,39.37,39.37,0,0,0-12.71-1.53,4.31,4.31,0,0,1-3.36-1.26,22.76,22.76,0,0,1-7.63-13.2,19.5,19.5,0,0,1-.23-3.8c0.1-3.86.16-7.75,1.6-11.44" transform="translate(552.98 -8386.03)"/>
      <path d="M-524.91,8658.52a15.2,15.2,0,0,0-1.74,3.32,0.49,0.49,0,0,0,0,.4c0.28,0.69.59,1.36,0.9,2,1.5-.77,2.06-1.8,1.7-3.17-0.22-.83-0.53-1.64-0.84-2.6m9.33,1.83a12.94,12.94,0,0,0-3.74,1.1,7,7,0,0,0-2.62,2.6,5,5,0,0,0,1.32.73,3.69,3.69,0,0,0,2.12-.18,2.39,2.39,0,0,0,1-1.23l0.54-.83,1.38-2.19m-17.24,7c0,0.07,0,.15,0,0.22l3,1.7a2,2,0,0,0,.3.19,0.84,0.84,0,0,0,.43.08c0.78-.2,1.57-0.4,2.34-0.65a0.86,0.86,0,0,0,.51-0.49,1.86,1.86,0,0,0-1.87-2.44c-1.74-.08-3.15.79-4.66,1.39m17.78,4,0.06-.22c-0.8-.45-1.58-0.92-2.39-1.33-1.12-.57-2.24-1.13-3.4-1.63a1,1,0,0,0-1.4.42c-0.33.45-.62,0.93-0.92,1.37a2.8,2.8,0,0,0,3.25,1.89c0.72-.06,1.43-0.15,2.14-0.23l2.67-.27m-11.57,7.43,0.69-.72a6.82,6.82,0,0,0,1.38-2.7,7.4,7.4,0,0,0,.55-2.08c0-1.1-.24-1.6-1.23-1.74a5.92,5.92,0,0,1-.8-0.15,0.74,0.74,0,0,0-.86.31,6.62,6.62,0,0,0-1.13,3,0.66,0.66,0,0,0,0,.37c0.43,1.18.86,2.36,1.36,3.72m12.87-3.2-0.07-.08a50.79,50.79,0,0,1-4.61,2.64,19,19,0,0,0-3.15,1.89c-2.17,1.62-4.42,3-7.08,3.21l-2.78.21-0.67,0c0,0.07,0,.14,0,0.21,1.25,0.23,2.5.48,3.75,0.68a4.67,4.67,0,0,0,2.74-.37c1.14-.53,2.31-1,3.4-1.63a23.91,23.91,0,0,0,3.3-2.15c1.47-1.18,2.83-2.5,4.24-3.76,0.32-.29.63-0.6,0.95-0.9m4.54-16.18a3.19,3.19,0,0,1,.65,1.94c0.16,1.95.44,3.88,0.53,5.83a16.53,16.53,0,0,1-1.38,6.85c-0.45,1.15-.92,2.28-1.4,3.42a2.34,2.34,0,0,1-.53.73c-1.35,1.17-2.75,2.28-4.06,3.5a18.29,18.29,0,0,1-3.5,2.36c-3,1.75-6.44,2.42-9.78,3.26a14.59,14.59,0,0,1-2.14.28,3.74,3.74,0,0,1-2.1-.35l-3.07-1.52a2.09,2.09,0,0,1-1-1.2c-1.44-3.52-1.51-7.21-1.53-10.92,0-.63,0-1.26,0-1.9a12,12,0,0,1,1.44-5.08,22.79,22.79,0,0,1,2.22-3.82,11.28,11.28,0,0,1,2.31-2.12c2-1.54,4-3,6.08-4.51a2.12,2.12,0,0,1,.93-0.38c2-.3,4-0.57,6-0.83a13.77,13.77,0,0,1,5.1.07,5.5,5.5,0,0,1,3.66,2.39c0.38,0.61.86,1.16,1.5,2" transform="translate(552.98 -8386.03)"/>
      <path d="M-500.56,8756.29a11.74,11.74,0,0,0-.66,2.85,0.52,0.52,0,0,0,.08.36c0.35,0.46.71,0.9,1.07,1.35a2,2,0,0,0,.67-2.75c-0.33-.59-0.73-1.14-1.16-1.81m7.46-.47a10.13,10.13,0,0,0-2.63,1.58,5.45,5.45,0,0,0-1.47,2.5,4,4,0,0,0,1.15.3,2.91,2.91,0,0,0,1.58-.57,1.85,1.85,0,0,0,.51-1.13c0.08-.25.17-0.49,0.25-0.74l0.62-1.94m-11.72,8.77,0,0.16,2.58,0.7a1.7,1.7,0,0,0,.27.09,0.63,0.63,0,0,0,.34,0c0.56-.31,1.12-0.62,1.65-1a0.68,0.68,0,0,0,.29-0.48,1.46,1.46,0,0,0-1.91-1.48,8.75,8.75,0,0,0-3.27,2m14.32-.48c0-.06,0-0.12,0-0.18-0.7-.18-1.39-0.39-2.09-0.54-1-.21-1.93-0.42-2.91-0.57a0.8,0.8,0,0,0-1,.6c-0.17.41-.29,0.84-0.43,1.22a2.2,2.2,0,0,0,2.84.8l1.58-.6,2-.73m-7.32,8,0.38-.68a5.31,5.31,0,0,0,.52-2.33,5.78,5.78,0,0,0,0-1.69,1.06,1.06,0,0,0-1.28-1.08,4.72,4.72,0,0,1-.64,0,0.59,0.59,0,0,0-.59.41,5.23,5.23,0,0,0-.26,2.5l0.09,0.27,1.77,2.56m9.4-18.22a2.5,2.5,0,0,1,.88,1.35c0.51,1.45,1.11,2.87,1.57,4.33a13.11,13.11,0,0,1,.31,5.49c-0.11,1-.25,1.92-0.39,2.88a1.81,1.81,0,0,1-.25.65c-0.8,1.16-1.65,2.29-2.4,3.48a14.44,14.44,0,0,1-2.19,2.49,29.25,29.25,0,0,1-6.8,4.43,11.36,11.36,0,0,1-1.57.64,2.94,2.94,0,0,1-1.67.16l-2.63-.55a1.65,1.65,0,0,1-1-.71,22.57,22.57,0,0,1-3.33-8c-0.13-.48-0.23-1-0.36-1.45a9.43,9.43,0,0,1,.09-4.15,17.87,17.87,0,0,1,.93-3.34,9,9,0,0,1,1.33-2.08c1.22-1.57,2.47-3.11,3.73-4.65a1.63,1.63,0,0,1,.62-0.47c1.47-.63,3-1.24,4.44-1.84a10.83,10.83,0,0,1,3.9-1,4.32,4.32,0,0,1,3.26,1.09c0.41,0.39.89,0.71,1.54,1.22" transform="translate(552.98 -8386.03)"/>
      <path d="M-488.45,8705.84c2.81,1.72,4.54,1.26,5.19-1.53a17.82,17.82,0,0,0-5.19,1.53m-8.05-9.79c-0.58,3.69.05,6,1.86,7.19a1.28,1.28,0,0,0,.23-0.28c1.18-2.92-1.12-4.7-2.09-6.91m8.09,2.25-0.75,3.61c2.8-1.16,4.41-3,4.85-5.64a6.41,6.41,0,0,0-4.11,2m-13.22,15.85c3-.19,5.08-1.52,5.43-5.18-3.27.21-3.92,3-5.43,5.18m12.5,1.14c0.75-3.62.2-5.13-2.12-6.18-1,3.62-1,4.14.34,6.24l1.78-.06m-13.22-16.4c1.67-2.39,3.21-4.89,5-7.16a16.52,16.52,0,0,1,7.47-5.08c4.14-1.48,4.42-1.41,7.93,1.23,1.85,1.39,3.86,2.67,4.67,5.05a15.66,15.66,0,0,1,.59,1.64c0.51,2.35,1,4.69,1.44,7.06,0.81,4.82-.19,9.42-2,13.87A11.33,11.33,0,0,1-482,8721c-1.94,1.17-4,2.19-6,3.25a1.6,1.6,0,0,1-1.1.23c-2.51-.88-5.12-0.63-7.69-0.61-2.26,0-3.64-.95-4.85-3a12.08,12.08,0,0,0-2.25-2.67c-1.81-1.7-1.8-3.91-1.89-6.07a11.33,11.33,0,0,1,.1-2.2c0.34-2.26.15-4.69,0.8-6.88,0.44-1.5,1.58-2.79,2.41-4.18l0.08,0" transform="translate(552.98 -8386.03)"/>
      <path d="M-531.07,8744.5c2.57,0.67,3.81-.63,3.85-3.84a19.47,19.47,0,0,0-3.85,3.84m4.56-10.3a1.14,1.14,0,0,0,.34-0.08c-0.07-2.11-1.58-3.68-4.82-4.81,1.29,1.83,1.55,4.63,4.48,4.89M-537,8740c2.31,0.77,4.62.21,7-1.72l-3.26-1A6.83,6.83,0,0,0-537,8740m16.18-4.7c3.1,1.32,5.23.09,6.89-2.42-2.48.36-5.07-.33-6.89,2.42m2.44,7.45c-1-2.08-1.42-2.34-4.82-3.07-0.33,2.48.6,3.63,3.88,4.59l0.95-1.52m-7.41-17.37c1.53-.1,3.14-0.52,4.56-0.23,1.9,0.38,3.62,1.46,5.42,2.18a18.12,18.12,0,0,1,2.75,1.35c1.47,0.91,2.92,1.85,3.4,3.79a35.76,35.76,0,0,0,1.48,4.34,4.86,4.86,0,0,1-.46,4.65c-1.31,2.21-2.83,4.37-3.39,7a1.78,1.78,0,0,1-.74.86c-1.86,1.28-3.7,2.59-5.62,3.74a11,11,0,0,1-6.8,1.75c-4.46-.44-8.65-1.62-12.11-4.47-1.69-1.4-3.3-2.9-4.92-4.39a12.41,12.41,0,0,1-1-1.24c-1.5-1.76-1.51-4.08-1.69-6.31-0.35-4.22-.26-4.5,3-7.44a17.15,17.15,0,0,1,7.84-4.24c2.74-.58,5.52-0.81,8.28-1.2v-0.09Z" transform="translate(552.98 -8386.03)"/>
      <path d="M-422.54,8697.11c1.43-.24,2.82-0.41,4.09-0.71,2.21-.53,4.36-1.14,6.52-1.72a38.85,38.85,0,0,0,7.64-3.06c1.39-.71,2.83-1.4,4.28-2.09a10.85,10.85,0,0,1,3.32-.83c2.59-.3,5.25-0.45,7.93-0.52a44.6,44.6,0,0,0,8.95-1c0.33-.08.64-0.18,1-0.29,0.47,1.45.91,2.87,1.4,4.29a12.77,12.77,0,0,0,.63,1.29,2,2,0,0,0,1.47.77l4.14,0.85a2.91,2.91,0,0,1,1.44.66c0.43,0.38.89,0.76,1.33,1.14a28,28,0,0,1-5.13,3.6c-0.66.37-1.38,0.72-2.11,1.06a8.73,8.73,0,0,1-3.55.63,63.61,63.61,0,0,1-6.66-.31,46.73,46.73,0,0,0-7.05-.12c-1.15.06-2.18,0.68-3,.27a2.88,2.88,0,0,0-3.24.69c-1.36,1.33-3.2,1.21-5,1.12-2.16-.11-4.31-0.22-6.47-0.3a29.25,29.25,0,0,0-5.43.3c-0.84.12-1,.09-1.3-0.39-0.42-.64-0.76-1.3-1.17-1.94a3.52,3.52,0,0,0-.76-0.89c-1-.84-2.15-1.67-3.28-2.54" transform="translate(552.98 -8386.03)"/>
      <path d="M-398.29,8645.79c-0.42.13-.67,0.19-0.91,0.28-1.45.55-2.91-3-4.32-2.31a31.63,31.63,0,0,0-4.12,2.09c-2.41,1.55-5,2.81-7.4,4.41a63.85,63.85,0,0,0-10.67,9.54,13.39,13.39,0,0,1-6.68,3.83,96.93,96.93,0,0,1-11.62,2,36.73,36.73,0,0,0-11.42,3.48l3.34,3.16a3.12,3.12,0,0,1,1,2.08,18.6,18.6,0,0,0,.4,2.22,1.42,1.42,0,0,0,1.37,1.19,128.14,128.14,0,0,0,13.83,1.46,23.62,23.62,0,0,0,5.67-.3,74.43,74.43,0,0,0,7.62-2.26,17.85,17.85,0,0,0,6.44-3.77,30.93,30.93,0,0,1,4.14-3.16,6.38,6.38,0,0,1,2.6-.84c1.88-.21,3.79-0.21,5.68-0.39a16.77,16.77,0,0,0,6.56-1.92,68.74,68.74,0,0,0,6.7-4.76c0.82-.58,1.6-1.21,2.42-1.83-1-.95-1.86-1.84-2.81-2.57a84.94,84.94,0,0,1-7.43-6.4,3.58,3.58,0,0,1-1.07-3.33C-398.72,8645.78-398.29,8645.79-398.29,8645.79Z" transform="translate(552.98 -8386.03)"/>
      <path d="M-528.71,8497.81a1.22,1.22,0,0,1,0,.34l-2.19,3c-1.53-.14-3.09-0.16-4.6-0.45a3.18,3.18,0,0,1-2.08-3.58,12.41,12.41,0,0,1,.37-1.38,1.56,1.56,0,0,1,1.76-1.17c1.39,0.14,2.78.23,4.16,0.42a1.93,1.93,0,0,1,1.1.61c0.58,0.74,1.07,1.56,1.52,2.24" transform="translate(552.98 -8386.03)"/>
      <path d="M-495.88,8479.48a0.81,0.81,0,0,1,0-.26l1.43-2.49a31.57,31.57,0,0,1,3.29-.27,2.06,2.06,0,0,1,1.63,2.37,9.31,9.31,0,0,1-.2,1.07,1.3,1.3,0,0,1-1.2,1.1c-1,.08-2,0.19-3,0.24a1.18,1.18,0,0,1-.8-0.31c-0.44-.47-0.82-1-1.18-1.46" transform="translate(552.98 -8386.03)"/>
      <path d="M-512.6,8475.34a0.93,0.93,0,0,1-.25,0l-2.5-1c-0.17-1-.42-2.08-0.51-3.12a2.18,2.18,0,0,1,2.11-2.34,9.25,9.25,0,0,1,1,0,1.14,1.14,0,0,1,1.15,1c0.16,1,.35,2,0.48,3a1.4,1.4,0,0,1-.23.88c-0.41.55-.9,1-1.29,1.49" transform="translate(552.98 -8386.03)"/>
      <path d="M-502.77,8516.07c-2.13.44-3.89,0.84-5.66,1.13a1.88,1.88,0,0,1-1.39-.42c-1.89-1.74-3.72-3.55-5.92-5.67,1.07-.18,1.73-0.33,2.39-0.39,1-.1,2-0.15,3-0.2,4.05-.21,4.06-0.21,6.21,3.16,0.42,0.66.76,1.37,1.33,2.4" transform="translate(552.98 -8386.03)"/>
      <path d="M-501.39,8476.7c0.8,2,1.5,3.67,2.09,5.35a1.75,1.75,0,0,1-.12,1.35c-1.29,2-2.65,4-4.24,6.41-0.36-1-.62-1.63-0.81-2.27-0.27-1-.51-1.93-0.74-2.91-0.94-3.9-.94-3.9,1.82-6.37,0.54-.48,1.14-0.89,2-1.56" transform="translate(552.98 -8386.03)"/>
      <path d="M-521,8493.41l4.37-1.55,1.24,5.66-4.76,2.74-0.86-6.86" transform="translate(552.98 -8386.03)"/>
      <path d="M-529.16,8522.73c0.11,1.81.19,3.17,0.28,4.63l-5.78-.36-1.32-5.33,6.82,1.06" transform="translate(552.98 -8386.03)"/>
      <path d="M-538.25,8508l-3.43,4.24-2.7-2.53c1-3,1.82-4.46,3.2-5.67l2.93,4" transform="translate(552.98 -8386.03)"/>
      <path d="M-522.47,8515.89l-5.4.7c-0.12-1.7-.23-3.17-0.32-4.54,2.81-1.75,4.35-2.29,6.19-2.15-0.16,2-.31,4-0.46,6" transform="translate(552.98 -8386.03)"/>
      <path d="M-504,8500.62l-5.4.7c-0.12-1.7-.23-3.17-0.32-4.54,2.81-1.75,4.35-2.29,6.19-2.15-0.16,2-.31,4-0.46,6" transform="translate(552.98 -8386.03)"/>
    </g>
    <path d="M-443.73,8419.45a18.08,18.08,0,0,1-.47,4.82,43.1,43.1,0,0,1-2.92,8.76,18.36,18.36,0,0,1-3.82,5.33,10.35,10.35,0,0,1-3.42,2.14c-1.53.62-3.06,1.24-4.61,1.8a23,23,0,0,1-9.16,1.29c-1.23-.07-2.46-0.18-3.68-0.36a9.78,9.78,0,0,1-4.69-2.31c-1-.84-2-1.75-3-2.6a8.6,8.6,0,0,1-2.15-3.32c-0.49-1.08-1-2.17-1.43-3.27a22.09,22.09,0,0,1-1.5-10.45,63.23,63.23,0,0,1,5.7-20.25,45.43,45.43,0,0,1,7.26-11,11.84,11.84,0,0,1,2.8-2.21c0.42-.26.85-0.49,1.25-0.77a5,5,0,0,1,6-.07,36.57,36.57,0,0,1,8.26,7.32,25.39,25.39,0,0,1,3.72,6.3c1.25,3,2.56,6.05,3.77,9.11a24.92,24.92,0,0,1,2.05,7.93C-443.75,8418.26-443.75,8418.85-443.73,8419.45Zm-33.9,5.15a23.29,23.29,0,0,0,.81,5.23,3,3,0,0,0,.82,1.38c0.73,0.71,1.45,1.43,2.15,2.16a15.08,15.08,0,0,0,5.64,3.75,3,3,0,0,0,1.46.3,41.22,41.22,0,0,0,4.5-1.11,13.62,13.62,0,0,0,4.06-1.84,22.83,22.83,0,0,0,4.45-4.16,2.15,2.15,0,0,0,.43-0.91,18,18,0,0,0,.23-5.79,18,18,0,0,0-2.12-6.58,3.28,3.28,0,0,0-1.52-1.57c-0.65-.28-1.26-0.64-1.91-0.9-1.51-.59-3.08-1.07-4.56-1.74a5.27,5.27,0,0,0-2.93-.33c-0.3,0-.59.08-0.88,0.14a16.84,16.84,0,0,0-5,1.59,17.93,17.93,0,0,0-4.48,3.62,1.52,1.52,0,0,0-.4.68A29.1,29.1,0,0,0-477.63,8424.6Z" transform="translate(552.98 -8386.03)"/>
  </g>
</svg>
