<svg id="Design" xmlns="http://www.w3.org/2000/svg" width="194.6" height="343.6" viewBox="0 0 194.6 343.6"><defs><style>.cls-1{fill:#fff;}</style></defs><title>h_w_noodles</title><path class="cls-1" d="M683.6,5295.9l-9.6,3.5c-10,3.7-19.9,7.5-29.8,11.4s-20.1,8.1-30.1,12.3c-5.8,2.4-11.4,5.3-17.1,7.8l-26.7,12-1,.2-1.1-3.9,4.6-3.1c4.6-3,9.3-6,13.8-9.1l18-12.6c10.1-7,20.2-13.9,30.4-20.7,12.4-8.3,24.7-16.6,36.6-25.7a65,65,0,0,0-6.6-7.8l-23.1,16.7-22.9,16.3-22.6,15.8-16.3,11.8c-3.3,2.4-6.3,5.1-9.7,7.4s-8.9,5.6-13.4,8.4a8.6,8.6,0,0,1-2.4,1l-6.8,1.5a66.5,66.5,0,0,0-19,7c-5.6,3-10.9,6.3-16.3,9.6a21.7,21.7,0,0,0-4,3.3c-1.9,1.9-3.7,3.9-5.4,6a25.1,25.1,0,0,0-4.1,6.4,19.5,19.5,0,0,0-1.1,9.9c0.5,4.1,1,8.2,1.3,12.3a208.1,208.1,0,0,0,3.2,22.5,52.2,52.2,0,0,1,1.3,8.1,59.5,59.5,0,0,1-1.6,16c-1.7,6.9-3.6,13.7-5.5,20.5a34,34,0,0,0-1.4,11.1,108.6,108.6,0,0,1,.3,12,100.4,100.4,0,0,0,1.9,26.3,45.9,45.9,0,0,0,5.6,14.9,31.3,31.3,0,0,1,4.3,12.9c0.5,4.7,1.1,9.3,1.5,14s0.7,7.5.9,11.2c0.1,1.4.1,2.7,0.1,4.1h9.3c-0.3-3.7-.5-7.4-0.6-11.1-0.1-6.9-.2-13.9-0.6-20.8s-1.9-12.5-3.3-18.7c-2.1-9.5-4.5-18.9-6.4-28.4a85.8,85.8,0,0,1-1.7-20c0.2-7.1,1.1-14.2,2-21.3,0.3-3,.6-6,0.7-9s0.2-5.6.2-8.4c0-4.7-.9-9.2-1.6-13.8s-1.6-11.5-2.5-17.3-0.6-11.2-.3-16.8,1.6-8.7,2.9-12.9h0.5c-0.1,2.3-.1,4.6-0.2,6.9-0.2,4.3-.4,8.5-0.5,12.8s1,9.5,2.1,14.1c0.8,3.1,1.9,6.1,2.4,9.3a60,60,0,0,1,.9,9c0.2,6.1.3,12.1,0.3,18.2,0,9.1-1.1,18.1-2,27.1a78.3,78.3,0,0,0,1.3,27l3.8,15.7,3.6,15c1.2,5.2,1.3,10.5,1.4,15.9s0.4,13.6.7,20.4c0.1,2.3.1,4.7,0,7H531a24.8,24.8,0,0,1-.3-2.5,152.3,152.3,0,0,1,.4-19.3c0.3-3.2.8-6.5,1.1-9.7s0.6-8.7.9-13.1,0.7-8.5,1.3-12.7c0.8-6.6,1.7-13.1,2.7-19.7,0.7-4.4,1.5-8.9,2.6-13.3s2.7-8.4,4.1-12.7,3.1-9.9,4.6-14.9,2.7-9.1,3.9-13.7,2.3-10.2,3.3-15.4,2.3-13.3,4.1-19.8a76.9,76.9,0,0,0,2.8-25.1,123.3,123.3,0,0,0-2.8-19.9c-0.6-2.6-1.2-5.1-1.8-7.7-0.1-.6-0.2-1.2-0.2-1.7H558c1.4,3.8,3.1,7.6,4.3,11.5a74.4,74.4,0,0,1,3.2,18.1,116.5,116.5,0,0,1-.7,20.8c-0.6,4.4-2.3,8.4-3.5,12.6-1.7,5.7-3.2,11.4-4.3,17.3a240.7,240.7,0,0,1-7.2,28.9q-4.1,12.5-6.9,25.3c-1.1,4.8-2.1,9.5-3.1,14.3-2,9.6-2.7,19.3-3,29a212.6,212.6,0,0,1-2.2,22c-1,6.8-1.3,13.7-1.9,20.5v0.6H533c3.4-.1,6.7-0.3,10.1-0.6a0.5,0.5,0,0,1,0-.1l1.8-6.3c1.3-4.8,3-9.5,4-14.5s1.8-9.9,2.4-15c0.8-7,1.4-13.9,2.4-20.9a102.1,102.1,0,0,1,4.2-17.9c1.7-4.9,3.5-9.8,5.3-14.6s2.9-7.3,4.1-11.1q3.1-9.6,5.9-19.2c1.5-5.3,3.2-10.5,3.5-16.1,0.6-9.2.6-18.4,0.4-27.6-0.2-5.7-.7-11.5-1.2-17.2s-1.1-13.3-2-20c-0.6-4.9-1.8-9.7-1.5-14.8l5.1-1.7c7.2-2.3,14.5-4.3,21.6-7,10.6-3.9,21-8.1,31.4-12.4,6.9-2.9,13.7-6.2,20.6-9.1,11.2-4.6,22.5-9.1,33.8-13.5l3.6-1.4C687.1,5302.8,685.4,5299.3,683.6,5295.9Zm-169.8,240,0.3-1h0.4a41.1,41.1,0,0,1,.4,9.9q-0.3,4-.8,8a60.4,60.4,0,0,0,.3,11.8c0.1,0.7.1,1.3,0.1,2a37.4,37.4,0,0,1-2.6-14.5c0.1-1.9-.1-3.9,0-5.8a56,56,0,0,1,.9-5.7C513.1,5539.1,513.5,5537.5,513.8,5535.9Zm-4.4-22.8a69.4,69.4,0,0,1,2.6,15.8c-0.8-1.8-1.7-3.6-2.4-5.4-1.8-4.8-3.7-9.7-5.3-14.6a70.3,70.3,0,0,1-2-8.4c-1.1-5.6-2.4-11.2-2.3-16.9,0.1-3.9.6-7.7,1-11.6,0.1-.8.3-1.6,0.4-2.4,0.9,1.4.8,2.9,0.9,4.3,0.1,4.8.2,9.5,0.3,14.3a31,31,0,0,0,1.8,9C506,5502.5,507.9,5507.8,509.4,5513.1Zm6.8-118.5a103.8,103.8,0,0,1,1-21.9,30.4,30.4,0,0,1,4.3-12.1,55.8,55.8,0,0,1,5.8-6.6,17.7,17.7,0,0,1,3.6-3,3,3,0,0,1-.2.9l-1.1,1.5c-4,5.1-6.2,11-7.9,17.1a33.1,33.1,0,0,0-.7,11.9c0.3,3.7.7,7.5,1.3,11.2,1.3,7.7.6,15.2-.9,22.7-0.8,4.2-1.5,8.4-2.3,12.6l-0.3,1.2h-0.5c-0.4-4-.9-8-1.1-11.9C516.8,5410.4,516.5,5402.5,516.2,5394.6Zm3.5,86.6c0,2.5-.1,5-0.2,7.5,0,0.7-.1,1.5-0.2,2.4l-0.3-.5c-1.1-7-2.3-14.1-1.8-21.3a83.1,83.1,0,0,1,1.8-10.9c0.9-4.3,2-8.6,3.1-12.9s2-6.7,2.8-10.1,1.9-9.4,2.8-14.2c0.2-.9.2-1.7,0.4-2.6a57.8,57.8,0,0,0,.3-16.1c-0.5-5-1.2-9.9-1.7-14.9a34.6,34.6,0,0,1,1.1-14.3,65.6,65.6,0,0,1,4.6-11.1,50.5,50.5,0,0,1,5.1-7.2,36.2,36.2,0,0,1,7.7-7.1l1.7-1c0.4,1-.3,1.4-0.7,1.8l-3.3,3.8a43.8,43.8,0,0,0-8,13.1c-1.3,3.3-1.6,6.7-1.9,10.1a119.1,119.1,0,0,0-.1,21.9,120.5,120.5,0,0,1-1.1,28.4c-0.4,2.3-.6,4.7-0.9,7.1a103.4,103.4,0,0,1-4.2,17.9q-1.8,5.4-3.6,10.9A60.3,60.3,0,0,0,519.7,5481.2Zm24.1-104.6a98,98,0,0,0-1.2,16.1q0.4,8.7.6,17.5c0.3,10.5-.3,21-2.8,31.3-1,3.9-2.3,7.8-3.5,11.7-4.4,14.3-7.5,28.8-8,43.8-0.2,7.2-.5,14.4-0.7,21.6-0.1,4.1.1,8.1,0,12.2s-0.5,6-.7,9a7.6,7.6,0,0,1-.2,1H527a58.6,58.6,0,0,1-1.4-6.7c-0.4-4-.5-8.1-0.7-12.2s-0.6-8.6-.7-12.9c-0.1-6.2-.3-12.4.1-18.6s1.4-12.3,2.3-18.4c0.4-2.7,1.3-5.3,1.9-8,1.4-6.5,3.8-12.7,5.7-19,0.9-2.9,1.4-6,2.2-8.9s1.1-4.1,1.5-6.2a31.5,31.5,0,0,0,.6-5.2c0.1-4,.1-8,0.1-12s-0.2-10.6-.3-15.9-0.3-7.8,0-11.6a71.7,71.7,0,0,1,1.8-12.2c0.7-2.9,2.3-5.7,3.7-8.4a41.6,41.6,0,0,1,7.3-9.7l2.2-2c0.8,0.6.5,1,.1,1.5-1.5,2.4-3.1,4.9-4.4,7.4A41.8,41.8,0,0,0,543.8,5376.6Zm12.8-12.9c-1.3,5.2-2.9,10.4-2.8,15.8,0,3.6.3,7.1,0.5,10.7a38.8,38.8,0,0,1-.4,10.3c-1.5,8-3.1,16-4.6,23.9-0.6,3.2-1,6.4-1.6,9.6-0.1.5-.2,0.9-0.4,1.4a39.6,39.6,0,0,1-.5-10.5c0.5-6.8,1.2-13.6,1.5-20.4a104.7,104.7,0,0,0-.5-12.3c-0.6-8.4.6-16.3,4.8-23.7a41.6,41.6,0,0,1,4.1-5.9Zm-12.8,126.2c1.3,9.7-.9,18.7-2.8,27.8C539.9,5510.3,540.8,5498.5,543.8,5489.9Zm6.6,20.8c-1.6,8.5-2.8,17-4.5,25.5s-3.7,16.1-5.6,24.1l-0.4.7c0-2.5,0-4.8.1-7a194.7,194.7,0,0,1,3.5-30.5c1-5.2,2.2-10.4,3.3-15.6a22.3,22.3,0,0,0,.4-3.5c0.1-3.3.3-6.6,0.3-9.9s-0.3-5.6-.4-8.4-0.2-6.5-.2-9.7h0.3l3,17.6c0.2,1.1.3,2.2,0.4,3.4A40.7,40.7,0,0,1,550.5,5510.7Zm22.2-120.6c0.1,4.8.1,9.6,0.1,14.4s-0.1,9.5-.3,14.3a68.5,68.5,0,0,1-3.5,18c-1.7,5.3-3.5,10.6-5.3,15.8s-4.3,11-5.3,16.8c-0.7,3.9-1.2,7.9-1.6,11.9a26,26,0,0,1-2.2,8.3l-0.7,1.2a7.6,7.6,0,0,1-.3-1.4c0-5.3-.2-10.5.2-15.8a42.6,42.6,0,0,1,1.9-9c1.7-5.9,3.6-11.8,5.5-17.7,1-3,1.9-6.1,3-9.1,2-5.6,2.8-11.5,3.8-17.4,0.7-4.1,1.2-8.3,1.7-12.5s0.5-7.3.8-11,0.1-9.1,1-13.6a9.4,9.4,0,0,0,0-3.2c-0.6-3.8-1.3-7.5-2-11.3l-2-10.7c-0.4-2.3-.8-4.7-1.2-7-0.1-.7-0.1-1.4-0.2-2h0.3l0.4,0.6a84.9,84.9,0,0,1,5.5,22.8c0.3,3.7.2,7.4,0.3,11.1S572.6,5387.8,572.6,5390.1Z" transform="translate(-494.2 -5260.1)"/><path class="cls-1" d="M543.3,5593c3.7-2.4,7.3-4.9,10-8.4a23.3,23.3,0,0,0,4.7-8.9c0.3-1.4.6-2.8,0.9-4.2l0.2-1.1a17.5,17.5,0,0,0,.2-4.1H545.8c-5,0-10.1.3-15.1,0l-26-1.4c-2.7-.1-9.6-0.8-10.4-0.7a13.3,13.3,0,0,0,.2,1.9c0.9,3.9,1.6,7.8,2.7,11.6,2,7.1,6.7,11.9,13.3,15l6.7,3-0.4,7.4c5,1.3,22,1.1,25.7-.3-0.1-.9-0.2-1.8-0.3-2.7s-0.5-2.9-.8-4.4a1.3,1.3,0,0,1,.7-1.6Z" transform="translate(-494.2 -5260.1)"/></svg>