<svg xmlns="http://www.w3.org/2000/svg" width="281" height="167" viewBox="0 0 281 167">
  <defs>
    <style>
      .cls-1 {
        fill: #e14c9a;
      }

      .cls-2 {
        fill: #fff;
      }
    </style>
  </defs>
  <title>h_w_m_ta</title>
  <g id="Layer_2" data-name="Layer 2">
    <g id="Design">
      <g>
        <g>
          <rect class="cls-1" x="1.5" y="1.5" width="278" height="164"/>
          <path class="cls-2" d="M278,3V164H3V3H278m3-3H0V167H281V0Z"/>
        </g>
        <g>
          <path class="cls-2" d="M44.47,75.59V37.36H41.18V29.93H69.56V75.59ZM61.33,37.36H52.7v30.8h8.64Z"/>
          <path class="cls-2" d="M79.84,59.08V37.36H75.73V29.93H88.06V59.08Z"/>
          <path class="cls-2" d="M112.33,75.59V37.36h-8.64V75.59H95.47V29.93h25.08V75.59Z"/>
          <path class="cls-2" d="M128.78,75.59V29.93H137V75.59Z"/>
          <path class="cls-2" d="M157.48,75.59h-10.2V68.33h10.2v-31H142.76V23.9H151v6h14.72V67.25A8.28,8.28,0,0,1,157.48,75.59Z"/>
          <path class="cls-2" d="M205.68,70.31c-.25,3.88-2.22,5.28-5.18,5.28H173.93l-2.88-45.66h7.73l1.32,20.72h4.77l1.07-20.72h7.81l-1.65,28.16H180.76l.49,10.07H198l2.47-38.23h7.81Z"/>
          <path class="cls-2" d="M226.74,75.59V68.16h3.7V37.36h-6.83l-2.47,38.23h-7.81l2.47-38.23h-2.63V29.93H223v2.72L227,29.93h7.57a4.08,4.08,0,0,1,4.11,4.13V75.59Z"/>
          <path class="cls-2" d="M23.51,143.59v-39h-7.3V97.72H40v6.89H32.8v39Z"/>
          <path class="cls-2" d="M41.26,143.59l8.93-45.88h10.2l8.9,45.88H60.67L59,133.44H51.74l-1.68,10.15Zm11.36-15.94H58l-2.73-18.26Z"/>
          <path class="cls-2" d="M73.81,143.59V97.72H83.1v19.23l8.3-19.23h9l-8.57,20.64L101,143.59h-9.4l-7.22-21-1.3,2.21v18.79Z"/>
          <path class="cls-2" d="M104.88,143.59V97.72h19.9v6.47H114.17v12.15h8.24v6.53h-8.24v14.36h10.72v6.36Z"/>
          <path class="cls-2" d="M141.51,143.59l8.93-45.88h10.2l8.9,45.88h-8.63l-1.68-10.15H152l-1.68,10.15Zm11.36-15.94h5.43l-2.73-18.26Z"/>
          <path class="cls-2" d="M177.67,143.59l-6-45.88h7.85l3.17,28,4.11-28H193l4.27,27.89,3.17-27.89h7.77l-6,45.88h-7.83l-4.47-29-4.35,29Z"/>
          <path class="cls-2" d="M209.86,143.59l8.93-45.88H229l8.9,45.88h-8.63l-1.68-10.15h-7.25l-1.68,10.15Zm11.36-15.94h5.43l-2.73-18.26Z"/>
          <path class="cls-2" d="M247,143.59V125.42l-9-27.7h8.71l4.93,16.21,4.6-16.21h8.52l-8.9,27.7v18.18Z"/>
        </g>
      </g>
    </g>
  </g>
</svg>
