<svg xmlns="http://www.w3.org/2000/svg" viewBox="0 0 151 337"><defs><style>.cls-1{fill:#fff;}</style></defs><title>Asset 20</title><g id="Layer_2" data-name="Layer 2"><g id="Links_Info" data-name="Links&amp;Info"><path class="cls-1" d="M82.46,59.39s-10.58,2.37-18.21,2.54a139.89,139.89,0,0,1-22.87-1.21c-6.55-1-17.44-.89-19.29-3.16A16.81,16.81,0,0,1,19.28,45c.9-5.38,2.88-13.68,7.66-19.73A93.84,93.84,0,0,1,38.67,13.41s20-10.27,36-12.88C85.23-1.2,114.2,1.7,117.47,3.46s10.65,2.22,14.79,8.77S141.38,23,141,26.56s-.26,6.57-2.69,9.42S128,44.61,128,44.61s-18.28,9.07-22.74,9.68-22.8,5.1-22.8,5.1"/><path class="cls-1" d="M25.56,283.16a2.48,2.48,0,0,0-.56.52,1.12,1.12,0,0,0,0,.15A8.13,8.13,0,0,1,25.56,283.16Z"/><path class="cls-1" d="M121.85,318.13c-3.84,2-15.66,2.66-28.44,4.33S60,316.92,56.13,316.09s-11.24-4.65-16.42-6.77-4.68-3-4.68-3l-2.5-2.62s-.24-5.09,1-3.06S40.28,306,40.28,306c4.41,2.16,9.12,4.93,18.26,7.42,6.19,1.69,13.75,4.21,25,4.56s20.37.59,27.36-.76,15.31-3.2,19.36-5.63a84.21,84.21,0,0,0,12-8.59c.27-1.8,0-2.78-.55-3-.73-1.78-2.68-2.64-4.29-4-1.89-1.58-4.25-4.57-7.4-8.2s-11.82-6-13.71-6.78-12.13-1.58-12.92-1.58H89.94a181.5,181.5,0,0,1-19.23-1.89c-6.46-1.1-7.41-.63-7.41-.63l-12.61-.79-8.54,1.67-8.83,1.74a13.51,13.51,0,0,0-7.49,3.32c-.7,0-1,.32-.85.81a2.48,2.48,0,0,1,.56-.52,8.13,8.13,0,0,0-.54.66,1.12,1.12,0,0,1,0-.15,7.83,7.83,0,0,0-1.17,2.42,28.27,28.27,0,0,0-1,5.08c-1.15,9.66,3.78,18.4,3.78,18.4s2,4.63,9.45,11.92,24.76,11.83,39,13.85,29,2.22,40.53.46,12.63-5.2,20.58-13.33a17.08,17.08,0,0,0,5.29-11.87,2.16,2.16,0,0,0,.35-.78c.1-.72.17-1.53.22-2.36-1.46,1.53-6.24,3.48-9,5.58S125.7,316.1,121.85,318.13Z"/><path class="cls-1" d="M90.91,189.45a76.64,76.64,0,0,1,3-9,58.7,58.7,0,0,1,2.85,7.94,9.77,9.77,0,0,1-5.84,1M85.7,177.76c2.37-.15,4.67-.56,7.19-.56-1.92,3-3.08,6.15-5.18,9-1.2-2.81-2.23-5.41-2-8.48m15.77-11.38c.42-1.35.53-2.86,1.8-4.11.66,2.2,1.51,4.06,1.58,6.14l0,.09-4.44,2.44c.39-1.69.65-3.15,1.08-4.56m-14.19,6.08A14.71,14.71,0,0,1,90.53,167,18.67,18.67,0,0,1,93,172.93c-.85.32-4,.06-5.75-.48m13-12c-.14,1.26-.23,2.42-.39,3.57-.23,1.6-.5,3.19-.77,4.79-.2,1.18-.24,1.21-1.66,1.51-1.71-2-3-4.37-4.76-6.58,2.48-1.31,4.68-2.89,7.57-3.29m3.29,14c-.36.33-.93.24-1.91-.14-.5-.2-1-.42-1.7-.72,1-.28,2.61-.56,4-.82l.19,0a.46.46,0,0,1,0,.15,2.68,2.68,0,0,1-.57,1.58m-1.15,2.83c-1.27,2.65-2.35,5.32-3.74,7.92-.76-1.07-2.21-8.26-2.05-9.88a15.81,15.81,0,0,1,5.79,2m-2.16,12.38c1.86-2,6.61-4.26,7.61-6.78.8-2,1.27-3.76,2-5.79a17.94,17.94,0,0,0,.35-2.45c.15-3.7-.65-7.33-1.14-11-.1-.72-.44-1.24-.5-2a16.46,16.46,0,0,0-1.15-4.94,13.82,13.82,0,0,0-2.79-1.38,22.27,22.27,0,0,0-6.55.63,15,15,0,0,0-4.71,2.35,19.72,19.72,0,0,0-6,6.18c-1.45,2.43-2.87,4.88-4.35,7.29a4.11,4.11,0,0,0-.64,2.18c0,1.28-.12,2.57-.06,3.85.09,2.16.27,4.32.43,6.48a2.19,2.19,0,0,0,.25.95c.81,1.31,1.63,2.61,2.5,3.89a3.18,3.18,0,0,0,1,.85c1.61,1,3.27,2,4.87,3,.37.24.73.12,1.11.29,2.36,1.08,7.81-3.61,7.81-3.61"/><path class="cls-1" d="M48.78,222a2.61,2.61,0,0,1,1,1.36c.59,1.47,1.26,2.92,1.8,4.41a13.45,13.45,0,0,1,.55,5.66c-.07,1-.18,2-.28,3a1.27,1.27,0,0,1-.15.54c-.8,1.28-1.66,2.53-2.42,3.84a14.76,14.76,0,0,1-2.16,2.67c-2,2.09-4.44,3.41-6.84,4.86a12.09,12.09,0,0,1-1.6.72,3,3,0,0,1-1.72.23l-2.75-.45a1.71,1.71,0,0,1-1.06-.69c-2-2.39-2.89-5.25-3.79-8.13-.15-.49-.28-1-.43-1.48a9.74,9.74,0,0,1-.09-4.29,18.64,18.64,0,0,1,.82-3.5,9.13,9.13,0,0,1,1.29-2.2c1.19-1.67,2.42-3.32,3.66-5a2,2,0,0,1,.75-.57c1.46-.7,2.92-1.37,4.39-2a11.27,11.27,0,0,1,4-1.16,4.48,4.48,0,0,1,3.42,1c.44.39.94.69,1.64,1.2m.31,13.67-.08,0L48,236.77l-5.23,5.83a9.17,9.17,0,0,1-3.43,2.54l-2.12.82-.51.19c0,.06,0,.11,0,.17,1-.12,2.06-.22,3.09-.36a3.83,3.83,0,0,0,2.09-1c.74-.67,1.52-1.31,2.21-2a19.8,19.8,0,0,0,2.06-2.46c.87-1.27,1.61-2.62,2.41-3.93.18-.3.35-.62.52-.93m-9.26,5.56.37-.72a5.54,5.54,0,0,0,.44-2.43,6.09,6.09,0,0,0-.07-1.75c-.23-.86-.57-1.19-1.37-1.06a4.75,4.75,0,0,1-.66.07.61.61,0,0,0-.59.45,5.36,5.36,0,0,0-.17,2.6.56.56,0,0,0,.1.27l1.94,2.57m7.24-8.53c0-.06,0-.12,0-.19-.73-.16-1.45-.34-2.18-.47-1-.18-2-.35-3-.46a.82.82,0,0,0-1,.66c-.15.43-.27.87-.39,1.29a2.29,2.29,0,0,0,3,.7l1.61-.69,2-.84m-14.81,1.1.06.17,2.71.61a1.33,1.33,0,0,0,.28.08.66.66,0,0,0,.36,0c.58-.35,1.17-.71,1.72-1.1a.69.69,0,0,0,.22-.51,1.51,1.51,0,0,0-2-1.41c-1.38.35-2.27,1.37-3.3,2.19M44,224.19a10.56,10.56,0,0,0-2.65,1.75,5.64,5.64,0,0,0-1.42,2.64,4,4,0,0,0,1.21.25,3,3,0,0,0,1.61-.65c.4-.33.36-.78.48-1.19.07-.26.15-.51.22-.78q.28-1,.56-2m-7.7.8a12.42,12.42,0,0,0-.57,3,.5.5,0,0,0,.1.34c.38.46.77.9,1.16,1.35a2.11,2.11,0,0,0,.57-2.87c-.37-.59-.8-1.15-1.28-1.82"/><path class="cls-1" d="M56.69,244.63c.71-2.25,1.3-4.55,2.15-6.75a13.19,13.19,0,0,1,4.51-5.69c2.81-2.12,3-2.13,6.35-.9,1.74.65,3.59,1.18,4.77,2.84a12.39,12.39,0,0,1,.84,1.14c.94,1.71,1.91,3.4,2.77,5.15a21.09,21.09,0,0,1,1.8,11.25A9.15,9.15,0,0,1,77.5,257c-1.2,1.37-2.51,2.63-3.79,3.92a1.29,1.29,0,0,1-.79.44c-2.13-.1-4.07.7-6,1.33a3.82,3.82,0,0,1-3.76-.65,31.39,31.39,0,0,0-3.23-2.22,5.93,5.93,0,0,1-2.45-3.54,28.67,28.67,0,0,1-.84-3.34,23.86,23.86,0,0,1-.84-4.56,16.17,16.17,0,0,1,.85-3.82l.07,0m14,9.67c-.29-3-1.07-4-3.09-4.31.09,3.05.24,3.45,1.75,4.77l1.34-.46m-9.83,2c2.24-.85,3.52-2.37,2.92-5.3-2.45.93-2.27,3.28-2.92,5.3m6.34-15.42c.12,1.22.2,2.1.29,3a5.88,5.88,0,0,0,2.37-5.52,5.09,5.09,0,0,0-2.66,2.54m-6.72.14c.43,3,1.46,4.63,3.13,5.16a1.07,1.07,0,0,0,.11-.27c.21-2.55-2-3.39-3.24-4.89M69,246.78c2.55.68,3.77-.08,3.61-2.4a14,14,0,0,0-3.61,2.4"/><path class="cls-1" d="M9.87,219.52a10.83,10.83,0,0,1,2.55-.92,14.39,14.39,0,0,1,3.09.26,16.84,16.84,0,0,1,2.27.35,3.63,3.63,0,0,1,2.45,1.52,20.33,20.33,0,0,0,1.59,2.19,2.88,2.88,0,0,1,.55,2.71,14.16,14.16,0,0,0-.72,4.52,1,1,0,0,1-.27.61c-.83,1-1.65,2.11-2.54,3.09A6.52,6.52,0,0,1,15.29,236a12.86,12.86,0,0,1-7.63-.43c-1.2-.5-2.37-1.07-3.55-1.63a6.88,6.88,0,0,1-.79-.53c-1.15-.74-1.56-2-2-3.27-.93-2.33-.93-2.5.42-4.73a10.14,10.14,0,0,1,3.71-3.76c1.45-.8,3-1.42,4.48-2.11Zm7.2,8.54c-.93-1-1.2-1.08-3.26-.91.24,1.46,1,2,3,1.92.1-.38.19-.71.27-1m-2.66-3.79c2,.21,3-.85,3.48-2.56-1.34.64-2.93.69-3.48,2.56M6,229.73a4.17,4.17,0,0,0,3.65-2.18l-2,0A4,4,0,0,0,6,229.73m4.92-5.1a.71.71,0,0,0,.18-.11c-.4-1.18-1.53-1.81-3.56-1.89,1,.81,1.68,2.35,3.38,2m-.8,6.61c1.57-.07,2-1,1.52-2.84a11.53,11.53,0,0,0-1.52,2.84"/><path class="cls-1" d="M111,240.68c-.07.11-.08.16-.11.17L109,241.92c-.8-.47-1.64-.88-2.39-1.42a1.91,1.91,0,0,1-.23-2.47,7.43,7.43,0,0,1,.55-.65.93.93,0,0,1,1.26-.19c.74.44,1.49.85,2.21,1.32a1,1,0,0,1,.39.58c.13.55.19,1.12.26,1.6"/><path class="cls-1" d="M134.3,250.35a1.74,1.74,0,0,1-.24-.15L132.38,248a21.11,21.11,0,0,1,1.51-2.35c.55-.66,2.25-.54,3.22.12.32.22.65.44.94.69.54.44.73.91.43,1.37-.47.73-.9,1.47-1.41,2.17a1,1,0,0,1-.71.33c-.7.06-1.44,0-2.07,0"/><path class="cls-1" d="M133.58,239.07c0-.09.06-.12.08-.13l1.41-1a18.36,18.36,0,0,1,1.87.69,1.24,1.24,0,0,1,.28,1.71,5.36,5.36,0,0,1-.38.53.79.79,0,0,1-.94.29c-.57-.22-1.16-.41-1.72-.64a.62.62,0,0,1-.32-.36c-.12-.37-.19-.76-.27-1.09"/><path class="cls-1" d="M93.61,238.07c0,.1,0,.13,0,.15l-.79,1.53a19.88,19.88,0,0,1-2,.24c-.6,0-1.11-.74-1-1.39a5,5,0,0,1,.09-.65.78.78,0,0,1,.69-.69c.61-.07,1.22-.17,1.83-.22a.62.62,0,0,1,.45.17c.28.27.52.59.74.85"/><path class="cls-1" d="M125.52,232.56c-.09,0-.13,0-.14,0l-1.11-1.18c.18-.65.31-1.32.56-1.95a1.39,1.39,0,0,1,1.7-.61,5.54,5.54,0,0,1,.57.27.68.68,0,0,1,.36.85c-.17.6-.32,1.21-.52,1.8a.73.73,0,0,1-.34.38c-.36.19-.75.34-1.08.48"/><path class="cls-1" d="M120.53,257.23c-1.28-.31-2.33-.53-3.37-.83a1.08,1.08,0,0,1-.64-.55c-.59-1.44-1.14-2.9-1.8-4.62.63.18,1,.26,1.4.4.57.2,1.14.43,1.7.66,2.26.92,2.26.92,2.58,3.3.06.47.07.94.12,1.64"/><path class="cls-1" d="M131.28,236.15c-.08,1.3-.12,2.38-.22,3.44a1.06,1.06,0,0,1-.41.71c-1.22.78-2.47,1.52-3.94,2.41.06-.65.08-1,.14-1.44.1-.59.21-1.18.33-1.77.48-2.36.48-2.36,2.61-3,.42-.13.84-.2,1.49-.34"/><path class="cls-1" d="M116.36,240.26l2.77.27-.76,3.4-3.29.28,1.28-4"/><path class="cls-1" d="M104.46,254.13l-1,2.59-3.06-1.67c.2-1,.4-2,.64-3.24l3.45,2.31"/><path class="cls-1" d="M103.24,243.81l-2.95,1.43-.83-2.06a7,7,0,0,1,3.18-2.27c.2,1,.4,1.93.59,2.9"/><path class="cls-1" d="M109.84,252.12l-3.12-1,1-2.56c2-.23,3-.14,3.92.41l-1.77,3.14"/><path class="cls-1" d="M141,229.84l-1.35,3-2.42-1.27c0-2,.21-2.95.86-3.84l2.91,2.13"/><path class="cls-1" d="M123.77,248.5l-3.13-1,1-2.56c2-.23,3-.14,3.92.41l-1.77,3.14"/><path class="cls-1" d="M95.39,244.17l2.2,3.65-2.36,1.4c-1.89-1.55-2.71-2.49-3.24-3.84l3.4-1.21"/><path class="cls-1" d="M60.07,194.12c.6.09,1.21.16,1.81.26l3.67.66a1,1,0,0,1,.77.52c.25.43.51.86.78,1.27s.15.55-.16.82a7.47,7.47,0,0,1-3.34,1.56c-.23.05-.45.14-.79.25a10.36,10.36,0,0,0,4,1.88c1.57.27,3.11.68,4.66,1a.58.58,0,0,1,.53.52c.07.36.22.71.33,1.07.06.2.11.42.19.71-1.16.2-2.25.46-3.35.55s-2.22,0-3.38.08c.39.18.76.37,1.16.53a8.05,8.05,0,0,1,4.09,3.46c1,1.62,1.75,3.35,2.67,5.13a6.35,6.35,0,0,0-1.3.07,2.74,2.74,0,0,1-2.62-.79c-1.11-.92-2.33-1.71-3.46-2.6-.68-.53-1.28-1.17-1.92-1.76-.23-.22-.46-.44-.81-.78.14,1.35.27,2.54.4,3.72a.94.94,0,0,1-1.1,0c-1.48-1.1-3-2.17-4.46-3.27a11.63,11.63,0,0,1-1.23-1.08c-.48-.47-1.12-.78-1.35-1.52l-.2.1c0,.28,0,.56.07.83.05.47.08.95.18,1.41a3.59,3.59,0,0,1-1,3.07c0,.05-.13.07-.22.12-.15-.17-.3-.33-.43-.51-.91-1.3-1.85-2.59-2.71-3.93-.48-.75-.8-1.6-1.2-2.4a3.23,3.23,0,0,0-.69-.94,4,4,0,0,0,.07.5c.18.65.35,1.29.55,1.93a.84.84,0,0,1-.25.95l-.78.77c-.57-.47-1.11-.89-1.62-1.36-1.26-1.16-2.5-2.35-3.75-3.53A5.74,5.74,0,0,0,41.49,202c.13,1.93.46,3.77.74,5.69a8.36,8.36,0,0,1-2.06.34.77.77,0,0,1-.46-.22c-1.17-1-2.38-2-3.49-3.15-.94-.95-1.77-2-2.64-3A10.09,10.09,0,0,1,32,198.47c-.4-1.09-.92-2.15-1.41-3.21s-.9-1.94-1.4-2.89a3.14,3.14,0,0,0-.72-.82,32.64,32.64,0,0,0-4.41-2.9c-1.86-1.19-3.83-2.2-5.75-3.29-1-.59-2.06-1.21-3.09-1.8-1.65-.93-3.3-1.84-4.95-2.75A41.51,41.51,0,0,1,4.16,177c-1-.81-2.1-1.49-3.15-2.24-.34-.24-.64-.53-1-.85l.67-1.52,1.86.82c3.86,1.73,7.71,3.48,11.57,5.19,1.59.7,3.24,1.28,4.81,2,1.82.87,3.57,1.86,5.35,2.81s3.65,1.92,5.47,2.91a1.29,1.29,0,0,0,1.24,0,13.59,13.59,0,0,0,3.71-2c1.11-.92,2.24-1.82,3.3-2.8a12.06,12.06,0,0,1,4.53-2.64c1.41-.47,2.79-1.05,4.19-1.58l.54-.19a4.77,4.77,0,0,1,.06.61c0,1-.09,2.09-.19,3.13a1.65,1.65,0,0,1-.38.86,13.77,13.77,0,0,1-1.91,2,13.06,13.06,0,0,0-2.17,2.43,2.85,2.85,0,0,0,.52.1c1.42,0,2.84,0,4.25-.12a8.85,8.85,0,0,0,2.13-.65,1.4,1.4,0,0,0,.48-.44,9.56,9.56,0,0,1,3.82-2.53,1.42,1.42,0,0,1,.86,0c1.25.39,2.5.82,3.84,1.28a4.17,4.17,0,0,1-.2.72,7.92,7.92,0,0,1-2.24,2.86c-.4.31-.77.67-1.15,1l.07.15h.87l3.06-.1a9.45,9.45,0,0,1,3.28.6,2.57,2.57,0,0,0,.49.16,1.89,1.89,0,0,1,1.6,1.54c.12.36.1.61-.22.83-.74.5-1.47,1-2.22,1.5s-1.25.78-1.88,1.16l0,.21"/><path class="cls-1" d="M105.65,215.17c-.29.35-.57.7-.88,1-.61.69-1.24,1.36-1.86,2a.75.75,0,0,1-.62.28c-.37,0-.74,0-1.11,0s-.4-.12-.45-.42a5.57,5.57,0,0,1,.33-2.72c.06-.17.09-.34.15-.6a7.64,7.64,0,0,0-2.77,1.8c-.79.87-1.65,1.68-2.47,2.53a.43.43,0,0,1-.53.13c-.26-.1-.53-.14-.8-.21l-.52-.16c.33-.81.59-1.59,1-2.32s.87-1.39,1.28-2.15c-.26.17-.53.33-.78.52a6,6,0,0,1-3.78,1.21c-1.4,0-2.79-.21-4.27-.34a4.77,4.77,0,0,0,.47-.84,2,2,0,0,1,1.53-1.33c1-.33,2-.79,3-1.15.61-.22,1.24-.35,1.86-.51l.81-.2-2.49-1.21a.7.7,0,0,1,.45-.68c1.27-.49,2.53-1,3.8-1.51a8.82,8.82,0,0,1,1.16-.35,2.82,2.82,0,0,1,1.48-.24l0-.17-.55-.28c-.31-.15-.63-.32-1-.44A2.67,2.67,0,0,1,96.6,205a.54.54,0,0,1,0-.19c.16,0,.32-.06.48-.07,1.18-.06,2.36-.15,3.53-.15.66,0,1.32.13,2,.19a2.46,2.46,0,0,0,.86-.06,3.73,3.73,0,0,0-.34-.15c-.48-.14-1-.29-1.43-.41a.62.62,0,0,1-.49-.53c-.05-.25-.11-.49-.18-.79.52-.17,1-.35,1.49-.48,1.23-.33,2.46-.65,3.69-1a4.22,4.22,0,0,0,1.78-1c-1.26-.68-2.54-1.2-3.86-1.77a6.21,6.21,0,0,1,.6-1.43.59.59,0,0,1,.32-.2c1.11-.33,2.21-.69,3.34-1,1-.22,2-.32,2.95-.46a7.5,7.5,0,0,1,2.62.26c.85.18,1.71.27,2.57.38s1.57.2,2.36.26a2.33,2.33,0,0,0,.8-.13,23.83,23.83,0,0,0,3.55-1.63c1.48-.7,2.89-1.54,4.33-2.32.78-.42,1.57-.82,2.34-1.24,1.23-.67,2.45-1.35,3.67-2a30.93,30.93,0,0,1,4.82-2.33c.9-.32,1.76-.74,2.64-1.1.29-.11.59-.19.93-.3l.69,1-1.24.85c-2.6,1.74-5.22,3.48-7.81,5.23-1.07.72-2.08,1.53-3.17,2.22-1.26.8-2.57,1.51-3.86,2.26s-2.65,1.54-4,2.29a1,1,0,0,0-.48.79,10.18,10.18,0,0,0-.18,3.13c.15,1.06.26,2.13.46,3.18a9,9,0,0,1-.12,3.89c-.27,1.07-.44,2.17-.65,3.25,0,.12-.05.25-.09.42a3.28,3.28,0,0,1-.4-.2c-.64-.44-1.28-.88-1.89-1.35a1.21,1.21,0,0,1-.39-.58,10.38,10.38,0,0,1-.48-2,9.59,9.59,0,0,0-.67-2.32,2.38,2.38,0,0,0-.27.29c-.54.9-1.12,1.78-1.6,2.72a6.47,6.47,0,0,0-.43,1.59,1,1,0,0,0,.09.48,7.1,7.1,0,0,1,.09,3.4,1,1,0,0,1-.35.53c-.74.63-1.5,1.25-2.31,1.91a2.92,2.92,0,0,1-.37-.41,5.86,5.86,0,0,1-.91-2.53c0-.37-.12-.74-.18-1.12l-.12,0-.34.55-1.14,2a7,7,0,0,1-1.67,1.83,2.12,2.12,0,0,0-.3.25,1.4,1.4,0,0,1-1.59.4c-.28-.07-.43-.17-.44-.47,0-.66-.06-1.33-.07-2s0-1.09,0-1.64l-.15-.05"/><path class="cls-1" d="M89.34,92.59c-.08-.68-.15-1.29-.22-1.91,0-.23.11-.35.28-.44.36-.21.72-.43,1.09-.63,1.58-.86,3.15-1.75,4.76-2.56a4,4,0,0,0,1.9-2c.32-.73.64-1.46,1-2.19a6,6,0,0,1,1.61-2.15c1.08-.92,2.23-1.78,3.35-2.66a1.83,1.83,0,0,1,1.57-.21,1.12,1.12,0,0,1,.59,1.57,11.22,11.22,0,0,1-.71,1.4c-.48.86-1,1.72-1.45,2.58-.19.34-.36.69-.62,1.18.69-.24,1.24-.42,1.77-.63A10.33,10.33,0,0,0,107,82.31a2.86,2.86,0,0,0,.94-1.37,19,19,0,0,0,.78-4.26A8.92,8.92,0,0,1,110.1,73a.73.73,0,0,1,.8-.37,1.28,1.28,0,0,1,.7.9c0,.4.05.8.1,1.19s.12.58.14.87a2.46,2.46,0,0,0,1.53,2,.49.49,0,0,0,.57-.11A19.71,19.71,0,0,0,115.75,76a28.66,28.66,0,0,0,3.51-4.35c.61-.88,1.12-1.82,1.81-2.65s1.18-1.73,1.81-2.57,1.35-1.77,2.08-2.6A10.89,10.89,0,0,1,127.63,62a.53.53,0,0,1,.41,0c.48.2,1,.43,1.44.64a.5.5,0,0,1,.3.5,1.94,1.94,0,0,1-.23,1.15c-.28.44-.55.89-.84,1.33-.4.61-.82,1.22-1.23,1.82l-.07.11c-.62.76-1.22,1.54-1.87,2.28a15.92,15.92,0,0,0-1.63,2.43,3.84,3.84,0,0,0,.44-.08L133,69.46a5.4,5.4,0,0,0,2.57-1.94c.29-.36.58-.71.89-1.06a8,8,0,0,0,1.38-2.8,9,9,0,0,1,2.84-4.37c.5-.41,1-.32,1.12.32a14.45,14.45,0,0,1,.29,2.36c0,.77,0,1.55,0,2.44.26-.11.45-.18.62-.27a22.09,22.09,0,0,1,3.28-1.43,3.7,3.7,0,0,1,3.44.58,2.37,2.37,0,0,1,1.2,1.73,9,9,0,0,0,.37,1.27,1.23,1.23,0,0,1-.16,1.14s-.06.11-.1.16c-1.32,1.67-2.77,3.15-5,3.53-1.15.19-2.3.46-3.44.74a15.28,15.28,0,0,0-1.66.64A5.22,5.22,0,0,0,141,73c.51.47,1,.93,1.54,1.39.27.24.53.48.82.7a1.46,1.46,0,0,1,.61,1.47c-.06.46-.05.53-.52.64a8.06,8.06,0,0,1-4.16.06c-1.37-.39-2.69-.93-4-1.38A10.47,10.47,0,0,0,130.4,75a20.49,20.49,0,0,0-2.58.56A19.75,19.75,0,0,0,124.2,77a2.52,2.52,0,0,0,.4.24,3,3,0,0,0,.61.16A14.84,14.84,0,0,1,129,78.59a1.65,1.65,0,0,1,.38.22c.54.4,1.06.83,1.6,1.22a1.29,1.29,0,0,1,.55,1.19,2.27,2.27,0,0,1-2.46,2.3,15.52,15.52,0,0,1-6.18-1.29c-1.11-.43-2.19-1-3.28-1.43a3.06,3.06,0,0,0-.65-.22,9.74,9.74,0,0,0-4.18.19,1.82,1.82,0,0,0-.41.16.71.71,0,0,0-.25,1.14c.57.59,1.19,1.12,1.77,1.69a7.35,7.35,0,0,0,3,1.68,6.09,6.09,0,0,1,.92.39,1.54,1.54,0,0,1,.86,1.1.5.5,0,0,1-.35.65,4,4,0,0,1-2.87.19,35.93,35.93,0,0,1-3.88-1.63c-.59-.31-1.21-.57-1.81-.87a.73.73,0,0,0-.71,0c-.4.19-.8.36-1.21.54l-3.75,1.63a1,1,0,0,0-.7,1.18,5.39,5.39,0,0,0,.36,1.13c.33.77.7,1.52,1,2.29a1.26,1.26,0,0,1,.11.42.65.65,0,0,1-.87.74,3.72,3.72,0,0,1-1-.48,11.54,11.54,0,0,1-1.28-1,14.19,14.19,0,0,0-3-2,1.58,1.58,0,0,0-1.34-.08l-3,1.08a20.6,20.6,0,0,1-4.09,1.23c-.62.09-1.21.31-1.83.46-.32.08-.65.11-1.11.19"/><path class="cls-1" d="M70.4,87.74c-.26.63-.5,1.2-.73,1.78-.09.22-.26.25-.46.25-.42,0-.84,0-1.26,0-1.8,0-3.6,0-5.4-.06a4,4,0,0,0-2.64.83L58,92a6,6,0,0,1-2.45,1.1c-1.4.28-2.81.48-4.22.7a1.82,1.82,0,0,1-1.48-.58,1.12,1.12,0,0,1,.25-1.66,11,11,0,0,1,1.3-.88l2.51-1.55c.33-.21.65-.43,1.11-.74-.72-.12-1.28-.23-1.86-.31a10.33,10.33,0,0,0-3.19.08,2.86,2.86,0,0,0-1.49.74,18.79,18.79,0,0,0-2.75,3.35,9,9,0,0,1-3,2.53.73.73,0,0,1-.88-.06,1.29,1.29,0,0,1-.18-1.12c.16-.36.34-.72.49-1.09s.18-.56.3-.83a2.46,2.46,0,0,0-.37-2.48.47.47,0,0,0-.55-.19,19.59,19.59,0,0,0-2.29.39,28.63,28.63,0,0,0-5.18,2.1c-1,.48-1.86,1-2.86,1.44s-1.87.94-2.83,1.37-2,.89-3.08,1.27a11,11,0,0,1-3.24.32.54.54,0,0,1-.36-.21c-.33-.41-.63-.84-.94-1.26a.5.5,0,0,1,0-.58,2,2,0,0,1,.76-.9l1.38-.76,2-1,.11-.06c.91-.37,1.81-.76,2.74-1.09a15.62,15.62,0,0,0,2.61-1.33,3.67,3.67,0,0,0-.42-.15L21,86.79a5.42,5.42,0,0,0-3.19.45c-.42.18-.86.34-1.28.5A7.9,7.9,0,0,0,14,89.52,9,9,0,0,1,9.39,92c-.63.11-1-.19-.82-.82a14,14,0,0,1,.89-2.21c.34-.7.77-1.34,1.21-2.12-.28,0-.48-.06-.67-.06a22,22,0,0,1-3.56-.34,3.69,3.69,0,0,1-2.72-2.18,2.38,2.38,0,0,1-.21-2.09,8.77,8.77,0,0,0,.29-1.29,1.24,1.24,0,0,1,.69-.92l.16-.09c2-.82,3.95-1.41,6.09-.65,1.11.39,2.24.72,3.37,1a15.38,15.38,0,0,0,1.77.25,5.84,5.84,0,0,0-.12-.67c-.22-.66-.44-1.31-.68-2-.12-.34-.23-.67-.37-1a1.48,1.48,0,0,1,.18-1.59c.27-.37.3-.43.77-.3a8,8,0,0,1,3.67,2c1,1,1.91,2.12,2.87,3.17A10.46,10.46,0,0,0,26,83.2a20.45,20.45,0,0,0,2.52.76,19.62,19.62,0,0,0,3.88.48,2.67,2.67,0,0,0-.23-.4,2.86,2.86,0,0,0-.45-.44,15,15,0,0,1-2.74-2.85,1.78,1.78,0,0,1-.23-.37c-.27-.61-.52-1.24-.81-1.84a1.28,1.28,0,0,1,.1-1.31,2.27,2.27,0,0,1,3.26-.81A15.56,15.56,0,0,1,36,80.53c.76.92,1.45,1.9,2.18,2.85a2.9,2.9,0,0,0,.46.51,9.78,9.78,0,0,0,3.75,1.86,1.87,1.87,0,0,0,.44.06.71.71,0,0,0,.77-.88c-.21-.79-.5-1.56-.73-2.34a7.39,7.39,0,0,0-1.79-2.92,5.72,5.72,0,0,1-.62-.79,1.54,1.54,0,0,1-.22-1.38.5.5,0,0,1,.61-.4,4,4,0,0,1,2.61,1.22,35.82,35.82,0,0,1,2.6,3.31c.37.56.79,1.09,1.16,1.65a.74.74,0,0,0,.63.34l1.32.11,4.07.39a1.05,1.05,0,0,0,1.18-.69,5.5,5.5,0,0,0,.23-1.16c.08-.83.13-1.67.19-2.51a1.26,1.26,0,0,1,.11-.42.65.65,0,0,1,1.12-.23,3.76,3.76,0,0,1,.66.91,11.49,11.49,0,0,1,.63,1.51,14.29,14.29,0,0,0,1.7,3.22,1.59,1.59,0,0,0,1.13.72l3.11.49a20.56,20.56,0,0,1,4.17.91c.58.22,1.22.32,1.82.49.32.09.63.22,1.07.37"/><path class="cls-1" d="M71.77,94.71a59.58,59.58,0,0,1,7,1.33c0,.53-.08,1.05-.15,1.58-.38,2.71-.78,5.41-1.14,8.12-.17,1.25-.26,2.5-.39,3.79.43.14.8.28,1.18.39,2.38.72,4.76,1.45,7.15,2.15a.89.89,0,0,1,.73.74,13.34,13.34,0,0,1,.29,1.5,19.36,19.36,0,0,1-1,8.16,12.53,12.53,0,0,1-3,4.6,7.29,7.29,0,0,1-1.92,1.14c-.87.42-1.77.77-2.66,1.12a7.56,7.56,0,0,1-3.08.38,23.21,23.21,0,0,1-10.67-3.46,13.16,13.16,0,0,1-6-7,11.74,11.74,0,0,1-.78-4.81c0-.75.07-1.5,0-2.25a5.38,5.38,0,0,1,1-3,1.26,1.26,0,0,1,1-.66c1.6-.12,3.2-.29,4.8-.39,1.34-.08,2.68-.08,4-.12a4.12,4.12,0,0,0,.48,0c.61-.1.72-.18.83-.79.21-1.16.38-2.33.59-3.49q.69-3.92,1.4-7.84c.06-.36.18-.71.3-1.14"/><path class="cls-1" d="M45.43,112.06a42.36,42.36,0,0,1-.94,5c-.37,0-.75-.05-1.12-.11-1.92-.27-3.84-.55-5.77-.81-.88-.12-1.77-.18-2.69-.27-.1.3-.2.57-.28.84-.51,1.7-1,3.39-1.53,5.09a.62.62,0,0,1-.53.52,9.19,9.19,0,0,1-1.06.2,13.73,13.73,0,0,1-5.8-.71,8.86,8.86,0,0,1-3.27-2.15,5.12,5.12,0,0,1-.81-1.37c-.3-.62-.55-1.26-.8-1.9a5.43,5.43,0,0,1-.27-2.19A16.58,16.58,0,0,1,23,106.61a9.33,9.33,0,0,1,5-4.26,8.34,8.34,0,0,1,3.42-.56c.53,0,1.07,0,1.6,0a3.8,3.8,0,0,1,2.14.68.89.89,0,0,1,.47.73c.09,1.14.21,2.27.28,3.41.06.95.06,1.9.08,2.85a2.48,2.48,0,0,0,0,.34c.07.44.13.51.57.59.82.15,1.65.27,2.48.42l5.57,1c.26,0,.51.13.81.21"/><path class="cls-1" d="M129.67,102.13a12.6,12.6,0,0,1,1.73-.59c1.75-.34,3.52-.6,5.28-.91a7.53,7.53,0,0,1,4.13.77c.75.3,1.49.63,2.24.94a6.45,6.45,0,0,1,3.14,2.67,6.92,6.92,0,0,1,.75,6.33,37.21,37.21,0,0,1-3.38,6.06c-.36.57-.77,1.1-1.12,1.67a10,10,0,0,1-2.6,2.68,49.43,49.43,0,0,1-4.31,2.85c-1.48-2.45-2.63-5-4-7.56A89.74,89.74,0,0,1,118,121.83a11.29,11.29,0,0,1-.93-3.95c.5-.2,1-.38,1.53-.61,1.82-.83,3.66-1.65,5.46-2.54,1.45-.72,2.84-1.55,4.27-2.31a2.48,2.48,0,0,0,1.4-2.53c-.07-2-.06-4.08-.08-6.11,0-.53,0-1.06,0-1.65"/><path class="cls-1" d="M93,110a9.07,9.07,0,0,1,.35-1.18c.5-1.09,1-2.17,1.57-3.26a5.09,5.09,0,0,1,2-2c.46-.3.93-.57,1.39-.86A4.34,4.34,0,0,1,101,102a4.66,4.66,0,0,1,3.77,2.06,24.66,24.66,0,0,1,2,4.23c.17.42.31.85.48,1.27a6.74,6.74,0,0,1,.45,2.47,32.62,32.62,0,0,1-.12,3.49c-1.92-.15-3.78-.52-5.72-.77a60.59,60.59,0,0,1-2.66,9.31,7.65,7.65,0,0,1-2.53-1c.09-.36.19-.71.26-1.08.26-1.33.53-2.66.75-4,.17-1.08.26-2.17.41-3.25a1.68,1.68,0,0,0-.85-1.76c-1.15-.76-2.26-1.56-3.39-2.35-.29-.2-.57-.42-.9-.66"/><path class="cls-1" d="M47.89,147.47c-11.73-.89-20.35-5.72-26.77-14.53,5.25-.75,21.45,7.75,26.77,14.53"/><path class="cls-1" d="M114.94,138.31c-10.36,5.58-20.22,6.15-30.38,2.19,4-3.47,22.24-5,30.38-2.19"/><path class="cls-1" d="M138.93,134.61c-.36,11.76-4.8,20.59-13.3,27.41-1-5.22,6.77-21.78,13.3-27.41"/><path class="cls-1" d="M62.43,136.09c.78,7.37-1.06,12.54-5.45,16.11-1-3.36,2.12-13.12,5.45-16.11"/><path class="cls-1" d="M74.06,154.74c-5.06,8.64-12,13.43-21.11,15,1.39-4.3,13.94-13.51,21.11-15"/><path class="cls-1" d="M32.75,152.65A18.81,18.81,0,0,1,41,167.17c-2.66-1.17-7.73-9.82-8.24-14.52"/></g></g></svg>