<svg id="Design" xmlns="http://www.w3.org/2000/svg" width="664" height="110" viewBox="0 0 664 110"><defs><style>.cls-1{fill:#231f20;}</style></defs><title>h_w_coming_soon</title><path class="cls-1" d="M1350.8,11286.8l10.5-9.6,9.8,10.1a0.2,0.2,0,0,1,0,0h0l-0.7.6-10.2,9a6,6,0,0,1-1-.9l-2-2.2-3.6-3.9-2.7-2.9Z" transform="translate(-756.1 -11216.2)"/><path class="cls-1" d="M1385.8,11276.9l9.7,10.4-10,9.9h-0.1l-0.6-.6q-4.5-5.1-9.1-10.1a6,6,0,0,1,.9-1l2.2-2,3.9-3.6,2.9-2.7Z" transform="translate(-756.1 -11216.2)"/><path class="cls-1" d="M1420.1,11287l-9.6,9.6-9.8-9.2h0l0.6-.6,9.3-9.1,1,0.9,2,2,3.6,3.6,2.7,2.7Z" transform="translate(-756.1 -11216.2)"/><path class="cls-1" d="M1325.7,11247.5c-0.6.1-21.9,0.2-21.9,0.8s0.4,13.9.4,17.9,0.6,27.5,1.1,31.3l-14.2-.5c0-.4-0.2-65.3.6-65.4l46.4-1.6c0.1,1.4,2.7,68.8,1.8,68.8l-13.1-.6C1326.7,11286.6,1325.7,11247.9,1325.7,11247.5Z" transform="translate(-756.1 -11216.2)"/><path class="cls-1" d="M794.6,11312.7c-11.9-15.5-26.8-34.1-38.4-50l43.7-46c3.9,6.4,6,10.3,9.8,16.8l-28.8,29.6c0.1,0.3,25.1,33.9,25.3,34.2A146.8,146.8,0,0,1,794.6,11312.7Z" transform="translate(-756.1 -11216.2)"/><path class="cls-1" d="M908.8,11295.5a44.8,44.8,0,0,1-8.5,0c0.1-3.9,0-48.1,0-48.1s-14.4-.3-16.2.1c-0.1,1.2-.1,48.1-0.1,48.3-4.5,0-7.6.3-9.7-.2,0-5.9,0-12.7.1-18.5s0.2-9.4.2-14.1,0.1-28.2.1-28.4c21.4-.1,42.9-1.1,64.3-0.2,0.2,0.9-.8,59.3-1.1,61.1-1.3.1-7.3,0-9.2-.2,0-3.9.7-47.4,0.7-47.8-3.3.1-13.9-.3-20-0.3C909.3,11251.9,908.8,11294.3,908.8,11295.5Z" transform="translate(-756.1 -11216.2)"/><path class="cls-1" d="M983.6,11259.9c0,0.3,1.1,33.1,1.2,34.8a54.1,54.1,0,0,1-9.5.1c-0.3-1.2-.5-59.5-0.5-59.9s30.4,34.7,30.7,35c-0.7-12.3-.6-21.5-0.8-33.9,3.5,0.1,6.9-.3,10.4,0,0.5,18.9-.2,38.2.2,57.3C1014.9,11292.9,983.7,11259.9,983.6,11259.9Z" transform="translate(-756.1 -11216.2)"/><path class="cls-1" d="M1039.8,11316.5c1.8-1.8,14.1-13.2,15.8-15s0.8-31.8.8-32.1c-6.7,0-22.4-.6-28.7-0.6-0.7-6.2,0-33.4.1-34.6,14-.4,27.9-0.1,42,0.3,0.1,0.6,1.3,68.8.5,69.6-5.9,6.4-17.3,17.6-21.9,22.1C1046,11323.4,1042.1,11319.4,1039.8,11316.5Zm16-59.8c0-.8,0-8.3-0.1-10.9h-15.5c-0.1,3.5-.3,7.2-0.1,10.7C1044.5,11257,1051.2,11256.6,1055.8,11256.7Z" transform="translate(-756.1 -11216.2)"/><path class="cls-1" d="M815.9,11253.2a26.5,26.5,0,0,1,7.6-15.1,22.4,22.4,0,0,1,8.1-5.5,18.4,18.4,0,0,1,6.8-1.3H842l1.4,0.3a38.2,38.2,0,0,1,10.2,5.3,17.7,17.7,0,0,1,2.5,2.4,22.2,22.2,0,0,1,3.1,4.4,25.3,25.3,0,0,1,2,6.1,6.7,6.7,0,0,1,0,2,43.5,43.5,0,0,1-2.8,11.4,8.3,8.3,0,0,1-.6,1.3,45.4,45.4,0,0,1-3.3,4.9,18.6,18.6,0,0,1-8,6,28.7,28.7,0,0,1-9.9,2l-2-.2a35.3,35.3,0,0,1-9.5-3.6,14.3,14.3,0,0,1-5-4.6,20.3,20.3,0,0,1-3.5-8,31.1,31.1,0,0,1-.6-7.4v-0.7Z" transform="translate(-756.1 -11216.2)"/><path class="cls-1" d="M858.5,11297.7c-3.8-.1-36.2.6-39.9,0.2-0.1-3.2,0-8.2,0-11.4,0.6,0,39.9-.6,39.9.6S858.5,11296.9,858.5,11297.7Z" transform="translate(-756.1 -11216.2)"/><path class="cls-1" d="M950,11220.7l12.5-.8c0.1,0.7.1,1.4,0.2,2,0.1,5,.2,10,0.3,14.9s0.4,13,.6,19.4,0.3,11.7.5,17.5c0,0.2,0,.5,0,0.7s-0.1,1.3-1.2,1.3l-5.4.2h-6.1c-1.2,0-1.3-.1-1.2-1.2,0-4.5.1-9,0-13.5,0-7.6-.1-15.2-0.2-22.8q-0.1-8.1-.2-16.3C949.9,11222,949.9,11221.5,950,11220.7Z" transform="translate(-756.1 -11216.2)"/><path class="cls-1" d="M1116.8,11246.4c10-9.4,23.2-20.7,33.2-30.2,0.2,0.1,11.2,10.4,11,10.8s-17.6,20.4-18.6,21.5c8.2,8.7,17.1,16.4,25.6,24.6-0.1,1.1-32.7,37.1-33.8,38.3-5.3-4-8.6-8.5-11.5-11.5,2.6-3.1,20-25,20.4-25.6Z" transform="translate(-756.1 -11216.2)"/><path class="cls-1" d="M1224,11259a38.4,38.4,0,0,0-4.2-7.4,45.2,45.2,0,0,0-7.8-8.7,16,16,0,0,0-3.1-2.3,25,25,0,0,0-13.8-1.8,9.5,9.5,0,0,0-3.8,1.2l-2.7,1.4c-5.2,2.4-9,6.4-12,11.1a11.1,11.1,0,0,0-2.1,6.9c0.1,1.1,0,2.1,0,3.2h0c0,1.2-.1,2.5,0,3.7a29.5,29.5,0,0,0,2.1,10.4,16.5,16.5,0,0,0,6,7.5,60.5,60.5,0,0,0,13.6,6.7l2,0.4a26.6,26.6,0,0,0,8.4-.8c4.5-1,8.7-2.7,12-6.1,1.6-1.7,3.4-3.3,4.2-5.6s1.7-4.3,2.5-6.5a5.3,5.3,0,0,0,.3-1.9c0-2.1-.1-4.1-0.3-6.2A15.1,15.1,0,0,0,1224,11259Zm-9.8,10.2-1.4,3.6a9.1,9.1,0,0,1-2.4,3.1,13,13,0,0,1-6.8,3.4,14.9,14.9,0,0,1-4.7.5l-1.1-.2a34,34,0,0,1-7.6-3.8,9.3,9.3,0,0,1-3.4-4.2,16.6,16.6,0,0,1-1.2-5.8c0-.7,0-1.4,0-2.1h0c0-.6,0-1.2,0-1.8a6.2,6.2,0,0,1,1.2-3.9,16.5,16.5,0,0,1,6.8-6.2l1.5-.8a5.4,5.4,0,0,1,2.1-.7,14,14,0,0,1,7.8,1,9,9,0,0,1,1.7,1.3,25.4,25.4,0,0,1,4.4,4.9,21.6,21.6,0,0,1,2.4,4.2,8.5,8.5,0,0,1,.7,2.9c0.1,1.2.1,2.3,0.2,3.5A3,3,0,0,1,1214.2,11269.2Z" transform="translate(-756.1 -11216.2)"/><path class="cls-1" d="M1282.5,11259.1a16.1,16.1,0,0,0-.3-3.8,25,25,0,0,0-7.7-11.6,9.6,9.6,0,0,0-3.4-2l-2.8-1.1c-5.2-2.3-10.7-2.6-16.3-1.8a11.1,11.1,0,0,0-6.6,2.9l-2.4,2.1h0c-0.9.8-1.9,1.6-2.8,2.5a29.4,29.4,0,0,0-6.4,8.4,16.6,16.6,0,0,0-1.7,9.5,60.6,60.6,0,0,0,3.9,14.7,9.3,9.3,0,0,0,1,1.8,26.6,26.6,0,0,0,6.1,5.8c3.7,2.7,7.8,4.8,12.5,5.1,2.3,0.1,4.7.4,7-.5l6.5-2.4a5.3,5.3,0,0,0,1.6-1l4.5-4.3a15.1,15.1,0,0,0,3-4.4,38.5,38.5,0,0,0,2.8-8.1A45.3,45.3,0,0,0,1282.5,11259.1Zm-17.1,9.3a5.3,5.3,0,0,1-.8,1,14.9,14.9,0,0,1-3.1,2.3,12.6,12.6,0,0,1-2.5,1.2,4.9,4.9,0,0,1-1.7.3h-2.7l-2.1-1a5.3,5.3,0,0,1-1.7-1.5,7.6,7.6,0,0,1-1.7-4.1,8.8,8.8,0,0,1-.1-2.8l0.2-.7a19.9,19.9,0,0,1,2.5-4.3,5.4,5.4,0,0,1,2.6-1.8,9.7,9.7,0,0,1,3.5-.4h2.3a3.6,3.6,0,0,1,2.2.9,9.6,9.6,0,0,1,3.3,4.2l0.4,0.9a3.2,3.2,0,0,1,.3,1.3A8.2,8.2,0,0,1,1265.3,11268.4Z" transform="translate(-756.1 -11216.2)"/></svg>