<svg xmlns="http://www.w3.org/2000/svg" viewBox="0 0 477 308"><defs><style>.cls-1{fill:#fff;opacity:0.9;}.cls-2{fill:none;}</style></defs><title>Asset 19</title><g id="Layer_2" data-name="Layer 2"><g id="Design"><rect class="cls-1" x="246.49" y="9.42" width="220.67" height="218.19"/><rect class="cls-1" x="10.78" y="9.42" width="220.67" height="218.19"/><rect class="cls-1" x="246.49" y="242.67" width="220.67" height="55.3"/><path d="M261.85,33.21a.47.47,0,0,1,.5-.49h12.73a.47.47,0,0,1,.5.49v2.72a.47.47,0,0,1-.5.49h-8.91a.26.26,0,0,0-.3.3V47.41a.26.26,0,0,0,.3.3h7.73a.47.47,0,0,1,.5.49v2.72a.47.47,0,0,1-.5.49h-7.73a.26.26,0,0,0-.3.3V65.87a.47.47,0,0,1-.5.49h-3a.47.47,0,0,1-.5-.49Z"/><path d="M293.84,66.37a.5.5,0,0,1-.54-.35L289.09,52a13,13,0,0,1-1.39,0h-2a.26.26,0,0,0-.3.3V65.87a.47.47,0,0,1-.5.49h-3a.47.47,0,0,1-.5-.49V33.21a.47.47,0,0,1,.5-.49h5.89c5.94,0,9.11,2.57,9.11,9.7,0,4.5-1.49,7.23-4.11,8.56l4.7,14.89c.1.25,0,.49-.25.49Zm-1-23.95c0-4.55-1.49-6-5.05-6h-2.13a.26.26,0,0,0-.3.3V48.11a.26.26,0,0,0,.3.3h2.13C291.27,48.4,292.85,47,292.85,42.42Z"/><path d="M303.7,33.21a.47.47,0,0,1,.5-.49h12.73a.47.47,0,0,1,.5.49v2.72a.47.47,0,0,1-.5.49H308a.26.26,0,0,0-.3.3V47.22a.26.26,0,0,0,.3.3h7.73a.47.47,0,0,1,.5.49v2.72a.47.47,0,0,1-.5.49H308a.26.26,0,0,0-.3.3V62.36a.26.26,0,0,0,.3.3h8.91a.47.47,0,0,1,.5.49v2.72a.47.47,0,0,1-.5.49H304.19a.47.47,0,0,1-.5-.49Z"/><path d="M323.36,33.21a.47.47,0,0,1,.5-.49h12.73a.47.47,0,0,1,.5.49v2.72a.47.47,0,0,1-.5.49h-8.91a.26.26,0,0,0-.3.3V47.22a.26.26,0,0,0,.3.3h7.73a.47.47,0,0,1,.5.49v2.72a.47.47,0,0,1-.5.49h-7.73a.26.26,0,0,0-.3.3V62.36a.26.26,0,0,0,.3.3h8.91a.47.47,0,0,1,.5.49v2.72a.47.47,0,0,1-.5.49H323.86a.47.47,0,0,1-.5-.49Z"/><path d="M349.76,66.81c-5.1,0-7.68-2.87-7.92-8.66,0-.3.1-.5.4-.54l2.92-.54a.43.43,0,0,1,.54.45c.2,4.16,1.53,5.64,4.11,5.64s3.76-1.24,3.76-5.79c0-3.86-.74-5.29-3.42-6.33l-2-.79c-4.61-1.78-5.89-4.06-5.89-9.25,0-5.74,2.48-8.71,7.53-8.71s7.38,2.77,7.62,8a.5.5,0,0,1-.45.54l-2.77.45a.4.4,0,0,1-.54-.4c-.1-3.31-1.19-4.95-3.76-4.95s-3.66,1.48-3.66,4.9.79,4.65,3.52,5.69l2,.79c4.31,1.73,5.84,4,5.84,9.55C357.58,63.64,355.45,66.81,349.76,66.81Z"/><path d="M368,66.37a.47.47,0,0,1-.5-.49V36.73a.26.26,0,0,0-.3-.3h-5.55a.47.47,0,0,1-.5-.49V33.21a.47.47,0,0,1,.5-.49h15.7a.47.47,0,0,1,.5.49v2.72a.47.47,0,0,1-.5.49h-5.55a.26.26,0,0,0-.3.3V65.87a.47.47,0,0,1-.5.49Z"/><path d="M387.89,66.37a.47.47,0,0,1-.5-.49V52.46l-6.49-19.25c-.1-.3,0-.49.35-.49h3.12c.35,0,.5.15.59.49l4.41,14.1h.15l4.41-14.1c.1-.35.25-.49.54-.49h3.07c.35,0,.45.2.35.49L391.4,52.46V65.87a.47.47,0,0,1-.5.49Z"/><path d="M403.14,33.21a.47.47,0,0,1,.5-.49h3a.47.47,0,0,1,.5.49V62.36a.26.26,0,0,0,.3.3h8.81a.47.47,0,0,1,.5.49v2.72a.47.47,0,0,1-.5.49H403.64a.47.47,0,0,1-.5-.49Z"/><path d="M422.36,33.21a.47.47,0,0,1,.5-.49h12.73a.47.47,0,0,1,.5.49v2.72a.47.47,0,0,1-.5.49h-8.91a.26.26,0,0,0-.3.3V47.22a.26.26,0,0,0,.3.3h7.73a.47.47,0,0,1,.5.49v2.72a.47.47,0,0,1-.5.49h-7.73a.26.26,0,0,0-.3.3V62.36a.26.26,0,0,0,.3.3h8.91a.47.47,0,0,1,.5.49v2.72a.47.47,0,0,1-.5.49H422.85a.47.47,0,0,1-.5-.49Z"/><path d="M274.18,111.95a.49.49,0,0,1-.54-.4l-3.81-12.77h-1.88a.26.26,0,0,0-.3.3v12.37a.47.47,0,0,1-.5.49h-5.5a.47.47,0,0,1-.5-.49V78.8a.47.47,0,0,1,.5-.49h8c6,0,9.85,2.82,9.85,10.29,0,4.26-1.44,7-3.76,8.61l4.6,14.25c.1.25,0,.49-.25.49ZM273,88.59c0-3.51-1.09-4.6-3.61-4.6h-1.44a.26.26,0,0,0-.3.3V92.9a.26.26,0,0,0,.3.3h1.44C271.91,93.19,273,92.16,273,88.59Z"/><path d="M290.63,78.8c.1-.3.25-.49.54-.49H297a.54.54,0,0,1,.54.49l7.23,32.66a.38.38,0,0,1-.4.49h-5.5a.51.51,0,0,1-.54-.49l-1.09-6.09h-6.39l-1.14,6.09a.51.51,0,0,1-.54.49h-5.5a.38.38,0,0,1-.4-.49Zm5.7,21.42-2.13-11.68H294l-2.23,11.68Z"/><path d="M309,78.8a.47.47,0,0,1,.5-.49h5.35c.45,0,.69.15.79.49l5.15,17.66h.2l5-17.66c.1-.35.35-.49.79-.49H332a.47.47,0,0,1,.5.49v32.66a.47.47,0,0,1-.5.49h-4.8a.47.47,0,0,1-.5-.49V92h-.3l-3.66,13.46a.64.64,0,0,1-.64.49H319.4a.64.64,0,0,1-.64-.49L315.09,92h-.3v19.45a.47.47,0,0,1-.5.49h-4.8a.47.47,0,0,1-.5-.49Z"/><path d="M338.57,78.8a.47.47,0,0,1,.5-.49h14.71a.47.47,0,0,1,.5.49v4.85a.47.47,0,0,1-.5.49h-8.42a.26.26,0,0,0-.3.3v7.32a.26.26,0,0,0,.3.3h7.28a.47.47,0,0,1,.5.49V97.4a.47.47,0,0,1-.5.49h-7.28a.26.26,0,0,0-.3.3v7.62a.26.26,0,0,0,.3.3h8.42a.47.47,0,0,1,.5.49v4.85a.47.47,0,0,1-.5.49H339.06a.47.47,0,0,1-.5-.49Z"/><path d="M359.37,78.8a.47.47,0,0,1,.5-.49H366a.62.62,0,0,1,.69.49l5.59,21.13h.25V78.8a.47.47,0,0,1,.5-.49h4.7a.47.47,0,0,1,.5.49v32.66a.47.47,0,0,1-.5.49h-5.94a.62.62,0,0,1-.69-.49l-5.84-21.13h-.25v21.13a.47.47,0,0,1-.5.49h-4.7a.47.47,0,0,1-.5-.49Z"/><path d="M393.94,78.8a.47.47,0,0,1,.5-.49h6.39c5.84,0,8.37,2.52,8.37,8.66,0,4.21-1.44,6.28-3.91,7.37v.1c2.53.79,4.26,3.07,4.26,7.87,0,7.23-2.92,9.65-9.21,9.65h-5.89a.47.47,0,0,1-.5-.49Zm6.69,14.05c3.17,0,4.51-1.19,4.51-5.39S403.94,82,400.52,82h-2.28a.26.26,0,0,0-.3.3V92.55a.26.26,0,0,0,.3.3Zm-2.38,15.39h2.23c3.66,0,5-1.34,5-6,0-4.5-1.44-5.89-4.85-5.89h-2.38a.26.26,0,0,0-.3.3v11.28A.26.26,0,0,0,398.25,108.24Z"/><path d="M420.63,78.8c.1-.3.25-.49.54-.49h3a.54.54,0,0,1,.54.49l7.08,32.66a.41.41,0,0,1-.45.49h-3a.51.51,0,0,1-.54-.49l-1.49-7.37h-7.48l-1.49,7.37c0,.3-.2.49-.5.49h-3a.41.41,0,0,1-.45-.49Zm5,21.82L422.76,86h-.15l-3.07,14.65Z"/><path d="M449.6,111.95a.5.5,0,0,1-.54-.35l-4.21-14.05a13,13,0,0,1-1.39,0h-2a.26.26,0,0,0-.3.3v13.56a.47.47,0,0,1-.5.49h-3a.47.47,0,0,1-.5-.49V78.8a.47.47,0,0,1,.5-.49h5.89c5.94,0,9.11,2.57,9.11,9.7,0,4.5-1.49,7.23-4.11,8.56l4.7,14.89c.1.25,0,.49-.25.49Zm-1-23.95c0-4.55-1.49-6-5.05-6h-2.13a.26.26,0,0,0-.3.3V93.69a.26.26,0,0,0,.3.3h2.13C447,94,448.61,92.6,448.61,88Z"/><path d="M261.09,125.57a.47.47,0,0,1,.49-.49h12.72a.47.47,0,0,1,.49.49v2.72a.47.47,0,0,1-.49.49H265.4a.26.26,0,0,0-.3.3v10.69a.26.26,0,0,0,.3.3h7.72a.47.47,0,0,1,.49.49v2.72a.47.47,0,0,1-.49.49H265.4a.26.26,0,0,0-.3.3v14.15a.47.47,0,0,1-.49.49h-3a.47.47,0,0,1-.49-.49Z"/><path d="M293.07,158.72a.5.5,0,0,1-.54-.35l-4.21-14.05a13,13,0,0,1-1.39,0h-2a.26.26,0,0,0-.3.3v13.56a.47.47,0,0,1-.49.49h-3a.47.47,0,0,1-.49-.49V125.57a.47.47,0,0,1,.49-.49H287c5.94,0,9.11,2.57,9.11,9.7,0,4.5-1.48,7.23-4.11,8.56l4.7,14.89c.1.25,0,.49-.25.49Zm-1-23.95c0-4.55-1.49-6-5-6H284.9a.26.26,0,0,0-.3.3v11.38a.26.26,0,0,0,.3.3H287C290.5,140.76,292.08,139.38,292.08,134.77Z"/><path d="M302.92,125.57a.47.47,0,0,1,.49-.49h12.72a.47.47,0,0,1,.49.49v2.72a.47.47,0,0,1-.49.49h-8.91a.26.26,0,0,0-.3.3v10.49a.26.26,0,0,0,.3.3H315a.47.47,0,0,1,.49.49v2.72a.47.47,0,0,1-.49.49h-7.72a.26.26,0,0,0-.3.3v10.84a.26.26,0,0,0,.3.3h8.91a.47.47,0,0,1,.49.49v2.72a.47.47,0,0,1-.49.49H303.42a.47.47,0,0,1-.49-.49Z"/><path d="M322.58,125.57a.47.47,0,0,1,.49-.49H335.8a.47.47,0,0,1,.49.49v2.72a.47.47,0,0,1-.49.49h-8.91a.26.26,0,0,0-.3.3v10.49a.26.26,0,0,0,.3.3h7.72a.47.47,0,0,1,.49.49v2.72a.47.47,0,0,1-.49.49h-7.72a.26.26,0,0,0-.3.3v10.84a.26.26,0,0,0,.3.3h8.91a.47.47,0,0,1,.49.49v2.72a.47.47,0,0,1-.49.49H323.07a.47.47,0,0,1-.49-.49Z"/><path d="M349,159.17c-5.1,0-7.67-2.87-7.92-8.66,0-.3.1-.5.4-.54l2.92-.54a.43.43,0,0,1,.54.45c.2,4.16,1.53,5.64,4.11,5.64s3.76-1.24,3.76-5.79c0-3.86-.74-5.29-3.41-6.33l-2-.79c-4.6-1.78-5.89-4.06-5.89-9.25,0-5.74,2.47-8.71,7.52-8.71s7.38,2.77,7.62,8a.5.5,0,0,1-.45.54l-2.77.45a.4.4,0,0,1-.54-.4c-.1-3.31-1.19-4.95-3.76-4.95s-3.66,1.48-3.66,4.9.79,4.65,3.52,5.69l2,.79c4.31,1.73,5.84,4,5.84,9.55C356.79,156,354.66,159.17,349,159.17Z"/><path d="M367.19,158.72a.47.47,0,0,1-.5-.49V129.08a.26.26,0,0,0-.3-.3h-5.54a.47.47,0,0,1-.5-.49v-2.72a.47.47,0,0,1,.5-.49h15.69a.47.47,0,0,1,.49.49v2.72a.47.47,0,0,1-.49.49H371a.26.26,0,0,0-.3.3v29.14a.47.47,0,0,1-.49.49Z"/><path d="M387.09,158.72a.47.47,0,0,1-.49-.49V144.82l-6.48-19.25c-.1-.3,0-.49.35-.49h3.12c.35,0,.49.15.59.49l4.4,14.1h.15l4.41-14.1c.1-.35.25-.49.54-.49h3.07c.35,0,.45.2.35.49l-6.48,19.25v13.41a.47.47,0,0,1-.49.49Z"/><path d="M402.34,125.57a.47.47,0,0,1,.49-.49h3a.47.47,0,0,1,.49.49v29.14a.26.26,0,0,0,.3.3h8.81a.47.47,0,0,1,.49.49v2.72a.47.47,0,0,1-.49.49H402.83a.47.47,0,0,1-.49-.49Z"/><path d="M421.54,125.57a.47.47,0,0,1,.49-.49h12.72a.47.47,0,0,1,.49.49v2.72a.47.47,0,0,1-.49.49h-8.91a.26.26,0,0,0-.3.3v10.49a.26.26,0,0,0,.3.3h7.72a.47.47,0,0,1,.49.49v2.72a.47.47,0,0,1-.49.49h-7.72a.26.26,0,0,0-.3.3v10.84a.26.26,0,0,0,.3.3h8.91a.47.47,0,0,1,.49.49v2.72a.47.47,0,0,1-.49.49H422a.47.47,0,0,1-.49-.49Z"/><path d="M260.4,171.15a.47.47,0,0,1,.49-.49h8.51c6.24,0,9,2.87,9,8.76,0,4.11-1.39,6.18-3.86,7.27v.1c2.47.74,4.26,3.12,4.26,7.62,0,7.42-3.37,9.9-9.95,9.9h-8a.47.47,0,0,1-.49-.49Zm8.22,13.31c2.52,0,3.32-.84,3.32-4.16s-.79-4.16-3.32-4.16h-1.44a.26.26,0,0,0-.3.3v7.72a.26.26,0,0,0,.3.3Zm-1.44,14.35h1.44c2.72,0,3.66-1.09,3.66-4.65s-.94-4.55-3.66-4.55h-1.44a.26.26,0,0,0-.3.3v8.61A.26.26,0,0,0,267.18,198.81Z"/><path d="M283.82,195.2v-24a.47.47,0,0,1,.49-.49h5.5a.47.47,0,0,1,.49.49V196c0,1.78.94,2.92,2.57,2.92s2.62-1.14,2.62-2.92V171.15a.47.47,0,0,1,.49-.49h5.49a.47.47,0,0,1,.49.49v24c0,6.33-3.46,9.55-9.11,9.55S283.82,201.53,283.82,195.2Z"/><path d="M307.93,171.15a.47.47,0,0,1,.49-.49h6.19a.62.62,0,0,1,.69.49l5.59,21.13h.25V171.15a.47.47,0,0,1,.49-.49h4.7a.47.47,0,0,1,.49.49v32.66a.47.47,0,0,1-.49.49H320.4a.62.62,0,0,1-.69-.49l-5.84-21.13h-.25v21.13a.47.47,0,0,1-.49.49h-4.7a.47.47,0,0,1-.49-.49Z"/><path d="M341.83,171.38a.47.47,0,0,1,.49-.49h6.39c5.84,0,8.37,2.52,8.37,8.66,0,4.21-1.44,6.28-3.91,7.37v.1c2.52.79,4.26,3.07,4.26,7.87,0,7.23-2.92,9.65-9.21,9.65h-5.89a.47.47,0,0,1-.49-.49Zm6.68,14.05c3.17,0,4.5-1.19,4.5-5.39s-1.19-5.44-4.6-5.44h-2.28a.26.26,0,0,0-.3.3v10.24a.26.26,0,0,0,.3.3Zm-2.38,15.39h2.23c3.66,0,5-1.34,5-6,0-4.5-1.44-5.89-4.85-5.89h-2.38a.26.26,0,0,0-.3.3v11.28A.26.26,0,0,0,346.14,200.82Z"/><path d="M368.51,171.38c.1-.3.25-.49.54-.49h3a.54.54,0,0,1,.54.49L379.65,204a.41.41,0,0,1-.45.49h-3a.51.51,0,0,1-.54-.49l-1.48-7.37h-7.47L365.25,204c0,.3-.2.49-.49.49h-3a.41.41,0,0,1-.45-.49Zm5,21.82-2.87-14.65h-.15l-3.07,14.65Z"/><path d="M397.48,204.53a.5.5,0,0,1-.54-.35l-4.21-14.05a13,13,0,0,1-1.39,0h-2a.26.26,0,0,0-.3.3V204a.47.47,0,0,1-.49.49h-3A.47.47,0,0,1,385,204V171.38a.47.47,0,0,1,.49-.49h5.89c5.94,0,9.11,2.57,9.11,9.7,0,4.5-1.48,7.23-4.11,8.56l4.7,14.89c.1.25,0,.49-.25.49Zm-1-23.95c0-4.55-1.49-6-5-6h-2.13a.26.26,0,0,0-.3.3v11.38a.26.26,0,0,0,.3.3h2.13C394.9,186.57,396.49,185.18,396.49,180.58Z"/><rect class="cls-2" x="5.84" y="4.87" width="229.86" height="227.83"/><path d="M260.4,254a.47.47,0,0,1,.49-.49h6.39c5.84,0,8.37,2.52,8.37,8.66,0,4.21-1.44,6.28-3.91,7.37v.1c2.52.79,4.26,3.07,4.26,7.87,0,7.23-2.92,9.65-9.21,9.65h-5.89a.47.47,0,0,1-.49-.49ZM267.08,268c3.17,0,4.5-1.19,4.5-5.39s-1.19-5.44-4.6-5.44h-2.28a.26.26,0,0,0-.3.3v10.24a.26.26,0,0,0,.3.3Zm-2.38,15.39h2.23c3.66,0,5-1.34,5-6,0-4.5-1.44-5.89-4.85-5.89h-2.38a.26.26,0,0,0-.3.3v11.28A.26.26,0,0,0,264.71,283.43Z"/><path d="M286.19,287.14a.47.47,0,0,1-.49-.49V273.24L279.21,254c-.1-.3,0-.49.35-.49h3.12c.35,0,.49.15.59.49l4.4,14.1h.15l4.41-14.1c.1-.35.25-.49.54-.49h3.07c.35,0,.45.2.35.49l-6.48,19.25v13.41a.47.47,0,0,1-.49.49Z"/><path d="M313.78,254c.1-.3.25-.49.54-.49h3a.54.54,0,0,1,.54.49l7.08,32.66a.41.41,0,0,1-.45.49h-3a.51.51,0,0,1-.54-.49l-1.48-7.37H312l-1.48,7.37c0,.3-.2.49-.49.49h-3a.41.41,0,0,1-.45-.49Zm5,21.82-2.87-14.65h-.15l-3.07,14.65Z"/><path d="M330.26,254a.47.47,0,0,1,.49-.49h3a.47.47,0,0,1,.49.49v13.76a.26.26,0,0,0,.3.3h7.23a.26.26,0,0,0,.3-.3V254a.47.47,0,0,1,.49-.49h3a.47.47,0,0,1,.49.49v32.66a.47.47,0,0,1-.49.49h-3a.47.47,0,0,1-.49-.49v-14.6a.26.26,0,0,0-.3-.3h-7.23a.26.26,0,0,0-.3.3v14.6a.47.47,0,0,1-.49.49h-3a.47.47,0,0,1-.49-.49Z"/><path d="M358.63,254c.1-.3.25-.49.54-.49h3a.54.54,0,0,1,.54.49l7.08,32.66a.41.41,0,0,1-.45.49h-3a.51.51,0,0,1-.54-.49l-1.48-7.37h-7.47l-1.48,7.37c0,.3-.2.49-.49.49h-3a.41.41,0,0,1-.45-.49Zm5,21.82-2.87-14.65h-.15l-3.07,14.65Z"/><path d="M387.59,287.14a.5.5,0,0,1-.54-.35l-4.21-14.05a13,13,0,0,1-1.39,0h-2a.26.26,0,0,0-.3.3v13.56a.47.47,0,0,1-.49.49h-3a.47.47,0,0,1-.49-.49V254a.47.47,0,0,1,.49-.49h5.89c5.94,0,9.11,2.57,9.11,9.7,0,4.5-1.48,7.23-4.11,8.56l4.7,14.89c.1.25,0,.49-.25.49Zm-1-23.95c0-4.55-1.49-6-5-6h-2.13a.26.26,0,0,0-.3.3v11.38a.26.26,0,0,0,.3.3h2.13C385,269.18,386.6,267.8,386.6,263.19Z"/><path d="M397.54,282.59c-.49-1.49-.64-2.72-.64-12.27s.15-10.79.64-12.27c1-3.22,3.56-5,7.38-5s6.39,1.78,7.38,5c.49,1.48.64,2.72.64,12.27s-.15,10.79-.64,12.27c-1,3.22-3.56,5-7.38,5S398.58,285.81,397.54,282.59Zm10.94-1.14c.3-1,.4-1.73.4-11.13s-.1-10.14-.4-11.13a3.44,3.44,0,0,0-3.56-2.38,3.38,3.38,0,0,0-3.51,2.38c-.35,1-.45,1.73-.45,11.13s.1,10.14.45,11.13a3.38,3.38,0,0,0,3.51,2.37A3.44,3.44,0,0,0,408.48,281.45Z"/><path d="M419.82,254a.47.47,0,0,1,.49-.49H424a.67.67,0,0,1,.74.49l7.52,25.24h.2V254a.47.47,0,0,1,.49-.49h2.62a.47.47,0,0,1,.5.49v32.66a.47.47,0,0,1-.5.49H432.1a.67.67,0,0,1-.74-.49l-7.67-25.24h-.25v25.24a.47.47,0,0,1-.5.49h-2.62a.47.47,0,0,1-.49-.49Z"/><path d="M443.53,254a.47.47,0,0,1,.49-.49h3a.47.47,0,0,1,.49.49v32.66a.47.47,0,0,1-.49.49h-3a.47.47,0,0,1-.49-.49Z"/><path d="M169.33,113.67l-12.49,0c0-.28-.09-.52-.11-.76-.11-1.35-.23-2.7-.3-4-.23-4-.47-8-.65-11.94-.23-5.08-.41-10.17-.58-15.25q-.17-4.91-.28-9.83c-.09-3.76-.17-7.51-.21-11.27,0-4.77,0-9.54-.06-14.3,0-.18,0-.35,0-.61,4.91-.43,9.81-.41,14.72-.45a1.86,1.86,0,0,1,.12.4c0,1-.11,2,0,2.94a25.39,25.39,0,0,1-.08,2.74c0,3.09-.07,6.18-.08,9.28,0,2.34.05,4.68,0,7,0,2.59-.14,5.18-.17,7.77s0,5.13,0,7.7c0,4.35,0,8.71,0,13.06,0,2.68.12,5.36.16,8s.05,5.64.07,8.45c0,.34,0,.68,0,1.11"/><path d="M139.67,107.28c0-5.42-.09-10.83-.16-16.25q-.09-7.09-.23-14.17c-.15-7.33-.3-14.67-.49-22-.15-5.75-.36-11.49-.56-17.23-.07-1.95-.17-3.89-.27-5.84,0-.35-.06-.7-.09-1.1l-11.39-.62c0,.62,0,1.11,0,1.6,0,4.06,0,8.12,0,12.18,0,3.86.12,7.73.12,11.59,0,5.78,0,11.55-.06,17.33l-4.84-.17c-3.43-.1-6.86-.15-10.29-.2q-4.48-.07-9-.09H99c-.1-11.46-.24-21.44-.36-21.95-.65-.12-10.28.25-11.17.44,0,.27-.07.5-.08.74-.05,1.4-.12,2.79-.15,4.18-.08,3.75-.12,7.51-.21,11.26,0,1.78-.1,3.56-.14,5.34-3.1,0-6.2.09-9.31.14-1.23,0-2.47.09-3.7.13-.22,0-.44,0-.7.07C73,76.47,72.88,80.2,72.71,84c.4,0,.7.07,1,.08,2.57.08,5.14.17,7.71.24l5.06.09c0,.53-.05,1.06-.06,1.59-.09,4.28-.13,8.57-.18,12.85q-.05,4-.11,8c0,.16,0,.33,0,.47,1.11.38,11.58.19,12.91-.21.1-.77.09-10.81,0-22.24l1.6.07c2.34.1,4.68.17,7,.29s4.72.32,7.08.43c2.13.11,4.26.13,6.4.22l5.31.25c0,3.46-.14,6.91-.17,10.36s0,6.74,0,10.1q0,6.68-.1,13.36c0,1.32-.15,2.64-.08,3.94s0,2.83,0,4.24a4.35,4.35,0,0,0,.11.59,108.13,108.13,0,0,0,13.42,0c0-.36,0-.62,0-.87,0-6.87,0-13.74,0-20.61"/><path d="M48.93,156.36c-.14,6.36.08,12.64.46,18.94l.39,0c1.55,0,3.1,0,4.65,0,2.8,0,5.6.09,8.4.12,2.39,0,4.78,0,7.17,0,3.47,0,6.93.08,10.4.08,3.29,0,6.59,0,9.88-.1,4.35-.07,8.7-.16,13-.27,3.08-.08,6.16-.18,9.23-.36a54.71,54.71,0,0,1,6.77,0,17.34,17.34,0,0,0,4.5-.29,55.16,55.16,0,0,0,7.88-2.26,8.25,8.25,0,0,0,3.55-2.4l1.33-1.57a7.93,7.93,0,0,0,.46-2.06,8.49,8.49,0,0,0-1-5.34,8.09,8.09,0,0,0-2.67-2.84c-.74-.44-1.51-.83-2.26-1.24a3.2,3.2,0,0,0-1.39-.44c-1.54-.09-3.08-.26-4.62-.37a18.77,18.77,0,0,1-2.31-.13,19.51,19.51,0,0,0-3.27-.19c-2.36-.08-4.72,0-7.08,0-1.38,0-2.75,0-4.13,0-3,0-5.93.3-8.9.16-1.36-.06-2.71-.06-4.07-.08l-7.56-.13-6.59-.12c-2.67-.06-5.34-.19-8-.2-3.53,0-7.07,0-10.6.12-4.29.08-8.56.48-12.83.81-.23,0-.46.07-.79.13m83.3,28.11c3.73,7,7.34,14,10.71,21.21-.3,0-.5.06-.71.06l-11.05-.13a5.77,5.77,0,0,0-.78,0,1,1,0,0,1-1.18-.73c-.54-1.24-1.17-2.44-1.75-3.67l-2.34-4.95c-.67-1.42-1.36-2.83-2-4.25-.43-.91-.89-1.81-1.24-2.75a12.74,12.74,0,0,0-1.1-2.13c-.28-.45-.78-1.36-.75-1.08-.11,0-8.14.32-12,.42s-7.71.19-11.57.27c-3.4.06-6.81.09-10.21.14L77.3,187l-22,.38c-1.38,0-2.75.09-4.13.14a5.57,5.57,0,0,0-.57.08c0,.55-.06,1.08-.08,1.61,0,.84-.09,1.67-.08,2.51s.07,1.41.12,2.12c.16,2.47.34,4.93.5,7.4q.14,2.12.26,4.24c0,.27,0,.55,0,.9-3.36.36-11.19.84-11.67.37,0-.17,0-.9,0-1.18q-.1-1.22-.18-2.44c0-.49,0-1-.06-1.47-.18-3.95-.35-7.9-.54-11.84-.18-3.67-.39-7.34-.57-11-.21-4.27-.41-8.55-.62-12.82-.12-2.3-.26-4.59-.38-6.89-.17-3.37-.33-6.74-.5-10.11-.07-1.42-.15-2.83-.22-4.25,0-.23,0-.47,0-.78.31,0,.56-.06.81-.06h4.46c2,0,4,0,6.07,0,4.82,0,9.65.09,14.47.11q6.68,0,13.37,0,4.72,0,9.44-.06c3.49,0,7-.09,10.47-.14,2.45,0,4.91-.09,7.36-.09,2.8,0,5.59,0,8.39.06,2.22,0,4.44,0,6.65,0,1.46,0,2.93.12,4.38.29,1.92.22,3.83.53,5.75.83a27.45,27.45,0,0,1,7.36,2.3q2,.9,3.88,1.9a16.13,16.13,0,0,1,3.25,2.53,24.94,24.94,0,0,1,3.78,4.39,23,23,0,0,1,2.85,6c.37,1.14.66,2.31,1,3.47a5.36,5.36,0,0,1,.14,1.08,13.52,13.52,0,0,1-.24,3.79,9.28,9.28,0,0,1-.8,2,12.82,12.82,0,0,1-2.63,3.4,38.71,38.71,0,0,1-2.95,2.7,26.77,26.77,0,0,1-7,4.31c-.46.17-.95.29-1.41.46-1,.38-2,.78-3,1.21"/><path d="M162.2,161.32a9.33,9.33,0,0,1,1.81-5.79,24.71,24.71,0,0,1,10.17-9.33,24.48,24.48,0,0,0,2.27-1.2,8.09,8.09,0,0,1,3.19-1,21.14,21.14,0,0,1,11.65,1.53,13.63,13.63,0,0,1,2.62,1.92,38.14,38.14,0,0,1,6.58,7.36A32.42,32.42,0,0,1,204,161a12.69,12.69,0,0,1,1.12,4.37c.11,1.74.19,3.49.23,5.23a4.44,4.44,0,0,1-.25,1.6c-.67,1.82-1.43,3.61-2.1,5.43s-2.17,3.28-3.56,4.69a19.59,19.59,0,0,1-10.15,5.14,22.56,22.56,0,0,1-7.06.71,7.88,7.88,0,0,1-1.71-.35,51.05,51.05,0,0,1-11.48-5.65,13.92,13.92,0,0,1-5.11-6.32,24.72,24.72,0,0,1-1.79-8.73c-.07-1,0-2.09,0-3.14,0,0,.08-1.79,0-2.68"/><path d="M205.77,195.88c0,3,0,5.85,0,8.78-.17,0-.32.06-.48.07-.84.07-1.68.15-2.53.2-2.49.14-5,.3-7.47.41-3.18.14-6.36.25-9.54.35q-3.07.1-6.15.16c-2.35,0-4.7.09-7.05.1-3,0-6,0-8.95,0l-.38,0c-.29-3.46-.29-6.9-.34-10.35a1.11,1.11,0,0,1,.25-.08c.61,0,1.22.08,1.84,0a14.08,14.08,0,0,1,1.71.06c1.94,0,3.87.07,5.8.09,1.46,0,2.92,0,4.39,0,1.62,0,3.24.12,4.86.15s3.21,0,4.82,0c2.72,0,5.45.07,8.17.07,1.68,0,3.35-.07,5-.08s3.52,0,5.29,0c.21,0,.42,0,.69,0"/><path class="cls-1" d="M241.29,0H0V237.56H235.71V308H477V0Zm.26,4.87H471.42V232.69H241.55ZM5.84,232.69V4.87H235.71V232.69Zm465.57,70.44H241.55V237.62H471.42Z"/></g></g></svg>