<svg id="Design" xmlns="http://www.w3.org/2000/svg" width="79" height="79" viewBox="0 0 79 79"><defs><style>.cls-1{fill:#fff;}</style></defs><title>h_w_arrow_b</title><path class="cls-1" d="M1828.5,9639.1v-74h74v74h-74Zm18.8-8.6,48.5-28.4-48.5-28.4v56.9Z" transform="translate(-1826 -9562.6)"/><path class="cls-1" d="M1900,9567.6v34.1l-6.6-3.9-20.5-12-20.5-12-7.5-4.4v65.6l7.5-4.4,20.5-12,20.5-12,6.6-3.9v34.1h-69v-69h69m5-5h-79v79h79v-79h0Zm-55.2,63.6v-48.1l20.5,12,20.5,12-20.5,12-20.5,12h0Z" transform="translate(-1826 -9562.6)"/></svg>