<svg xmlns="http://www.w3.org/2000/svg" width="324" height="441" viewBox="0 0 324 441">
  <defs>
    <style>
      .cls-1 {
        fill: #fff;
      }
    </style>
  </defs>
  <title>h_w_m_logo</title>
  <g id="Layer_2" data-name="Layer 2">
    <g id="Links_Info" data-name="Links&amp;Info">
      <g>
        <g>
          <path class="cls-1" d="M201.48,126.75l-18.94-.07c-.06-.42-.13-.79-.16-1.15-.16-2-.35-4.09-.46-6.13-.35-6-.72-12.07-1-18.11-.34-7.71-.62-15.42-.89-23.13q-.26-7.45-.43-14.9c-.13-5.7-.27-11.4-.32-17.09-.07-7.23-.07-14.46-.1-21.68,0-.27,0-.54.06-.92,7.45-.65,14.87-.62,22.31-.68a3.07,3.07,0,0,1,.18.61c0,1.49-.17,3,0,4.46a38.94,38.94,0,0,1-.12,4.15c-.05,4.69-.1,9.38-.12,14.07,0,3.54.08,7.09,0,10.63,0,3.93-.21,7.85-.27,11.77s0,7.78,0,11.67c0,6.6-.07,13.2,0,19.8,0,4.06.19,8.13.24,12.19.06,4.27.08,8.55.1,12.82C201.56,125.57,201.51,126.09,201.48,126.75Z"/>
          <path class="cls-1" d="M156.51,117.07c0-8.21-.14-16.43-.24-24.64q-.14-10.74-.34-21.49c-.22-11.12-.45-22.24-.74-33.35-.23-8.71-.55-17.42-.85-26.13-.1-3-.26-5.9-.4-8.85,0-.53-.09-1.06-.14-1.67L136.53,0c0,.95-.07,1.69-.07,2.43,0,6.16,0,12.31.06,18.47,0,5.86.18,11.72.19,17.58,0,8.76,0,17.51-.09,26.26l-7.34-.24c-5.2-.15-10.4-.23-15.6-.31q-6.8-.11-13.61-.14l-5.22,0c-.16-17.37-.37-32.5-.54-33.26-1-.18-15.58.37-16.94.66,0,.4-.1.76-.11,1.13-.08,2.11-.18,4.23-.22,6.34-.12,5.69-.18,11.38-.31,17.07-.06,2.7-.15,5.4-.22,8.09-4.7,0-9.41.14-14.11.23-1.87,0-3.74.13-5.61.2-.34,0-.67.07-1.06.11L55,81.81c.6,0,1.07.11,1.54.12,3.9.13,7.79.26,11.69.36,2.56.06,5.11.09,7.67.14,0,.81-.08,1.62-.09,2.42-.14,6.49-.19,13-.28,19.48q-.08,6.06-.17,12.13c0,.25,0,.5,0,.71,1.69.58,17.56.3,19.58-.32.16-1.17.14-16.39,0-33.72l2.42.1c3.55.15,7.1.26,10.65.44s7.15.48,10.73.66c3.23.16,6.47.2,9.7.34,2.68.11,5.36.25,8,.38-.07,5.24-.21,10.47-.26,15.71s0,10.21,0,15.32q0,10.13-.15,20.26c0,2-.23,4-.12,6,.13,2.17-.06,4.29,0,6.43a6.64,6.64,0,0,0,.16.89c6.78.24,13.55.61,20.34,0,0-.55.06-.93.06-1.32C156.53,137.9,156.55,127.48,156.51,117.07Z"/>
          <g>
            <path class="cls-1" d="M145.23,234.09c5.65,10.68,11.13,21.24,16.24,32.15-.46,0-.77.09-1.07.09l-16.75-.2a8.75,8.75,0,0,0-1.17,0,1.53,1.53,0,0,1-1.79-1.1c-.82-1.88-1.77-3.71-2.65-5.56-1.19-2.5-2.36-5-3.54-7.5-1-2.15-2.06-4.29-3.07-6.44-.65-1.38-1.35-2.75-1.88-4.18a19.39,19.39,0,0,0-1.66-3.22c-.42-.69-1.18-2.07-1.13-1.63-.17,0-12.34.48-18.25.63s-11.69.3-17.54.41c-5.16.1-10.32.14-15.48.22l-13.52.2-33.41.58c-2.09,0-4.18.13-6.26.21a8.44,8.44,0,0,0-.86.13c0,.83-.09,1.64-.12,2.44-.05,1.27-.13,2.54-.13,3.8,0,1.07.11,2.14.18,3.21.25,3.74.51,7.48.76,11.22q.21,3.21.39,6.43c0,.42,0,.84,0,1.36-5.1.55-17,1.27-17.7.56,0-.26,0-1.37-.06-1.78q-.15-1.85-.27-3.7c0-.74-.06-1.49-.09-2.23-.27-6-.52-12-.81-18-.27-5.57-.58-11.13-.86-16.7-.32-6.48-.62-13-.95-19.44-.17-3.48-.39-7-.57-10.45C.87,190.52.63,185.41.37,180.3.27,178.15.15,176,0,173.85c0-.35,0-.71,0-1.18.47,0,.85-.09,1.23-.09l6.76,0c3.07,0,6.14,0,9.21,0,7.31.05,14.63.13,21.94.17q10.14,0,20.27,0,7.15,0,14.31-.08c5.29-.05,10.58-.14,15.87-.21,3.72-.05,7.44-.13,11.16-.14,4.24,0,8.48.07,12.73.09,3.36,0,6.73-.05,10.09,0,2.22,0,4.44.18,6.64.43,2.91.34,5.81.81,8.72,1.26a41.73,41.73,0,0,1,11.16,3.48q3,1.37,5.89,2.88a24.5,24.5,0,0,1,4.93,3.84,37.78,37.78,0,0,1,5.73,6.65,34.74,34.74,0,0,1,4.31,9.17c.57,1.73,1,3.5,1.47,5.26a8,8,0,0,1,.21,1.65,20.54,20.54,0,0,1-.36,5.74,14,14,0,0,1-1.21,3,19.5,19.5,0,0,1-4,5.16,59.46,59.46,0,0,1-4.47,4.1A40.55,40.55,0,0,1,152,231.55c-.7.26-1.44.44-2.14.7C148.35,232.83,146.87,233.44,145.23,234.09ZM18.93,191.48c-.22,9.64.12,19.16.7,28.72.21,0,.4,0,.59,0,2.35,0,4.7,0,7.05,0,4.24,0,8.49.14,12.73.18,3.62,0,7.25,0,10.87.08,5.26,0,10.51.12,15.77.12,5,0,10-.07,15-.15,6.6-.11,13.19-.24,19.78-.42,4.67-.13,9.34-.27,14-.55a83.47,83.47,0,0,1,10.27,0,26.19,26.19,0,0,0,6.83-.44,83.52,83.52,0,0,0,11.95-3.42,12.51,12.51,0,0,0,5.38-3.64l2-2.38a12.1,12.1,0,0,0,.69-3.12,12.89,12.89,0,0,0-1.58-8.09,12.27,12.27,0,0,0-4-4.31c-1.12-.66-2.29-1.26-3.43-1.88a4.87,4.87,0,0,0-2.11-.67c-2.34-.13-4.67-.39-7-.57a28.63,28.63,0,0,1-3.51-.2,29.34,29.34,0,0,0-5-.29c-3.58-.12-7.16,0-10.74,0-2.08,0-4.17,0-6.25,0-4.5,0-9,.46-13.5.25-2.05-.1-4.11-.08-6.17-.12l-11.46-.2c-3.33-.06-6.66-.11-10-.19-4-.1-8.1-.3-12.14-.31-5.36,0-10.71.08-16.07.18-6.5.12-13,.73-19.46,1.23C19.77,191.32,19.43,191.4,18.93,191.48Z"/>
            <g>
              <path class="cls-1" d="M190.68,199a14.14,14.14,0,0,1,2.74-8.78c4-6,8.77-11.07,15.42-14.15a36.75,36.75,0,0,0,3.44-1.81,12.24,12.24,0,0,1,4.83-1.59A32.05,32.05,0,0,1,234.77,175a20.53,20.53,0,0,1,4,2.92c4,3.15,7,7.14,10,11.16a49,49,0,0,1,5.38,9.49,19.18,19.18,0,0,1,1.71,6.63c.17,2.64.29,5.29.35,7.94a6.71,6.71,0,0,1-.38,2.42c-1,2.76-2.17,5.47-3.19,8.23-1.08,2.94-3.3,5-5.4,7.11-4.25,4.33-9.62,6.51-15.39,7.79a34.11,34.11,0,0,1-10.7,1.07,11.88,11.88,0,0,1-2.59-.53,77.47,77.47,0,0,1-17.41-8.56,21.11,21.11,0,0,1-7.74-9.58c-1.91-4.22-2.4-8.71-2.71-13.24-.11-1.58,0-3.18,0-4.77C190.65,203.06,190.76,200.35,190.68,199Z"/>
              <path class="cls-1" d="M256.73,251.4l0,13.32c-.26,0-.49.09-.72.11-1.28.11-2.55.23-3.83.3-3.77.22-7.55.46-11.33.62-4.82.21-9.64.37-14.46.53q-4.66.16-9.32.24c-3.56.07-7.13.14-10.69.16-4.52,0-9,0-13.57,0-.17,0-.34,0-.58,0-.43-5.24-.45-10.46-.52-15.69a1.74,1.74,0,0,1,.38-.12c.93,0,1.85.13,2.79,0a21.71,21.71,0,0,1,2.6.1c2.93.06,5.87.11,8.8.14,2.22,0,4.43,0,6.65,0,2.46,0,4.91.18,7.37.23s4.87,0,7.3.07c4.13,0,8.26.1,12.39.1,2.54,0,5.08-.1,7.63-.13s5.35,0,8,0C256,251.34,256.32,251.37,256.73,251.4Z"/>
            </g>
          </g>
        </g>
        <g>
          <path class="cls-1" d="M192.78,312.83a.35.35,0,0,1,.37-.37h9.58a.35.35,0,0,1,.37.37v2a.35.35,0,0,1-.37.37H196a.2.2,0,0,0-.22.22v8a.2.2,0,0,0,.22.22h5.82a.35.35,0,0,1,.37.37v2a.35.35,0,0,1-.37.37H196a.2.2,0,0,0-.22.22V337.4a.35.35,0,0,1-.37.37h-2.28a.35.35,0,0,1-.37-.37Z"/>
          <path class="cls-1" d="M216.88,337.77a.38.38,0,0,1-.41-.26l-3.17-10.57a9.77,9.77,0,0,1-1,0h-1.53a.2.2,0,0,0-.22.22v10.2a.35.35,0,0,1-.37.37h-2.28a.35.35,0,0,1-.37-.37V312.83a.35.35,0,0,1,.37-.37h4.44c4.48,0,6.86,1.94,6.86,7.3,0,3.39-1.12,5.44-3.1,6.44l3.54,11.21c.07.19,0,.37-.19.37Zm-.75-18c0-3.42-1.12-4.5-3.8-4.5h-1.6a.2.2,0,0,0-.22.22V324a.2.2,0,0,0,.22.22h1.6C214.94,324.26,216.13,323.22,216.13,319.75Z"/>
          <path class="cls-1" d="M224.3,312.83a.35.35,0,0,1,.37-.37h9.58a.35.35,0,0,1,.37.37v2a.35.35,0,0,1-.37.37h-6.71a.2.2,0,0,0-.22.22v7.89a.2.2,0,0,0,.22.22h5.82a.35.35,0,0,1,.37.37v2a.35.35,0,0,1-.37.37h-5.82a.2.2,0,0,0-.22.22v8.15a.2.2,0,0,0,.22.22h6.71a.35.35,0,0,1,.37.37v2a.35.35,0,0,1-.37.37h-9.58a.35.35,0,0,1-.37-.37Z"/>
          <path class="cls-1" d="M239.11,312.83a.35.35,0,0,1,.37-.37h9.58a.35.35,0,0,1,.37.37v2a.35.35,0,0,1-.37.37h-6.71a.2.2,0,0,0-.22.22v7.89a.2.2,0,0,0,.22.22h5.82a.35.35,0,0,1,.37.37v2a.35.35,0,0,1-.37.37h-5.82a.2.2,0,0,0-.22.22v8.15a.2.2,0,0,0,.22.22h6.71a.35.35,0,0,1,.37.37v2a.35.35,0,0,1-.37.37h-9.58a.35.35,0,0,1-.37-.37Z"/>
          <path class="cls-1" d="M259,338.11c-3.84,0-5.78-2.16-6-6.51,0-.22.07-.37.3-.41l2.2-.41a.32.32,0,0,1,.41.33c.15,3.13,1.16,4.24,3.1,4.24s2.83-.93,2.83-4.36c0-2.9-.56-4-2.57-4.77l-1.53-.6c-3.47-1.34-4.44-3.05-4.44-7,0-4.32,1.86-6.55,5.67-6.55s5.56,2.08,5.74,6a.38.38,0,0,1-.34.41l-2.09.34a.3.3,0,0,1-.41-.3c-.07-2.49-.89-3.72-2.83-3.72s-2.76,1.12-2.76,3.69.6,3.5,2.65,4.28l1.53.6c3.24,1.3,4.4,3,4.4,7.19C264.88,335.73,263.28,338.11,259,338.11Z"/>
          <path class="cls-1" d="M272.72,337.77a.35.35,0,0,1-.37-.37V315.47a.2.2,0,0,0-.22-.22h-4.18a.35.35,0,0,1-.37-.37v-2a.35.35,0,0,1,.37-.37h11.82a.35.35,0,0,1,.37.37v2a.35.35,0,0,1-.37.37h-4.18a.2.2,0,0,0-.22.22V337.4a.35.35,0,0,1-.37.37Z"/>
          <path class="cls-1" d="M287.71,337.77a.35.35,0,0,1-.37-.37V327.31l-4.88-14.48c-.07-.22,0-.37.26-.37h2.35c.26,0,.37.11.45.37l3.32,10.61h.11l3.32-10.61c.07-.26.19-.37.41-.37H295c.26,0,.34.15.26.37l-4.88,14.48V337.4a.35.35,0,0,1-.37.37Z"/>
          <path class="cls-1" d="M299.2,312.83a.35.35,0,0,1,.37-.37h2.28a.35.35,0,0,1,.37.37v21.93a.2.2,0,0,0,.22.22h6.64a.35.35,0,0,1,.37.37v2a.35.35,0,0,1-.37.37h-9.51a.35.35,0,0,1-.37-.37Z"/>
          <path class="cls-1" d="M313.67,312.83a.35.35,0,0,1,.37-.37h9.58a.35.35,0,0,1,.37.37v2a.35.35,0,0,1-.37.37h-6.71a.2.2,0,0,0-.22.22v7.89a.2.2,0,0,0,.22.22h5.82a.35.35,0,0,1,.37.37v2a.35.35,0,0,1-.37.37h-5.82a.2.2,0,0,0-.22.22v8.15a.2.2,0,0,0,.22.22h6.71a.35.35,0,0,1,.37.37v2a.35.35,0,0,1-.37.37H314a.35.35,0,0,1-.37-.37Z"/>
          <path class="cls-1" d="M202.07,372.07a.37.37,0,0,1-.41-.3l-2.87-9.61h-1.42a.2.2,0,0,0-.22.22v9.31a.35.35,0,0,1-.37.37h-4.14a.35.35,0,0,1-.37-.37V347.13a.35.35,0,0,1,.37-.37h6c4.51,0,7.42,2.12,7.42,7.74,0,3.2-1.08,5.29-2.83,6.48l3.47,10.72c.07.19,0,.37-.19.37Zm-.9-17.57c0-2.64-.82-3.46-2.72-3.46h-1.08a.2.2,0,0,0-.22.22v6.48a.2.2,0,0,0,.22.22h1.08C200.36,358,201.18,357.18,201.18,354.5Z"/>
          <path class="cls-1" d="M214.45,347.13c.07-.22.19-.37.41-.37h4.4a.41.41,0,0,1,.41.37l5.44,24.57a.29.29,0,0,1-.3.37h-4.14a.38.38,0,0,1-.41-.37l-.82-4.58h-4.81l-.86,4.58a.38.38,0,0,1-.41.37h-4.14a.29.29,0,0,1-.3-.37Zm4.29,16.12-1.6-8.79H217l-1.68,8.79Z"/>
          <path class="cls-1" d="M228.29,347.13a.35.35,0,0,1,.37-.37h4c.34,0,.52.11.6.37l3.88,13.29h.15L241,347.13c.07-.26.26-.37.6-.37h4a.35.35,0,0,1,.37.37V371.7a.35.35,0,0,1-.37.37H242a.35.35,0,0,1-.37-.37V357.07h-.22l-2.76,10.13a.48.48,0,0,1-.49.37h-2.05a.48.48,0,0,1-.49-.37l-2.76-10.13h-.22V371.7a.35.35,0,0,1-.37.37h-3.62a.35.35,0,0,1-.37-.37Z"/>
          <path class="cls-1" d="M250.56,347.13a.35.35,0,0,1,.37-.37H262a.35.35,0,0,1,.37.37v3.65a.35.35,0,0,1-.37.37h-6.34a.2.2,0,0,0-.22.22v5.51a.2.2,0,0,0,.22.22h5.48a.35.35,0,0,1,.37.37v3.65a.35.35,0,0,1-.37.37h-5.48a.2.2,0,0,0-.22.22v5.73a.2.2,0,0,0,.22.22H262a.35.35,0,0,1,.37.37v3.65a.35.35,0,0,1-.37.37H250.93a.35.35,0,0,1-.37-.37Z"/>
          <path class="cls-1" d="M266.23,347.13a.35.35,0,0,1,.37-.37h4.66a.46.46,0,0,1,.52.37L276,363h.19v-15.9a.35.35,0,0,1,.37-.37h3.54a.35.35,0,0,1,.37.37V371.7a.35.35,0,0,1-.37.37h-4.48a.47.47,0,0,1-.52-.37l-4.4-15.9h-.19v15.9a.35.35,0,0,1-.37.37H266.6a.35.35,0,0,1-.37-.37Z"/>
          <path class="cls-1" d="M192.78,381.42a.35.35,0,0,1,.37-.37H198c4.4,0,6.3,1.9,6.3,6.51,0,3.16-1.08,4.73-2.95,5.55v.07c1.9.6,3.21,2.31,3.21,5.92,0,5.44-2.2,7.26-6.94,7.26h-4.44a.35.35,0,0,1-.37-.37Zm5,10.57c2.39,0,3.39-.89,3.39-4.06s-.9-4.09-3.47-4.09H196a.2.2,0,0,0-.22.22v7.71a.2.2,0,0,0,.22.22ZM196,403.58h1.68c2.76,0,3.77-1,3.77-4.51s-1.08-4.43-3.65-4.43H196a.2.2,0,0,0-.22.22v8.49A.2.2,0,0,0,196,403.58Z"/>
          <path class="cls-1" d="M212.89,381.42c.07-.22.19-.37.41-.37h2.24a.41.41,0,0,1,.41.37L221.28,406a.31.31,0,0,1-.34.37h-2.24a.38.38,0,0,1-.41-.37l-1.12-5.55h-5.63L210.43,406c0,.22-.15.37-.37.37h-2.24a.31.31,0,0,1-.34-.37Zm3.77,16.42-2.16-11h-.11l-2.31,11Z"/>
          <path class="cls-1" d="M234.71,406.37a.38.38,0,0,1-.41-.26l-3.17-10.57a9.77,9.77,0,0,1-1,0h-1.53a.2.2,0,0,0-.22.22V406a.35.35,0,0,1-.37.37h-2.28a.35.35,0,0,1-.37-.37V381.42a.35.35,0,0,1,.37-.37h4.44c4.48,0,6.86,1.94,6.86,7.3,0,3.39-1.12,5.44-3.1,6.44L237.43,406c.07.19,0,.37-.19.37Zm-.75-18c0-3.42-1.12-4.5-3.8-4.5h-1.6a.2.2,0,0,0-.22.22v8.56a.2.2,0,0,0,.22.22h1.6C232.77,392.85,234,391.81,234,388.35Z"/>
          <path class="cls-1" d="M250.34,381.42a.35.35,0,0,1,.37-.37h4.81c4.4,0,6.3,1.9,6.3,6.51,0,3.16-1.08,4.73-2.95,5.55v.07c1.9.6,3.21,2.31,3.21,5.92,0,5.44-2.2,7.26-6.94,7.26h-4.44a.35.35,0,0,1-.37-.37Zm5,10.57c2.39,0,3.39-.89,3.39-4.06s-.9-4.09-3.47-4.09h-1.72a.2.2,0,0,0-.22.22v7.71a.2.2,0,0,0,.22.22Zm-1.79,11.58h1.68c2.76,0,3.77-1,3.77-4.51s-1.08-4.43-3.65-4.43h-1.79a.2.2,0,0,0-.22.22v8.49A.2.2,0,0,0,253.58,403.58Z"/>
          <path class="cls-1" d="M269.77,406.37a.35.35,0,0,1-.37-.37V395.91l-4.89-14.48c-.07-.22,0-.37.26-.37h2.35c.26,0,.37.11.45.37L270.89,392H271l3.32-10.61c.07-.26.19-.37.41-.37H277c.26,0,.34.15.26.37l-4.88,14.48V406a.35.35,0,0,1-.37.37Z"/>
          <path class="cls-1" d="M196.63,415.72c.07-.22.19-.37.41-.37h2.24a.41.41,0,0,1,.41.37L205,440.29a.31.31,0,0,1-.34.37h-2.24a.38.38,0,0,1-.41-.37l-1.12-5.55h-5.63l-1.12,5.55c0,.22-.15.37-.37.37h-2.24a.31.31,0,0,1-.34-.37Zm3.77,16.42-2.16-11h-.11l-2.31,11Z"/>
          <path class="cls-1" d="M209,415.72a.35.35,0,0,1,.37-.37h2.28a.35.35,0,0,1,.37.37v10.35a.2.2,0,0,0,.22.22h5.45a.2.2,0,0,0,.22-.22V415.72a.35.35,0,0,1,.37-.37h2.27a.35.35,0,0,1,.37.37v24.57a.35.35,0,0,1-.37.37h-2.27a.35.35,0,0,1-.37-.37v-11a.2.2,0,0,0-.22-.22h-5.45a.2.2,0,0,0-.22.22v11a.35.35,0,0,1-.37.37h-2.28a.35.35,0,0,1-.37-.37Z"/>
          <path class="cls-1" d="M230.42,415.72c.07-.22.19-.37.41-.37h2.24a.41.41,0,0,1,.41.37l5.33,24.57a.31.31,0,0,1-.34.37h-2.24a.38.38,0,0,1-.41-.37l-1.12-5.55h-5.63L228,440.29c0,.22-.15.37-.37.37h-2.24a.31.31,0,0,1-.34-.37Zm3.77,16.42-2.16-11h-.11l-2.31,11Z"/>
          <path class="cls-1" d="M252.24,440.67a.38.38,0,0,1-.41-.26l-3.17-10.57a9.77,9.77,0,0,1-1,0h-1.53a.2.2,0,0,0-.22.22v10.2a.35.35,0,0,1-.37.37h-2.28a.35.35,0,0,1-.37-.37V415.72a.35.35,0,0,1,.37-.37h4.44c4.48,0,6.86,1.94,6.86,7.3,0,3.39-1.12,5.44-3.1,6.44L255,440.29c.07.19,0,.37-.19.37Zm-.75-18c0-3.42-1.12-4.5-3.8-4.5h-1.6a.2.2,0,0,0-.22.22v8.56a.2.2,0,0,0,.22.22h1.6C250.3,427.15,251.49,426.11,251.49,422.64Z"/>
          <path class="cls-1" d="M259.74,437.24c-.37-1.12-.49-2-.49-9.23s.11-8.12.49-9.23c.78-2.42,2.68-3.76,5.56-3.76s4.81,1.34,5.56,3.76c.37,1.12.49,2,.49,9.23s-.11,8.12-.49,9.23c-.75,2.42-2.68,3.76-5.56,3.76S260.52,439.66,259.74,437.24Zm8.24-.86c.22-.74.3-1.3.3-8.38s-.07-7.63-.3-8.38a2.59,2.59,0,0,0-2.68-1.79,2.55,2.55,0,0,0-2.65,1.79c-.26.74-.34,1.3-.34,8.38s.07,7.63.34,8.38a2.55,2.55,0,0,0,2.65,1.79A2.59,2.59,0,0,0,268,436.38Z"/>
          <path class="cls-1" d="M276.52,415.72a.35.35,0,0,1,.37-.37h2.8a.5.5,0,0,1,.56.37l5.67,19h.15v-19a.35.35,0,0,1,.37-.37h2a.35.35,0,0,1,.37.37v24.57a.35.35,0,0,1-.37.37h-2.65a.5.5,0,0,1-.56-.37l-5.78-19h-.19v19a.35.35,0,0,1-.37.37h-2a.35.35,0,0,1-.37-.37Z"/>
          <path class="cls-1" d="M294.39,415.72a.35.35,0,0,1,.37-.37H297a.35.35,0,0,1,.37.37v24.57a.35.35,0,0,1-.37.37h-2.28a.35.35,0,0,1-.37-.37Z"/>
        </g>
      </g>
    </g>
  </g>
</svg>
