<svg xmlns="http://www.w3.org/2000/svg" width="90" height="141.98" viewBox="0 0 90 141.98">
  <defs>
    <style>
      .cls-1 {
        fill: #e0499a;
      }

      .cls-2 {
        fill: #231f20;
      }
    </style>
  </defs>
  <title>h_w_google_maps</title>
  <g id="Layer_2" data-name="Layer 2">
    <g id="Links_Info" data-name="Links&amp;Info">
      <g>
        <path class="cls-1" d="M19.43,18.42s4.62-7.71,6.81-9.71C29.9,5.35,39.31,1.15,44.19.19c3.75-.73,15.27.86,15.27.86L70.85,6.72s8,7.1,9.92,10.1c1.58,2.51,4,11.16,4,11.16s1.36,9,1.45,12c.12,3.59-.81,14.36-.81,14.36s2.85.49,3.47,1.16c1,1.1,1.05,4.37,1.09,5.86a40.68,40.68,0,0,1-1.09,8.44c-.55,2.12-2.8,8.3-2.8,8.3l-3.77,5.41-3.41,2.14S74.82,96,72.75,99.12c-2.25,3.34-11,11.73-11,11.73l-11.36,6.38L39,123.92l-10.26-2.42-6.9-5.88-4.56-11.84L15.33,90.88s-2.07-8.16-2.45-10.94c-.34-2.46-.55-9.93-.55-9.93L10.79,57.17l.91-16.11s.61-9.06,1.57-11.91S19.43,18.42,19.43,18.42Z"/>
        <path class="cls-2" d="M89.59,47.27c-1.07.18-14,5.32-18.44,6.9-2.93,1-5.17,2-8.1,3l-1.63-.06c-1.17,0-2.34-.12-3.52-.11H55.58c1.28-.35,2.55-.76,3.8-1.2A5,5,0,0,0,61.9,54c.74-1.06,1.5-2.12,2.23-3.19a2,2,0,0,0,.31-.65,13.64,13.64,0,0,0,.51-3.84,2.71,2.71,0,0,0-.81-2A5.7,5.7,0,0,0,63,43.41c-1.3-.71-2.31-1.52-3.67-2.12-.16-.07-.82-.34-1.4-.54a3.51,3.51,0,0,0-2-.33c-2.21.37-3.23,3-3.23,3l2.41-.69,2.6,1.46a1,1,0,0,1,.42,1c-.29,1.39-.72,2.89-2,3.63-.47.27-.78.29-1.27.52-.24.11-1.24.45-1.24.45s-1.73.09-2.65.12a55.24,55.24,0,0,0-7.79,1,30.28,30.28,0,0,0-4.28,1.26,48.84,48.84,0,0,0,.43,5.82c0,.19.17,1,.24,1.45l-.93.3a9.66,9.66,0,0,1-6,.14c-.52-.17-1.06-.29-1.59-.42,0-.67-.06-3.26-.12-4.3a16.35,16.35,0,0,0-.58-3.77s-7.31-.71-9.85-.62a25.63,25.63,0,0,1-4.3,0,4.93,4.93,0,0,1-3.61-1.75,3.72,3.72,0,0,1-.75-1.7A9.88,9.88,0,0,1,12.55,45a10.44,10.44,0,0,1,2.6-1.66l2.44.51-.82-1.09a2.51,2.51,0,0,0-1.65-1l-1.5-.21s-3.65,1-4.55,1.8A10.65,10.65,0,0,0,7.73,46q-.12.22-.23.44h0a11.32,11.32,0,0,0-.74,2.38.65.65,0,0,0,0,.27,7.74,7.74,0,0,0,1.75,4.18c1.27,1.29,2.41,2.69,4.18,3.35.79.3,1.55.71,2.37.93.49.13,1,.23,1.48.31-1.3.08-2.6.23-3.89.33-3.68.29-7.35.62-11,.93-1,.08-1,.07-1.26,1A8.72,8.72,0,0,0,0,61.3a7.33,7.33,0,0,0,0,1.12,6.27,6.27,0,0,1,1,.2c.33.12.61.39.94.5,1.05.34,2.11.65,3.18.93A1,1,0,0,1,6,65c.23,1.56.44,3.13.8,4.66.68,2.92,1.56,5.75,4,7.79a3.38,3.38,0,0,0,2.56.86,43.46,43.46,0,0,0,10.27-1.8c1.4-.46,2.72-.93,3.53-2.27.15-.26.4-.46.57-.7,1.16-1.68,2.27-3.4,3.49-5a18.88,18.88,0,0,1,2.06-2l2.51.34c.42,1,.94,2.06,1.3,3.16a30.82,30.82,0,0,1,.73,3.23c.25,1.25.49,2.5.73,3.75a1.18,1.18,0,0,0,.74,1A25.76,25.76,0,0,0,46.62,80c1.5.14,3,.39,4.49.5a6,6,0,0,0,4.77-1.43,19.57,19.57,0,0,0,3.88-5.47c1-2.13,2-4.34,2.81-6.56a3,3,0,0,1,1.14-1.2c2.12-1.34,9.33-4.39,10.83-5.15,3.65-1.86,7.35-3.6,11-5.52C86.58,54.6,89.81,53,89.81,53S90.35,48.39,89.59,47.27ZM27.92,65.91c-.48,1.32-1,2.61-1.64,3.89a10,10,0,0,1-1.16,1.87,5.34,5.34,0,0,1-3.19,2.1c-2.59.55-5.15,1.18-7.72,1.8a.76.76,0,0,1-.87-.32,12.3,12.3,0,0,1-1.22-1.7A43.62,43.62,0,0,1,9,65.29a2.86,2.86,0,0,1,0-.47c3.21-1.77,15.51-2.9,19.76-1.79C28.45,64,28.26,65,27.92,65.91Zm31,0c-.41,1.52-.81,3-1.25,4.55A5.54,5.54,0,0,1,57,71.94q-1.21,1.85-2.52,3.63a1.39,1.39,0,0,1-.84.45,20.14,20.14,0,0,1-8.47-.14,4.68,4.68,0,0,0-.78-.2,2.55,2.55,0,0,1-2.18-1.77A27.14,27.14,0,0,1,40,65.72a5.35,5.35,0,0,1,0-.58,11.35,11.35,0,0,1,1.56-.64c1.72-.43,3.44-.88,5.19-1.19a13.26,13.26,0,0,1,3.2-.17,51.06,51.06,0,0,1,8.78,1.61,2.43,2.43,0,0,1,.43.22C59.08,65.29,59,65.61,59,65.93Z"/>
        <path class="cls-2" d="M55.49,102.36q-.08-.22-.17-.43c-1-2.32-1.82-5.23-4.64-5.88-1.31-.3-2.69-.41-4-.69a10.52,10.52,0,0,1-2.78-1.44c-1.34-.7-2.71-.5-4.18-.56-1.94-.09-3.1-1.85-4.67-2.71-2.29-1.26-4,.4-6.12.93s-2.64-1.21-4.44-1.67c-1.21-.31-2.12.37-3.18.8-1.47.59-1.49.06-3-.37-3.7-1-6.56,2.86-8.06,5.64-1.58,2.94-.89,6.5-.59,9.66a36.14,36.14,0,0,0,2.76,11.18,93,93,0,0,0,5.79,11.42,6.59,6.59,0,0,1,1,4.39c-.25,2-.52,4.09-.8,6.13-.06.42-.15.81.28,1.11,1,.65,1.89,1.32,3,2.11.15-.73.24-1.21.33-1.68.6-3.17,1.51-6.21,4-8.46,1.25-1.12,2.28-2.52,3.81-3.29,2.58-1.29,5.18-2.55,7.8-3.76,3.74-1.72,7.86-2.93,11.27-5.28a16.28,16.28,0,0,0,6-7.81C56.07,108.64,56.57,105.39,55.49,102.36Zm-41.8,7.36a31.47,31.47,0,0,1-.49-8.15h.19c.06.4.11.79.17,1.19a57.16,57.16,0,0,0,1.5,7.31q.92,3.2,1.82,6.4c.06.22.09.45.15.72C16.09,116.44,14.18,112.1,13.68,109.72ZM22.83,120c-1.37-2.62-2.15-9.78-1.36-12.19C22.1,109.12,23.11,118,22.83,120ZM21.09,99c2,.64,11.12,1.29,11.25,1.16a72.23,72.23,0,0,0,11.27-.81c-.42,2.77-4,5.51-4,5.52-2.3,1.61-7.49,1.29-8.28,1.24a12.49,12.49,0,0,1-6.89-3A12.46,12.46,0,0,1,21.09,99Zm15.08,14.58c-1.54,2-3,4.13-4.64,6.13-1.33,1.66-2.77,3.23-4.18,4.82A22.56,22.56,0,0,0,24.72,128a2,2,0,0,1-.18.23l-.07,0a5.26,5.26,0,0,1,.23-.68c.49-1,1-2,1.5-3a32.88,32.88,0,0,1,6-7.84c1.23-1.21,2.59-2.28,3.89-3.41a.48.48,0,0,1,.32-.12A5,5,0,0,1,36.17,113.57Zm12.27-2.35c-.43.54-.8,1.13-1.25,1.66a14.87,14.87,0,0,1-1.35,1.42c-.68.63-1.41,1.2-2.1,1.81a17.45,17.45,0,0,1-4.13,2.54c-.68.32-1.38.6-2.07.89a.56.56,0,0,1-.42,0c.35-.32.69-.64,1-.95,1.5-1.27,3-2.51,4.52-3.8,1.87-1.62,3.72-3.25,5.67-4.76a6.61,6.61,0,0,1,2-1.17C49.69,109.66,49.05,110.43,48.43,111.22Z"/>
      </g>
    </g>
  </g>
</svg>
