<svg id="Design" xmlns="http://www.w3.org/2000/svg" width="24" height="24" viewBox="0 0 24 24">
  <defs>
    <style>
      .cls-1 {
        fill: #e14c9a;
      }
    </style>
  </defs>
  <title>h_w_instagram_b_p</title>
  <path class="cls-1" d="M2028.28,3982.4h-4.5v-4.5h4.5v4.5Zm0,13.5h-18v-10.5h2a7.18,7.18,0,1,0,14.05,0h2v10.5Zm-9-13.19a4.19,4.19,0,1,1-4.19,4.19,4.19,4.19,0,0,1,4.19-4.19m10.91-7.81h-21.83a1.08,1.08,0,0,0-1.08,1.08v21.84a1.08,1.08,0,0,0,1.08,1.08h21.83a1.09,1.09,0,0,0,1.09-1.08V3976a1.09,1.09,0,0,0-1.09-1.08" transform="translate(-2007.28 -3974.9)"/>
</svg>
