<svg id="Design" xmlns="http://www.w3.org/2000/svg" width="136" height="210" viewBox="0 0 136 210"><defs><style>.cls-1{fill:#e14c9a;}.cls-2{fill:#fff;}</style></defs><title>h_w_takeaway_b</title><rect class="cls-1" x="1.5" y="1.5" width="133" height="207"/><path class="cls-2" d="M240.5,4791.2v204h-130v-204h130m3-3h-136v210h136v-210h0Z" transform="translate(-107.5 -4788.2)"/><path class="cls-2" d="M161.7,4891.3l-1.1.6h-0.3l-0.6-.5-2.7-2.2a2.5,2.5,0,0,0-1.7-.6h-1.5a3.9,3.9,0,0,1-1.7-.4l-2.4-1.3a1.2,1.2,0,0,1-.5-0.9,0.7,0.7,0,0,1,.8-0.7h1l1.9,0.2h0.9l-0.8-.9a6.6,6.6,0,0,0-1.6-1.2,1.8,1.8,0,0,0-1-.2,12.1,12.1,0,0,0-2.7.6,5.7,5.7,0,0,1-2.5.1,0.5,0.5,0,0,1-.4-0.4,0.8,0.8,0,0,1,.4-0.6l0.7-.4,0.5-.3a1.6,1.6,0,0,0,.8-1.4,0.3,0.3,0,0,0-.2-0.3l-1.3-.7a18.5,18.5,0,0,0-3.4-1l-2-.4-2-.4-2.1-.6a7,7,0,0,1-1.8-1.1,0.3,0.3,0,0,1-.1-0.2c0-.3,0-0.7,0-1a0.3,0.3,0,0,1,.2-0.3,1.3,1.3,0,0,1,.7-0.1l1,0.2,1.4,0.3h0.1l1.8,0.5,1.8,0.4-0.2-.2-3.7-4.4a3.5,3.5,0,0,0-1.8-1l-0.8-.3a5.1,5.1,0,0,0-2-.1,5.8,5.8,0,0,1-3.3-.6c-0.4-.2-0.4-0.5-0.1-0.7l1.3-.8,1.5-.6-0.3-.3-1.7-1.6a2.4,2.4,0,0,1-.5-2.2,1.5,1.5,0,0,1,.7-1.1l0.7-.5a0.8,0.8,0,0,1,.7-0.2h0.1a5.2,5.2,0,0,1,3.3,2.1l1.3,1.8,0.8,0.8,0.2-.4,0.4-1.3,0.2-.7a0.9,0.9,0,0,1,.7-0.7c0.3-.1.3-0.1,0.5,0.2a5.2,5.2,0,0,1,1.1,2.4c0.1,0.9.1,1.8,0.2,2.7a6.7,6.7,0,0,0,.7,3.1l1,1.4a12.7,12.7,0,0,0,1.8,1.8,1.7,1.7,0,0,0,0-.3,1.9,1.9,0,0,0-.1-0.4,9.6,9.6,0,0,1-.2-2.5,1.1,1.1,0,0,1,0-.3l0.3-1.2a0.8,0.8,0,0,1,.6-0.6,1.5,1.5,0,0,1,2,.9,10,10,0,0,1,.8,4c0,0.8,0,1.5,0,2.3a1.9,1.9,0,0,0,0,.4,6.3,6.3,0,0,0,1.1,2.4l0.2,0.2a0.5,0.5,0,0,0,.7-0.1l0.6-1.5a4.7,4.7,0,0,0,.3-2.2,3.8,3.8,0,0,1,0-.6,1,1,0,0,1,.4-0.8,0.3,0.3,0,0,1,.5,0,2.6,2.6,0,0,1,.8,1.6,23,23,0,0,1,0,2.7c0,0.4,0,.9-0.1,1.3a0.5,0.5,0,0,0,.2.4l0.6,0.6,1.9,1.8a0.7,0.7,0,0,0,.9.1l0.6-.5,1.1-1.2,0.2-.2a0.4,0.4,0,0,1,.7.3,2.4,2.4,0,0,1,0,.7l-0.3,1a9.1,9.1,0,0,0-.4,2.3,1,1,0,0,0,.3.8l1.4,1.5a13.2,13.2,0,0,1,1.7,2.1l0.7,1Z" transform="translate(-107.5 -4788.2)"/><path class="cls-2" d="M153.7,4862.1a36,36,0,0,1-3.7,2.3l-0.6-.8-2.8-4.1-1.4-1.9-0.7.3-4.1,1.9a0.5,0.5,0,0,1-.6,0l-0.7-.6a11.8,11.8,0,0,1-2.9-4.1,7.6,7.6,0,0,1-.5-3.3,4.4,4.4,0,0,1,.4-1.3l0.7-1.6a4.6,4.6,0,0,1,1.2-1.4,14.1,14.1,0,0,1,6.2-2.8,8,8,0,0,1,5.6.7,7.2,7.2,0,0,1,2.3,1.9l0.9,1a3.3,3.3,0,0,1,.8,1.8,0.8,0.8,0,0,1-.2.7l-2,2.1-1.8,1.7-0.2.2a0.5,0.5,0,0,0-.1.7l1.2,1.8,2.6,4.1Z" transform="translate(-107.5 -4788.2)"/><path class="cls-2" d="M198.2,4818.1l0.3-.8,1.3-2.1a3.5,3.5,0,0,1,1.6-1.2l1-.5a3,3,0,0,1,1.9-.3,3.2,3.2,0,0,1,2.4,1.7,17.2,17.2,0,0,1,1.1,3.1l0.2,0.9a4.7,4.7,0,0,1,.1,1.7,23.1,23.1,0,0,1-.4,2.4l-3.9-1a41.8,41.8,0,0,1-2.5,6.2,5.3,5.3,0,0,1-1.7-.9l0.3-.7,0.8-2.7c0.2-.7.3-1.5,0.5-2.2a1.2,1.2,0,0,0-.4-1.3l-2.1-1.9Z" transform="translate(-107.5 -4788.2)"/><path class="cls-2" d="M141.3,4892.4l-0.4-1a0.3,0.3,0,0,1,0-.2,4.8,4.8,0,0,1,.5-1.2l0.2-.3,1-.8h0.5l1.4-.2,0.6,0.2a4.4,4.4,0,0,1,1,1,3.3,3.3,0,0,1,.5,1.1,0.3,0.3,0,0,1,0,.2,3.8,3.8,0,0,1-.2.8,4.4,4.4,0,0,1-.3.7,6.6,6.6,0,0,1-1,1.1,0.9,0.9,0,0,1-.6.3h-0.9l-1.1-.3-0.3-.2A5.5,5.5,0,0,1,141.3,4892.4Z" transform="translate(-107.5 -4788.2)"/><path class="cls-2" d="M180.4,4852.6a14.4,14.4,0,0,1-2.8,10.1,4,4,0,0,1-2.4,1.9C174.6,4861.8,177.3,4855.3,180.4,4852.6Z" transform="translate(-107.5 -4788.2)"/><path class="cls-2" d="M171.2,4816.4a9.4,9.4,0,0,1-1.6-6.7,2.6,2.6,0,0,1,.8-1.9C171.6,4809.3,172.1,4813.9,171.2,4816.4Z" transform="translate(-107.5 -4788.2)"/><path class="cls-2" d="M180.9,4842.4a26.5,26.5,0,0,1-7.2,11.4C173.2,4850.8,177,4844.5,180.9,4842.4Z" transform="translate(-107.5 -4788.2)"/><path class="cls-2" d="M158.1,4856.7c0.4-4.9,1-9.3,4.6-12.9C162.9,4848.8,161.3,4852.8,158.1,4856.7Z" transform="translate(-107.5 -4788.2)"/><path class="cls-2" d="M183,4819.7a21.8,21.8,0,0,1-8.1,9C175.2,4824.8,179,4820.6,183,4819.7Z" transform="translate(-107.5 -4788.2)"/><path class="cls-2" d="M181.6,4828.6a23.8,23.8,0,0,1-4.2,12C176.6,4838.2,179,4831.2,181.6,4828.6Z" transform="translate(-107.5 -4788.2)"/><path class="cls-2" d="M158.2,4828.1a12.6,12.6,0,0,1,2.7-10.9C161.6,4819,160.1,4825.5,158.2,4828.1Z" transform="translate(-107.5 -4788.2)"/><path class="cls-2" d="M169.3,4831.4c-1.1-3.9.5-7.5,1.4-11.2A13.3,13.3,0,0,1,169.3,4831.4Z" transform="translate(-107.5 -4788.2)"/><path class="cls-2" d="M157.2,4846.1c-1.2-4.2-1.8-8.5-.5-12.9C157.6,4837.5,158.3,4841.8,157.2,4846.1Z" transform="translate(-107.5 -4788.2)"/><path class="cls-2" d="M183.7,4846.9c1.6-3.3,3.5-6.3,7.6-7.1C189.6,4843.3,186.8,4845.3,183.7,4846.9Z" transform="translate(-107.5 -4788.2)"/><path class="cls-2" d="M171.4,4843.4c0.4,2.7-3.3,6.9-6.3,9.5C166.7,4849.1,167.7,4845.6,171.4,4843.4Z" transform="translate(-107.5 -4788.2)"/><path class="cls-2" d="M172.1,4832.4c-1.2,2.9-5.1,7.1-7.6,7.9C166.2,4836.8,168,4833.7,172.1,4832.4Z" transform="translate(-107.5 -4788.2)"/><path class="cls-2" d="M162.8,4862.8c1.8-2.9,2.8-5.9,5.9-7.6A9.5,9.5,0,0,1,162.8,4862.8Z" transform="translate(-107.5 -4788.2)"/><path class="cls-2" d="M162.2,4836a17,17,0,0,1,1-8.9C164.4,4829.6,164,4833.4,162.2,4836Z" transform="translate(-107.5 -4788.2)"/><path class="cls-2" d="M184.1,4860.8a17,17,0,0,1-3.3,8.3C180.2,4866.4,181.6,4862.9,184.1,4860.8Z" transform="translate(-107.5 -4788.2)"/><path class="cls-2" d="M185,4855.9a10.2,10.2,0,0,1,5.1-6.3C189.4,4852.6,187.3,4854.4,185,4855.9Z" transform="translate(-107.5 -4788.2)"/><path class="cls-2" d="M173.3,4812.1c0.5-3.5,1.7-6.5,4.5-8.6C177.8,4807.1,175.7,4809.7,173.3,4812.1Z" transform="translate(-107.5 -4788.2)"/><path class="cls-2" d="M165.3,4822.6c-0.6-2.7-1.3-5.4-.6-8.3C166.3,4815.8,166.6,4819.4,165.3,4822.6Z" transform="translate(-107.5 -4788.2)"/><path class="cls-2" d="M178.7,4874.8c-1.6-2.3-3.4-4.4-3.9-7.4C176.8,4868.1,178.5,4871.3,178.7,4874.8Z" transform="translate(-107.5 -4788.2)"/><path class="cls-2" d="M174,4819.7c0.8-2.7,1.5-5.3,3.7-7.6A9.1,9.1,0,0,1,174,4819.7Z" transform="translate(-107.5 -4788.2)"/><path class="cls-2" d="M181.1,4926.4l1.4,5.7c0.1,0.3-8.3.5-8.8,0.5-2.3,0-4.8,0-7.1-.2a41.9,41.9,0,0,1,.5-5s-6-3.9-7.9-5-2.8-2-4.2-2.8l-7-4.2c-4.9-2.7-9.8-5.4-14.5-8.5-3-2-6.6-4.1-8.8-7,1.4-.8,4-0.5,5.6-0.7l6-.5c8.8-.7,17.7-1.3,26.6-1.6a90.8,90.8,0,0,1,9.7-.2c6,0.4,21.7.6,27.7,1.1l15.9,1.4,9.2,0.8a2.7,2.7,0,0,1,1.2.3l-0.9.7c-5.1,3.5-10.4,7-15.5,10.6a92.1,92.1,0,0,1-18.3,10.2l-9.2,3.6Z" transform="translate(-107.5 -4788.2)"/><path class="cls-2" d="M150.4,4828.6a8,8,0,0,1,.6,2.2,14.3,14.3,0,0,1,.2,2.8,6.5,6.5,0,0,1-.5,2.3,3.7,3.7,0,0,1-.8,1.2l-1.6,1.6a7,7,0,0,1-2.3,1.3l-1.4.4a3.5,3.5,0,0,1-1.8-.1l-1.3-.4a3,3,0,0,1-1.2-.8l-1.4-1.3a6.4,6.4,0,0,1-1.3-2.3,22,22,0,0,1-1.1-7.8,16.1,16.1,0,0,1,.9-4.6,4.2,4.2,0,0,1,.6-1.1l0.3-.4a1.8,1.8,0,0,1,2-.8,12.9,12.9,0,0,1,3.7,1.2,9,9,0,0,1,2.1,1.5l2.5,2.4a8.8,8.8,0,0,1,1.8,2.3Zm-10.3,6.4a8.2,8.2,0,0,0,1,1.6l0.5,0.4,1,0.4a5.1,5.1,0,0,0,2.3.4h0.6l1.3-1a4.8,4.8,0,0,0,1.1-1.2,8.1,8.1,0,0,0,.9-2,0.8,0.8,0,0,0,0-.4,6.4,6.4,0,0,0-.8-2,5.8,5.8,0,0,0-1.7-1.9l-0.6-.2h-2.5a1.9,1.9,0,0,0-1,.3l-0.3.2a6,6,0,0,0-1.4,1.2,6.3,6.3,0,0,0-1,1.8,0.5,0.5,0,0,0,0,.3A10.3,10.3,0,0,0,140.1,4835.1Z" transform="translate(-107.5 -4788.2)"/><path class="cls-2" d="M171.3,4889.4a13.6,13.6,0,0,1-2.7,1.3H168l-1.1-.6-0.6-.4a1.7,1.7,0,0,1-.9-1.3c-0.2-1-.5-1.9-0.7-2.9a11,11,0,0,0-1.3-3.7l-1.5-2.4-0.6-.6a39.9,39.9,0,0,1-4.6-4.1l-1.3-1.2a1.4,1.4,0,0,1-.5-0.8,13.8,13.8,0,0,1-.1-5v-0.3l1-.9h4.3a8.1,8.1,0,0,1,3.5.8l5.3,2.4,0.9,0.5a26.2,26.2,0,0,1,3.5,3.3,8.9,8.9,0,0,1,1.3,2.1l0.4,0.9a2.8,2.8,0,0,1,.4,1.7c-0.1,1.9-.2,3.7-0.3,5.6a3.8,3.8,0,0,1-.6,1.6,13.8,13.8,0,0,1-2.2,3A5.7,5.7,0,0,1,171.3,4889.4Zm0.1-4.9,0.7-.2,0.2-.2,0.4-1.1a0.4,0.4,0,0,0-.2-0.6l-0.3-.2a0.9,0.9,0,0,0-1.1.3c-0.2.4-.3,0.8-0.5,1.2l0.6,0.8h0.1Zm-1-8.3-0.4-.5a1.1,1.1,0,0,0-1.5-.6h-1.2l1.5,1.2h0.3Zm-6.3-6.2-1.6-.3,0.3,1.2h1.3v-1.1Zm0.3,6.9,1.1-.4a2.7,2.7,0,0,0-1-1.1l-0.7.4Z" transform="translate(-107.5 -4788.2)"/><path class="cls-2" d="M223.8,4856.7l-2.6.7-2.5.6-2.2.6a11.9,11.9,0,0,0-2.5,1,8.6,8.6,0,0,0-2,1.4l-2.1,2a11,11,0,0,0-1,1.5l-0.7,1-1.8,3.3a15.2,15.2,0,0,0-.8,1.7c-0.3.9-.6,1.8-0.9,2.8l-0.6,1.8-0.7,2.2-0.4,1-1.2,3a17.5,17.5,0,0,1-.8,1.9,12,12,0,0,1-2,3.2l-2.4,2.4-1.3,1-0.7.3-2.9,1-2.7.9-2.8.8-2.8,1-3,1c-0.3.1-.4,0.1-0.5-0.3s-0.4-1.7-.4-2.5a22,22,0,0,1-.1-2.8,11.6,11.6,0,0,1,.3-2c0.2-.7.3-1.5,0.5-2.2l0.4-1.5,0.7-2.5,0.6-1.8,1-2.4,0.8-1.3c0.7-1.1,1.4-2.3,2.2-3.4a17,17,0,0,1,3.2-3.5l1.4-1.3,2.1-1.9,0.3-.3,3.5-2.6,1.4-1,2.7-1.7,2.4-1.4,3.5-1.6,2-.7a4,4,0,0,0,1.5-.8,8.4,8.4,0,0,0,2-3.2l1-2.6c0.3-.9.6-1.9,0.9-2.9s0.5-2,.7-3.1c1.1,3.5,2.1,6.9,1.8,10.5a31.4,31.4,0,0,1,7.8,2.8h-0.1Zm-32.2,27.7a8.2,8.2,0,0,0-2.7-3.2l-1.2-.4-1.1-.4h-0.1l-1.3-.2-1.3-.3h-1.2l-0.2.2,1.2,0.4,3.2,1.2,0.5,0.3,1.4,0.9,1.1,0.9,2.1,2.1h0.1A9.4,9.4,0,0,0,191.6,4884.4Zm-5,3.5a1.3,1.3,0,0,0-.3,1.1v0.3l0.3,0.5v0.2a2.9,2.9,0,0,0,1.8.5,1.8,1.8,0,0,0,.9-0.8,0.2,0.2,0,0,0,0-.1c-0.3-.5-0.3-1.2-1-1.5h-0.1a0.6,0.6,0,0,0-.8-0.4h-0.7A1.1,1.1,0,0,1,186.5,4887.8Z" transform="translate(-107.5 -4788.2)"/><path class="cls-2" d="M223.8,4880v-0.5a3.8,3.8,0,0,0-1-1.7c-1.1-1.1-3.2-3.1-3.7-3.4s1.6-6,1.6-6.2l-0.9-.3v0.2c-0.3.8-1.7,5.2-1.9,5.3,0.2-1.6.3-2.5,0.6-4l0.8-4.7-1.1-.4-0.2,1.1-0.2,1.1-0.2,1.1-0.2,1.1-0.2,1.1a4,4,0,0,1-.2,1c-0.1-1.9,0-3.8,0-5.7h-1.4c0,0.8,0,1.6,0,2.4s0,1.6,0,2.4-0.1,2.3-.1,2.4l-1.8-6.5-1.1.6,1.6,7.3-1.7.5a9.5,9.5,0,0,0-2.8,1,6.7,6.7,0,0,0-2.1,1.8,2.3,2.3,0,0,0-.5,1.2,12,12,0,0,0,.2,2.7,4.3,4.3,0,0,0,.6,1.6l0.8,1.3a4.8,4.8,0,0,0,1.5,1.4l1.7,1,1.2,0.6a4.1,4.1,0,0,1-.2.6l-0.7,1.5a5.2,5.2,0,0,1-1.6,2l-0.7.5-0.7.3-1.8.5-1.2.2-4.5.4H201l-2.3.8h0.3l3.4,0.4,2.8,0.2h1.7l2.6-.7,1-.4a5.3,5.3,0,0,0,1.9-1.8,40.3,40.3,0,0,0,2.2-3.9l0.2-.4,2.5,0.3h0.4l2.8-1.2a3.1,3.1,0,0,0,1.3-1.1l0.3-.4a13,13,0,0,0,1.6-2.7A1.6,1.6,0,0,0,223.8,4880Z" transform="translate(-107.5 -4788.2)"/><path class="cls-2" d="M194.5,4845.2a6.9,6.9,0,0,1,.9-2.7,6.4,6.4,0,0,1,1.9-1.9,4.9,4.9,0,0,1,2-.7l2.1-.3h1.8l1.7,0.8a6.2,6.2,0,0,1,1.6,1.2l0.5,0.6,0.7,1.2a7.1,7.1,0,0,1,.7,3.2,5.8,5.8,0,0,1-1.2,3.6,12.1,12.1,0,0,1-2.2,2.1,6.6,6.6,0,0,1-2.3,1.1,4.9,4.9,0,0,1-2.8,0l-1.5-.5a10.1,10.1,0,0,1-1.8-1.2,5.6,5.6,0,0,1-1.4-1.6,4.6,4.6,0,0,1-.4-1.1A9.5,9.5,0,0,1,194.5,4845.2Zm13.1,2.3a2.3,2.3,0,0,0-.2-1.6l-0.2-.5-0.2-.4a9.5,9.5,0,0,0-2.3-2.4,3.9,3.9,0,0,0-2.1-.8,4.5,4.5,0,0,0-1.5.1l-0.7.2a6.5,6.5,0,0,0-3.5,2l-1,1.3a1.5,1.5,0,0,0-.3.7,9.5,9.5,0,0,0,0,1.8,5,5,0,0,0,.2,1.3,4.2,4.2,0,0,0,1.8,2.3,11.6,11.6,0,0,0,3.1,1.4,2.3,2.3,0,0,0,1.4,0l1.6-.6a7.6,7.6,0,0,0,2.4-1.7A6.7,6.7,0,0,0,207.7,4847.5Z" transform="translate(-107.5 -4788.2)"/><path class="cls-2" d="M205.3,4849a1.8,1.8,0,0,0-.5-0.8l-0.8-.6a0.9,0.9,0,0,0-1.1.4,0.5,0.5,0,0,0,.2.6,2.6,2.6,0,0,0,1.7.5h0.4Z" transform="translate(-107.5 -4788.2)"/><path class="cls-2" d="M204.8,4849.6h-0.2l-0.8-.2a1,1,0,0,0-.7.3h-0.1a0.5,0.5,0,0,0,.4.6H204l0.8-.6h0Z" transform="translate(-107.5 -4788.2)"/><path class="cls-2" d="M205.5,4848.3v-0.9a1.2,1.2,0,0,0-.1-0.6,0.5,0.5,0,0,0-.3-0.3h-0.1c-0.3-.2-0.4-0.1-0.6.1a0.4,0.4,0,0,0-.1.4,3,3,0,0,0,.6,1Z" transform="translate(-107.5 -4788.2)"/><path class="cls-2" d="M198.2,4849.1l0.2-.2,0.5-.6a1,1,0,0,0,.1-0.7h-0.2a0.4,0.4,0,0,0-.7.1,0.8,0.8,0,0,0-.1.6,4.8,4.8,0,0,0,.2.9h0Z" transform="translate(-107.5 -4788.2)"/><path class="cls-2" d="M198.5,4849.5h0.7l0.9-.3a0.6,0.6,0,0,0,.4-0.7v-0.3a0.3,0.3,0,0,0-.3-0.2h-0.2a1.5,1.5,0,0,0-.8.5l-0.6,1h0Z" transform="translate(-107.5 -4788.2)"/><path class="cls-2" d="M199.1,4849.9l0.2,0.2,0.6,0.3h0.5l0.4-.2H201c0.2-.2.2-0.3,0.1-0.6a0.3,0.3,0,0,0-.4-0.2l-1.1.2Z" transform="translate(-107.5 -4788.2)"/><path class="cls-2" d="M201.4,4843.8l-0.2.3a3.6,3.6,0,0,0-.4,1.1,1.4,1.4,0,0,0,.3,1.2,0.5,0.5,0,0,0,.5.2,0.6,0.6,0,0,0,.4-0.4,1.2,1.2,0,0,0,0-.3,3,3,0,0,0-.3-1.2Z" transform="translate(-107.5 -4788.2)"/><path class="cls-2" d="M201.9,4843.8h0l0.4,0.8,0.2,0.2a1.1,1.1,0,0,0,.9.4h0.2V4845a0.5,0.5,0,0,0,0-.6,1.3,1.3,0,0,0-1.1-.7h-0.7Z" transform="translate(-107.5 -4788.2)"/><path class="cls-2" d="M201,4843.8h-1.1l-0.5.3a0.6,0.6,0,0,0-.2.4h0c-0.1.4,0.1,0.4,0.3,0.6a0.4,0.4,0,0,0,.5-0.1,3.3,3.3,0,0,0,.8-1Z" transform="translate(-107.5 -4788.2)"/><path class="cls-2" d="M191.3,4821.8a2.1,2.1,0,0,1,1.4.3l0.6,0.3a4.7,4.7,0,0,1,1.8,1.5l0.8,1.3a4.7,4.7,0,0,1,.5,1.6v1.2a1.9,1.9,0,0,1,0,.5,8.8,8.8,0,0,1-.9,2.8l-0.6,1.1a4,4,0,0,1-1.4,1.5,7,7,0,0,1-2.4,1,3.6,3.6,0,0,1-2-.1l-0.7-.2-0.9-.4-0.4-.3a3.4,3.4,0,0,1-1.3-1.1,4.4,4.4,0,0,1-.7-1.4l-0.3-1a3.2,3.2,0,0,1,.1-2.1l0.4-1.2a10.2,10.2,0,0,1,1.1-2.1,17.8,17.8,0,0,1,1.4-1.7,3.7,3.7,0,0,1,1.6-1.1A5,5,0,0,1,191.3,4821.8Zm3,4.9a3.2,3.2,0,0,0-.8-2.3,5.4,5.4,0,0,0-1.3-1.2,3.1,3.1,0,0,0-2-.5,3.4,3.4,0,0,0-2.2,1.2,6.2,6.2,0,0,0-1,1.4l-0.4.6a6.5,6.5,0,0,0-1.2,4.1,3.1,3.1,0,0,0,.6,2l1.3,1.4,0.7,0.5a4.1,4.1,0,0,0,1.8.2,3.5,3.5,0,0,0,2.3-1.1l0.5-.7a8,8,0,0,0,1.1-1.9A8.9,8.9,0,0,0,194.4,4826.7Z" transform="translate(-107.5 -4788.2)"/><path class="cls-2" d="M189.2,4825.1l0.7,0.5a2.3,2.3,0,0,1,.5.8,0.8,0.8,0,0,1-.4.9,0.4,0.4,0,0,1-.6-0.2,2.4,2.4,0,0,1-.3-1.6v-0.4Z" transform="translate(-107.5 -4788.2)"/><path class="cls-2" d="M188.6,4825.4v0.2a2.8,2.8,0,0,1,.1.8,1,1,0,0,1-.3.7h-0.2a0.4,0.4,0,0,1-.5-0.4,0.8,0.8,0,0,1,.2-0.6l0.6-.7h0Z" transform="translate(-107.5 -4788.2)"/><path class="cls-2" d="M189.8,4824.9h1.4l0.3,0.3h0c0.1,0.3.1,0.4-.1,0.5H191a2.8,2.8,0,0,1-.9-0.6Z" transform="translate(-107.5 -4788.2)"/><path class="cls-2" d="M187.4,4831.1h0.2l0.7-.2a0.9,0.9,0,0,1,.6.2h0.1a0.4,0.4,0,0,1-.4.5h-0.5l-0.7-.5h0Z" transform="translate(-107.5 -4788.2)"/><path class="cls-2" d="M187.1,4830.7l0.4-.6,0.6-.6a0.6,0.6,0,0,1,.7-0.1l0.2,0.2a0.2,0.2,0,0,1,.1.3H189a1.4,1.4,0,0,1-.7.5l-1.1.2h0Z" transform="translate(-107.5 -4788.2)"/><path class="cls-2" d="M187,4830v-0.8a1.1,1.1,0,0,1,.1-0.5l0.3-.3h0.1c0.3-.1.3,0,0.5,0.1a0.3,0.3,0,0,1,0,.4,2.6,2.6,0,0,1-.6.8Z" transform="translate(-107.5 -4788.2)"/><path class="cls-2" d="M192.4,4829.6h-1.4a1.3,1.3,0,0,1-.9-0.7,0.4,0.4,0,0,1,0-.5,0.5,0.5,0,0,1,.5-0.2h0.3l1,0.6Z" transform="translate(-107.5 -4788.2)"/><path class="cls-2" d="M192.6,4829.2h-0.1l-0.6-.6v-0.2a1,1,0,0,1,0-.9h0.4a0.5,0.5,0,0,1,.5.2,1.2,1.2,0,0,1,.2,1.2Z" transform="translate(-107.5 -4788.2)"/><path class="cls-2" d="M192.3,4830v0.3l-0.4.6-0.5.4h-0.6c-0.4-.1-0.4-0.2-0.4-0.5a0.4,0.4,0,0,1,.2-0.4l1.1-.4h0.5Z" transform="translate(-107.5 -4788.2)"/><path class="cls-2" d="M207.9,4828.7l1.9,0.2,0.7,0.3,0.9,0.5a7.7,7.7,0,0,1,2,1.5l0.2,0.4a5.6,5.6,0,0,1,.5,1.8,17.3,17.3,0,0,1,.2,1.9,4.3,4.3,0,0,1-1.3,3.5l-1.9,1.3a1.5,1.5,0,0,1-.9.2l-1.9-.2a4.7,4.7,0,0,1-2.2-1l-1.8-1.5a3.8,3.8,0,0,1-1.2-2.6,8.9,8.9,0,0,1,.5-3.1,10.5,10.5,0,0,1,1-1.9l0.2-.2a4.5,4.5,0,0,1,2.7-.9h0.3Zm1.3,10.9h0.9l1.1-.4a6.4,6.4,0,0,0,1.3-.9,3.8,3.8,0,0,0,1-1.6,2.2,2.2,0,0,0-.1-1.9v-0.3a3.2,3.2,0,0,0-.7-1.1l-0.9-.9-0.6-.5-0.4-.2a5.3,5.3,0,0,0-2.2-.9,6.5,6.5,0,0,0-2-.2l-1.1.2a2.6,2.6,0,0,0-1,.9,3.4,3.4,0,0,0-.6,1.6c0,0.3-.1.7-0.1,1a1.4,1.4,0,0,0,.1.8l0.6,1.4a6,6,0,0,0,1.3,1.7l1.4,0.9h0l0.7,0.2Z" transform="translate(-107.5 -4788.2)"/><path class="cls-2" d="M210.1,4838.1l-0.6-.5a2.1,2.1,0,0,1-.4-0.8,0.7,0.7,0,0,1,.4-0.8,0.4,0.4,0,0,1,.5.2,2.1,2.1,0,0,1,.2,1.5v0.3Z" transform="translate(-107.5 -4788.2)"/><path class="cls-2" d="M210.7,4837.8v-0.2a2.5,2.5,0,0,1-.1-0.7,0.9,0.9,0,0,1,.3-0.6h0.2a0.4,0.4,0,0,1,.4.4,0.8,0.8,0,0,1-.2.5l-0.6.6h0Z" transform="translate(-107.5 -4788.2)"/><path class="cls-2" d="M209.6,4838.2h-0.8l-0.5-.2-0.2-.3h0c-0.1-.3,0-0.3.2-0.5h0.3l0.8,0.6Z" transform="translate(-107.5 -4788.2)"/><path class="cls-2" d="M205.9,4836.8h0.2l0.7-.3a0.9,0.9,0,0,1,.7.1h0.1a0.4,0.4,0,0,1-.3.5h-0.5l-0.8-.4h0Z" transform="translate(-107.5 -4788.2)"/><path class="cls-2" d="M205.6,4836.4l0.3-.6,0.5-.7a0.6,0.6,0,0,1,.7-0.2l0.3,0.2a0.2,0.2,0,0,1,.1.3v0.2a1.4,1.4,0,0,1-.7.6l-1.1.3h0Z" transform="translate(-107.5 -4788.2)"/><path class="cls-2" d="M205.4,4835.7v-0.8a1.1,1.1,0,0,1,.1-0.5l0.3-.3h0.1c0.3-.2.3-0.1,0.5,0.1a0.3,0.3,0,0,1,0,.4,2.6,2.6,0,0,1-.5.9Z" transform="translate(-107.5 -4788.2)"/><path class="cls-2" d="M209.7,4832.9v0.3a3.3,3.3,0,0,1-.1,1.1,1.3,1.3,0,0,1-.8.9,0.4,0.4,0,0,1-.5-0.1,0.5,0.5,0,0,1-.2-0.5v-0.3a2.7,2.7,0,0,1,.7-0.9Z" transform="translate(-107.5 -4788.2)"/><path class="cls-2" d="M209.3,4832.7h-0.1l-0.6.5h-0.2a1,1,0,0,1-.9,0V4833a0.5,0.5,0,0,1,.2-0.5,1.2,1.2,0,0,1,1.2-.1Z" transform="translate(-107.5 -4788.2)"/><path class="cls-2" d="M210,4833h0.3l0.6,0.4a1.2,1.2,0,0,1,.3.5,0.6,0.6,0,0,1,0,.5h0c-0.1.3-.2,0.3-0.5,0.3a0.4,0.4,0,0,1-.3-0.3,3.1,3.1,0,0,1-.3-1.1C210.1,4833.3,210,4833.2,210,4833Z" transform="translate(-107.5 -4788.2)"/><path class="cls-2" d="M141.5,4961.8v-13.5h-1.2v-2.6h10.1v16.1h-8.9Zm6-13.5h-3.1v10.9h3.1v-10.9Z" transform="translate(-107.5 -4788.2)"/><path class="cls-2" d="M154,4956v-7.7h-1.5v-2.6h4.4V4956H154Z" transform="translate(-107.5 -4788.2)"/><path class="cls-2" d="M165.5,4961.8v-13.5h-3.1v13.5h-2.9v-16.1h8.9v16.1h-2.9Z" transform="translate(-107.5 -4788.2)"/><path class="cls-2" d="M171.3,4961.8v-16.1h2.9v16.1h-2.9Z" transform="translate(-107.5 -4788.2)"/><path class="cls-2" d="M181.5,4961.8h-3.6v-2.6h3.6v-10.9h-5.2v-4.8h2.9v2.1h5.2v13.2A2.9,2.9,0,0,1,181.5,4961.8Z" transform="translate(-107.5 -4788.2)"/><path class="cls-2" d="M198.6,4960a1.7,1.7,0,0,1-1.8,1.9h-9.4l-1-16.1h2.7l0.5,7.3h1.7l0.4-7.3h2.8l-0.6,9.9h-4l0.2,3.6h5.9l0.9-13.5h2.8Z" transform="translate(-107.5 -4788.2)"/><path class="cls-2" d="M206.1,4961.8v-2.6h1.3v-10.9H205l-0.9,13.5h-2.8l0.9-13.5h-0.9v-2.6h3.5v1l1.4-1h2.7a1.4,1.4,0,0,1,1.5,1.5v14.7h-4.2Z" transform="translate(-107.5 -4788.2)"/><path class="cls-2" d="M134,4985.8v-13.8h-2.6v-2.4h8.4v2.4h-2.5v13.8H134Z" transform="translate(-107.5 -4788.2)"/><path class="cls-2" d="M140.3,4985.8l3.2-16.2h3.6l3.2,16.2h-3.1l-0.6-3.6H144l-0.6,3.6h-3.1Zm4-5.6h1.9l-1-6.4Z" transform="translate(-107.5 -4788.2)"/><path class="cls-2" d="M151.9,4985.8v-16.2h3.3v6.8l2.9-6.8h3.2l-3,7.3,3.3,8.9h-3.3l-2.6-7.4-0.5.8v6.6h-3.3Z" transform="translate(-107.5 -4788.2)"/><path class="cls-2" d="M162.9,4985.8v-16.2h7.1v2.3h-3.8v4.3h2.9v2.3h-2.9v5.1H170v2.2h-7.1Z" transform="translate(-107.5 -4788.2)"/><path class="cls-2" d="M175.9,4985.8l3.2-16.2h3.6l3.2,16.2h-3.1l-0.6-3.6h-2.6l-0.6,3.6h-3.1Zm4-5.6h1.9l-1-6.4Z" transform="translate(-107.5 -4788.2)"/><path class="cls-2" d="M188.7,4985.8l-2.1-16.2h2.8l1.1,9.9,1.5-9.9h2.2l1.5,9.8,1.1-9.8h2.8l-2.1,16.2h-2.8l-1.6-10.2-1.5,10.2h-2.8Z" transform="translate(-107.5 -4788.2)"/><path class="cls-2" d="M200.1,4985.8l3.2-16.2h3.6l3.2,16.2H207l-0.6-3.6h-2.6l-0.6,3.6h-3.1Zm4-5.6H206l-1-6.4Z" transform="translate(-107.5 -4788.2)"/><path class="cls-2" d="M213.2,4985.8v-6.4l-3.2-9.8h3.1l1.7,5.7,1.6-5.7h3l-3.2,9.8v6.4h-3.2Z" transform="translate(-107.5 -4788.2)"/></svg>