<svg id="Design" xmlns="http://www.w3.org/2000/svg" width="233.1" height="392.5" viewBox="0 0 233.1 392.5"><defs><style>.cls-1{fill:#fff;}.cls-2{fill:#231f20;}</style></defs><title>h_w_aharoni_head</title><path class="cls-1" d="M673.3,4295.6s9.4-15.7,13.9-19.7c7.4-6.8,26.6-15.4,36.5-17.3,7.6-1.5,31,1.8,31,1.8l23.2,11.5s16.3,14.4,20.2,20.5,8.2,22.7,8.2,22.7,2.7,18.2,2.9,24.3-1.7,29.2-1.7,29.2,5.8,1,7.1,2.4,2.1,8.9,2.2,11.9a82.7,82.7,0,0,1-2.2,17.2c-1.1,4.3-5.7,16.9-5.7,16.9l-7.7,11-6.9,4.3s-8.3,21.2-12.6,27.5-22.4,23.8-22.4,23.8l-23.1,13-23.1,13.6-20.9-4.9-14-12-9.2-24.1-3.9-26.2s-4.2-16.6-5-22.2-1.1-20.2-1.1-20.2l-3.1-26.1,1.9-32.8s1.3-18.4,3.2-24.2S673.3,4295.6,673.3,4295.6Z" transform="translate(-583.6 -4258.2)"/><path class="cls-2" d="M815.9,4354.4c-2.2.4-28.4,10.8-37.5,14l-16.5,6.1h-3.3l-7.1-.2h-4.7c2.6-.7,5.2-1.5,7.7-2.4a10.2,10.2,0,0,0,5.1-3.7l4.5-6.5a4.1,4.1,0,0,0,.6-1.3,27.7,27.7,0,0,0,1-7.8,5.5,5.5,0,0,0-1.6-4,11.6,11.6,0,0,0-2.3-1.9c-2.6-1.5-4.7-3.1-7.5-4.3l-2.9-1.1c-1.5-.5-2.4-1-4.1-0.7-4.5.8-6.6,6.1-6.6,6.1l4.9-1.4,5.3,3a2.1,2.1,0,0,1,.9,2.1c-0.6,2.8-1.5,5.9-4.1,7.4-1,.5-1.6.6-2.6,1.1l-2.5.9-5.4.2c-5.6.1-10.4,1.2-15.8,2.1a61.6,61.6,0,0,0-8.7,2.6s0.2,8.5.9,11.8c0.1,0.4.3,2.1,0.5,3l-1.9.6a19.6,19.6,0,0,1-12.2.3l-3.2-.9c0-1.4-.1-6.6-0.2-8.7a33.2,33.2,0,0,0-1.2-7.7s-14.9-1.5-20-1.3a52.1,52.1,0,0,1-8.7-.1c-2.8-.4-5.5-1.1-7.3-3.6a7.6,7.6,0,0,1-1.5-3.5s0.7-3.7,1.5-4.7,5.3-3.4,5.3-3.4l5,1-1.7-2.2a5.1,5.1,0,0,0-3.4-2l-3-.4s-7.4,2-9.3,3.6-2.7,5.2-2.7,5.2l-0.5.9h0a23,23,0,0,0-1.5,4.8,1.3,1.3,0,0,0,0,.6c0.6,3.1,1.2,6.1,3.6,8.5s4.9,5.5,8.5,6.8c1.6,0.6,3.2,1.5,4.8,1.9l3,0.6-7.9.7-22.4,1.9c-2,.2-2,0.1-2.6,1.9a17.8,17.8,0,0,0-.7,2.6,14.9,14.9,0,0,0,0,2.3,12.7,12.7,0,0,1,2.1.4c0.7,0.3,1.2.8,1.9,1l6.5,1.9a2,2,0,0,1,1.7,1.9c0.5,3.2.9,6.4,1.6,9.5,1.4,5.9,3.2,11.7,8.2,15.8a6.9,6.9,0,0,0,5.2,1.8,88.3,88.3,0,0,0,20.9-3.6c2.8-.9,5.5-1.9,7.2-4.6,0.3-.5.8-0.9,1.2-1.4,2.4-3.4,4.6-6.9,7.1-10.2a38.3,38.3,0,0,1,4.2-4.1l5.1,0.7c0.9,2,1.9,4.2,2.6,6.4a62.7,62.7,0,0,1,1.5,6.6c0.5,2.5,1,5.1,1.5,7.6a2.4,2.4,0,0,0,1.5,2c4.8,2,9.7,3.7,14.9,4.2,3.1,0.3,6.1.8,9.1,1s7-.3,9.7-2.9a39.8,39.8,0,0,0,7.9-11.1c2.1-4.3,4-8.8,5.7-13.3a6.2,6.2,0,0,1,2.3-2.4c4.3-2.7,19-8.9,22-10.5,7.4-3.8,14.9-7.3,22.3-11.2l8.8-4.5S817.4,4356.6,815.9,4354.4Zm-125.4,37.8c-1,2.7-2.1,5.3-3.3,7.9a20.4,20.4,0,0,1-2.4,3.8,10.9,10.9,0,0,1-6.5,4.3c-5.3,1.1-10.5,2.4-15.7,3.6a1.5,1.5,0,0,1-1.8-.6,25,25,0,0,1-2.5-3.5,88.7,88.7,0,0,1-6.3-16.8,5.8,5.8,0,0,1-.1-1c6.5-3.6,31.5-5.9,40.2-3.6C691.6,4388.3,691.2,4390.3,690.5,4392.2Zm63.1,0.1c-0.8,3.1-1.6,6.2-2.5,9.3a11.3,11.3,0,0,1-1.3,3q-2.5,3.8-5.1,7.4a2.8,2.8,0,0,1-1.7.9c-5.8,1-11.5,1.2-17.2-.3l-1.6-.4c-2.3-.2-3.5-1.6-4.4-3.6a55.2,55.2,0,0,1-4.6-16.7,10.9,10.9,0,0,1,0-1.2,23.2,23.2,0,0,1,3.2-1.3c3.5-.9,7-1.8,10.5-2.4a26.9,26.9,0,0,1,6.5-.3,103.8,103.8,0,0,1,17.9,3.3l0.9,0.4C753.8,4391,753.8,4391.6,753.6,4392.3Z" transform="translate(-583.6 -4258.2)"/><path class="cls-2" d="M739.7,4458.6a15.8,15.8,0,0,0-3.5-4.4,18.6,18.6,0,0,0-3.8-2.7,22.6,22.6,0,0,0-6.4-1.6c-6.5-.9-12.8-1.9-19.3-1.6s-12.1,1-18.1,1.6a20.8,20.8,0,0,0-4.9,1.2c-2.4.9-4.8,1.9-7.1,3a24.1,24.1,0,0,0-6.2,3.9,18.7,18.7,0,0,0-5,8.2c-1.3,3.8-2.6,7.5-4,11.2a199.5,199.5,0,0,0-6.6,20.8,50.1,50.1,0,0,1-2.2,7.6,65.4,65.4,0,0,1-3.6,7l-2.2-5.3s-18.9-44.5-20.1-47.7c-0.4-1-2-5.4-4.1-11.4a20.7,20.7,0,0,0-6,2.5c2.9,7.5,5.8,15,8.8,22.4q5.8,14.4,12,28.7c2.4,5.5,5.1,10.9,7.6,16.3v0.2l-0.4.5-7,8.3-4.2-6.1c0.1,0-37.6-52.4-43.6-62.2a52.7,52.7,0,0,0-6.2,3.8l9.2,12.5,15.8,21.9,15.3,21.6,9.6,13.1-2.1,2.4a32.6,32.6,0,0,0-5.8,9.1,104.1,104.1,0,0,1-4.7,10.5,96.3,96.3,0,0,0-9.3,23.6,44,44,0,0,0-1.3,15.2c0.1,0.9.1,1.7,0.1,2.6l-12.8-.5-6.3-.5a17.8,17.8,0,0,0,.3,2.5c1.2,5.5,2.2,11,3.8,16.4,2.9,10.1,9.5,17,18.9,21.4l9.5,4.2-0.6,10.5c7.2,1.9,31.3,1.7,36.4-.3-0.1-1.3-.2-2.6-0.4-3.9s-0.7-4.1-1.1-6.2a1.9,1.9,0,0,1,1-2.2l1.9-1.2c5.3-3.3,10.4-6.9,14.3-11.9s5.5-7.8,6.7-12.6c0.6-2.5,1.2-5,1.5-7.5a24.1,24.1,0,0,0,.2-6.5c-3.4-.1-6.9-0.4-10.3-0.3s-6.9,0-10.4-.1a90.1,90.1,0,0,1,8.4-9.9l10.6-10.5c2.7-2.6,5.5-5.2,8.1-7.9q6.6-7,13-14.2c3.5-3.9,7.1-7.7,9.7-12.4,4.3-7.7,8.1-15.7,11.7-23.7,2.2-5,4.2-10.2,6.1-15.4s4.5-12,6.5-18.1c0.7-2.1,1.3-4.2,1.9-6.3v-0.5l2.3-7.5C742.8,4466.6,741.6,4461.9,739.7,4458.6Zm-35.1-.4c6.8,0.4,20.3-1.3,20.6-1.5-0.8,5.1-7.3,10.1-7.3,10.1-4.2,2.9-13.7,2.4-15.2,2.3-7-.4-12.4-5.3-12.6-5.5-3.6-2.5-6.1-7.6-6.1-7.6C687.6,4457.3,704.3,4458.5,704.5,4458.2Zm16,20.5-0.6.8c-3.1,3.8-5,5.8-7.1,10.3-1.4,2.9-2.6,6-3.8,9a35.5,35.5,0,0,1-4.4,8.3l-13.2,17.9c-1.7,2.4-3.4,4.9-5.1,7.3l-0.8,1a36.1,36.1,0,0,1,3.7-8.8c3.1-5.4,6.3-10.7,9.3-16.2a95.6,95.6,0,0,0,4.5-10.4c2.8-7.1,5.5-11.6,11.8-16.1A37.9,37.9,0,0,1,720.6,4478.7Zm-24.7-.8c-3.7,6-4.6,10.3-7.2,16.9A115.6,115.6,0,0,1,676,4519c-1.3,1.9-2.5,3.8-3.7,5.7a99.2,99.2,0,0,1-11,13.7l-1.2,1.3-2.3-5.7,1.9-2.3c2.2-2.6,4.5-5,6.6-7.6s5.6-7.4,8.3-11.1l1.4-2.1a55.5,55.5,0,0,0,6.9-13.8C684.4,4492.7,686.7,4483,695.9,4478Zm-14.9,9c-2,7.2-5.8,13.4-10.2,19.3-2.4,3.3-4.8,6.6-7.1,9.9l-0.8.9-0.4-.2c1.3-3.6,2.6-7.2,4-10.8,2.9-7,5.9-13.9,8.9-20.9s4.2-7.9,8.2-13.7A87.8,87.8,0,0,1,681,4487Zm-26.5,27.8c1.9-3.9,2.9-8.2,4.2-12.3s3.3-10.4,4.8-15.6,4-9.7,6.5-14.4,4.6-5.8,7.4-8.9a33.1,33.1,0,0,1-2.3,5.1c-1.9,3.5-3.8,7-5.6,10.6s-3,8.4-3.9,12.7-0.9,5.9-1.7,8.8a56.2,56.2,0,0,1-2.9,7.9c-2.3,5.2-4.7,10.4-7.1,15.5l-0.2.4-2-4.8Zm-0.4,23.5,2.3,5-2.9,3-1.5,1.6-0.6-.9-2-2.8,2-2.6Zm-7.4-9.2,1.8-3,2.2,4.8c-1.5,2.8-3.2,5.5-4.8,8.3l-2.9-4.1Zm1.4,23.6a54,54,0,0,0-5.5,8.9c-1,2.2-2.2,4.3-3.3,6.4l-1.2,2a2.7,2.7,0,0,1,0-.6c1.9-6.6,3.8-13.2,7.2-19.1l0.6-1Zm-30.3,42.9h-1.5c0-.5,0-1,0.1-1.5,0.4-5,.8-9.9,1.4-14.8a67.3,67.3,0,0,1,1.7-8.1c1.3-5.3,2.5-10.7,5-15.6,1.6-3.3,3.7-6.4,5.6-9.6l1.3-1.9a7.3,7.3,0,0,1-1,4.1l-5.7,12.5a29.8,29.8,0,0,0-2.1,8.5c-0.7,5.3-1.2,10.6-2.2,15.9A70.5,70.5,0,0,1,617.8,4595.6Zm10.6-11-2.4,11h-3.4l1.2-5.2c2-8.9,3.8-17.8,6-26.6a80.2,80.2,0,0,1,6.6-17.6c1.1-2,2.2-4,3.3-6l2.5,3.4,0.4,0.6-1.3,2.1a73.3,73.3,0,0,0-9.8,23.4Zm3.2,11c1-2.6,2.1-5.3,3.2-7.8,2.4-5.3,4.7-10.6,7.5-15.6s6.1-9.8,9.4-14.6c1.4-2.1,3.3-3.9,4.8-6,3.8-4.9,8.3-9.2,12.4-13.8,1.9-2.1,3.6-4.4,5.4-6.7s2.6-3,3.8-4.6a29.4,29.4,0,0,0,2.6-4.1c1.7-3.3,3.3-6.7,4.9-10.1l6.1-13.5c1.5-3.3,2.7-6.7,4.7-9.8,6.2-9.8,8.9-11.7,16.4-13.9a33.2,33.2,0,0,0-8.1,9,91.4,91.4,0,0,0-7.5,13.1q-3.2,7.5-6.5,14.9a109.9,109.9,0,0,1-15,25.2c-2.4,2.9-5.1,5.7-7.6,8.5-9.4,10.3-17.9,21.3-24.3,33.7l-8.3,16h-3.9Zm10.7,0h-0.7l1.9-3.1c3.4-5.3,6.9-10.7,10.5-15.9,2.4-3.6,5-7.1,7.7-10.4s5.8-6.2,8.8-9.3l10.1-11c3.1-3.4,6.1-6.7,9-10.3s6.2-7.9,9.2-12,7.5-10.6,11.7-15.5a73.8,73.8,0,0,0,12.8-20.5,118.3,118.3,0,0,0,5.7-18.4c0.6-2.5.8-2.5,1.3-5,0.1-.5.3-1.1,0.5-1.6a49.1,49.1,0,0,1-.4,9.4,71.3,71.3,0,0,1-4.7,17,111.8,111.8,0,0,1-9.2,17.7c-2.3,3.6-5.4,6.4-8.3,9.5s-7.5,8.6-10.9,13.2a230.9,230.9,0,0,1-18.2,22.1q-8.7,9.1-16.5,19.1l-8.6,11.1a129.1,129.1,0,0,0-9.2,14h-2.8Zm6.1,0.3a62.8,62.8,0,0,1,11.4-16.7c-2,6.4-5.5,11.7-9.3,16.8h-2.1Zm14.4-7.4a40.8,40.8,0,0,1-3.5,8.1l-4.3-.2,0.2-.2a21.4,21.4,0,0,0,1.8-2.9c1.5-2.8,3-5.6,4.3-8.5s2.1-5,3.2-7.4l3.8-8.5h0.2l-4.6,16.5C663.6,4586.3,663.2,4587.3,662.9,4588.4ZM733,4489c-1.2,3.3-2.9,6.4-4.4,9.7s-1.6,4-2.5,6c-1.9,4.2-3.9,8.4-5.9,12.5s-4,8.2-6.1,12.2a65.7,65.7,0,0,1-10.5,14.1c-3.7,3.9-7.4,7.7-11.1,11.5s-8.2,7.8-11.5,12.3-4.3,6.4-6.3,9.6a25,25,0,0,1-5.3,6.3l-1.1.7a7.4,7.4,0,0,1,.3-1.4c2.2-4.5,4.2-9.2,6.6-13.6a40.9,40.9,0,0,1,5.3-7c3.9-4.4,8-8.8,12-13.1,2.1-2.2,4.2-4.5,6.3-6.7,4.1-4.1,7.2-8.8,10.5-13.5s4.5-6.7,6.6-10.1,3.5-6.2,5.2-9.2,3.7-8.2,6.3-11.7a6,6,0,0,0,1.1-2.5c0.9-3.5,2.3-6.9,3.3-10.4l2.7-10.1c0.6-2.2,2.8-8.4,2.9-8.4S735.6,4482,733,4489Z" transform="translate(-583.6 -4258.2)"/></svg>