<svg xmlns="http://www.w3.org/2000/svg" width="42.11" height="53.87" viewBox="0 0 42.11 53.87"><defs><style>.cls-1{fill:#e94d97;}</style></defs><title>Asset 32</title><g id="Layer_2" data-name="Layer 2"><g id="Design"><path class="cls-1" d="M30.71,17.28a2,2,0,0,1-.73.24.15.15,0,0,0,0,.07,3.57,3.57,0,0,0,.71,1.26.5.5,0,0,0,.22.16l.35.13h.07l.38-.1a.86.86,0,0,0,.54-.41,3,3,0,0,0,.18-.36,4.39,4.39,0,0,1-.77-1.09,1.16,1.16,0,0,1,.32-.43,1.46,1.46,0,0,0,.16-.19,3.77,3.77,0,0,1,.66-.6l.45-.36a1.36,1.36,0,0,0,.36-.49,1.08,1.08,0,0,0,.11-.56,2.71,2.71,0,0,0-.33-1.18,1.35,1.35,0,0,0-.56-.55c-.3-.14-.58-.32-.87-.49l-.41-.22a3.12,3.12,0,0,0-.94-.25,4.22,4.22,0,0,0-.87,0,1.6,1.6,0,0,0-.72.28,1.69,1.69,0,0,0-.65.7A6.43,6.43,0,0,1,27.5,14a2.75,2.75,0,0,0-.43.71A.82.82,0,0,0,27,15l0,.47a.63.63,0,0,0,0,.19l.3.84a.49.49,0,0,0,.21.24,3.83,3.83,0,0,0,1,.43,2.73,2.73,0,0,0,.4,0c.26,0,.51,0,.76,0a6.27,6.27,0,0,0,.75,0l.27,0a0,0,0,0,1,0,0"/><path class="cls-1" d="M39.77,25.88a5.82,5.82,0,0,1-.44.7s0,0,0-.06.09-.34.14-.51a.86.86,0,0,0,0-.42,5.79,5.79,0,0,0-.41-1.28,4.72,4.72,0,0,1-.25-.72c-.06-.18-.08-.36-.14-.53a1.45,1.45,0,0,0-.72-.94c-.35-.16-.67-.36-1-.5s-.7-.31-1-.47a2.44,2.44,0,0,1-.28-.14s0,0-.06-.07h.11l.67.13a1.54,1.54,0,0,0,.31.05,1.1,1.1,0,0,1,.5.17,8.73,8.73,0,0,1,1.09.69,2.41,2.41,0,0,1,.24.21.66.66,0,0,1,.17.23,4.84,4.84,0,0,1,.47,1.32,5,5,0,0,0,.51,1.45,1.76,1.76,0,0,1,.15.44.33.33,0,0,1,0,.24M41.17,24c-.1-.59-.21-1.18-.32-1.76a.44.44,0,0,0-.06-.16c-.17-.31-.35-.61-.52-.91a1.36,1.36,0,0,0-.62-.59l-.5-.21c-.28-.11-.55-.21-.82-.33a5.4,5.4,0,0,0-1-.39,2.12,2.12,0,0,1-.45-.12,1.11,1.11,0,0,0-.51,0l-.21,0a3.23,3.23,0,0,0-1.11.32.13.13,0,0,0-.07.06,11.13,11.13,0,0,0-.75.92.93.93,0,0,0-.2.66,10.4,10.4,0,0,0,.15,1.25,8.22,8.22,0,0,0,.68,1.85l.62-.22a.21.21,0,0,0,.11-.07,2,2,0,0,0,.74-1.1,1.22,1.22,0,0,1,.06-.26,3.58,3.58,0,0,1,.11-.35h0v.07l0,.51a1,1,0,0,1-.19.49c-.09.11-.19.21-.27.32a2.71,2.71,0,0,1-.79.72,1.69,1.69,0,0,1-.65.23,1.14,1.14,0,0,0-.25.06,5.11,5.11,0,0,0-1.71.9.28.28,0,0,0-.09.1l-.3.54a.26.26,0,0,0,0,.21c.07.3.12.6.19.9a.41.41,0,0,0,0,.12c.19.05.39.11.59.15a2.13,2.13,0,0,0,1.41-.05l.2-.08a11.55,11.55,0,0,0,1.95-1.14c.12-.08.24-.16.35-.25l1-.87.2-.18a12.13,12.13,0,0,1-1,1.16l.06.06.26.17a3.69,3.69,0,0,0,1,.58,4.1,4.1,0,0,0,1,.21.17.17,0,0,0,.15-.06l.93-.95A1.32,1.32,0,0,0,40.8,26c.1-.29.2-.58.28-.87A2.29,2.29,0,0,0,41.17,24"/><path class="cls-1" d="M39.4,6.44c-.13.11-.24.23-.37.33A6.19,6.19,0,0,0,37.79,8c-.14.18-.3.35-.46.52a2.35,2.35,0,0,0-.53.83c-.17.46-.36.91-.54,1.37a.35.35,0,0,1-.1.12,4.19,4.19,0,0,1,0-.5,4.18,4.18,0,0,1,.11-.68,2.3,2.3,0,0,1,.18-.43c.06-.11.12-.22.19-.33A2.16,2.16,0,0,1,37,8.51a2.21,2.21,0,0,0,.48-.73,1.35,1.35,0,0,1,.66-.71c.43-.21.84-.45,1.26-.67a.08.08,0,0,0,0,0m0-1.35a7.23,7.23,0,0,0-2,.63,3.56,3.56,0,0,0-1.1.68c-.37.34-.71.72-1.06,1.09a.42.42,0,0,0-.11.18,5.31,5.31,0,0,0-.19.88A11.39,11.39,0,0,0,35,10a1.48,1.48,0,0,0,.19.68,4.16,4.16,0,0,0,.88,1,.31.31,0,0,0,.26.08l.61-.07a1.86,1.86,0,0,0,.49-.08,2.73,2.73,0,0,0,.81-.5l.78-.76.36-.3-.51-.56a1.28,1.28,0,0,1,.36.22,6.14,6.14,0,0,1,.89,1.14,1.45,1.45,0,0,0,.32.46,1.76,1.76,0,0,0,.57.13H41c.25-.32.5-.63.74-1a1.34,1.34,0,0,0,.32-.45,2.74,2.74,0,0,0,0-.56A.63.63,0,0,0,41.81,9a6.36,6.36,0,0,0-1.18-.88c-.31-.17-.61-.36-.92-.54a.17.17,0,0,1,.14,0l.9.29.3.1a3,3,0,0,0,.61-2c-.24-.23-.49-.49-.75-.73a.42.42,0,0,0-.22-.13,7.57,7.57,0,0,0-1.26,0"/><path class="cls-1" d="M16.84,21a5.75,5.75,0,0,0,.21,1.36.7.7,0,0,0,.22.38l.57.58a3.78,3.78,0,0,0,1.46,1,.87.87,0,0,0,.41.09c.39-.08.79-.18,1.18-.29A3.47,3.47,0,0,0,22,23.6a5.81,5.81,0,0,0,1.18-1.09.57.57,0,0,0,.11-.25,4.65,4.65,0,0,0,.05-1.58,4.2,4.2,0,0,0-.6-1.75.8.8,0,0,0-.35-.33c-.17-.07-.33-.17-.51-.24-.4-.15-.81-.28-1.2-.46a1.46,1.46,0,0,0-.77-.08l-.23,0a4.69,4.69,0,0,0-1.33.42,4.74,4.74,0,0,0-1.18,1,.42.42,0,0,0-.11.18A7.67,7.67,0,0,0,16.84,21m8.94-1.44a5.85,5.85,0,0,1-.2,1.66,10.74,10.74,0,0,1-.69,2,5.05,5.05,0,0,1-1,1.41,2.66,2.66,0,0,1-.9.56c-.52.21-1.05.43-1.59.6a5,5,0,0,1-1.93.22c-.36,0-.72-.05-1.08-.1a2.5,2.5,0,0,1-1.24-.61l-.8-.68a2.43,2.43,0,0,1-.57-.88c-.2-.43-.39-.87-.55-1.32a4.63,4.63,0,0,1-.25-2A16.42,16.42,0,0,1,16.5,14.8a12.12,12.12,0,0,1,1.92-2.89,3,3,0,0,1,.74-.58c.1-.07.22-.13.32-.21a1.34,1.34,0,0,1,1.59,0A9.8,9.8,0,0,1,23.25,13a6.78,6.78,0,0,1,1,1.66c.33.8.68,1.59,1,2.4a6.78,6.78,0,0,1,.54,2.09c0,.13,0,.25,0,.38"/><path class="cls-1" d="M31,7.4l-.07,0c-.83-.54-1.72-1-2.59-1.42-.45-.24-.9-.47-1.36-.69a5.79,5.79,0,0,0-1.63-.54l-2.58-.43a6.51,6.51,0,0,1-1.41-.42,10.13,10.13,0,0,1-1.28-.63,9.63,9.63,0,0,1-1.2-.9l-.64-.52-.08-.05-.22.43a1.55,1.55,0,0,1-.32.44.22.22,0,0,1-.23,0c-.31-.08-.39-.34-.48-.59a.33.33,0,0,1,0-.14c.09-.32.16-.64.27-.95a1.43,1.43,0,0,1,1-.95.41.41,0,0,1,.26,0,2.26,2.26,0,0,1,.34.23s0,0,0,0a.91.91,0,0,1-.07.49c-.05.08-.1.16-.14.24s-.07.18.06.28l.48.38a2.48,2.48,0,0,1,.26.19,6.66,6.66,0,0,0,1,.69,10,10,0,0,0,1.44.77,10.79,10.79,0,0,0,1.83.5c.3.05.61.06.92.1l1.2.17.47.08a4,4,0,0,1,1,.35,7.48,7.48,0,0,1,1.38.84c.34.26.7.5,1,.78s.82.71,1.22,1.07c.05,0,.08.1.13.16l0,0"/><path class="cls-1" d="M20.39,6.39a2.44,2.44,0,0,1-.24.72.34.34,0,0,1-.15.18c-.16.08-.31.17-.47.27L19,7.24A.22.22,0,0,1,19,7.11a3,3,0,0,1-.16-.59,1.26,1.26,0,0,1,.06-.42,2.76,2.76,0,0,1,.08-.27A1.89,1.89,0,0,1,19.32,5l.26-.4a.92.92,0,0,1,.47-.35s.09,0,.12,0l.36.29a.34.34,0,0,1,.12.3,1.78,1.78,0,0,1-.06.51,1.55,1.55,0,0,0-.06.23l.09,0a10.83,10.83,0,0,1,1.46.69l1.44.73a4.41,4.41,0,0,0,1.39.38,7.56,7.56,0,0,0,2,0l.28,0a3.93,3.93,0,0,1,1.41.1,3.59,3.59,0,0,1,.59.23l.16.06v0L29,8l-1.17.09-1.13.13c-.17,0-.35,0-.52.05a3.62,3.62,0,0,1-1.57-.1c-.43-.12-.85-.28-1.26-.43s-.79-.32-1.18-.48-.55-.25-.82-.39a5.73,5.73,0,0,0-.93-.45"/><path class="cls-1" d="M33.52,4.71h-.23l-2.63-.55a11.43,11.43,0,0,0-2.33-.29,8.33,8.33,0,0,1-1.8-.27c-.45-.12-.9-.22-1.34-.37A8.89,8.89,0,0,1,24,2.7c-.62-.32-1.23-.66-1.84-1L22,1.63a.37.37,0,0,0-.06.1c-.05.25-.27.37-.44.52a.22.22,0,0,1-.29-.1c-.05-.12-.09-.25-.13-.37s0-.07,0-.1A4.31,4.31,0,0,1,21.8.2.2.2,0,0,1,22,.1h.5a.21.21,0,0,1,.18.11.35.35,0,0,1,0,.51,2.22,2.22,0,0,0-.21.32l.18.11.32.17c.53.3,1.05.64,1.6.92A7.68,7.68,0,0,0,26.71,3,11.05,11.05,0,0,0,28,3.15a12.44,12.44,0,0,1,2.36.34,13.05,13.05,0,0,1,2,.64c.38.16.75.35,1.13.53a.11.11,0,0,0,0,0"/><path class="cls-1" d="M37.79,35.11c-.79.33-1.57.67-2.39,1a29.84,29.84,0,0,1-7.6,1.55c-.41,0-.82.09-1.23.13-.91.07-1.81.18-2.72.2-1.43,0-2.86.09-4.29.2a10.79,10.79,0,0,1-2.34-.08c-1.12-.17-2.24-.3-3.34-.49s-2.18-.41-3.26-.62-1.88-.36-2.83-.52c-.48-.08-1-.11-1.46-.17-.09,0-.18,0-.35-.08l.92-.56c1-.53,1.93-1.06,2.88-1.6a29.45,29.45,0,0,1,3.65-1.68,21.29,21.29,0,0,1,4.63-1.12c.87-.13,1.74-.24,2.61-.34.27,0,.55,0,.83-.05s.49,0,.74,0a12.83,12.83,0,0,1,2.63.16c.56.07,1.12.16,1.68.21a15.91,15.91,0,0,1,2.84.59c1.32.35,2.63.74,4,1.12l.69.24c.52.18,1,.4,1.56.55a14.86,14.86,0,0,1,2.39,1c.07,0,.13.08.24.14a2.41,2.41,0,0,1-.43.28M40.45,34a30.86,30.86,0,0,0-4.4-2.37,50.34,50.34,0,0,0-7.59-2.75A25.42,25.42,0,0,0,23.77,28a2.44,2.44,0,0,0-.38,0c-.46.05-.92.1-1.37.17-1.57.24-3.15.48-4.71.76a22.16,22.16,0,0,0-3.35.83c-1,.34-2,.67-2.93,1a18.84,18.84,0,0,0-3.61,1.75c-.89.57-1.72,1.19-2.57,1.8-.6.44-1.18.9-1.77,1.36-.12.09-.23.19-.36.3.1.13.18.26.27.37.83,1,1.65,2,2.5,2.93A38.15,38.15,0,0,0,9.9,43.63a55.66,55.66,0,0,0,5,3.62c1.72,1.1,4.49,2.52,4.49,2.52s-.67,3.42-.68,3.59c2.12.76,7.18.65,9-.25,0-.09-1-3.61-1-3.61a77,77,0,0,0,7.44-5A19.66,19.66,0,0,0,36,42.71c.65-.75,1.2-1.56,1.79-2.35A16.74,16.74,0,0,0,40,36.53c.3-.75.58-1.51.88-2.28L40.45,34"/><path class="cls-1" d="M9.1,5.93a4.63,4.63,0,0,0-.53,1,.28.28,0,0,0,0,.13l.27.6a.78.78,0,0,0,.51-1c-.07-.25-.16-.49-.25-.78m2.79.55a4.15,4.15,0,0,0-1.12.33,2.08,2.08,0,0,0-.78.78,1.62,1.62,0,0,0,.4.22A1.15,1.15,0,0,0,11,7.75c.18-.07.21-.23.3-.36s.11-.17.16-.25.28-.44.41-.66M6.72,8.58v.06l.89.51.09.06a.15.15,0,0,0,.13,0c.24-.06.49-.12.73-.2,0,0,.11-.09.13-.15a.56.56,0,0,0-.57-.72,3.45,3.45,0,0,0-1.4.42m5.34,1.21s0,0,0-.07c-.24-.13-.47-.28-.72-.4s-.67-.34-1-.49A.32.32,0,0,0,9.91,9c-.1.13-.18.28-.27.41a.85.85,0,0,0,1,.57l.65-.07.8-.08M8.59,12l.2-.22A1.91,1.91,0,0,0,9.21,11a2.29,2.29,0,0,0,.17-.62c0-.32-.08-.47-.37-.52l-.24,0a.24.24,0,0,0-.26.09,1.94,1.94,0,0,0-.34.9.34.34,0,0,0,0,.1L8.59,12m3.86-1,0,0-.49.31L9.46,12.82A3.33,3.33,0,0,1,8,13.34l-.83.07h-.2v.06l1.12.21a1.47,1.47,0,0,0,.85-.12c.33-.16.67-.3,1-.48a6.5,6.5,0,0,0,1-.65c.44-.35.85-.74,1.27-1.12l.29-.27m1.36-4.84a1,1,0,0,1,.19.58c.05.58.14,1.16.16,1.74a4.82,4.82,0,0,1-.41,2.05l-.42,1a.5.5,0,0,1-.11.17c-.42.37-.86.71-1.27,1.09a5.38,5.38,0,0,1-1,.71,11.21,11.21,0,0,1-2.93,1,4.66,4.66,0,0,1-.64.08,1.06,1.06,0,0,1-.63-.1l-.92-.45a.67.67,0,0,1-.3-.36A8.65,8.65,0,0,1,5,10.45c0-.19,0-.38,0-.57a3.69,3.69,0,0,1,.43-1.52,6.82,6.82,0,0,1,.67-1.14,3.2,3.2,0,0,1,.69-.63c.6-.47,1.21-.91,1.82-1.36A.88.88,0,0,1,9,5.11l1.77-.24a4.37,4.37,0,0,1,1.53,0,1.69,1.69,0,0,1,1.1.72c.11.18.26.35.45.6"/><path class="cls-1" d="M4.79,25.07c.88.22,1.31-.21,1.32-1.27a6.61,6.61,0,0,0-1.32,1.27m1.57-3.41s.07,0,.11,0c0-.7-.54-1.22-1.65-1.59.44.6.53,1.53,1.54,1.61M2.77,23.59A2.49,2.49,0,0,0,5.16,23L4,22.71a2.25,2.25,0,0,0-1.27.88M8.32,22a1.78,1.78,0,0,0,2.36-.79c-.85.12-1.74-.11-2.36.79m.83,2.47c-.34-.69-.48-.78-1.65-1-.12.82.21,1.2,1.33,1.52l.32-.5M6.61,18.76a6,6,0,0,1,1.57-.08,8.71,8.71,0,0,1,1.67.64,11.78,11.78,0,0,1,1.19.56,2,2,0,0,1,1.11,1.21,10.25,10.25,0,0,0,.51,1.44,1.55,1.55,0,0,1-.16,1.53,8.19,8.19,0,0,0-1.17,2.3c0,.11-.15.22-.25.29-.64.42-1.27.85-1.93,1.23a3.83,3.83,0,0,1-2.33.58A7.51,7.51,0,0,1,2.67,27C2.09,26.52,1.53,26,1,25.54a4.47,4.47,0,0,1-.35-.41A3.33,3.33,0,0,1,.05,23c-.12-1.39-.09-1.49,1-2.46a6,6,0,0,1,2.69-1.4c.94-.19,1.89-.27,2.84-.4Z"/></g></g></svg>