<svg xmlns="http://www.w3.org/2000/svg" width="47" height="59" viewBox="0 0 47 59"><title>Asset 32</title><g id="Layer_2" data-name="Layer 2"><g id="Design"><path d="M17.14,40.14l-.5.27c-.06,0-.1,0-.15,0l-.3-.23c-.41-.32-.83-.65-1.24-1a1.18,1.18,0,0,0-.76-.29h-.71a1.72,1.72,0,0,1-.77-.19c-.37-.19-.74-.4-1.1-.6a.54.54,0,0,1-.24-.4c0-.18.14-.33.36-.34a3.44,3.44,0,0,1,.46,0l.87.1.39,0c-.14-.16-.25-.29-.37-.41a3.12,3.12,0,0,0-.75-.56.92.92,0,0,0-.49-.1,5.93,5.93,0,0,0-1.25.27,2.67,2.67,0,0,1-1.16,0,.22.22,0,0,1-.19-.18.39.39,0,0,1,.17-.29l.31-.16L9.94,36a.74.74,0,0,0,.37-.64c0-.08,0-.11-.1-.14a4.36,4.36,0,0,0-.6-.33A9.54,9.54,0,0,0,8,34.42c-.31-.06-.63-.09-.93-.18s-.61-.13-.91-.2-.63-.17-.94-.27a3.31,3.31,0,0,1-.82-.51.18.18,0,0,1,0-.11c0-.16,0-.31,0-.46a.15.15,0,0,1,.1-.14.58.58,0,0,1,.34-.07l.46.08.64.12H6c.28.08.56.15.84.25a5.14,5.14,0,0,0,.85.16A.9.9,0,0,1,7.59,33c-.58-.67-1.16-1.34-1.73-2A1.64,1.64,0,0,0,5,30.5l-.39-.12a2.38,2.38,0,0,0-.92-.06,2.62,2.62,0,0,1-1.51-.27c-.17-.09-.2-.23,0-.34a4.53,4.53,0,0,1,.61-.34c.2-.1.42-.17.67-.27A.81.81,0,0,0,3.3,29a6.56,6.56,0,0,1-.76-.73,1.08,1.08,0,0,1-.24-1,.72.72,0,0,1,.34-.52,1.73,1.73,0,0,0,.3-.25.39.39,0,0,1,.33-.08h0a2.4,2.4,0,0,1,1.54.95c.18.29.39.57.59.85a4.3,4.3,0,0,0,.37.37,1.47,1.47,0,0,0,.09-.17l.21-.58.09-.29a.44.44,0,0,1,.33-.34c.13,0,.15,0,.24.07a2.41,2.41,0,0,1,.49,1.12c.05.41.05.83.08,1.24A3.12,3.12,0,0,0,7.66,31a5.31,5.31,0,0,0,.45.64,5.64,5.64,0,0,0,.81.81.93.93,0,0,0,0-.14,1.13,1.13,0,0,0,0-.18A4.45,4.45,0,0,1,8.8,31a.57.57,0,0,1,0-.13c0-.19.11-.38.15-.57A.39.39,0,0,1,9.22,30a.68.68,0,0,1,.91.4,4.37,4.37,0,0,1,.35,1.82c0,.35,0,.7,0,1a1.48,1.48,0,0,0,0,.21,3,3,0,0,0,.53,1.1l.09.09a.21.21,0,0,0,.34-.06c.1-.22.17-.45.26-.67a2.09,2.09,0,0,0,.12-1,1.5,1.5,0,0,1,0-.3.43.43,0,0,1,.2-.35.16.16,0,0,1,.22,0,1.18,1.18,0,0,1,.38.75c0,.41,0,.82,0,1.23,0,.2,0,.4,0,.59a.23.23,0,0,0,.09.19l.28.27.87.82a.31.31,0,0,0,.41.06,1.78,1.78,0,0,0,.26-.22l.5-.54a.28.28,0,0,1,.11-.08.19.19,0,0,1,.3.15,1.22,1.22,0,0,1,0,.33,4,4,0,0,1-.13.46,4.15,4.15,0,0,0-.2,1,.47.47,0,0,0,.13.37l.63.67a6.16,6.16,0,0,1,.8,1c.1.15.23.29.34.44S17.06,40,17.14,40.14Z"/><path d="M13.43,26.79a15.5,15.5,0,0,1-1.71,1c-.09-.11-.19-.23-.27-.35-.43-.63-.85-1.26-1.29-1.89-.2-.28-.41-.56-.63-.85l-.32.14-1.89.88a.24.24,0,0,1-.29,0,3,3,0,0,1-.34-.26,5.38,5.38,0,0,1-1.33-1.87,3.38,3.38,0,0,1-.23-1.51,1.83,1.83,0,0,1,.18-.59c.11-.25.23-.49.35-.73a1.88,1.88,0,0,1,.57-.65A6.54,6.54,0,0,1,9.1,18.85a3.77,3.77,0,0,1,2.56.33,3.28,3.28,0,0,1,1.07.85c.13.16.27.32.41.47a1.55,1.55,0,0,1,.37.8.36.36,0,0,1-.09.33c-.31.32-.61.66-.93,1s-.54.52-.81.78a.28.28,0,0,0-.09.1c-.11.13-.12.17,0,.31l.53.83,1.18,1.88C13.33,26.59,13.37,26.68,13.43,26.79Z"/><path d="M34,6.67a3,3,0,0,1,.15-.36c.2-.33.41-.64.61-1a1.55,1.55,0,0,1,.72-.54l.47-.22a1.35,1.35,0,0,1,.88-.12,1.47,1.47,0,0,1,1.12.78,8.46,8.46,0,0,1,.48,1.39c0,.14.07.28.11.42a2.1,2.1,0,0,1,0,.79c0,.36-.09.71-.16,1.09-.6-.12-1.18-.3-1.78-.44a19.93,19.93,0,0,1-1.17,2.82,2.33,2.33,0,0,1-.77-.41c0-.11.09-.22.12-.33.13-.41.27-.81.38-1.23s.16-.67.24-1a.53.53,0,0,0-.2-.58c-.34-.28-.66-.57-1-.85Z"/><path d="M7.74,40.62l-.18-.46a.09.09,0,0,1,0-.07,1.89,1.89,0,0,1,.21-.53,1.34,1.34,0,0,1,.11-.14,2,2,0,0,1,.44-.37.18.18,0,0,1,.14,0l.08,0a4.93,4.93,0,0,1,.66-.07.51.51,0,0,1,.29.1,2.1,2.1,0,0,1,.46.48,1.44,1.44,0,0,1,.24.48s0,.05,0,.07a1.66,1.66,0,0,1-.11.38,2.41,2.41,0,0,1-.15.33,3.17,3.17,0,0,1-.47.5.46.46,0,0,1-.3.11l-.25,0-.14,0-.52-.15a.35.35,0,0,1-.16-.09A2.4,2.4,0,0,1,7.74,40.62Z"/><path d="M25.76,22.43a8.94,8.94,0,0,1,0,1.26A9,9,0,0,1,24.48,27a1.8,1.8,0,0,1-1.12.86C23.08,26.66,24.35,23.69,25.76,22.43Z"/><path d="M21.52,5.92a6.72,6.72,0,0,1-.41-.72,5.91,5.91,0,0,1-.32-2.32A1.21,1.21,0,0,1,21.16,2,5.21,5.21,0,0,1,21.52,5.92Z"/><path d="M26,17.77A12,12,0,0,1,22.69,23C22.43,21.61,24.21,18.74,26,17.77Z"/><path d="M15.48,24.32c.19-2.25.44-4.27,2.11-5.88A8.36,8.36,0,0,1,15.48,24.32Z"/><path d="M26.94,7.39a10.07,10.07,0,0,1-3.74,4.13A5.21,5.21,0,0,1,26.94,7.39Z"/><path d="M26.29,11.49A10.79,10.79,0,0,1,24.38,17C24,15.86,25.11,12.68,26.29,11.49Z"/><path d="M15.51,11.23a5.75,5.75,0,0,1,1.22-5C17.08,7.08,16.39,10.07,15.51,11.23Z"/><path d="M20.63,12.77c-.53-1.8.23-3.42.64-5.14a5.08,5.08,0,0,1,.26,2.66A5.19,5.19,0,0,1,20.63,12.77Z"/><path d="M15.07,19.48a10.24,10.24,0,0,1-.24-5.88A13.13,13.13,0,0,1,15.07,19.48Z"/><path d="M27.29,19.85C28,18.36,28.9,17,30.82,16.62A7.7,7.7,0,0,1,27.29,19.85Z"/><path d="M21.59,18.24c.16,1.23-1.53,3.17-2.92,4.32C19.43,20.86,19.92,19.22,21.59,18.24Z"/><path d="M21.91,13.22a8,8,0,0,1-3.49,3.6C19.21,15.22,20.05,13.81,21.91,13.22Z"/><path d="M17.64,27.1c.83-1.31,1.31-2.71,2.71-3.47A4.35,4.35,0,0,1,17.64,27.1Z"/><path d="M17.35,14.87a7.72,7.72,0,0,1,.45-4A4.18,4.18,0,0,1,17.35,14.87Z"/><path d="M27.45,26.2A7.65,7.65,0,0,1,25.92,30,4.23,4.23,0,0,1,27.45,26.2Z"/><path d="M27.88,24a4.68,4.68,0,0,1,2.35-2.87A4.83,4.83,0,0,1,27.88,24Z"/><path d="M22.5,3.94A5.58,5.58,0,0,1,24.59,0,5.76,5.76,0,0,1,22.5,3.94Z"/><path d="M18.8,8.75a8,8,0,0,1-.26-3.81C19.26,5.63,19.38,7.26,18.8,8.75Z"/><path d="M25,32.56a8,8,0,0,1-1.79-3.39C24.12,29.52,24.88,31,25,32.56Z"/><path d="M22.83,7.39A7.37,7.37,0,0,1,24.56,3.9,4.14,4.14,0,0,1,22.83,7.39Z"/><path d="M26.1,56.16l.66,2.62a38,38,0,0,1-4.08.22c-1.08,0-2.23,0-3.3-.07a18.77,18.77,0,0,1,.21-2.28s-2.74-1.79-3.66-2.27c-.68-.37-1.27-.9-1.94-1.28-1.1-.61-2.14-1.3-3.24-1.91C8.51,50,6.21,48.71,4.08,47.3A17,17,0,0,1,0,44.11a7.94,7.94,0,0,1,2.59-.31l2.77-.22c4.08-.31,8.17-.57,12.26-.75a44.46,44.46,0,0,1,4.47-.09c2.77.17,10,.29,12.79.51,2.45.19,4.89.43,7.33.65,1.41.13,2.83.25,4.24.39a1.2,1.2,0,0,1,.55.15l-.42.31c-2.38,1.62-4.79,3.18-7.14,4.83A42.45,42.45,0,0,1,31,54.25c-1.4.57-2.81,1.09-4.22,1.63Z"/><path d="M11.91,11.49a3.35,3.35,0,0,1,.29,1,6.27,6.27,0,0,1,.09,1.3,3.09,3.09,0,0,1-.24,1,1.56,1.56,0,0,1-.38.53,10.4,10.4,0,0,1-.76.72,3,3,0,0,1-1,.58c-.22.08-.43.15-.65.21a1.64,1.64,0,0,1-.85-.05l-.62-.2a1.32,1.32,0,0,1-.54-.36c-.21-.2-.43-.4-.63-.61a2.93,2.93,0,0,1-.61-1A9.78,9.78,0,0,1,5.48,11a7.43,7.43,0,0,1,.39-2.09,2,2,0,0,1,.29-.51l.13-.19a.84.84,0,0,1,.91-.39,5.68,5.68,0,0,1,1.7.57,4,4,0,0,1,1,.7c.38.38.77.74,1.14,1.12a4,4,0,0,1,.82,1ZM7.16,14.43a3.61,3.61,0,0,0,.45.72.5.5,0,0,0,.22.16l.46.19a2.3,2.3,0,0,0,1.06.2.45.45,0,0,0,.26,0,6.25,6.25,0,0,0,.61-.44,2.47,2.47,0,0,0,.49-.53,3.47,3.47,0,0,0,.41-.9.33.33,0,0,0,0-.17,2.68,2.68,0,0,0-.35-.9,2.58,2.58,0,0,0-.76-.85.5.5,0,0,0-.28-.1c-.12,0-.23,0-.35,0s-.53,0-.79,0a.89.89,0,0,0-.46.14L8,12a2.68,2.68,0,0,0-.65.56,2.73,2.73,0,0,0-.45.82.5.5,0,0,0,0,.12A4.34,4.34,0,0,0,7.16,14.43Z"/><path d="M21.57,39.24a6.55,6.55,0,0,1-1.26.6.34.34,0,0,1-.26,0,5.29,5.29,0,0,1-.52-.29,2,2,0,0,0-.26-.18.82.82,0,0,1-.41-.58c-.1-.43-.22-.86-.3-1.3a5.24,5.24,0,0,0-.62-1.71l-.7-1.1a1.11,1.11,0,0,0-.26-.27,19.07,19.07,0,0,1-2.11-1.89c-.19-.19-.39-.37-.59-.55a.7.7,0,0,1-.21-.35A6.36,6.36,0,0,1,14,29.33a.23.23,0,0,1,.07-.14,5.66,5.66,0,0,1,.44-.4.3.3,0,0,1,.16-.05l1.84,0a3.8,3.8,0,0,1,1.63.36c.82.35,1.63.71,2.45,1.08a2,2,0,0,1,.41.25,11,11,0,0,1,1.63,1.5,4,4,0,0,1,.58,1c.07.13.13.28.21.41a1.32,1.32,0,0,1,.18.76c-.05.85-.08,1.71-.12,2.56a1.88,1.88,0,0,1-.29.72,6.77,6.77,0,0,1-1,1.36A3,3,0,0,1,21.57,39.24Zm0-2.25.33-.1a.27.27,0,0,0,.11-.1l.21-.5a.2.2,0,0,0-.08-.26l-.16-.1a.41.41,0,0,0-.51.13c-.09.17-.15.36-.23.54l.29.38Zm-.46-3.81C21.07,33.08,21,33,21,33c-.26-.33-.26-.33-.69-.27l-.31,0-.25.07.68.53a.21.21,0,0,0,.15,0Zm-2.89-2.83-.72-.12.13.56.61,0Zm.16,3.13.49-.18a1.2,1.2,0,0,0-.48-.48l-.34.19Z"/><path d="M45.77,24.29l-1.18.32c-.39.09-.78.17-1.16.27s-.69.16-1,.26a5.75,5.75,0,0,0-1.15.46,4,4,0,0,0-.93.64c-.31.31-.66.58-1,.9a4.48,4.48,0,0,0-.47.67c-.1.15-.21.3-.3.46-.28.5-.56,1-.83,1.51a8.1,8.1,0,0,0-.39.78c-.16.41-.28.84-.42,1.26s-.18.55-.28.82-.22.68-.34,1c0,.15-.12.3-.18.45-.18.47-.35.93-.54,1.39a8.13,8.13,0,0,1-.38.85,5.45,5.45,0,0,1-.92,1.46c-.38.35-.74.73-1.12,1.08a4.11,4.11,0,0,1-.59.44,1.26,1.26,0,0,1-.33.16c-.44.15-.89.31-1.34.45l-1.27.4c-.42.12-.85.23-1.27.37l-1.28.44-1.37.45c-.16,0-.2,0-.23-.12-.07-.38-.16-.76-.21-1.14a11.3,11.3,0,0,1-.05-1.3,5.61,5.61,0,0,1,.14-.9c.07-.34.16-.68.24-1s.12-.46.19-.69c.11-.39.21-.77.33-1.15s.17-.55.27-.82.3-.74.46-1.1a4.43,4.43,0,0,1,.36-.59c.34-.52.66-1.06,1-1.56a7.49,7.49,0,0,1,1.46-1.57c.23-.18.44-.39.66-.58l.95-.85a1.85,1.85,0,0,1,.14-.14l1.6-1.19c.21-.16.42-.33.65-.48L35,25.64c.37-.21.73-.44,1.11-.63q.8-.39,1.62-.75c.29-.13.61-.22.91-.34a1.91,1.91,0,0,0,.71-.36,3.79,3.79,0,0,0,.91-1.46c.14-.4.31-.79.45-1.19s.27-.87.39-1.31.22-.91.34-1.42A11.81,11.81,0,0,1,42.23,23a14.44,14.44,0,0,1,3.6,1.28S45.79,24.29,45.77,24.29ZM30.92,37a3.79,3.79,0,0,0-1.26-1.46,2.49,2.49,0,0,0-.54-.2l-.51-.18s0-.06,0-.06L28,35a5.45,5.45,0,0,0-.58-.14,3.57,3.57,0,0,0-.56,0,.26.26,0,0,0-.11.08l.56.2,1.48.53.22.12a6.49,6.49,0,0,1,.62.39c.17.14.35.27.51.42.32.3.64.62,1,.94l.07,0C31.06,37.34,31,37.13,30.92,37Zm-2.33,1.58c-.17.13-.15.32-.16.49s0,.08.06.12l.14.23s0,.06,0,.07a1.31,1.31,0,0,0,.84.21.8.8,0,0,0,.4-.37s0,0,0-.06c-.15-.23-.16-.56-.48-.67,0,0-.05,0-.06-.05-.11-.18-.17-.2-.38-.17l-.33,0A.67.67,0,0,1,28.59,38.54Z"/><path d="M45.77,35l-.06-.24a1.7,1.7,0,0,0-.48-.76c-.5-.48-1.48-1.42-1.72-1.58.05-.36.72-2.74.74-2.85l-.43-.15,0,.11c-.15.36-.77,2.39-.87,2.42.07-.74.16-1.14.27-1.85s.25-1.43.37-2.16l-.49-.18q0,.27-.09.51c0,.17-.05.33-.08.49s-.06.33-.1.5l-.09.49-.09.49a1.89,1.89,0,0,1-.11.47c-.06-.86,0-1.72,0-2.58L41.85,28c0,.39,0,.75,0,1.11v1.11c0,.35,0,1.07,0,1.07L41,28.36a2.22,2.22,0,0,0-.5.28L41.21,32l-.8.24a4.19,4.19,0,0,0-1.27.45,3.13,3.13,0,0,0-1,.8A1.06,1.06,0,0,0,38,34,5.56,5.56,0,0,0,38,35.24a1.79,1.79,0,0,0,.27.74c.13.19.26.38.38.58a2.25,2.25,0,0,0,.69.65c.25.16.51.3.78.45l.56.28a1.11,1.11,0,0,1-.07.26c-.1.23-.2.46-.31.68a2.44,2.44,0,0,1-.75.93l-.33.23a1.33,1.33,0,0,1-.32.15c-.28.09-.57.15-.85.24a3.47,3.47,0,0,1-.56.11l-2.08.18a1.2,1.2,0,0,0-.2,0l-1.08.37v0l.13,0,1.55.16c.44,0,.87.08,1.3.1a5.24,5.24,0,0,0,.79,0,7.41,7.41,0,0,0,1.21-.31,1.49,1.49,0,0,0,.45-.19,2.34,2.34,0,0,0,.86-.82,18.31,18.31,0,0,0,1-1.77c0-.07.07-.13.1-.19l1.17.13a.44.44,0,0,0,.2,0,10,10,0,0,0,1.31-.54,1.33,1.33,0,0,0,.61-.51L45,37a6,6,0,0,0,.73-1.25C45.89,35.32,45.92,35.4,45.77,35Z"/><path d="M32.28,19.08a3.3,3.3,0,0,1,.41-1.23,2.92,2.92,0,0,1,.88-.87,2.37,2.37,0,0,1,.94-.31q.5-.08,1-.12a4.73,4.73,0,0,1,.65,0,.47.47,0,0,1,.16,0l.79.35a3.24,3.24,0,0,1,.72.56,1.48,1.48,0,0,1,.24.26,3.06,3.06,0,0,1,.34.54,3.16,3.16,0,0,1,.34,1.45,2.66,2.66,0,0,1-.58,1.66,5.41,5.41,0,0,1-1,.94,3,3,0,0,1-1.07.5,2.22,2.22,0,0,1-1.3,0,5.54,5.54,0,0,1-.68-.25,4.82,4.82,0,0,1-.81-.55,2.71,2.71,0,0,1-.65-.74,1.81,1.81,0,0,1-.2-.52A4.39,4.39,0,0,1,32.28,19.08Zm6.06,1a1,1,0,0,0-.09-.73,1.75,1.75,0,0,1-.11-.24A1.24,1.24,0,0,0,38,19,4.43,4.43,0,0,0,37,17.85a1.92,1.92,0,0,0-1-.36,2.32,2.32,0,0,0-.69.07l-.33.09a3,3,0,0,0-1.61.92c-.16.18-.3.38-.44.57a.69.69,0,0,0-.14.33,4.72,4.72,0,0,0,0,.84,2.59,2.59,0,0,0,.1.61,1.9,1.9,0,0,0,.83,1,5.61,5.61,0,0,0,1.43.65,1,1,0,0,0,.63,0,6.24,6.24,0,0,0,.72-.27,3.44,3.44,0,0,0,1.11-.78A3,3,0,0,0,38.34,20.12Z"/><path d="M37.23,20.8a.8.8,0,0,0-.22-.39,1.12,1.12,0,0,0-.38-.26.43.43,0,0,0-.49.16.23.23,0,0,0,.09.29,1.2,1.2,0,0,0,.8.22Z"/><path d="M37,21.08l-.11,0a1.2,1.2,0,0,0-.37-.1.47.47,0,0,0-.34.12.05.05,0,0,0,0,.05.14.14,0,0,0,0,.06.21.21,0,0,0,.19.26.37.37,0,0,0,.29-.05A2,2,0,0,0,37,21.1S37,21.09,37,21.08Z"/><path d="M37.34,20.5l0-.12.06-.31a.58.58,0,0,0-.05-.26.23.23,0,0,0-.13-.16l-.05,0c-.14-.08-.17,0-.27.05a.18.18,0,0,0,0,.19,1.43,1.43,0,0,0,.27.46C37.24,20.37,37.28,20.43,37.34,20.5Z"/><path d="M34,20.82l.08-.07a1.93,1.93,0,0,0,.22-.28.5.5,0,0,0,0-.34l0,0a.08.08,0,0,0,0,0,.2.2,0,0,0-.3.06.41.41,0,0,0-.07.26,3,3,0,0,0,.1.43Z"/><path d="M34.11,21a3,3,0,0,0,.32-.06,1.87,1.87,0,0,0,.4-.13.28.28,0,0,0,.18-.31c0-.05,0-.1,0-.14a.14.14,0,0,0-.12-.1h-.08a.68.68,0,0,0-.38.23,2.67,2.67,0,0,0-.29.48Z"/><path d="M34.41,21.22s.06.06.09.07l.27.14a.54.54,0,0,0,.25,0,.24.24,0,0,0,.18-.07s0,0,0,0,.09-.15,0-.26a.15.15,0,0,0-.16-.07,1.25,1.25,0,0,0-.5.11Z"/><path d="M35.45,18.42a1.23,1.23,0,0,0-.08.12,1.57,1.57,0,0,0-.19.51.66.66,0,0,0,.16.55.21.21,0,0,0,.24.07.25.25,0,0,0,.19-.19.39.39,0,0,0,0-.15,1.47,1.47,0,0,0-.12-.55C35.61,18.66,35.53,18.55,35.45,18.42Z"/><path d="M35.68,18.41v.06c.06.12.12.25.19.37l.07.11a.52.52,0,0,0,.42.17.1.1,0,0,0,.1-.05l.06-.09a.23.23,0,0,0,0-.25.58.58,0,0,0-.52-.3C35.89,18.41,35.79,18.42,35.68,18.41Z"/><path d="M35.26,18.4h-.14l-.35.06a.72.72,0,0,0-.25.16.23.23,0,0,0-.11.2.13.13,0,0,0,0,.06c0,.17,0,.19.15.26a.2.2,0,0,0,.21-.05,1.53,1.53,0,0,0,.38-.46A1.64,1.64,0,0,1,35.26,18.4Z"/><path d="M30.8,8.39a.94.94,0,0,1,.66.15l.27.14a2.14,2.14,0,0,1,.82.7,4.43,4.43,0,0,1,.36.59,2,2,0,0,1,.22.71l.06.53a1.48,1.48,0,0,1,0,.21,3.86,3.86,0,0,1-.41,1.27c-.09.17-.17.35-.27.51a1.79,1.79,0,0,1-.63.68,3.27,3.27,0,0,1-1.13.45,1.68,1.68,0,0,1-.94-.05l-.31-.1a2.93,2.93,0,0,1-.4-.19l-.21-.11a1.57,1.57,0,0,1-.59-.49,1.84,1.84,0,0,1-.34-.65l-.16-.46a1.47,1.47,0,0,1,0-1c.06-.18.11-.36.17-.53a4.56,4.56,0,0,1,.51-.95c.18-.28.43-.51.63-.77a1.73,1.73,0,0,1,.74-.48A2.11,2.11,0,0,1,30.8,8.39Zm1.4,2.23a1.45,1.45,0,0,0-.36-1A2.5,2.5,0,0,0,31.23,9a1.47,1.47,0,0,0-.92-.22,1.59,1.59,0,0,0-1,.53,2.66,2.66,0,0,0-.47.63c0,.09-.11.17-.17.26a2.9,2.9,0,0,0-.58,1.86,1.4,1.4,0,0,0,.28.9c.18.22.39.42.59.62a1,1,0,0,0,.34.21,1.87,1.87,0,0,0,.85.1,1.57,1.57,0,0,0,1.06-.51c.09-.1.16-.21.25-.31a3.95,3.95,0,0,0,.77-2.46Z"/><path d="M29.82,9.87a.73.73,0,0,1,.33.23,1.07,1.07,0,0,1,.22.37.37.37,0,0,1-.2.43.2.2,0,0,1-.26-.11,1.07,1.07,0,0,1-.13-.74A1.16,1.16,0,0,1,29.82,9.87Z"/><path d="M29.54,10l0,.1a1.28,1.28,0,0,1,.06.34.45.45,0,0,1-.14.31l-.06,0h-.05a.2.2,0,0,1-.23-.2.37.37,0,0,1,.07-.25,1.83,1.83,0,0,1,.3-.32Z"/><path d="M30.11,9.79l.11,0,.3,0a.48.48,0,0,1,.23.07.23.23,0,0,1,.14.13s0,0,0,.05,0,.16-.07.24a.15.15,0,0,1-.18,0,1.26,1.26,0,0,1-.4-.28Z"/><path d="M29,12.6l.09,0a1.25,1.25,0,0,1,.32-.08.37.37,0,0,1,.3.1s0,0,0,0a.09.09,0,0,1,0,.05.18.18,0,0,1-.16.23.32.32,0,0,1-.25,0,1.85,1.85,0,0,1-.33-.24Z"/><path d="M28.87,12.42c.05-.08.1-.17.16-.25a1.73,1.73,0,0,1,.26-.28.26.26,0,0,1,.33,0l.11.08a.11.11,0,0,1,0,.13.16.16,0,0,1,0,.07.65.65,0,0,1-.34.24,3,3,0,0,1-.51.07Z"/><path d="M28.82,12.11l0-.11a2.46,2.46,0,0,1,0-.28.43.43,0,0,1,.06-.22.22.22,0,0,1,.13-.12l.05,0c.13-.06.16,0,.23.06a.15.15,0,0,1,0,.17A1.29,1.29,0,0,1,29,12Z"/><path d="M31.31,11.94l-.13,0a1.46,1.46,0,0,1-.51,0,.56.56,0,0,1-.42-.31.2.2,0,0,1,0-.23.27.27,0,0,1,.23-.11l.14,0a1.57,1.57,0,0,1,.44.28C31.15,11.72,31.22,11.83,31.31,11.94Z"/><path d="M31.39,11.75l0,0-.27-.27a.41.41,0,0,1-.07-.11.45.45,0,0,1,0-.41.08.08,0,0,1,.07-.07l.1,0a.22.22,0,0,1,.22.08.53.53,0,0,1,.09.55C31.46,11.56,31.42,11.65,31.39,11.75Z"/><path d="M31.27,12.11a.83.83,0,0,1,0,.12l-.17.28a.62.62,0,0,1-.22.17.28.28,0,0,1-.2,0l-.06,0c-.16,0-.17-.08-.18-.21a.2.2,0,0,1,.11-.17,1.67,1.67,0,0,1,.52-.17Z"/><path d="M38.45,11.54l.86.09a1.43,1.43,0,0,1,.34.14c.13.07.26.15.39.21a3.94,3.94,0,0,1,1,.66.62.62,0,0,1,.11.17,2.57,2.57,0,0,1,.25.8,8.52,8.52,0,0,1,.08.87,1.75,1.75,0,0,1-.06.68,1.9,1.9,0,0,1-.55.92,5.47,5.47,0,0,1-.86.59.74.74,0,0,1-.41.1l-.87-.07a2.2,2.2,0,0,1-1-.45,5.67,5.67,0,0,1-.84-.7,1.75,1.75,0,0,1-.55-1.2,4.12,4.12,0,0,1,.23-1.43,4.47,4.47,0,0,1,.47-.86.2.2,0,0,1,.08-.08,2.13,2.13,0,0,1,1.24-.42h.15Zm.62,5a2.1,2.1,0,0,0,.43-.05,1.76,1.76,0,0,0,.5-.18,3.26,3.26,0,0,0,.6-.43,1.72,1.72,0,0,0,.45-.74,1,1,0,0,0,0-.86.67.67,0,0,1-.06-.12,1.3,1.3,0,0,0-.32-.51c-.13-.14-.26-.27-.4-.4a2,2,0,0,0-.3-.21c-.05,0-.12-.06-.17-.1a2.51,2.51,0,0,0-1-.4,3,3,0,0,0-.94-.1,2.19,2.19,0,0,0-.51.1,1.35,1.35,0,0,0-.46.4,1.57,1.57,0,0,0-.26.73c0,.15,0,.31,0,.47a.65.65,0,0,0,0,.36c.09.21.19.42.3.62a2.66,2.66,0,0,0,.61.8,5.84,5.84,0,0,0,.64.41h0l.34.1A1.71,1.71,0,0,0,39.07,16.51Z"/><path d="M39.48,15.83a.87.87,0,0,1-.3-.22,1,1,0,0,1-.17-.35.35.35,0,0,1,.19-.38.19.19,0,0,1,.23.11,1,1,0,0,1,.09.68C39.51,15.72,39.49,15.77,39.48,15.83Z"/><path d="M39.74,15.7l0-.09a1.16,1.16,0,0,1,0-.32.34.34,0,0,1,.14-.26l0,0h0a.18.18,0,0,1,.2.19.39.39,0,0,1-.07.23,2.37,2.37,0,0,1-.28.27Z"/><path d="M39.21,15.88l-.1,0h-.27a.52.52,0,0,1-.21-.07.24.24,0,0,1-.11-.13s0,0,0,0,0-.15.07-.22a.14.14,0,0,1,.16,0,1,1,0,0,1,.35.27Z"/><path d="M37.54,15.21l.09-.05a1.17,1.17,0,0,1,.31-.12.36.36,0,0,1,.3.07l0,0a.08.08,0,0,1,0,0,.18.18,0,0,1-.14.24.33.33,0,0,1-.24,0,2.12,2.12,0,0,1-.36-.21Z"/><path d="M37.38,15a2.15,2.15,0,0,1,.14-.26,1.73,1.73,0,0,1,.22-.31.26.26,0,0,1,.33-.07.41.41,0,0,1,.11.07.11.11,0,0,1,0,.13.19.19,0,0,1,0,.07.69.69,0,0,1-.32.26,2.83,2.83,0,0,1-.5.13Z"/><path d="M37.31,14.73l-.05-.1c0-.09,0-.18,0-.27a.62.62,0,0,1,0-.23.22.22,0,0,1,.12-.13l0,0c.12-.07.16,0,.24,0a.15.15,0,0,1,0,.17,1.13,1.13,0,0,1-.23.4Z"/><path d="M39.27,13.42c0,.06,0,.09,0,.13a1.7,1.7,0,0,1,0,.5.58.58,0,0,1-.34.39.2.2,0,0,1-.24,0,.23.23,0,0,1-.08-.23.5.5,0,0,1,.05-.13,1.14,1.14,0,0,1,.31-.41C39,13.56,39.15,13.5,39.27,13.42Z"/><path d="M39.08,13.33l0,0-.29.24-.11.06a.51.51,0,0,1-.42,0,.12.12,0,0,1-.06-.08s0-.06,0-.1a.21.21,0,0,1,.1-.21.55.55,0,0,1,.55,0Z"/><path d="M39.43,13.47a.34.34,0,0,1,.12.06l.27.18a.7.7,0,0,1,.15.23.23.23,0,0,1,0,.2s0,0,0,.06-.1.15-.24.16-.12-.06-.15-.13a1.33,1.33,0,0,1-.13-.52A2.32,2.32,0,0,0,39.43,13.47Z"/></g></g></svg>