<svg xmlns="http://www.w3.org/2000/svg" width="26.4" height="45.3" viewBox="0 0 26.4 45.3"><defs><style>.cls-1{fill:#e94d97;}</style></defs><title>Asset 31</title><g id="Layer_2" data-name="Layer 2"><g id="Design"><path class="cls-1" d="M10.08,14.48a1.28,1.28,0,0,1,.26,0l.5.06a4.48,4.48,0,0,0,1.09.07c.37-.07.5-.54.77-.81s.32-.39.52-.64l-.4-.05a1.22,1.22,0,0,0-.27,0,1.28,1.28,0,0,1-1.34-.88c-.25-.5-.55-1-.81-1.49A3.46,3.46,0,0,0,9.09,9.29L8.31,8.8V5.75H6.19V8.29c-.27.1-.53.2-.79.27A.64.64,0,0,0,4.92,9a12.15,12.15,0,0,1-1.06,2.35,2.54,2.54,0,0,1-.71,1,6.7,6.7,0,0,1-.7.37l-1.94.76L0,13.72c.1.1.16.19.23.21l2.89.72a.64.64,0,0,0,.52-.11c.28-.2.57-.38.95-.62-.07.27-.11.44-.16.6-.2.58-.39,1.15-.59,1.72a26.3,26.3,0,0,0-.93,4.59c-.13.88-.29,1.75-.4,2.64a34.66,34.66,0,0,0-.42,5.67,15.34,15.34,0,0,0,.6,4.1c.43,1.41.93,2.79,1.42,4.18.24.7.5,1.38.76,2.07a1.42,1.42,0,0,0,.23.42c.6.66,1.22,1.3,1.83,1.94a1.49,1.49,0,0,0,.38.28c.73.34,1.46.67,2.2,1a.64.64,0,0,0,.39,0c.63-.13,1.25-.27,1.88-.43a.52.52,0,0,0,.3-.18A4.28,4.28,0,0,0,13,40.08c0-.61,0-1.22,0-1.83-.05-.92-.12-1.84-.18-2.76s-.08-1.65-.17-2.47c-.06-.65-.21-1.29-.31-1.94-.27-1.74-.5-3.49-.81-5.22a28.32,28.32,0,0,1-.37-3.68c-.06-1.27-.22-2.53-.23-3.8a12.91,12.91,0,0,0-.71-3.45c0-.14-.07-.28-.12-.45"/><path class="cls-1" d="M24.31,35.52a1.21,1.21,0,0,1,0-.2,30.84,30.84,0,0,1,.36-3.95c.17-1.19.32-2.38.46-3.57.18-1.39.3-2.78.51-4.17.25-1.66.54-3.33.65-5,0-.32.1-1.62.1-1.66,0-.66,0-1.31,0-2a8,8,0,0,0-.64-2.87,3.26,3.26,0,0,0-1.41-1.49c-.29-.17-.6-.33-.92-.48A5,5,0,0,0,21.8,9.5c0-.08,0-.14,0-.2l.18-2A1.21,1.21,0,0,1,22,6.83c.29-.77.6-1.53.92-2.29a18.64,18.64,0,0,1,1.7-3,1.17,1.17,0,0,0,.12-.25l-.44-.15A28.36,28.36,0,0,0,22.8,3.57a24.9,24.9,0,0,0-1.05,2.58A33.91,33.91,0,0,1,22.92.72a2,2,0,0,0-.76-.23c0,.17-.07.32-.1.46l-.21.91c-.15.63-.32,1.25-.44,1.88s-.17,1.19-.25,1.78L20.8,8.08c-.05.3-.1.6-.14.9h-.08c0-1.47-.2-2.92,0-4.39A33,33,0,0,1,21.4.24l-1-.24-.09.23c-.1.38-.19.75-.3,1.13a16.83,16.83,0,0,0-.43,4.35A32.46,32.46,0,0,0,20,9.37l0,.34a3.09,3.09,0,0,0-1.32.6c-.38.34-.73.7-1.1,1a.83.83,0,0,0-.09.16l-.4,1c-.11.29-.22.59-.31.89a4,4,0,0,0-.08.53c0,.3,0,.46,0,.64a.93.93,0,0,0-.05.24c0,.64,0,1.29,0,1.93a4.15,4.15,0,0,1,0,.61c-.05.42-.16.84-.17,1.26,0,.62,0,1.25.07,1.88a22.74,22.74,0,0,0,.83,4.89c.21.75.4,1.5.56,2.25s.13,1.65.29,2.48a5.85,5.85,0,0,1,.13,1.44,11.73,11.73,0,0,0,0,2.37c.08.67.33,1.35.4,2a12.08,12.08,0,0,0,.66,3.11,22.56,22.56,0,0,0,1.31,2.83c.53.92,1.12,1.83,1.69,2.74.12.21.24.42.4.68a.85.85,0,0,0,.05-.18c0-.35.11-.69.14-1a20.23,20.23,0,0,1,.52-3.27,24.33,24.33,0,0,0,.72-4.29,5.46,5.46,0,0,0,0-.58,2.61,2.61,0,0,0,0-.42"/></g></g></svg>