<svg xmlns="http://www.w3.org/2000/svg" width="26.82" height="41.74" viewBox="0 0 26.82 41.74"><defs><style>.cls-1{fill:#e94d97;}</style></defs><title>Asset 33</title><g id="Layer_2" data-name="Layer 2"><g id="Design"><path class="cls-1" d="M26.82,13.77H23.66c-2.42,0-4.85.05-7.27,0-1.34,0-14.53,0-16.27.35.13.46.23.87.35,1.27C1,17,1.4,18.59,1.91,20.16c.72,2.23,1.48,4.44,2.22,6.67.49,1.48.94,3,1.46,4.44.75,2.12,1.56,4.23,2.32,6.35.33.94.59,1.9.88,2.86a1.26,1.26,0,0,0,1.27,1.07c2.94,0,5.88.12,8.92.19,2.35-9.34,5.36-18.47,7.84-28"/><path class="cls-1" d="M.45,0c.41.19.73.33,1,.49L7.75,3.85A2.3,2.3,0,0,1,8.84,5.09c.95,2.31.27,1.14,1.26,3.43a78.12,78.12,0,0,1,3.17,7.83c.06.22.13.45.2.67L9.75,16.2q-.2-.82-.45-1.62c-.73-2.17.18.84-.54-1.33-1.1-3.3-.75-3-2.2-6.19a2.22,2.22,0,0,0-.69-.92c-1-.69-2.09-1.3-3.14-1.93C2,3.74,1.18,3.29.43,2.79.23,2.66,0,2.38,0,2.2.09,1.49.28.8.45,0"/></g></g></svg>