<svg xmlns="http://www.w3.org/2000/svg" width="630" height="640" viewBox="0 0 630 640"><defs><style>.cls-1{fill:#e0279a;}.cls-2,.cls-4{fill:none;stroke:#fff;}.cls-2{stroke-width:2px;}.cls-3{fill:#fff;}.cls-4{stroke-width:3px;}</style></defs><title>Asset 1</title><g id="Layer_2" data-name="Layer 2"><g id="Layer_1-2" data-name="Layer 1"><rect class="cls-1" x="1" y="1" width="628" height="638"/><rect class="cls-2" x="1" y="1" width="628" height="638"/><path class="cls-3" d="M36.58,470.57a.7.7,0,0,0,.74.74h6.43a.7.7,0,0,0,.74-.74V450.29a.39.39,0,0,1,.45-.44H56.19a.7.7,0,0,0,.74-.74v-5.7a.7.7,0,0,0-.74-.74H44.94a.39.39,0,0,1-.45-.44V428.61a.39.39,0,0,1,.45-.44H58a.7.7,0,0,0,.74-.74v-5.7A.7.7,0,0,0,58,421H37.32a.7.7,0,0,0-.74.74Z"/><path class="cls-3" d="M76.17,443.71H73.58a.4.4,0,0,1-.45-.45V428.61a.39.39,0,0,1,.45-.44h2.59c4.44,0,6.36,1.85,6.36,7.77S80.61,443.71,76.17,443.71Zm15,27.6c.37,0,.52-.37.37-.74l-7.11-21.76c3.78-2.14,6-6.29,6-12.87,0-11-5.4-14.95-14.36-14.95H66a.7.7,0,0,0-.74.74v48.84a.7.7,0,0,0,.74.74h6.44a.7.7,0,0,0,.74-.74V451.18a.39.39,0,0,1,.45-.44h3.77l6.14,20.05a.75.75,0,0,0,.82.52Z"/><path class="cls-3" d="M98.29,470.57a.7.7,0,0,0,.74.74h20.65a.7.7,0,0,0,.74-.74v-5.7a.7.7,0,0,0-.74-.74h-13a.39.39,0,0,1-.44-.44V449.92a.39.39,0,0,1,.44-.44H117.9a.7.7,0,0,0,.74-.74V443a.7.7,0,0,0-.74-.74H106.65a.39.39,0,0,1-.44-.44V428.61a.39.39,0,0,1,.44-.44h13a.7.7,0,0,0,.74-.74v-5.7a.7.7,0,0,0-.74-.74H99a.7.7,0,0,0-.74.74Z"/><path class="cls-3" d="M127.3,470.57a.7.7,0,0,0,.74.74h20.65a.7.7,0,0,0,.74-.74v-5.7a.7.7,0,0,0-.74-.74h-13a.39.39,0,0,1-.44-.44V449.92a.39.39,0,0,1,.44-.44h11.25a.7.7,0,0,0,.74-.74V443a.7.7,0,0,0-.74-.74H135.66a.39.39,0,0,1-.44-.44V428.61a.39.39,0,0,1,.44-.44h13a.7.7,0,0,0,.74-.74v-5.7a.7.7,0,0,0-.74-.74H128a.7.7,0,0,0-.74.74Z"/><path class="cls-3" d="M180.14,456.88c0-8.58-2.59-12.14-9.18-14.73l-3-1.18c-4-1.55-4.89-3-4.89-7.62,0-4.15,1.48-6.07,4.59-6.07,3.26,0,4.59,2.29,4.74,6.44,0,.44.37.66.81.59l5.92-.89c.44-.15.67-.37.67-.81-.45-7.85-4.07-12.29-12.36-12.29s-12.21,4.74-12.21,13.4c0,7.84,2.07,11.47,9,14.21l3,1.18c3.92,1.55,5,3.33,5,8.73s-1.56,7.18-4.74,7.18c-3.4,0-5-2.07-5.18-7.4a.64.64,0,0,0-.81-.67l-6.22,1c-.44.07-.59.37-.59.81.22,8.81,4.44,13.18,12.58,13.18C176.81,472,180.14,466.8,180.14,456.88Z"/><path class="cls-3" d="M201.08,471.31a.7.7,0,0,0,.74-.74v-42a.39.39,0,0,1,.44-.44H210a.7.7,0,0,0,.74-.74v-5.7A.7.7,0,0,0,210,421h-24.2a.7.7,0,0,0-.74.74v5.7a.7.7,0,0,0,.74.74h7.7a.39.39,0,0,1,.44.44v42a.7.7,0,0,0,.74.74Z"/><path class="cls-3" d="M230.09,471.31a.7.7,0,0,0,.74-.74V450.66l9.62-28.93c.14-.44,0-.74-.6-.74h-6.36c-.52,0-.74.22-.89.74l-5.47,19.46h-.23l-5.62-19.46c-.15-.52-.37-.74-.89-.74h-6.51c-.59,0-.74.3-.59.74l9.62,28.93v19.91a.7.7,0,0,0,.74.74Z"/><path class="cls-3" d="M245.85,470.57a.7.7,0,0,0,.74.74h20.64a.7.7,0,0,0,.74-.74v-5.7a.7.7,0,0,0-.74-.74h-13a.39.39,0,0,1-.44-.44v-42A.7.7,0,0,0,253,421h-6.44a.7.7,0,0,0-.74.74Z"/><path class="cls-3" d="M274.19,470.57a.7.7,0,0,0,.74.74h20.65a.7.7,0,0,0,.74-.74v-5.7a.7.7,0,0,0-.74-.74h-13a.39.39,0,0,1-.44-.44V449.92a.39.39,0,0,1,.44-.44H293.8a.7.7,0,0,0,.74-.74V443a.7.7,0,0,0-.74-.74H282.55a.39.39,0,0,1-.44-.44V428.61a.39.39,0,0,1,.44-.44h13a.7.7,0,0,0,.74-.74v-5.7a.7.7,0,0,0-.74-.74H274.93a.7.7,0,0,0-.74.74Z"/><path class="cls-3" d="M329.32,443.71h-2.59c-.3,0-.44-.15-.44-.45V428.61a.39.39,0,0,1,.44-.44h2.59c4.44,0,6.36,1.85,6.36,7.77S333.76,443.71,329.32,443.71Zm15,27.6c.37,0,.52-.37.37-.74l-7.1-21.76c3.77-2.14,6-6.29,6-12.87,0-11-5.4-14.95-14.35-14.95H319.11a.7.7,0,0,0-.74.74v48.84a.7.7,0,0,0,.74.74h6.44a.7.7,0,0,0,.74-.74V451.18a.39.39,0,0,1,.44-.44h3.77l6.15,20.05a.74.74,0,0,0,.81.52Z"/><path class="cls-3" d="M359.36,453.77l3.7-18.72h.23l3.55,18.72Zm-10.95,16.8a.57.57,0,0,0,.59.74h6.29a.77.77,0,0,0,.82-.74l2-10.14h10l2,10.14a.77.77,0,0,0,.82.74h6.29a.57.57,0,0,0,.59-.74l-10.66-48.84a.81.81,0,0,0-.81-.74H360.1c-.44,0-.66.3-.81.74Z"/><path class="cls-3" d="M383.41,470.57a.7.7,0,0,0,.74.74h5.7a.7.7,0,0,0,.74-.74V438.75H391l6.51,22.87a1,1,0,0,0,1,.74h3.26a1,1,0,0,0,1-.74l6.51-22.87h.44v31.82a.7.7,0,0,0,.74.74h5.7a.7.7,0,0,0,.74-.74V421.73a.7.7,0,0,0-.74-.74h-6.36c-.67,0-1,.22-1.19.74l-8.14,28.34h-.29l-8.36-28.34c-.15-.52-.52-.74-1.19-.74h-6.44a.7.7,0,0,0-.74.74Z"/><path class="cls-3" d="M433.44,453.77l3.7-18.72h.22l3.55,18.72Zm-10.95,16.8a.56.56,0,0,0,.59.74h6.29a.76.76,0,0,0,.81-.74l2-10.14h10l2,10.14a.76.76,0,0,0,.81.74h6.29a.56.56,0,0,0,.59-.74l-10.65-48.84a.82.82,0,0,0-.82-.74h-6.21c-.45,0-.67.3-.82.74Z"/><path class="cls-3" d="M467.4,471.31a.7.7,0,0,0,.74-.74v-42a.39.39,0,0,1,.45-.44h7.69a.7.7,0,0,0,.74-.74v-5.7a.7.7,0,0,0-.74-.74H452.09a.7.7,0,0,0-.74.74v5.7a.7.7,0,0,0,.74.74h7.69a.39.39,0,0,1,.45.44v42a.7.7,0,0,0,.74.74Z"/><path class="cls-3" d="M505.14,453.77l3.7-18.72h.23l3.55,18.72Zm-10.95,16.8a.57.57,0,0,0,.59.74h6.29a.77.77,0,0,0,.82-.74l2-10.14h10l2,10.14a.77.77,0,0,0,.82.74H523a.57.57,0,0,0,.59-.74l-10.66-48.84a.81.81,0,0,0-.81-.74h-6.22c-.44,0-.66.3-.81.74Z"/><path class="cls-3" d="M540.29,471.31c.45,0,.67-.3.74-.74l10-48.84c.08-.44-.07-.74-.66-.74h-6.22a.75.75,0,0,0-.81.74l-5.63,34h-.22l-5.84-34c-.08-.52-.3-.74-.74-.74h-6.37c-.59,0-.74.3-.66.74l10,48.84c.07.44.29.74.74.74Z"/><rect class="cls-3" x="557.02" y="420.99" width="7.92" height="50.32" rx="0.74"/><path class="cls-3" d="M587.36,471.31c.44,0,.66-.3.74-.74l10-48.84c.07-.44-.08-.74-.67-.74h-6.21a.76.76,0,0,0-.82.74l-5.62,34h-.22l-5.85-34c-.07-.52-.3-.74-.74-.74H571.6c-.6,0-.74.3-.67.74l10,48.84c.07.44.3.74.74.74Z"/><path class="cls-3" d="M118.53,523.26a.45.45,0,0,0,.48-.48V495.57a.25.25,0,0,1,.29-.29h5a.45.45,0,0,0,.48-.48v-3.7a.46.46,0,0,0-.48-.48h-15.7a.46.46,0,0,0-.48.48v3.7a.45.45,0,0,0,.48.48h5a.25.25,0,0,1,.29.29v27.21a.45.45,0,0,0,.48.48Z"/><path class="cls-3" d="M142.14,523.26a.45.45,0,0,0,.48-.48V506.9c0-5-1.92-7.2-5.37-7.2a4.72,4.72,0,0,0-4.42,2.73h-.05V491.1a.46.46,0,0,0-.48-.48h-3.93a.46.46,0,0,0-.48.48v31.68a.45.45,0,0,0,.48.48h3.93a.45.45,0,0,0,.48-.48V507.57c0-2.26.87-3.36,2.45-3.36s2.5,1.1,2.5,3.36v15.21a.45.45,0,0,0,.48.48Z"/><path class="cls-3" d="M154.05,504.06a2.18,2.18,0,0,1,2.25,1.54c.2.53.29,1.15.29,3.55a.25.25,0,0,1-.29.29h-4.46a.26.26,0,0,1-.29-.29,10.59,10.59,0,0,1,.29-3.55A2.18,2.18,0,0,1,154.05,504.06ZM154,523.7c3.79,0,6.58-2.16,7.2-5.62.05-.34,0-.53-.34-.58l-3.69-.72a.47.47,0,0,0-.58.34,2.42,2.42,0,0,1-2.54,2.06,2.16,2.16,0,0,1-2.26-1.53,15.39,15.39,0,0,1-.24-4c0-.19.1-.28.29-.28H161a.46.46,0,0,0,.48-.48c0-6.15-.15-7.44-.53-8.6-1-2.92-3.26-4.6-6.91-4.6s-5.91,1.68-6.87,4.6c-.38,1.16-.52,2.45-.52,7.4s.14,6.24.52,7.39C148.14,522,150.4,523.7,154,523.7Z"/><path class="cls-3" d="M170,523.26a.45.45,0,0,0,.48-.48V509.15c0-3.07,1.54-4.51,4-4.51h.77c.28,0,.38-.05.48-.29l1.1-4.08c.1-.29-.05-.43-.34-.53a6.19,6.19,0,0,0-.86,0,5.2,5.2,0,0,0-5.09,3.16h0v-2.25a.45.45,0,0,0-.48-.48h-3.93a.45.45,0,0,0-.48.48v22.17a.45.45,0,0,0,.48.48Z"/><path class="cls-3" d="M185.58,504.06a2.2,2.2,0,0,1,2.26,1.54,10.59,10.59,0,0,1,.29,3.55.26.26,0,0,1-.29.29h-4.46a.25.25,0,0,1-.29-.29c0-2.4.09-3,.29-3.55A2.16,2.16,0,0,1,185.58,504.06Zm0,19.64c3.79,0,6.57-2.16,7.2-5.62,0-.34-.05-.53-.34-.58l-3.7-.72a.46.46,0,0,0-.57.34,2.42,2.42,0,0,1-2.55,2.06,2.15,2.15,0,0,1-2.25-1.53,14.87,14.87,0,0,1-.24-4c0-.19.09-.28.29-.28h9.16a.46.46,0,0,0,.48-.48c0-6.15-.14-7.44-.52-8.6-1-2.92-3.27-4.6-6.92-4.6s-5.9,1.68-6.86,4.6c-.38,1.16-.53,2.45-.53,7.4s.15,6.24.53,7.39C179.68,522,181.94,523.7,185.54,523.7Z"/><rect class="cls-3" x="196.58" y="490.62" width="3.6" height="8.98" rx="0.48"/><path class="cls-3" d="M210.54,523.7c4.56,0,7.16-3,7.16-7.06,0-3.46-1.35-5.66-5-7.06l-1.87-.72c-1.92-.72-2.49-1.68-2.49-2.73a2.2,2.2,0,0,1,2.25-2.4,2.5,2.5,0,0,1,2.5,2.11.48.48,0,0,0,.57.38l3.27-.62c.24-.05.38-.29.33-.62-.43-2.79-2.59-5.28-6.67-5.28a6.52,6.52,0,0,0-6.86,6.76c0,3.41,2,5.62,5,6.77l1.87.72c1.92.72,2.5,1.59,2.5,3a2.41,2.41,0,0,1-2.5,2.64,2.73,2.73,0,0,1-2.83-2.69.48.48,0,0,0-.58-.39l-3.45.68a.46.46,0,0,0-.39.57C203.73,521.39,206.32,523.7,210.54,523.7Z"/><path class="cls-3" d="M236.8,519.66c-1.54,0-2.3-1.1-2.3-3.07s.86-3.21,3.21-3.21h1.68c.19,0,.29.09.29.28v2.74C239.68,518.32,238.53,519.66,236.8,519.66Zm7.1,3.6a.45.45,0,0,0,.48-.48V507.62c0-5.62-2-7.92-7.24-7.92a10.14,10.14,0,0,0-6.29,2.06.52.52,0,0,0-.15.67l1.25,2.83a.44.44,0,0,0,.72.2,6.42,6.42,0,0,1,3.84-1.35c2.45,0,3.17,1.15,3.17,3.7v1.34a.26.26,0,0,1-.29.29H236.9c-3.8,0-7.06,1.87-7.06,7.34,0,5.28,2.88,6.92,5.52,6.92a4.3,4.3,0,0,0,4.27-2.74h.05v1.82a.45.45,0,0,0,.48.48Z"/><path class="cls-3" d="M272.61,523.26a.45.45,0,0,0,.48-.48V506.9c0-5-1.92-7.2-5.38-7.2a4.69,4.69,0,0,0-4.41,2.73h-.05v-1.82a.45.45,0,0,0-.48-.48h-3.94a.45.45,0,0,0-.48.48v22.17a.45.45,0,0,0,.48.48h3.94a.45.45,0,0,0,.48-.48V507.57c0-2.26.86-3.36,2.45-3.36s2.49,1.1,2.49,3.36v15.21a.45.45,0,0,0,.48.48Z"/><path class="cls-3" d="M284.51,504.06a2.2,2.2,0,0,1,2.26,1.54,10.59,10.59,0,0,1,.29,3.55.26.26,0,0,1-.29.29H282.3c-.19,0-.28-.1-.28-.29a10.74,10.74,0,0,1,.28-3.55A2.18,2.18,0,0,1,284.51,504.06Zm-.05,19.64c3.8,0,6.58-2.16,7.2-5.62,0-.34,0-.53-.33-.58l-3.7-.72a.45.45,0,0,0-.57.34,2.43,2.43,0,0,1-2.55,2.06,2.15,2.15,0,0,1-2.25-1.53,14.87,14.87,0,0,1-.24-4,.24.24,0,0,1,.28-.28h9.17a.46.46,0,0,0,.48-.48c0-6.15-.14-7.44-.53-8.6-1-2.92-3.26-4.6-6.91-4.6s-5.9,1.68-6.86,4.6c-.39,1.16-.53,2.45-.53,7.4s.14,6.24.53,7.39C278.61,522,280.86,523.7,284.46,523.7Z"/><path class="cls-3" d="M312.64,523.26c.34,0,.48-.14.58-.48l5.18-22.17a.33.33,0,0,0-.34-.48h-4a.49.49,0,0,0-.53.48l-2.64,14.3h-.05l-2.59-14.3a.49.49,0,0,0-.53-.48h-2.83a.5.5,0,0,0-.53.48l-2.68,14.3h-.05l-2.59-14.3a.5.5,0,0,0-.53-.48h-4a.33.33,0,0,0-.34.48l5.23,22.17c.05.34.19.48.53.48h3.36a.51.51,0,0,0,.58-.48l2.35-13.44h.09l2.4,13.44a.51.51,0,0,0,.58.48Z"/><path class="cls-3" d="M331.12,522.78a.45.45,0,0,0,.48.48h4.18a.46.46,0,0,0,.48-.48V509.2c0-.19.09-.29.28-.29h5.52a.25.25,0,0,1,.29.29v13.58a.45.45,0,0,0,.48.48H347a.45.45,0,0,0,.48-.48V491.1a.46.46,0,0,0-.48-.48h-4.18a.46.46,0,0,0-.48.48V504a.25.25,0,0,1-.29.29h-5.52c-.19,0-.28-.1-.28-.29V491.1a.46.46,0,0,0-.48-.48H331.6a.46.46,0,0,0-.48.48Z"/><path class="cls-3" d="M356.9,523.26a.46.46,0,0,0,.48-.48V500.61a.46.46,0,0,0-.48-.48H353a.45.45,0,0,0-.48.48v22.17a.45.45,0,0,0,.48.48Zm0-27.55a.46.46,0,0,0,.48-.48V491.1a.46.46,0,0,0-.48-.48H353a.46.46,0,0,0-.48.48v4.13a.45.45,0,0,0,.48.48Z"/><path class="cls-3" d="M366.69,523.26a.45.45,0,0,0,.48-.48V509.15c0-3.07,1.53-4.51,4-4.51h.77c.29,0,.38-.05.48-.29l1.1-4.08c.1-.29,0-.43-.33-.53a6.33,6.33,0,0,0-.87,0,5.18,5.18,0,0,0-5.08,3.16h-.05v-2.25a.45.45,0,0,0-.48-.48h-3.94a.45.45,0,0,0-.48.48v22.17a.45.45,0,0,0,.48.48Z"/><path class="cls-3" d="M384.93,511.7c0,4.7-.05,5.18-.24,5.85a2.48,2.48,0,0,1-4.66,0c-.19-.67-.24-1.15-.24-5.85s0-5.19.24-5.86a2.48,2.48,0,0,1,4.66,0C384.88,506.51,384.93,507,384.93,511.7Zm4.89,0c0-4.8-.14-6.05-.52-7.25-1-3-3.41-4.75-7-4.75s-6,1.77-6.92,4.75c-.38,1.2-.52,2.45-.52,7.25s.14,6,.52,7.24c1,3,3.41,4.76,6.92,4.76s6-1.78,7-4.76C389.68,517.74,389.82,516.5,389.82,511.7Z"/><path class="cls-3" d="M407.78,523.26a.46.46,0,0,0,.48-.48V500.61a.46.46,0,0,0-.48-.48h-3.94a.45.45,0,0,0-.48.48v22.17a.45.45,0,0,0,.48.48Zm0-27.55a.46.46,0,0,0,.48-.48V491.1a.46.46,0,0,0-.48-.48h-3.94a.46.46,0,0,0-.48.48v4.13a.45.45,0,0,0,.48.48Z"/><path class="cls-3" d="M427.41,523.26a.45.45,0,0,0,.48-.48V506.9c0-5-1.92-7.2-5.38-7.2a4.69,4.69,0,0,0-4.41,2.73h-.05v-1.82a.45.45,0,0,0-.48-.48h-3.94a.45.45,0,0,0-.48.48v22.17a.45.45,0,0,0,.48.48h3.94a.45.45,0,0,0,.48-.48V507.57c0-2.26.86-3.36,2.45-3.36s2.49,1.1,2.49,3.36v15.21a.45.45,0,0,0,.48.48Z"/><path class="cls-3" d="M450,523.55a.45.45,0,0,0,.48-.48v-3.55A.45.45,0,0,0,450,519h-.58c-1.29,0-1.87-.62-1.87-2V504.16a.26.26,0,0,1,.29-.29H450a.45.45,0,0,0,.48-.48v-2.78a.45.45,0,0,0-.48-.48h-2.16a.26.26,0,0,1-.29-.29V493.5A.46.46,0,0,0,447,493H443.1a.46.46,0,0,0-.48.48v6.34c0,.19-.09.29-.28.29h-1.4a.46.46,0,0,0-.48.48v2.78a.46.46,0,0,0,.48.48h1.4c.19,0,.28.1.28.29v13c0,4.61,1.88,6.38,5.91,6.38Z"/><path class="cls-3" d="M463.5,511.7c0,4.7,0,5.18-.24,5.85a2.47,2.47,0,0,1-4.65,0c-.19-.67-.24-1.15-.24-5.85s.05-5.19.24-5.86a2.47,2.47,0,0,1,4.65,0C463.46,506.51,463.5,507,463.5,511.7Zm4.9,0c0-4.8-.14-6.05-.53-7.25-1-3-3.41-4.75-7-4.75s-6,1.77-6.91,4.75c-.38,1.2-.53,2.45-.53,7.25s.15,6,.53,7.24c1,3,3.41,4.76,6.91,4.76s6-1.78,7-4.76C468.26,517.74,468.4,516.5,468.4,511.7Z"/><path class="cls-3" d="M489.18,523.26c.34,0,.48-.14.58-.48l5.18-22.17c.1-.29,0-.48-.33-.48h-4a.48.48,0,0,0-.52.48l-2.64,14.3h0l-2.59-14.3a.5.5,0,0,0-.53-.48h-2.83a.49.49,0,0,0-.53.48l-2.69,14.3h-.05l-2.59-14.3a.49.49,0,0,0-.53-.48h-4c-.29,0-.43.19-.34.48l5.24,22.17c0,.34.19.48.52.48h3.36a.51.51,0,0,0,.58-.48l2.35-13.44h.1l2.4,13.44a.5.5,0,0,0,.57.48Z"/><path class="cls-3" d="M512.51,523.26a.45.45,0,0,0,.48-.48V506.9c0-5-1.92-7.2-5.37-7.2a4.72,4.72,0,0,0-4.42,2.73h-.05v-1.82a.45.45,0,0,0-.48-.48h-3.93a.45.45,0,0,0-.48.48v22.17a.45.45,0,0,0,.48.48h3.93a.45.45,0,0,0,.48-.48V507.57c0-2.26.87-3.36,2.45-3.36s2.5,1.1,2.5,3.36v15.21a.45.45,0,0,0,.48.48Z"/><polygon class="cls-3" points="68.06 580.26 68.06 572.17 64.96 572.17 64.96 579.49 64.5 579.96 61.65 572.17 58.55 572.17 60.78 578 58.3 580.48 58.3 589.32 61.4 589.32 61.4 581.23 61.8 580.82 64.71 589.32 67.88 589.32 65.55 582.78 68.06 580.26"/><path class="cls-3" d="M73.64,576.82v-5.89H71.47v7.44Zm3.88,0v-5.89H75.35v7.44Z"/><polygon class="cls-3" points="91.62 589.32 91.62 572.17 80.93 572.17 80.93 574.96 82.17 574.96 82.17 586.53 80.62 586.53 80.62 589.32 85.27 589.32 85.27 574.96 88.52 574.96 88.52 589.32 91.62 589.32"/><polygon class="cls-3" points="104.8 590.87 104.8 584.98 102.63 584.98 102.63 592.42 104.8 590.87"/><polygon class="cls-3" points="125.19 584.95 125.19 582.34 123.95 582.34 123.95 579.24 120.86 579.24 120.86 582.34 118.13 582.34 121.04 572.17 118.03 572.17 115.03 582.34 115.03 584.95 120.86 584.95 120.86 589.32 123.95 589.32 123.95 584.95 125.19 584.95"/><path class="cls-3" d="M134.5,585.16a1.86,1.86,0,0,1-3.72,0v-8.83a1.86,1.86,0,0,1,3.72,0Zm3.1,0v-8.83a5,5,0,0,0-9.92,0v8.83a5,5,0,0,0,9.92,0Z"/><polygon class="cls-3" points="152.94 592.42 152.94 572.17 148.29 572.17 148.29 574.96 149.84 574.96 149.84 592.42 152.94 592.42"/><polygon class="cls-3" points="160.22 583.12 160.22 572.17 155.57 572.17 155.57 574.96 157.13 574.96 157.13 583.12 160.22 583.12"/><polygon class="cls-3" points="167.2 583.12 167.2 572.17 162.55 572.17 162.55 574.96 164.1 574.96 164.1 583.12 167.2 583.12"/><path class="cls-3" d="M179.75,589.32v-15.6a1.54,1.54,0,0,0-1.55-1.55h-3.13L174.7,575h2v11.57H173.4V572.17h-3.1v17.15Z"/><path class="cls-3" d="M196.4,572.17h-2.94l-.93,14.36h-6.3l-.18-3.78h4.28l.62-10.58H188l-.4,7.79h-1.8l-.5-7.79h-2.91l1.08,17.15h10c1.11,0,1.86-.53,1.95-2Z"/><path class="cls-3" d="M204.28,587.77v-15.6h-4.62V575h1.52v11.57h-3.07v2.79h4.62A1.54,1.54,0,0,0,204.28,587.77Z"/><polygon class="cls-3" points="211.56 583.12 211.56 572.17 206.91 572.17 206.91 574.96 208.46 574.96 208.46 583.12 211.56 583.12"/><polygon class="cls-3" points="218.54 583.12 218.54 572.17 213.89 572.17 213.89 574.96 215.44 574.96 215.44 583.12 218.54 583.12"/><polygon class="cls-3" points="231.4 580.26 231.4 572.17 228.3 572.17 228.3 579.49 227.84 579.96 224.98 572.17 221.88 572.17 224.12 578 221.64 580.48 221.64 589.32 224.74 589.32 224.74 581.23 225.14 580.82 228.05 589.32 231.22 589.32 228.89 582.78 231.4 580.26"/><polygon class="cls-3" points="244.58 590.87 244.58 584.98 242.41 584.98 242.41 592.42 244.58 590.87"/><path class="cls-3" d="M254,591.61c-.31-.87-.71-2.08-1.08-3.44a31.49,31.49,0,0,1-1.12-7.44,34.17,34.17,0,0,1,1.12-7.5c.37-1.33.77-2.51,1.05-3.35h-3.13c-.53,1.58-2.11,7.32-2.11,10.85s1.58,9.3,2.11,10.88Z"/><path class="cls-3" d="M266.25,586.19v-14H260.7v-2.26h-3.1V575h5.55v11.63H259.3v2.73h3.85A3.12,3.12,0,0,0,266.25,586.19Z"/><polygon class="cls-3" points="277.87 574.96 277.87 572.17 268.42 572.17 268.42 574.96 273.5 574.96 273.5 589.32 276.6 589.32 276.6 574.96 277.87 574.96"/><polygon class="cls-3" points="287.57 589.32 285.43 572.17 280.94 572.17 280.94 574.96 282.77 574.96 283.67 582.31 280.91 582.31 280.04 589.32 283.11 589.32 283.82 583.55 284.54 589.32 287.57 589.32"/><path class="cls-3" d="M299.2,589.32v-15.6a1.54,1.54,0,0,0-1.55-1.55H294.8l-1.49,1v-1h-3.72V575h1l-.93,14.36h3l.92-14.36h2.58v11.57h-1.4v2.79Z"/><path class="cls-3" d="M305.55,589.32V579.18h-3.1v10.14Zm6.36,0V572.17h-9.46V575h6.36v14.36Z"/><polygon class="cls-3" points="333.61 589.32 333.61 572.17 322.91 572.17 322.91 574.96 324.15 574.96 324.15 586.53 322.6 586.53 322.6 589.32 327.25 589.32 327.25 574.96 330.51 574.96 330.51 589.32 333.61 589.32"/><path class="cls-3" d="M343.13,575l-.72,11.57h-2.14L339.53,575Zm3.13-2.79h-10l1.15,17.15h6a1.76,1.76,0,0,0,1.9-1.8Z"/><polygon class="cls-3" points="352.77 583.12 352.77 572.17 348.12 572.17 348.12 574.96 349.67 574.96 349.67 583.12 352.77 583.12"/><path class="cls-3" d="M361.11,587.77v-15.6h-4.62V575H358v11.57h-3.07v2.79h4.62A1.54,1.54,0,0,0,361.11,587.77Z"/><path class="cls-3" d="M372.7,587.77v-15.6h-8.65V575h5.55v11.57h-5.55v2.79h7.1A1.53,1.53,0,0,0,372.7,587.77Z"/><path class="cls-3" d="M382.46,580.73c0-3.56-1.58-9.27-2.1-10.85h-3.14c.28.84.69,2,1.06,3.35a34.15,34.15,0,0,1,1.11,7.5,31.48,31.48,0,0,1-1.11,7.44c-.37,1.36-.78,2.57-1.09,3.44h3.17C380.88,590,382.46,584.33,382.46,580.73Z"/><polygon class="cls-3" points="403.39 589.32 403.39 586.53 402.12 586.53 402.12 572.17 394.24 572.17 394.24 574.96 399.02 574.96 399.02 586.53 393.93 586.53 393.93 589.32 403.39 589.32"/><polygon class="cls-3" points="410.21 583.12 410.21 572.17 405.56 572.17 405.56 574.96 407.11 574.96 407.11 583.12 410.21 583.12"/><polygon class="cls-3" points="422.45 589.32 422.45 586.53 421.18 586.53 421.18 572.17 413.31 572.17 413.31 574.96 418.08 574.96 418.08 586.53 413 586.53 413 589.32 422.45 589.32"/><polygon class="cls-3" points="435.16 580.26 435.16 572.17 432.06 572.17 432.06 579.49 431.6 579.96 428.75 572.17 425.65 572.17 427.88 578 425.4 580.48 425.4 589.32 428.5 589.32 428.5 581.23 428.9 580.82 431.82 589.32 434.98 589.32 432.65 582.78 435.16 580.26"/><polygon class="cls-3" points="456.86 589.32 456.86 572.17 446.17 572.17 446.17 574.96 447.41 574.96 447.41 586.53 445.86 586.53 445.86 589.32 450.51 589.32 450.51 574.96 453.76 574.96 453.76 589.32 456.86 589.32"/><path class="cls-3" d="M469.42,589.32v-15.6a1.54,1.54,0,0,0-1.55-1.55H465l-1.49,1v-1h-3.72V575h1l-.93,14.36h2.95l.93-14.36h2.57v11.57h-1.4v2.79Z"/><path class="cls-3" d="M479.49,589.32V574.93a2.94,2.94,0,0,0-3.1-2.76h-4.65V575h4.65v14.36Z"/><polygon class="cls-3" points="494.84 592.42 494.84 572.17 490.19 572.17 490.19 574.96 491.74 574.96 491.74 592.42 494.84 592.42"/><rect class="cls-3" x="498.25" y="572.17" width="3.1" height="17.14"/><polygon class="cls-3" points="508.63 583.12 508.63 572.17 503.98 572.17 503.98 574.96 505.53 574.96 505.53 583.12 508.63 583.12"/><path class="cls-3" d="M517,587.77v-15.6h-4.62V575h1.52v11.57H510.8v2.79h4.62A1.53,1.53,0,0,0,517,587.77Z"/><path class="cls-3" d="M523.48,592.42V579.18h-3.1v13.24Zm6.36-6.23v-14h-9.46V575h6.36v11.57h-1.55v2.79h1.55A3.12,3.12,0,0,0,529.84,586.19Z"/><rect class="cls-3" x="540.53" y="572.17" width="3.1" height="17.14"/><path class="cls-3" d="M553.86,589.32V574.93a2.94,2.94,0,0,0-3.1-2.76h-4.65V575h4.65v14.36Z"/><polygon class="cls-3" points="561.15 583.12 561.15 572.17 556.5 572.17 556.5 574.96 558.05 574.96 558.05 583.12 561.15 583.12"/><path class="cls-3" d="M567.35,589.32V579.18h-3.1v10.14Zm6.35,0V572.17h-9.45V575h6.35v14.36Z"/><path class="cls-3" d="M280.6,276.83c-1,.53-1.84,1-2.71,1.52a.7.7,0,0,1-.83-.14c-.54-.41-1.09-.81-1.62-1.24-2.26-1.81-4.56-3.6-6.78-5.48a6.4,6.4,0,0,0-4.17-1.58l-3.85-.07a9.72,9.72,0,0,1-4.21-1.06c-2.05-1-4-2.2-6-3.32a3,3,0,0,1-1.29-2.21c-.18-.94.76-1.81,2-1.85a16.58,16.58,0,0,1,2.53.19l4.73.54c.62.07,1.25.11,2.14.18-.78-.87-1.39-1.57-2-2.24a16.41,16.41,0,0,0-4.12-3.09,4.61,4.61,0,0,0-2.63-.55,30.1,30.1,0,0,0-6.83,1.5,14.4,14.4,0,0,1-6.33.2,1.17,1.17,0,0,1-1.05-.95,2.08,2.08,0,0,1,.9-1.61c.56-.3,1.15-.57,1.71-.88.41-.23.79-.54,1.2-.76a4,4,0,0,0,2-3.51c0-.44-.23-.63-.52-.79a32.7,32.7,0,0,0-3.28-1.8,46.74,46.74,0,0,0-8.67-2.51c-1.68-.36-3.4-.53-5.06-1s-3.31-.68-5-1.09-3.48-.9-5.17-1.47-3-1.81-4.44-2.82a.88.88,0,0,1-.24-.63c0-.84,0-1.68.05-2.53a.8.8,0,0,1,.56-.76,3.18,3.18,0,0,1,1.86-.38c.83.15,1.67.27,2.5.42,1.16.22,2.32.46,3.48.7a1.2,1.2,0,0,1,.2,0c1.52.45,3.06.85,4.56,1.36a25.47,25.47,0,0,0,4.63.92,6.15,6.15,0,0,0-.38-.6L219,226.28a8.7,8.7,0,0,0-4.49-2.61c-.71-.2-1.42-.42-2.13-.65a12.94,12.94,0,0,0-5-.31,14.52,14.52,0,0,1-8.27-1.5c-.91-.49-1.08-1.26-.22-1.86a23.34,23.34,0,0,1,3.33-1.91c1.12-.54,2.31-.93,3.66-1.47-.34-.32-.55-.55-.79-.75a34.94,34.94,0,0,1-4.17-4,6,6,0,0,1-1.28-5.48,3.86,3.86,0,0,1,1.82-2.87,13.07,13.07,0,0,0,1.65-1.34,2,2,0,0,1,1.79-.48c.1,0,.21,0,.3.05,3.32.92,6.41,2.16,8.38,5.26,1,1.6,2.11,3.14,3.25,4.66a23.54,23.54,0,0,0,2,2.08,8.89,8.89,0,0,0,.52-1c.38-1,.75-2.1,1.11-3.16.18-.54.37-1.09.52-1.64a2.37,2.37,0,0,1,1.81-1.84c.72-.19.81-.25,1.28.38A13,13,0,0,1,226.7,212c.28,2.29.3,4.58.46,6.87.2,2.66.24,5.39,1.67,7.77a33.48,33.48,0,0,0,2.43,3.49,32.35,32.35,0,0,0,4.44,4.48,4.5,4.5,0,0,0,.11-.75,4.82,4.82,0,0,0-.14-1,24.2,24.2,0,0,1-.62-6.35,2.8,2.8,0,0,1,.09-.7c.26-1.05.57-2.09.81-3.14a2.11,2.11,0,0,1,1.43-1.57c2.18-.84,4,.11,5,2.24a25.16,25.16,0,0,1,1.93,10c.05,1.92,0,3.85-.08,5.78a5,5,0,0,0,.07,1.1,15.78,15.78,0,0,0,2.9,6.1,3,3,0,0,0,.49.51,1.14,1.14,0,0,0,1.85-.34c.52-1.21.92-2.47,1.42-3.69a12,12,0,0,0,.64-5.48,9.74,9.74,0,0,1,0-1.62,2.52,2.52,0,0,1,1.11-2,.81.81,0,0,1,1.18.11c1,1.2,2,2.37,2.07,4.15a57.14,57.14,0,0,1,0,6.8c-.09,1.07-.09,2.16-.17,3.24a1.2,1.2,0,0,0,.45,1.06c.53.48,1,1,1.56,1.46q2.38,2.26,4.76,4.56a1.7,1.7,0,0,0,2.19.3,8.57,8.57,0,0,0,1.45-1.24c.94-1,1.83-2,2.75-3a1.83,1.83,0,0,1,.57-.43,1,1,0,0,1,1.64.84,5.8,5.8,0,0,1-.07,1.81,18.77,18.77,0,0,1-.71,2.54,23.14,23.14,0,0,0-1.07,5.77,2.56,2.56,0,0,0,.72,2c1.15,1.24,2.29,2.5,3.44,3.73a33.32,33.32,0,0,1,4.38,5.32c.52.86,1.23,1.62,1.82,2.43C279.93,275.72,280.19,276.19,280.6,276.83Z"/><path class="cls-3" d="M260.33,203.23a89.91,89.91,0,0,1-9.35,5.69c-.48-.65-1-1.28-1.44-1.94-2.35-3.47-4.66-7-7-10.41-1.09-1.59-2.27-3.11-3.45-4.71-.63.27-1.2.5-1.75.76-3.45,1.62-6.91,3.24-10.35,4.89a1.37,1.37,0,0,1-1.59-.1,21.62,21.62,0,0,1-1.86-1.41,29.78,29.78,0,0,1-7.23-10.31,19.12,19.12,0,0,1-1.27-8.33,10.92,10.92,0,0,1,1-3.28c.56-1.36,1.22-2.69,1.88-4a11.58,11.58,0,0,1,3.12-3.6c4.57-3.83,10-5.74,15.69-7a20.09,20.09,0,0,1,14,1.81,18.12,18.12,0,0,1,5.82,4.67c.72.89,1.46,1.78,2.26,2.61a8.18,8.18,0,0,1,2,4.41,1.91,1.91,0,0,1-.49,1.81c-1.69,1.79-3.34,3.62-5.06,5.37-1.44,1.47-3,2.84-4.45,4.26a4.28,4.28,0,0,0-.49.55c-.6.73-.64.94-.14,1.75,1,1.54,2,3,2.91,4.58q3.24,5.16,6.45,10.35C259.79,202.1,260,202.63,260.33,203.23Z"/><path class="cls-3" d="M372.56,92.26a15.76,15.76,0,0,1,.84-2c1.07-1.79,2.23-3.55,3.33-5.33a8.86,8.86,0,0,1,3.91-3c.85-.43,1.72-.81,2.57-1.22a7.55,7.55,0,0,1,4.8-.65,8.05,8.05,0,0,1,6.11,4.29,43.23,43.23,0,0,1,2.65,7.7c.21.75.37,1.53.58,2.28a11.9,11.9,0,0,1,.3,4.37,59.51,59.51,0,0,1-.88,6c-3.3-.63-6.44-1.63-9.75-2.42a104.38,104.38,0,0,1-6.38,15.58,13.47,13.47,0,0,1-4.18-2.27c.22-.6.47-1.2.67-1.83.7-2.24,1.43-4.49,2.06-6.76.5-1.82.86-3.69,1.32-5.54a2.89,2.89,0,0,0-1.12-3.2c-1.83-1.53-3.61-3.13-5.4-4.71C373.52,93.16,373.07,92.73,372.56,92.26Z"/><path class="cls-3" d="M229.27,279.5c-.24-.63-.61-1.6-1-2.57a.75.75,0,0,1,0-.39,12.33,12.33,0,0,1,1.18-2.92,4.1,4.1,0,0,1,.59-.73,11.14,11.14,0,0,1,2.41-2.08,1.29,1.29,0,0,1,.76-.23,1.76,1.76,0,0,0,.45-.07,20.33,20.33,0,0,1,3.57-.4,2.55,2.55,0,0,1,1.58.55,11.21,11.21,0,0,1,2.56,2.63,8.41,8.41,0,0,1,1.27,2.67,1.1,1.1,0,0,1,.05.4,10.19,10.19,0,0,1-.57,2.08,11.15,11.15,0,0,1-.83,1.79,16.86,16.86,0,0,1-2.58,2.76,2.33,2.33,0,0,1-1.61.66c-.46,0-.93.05-1.39.06a3.16,3.16,0,0,1-.76-.09c-1-.26-1.91-.55-2.86-.82a1.69,1.69,0,0,1-.87-.52A13.69,13.69,0,0,1,229.27,279.5Z"/><path class="cls-3" d="M327.69,179.19c0,2.95.34,5,.05,6.95a49.78,49.78,0,0,1-7,18.41,10,10,0,0,1-6.14,4.75C313.06,202.5,320,186.15,327.69,179.19Z"/><path class="cls-3" d="M304.52,88.13a32.24,32.24,0,0,1-2.22-4,32.59,32.59,0,0,1-1.77-12.78,6.56,6.56,0,0,1,2-4.66C305.57,70.13,306.76,81.7,304.52,88.13Z"/><path class="cls-3" d="M329,153.5c-3.6,11.94-10,20.77-18.12,28.84C309.48,174.65,319.21,158.85,329,153.5Z"/><path class="cls-3" d="M271.55,189.59c1.05-12.42,2.41-23.51,11.53-32.41C283.67,169.54,279.46,179.64,271.55,189.59Z"/><path class="cls-3" d="M334.13,96.24A55,55,0,0,1,313.68,119C314.54,109.24,324.05,98.66,334.13,96.24Z"/><path class="cls-3" d="M330.59,118.85c-1,11.58-4.17,21.3-10.46,30.32C318.21,143,324.12,125.41,330.59,118.85Z"/><path class="cls-3" d="M271.69,117.4c-2-10.7.33-19.54,6.7-27.36C280.29,94.56,276.5,111,271.69,117.4Z"/><path class="cls-3" d="M299.67,125.89c-2.89-9.9,1.26-18.84,3.52-28.32,1.49,2.61,2.18,9.18,1.38,14.65C303.87,117,302.79,121.77,299.67,125.89Z"/><path class="cls-3" d="M269.3,162.92c-3-10.7-4.65-21.45-1.3-32.42C270.15,141.23,272,152,269.3,162.92Z"/><path class="cls-3" d="M336,165c4.07-8.23,8.82-15.75,19.26-17.79C350.86,155.7,343.93,160.84,336,165Z"/><path class="cls-3" d="M304.89,156.06c.9,6.78-8.35,17.48-15.94,23.86C293.09,170.52,295.81,161.47,304.89,156.06Z"/><path class="cls-3" d="M306.67,128.41c-3,7.34-13,17.79-19.08,19.86C291.89,139.43,296.5,131.63,306.67,128.41Z"/><path class="cls-3" d="M283.36,204.93c4.53-7.22,7.11-15,14.75-19.12C297.5,193.61,291,202.31,283.36,204.93Z"/><path class="cls-3" d="M281.78,137.5c-1-8-.47-15,2.45-22.35C287.39,121.35,286.4,130.85,281.78,137.5Z"/><path class="cls-3" d="M336.9,200c-1.14,8-3.56,14.62-8.32,20.89C327.18,214.05,330.68,205.15,336.9,200Z"/><path class="cls-3" d="M339.23,187.63c2.38-6.92,6.19-12.55,12.86-15.82C350.37,179.16,345.17,183.73,339.23,187.63Z"/><path class="cls-3" d="M309.88,77.21c1.17-8.72,4.33-16.27,11.42-21.71C321,64.57,316,71.2,309.88,77.21Z"/><path class="cls-3" d="M289.68,103.72c-1.44-6.86-3.32-13.66-1.44-21C292.21,86.53,292.84,95.52,289.68,103.72Z"/><path class="cls-3" d="M323.3,235c-4.08-5.7-8.54-11.18-9.76-18.67C318.7,218.27,322.9,226.25,323.3,235Z"/><path class="cls-3" d="M311.68,96.24c1.89-6.69,3.69-13.47,9.43-19.23C321.25,85.56,317.64,91.44,311.68,96.24Z"/><path class="cls-3" d="M329.52,365.18c1.26,5,2.45,9.74,3.63,14.43.18.73-20.83,1.25-22.29,1.22-5.91-.1-12.17.12-18-.38A105.31,105.31,0,0,1,294,367.89s-15-9.88-20-12.56c-3.72-2-6.94-4.93-10.63-7-6-3.37-11.68-7.21-17.66-10.55-12.26-6.83-24.78-13.68-36.45-21.45-7.63-5.08-16.6-10.39-22.27-17.59,3.59-1.93,10.1-1.33,14.16-1.69,5-.45,10.08-.84,15.12-1.23,22.29-1.73,44.61-3.16,66.94-4.14,8.08-.36,16.34-1,24.42-.5,15.14,1,54.75,1.59,69.86,2.79,13.35,1.07,26.68,2.38,40,3.6q11.58,1.05,23.15,2.13a6.85,6.85,0,0,1,3,.88c-.77.56-1.52,1.13-2.31,1.67-13,8.94-26.13,17.57-39,26.67a231.85,231.85,0,0,1-46.12,25.73c-7.63,3.12-15.37,6-23.06,9C332,364.08,330.89,364.6,329.52,365.18Z"/><path class="cls-3" d="M226.12,135.07a20.51,20.51,0,0,0,2.42,4,2.75,2.75,0,0,0,1.2.9c.86.34,1.71.68,2.56,1.05a12.82,12.82,0,0,0,5.79,1.11,2.86,2.86,0,0,0,1.39-.27,34.7,34.7,0,0,0,3.31-2.47,12.3,12.3,0,0,0,2.71-2.91,20.46,20.46,0,0,0,2.22-5,2,2,0,0,0,0-.91,16.12,16.12,0,0,0-1.91-5,14.5,14.5,0,0,0-4.18-4.67,2.68,2.68,0,0,0-1.53-.56c-.63,0-1.26-.09-1.89-.08-1.45,0-2.9.19-4.34.15a4.77,4.77,0,0,0-2.52.75,7.74,7.74,0,0,0-.68.42,14.74,14.74,0,0,0-3.58,3,15.85,15.85,0,0,0-2.43,4.53,1.31,1.31,0,0,0-.09.7A25.16,25.16,0,0,0,226.12,135.07Zm25.95-16.24a20.07,20.07,0,0,1,1.57,5.42,36.53,36.53,0,0,1,.47,7.16,16.58,16.58,0,0,1-1.29,5.7,9.43,9.43,0,0,1-2.07,2.93c-1.35,1.35-2.71,2.7-4.15,4a17.67,17.67,0,0,1-5.72,3.22,37,37,0,0,1-3.53,1.11,8.76,8.76,0,0,1-4.65-.27c-1.14-.33-2.25-.74-3.39-1.08a7.62,7.62,0,0,1-2.92-2c-1.19-1.09-2.38-2.2-3.47-3.4a16.06,16.06,0,0,1-3.32-5.74,55.41,55.41,0,0,1-2.68-19.67,40.19,40.19,0,0,1,2.16-11.53,10.5,10.5,0,0,1,1.54-2.78c.25-.36.52-.7.75-1.07a4.48,4.48,0,0,1,4.93-2.14,32.76,32.76,0,0,1,9.32,3.14,22.27,22.27,0,0,1,5.23,3.88c2.08,2.06,4.2,4.07,6.25,6.16a22.18,22.18,0,0,1,4.43,5.8C251.72,118,251.89,118.44,252.07,118.83Z"/><path class="cls-3" d="M287.54,240.11l2.66-1a6.66,6.66,0,0,0-2.61-2.69l-1.83,1.08Zm-.87-17.26-3.93-.64.73,3.08,3.33.23Zm15.81,15.63c-.39-.56-.62-.94-.9-1.3-1.42-1.81-1.43-1.81-3.74-1.46-.58.08-1.16.17-1.73.28-.38.08-.75.2-1.35.36,1.38,1.1,2.54,2,3.73,2.94a1.07,1.07,0,0,0,.8.15C300.29,239.18,301.27,238.85,302.48,238.48Zm2.48,21c.55-.17,1.19-.34,1.8-.58a1.15,1.15,0,0,0,.6-.55c.41-.91.76-1.85,1.13-2.78a1.08,1.08,0,0,0-.43-1.41,9.29,9.29,0,0,0-.85-.53,2.24,2.24,0,0,0-2.81.69c-.5,1-.82,2-1.22,3l1.56,2.06S304.82,259.43,305,259.49Zm-.15,12.38a34.39,34.39,0,0,1-6.9,3.3,2,2,0,0,1-1.43-.13,30.26,30.26,0,0,1-2.82-1.62c-.5-.31-.92-.75-1.43-1a4.22,4.22,0,0,1-2.22-3.15c-.54-2.4-1.21-4.79-1.67-7.21a27.65,27.65,0,0,0-3.36-9.39c-1.25-2-2.5-4.07-3.81-6.06a6.24,6.24,0,0,0-1.45-1.54,99.88,99.88,0,0,1-11.53-10.42c-1-1-2.11-2-3.19-3a3.6,3.6,0,0,1-1.14-1.9,34.9,34.9,0,0,1-.3-12.48,1.4,1.4,0,0,1,.37-.76c.77-.76,1.57-1.5,2.4-2.2a1.62,1.62,0,0,1,.92-.29c3.35-.11,6.69-.17,10-.28a20.24,20.24,0,0,1,8.86,2q6.72,2.92,13.41,5.95A12.56,12.56,0,0,1,301.8,223a66.26,66.26,0,0,1,8.89,8.27,22.26,22.26,0,0,1,3.2,5.36c.38.75.67,1.55,1.1,2.26a7,7,0,0,1,1,4.18c-.27,4.72-.43,9.44-.67,14.16a9.52,9.52,0,0,1-1.58,3.92,34.92,34.92,0,0,1-5.61,7.52C307,269.85,306.08,271.23,304.81,271.87Z"/><path class="cls-3" d="M343.13,268c-.89.74-.8,1.77-.86,2.74,0,.21.21.44.33.65l.77,1.27c.07.13.1.32.21.38,1.43.73,2.87,1.46,4.57,1.17a4.61,4.61,0,0,0,2.2-2c0-.11.08-.27,0-.35-.82-1.25-.84-3.07-2.6-3.66a.66.66,0,0,1-.33-.29c-.57-1-.95-1.14-2.08-.94a17.32,17.32,0,0,1-1.79.13C343.41,267.42,343.36,267.81,343.13,268Zm12.71-8.71c-1.74-3.14-3.75-6.09-6.87-8a14.9,14.9,0,0,0-2.93-1.11c-.93-.33-1.88-.62-2.8-1a.42.42,0,0,1-.2-.32c-1.19-.15-2.25-.24-3.29-.44s-2.09-.63-3.15-.74a16,16,0,0,0-3.08.18c-.19,0-.36.23-.61.4l3,1.11c2.7,1,5.4,2,8.09,3a7.41,7.41,0,0,1,1.2.66,28.29,28.29,0,0,1,3.4,2.15c.92.77,1.9,1.46,2.77,2.27,1.79,1.7,3.52,3.45,5.27,5.18l.36-.16A23.57,23.57,0,0,0,355.84,259.29ZM437,189.46c-2.16.58-4.31,1.19-6.47,1.73s-4.23,1-6.33,1.48c-1.88.46-3.76.92-5.61,1.46a29.58,29.58,0,0,0-6.3,2.54,21.5,21.5,0,0,0-5.06,3.53c-1.69,1.71-3.61,3.2-5.26,5a28.21,28.21,0,0,0-2.55,3.7c-.55.84-1.17,1.64-1.65,2.52-1.53,2.76-3,5.55-4.51,8.34a40,40,0,0,0-2.14,4.3c-.86,2.29-1.53,4.65-2.29,7q-.75,2.27-1.52,4.51c-.62,1.87-1.23,3.75-1.87,5.61-.29.85-.64,1.67-1,2.51-1,2.54-1.95,5.1-3,7.63a45.46,45.46,0,0,1-2.06,4.68c-1.52,2.79-2.68,5.81-5.06,8.07-2.06,2-4,4-6.1,6A28.85,28.85,0,0,1,365,272.4a8,8,0,0,1-1.77.84c-2.44.86-4.89,1.71-7.35,2.52-2.29.75-4.6,1.46-6.91,2.15s-4.66,1.32-7,2.06-4.66,1.63-7,2.43c-2.49.84-5,1.64-7.47,2.49-.85.29-1.1.19-1.25-.67-.39-2.1-.9-4.18-1.12-6.3a55.25,55.25,0,0,1-.29-7.16,30,30,0,0,1,.74-5c.38-1.88.87-3.74,1.33-5.6.32-1.29.67-2.57,1-3.84.59-2.11,1.17-4.21,1.8-6.31.46-1.52.93-3.05,1.5-4.54.78-2,1.61-4.07,2.52-6a27,27,0,0,1,1.93-3.27c1.85-2.88,3.62-5.82,5.64-8.58a42.64,42.64,0,0,1,8-8.69c1.26-1,2.41-2.11,3.6-3.18l5.19-4.7c.27-.24.51-.52.8-.74,2.9-2.21,5.8-4.4,8.71-6.6,1.17-.89,2.32-1.82,3.56-2.62,2.23-1.45,4.49-2.83,6.77-4.19,2-1.19,4-2.41,6.07-3.46,2.9-1.46,5.85-2.83,8.82-4.14,1.63-.72,3.35-1.24,5-1.89a10,10,0,0,0,3.88-2,21.08,21.08,0,0,0,4.94-8c.76-2.2,1.71-4.34,2.45-6.55.8-2.38,1.51-4.8,2.15-7.22s1.18-5,1.84-7.83c2.85,8.72,5.29,17.27,4.52,26.4,7,1.16,13.22,4.13,19.61,7C437.14,189.31,437.06,189.43,437,189.46Z"/><path class="cls-3" d="M437,248.21c-.14-.43-.24-.87-.38-1.3A9.56,9.56,0,0,0,434,242.7c-2.78-2.65-8.13-7.85-9.43-8.69.3-2,4-15.15,4-15.74-.53-.2-1.87-.63-2.34-.81-.12.25-.2.43-.27.6-.8,2-4.22,13.18-4.77,13.33.42-4,.88-6.29,1.52-10.19s1.33-7.89,2-11.89l-2.68-1c-.18,1-.35,1.91-.5,2.82s-.29,1.78-.44,2.67-.35,1.83-.52,2.74-.36,1.83-.53,2.75-.31,1.77-.48,2.66a10.35,10.35,0,0,1-.6,2.63c-.31-4.75-.08-9.49,0-14.25l-3.45-.31c0,2.12.05,4.12.05,6.12s0,4.06,0,6.09-.13,5.91-.24,5.92l-4.55-16.29a12.22,12.22,0,0,0-2.77,1.57l4,18.45c-1.47.45-2.92.9-4.38,1.32-2.37.69-4.82,1.09-7,2.51-1.93,1.28-3.93,2.42-5.26,4.42a5.69,5.69,0,0,0-1.13,2.94,29.87,29.87,0,0,0,.39,6.74,10.89,10.89,0,0,0,1.49,4.1c.7,1.06,1.42,2.11,2.1,3.18a12,12,0,0,0,3.75,3.6c1.37.88,2.81,1.67,4.24,2.45,1,.54,2,1,3.08,1.55a9.65,9.65,0,0,1-.39,1.45c-.54,1.27-1.07,2.55-1.72,3.77a13.08,13.08,0,0,1-4.09,5.09c-.6.41-1.16.9-1.78,1.28a7.93,7.93,0,0,1-1.73.85c-1.54.46-3.12.81-4.65,1.29A14.45,14.45,0,0,1,392,279q-5.69.49-11.37,1a4.34,4.34,0,0,0-1.09.15c-2,.67-3.93,1.36-5.89,2.05l0,.17.68.09c2.83.3,5.66.62,8.49.89,2.36.22,4.72.43,7.08.51a22.94,22.94,0,0,0,4.3-.24,43.54,43.54,0,0,0,6.63-1.69,11.43,11.43,0,0,0,2.47-1.06,13.47,13.47,0,0,0,4.7-4.52,102.23,102.23,0,0,0,5.51-9.79c.17-.35.37-.68.55-1,2.18.25,4.28.5,6.38.73a2.61,2.61,0,0,0,1.08-.05,54.76,54.76,0,0,0,7.16-3,7.84,7.84,0,0,0,3.35-2.78c.18-.28.49-.73.69-1a32.73,32.73,0,0,0,4-6.9C437.61,250.25,437.76,250.72,437,248.21Z"/><path class="cls-3" d="M396.38,166.45c.15-1.46.35-2.57-.51-4a11.63,11.63,0,0,1-.57-1.35,6.44,6.44,0,0,0-.55-1.08,24.33,24.33,0,0,0-5.8-6.09,10,10,0,0,0-5.33-1.95,11.54,11.54,0,0,0-3.79.37c-.59.18-1.2.31-1.8.47a16.37,16.37,0,0,0-8.79,5.1c-.85,1-1.64,2.09-2.43,3.16a3.91,3.91,0,0,0-.71,1.79,23.8,23.8,0,0,0-.12,4.62,12.85,12.85,0,0,0,.51,3.37,10.49,10.49,0,0,0,4.57,5.73,29.38,29.38,0,0,0,7.79,3.61,5.77,5.77,0,0,0,3.44,0,27.14,27.14,0,0,0,3.94-1.51,19.38,19.38,0,0,0,6.07-4.27A16.82,16.82,0,0,0,396.38,166.45Zm-33.07-5.77a17.5,17.5,0,0,1,2.24-6.76,16.35,16.35,0,0,1,4.78-4.81,12.53,12.53,0,0,1,5.13-1.68c1.79-.29,3.59-.53,5.4-.68a32.74,32.74,0,0,1,3.57,0,2.41,2.41,0,0,1,.86.24l4.3,1.93a15.64,15.64,0,0,1,3.94,3.11,9,9,0,0,1,1.35,1.41,22,22,0,0,1,1.82,3,17.79,17.79,0,0,1,1.87,8,14.72,14.72,0,0,1-3.15,9.13,30.78,30.78,0,0,1-5.65,5.23,16.65,16.65,0,0,1-5.85,2.73,12.21,12.21,0,0,1-7.06-.1,34.63,34.63,0,0,1-3.73-1.37,26,26,0,0,1-4.42-3,14.31,14.31,0,0,1-3.55-4.09,11.37,11.37,0,0,1-1.1-2.88A24,24,0,0,1,363.31,160.68Z"/><path class="cls-3" d="M390.3,170.17a4.64,4.64,0,0,0-1.15-2.1,6.27,6.27,0,0,0-2.09-1.48,2.25,2.25,0,0,0-2.67.91,1.22,1.22,0,0,0,.49,1.58,6.43,6.43,0,0,0,4.36,1.21Z"/><path class="cls-3" d="M389.21,171.74l-.58-.24a7.36,7.36,0,0,0-2-.54,2.65,2.65,0,0,0-1.87.65.7.7,0,0,0-.17.29,1.58,1.58,0,0,0-.09.31,1.16,1.16,0,0,0,1,1.47,2.3,2.3,0,0,0,1.56-.27,13,13,0,0,0,2.07-1.55A.64.64,0,0,0,389.21,171.74Z"/><path class="cls-3" d="M390.92,168.52a5.42,5.42,0,0,0,.28-.67c.12-.56.23-1.13.32-1.7a3.05,3.05,0,0,0-.25-1.43,1.41,1.41,0,0,0-.72-.86,1.48,1.48,0,0,1-.27-.16c-.75-.45-1-.23-1.48.25a.92.92,0,0,0-.14,1.05,7.46,7.46,0,0,0,1.44,2.54C390.36,167.83,390.61,168.14,390.92,168.52Z"/><path class="cls-3" d="M372.62,170.31l.43-.41a7.26,7.26,0,0,0,1.22-1.54,2.48,2.48,0,0,0,.15-1.85.91.91,0,0,0-.19-.26,1.3,1.3,0,0,0-.23-.18,1.09,1.09,0,0,0-1.66.34,2.07,2.07,0,0,0-.35,1.43,12,12,0,0,0,.55,2.37Z"/><path class="cls-3" d="M373.27,171.52c.59-.1,1.19-.18,1.78-.31a11.62,11.62,0,0,0,2.15-.74,1.57,1.57,0,0,0,1-1.72A7.38,7.38,0,0,0,378,168a.68.68,0,0,0-.64-.52,1.41,1.41,0,0,0-.46,0,3.83,3.83,0,0,0-2.08,1.29,16.09,16.09,0,0,0-1.59,2.64Z"/><path class="cls-3" d="M374.9,172.48a3.71,3.71,0,0,0,.53.44c.48.27,1,.52,1.46.76a2.91,2.91,0,0,0,1.37.16,1.32,1.32,0,0,0,1-.42l.22-.2c.62-.56.48-.81.18-1.41a.85.85,0,0,0-.91-.42A7.27,7.27,0,0,0,376,172C375.68,172.17,375.33,172.3,374.9,172.48Z"/><path class="cls-3" d="M380.59,157.09c-.19.28-.32.45-.42.63a8.91,8.91,0,0,0-1,2.81,3.57,3.57,0,0,0,.85,3,1.22,1.22,0,0,0,1.33.41,1.45,1.45,0,0,0,1.06-1.06,2.86,2.86,0,0,0,.07-.83,7.46,7.46,0,0,0-.66-3A18.87,18.87,0,0,0,380.59,157.09Z"/><path class="cls-3" d="M381.84,157a1.32,1.32,0,0,0,0,.29c.33.69.65,1.37,1,2a4.12,4.12,0,0,0,.43.6,2.86,2.86,0,0,0,2.3.94.52.52,0,0,0,.5-.25c.11-.16.23-.32.33-.49a1.34,1.34,0,0,0,0-1.43,3.24,3.24,0,0,0-2.84-1.64C383,157,382.45,157.06,381.84,157Z"/><path class="cls-3" d="M379.58,156.94a4.46,4.46,0,0,0-.8,0c-.63.09-1.27.21-1.9.34a3.52,3.52,0,0,0-1.38.84,1.6,1.6,0,0,0-.6,1.09c0,.12,0,.23,0,.34-.18,1,.14,1.09.85,1.43a1,1,0,0,0,1.14-.27,8.44,8.44,0,0,0,2.05-2.51C379.09,157.79,379.32,157.41,379.58,156.94Z"/><path class="cls-3" d="M362.84,114.05a8,8,0,0,0-1.95-5.78,13.47,13.47,0,0,0-3.34-3.09,7.71,7.71,0,0,0-5-1.2,8.54,8.54,0,0,0-5.64,2.92,15.5,15.5,0,0,0-2.57,3.45,13.6,13.6,0,0,1-.93,1.44A16.46,16.46,0,0,0,340.24,122a7.93,7.93,0,0,0,1.54,5,41.89,41.89,0,0,0,3.24,3.43,5,5,0,0,0,1.85,1.15,10.17,10.17,0,0,0,4.63.57,8.69,8.69,0,0,0,5.78-2.82c.49-.54.88-1.17,1.34-1.74a20,20,0,0,0,2.68-4.83A22.49,22.49,0,0,0,362.84,114.05Zm-7.63-12.31a5.21,5.21,0,0,1,3.58.84c.49.29,1,.53,1.52.78a11.86,11.86,0,0,1,4.43,3.86,23,23,0,0,1,2,3.23,11.8,11.8,0,0,1,1.19,4c.11,1,.21,1.95.29,2.92a4.84,4.84,0,0,1,0,1.14,22.39,22.39,0,0,1-2.21,7c-.49.93-1,1.88-1.48,2.81a10.1,10.1,0,0,1-3.46,3.71,17.4,17.4,0,0,1-6.16,2.48,9.1,9.1,0,0,1-5.14-.26c-.55-.21-1.16-.31-1.7-.54-.75-.31-1.47-.68-2.2-1-.39-.2-.74-.46-1.13-.65a8.67,8.67,0,0,1-3.23-2.68,10.85,10.85,0,0,1-1.87-3.58c-.25-.86-.59-1.68-.86-2.54a8.18,8.18,0,0,1,.2-5.35c.35-1,.63-2,1-2.94a26,26,0,0,1,2.79-5.23,46.65,46.65,0,0,1,3.45-4.22,9.47,9.47,0,0,1,4-2.69A12.62,12.62,0,0,1,355.21,101.74Z"/><path class="cls-3" d="M349.85,109.93a4.2,4.2,0,0,1,1.83,1.24,5.93,5.93,0,0,1,1.18,2,2.09,2.09,0,0,1-1.07,2.38,1.13,1.13,0,0,1-1.42-.6,5.9,5.9,0,0,1-.72-4.11C349.7,110.58,349.77,110.28,349.85,109.93Z"/><path class="cls-3" d="M348.31,110.79c.06.19.12.37.17.55a7,7,0,0,1,.32,1.91,2.46,2.46,0,0,1-.76,1.66.7.7,0,0,1-.29.13,1.4,1.4,0,0,1-.28.06A1.08,1.08,0,0,1,346.2,114a2.11,2.11,0,0,1,.38-1.4,11.8,11.8,0,0,1,1.61-1.77A.35.35,0,0,1,348.31,110.79Z"/><path class="cls-3" d="M351.43,109.51a3,3,0,0,1,.63-.2c.53-.07,1.06-.12,1.6-.15a2.85,2.85,0,0,1,1.29.36,1.28,1.28,0,0,1,.72.74c0,.09.08.17.13.26.35.73.13.9-.36,1.33a.84.84,0,0,1-1,0,7,7,0,0,1-2.21-1.54C352,110.07,351.74,109.83,351.43,109.51Z"/><path class="cls-3" d="M345.44,125l.5-.22a6.32,6.32,0,0,1,1.75-.48,2.29,2.29,0,0,1,1.63.54.62.62,0,0,1,.15.25,1.53,1.53,0,0,1,.08.26,1,1,0,0,1-.89,1.29,2,2,0,0,1-1.35-.21,11.24,11.24,0,0,1-1.81-1.33A.64.64,0,0,1,345.44,125Z"/><path class="cls-3" d="M344.65,124c.3-.47.58-1,.9-1.4A11,11,0,0,1,347,121a1.44,1.44,0,0,1,1.81-.2,6.46,6.46,0,0,1,.59.44.64.64,0,0,1,.21.74,1.11,1.11,0,0,1-.2.37,3.57,3.57,0,0,1-1.84,1.31,15,15,0,0,1-2.82.39Z"/><path class="cls-3" d="M344.42,122.27a3.23,3.23,0,0,1-.18-.6c-.06-.51-.1-1-.13-1.52a2.82,2.82,0,0,1,.36-1.23,1.28,1.28,0,0,1,.71-.68l.25-.11c.7-.33.87-.11,1.27.36a.8.8,0,0,1,0,.92,6.74,6.74,0,0,1-1.5,2.09C345,121.72,344.72,122,344.42,122.27Z"/><path class="cls-3" d="M358,121.33a5.94,5.94,0,0,1-.69.15,8.05,8.05,0,0,1-2.77,0,3.33,3.33,0,0,1-2.34-1.73,1.12,1.12,0,0,1,.08-1.28,1.31,1.31,0,0,1,1.26-.57,2.49,2.49,0,0,1,.74.21,6.79,6.79,0,0,1,2.4,1.55A19.33,19.33,0,0,1,358,121.33Z"/><path class="cls-3" d="M358.43,120.26a1,1,0,0,1-.24-.13c-.49-.5-1-1-1.44-1.52a2.7,2.7,0,0,1-.38-.57,2.63,2.63,0,0,1-.07-2.29.51.51,0,0,1,.38-.36c.18,0,.35-.09.53-.12a1.23,1.23,0,0,1,1.23.46,3,3,0,0,1,.5,3C358.82,119.24,358.61,119.73,358.43,120.26Z"/><path class="cls-3" d="M357.78,122.25a6.21,6.21,0,0,1-.24.7c-.29.51-.6,1-.92,1.53a3.17,3.17,0,0,1-1.17.91,1.39,1.39,0,0,1-1.14.16l-.32-.06c-.88-.16-.89-.47-1-1.2a1,1,0,0,1,.61-.9,7.7,7.7,0,0,1,2.84-1C356.88,122.4,357.28,122.32,357.78,122.25Z"/><path class="cls-3" d="M400.37,146.54a15.37,15.37,0,0,0,2.35-.27,10.57,10.57,0,0,0,2.73-1,16.48,16.48,0,0,0,3.29-2.37,9.52,9.52,0,0,0,2.45-4.08,5.57,5.57,0,0,0-.29-4.72,3.08,3.08,0,0,1-.29-.67,7.8,7.8,0,0,0-1.77-2.81c-.69-.76-1.43-1.49-2.19-2.18a13.76,13.76,0,0,0-1.63-1.21c-.28-.2-.63-.31-.92-.52a13.29,13.29,0,0,0-5.46-2.22,16.31,16.31,0,0,0-5.15-.53,10.25,10.25,0,0,0-2.78.56,6.47,6.47,0,0,0-2.5,2.16,8.64,8.64,0,0,0-1.41,4c-.12.86-.14,1.74-.28,2.59a3.5,3.5,0,0,0,.24,2c.52,1.16,1,2.33,1.63,3.45a14.85,14.85,0,0,0,3.35,4.38,28,28,0,0,0,3.49,2.24.11.11,0,0,0,.08,0l1.86.57A10.3,10.3,0,0,0,400.37,146.54ZM397,119.13c1.57.16,3.15.25,4.7.49a6.75,6.75,0,0,1,1.87.78c.73.36,1.41.82,2.15,1.15a19.46,19.46,0,0,1,5.15,3.66,3.57,3.57,0,0,1,.62.94,13.91,13.91,0,0,1,1.36,4.42,42.24,42.24,0,0,1,.44,4.78,10.31,10.31,0,0,1-.31,3.71,10.44,10.44,0,0,1-3,5.11,29.42,29.42,0,0,1-4.68,3.25A3.73,3.73,0,0,1,403,148c-1.57-.15-3.15-.2-4.71-.4a12,12,0,0,1-5.54-2.44,37.82,37.82,0,0,1-4.59-3.88,9.68,9.68,0,0,1-3-6.6,22.51,22.51,0,0,1,1.26-7.92,26,26,0,0,1,2.52-4.72,1.65,1.65,0,0,1,.47-.44,11.46,11.46,0,0,1,6.75-2.31l.82,0Z"/><path class="cls-3" d="M402.59,142.76a3.8,3.8,0,0,1-1.59-1.2,5.4,5.4,0,0,1-1-1.91,1.88,1.88,0,0,1,1.08-2.09,1,1,0,0,1,1.25.6,5.42,5.42,0,0,1,.46,3.75C402.75,142.18,402.67,142.45,402.59,142.76Z"/><path class="cls-3" d="M404,142.06c0-.18-.09-.34-.13-.51a6.3,6.3,0,0,1-.2-1.73,2.2,2.2,0,0,1,.76-1.46.54.54,0,0,1,.27-.11,1.09,1.09,0,0,1,.26,0,1,1,0,0,1,1.09,1,1.93,1.93,0,0,1-.41,1.24,10.53,10.53,0,0,1-1.54,1.52S404.07,142,404,142.06Z"/><path class="cls-3" d="M401.15,143.07a5.59,5.59,0,0,1-.58.15c-.48,0-1,.05-1.45.06a2.59,2.59,0,0,1-1.14-.39,1.11,1.11,0,0,1-.62-.7l-.1-.24c-.28-.67-.08-.82.39-1.18a.75.75,0,0,1,.88,0,6.14,6.14,0,0,1,1.91,1.49C400.65,142.53,400.88,142.77,401.15,143.07Z"/><path class="cls-3" d="M392,139.34l.48-.26a6.6,6.6,0,0,1,1.68-.66,2.26,2.26,0,0,1,1.66.38c.08,0,.13.15.18.24a1.45,1.45,0,0,1,.1.25,1,1,0,0,1-.75,1.36,2,2,0,0,1-1.36-.08,11.94,11.94,0,0,1-1.92-1.13Z"/><path class="cls-3" d="M391.14,138.44c.25-.49.47-1,.75-1.47a10.79,10.79,0,0,1,1.24-1.69,1.44,1.44,0,0,1,1.77-.39c.22.11.42.25.63.38a.62.62,0,0,1,.28.71,1,1,0,0,1-.16.39,3.58,3.58,0,0,1-1.69,1.48,15.53,15.53,0,0,1-2.75.67Z"/><path class="cls-3" d="M390.73,136.75a3.83,3.83,0,0,1-.23-.58c-.11-.5-.2-1-.28-1.5a2.55,2.55,0,0,1,.24-1.24,1.21,1.21,0,0,1,.63-.75l.24-.14c.66-.39.84-.2,1.29.23a.82.82,0,0,1,.11.92,6.44,6.44,0,0,1-1.27,2.21C391.22,136.15,391,136.42,390.73,136.75Z"/><path class="cls-3" d="M401.45,129.51c0,.31.09.5.1.7a8.16,8.16,0,0,1-.24,2.74,3.29,3.29,0,0,1-1.89,2.19,1.11,1.11,0,0,1-1.27-.18,1.33,1.33,0,0,1-.47-1.29A3.13,3.13,0,0,1,398,133a6.86,6.86,0,0,1,1.73-2.26A19.41,19.41,0,0,1,401.45,129.51Z"/><path class="cls-3" d="M400.43,129a1.13,1.13,0,0,1-.15.23c-.54.44-1.07.89-1.63,1.31a3.08,3.08,0,0,1-.59.33,2.61,2.61,0,0,1-2.28-.11.52.52,0,0,1-.32-.41c0-.18-.07-.36-.08-.54a1.21,1.21,0,0,1,.56-1.18,3,3,0,0,1,3-.26C399.45,128.51,399.91,128.76,400.43,129Z"/><path class="cls-3" d="M402.35,129.79a3.94,3.94,0,0,1,.67.29c.49.33,1,.67,1.44,1a3.06,3.06,0,0,1,.82,1.24,1.38,1.38,0,0,1,.07,1.14,2.81,2.81,0,0,0-.08.31c-.24.86-.55.85-1.27.85a.93.93,0,0,1-.84-.67,7.8,7.8,0,0,1-.73-2.89C402.43,130.68,402.38,130.28,402.35,129.79Z"/><rect class="cls-3" x="299" y="547" width="33" height="5"/><line class="cls-4" x1="618.13" y1="13.37" x2="601.87" y2="29.63"/><line class="cls-4" x1="618.13" y1="29.63" x2="601.87" y2="13.37"/></g></g></svg>