<svg xmlns="http://www.w3.org/2000/svg" viewBox="0 0 1080 1918"><defs><style>.cls-1{fill:#fff;}</style></defs><title>Asset 16</title><g id="Layer_2" data-name="Layer 2"><g id="Design"><path d="M210.27,1548c-1.81-10.64-3.68-21.27-5.52-31.9l-.38,0c.13,6,.21,11.9.41,17.85.17,5,.65,10,.67,15,0,6.09-.28,12.18-.54,18.26a31.57,31.57,0,0,1-.61,5c-2,9.51-4.15,19-6,28.5a347.15,347.15,0,0,0-6.32,54.43c-.14,4-.09,8-.13,12.49a7.63,7.63,0,0,0,.71-1.29c3.35-14.33,7-28.59,9.93-43,3-15.08,5.09-30.35,8-45.45A72.58,72.58,0,0,0,211,1554C210.73,1552,210.61,1550,210.27,1548Z"/><path d="M198.66,1540.82c-5.46,15.37-7.06,36.51-4.92,49.51C197,1574.16,201.05,1558.06,198.66,1540.82Z"/><path d="M781.94,771.21l0,.24L785.6,781l5,6.9,6,7.61,8.87,8.79,9.59,4.09,10.25,5.69,11.24,3.16,10.63,1.26L859,822l10.91,3.34,12.44,7.05L894.59,840l10.83,8.35,19.28,13.41,14.77,11.47s16.47,14.08,17.32,14.46,13.83,11.69,13.83,11.69l9,7.88,7.45,2.54,5.59-1.36,5.19-4.4,1.1-5.81,0-.59h0l-1.94-6.3-5.52-3.87-8.65-6.61-9.52-8.66-11.76-11.59-10.28-7.47-11.81-11.2L923.6,828.17,914.18,819l-10.43-12.31-5.93-6.37-4.91-7.14-7.09-14.52-3.28-8-6.08-11.3-6.56-10.12-6.18-6.7L857,737.06,849,730.8l-8.87-2.95-9.21-2.67-11-1-9.73-.17-7.48,2.62-7.22,4-6.18,5-4.63,6.65-4,8.25-.06,10.14,1.13,10.24Zm6.72-17.31,2.13-7,2.89-5.67,4.53-4.8,5.62-4.32,8-1.73,9-.87,8.37,1.33,6.82,3,8.18,4.1,9,5.95,6.69,7.06,6.12,9.26,4.79,9.19,3.43,10.19,5.93,13.6,6.58,9,9.62,10.91,9.91,10.47,10.78,9.27,17.09,16.13,14.63,12.42c7.34,5.67,15.57,12.1,17,13.35,1,1,3.9,3.38,15.05,11.82l11.11,9.2.19,3.41-1.83,2.27-1.79.67-2.69-.17-12-10.46-10.42-7.51-.11-.08L949.89,875l-10.28-8-12.7-9.9-16.73-12.8-11.6-7.79-14-7.61-7.75-4.68-8.92-3.73-16.15-4.08-.21-.05-8.35-1.55-11.71-3.46-10.45-4L814,803.1l-6.33-5-6.81-5.79-4.05-7-4.9-7.39-3.22-9.59-1.32-8.19Z"/><path d="M165.94,1035.19l1.63,2.35,9.76-4,.12,6.69H181l-1.59-11.94C174.73,1030.15,170.5,1032.75,165.94,1035.19Z"/><path d="M814.74,1355.52c-.3-1.79-.48-3.61-.73-5.41a27.54,27.54,0,0,0-.92-5.67c-2.34-6.33-6.9-11-11.91-15.33l-.06-.05a1.62,1.62,0,0,0-2.37,2.16c1.42,2.17,2.83,4.34,4.19,6.55,1.15,1.86,2,3.89,3.06,5.82,1.42,2.63,2,5.71,3.22,8.46l0,.07c.86,5.47,1.65,11,2.47,16.43.28,1.87.55,3.75.86,5.9.41-.39.85-.61,1-.94A30.06,30.06,0,0,0,815,1368c.21-2-.19-4-.16-5.95s.26-3.88.43-6.07C815.3,1356,814.79,1355.82,814.74,1355.52Z"/><path d="M209,128.73c2.31,2.61,4.8,5.06,7.35,7.43a10.62,10.62,0,0,0,2.86,2c-1-1.53-2-3.05-3-4.6-.67-1.07-1.24-2.21-1.95-3.26a27.23,27.23,0,0,0-2.17-2.85c-1.11-1.27-2.32-2.45-3.47-3.7a31.86,31.86,0,0,0-7-5.4c-1.17-.72-2.39-1.35-3.6-2a1,1,0,0,0-.76-.11c.57.64,1.13,1.3,1.72,1.92C202.39,121.68,205.83,125.1,209,128.73Z"/><path d="M143.83,379.28c2.8,3.7,5.19,7.72,7.78,11.54a22.42,22.42,0,0,1,1.46,2.49c.73,1.45,1.88,2.73,2.53,4.22.84,1.94,1.48,4,2.21,6a2.77,2.77,0,0,0,.29.48c1-1,1.9-1.95,2.89-2.85,1.18-1.09,2.42-2.1,3.6-3.18,1.8-1.65,3.55-3.36,5.39-5a2,2,0,0,1,2.15-.69c3.28,1,6.63,1.73,9.94,2.59a1,1,0,0,1,.59.52c.42,1.06.79,2.13,1.18,3.2.17.48.34,1,.51,1.45.91,2.59,1.77,5.19,2.76,7.75.53,1.38-.26,2.24-.9,3.22-.77,1.18-1.49,2.4-2.26,3.59a30.4,30.4,0,0,1-2.19,3.18c-1.23,1.45-2.59,2.79-3.91,4.17a1.81,1.81,0,0,1-2.13.5,16.09,16.09,0,0,0-2.45-.33c-1.49-.27-3-.66-4.46-.89-1.2-.18-2.42-.16-3.62-.29-.86-.1-1.72-.3-2.9-.52.45,1.77.77,3.35,1.26,4.87.82,2.52,1.74,5,2.64,7.51.4,1.12.86,2.22,1.24,3.35.68,2,1.36,4.09,2,6.16.41,1.43.65,2.91,1,4.36a11.83,11.83,0,0,0,.53,1.44c1-.21,1.84-.42,2.69-.56,1.26-.21,2.54-.33,3.8-.56s2.67-.58,4-.83c2.43-.46,4.87-.88,7.3-1.34,1.17-.22,2.33-.47,3.5-.74,2.52-.57,5-1.21,7.55-1.74a75.4,75.4,0,0,0,14.81-4.62c3-1.32,6.13-2.49,9.18-3.77,2.47-1,5-2,7.35-3.2,2.8-1.39,5.52-2.94,8.23-4.51s5.54-3.31,8.26-5c1-.65,2-1.46,3-2.21.13-.1,4.72-6.05,6.37-8a31.42,31.42,0,0,0,4-5.48,23.51,23.51,0,0,0,1.82-6.13,76.47,76.47,0,0,0,1.09-8c.22-2.54.31-5.09.29-7.64a66.39,66.39,0,0,0-.4-7.21c-.25-2.16-.74-4.3-1.19-6.44-.6-2.87-1.19-5.74-1.92-8.58-.57-2.26-1.5-4.43-2-6.7-.76-3.59-2.81-6.53-4.53-9.62-1.33-2.4-2.79-4.74-4.3-7a39.93,39.93,0,0,0-5.15-6.41c-3.22-3.22-6.26-6.68-10.24-8.95-2.59-1.48-5.32-2.71-8-4-2.45-1.17-5.09-2-7.36-3.46-1.94-1.23-3.9-1.26-6-1.31-2.25,0-4.5-.13-6.74-.07a34.78,34.78,0,0,0-5.18.51c-3.39.62-6.75,1.38-10.12,2.07-1.5.3-3,.48-4.49.89a6.15,6.15,0,0,0-1.77,1.22c-.19.14-.3.38-.48.53-2.07,1.78-4.15,3.54-6.22,5.33q-4.06,3.51-8.11,7.05c-1.64,1.43-3.32,2.83-4.92,4.32-2.41,2.25-4.78,4.56-7.14,6.87-1.59,1.55-3.18,3.1-4.69,4.73-1.8,1.94-3.51,4-5.27,5.94-1.22,1.37-2.51,2.68-3.69,4.09-2,2.44-4,4.92-6,7.41-1,1.3-2,2.66-3,4,1.36,1.67,2.68,3.31,4,4.93C140.77,375.71,142.41,377.41,143.83,379.28Z"/><path d="M126,1529a19,19,0,0,0-.84-12c-1.56-3.89.3-8.33-2.26-12.23-.24,1.42-.58,2.84-.72,4.27-.65,6.88-1.67,13.75-1.78,20.64-.16,10.2,2.16,20.15,4.13,30.11a125.31,125.31,0,0,0,3.56,14.95c2.89,8.77,6.19,17.41,9.45,26.06,1.24,3.28,2.85,6.42,4.29,9.63a123.84,123.84,0,0,0-4.62-28.11c-2.65-9.56-6-18.91-9.08-28.35C125.61,1546,123.63,1538,126,1529Z"/><path d="M255.73,568.05a6.3,6.3,0,0,0-3.22-.63,3.74,3.74,0,0,1-2.26-.32,32.33,32.33,0,0,0-14.71-2.87c-3.19.07-6.4.32-9.57.69s-6.27,1-9.4,1.5a8.57,8.57,0,0,0-1.59.67c.65.2,1,.29,1.27.4,2,.73,4,1.55,6.06,2.18,2.42.74,4.91,1.22,7.32,2a20.3,20.3,0,0,0,7.88,1.15,14.43,14.43,0,0,1,3-.13c3.87.54,7.22-.93,10.56-2.53C252.64,569.44,254.18,568.76,255.73,568.05Z"/><path d="M206.11,1366.5a186.71,186.71,0,0,1,.86,22c-.51,12.14-1.75,24.24-2.68,36.36a70.55,70.55,0,0,0,.86,18.72c.21-.81.49-1.61.62-2.44.95-5.72,1.75-11.46,2.81-17.16,2.66-14.24,5.43-28.47,8.15-42.7a69.29,69.29,0,0,0,.68-18.32c-.48-6.33-.87-12.69-.93-19-.09-9.7,2.78-18.93,5-28.24.16-.66.29-1.33.43-2a74.17,74.17,0,0,0-7.33,10.49C207.17,1337.36,205,1351.57,206.11,1366.5Z"/><path d="M765.65,562.86c-.77-2.8-1.67-5.58-2.69-8.29a43.59,43.59,0,0,0-2.5-5.11c-.46-.87-1.18-1.6-1.62-2.48a33.08,33.08,0,0,0-1.79-3c-.22-.33-.43-.67-.66-1-.5-.72-1-1.41-1.6-2.08s-1-1.15-1.49-1.7a43.87,43.87,0,0,0-5.12-4.74c-3.8-3-7.4-6.25-12-7.9-2.45-.88-5-2-7.51-2.1a17.5,17.5,0,0,0-8.83,2.25c-3.67,1.92-6.15,5-8.44,8.38-1.37,2-2.5,4.19-3.89,6.18a9.89,9.89,0,0,0-1.89,5.32c-.15,3.6-.36,7.2-.27,10.79a43.41,43.41,0,0,0,2.8,15.31c1.46,3.56,3.83,6.73,5.79,10.07,0,.06.11.1.16.16l3.88,3.81a30.07,30.07,0,0,0,6.6,5.31,11.55,11.55,0,0,0,1.06.48,34.9,34.9,0,0,0,5.54,2.09,29,29,0,0,0,8,.9,43.28,43.28,0,0,0,11-1.79,25.93,25.93,0,0,0,11.07-7.18c3.31-3.66,5.77-7.64,5-13.08A22,22,0,0,0,765.65,562.86Zm-16.81-12.15c-.27.84-.41,1.38-.62,1.88a23.37,23.37,0,0,1-4,6.63,8.93,8.93,0,0,1-7.37,3.1,3.06,3.06,0,0,1-2.89-2.06,3.81,3.81,0,0,1,.46-3.86,7.84,7.84,0,0,1,1.54-1.48,18.63,18.63,0,0,1,7-3.49A51,51,0,0,1,748.84,550.71Zm-15.72-5.55c.16-.49.28-1,.47-1.46a3.4,3.4,0,0,1,2.84-2.27c3.34-.67,5.6,1,7.71,3.18,1,1,1.87,2.26,2.85,3.47a3,3,0,0,1-.65.39c-1.87.43-3.74.87-5.61,1.24a8.48,8.48,0,0,1-1.87.07c-2.36-.06-4-1.39-5.45-3.18A1.45,1.45,0,0,1,733.12,545.17Zm-19.41,8.41q.53-2.08,1.17-4.12a8.18,8.18,0,0,1,2.27-3,3,3,0,0,1,2.28-.92,7.07,7.07,0,0,0,.81,0c2.1-.16,2.31.57,2.88,2.22a2.32,2.32,0,0,1-.85,2.46,18.09,18.09,0,0,1-5.87,4c-.89.33-1.75.75-2.83,1.22A11,11,0,0,1,713.71,553.58Zm-1.26,6.57c1.23-.93,2.42-1.92,3.7-2.77a28.73,28.73,0,0,1,5.12-2.7,3.93,3.93,0,0,1,4.84,1.29c.41.55.73,1.17,1.08,1.76a1.81,1.81,0,0,1-.19,2.14,3,3,0,0,1-.88.78,9.53,9.53,0,0,1-6,1.57,39.23,39.23,0,0,1-7.63-1.82Zm7.68,10.94a5.37,5.37,0,0,1-3.23-1.93,31.35,31.35,0,0,1-3.32-5.3,1.29,1.29,0,0,1,0-.33l1.49-.06a17.44,17.44,0,0,1,4.94.48,6.29,6.29,0,0,1,3.62,3.07,1.76,1.76,0,0,1,.14.82,4,4,0,0,1-.06.76A2.77,2.77,0,0,1,720.12,571.08Zm9.6,13.08q-1.84-.78-3.63-1.68a7.13,7.13,0,0,1-2.34-2.44,3.3,3.3,0,0,1-.65-2.55c0-.24,0-.49.05-.73.14-2.06.83-2.17,2.42-2.5a2.11,2.11,0,0,1,2.15,1.14,18,18,0,0,1,2.86,6.21c.19.91.46,1.8.75,2.91A9.68,9.68,0,0,1,729.72,584.16Zm7.14-.45c-.5.6-1,1.19-1.61,1.87a11,11,0,0,1-2.43-5.08,15.3,15.3,0,0,1,0-6,5.17,5.17,0,0,1,5.23-3.9,2.86,2.86,0,0,1,2.32,3.1A15.43,15.43,0,0,1,736.86,583.72Zm11.26-2.56a5.28,5.28,0,0,1-2.55,2.62,28.81,28.81,0,0,1-5.64,1.88,1.17,1.17,0,0,1-.31,0c.11-.5.2-1,.31-1.44a18.08,18.08,0,0,1,1.66-4.62,6,6,0,0,1,3.68-2.72,1.58,1.58,0,0,1,.78.07,3.61,3.61,0,0,1,.68.24A2.77,2.77,0,0,1,748.11,581.16ZM754.73,563a3.63,3.63,0,0,1-1.18,2.67,8.46,8.46,0,0,0-.64.72c-1.64,1.89-2.39,1.45-4.17.55a2.7,2.7,0,0,1-1.23-2.77,22.25,22.25,0,0,1,1.8-8.22c.48-1,.88-2.1,1.41-3.39a12.4,12.4,0,0,1,1.28,1.59q1.2,2.18,2.27,4.43C754.93,560,754.74,561.5,754.73,563Z"/><path d="M215.34,1299c.57-.92,1.19-1.62-.25-2.66-1.27,1.16-2.64,2.26-3.86,3.52a74.22,74.22,0,0,0-13,17.34c-2.49,4.84-5.3,9.71-6.6,14.91a127.91,127.91,0,0,0-3.17,21.8c-.5,6.88-.1,13.82,0,20.74.14,9.47.45,18.93.56,28.39.08,7.13.07,14.26-.1,21.38a56.22,56.22,0,0,1-1.06,9.29c-.89,4.58-2.36,9.05-3.3,13.63-.69,3.36-1.41,6.71-2.32,10-3.45,12.5-8.25,24.58-11,37.28-1,4.78-2.71,9.46-3.43,14.28-1.65,10.92-3.43,21.86-4.14,32.86-.64,10-.39,20-.17,30,.15,6.83.43,13.67,1,20.48.75,9.08.78,18.23,1.65,27.3.38,4,1.63,7.92,2.48,11.88l.72-.07a13.68,13.68,0,0,0,.39-1.78c.47-5.33,1.15-10.66,1.29-16,.2-7.25-.19-14.51,0-21.75.29-12.83.8-25.65,1.22-38.47.88-26.75,6.42-52.66,14.19-78.16,2.12-6.94,4.47-13.82,6.19-20.85,4.49-18.34,5.52-37,5-55.85q-.42-15.56-1.06-31.12c-.39-9.64.93-19.16,2.11-28.67a74.59,74.59,0,0,1,8.79-26.55C209.87,1307.73,212.63,1303.39,215.34,1299Z"/><path d="M175.75,1439.68c.57-4.2,1-8.42,1.63-12.61a214.94,214.94,0,0,0,2-50.71,212.29,212.29,0,0,1,.21-39.09c.64-6.09,1.16-12.17,3.46-18a78.08,78.08,0,0,1,19-28.23,3.13,3.13,0,0,0,.85-1.33c.35-1.13,2.32-1.57,1.49-3.77-1.09.65-2.14,1.18-3.09,1.85a64.48,64.48,0,0,0-13.78,12.61c-3.22,4.12-6.6,8.25-9,12.84a117,117,0,0,0-8.28,19.71c-2.66,8.44-2.89,16.89-2,25.49.94,8.88,2.16,17.73,3,26.62,1,9.57,1.27,19.16-.45,28.7-.28,1.54-.37,3.11-.67,4.64-1.65,8.42-3.15,16.88-5.07,25.24-1.39,6.07-3.45,12-5,18-2,7.65-3.94,15.32-5.58,23.05a148.18,148.18,0,0,0-3.26,19.44c-1,12.77,1.17,25.36,3.21,37.92a5.06,5.06,0,0,0,.49.92c.14-1.67.3-3,.34-4.26.15-4.46.33-8.92.35-13.37a107.46,107.46,0,0,1,6.16-34.43q3.31-9.66,6.44-19.38A184.44,184.44,0,0,0,175.75,1439.68Z"/><path d="M153.1,1434.42l.85.06a13.2,13.2,0,0,0,.63-4.1,18.25,18.25,0,0,1,.57-5.94c4.91-19.42,8.58-38.69,4.36-58.45a37.65,37.65,0,0,1-.71-5c-.81-10.72-2.82-22.06.29-32.79s7.09-21.4,14.15-30.47a23.71,23.71,0,0,0,1.91-2.75,5.34,5.34,0,0,0,.33-1.64,31.51,31.51,0,0,0-6.46,5.28c-3.55,3.84-7.42,7.5-10.3,11.82-4.3,6.46-6.39,13.88-7.67,21.57-2.15,13-2.33,26-1.73,39,.65,14,1.1,28.08,1.86,42.11C151.59,1420.23,152.46,1427.32,153.1,1434.42Z"/><path d="M776.8,1337.79a1,1,0,0,1-.31-.53c-.31-2.61-2.84-3.15-4.33-4.64-.09-.09-.33-.06-.5-.06a6.55,6.55,0,0,0-3.46,2.46c-.89,2.28-.28,4.48.33,6.68,0,.16.31.26.46.4l1.55,1.42c.26.23.51.61.8.65,1.37.19,2.76.61,4-.41.32-.26.88-.23,1.45-.36a24.34,24.34,0,0,1,.7-2.45C778.11,1339.44,778,1338.87,776.8,1337.79Z"/><path d="M584.27,1410.32a29.58,29.58,0,0,0-3.46-1.72c3,8.56,3.35,17.15,4.55,25.66,2.31-7.33,4.75-14.59,6.65-22.14-.9-.08-1.56-.19-2.22-.19A9.51,9.51,0,0,1,584.27,1410.32Z"/><path d="M498.44,222.75c-2.69,5.13-5.18,10.35-7.65,15.59-1.45,3.08-2.34,6.44-3.71,9.53a33.22,33.22,0,0,0-2.65,11.74c-.69,13.2-3.66,26.18-2.46,39.51a53.45,53.45,0,0,1,.09,7.38c-.36,7.4-.85,14.77,1.8,21.76,1.76,4.65,3.7,9.22,5.56,13.83l.85-.22c-.31-2.42-.66-4.84-.93-7.27-.76-7-1.69-14-2.18-21-1.09-15.68-.15-31.33,1.34-46.93.87-9,1.56-18.19,4.8-26.75,2.65-7,6-13.72,9-20.56.43-1,.88-1.92,1.32-2.87l-.77-.44A73.22,73.22,0,0,0,498.44,222.75Z"/><path d="M606.94,225.82c1.36,3.35,3.09,6.61,4,10.08,1.56,5.91,2.69,11.94,3.84,18,2.91,15.18,1.8,30.46-.79,45.42-3.06,17.69-8.83,34.77-15.12,51.61-.37,1-.64,2-1,3a1.65,1.65,0,0,0,1.42-.57,71.92,71.92,0,0,0,13-26.66,47.62,47.62,0,0,1,2.8-8.19,86.84,86.84,0,0,0,7.47-30.61,148.46,148.46,0,0,0-2.35-35.27C618.35,242.48,614.18,233.34,606.94,225.82Z"/><path d="M543.39,214.91c-5.18,9.23-9.79,18.69-11.53,29.3-.94,5.71-2.06,11.39-3.11,17.08-1.12,6-2.62,12-3.31,18.08-1.62,14.33-2.49,28.68-.41,43.09,1.18,8.2,1.79,16.49,6.2,23.82.4.67.93,1.25,1.39,1.88a9.65,9.65,0,0,0,.27-3.63c-.84-11.67-1.8-23.34-2.47-35a164.43,164.43,0,0,1,1.33-31.74c1.43-10.38,2.2-20.83,4.8-31,2.25-8.8,4.39-17.58,8.25-25.9,2.27-4.9,3.69-10.2,5.5-15.31l-.88-.36C547.41,208.41,545.26,211.58,543.39,214.91Z"/><path d="M207.15,155.35c1-5.32-1.5-18.23-4.18-22C202.54,135.88,205.57,152,207.15,155.35Z"/><path d="M572.3,1409.57c-3.36.52-6.71,1.13-10.05,1.72a2.09,2.09,0,0,0-.5.27c2.82,7,8.16,12,13,17.95a17.7,17.7,0,0,0,.25-5.14,50,50,0,0,1,.14-10.37c.18-1.42.57-2.82.89-4.32A8,8,0,0,0,572.3,1409.57Z"/><path d="M567.45,1650a168.58,168.58,0,0,0-23.65-11c-9.49-3.76-19.42-5.27-29.45-6.4-5.48-.61-11-1-16.48-1.43a48,48,0,0,0-5.17,0c-1.55.05-3.1.29-4.65.26-5.57-.11-11,1-16.33,2.31-3.44.82-6.87,1.67-10.35,2.29-6.09,1.08-11.76,3.41-17.43,5.69-8.08,3.24-16.05,6.74-24.06,10.16-1.42.61-2.79,1.35-4.17,2.06-3.15,1.61-6.2,3.44-9.45,4.8-5.22,2.19-9.73,5.49-14.4,8.57a15.55,15.55,0,0,0-1.38,1.21,16.87,16.87,0,0,0,2.8,1.9c5.11,2.09,10.17,4.34,15.4,6.06a158.57,158.57,0,0,0,48.26,8.28c2.58,0,5.16.35,7.75.43,7.24.22,14.51.87,21.69-.08A86.32,86.32,0,0,1,505,1685a54.34,54.34,0,0,0,18.19-1.47c6.85-1.74,13.77-3.22,20.58-5.1s13.35-4.07,20-6.09c5.26-1.59,10.51-3.23,15.8-4.72,2.89-.81,7.73-1.66,10.66-2.33a18.38,18.38,0,0,0,2-.8c-2.25-1.41-4.08-2.64-6-3.74C580,1657.16,573.69,1653.66,567.45,1650Z"/><path d="M914.86,1728.55c3.25-4.17,5-8.49,4.74-13.52C917.26,1719.14,914.45,1723.07,914.86,1728.55Z"/><path d="M892.46,1716.63a8.51,8.51,0,0,1-2.43,6.48c-1.35,1.32-2.08,2.43-1.1,3.88,3.52-5.81,5-9.8,4.63-12.77C892.92,1715.18,892.42,1715.6,892.46,1716.63Z"/><path d="M647.77,341.75l.14,0,.5-1.91-.14,0Z"/><path d="M877.32,1715.38c3.93-4.21,5.61-9.6,7.82-14.72C879.84,1704.14,878.08,1709.5,877.32,1715.38Z"/><path d="M949.2,1743c2.19-3.29,3.55-6.65,2.83-10.79C948.33,1735.72,947.56,1738.39,949.2,1743Z"/><path d="M660.14,230.27c-2.58-4.88-5.49-9.41-9.65-13.06a18,18,0,0,0-1.66-1.16,8.59,8.59,0,0,0,1.09,3,178.32,178.32,0,0,1,11.3,24.4c.83,2.35,2.05,4.69,2.27,7.11.68,7.45,1.7,15,1.27,22.4-1.08,18.36-5.64,36.08-11.57,53.45-1.17,3.42-2.42,6.81-3.64,10.21l.49.23c2.16-3.82,4.41-7.58,6.45-11.46,4.83-9.15,9.35-18.45,11.39-28.7,1.26-6.33,2.35-12.7,3.52-19a38.92,38.92,0,0,0-.15-14.79C669,251.52,665.58,240.56,660.14,230.27Z"/><path d="M843.88,1707.44c.56-.64,1-1,1.3-1.48a31.27,31.27,0,0,0,4.62-8.36c1.39-3.74,2.73-7.51,4.09-11.27a4.71,4.71,0,0,0,.14-.75l-.4-.13A45.05,45.05,0,0,0,843.88,1707.44Z"/><path d="M249,1331.13c-1.22-14-4.84-27.46-9.81-40.57a5,5,0,0,0-.71-1l-.53.24c.12,1.21.18,2.44.37,3.64.67,4.18,1.36,8.37,2.1,12.54,1.14,6.37,2.36,12.73,3.5,19.09,1.28,7.1,2.58,14.21,3.69,21.34a11.11,11.11,0,0,1-.08,3.91c-1.65,8.21-1.13,16.55-1.79,24.81-.52,6.54-.71,13.12-1.39,19.64-.78,7.43-1.73,14.85-3,22.21-1.79,10.43-3.27,20.94-6.82,31-3,8.45-5.43,17.09-8.26,25.58-2.16,6.47-4.1,13-6,19.59-1.72,6.08-3.75,12.4-4.15,18.72-.58,9.34-.25,18.74-.27,28.11a13.63,13.63,0,0,0,.6,2.58,24.45,24.45,0,0,0,1.32-2.15,46.39,46.39,0,0,0,3.86-14.8c.69-7.1,1.54-14.2,2.81-21.21,1.88-10.37,6.12-20,9.49-30,3.18-9.4,6.44-18.79,9.47-28.24,3.34-10.44,5.82-21.11,6.28-32.1.36-8.47.42-16.95.46-25.42s-.06-17.18-.2-25.77c-.07-4-.45-8-.56-12C249.3,1344.28,249.6,1337.67,249,1331.13Z"/><path d="M863,1692.78c-4.22,6-5.85,13-7.32,20A37.33,37.33,0,0,0,863,1692.78Z"/><path d="M171.94,125.26c-2.91,5.3-4.79,19.86-3.26,24.81C170,147.52,172.45,129.37,171.94,125.26Z"/><path d="M957.05,390.8a27.52,27.52,0,0,0-3.25-10.34c-2.21-3.64-4.4-7.29-6.67-10.89a31.73,31.73,0,0,0-6.38-7.33c-2.53-2.14-5-4.33-7.74-6.21a29.23,29.23,0,0,0-7-3.72c-4.79-1.65-9.73-2.88-14.61-4.25a10.1,10.1,0,0,0-2.21-.38,28.84,28.84,0,0,0-19.55,6.4c-4,3.1-7.5,6.81-11.32,10.15a12.83,12.83,0,0,0-2.91,3.71c1.23.26,2.45.59,3.67,1,6.13,1.88,12.19,3.92,17.72,7.29l.56.37c-.11-1.39-.14-2.83-.25-4.41.85.34,1.4.51,1.91.76a24,24,0,0,1,6.67,4.63,10,10,0,0,1,2.88,8l.94.82a9.45,9.45,0,0,1,1.13,1.19c5.87,7.75,10.44,16.1,11.77,26.06.51,3.84.06,7.61-.17,11.4-.15,2.43-.27,4.88-.56,7.29a21.76,21.76,0,0,1-1,4.32c1-.15,2-.3,2.93-.43a22.06,22.06,0,0,0,12.71-6,24.14,24.14,0,0,1,3.18-2.61A52,52,0,0,0,950,417.92c1-1.18,1.66-2.86,3.45-3.21.21,0,.37-.41.51-.65,2-3.31,3.63-6.76,4-10.67a53.39,53.39,0,0,0-.1-5.73C957.7,395.9,957.44,393.34,957.05,390.8ZM913.85,373a2.73,2.73,0,0,1-2.92,1.22,22,22,0,0,1-8.4-2.34c-1-.57-2.13-1.05-3.44-1.69a12.92,12.92,0,0,1,1.7-1.33q2.31-1.21,4.68-2.27a8.91,8.91,0,0,1,4.32-.32,4.07,4.07,0,0,1,3,1.49c.2.24.44.45.66.67C915.35,370.32,914.86,371.12,913.85,373Zm14.72,9a5,5,0,0,1,.18-.93,3.41,3.41,0,0,1,4.72-2.5,6.72,6.72,0,0,1,3.69,2.89,39.25,39.25,0,0,1,3.29,7.05,1.62,1.62,0,0,1,0,.41c-.63-.05-1.24-.1-1.84-.16a21.7,21.7,0,0,1-6-1.38,7.88,7.88,0,0,1-4-4.35A2.2,2.2,0,0,1,928.57,382Zm10.18,19.13q-1,2.47-2.06,4.88c-.68,1.49-2,2.35-3.25,3.34a3.63,3.63,0,0,1-2.93.77,8.44,8.44,0,0,0-1-.07c-2.61-.14-2.76-1.07-3.22-3.19a2.86,2.86,0,0,1,1.41-2.89A22.26,22.26,0,0,1,935.5,400c1.15-.27,2.27-.65,3.67-1.06A13.56,13.56,0,0,1,938.74,401.12Zm-2.43-5.06a35.38,35.38,0,0,1-6.71,2.51,4.9,4.9,0,0,1-5.76-2.35c-.42-.74-.72-1.56-1.06-2.34a2.24,2.24,0,0,1,.56-2.6,3.71,3.71,0,0,1,1.2-.82,11.78,11.78,0,0,1,7.61-1,48.89,48.89,0,0,1,9.11,3.44v.33C939.62,394.19,938,395.22,936.31,396.06Z"/><path d="M836.69,460c-.64-1.65-1.14-3.35-1.72-5-3.27-9.43-8-17.87-16.12-23.78-3-2.18-6.16-4.17-9.3-6.15l-.29-.16h0a10.7,10.7,0,0,0-2.3-1l-.17,0a10.37,10.37,0,0,0-1.06-.25,11.2,11.2,0,0,0-1.3-.15,64.61,64.61,0,0,0-12.82.78,34.37,34.37,0,0,0-9.2,2.22,29.49,29.49,0,0,0-14.8,14.35c-3.63,7.31-6.77,14.83-8.2,23-.59,3.37-.69,6.64.65,9.78a78.5,78.5,0,0,0,5.1,10.83c2.81,4.52,5.6,9.06,9.32,12.86a55.79,55.79,0,0,1,14.68-6.31h0a18.82,18.82,0,0,1,2.34-12.63,3.35,3.35,0,0,1,4.28-1.78c2.48,1.07,4,4.73,3.13,7.37a17.94,17.94,0,0,1-2.72,5.16l1.16-.3a27.25,27.25,0,0,1,14,.16,47.88,47.88,0,0,1,15.58,7.58l.25-.27c1.27-1.39,2.48-2.83,3.61-4.35a47.37,47.37,0,0,0,3.66-5.61c2.71-4.92,4.44-9.92,4.17-15.61A33.3,33.3,0,0,0,836.69,460Zm-58.45,3.33a3.92,3.92,0,0,1-1.43-2.61,8.86,8.86,0,0,1,.11-4q.83-2.2,1.79-4.34a11.72,11.72,0,0,1,1.08-1.6c.6,1.17,1,2.14,1.58,3.06a20.86,20.86,0,0,1,2.32,7.55,2.55,2.55,0,0,1-.94,2.69c-1.6,1-2.27,1.46-4-.17C778.61,463.68,778.44,463.48,778.24,463.32Zm7.42,26.19c-.17.56-.35,1.12-.54,1.7a1.42,1.42,0,0,1-.34-.15,36.26,36.26,0,0,1-4.77-5.52,6.62,6.62,0,0,1-1.09-4.35,3.26,3.26,0,0,1,3.84-3.31,4.38,4.38,0,0,1,.86.18,2,2,0,0,1,.86.42,7.61,7.61,0,0,1,2.22,5.16A22.05,22.05,0,0,1,785.66,489.51Zm7.32-31.1a21.8,21.8,0,0,1-2.11.73,4.35,4.35,0,0,1-5-2.36,33.17,33.17,0,0,1-2.53-6c-.52-1.64-.86-3.33-1.28-5l.2-.18a43.61,43.61,0,0,1,7.72,3.9,11,11,0,0,1,4,5.61,3.46,3.46,0,0,1,.22,1.29A1.94,1.94,0,0,1,793,458.41Zm4.35-11.77a4.36,4.36,0,0,1-.47.69,1.87,1.87,0,0,1-.67.6,6.7,6.7,0,0,1-5.16,0,19.62,19.62,0,0,1-4.53-3.12c-.41-.36-.8-.73-1.22-1.11.13-.13.18-.21.26-.25a32.78,32.78,0,0,1,6.41-2.14A5.79,5.79,0,0,1,796,442,3.15,3.15,0,0,1,797.33,446.64Zm14.51,3.62c.78-2.09,1.07-3,3.76-2.75.29,0,.58.07.88.08a4.6,4.6,0,0,1,3.24,1.45,9.69,9.69,0,0,1,2.64,3.72q.77,2.64,1.38,5.32a14,14,0,0,1,.12,2.27c-1.37-.63-2.46-1.2-3.6-1.65a23.25,23.25,0,0,1-7.41-5.25A3,3,0,0,1,811.84,450.26Zm-1.57,19.43a8.29,8.29,0,0,1-2.32,0,4,4,0,0,1-3.17-2.76,3.51,3.51,0,0,1,.83-3.88,9.79,9.79,0,0,1,8.19-3.14,24.37,24.37,0,0,1,8,2.31c.54.24,1,.57,1.86,1a57.57,57.57,0,0,1-5.21,3.86A20.31,20.31,0,0,1,810.28,469.69Zm14,2.09c-.14,3.35-.72,6.45-3.91,8.47a3.63,3.63,0,0,1-3.94.34c-.49-.24-1-.56-1.44-.82a1.57,1.57,0,0,1-.81-1.38c-.15-2.52.23-4.88,2.09-6.74a9.63,9.63,0,0,1,1.56-1.37c1.79-1.14,3.61-2.21,5.43-3.3a3.2,3.2,0,0,1,.8-.18C824.19,468.53,824.39,470.16,824.33,471.78Z"/><path d="M162.38,1055.14l.55,5.47,3.07-.38c.19-1.31-1.08-7.52-2.05-10.22l-9.57,3.44.6,3.14C157.53,1056.63,159.72,1055.25,162.38,1055.14Z"/><path d="M874.26,433.93c-2.95-7.24-6.43-14.15-12.78-19-4-3-7.93-6-12.73-7.64-4.14-1.43-8.47-1.51-12.68-2.37a8.7,8.7,0,0,0-5.12.65c-2.39,1-4.77,2-7.09,3.14a28.89,28.89,0,0,0-9,6.81A41.47,41.47,0,0,1,829,419.77a45.27,45.27,0,0,1,14.4,12.44c3.29,4.18,4.6,9.17,5.83,14.18s2.29,10.09,3.12,15.2a92,92,0,0,1,.73,10.24A4.32,4.32,0,0,1,852,475a10.15,10.15,0,0,0-2.79,6.62,19.4,19.4,0,0,1-4,11.12,17.88,17.88,0,0,0,5.11-1.18,43.49,43.49,0,0,0,12-7c1.92-2,4-3.83,5.75-5.92,2.62-3.09,4.91-6.5,5.7-10.59,1.47-7.57,3-15.16,2.4-23C875.81,441.32,875.7,437.48,874.26,433.93Zm-28.62-5.74a2.48,2.48,0,0,1-2.9,0,20.76,20.76,0,0,1-6.38-5c-.69-.86-1.46-1.65-2.36-2.66a11.61,11.61,0,0,1,1.9-.53q2.37-.21,4.76-.28a8.26,8.26,0,0,1,3.8,1.26,3.84,3.84,0,0,1,2.07,2.34c.09.28.22.54.34.81C847.83,426.42,847.15,426.93,845.64,428.19Zm16.25,22a3.15,3.15,0,0,1-.78-.22c-1.74-1.16-3.49-2.32-5.2-3.54a9.57,9.57,0,0,1-1.47-1.44c-1.74-1.93-2-4.28-1.73-6.76a1.54,1.54,0,0,1,.87-1.32c.49-.24,1-.52,1.46-.74a3.59,3.59,0,0,1,3.87.54c3,2.16,3.46,5.25,3.44,8.56C862.34,446.93,862.06,448.53,861.9,450.23Z"/><path d="M829.25,508.61c-.67-.6-1.35-1.16-2-1.68l-.45-.32c-.57-.42-1.15-.82-1.73-1.18l-.4-.24c-.64-.38-1.29-.74-2-1.06l-.24-.12a22.91,22.91,0,0,0-2.31-.94,22,22,0,0,0-7.3-1.19c-2,0-4,.39-6,.5-5.14.29-10,1.93-14.77,3.59q-1.45.5-2.84,1.11c-1,.45-2,.94-3,1.48l-.22.12q-1.44.78-2.83,1.64a85.84,85.84,0,0,0-11.65,9q-.52.38-1,.8A11.51,11.51,0,0,0,769.1,536q.71.88,1.35,1.8a42.25,42.25,0,0,1,3.34,5.77c1.29,2.66,2.38,5.44,3.43,8.23a7.43,7.43,0,0,1,.34,2.36c0,.27,0,.54,0,.81a24.88,24.88,0,0,1,0,2.69,7.84,7.84,0,0,0,7.14,8.49q.86.06,1.73.08a39.6,39.6,0,0,0,13.35-1.65h0c11.51-.92,21.56-5,29.71-13.23,3.52-3.55,6.56-7.48,7.27-12.65a130.81,130.81,0,0,0,1-16.32A30.85,30.85,0,0,0,829.25,508.61Zm-45.76,39.88c-.1,1-.11,2.06-.18,3.33a10.93,10.93,0,0,1-1.57-.95q-1.68-1.47-3.26-3a8.8,8.8,0,0,1-1.73-3.61,3.28,3.28,0,0,1,.19-2.63,7.5,7.5,0,0,0,.34-.83c.83-2.13,1.6-2,3.38-1.79a2.38,2.38,0,0,1,1.88,2A20.18,20.18,0,0,1,783.48,548.49Zm.83-19.72a3.54,3.54,0,0,1-1.33-3.45c.32-3.5,2.56-5.25,5.17-6.73,1.26-.72,2.65-1.21,4.06-1.84a3.16,3.16,0,0,1,.18.75c-.13,2-.24,3.95-.43,5.91a9.21,9.21,0,0,1-.46,1.87,7.3,7.3,0,0,1-4.53,4.5,1.36,1.36,0,0,1-1.43-.12C785.15,529.35,784.71,529.09,784.32,528.77Zm2.77,25.55a12.35,12.35,0,0,1-.87-6.2,16.83,16.83,0,0,1,2-6.35,5.63,5.63,0,0,1,6.81-2.27,3.22,3.22,0,0,1,1.41,4.09,16.77,16.77,0,0,1-7,9.34C788.68,553.37,787.93,553.81,787.08,554.32Zm15-.15a5.72,5.72,0,0,1-3.56,1.87,31.71,31.71,0,0,1-6.57,0,1.29,1.29,0,0,1-.31-.15c.28-.49.54-1,.81-1.41a19.61,19.61,0,0,1,3.29-4.29,6.58,6.58,0,0,1,4.79-1.57,1.78,1.78,0,0,1,.8.35,4.1,4.1,0,0,1,.64.5A3.09,3.09,0,0,1,802.13,554.17Zm.6-23.39a3.09,3.09,0,0,1-2.76,2.28,3.61,3.61,0,0,1-3.49-1.55,8.1,8.1,0,0,1-1-1.95,19.94,19.94,0,0,1-1.28-8,55.48,55.48,0,0,1,1-6c.71.51,1.18.79,1.59,1.15a23.17,23.17,0,0,1,5.1,5.81A9.56,9.56,0,0,1,802.73,530.78Zm4.73-10a21.13,21.13,0,0,1-7.2-4.11c-.83-.77-1.72-1.46-2.78-2.36a12,12,0,0,1,1.86-.82q2.39-.57,4.8-1a8.45,8.45,0,0,1,4,.71,3.91,3.91,0,0,1,2.44,2.07c.13.27.3.52.46.77,1.3,2.16.68,2.78-.67,4.29A2.56,2.56,0,0,1,807.46,520.79Zm13.89,22.93q-1.38,1.62-2.86,3.15c-1,1-2.41,1.27-3.67,1.76a2.14,2.14,0,0,1-2-.26,4.94,4.94,0,0,0-.89-.42c-2-.84-1.83-1.59-1.62-3.33a2.26,2.26,0,0,1,1.84-1.81,17.76,17.76,0,0,1,7-.83c.95.11,1.91.14,3.08.22A10.78,10.78,0,0,1,821.34,543.72Zm4-5.31c-1.51.26-3,.6-4.53.77a28.38,28.38,0,0,1-5.78,0,4.05,4.05,0,0,1-3.78-3.4c-.12-.68-.14-1.39-.19-2.08a1.78,1.78,0,0,1,1.11-1.83,2.94,2.94,0,0,1,1.13-.29,9.56,9.56,0,0,1,6.07,1.37,40.56,40.56,0,0,1,6.05,5.17Zm.52-3.54c-.47-.22-.92-.42-1.36-.64a17.93,17.93,0,0,1-4.22-2.73,6.53,6.53,0,0,1-1.9-4.43,1.77,1.77,0,0,1,.24-.8,4,4,0,0,1,.39-.66,2.73,2.73,0,0,1,4.27-.59,5.58,5.58,0,0,1,2.05,3.23,32.21,32.21,0,0,1,.65,6.3A1.29,1.29,0,0,1,825.88,534.87Z"/><path d="M179.09,110a60.07,60.07,0,0,0,9.46,15.41c2,2.43,4.26,4.64,6.41,7a.87.87,0,0,0,.56.28,9.22,9.22,0,0,0-.41-.88c-2.4-4-4.72-8.09-7.24-12-2.77-4.33-5.93-8.41-8.81-12.66a13.8,13.8,0,0,1-1.92-3.57,2.31,2.31,0,0,0-.33-.55l-.14.05a9.66,9.66,0,0,0,.28,1.28C177.65,106.2,178.32,108.12,179.09,110Z"/><path d="M153.57,151.73c0-.73,0-1.46.05-2.19A104.33,104.33,0,0,1,154.78,136q1-6,1.94-12c.07-.41.07-.83.12-1.34-1.53,1.55-4.05,9.84-4.45,14.25a57.5,57.5,0,0,0,.85,14.89Z"/><path d="M182,1640.71a378.93,378.93,0,0,0,3.89-39.26c.66-17.4,1.81-34.73,5.43-51.8,2.06-9.73,4.21-19.44,6.36-29.15,3.1-14,7-27.83,11.5-41.48,5.53-16.92,9.47-34.24,12.86-51.68,2-10.43,4.65-20.67,7.67-30.84,2.22-7.47,5.26-14.66,6.26-22.52a207.81,207.81,0,0,0,1.23-37.08,132.63,132.63,0,0,0-5.62-32.28c-2.16-7-5.06-13.73-7.62-20.58l-.8.17c.13,1,.18,2.1.41,3.11,1.05,4.57,2.22,9.11,3.23,13.68,3.6,16.37,5.79,33,5.21,49.9a118.05,118.05,0,0,1-4.76,28.89c-3.51,12.05-5.42,24.42-7.68,36.72-1.69,9.21-3.59,18.39-5.81,27.49-2,8.23-4.47,16.35-6.88,24.47-2.64,8.87-5.41,17.7-8.2,26.52-2.39,7.54-5.27,15-7.24,22.6s-3.4,15.71-4.64,23.64c-1.82,11.67-3.38,23.38-4.85,35.1-.94,7.52-1.62,15.07-2.25,22.63-.64,7.77-1,15.56-1.65,23.32-.5,5.77-1.41,11.51-2,17.27a271.58,271.58,0,0,0-.72,34.44c0,1,.14,2,.26,2.94q1.52.06,3,.1C179.71,1664.91,180.27,1652.73,182,1640.71Z"/><path d="M167.94,1013l3.3,6.68,2.91-1.51-5.55-9.67-8.22,4.49,1.06,3C163.77,1015.15,165.63,1013.66,167.94,1013Z"/><path d="M160.41,1666.21q-.74-18.23-1.24-36.46c-.24-9.5-.36-19-2.55-28.3-2.1-8.91-4.26-17.81-6.39-26.71q-3.35-14-6.7-28c-3.82-15.93-4.09-32-2.31-48.22,1.75-16.07,3.73-32.15,3.65-48.36-.06-10.82-.2-21.65-.56-32.46a107,107,0,0,0-1.56-16c-1-5.58-3-11-4.35-16.5-2-8.24-3.95-16.54-3.77-25.1.15-7.58.61-15.16.9-22.74.16-4.17.23-8.34.34-12.51l-.82-.13c-2.35,7.61-4.84,15.26-5.25,23.26-.51,10-1.18,20,.53,30,1.75,10.22,3,20.54,4.51,30.79,1.23,8.16,2.88,16.28,2.9,24.58,0,5,0,10-.31,15-.28,5.34-.68,10.68-1.3,16-1.46,12.62-3.06,25.22-3.51,38a152.91,152.91,0,0,0,3,35.62c3.42,17,7.73,33.73,11.47,50.62,2.44,11,5.2,22,5.81,33.28.67,12.35.75,24.74,1,37.11.12,5.62.35,11.23.77,16.82l5.8.34C160.61,1672.83,160.54,1669.52,160.41,1666.21Z"/><path d="M175.72,996.55l6.86-1.67,1.46,5.8,3-.15c-.77-3.77-2.47-7-3.13-10.72l-9.2,5.22c.27.49.39.74.54,1A5.94,5.94,0,0,0,175.72,996.55Z"/><path d="M146.11,1674.21c-.6-7-1.24-14-.47-21q.79-7.15,1.39-14.32a73.27,73.27,0,0,0-.73-17.63l-.69-.08c-.16.6-.34,1.2-.48,1.81-.62,2.83-1.31,5.66-1.83,8.51a99.73,99.73,0,0,0-1.55,10.18c-.26,3.44,0,6.91-.06,10.37a65.64,65.64,0,0,0,3.74,23.26l.77,0Z"/><path d="M911.55,404.7a16.38,16.38,0,0,0-4.46-7.78q-6.68-6.39-13.59-12.51a20.93,20.93,0,0,0-5.19-3.51A72,72,0,0,0,873,375.7q-1.41-.28-2.84-.47l-.17,0c-1-.13-2-.22-3-.27-2.05-.1-4.17-.44-6.15.45A43.86,43.86,0,0,0,843.15,390a86,86,0,0,0-5.92,9.43,78.25,78.25,0,0,1,11.92-.1,36.46,36.46,0,0,1,8.45,1.61,7.7,7.7,0,0,1,.12-.88c.06-.3.13-.59.16-.89a4,4,0,0,1,1.57-2.82,8.6,8.6,0,0,1,3.54-2.13q2.41-.48,4.84-.81a11.83,11.83,0,0,1,2,.09c-.69,1.22-1.28,2.19-1.79,3.21A21.22,21.22,0,0,1,863,403q.9.4,1.8.82c1.25.6,2.48,1.25,3.68,1.94a10.46,10.46,0,0,1,.1-2.86,23.74,23.74,0,0,1,2.77-7.28c.26-.48.6-.92,1.09-1.65a54.47,54.47,0,0,1,2.94,5.23,19.92,19.92,0,0,1,1.54,7.91,8.2,8.2,0,0,1-.22,2.17,3.87,3.87,0,0,1-.78,1.48c.37.28.75.53,1.11.82a31.36,31.36,0,0,1,4.65,4.9,39.36,39.36,0,0,1,4,6.07,18,18,0,0,1,4.76,2.65,13.34,13.34,0,0,1,4.21,5.46c-1.05.31-2,.6-2.88.85a17.62,17.62,0,0,1-2.2.44c.62,1.56,1.24,3.12,1.82,4.69l0,.06.08.21a33.82,33.82,0,0,1,1.77,14.36c-.16,2.14-.15,2.67-.41,4.79v0c1.07-.53,2.13-1.08,3.18-1.71,4.37-2.62,7.9-6.15,11.31-9.83l1.71-1.86a13,13,0,0,0,2.42-4,56.81,56.81,0,0,0,3.25-16.53,31,31,0,0,0-1.09-10.86C913,409,912.13,406.9,911.55,404.7ZM885,404.17a7.12,7.12,0,0,1-5.78-2.57A9,9,0,0,1,878.1,400c-.85-1.77-1.63-3.58-2.43-5.38a3.15,3.15,0,0,1-.09-.77c1.54.08,3,0,4.44.25,3,.44,5.65,1.26,7.15,4.43a3.57,3.57,0,0,1-.06,3.71c-.26.44-.58.84-.86,1.27A1.38,1.38,0,0,1,885,404.17ZM896,423.55a12.85,12.85,0,0,1-.46,2c-1-.91-1.87-1.69-2.75-2.39a21.75,21.75,0,0,1-5.21-6.55,2.74,2.74,0,0,1-.1-3.06c1.2-1.63,1.69-2.37,4-1.44a8.41,8.41,0,0,0,.89.34,3.55,3.55,0,0,1,2.24,1.85c.66,1.34,1.5,2.62,1.51,4.18S896.12,421.88,896,423.55Z"/><path d="M0,0V1918H1080V0ZM854.05,129.76c.44-2.73.4-5.63,1.73-8.16q1.6-3.06,3.31-6.06h0c1.9-1.53,3.77-3.14,5.77-4.53a60.26,60.26,0,0,1,7-4.13c3.19-1.62,6.47-2.57,10.32-1.52a1.88,1.88,0,0,0,.79,0c2.28-.37,4.11.25,6.53-.11-.28-1.07-.46-2-.78-2.94-1.21-3.47-2.8-6.82-3.29-10.51v0a111.29,111.29,0,0,1-9.19-21.69l-.88-2.89a.66.66,0,0,1,.5.3c1.51,2.3,3.05,4.58,4.51,6.91A47.66,47.66,0,0,1,883,79.17c1.1,2.31,2,4.7,3.07,7,1.4,3.09,2.87,6.15,4.3,9.22.18.38.38.76.62,1.23.07-.19.11-.23.1-.25-.83-2.74-1.58-5.5-2.5-8.2a47.46,47.46,0,0,1-2.33-12.41c-.34-5.42-.59-10.84-.88-16.26,0-.26,0-.53,0-.79a17.22,17.22,0,0,1,1.14,3c.82,2.82,1.68,5.63,2.41,8.47,1.19,4.62,1.91,9.35,3.33,13.91a7.89,7.89,0,0,1,.49,3,2.39,2.39,0,0,0,.36,1.12,14.61,14.61,0,0,0,.16-2.32c.67-8.71,7.41-23.93,8.45-25.07-.28,5.57-.56,11.14-.78,16.72h0a86.86,86.86,0,0,0-1.84,12.08c0,.33-.16.75.27,1,1.21-1.23,2.46-2.37,3.58-3.64,2.34-2.65,4.63-5.35,6.92-8.05a5.79,5.79,0,0,1,1.91-1.74,2.65,2.65,0,0,1-.11.33c-1.35,2.82-2.69,5.64-4.05,8.45-.56,1.15-1.21,2.26-1.75,3.42-1,2.22-1.89,4.52-3,6.7-1.43,2.82-3,5.55-4.54,8.34-.35.65-.58,1.36-.89,2.11l.88.25c1.71.43,3.44.83,5.14,1.3A56.6,56.6,0,0,1,919,115.47a11.54,11.54,0,0,1,4.67,5,34.87,34.87,0,0,0,2.36,4.75h0c0,2.41-.14,4.82-.13,7.23a9.16,9.16,0,0,1-2.42,6.3h-.06A18.7,18.7,0,0,1,916.68,151h0c-2.41,3.9-6.71,5.86-10.15,7.87h0a37.5,37.5,0,0,0-14.23,7.78,30.25,30.25,0,0,0-4.35,4.88,15.22,15.22,0,0,0-1,1.73c-.25.46-.41,1-.63,1.45a48.64,48.64,0,0,0-3.12,9.78c-1,4.41-2,8.79-5.3,12.47v0c-.33,3.39-1.88,6.33-3.26,9.32a8.41,8.41,0,0,1-.62,1l-.23-.11c.11-.89.21-1.79.34-2.67.69-4.85,1.92-9.65.34-14.69a.07.07,0,0,1,0-.05c3.25-6,5.23-12,4.29-18.35a14.24,14.24,0,0,0-1.63-4.9c-1.08-1.94-2.37-3.76-3.55-5.65a11.1,11.1,0,0,0-5.56-4.6,15.92,15.92,0,0,1-6-4.14l-.59-.66a63.59,63.59,0,0,1-3.64-5.57c-2.12-3.74-3.11-7.9-3.94-12.09v-.46A21.32,21.32,0,0,1,854.05,129.76Zm-414,376.47c2.28-3.79,4.71-7.48,7-11.24,2-3.16,5.09-4.78,8.25-6.36,1.79-.9,3.63-1.71,5.43-2.58a16,16,0,0,1,10.12-1.37c5.58,1.07,10.25,3.75,12.91,9.06s4,10.73,5.59,16.25c.45,1.59.77,3.23,1.22,4.82a24.82,24.82,0,0,1,.63,9.21,122.73,122.73,0,0,1-1.87,12.67c-6.95-1.32-13.58-3.43-20.56-5.1a222.14,222.14,0,0,1-13.47,32.87c-1.74-.26-6.29-2.76-8.81-4.8.46-1.26,1-2.53,1.4-3.84,1.48-4.75,3-9.48,4.34-14.27,1.07-3.86,1.83-7.8,2.8-11.69.7-2.81-.16-4.92-2.37-6.76-3.87-3.23-7.62-6.61-11.41-9.94-1-.86-1.93-1.77-3-2.76A31.64,31.64,0,0,1,440.05,506.23Zm-295.26-370A66,66,0,0,1,152,116.46a169.89,169.89,0,0,1,12.73-19.63,12,12,0,0,0,2.65-7.78c-.06-3.76-.16-7.52-.26-11.29,0-.77-.12-1.5.73-2,1.85-1,3.69-2,5.9-3.24.12,1.36.21,2.24.28,3.11.48,5.88,1.54,11.57,5.69,16.15,2.06,2.27,3.65,5,6.29,6.72,4.43,2.85,8.91,5.64,13.44,8.33,6.46,3.84,13.71,6.84,19.46,11.77A29.74,29.74,0,0,1,228.29,134c1.35,5.76,1.64,11.76-.92,17.06q-.18.38-.39.76c-2.19,4-4.31,9.14-9.57,9.78-2.43.3-5,.22-7.34.48-2.15.23-3.28,1.27-5.32,2.07-2.57,1-5,.39-7.69.22-3.54-.22-6,2.76-9,4-4.41,1.84-7.16-1.5-10.93-2.87-3.62-1.31-5,1.69-8.38,2.17-2.14.31-3.61-.93-5.31-1.89a5.83,5.83,0,0,0-4.61-.39c-7.65,2.38-12.49-5.84-14.81-11.49S143.64,141.92,144.79,136.25Zm-74.72,356c-.59-.75-1.06-1.6-1.72-2.3A18.75,18.75,0,0,1,66.79,488c-2.18-3-4.34-6.1-6.25-9.31-1.45-2.44-2.75-5-4.07-7.49-.49-.93-.81-2-1.31-2.89-1.41-2.59-3-5.08-4.28-7.74-1.47-3.07-2.59-6.32-3.89-9.47-.32-.77-.61-1.54-.85-2.33a54.4,54.4,0,0,1-2.06-9.16c-.13-1.08-.32-2.16-.42-3.24-.32-3.39-.59-6.79-.86-10.19a27.56,27.56,0,0,1-.08-3.43c.11-2.59.33-5.18.55-7.76s.51-5.46.86-8.17c.41-3.12.9-6.23,1.43-9.33.49-2.93,1-5.87,1.64-8.76.6-2.55,1.48-5,2.21-7.54a4.38,4.38,0,0,1,1.89-2.65c2.62-1.64,5.16-3.39,7.85-4.9s5.62-2.61,8.42-3.9a35.82,35.82,0,0,1,8.11-2.71c2.4-.47,4.76-1.15,7.16-1.62.51-.1,1.34-.21,1.86-.25,4.1-.36,8.2-.72,12.31-1,2.13-.16,4.26-.26,6.4-.27s4.19.09,6.28.17c2.57.1,5.14.23,7.71.32a7.47,7.47,0,0,1,1.48.2c.74-.21,1.71-.19,2.17-.67a45.3,45.3,0,0,0,3.39-4.21c.88-1.16,1.64-2.41,2.57-3.52,1.18-1.41,2.51-2.69,3.72-4.07,1.7-1.94,3.34-3.93,5-5.88s3.31-3.77,4.95-5.67c1.84-2.13,3.66-4.29,5.51-6.41q1.71-1.95,3.52-3.81c2.18-2.24,4.35-4.5,6.6-6.67,1.51-1.46,3.12-2.82,4.74-4.17,2.15-1.79,4.34-3.54,6.54-5.27,1.8-1.42,3.63-2.8,5.44-4.21,2.75-2.14,5.47-4.33,8.26-6.4,1.85-1.37,3.81-2.6,5.73-3.88a.43.43,0,0,1,.19-.07c2-.24,4-.42,6-.74.81-.13,1.62-.24,2.44-.31,3.7-.29,7.41-.52,11.12-.6.88,0,1.75,0,2.63,0a91.44,91.44,0,0,1,9.12.95c2.47.39,4.94.81,7.35,1.43a71.11,71.11,0,0,1,7,2.28,49.21,49.21,0,0,1,5.66,2.47c2,1,3.88,2.34,5.84,3.47a33.54,33.54,0,0,1,9.2,7.49c.91,1.1,2,2,2.93,3.12a28.67,28.67,0,0,1,4,5.06c2,3.93,3.7,8,5.46,12.1q2.46,5.67,4.75,11.42.88,2.19,1.6,4.43c1.25,3.87,2.47,7.74,3.6,11.65.94,3.24,1.76,6.51,2.62,9.77.58,2.2,1.15,4.41,1.59,6.65.13.65.28,1.73.36,2.4q.48,4.29.78,8.6a25,25,0,0,1-.09,3.82c-.36,3-.83,6.08-1.33,9.1a9.75,9.75,0,0,1-1,3.66,46.69,46.69,0,0,1-4.1,5.06c-1.77,2-3.67,4-5.37,6a79.18,79.18,0,0,1-9.92,9.78c-1.37,1.17-2.78,2.29-4.22,3.36-2.7,2-5.32,4.23-8.2,6a119.35,119.35,0,0,1-21,10.31c-2.67,1-5.35,1.94-8.07,2.74-3,.89-6.08,1.59-9.12,2.36q-2.53.64-5.08,1.22c-1,.24-2.07.45-3.12.62-2.28.38-4.57.71-6.85,1.07l-3.53.59c-.9.15-1.79.35-2.7.43-2.71.23-5.43.41-8.15.61-1.73.12-3.46.26-5.19.35-.86,0-1.2.39-1.05,1.32.2,1.21.46,2.41.7,3.62s.5,2.4.67,3.6c.28,2,.5,4.08.74,6.13.21,1.74.44,3.48.6,5.23.22,2.31.39,4.62.6,7a34.57,34.57,0,0,0,4.21-.15c3.11-.48,6.1.13,9.12.68,2.35.42,4.69.83,7,1.28,2,.38,4,.77,5.92,1.22,2.61.61,5.22,1.24,7.81,2s4.93,1.35,7.3,2.26a61.79,61.79,0,0,1,7.21,3.54c1.23.67,3.21,1.84,4.42,2.57a61.3,61.3,0,0,1,6.85,4.36,3.59,3.59,0,0,1,1,1.09,8.17,8.17,0,0,1,.48,2.87c.26,2.56.48,5.13.73,7.69.22,2.33.45,4.66.7,7.2-1.42-.2-2.66-.39-3.9-.54-2.63-.32-5.26-.64-7.89-.93-2.36-.26-4.72-.51-7.09-.68s-4.81-.24-7.21-.34c-2-.08-4-.18-6-.22-2.16,0-4.33,0-6.49,0-2.89,0-5.77.13-8.66.2-1.49,0-3,0-4.48.07s-2.94,0-4.41.15c-1.22.09-2.43.31-3.64.44-2.67.28-5.37.42-8,.86s-5.12,1.14-7.69,1.72c-1.08.24-2.16.52-3.26.67-2,.29-4,.39-6,.76-2.65.5-5.26,1.19-7.89,1.8l-.6.14c-1.46.27-2.92.49-4.37.82-1.15.27-2.27.67-3.4,1-1.5.46-3,1.08-4.6.71-4.42-1-8.86-2-13.21-3.25s-8.4-3-12.6-4.45c-1-.33-1.9-.69-2.82-1.11-2.38-1.08-4.74-2.22-7-3.46a36.12,36.12,0,0,1-3.18-2.19c-1.24-.85-2.51-1.65-3.73-2.53-1.71-1.22-3.4-2.48-5.09-3.74s-3.29-2.42-4.88-3.69a17.65,17.65,0,0,1-1.9-1.81c-2-2.15-4.08-4.19-6-6.37C72,494.82,71.08,493.5,70.07,492.22ZM248.8,620c-2.29.23-4.37.59-6.45.6-3.43,0-6.87-.22-10.3-.33a1.06,1.06,0,0,1-1-1c0-2.07,0-4.14,0-6.21,0-.81.09-1.63,0-2.44,0-.23-.46-.64-.66-.62-1.49.19-2.34-1-3.45-1.57a34.23,34.23,0,0,1-4.31-2.76,15.15,15.15,0,0,1-6.32-8.93c-.67-2.8-1.79-5.49-2.65-8.24-.44-1.4-.79-2.84-1.1-4.28-1-4.49-1.95-9-2.85-13.48-.41-2.07-.65-4.17-1-6.26a1.33,1.33,0,0,1,1.12-1.73c3-.72,6-1.75,9.1-2.2,4.24-.63,8.54-1,12.83-1.19a77.31,77.31,0,0,1,9.55.23c3.15.24,6.28.68,9.4,1.19s6.34,1.37,9.53,2c.8.15,1.61.21,2.42.3.59.06.92.25,1,.9.28,2.55.68,5.1.88,7.66a54.73,54.73,0,0,1,.08,5.84c-.08,2.95-.21,5.89-.42,8.83-.16,2.19-.44,4.37-.72,6.55-.24,1.91-.5,3.82-.87,5.71a3,3,0,0,1-1,1.42c-1.88,1.77-3.82,3.49-5.72,5.25s-3.71,3.51-6.15,4.49a27.09,27.09,0,0,0-2.52,1.35ZM218.29,852.8a81.78,81.78,0,0,1,7.48,11c2.42,4.36,2.15,8.57.23,13-1.15,2.63-2.61,4.66-5.5,5.58a31.46,31.46,0,0,0-4.37,2.24,4.6,4.6,0,0,1-4.28.2c-.21-.1-.45-.15-.65-.25-7-3.68-13.41-8-16.34-15.92-1.51-4.1-3.26-8.11-5.09-12.08a55.71,55.71,0,0,0-3.48-5.66,19.5,19.5,0,0,0-1.64,1.93c-1.38,2.18-2.71,4.39-4,6.59-.68,1.14-1.37,2.28-2,3.46a5.49,5.49,0,0,1-5,3.27c-1.72.08-2,.17-2.7-1.47-2.17-4.82-3.57-9.75-3.09-15.18s1.55-10.49,2.28-15.74c.85-6.08,2.07-12.26,0-18.33a71,71,0,0,0-11.64-21.31,10.1,10.1,0,0,0-.6,1.63,11.05,11.05,0,0,0-.18,2.33,55.51,55.51,0,0,1-1.68,14.62,6.66,6.66,0,0,1-.53,1.54c-1.11,2.24-2.31,4.44-3.36,6.7a4.8,4.8,0,0,1-4,2.84c-5.34.84-8.92-2.16-10.09-7.44-1.75-7.85-1-15.71.49-23.5.82-4.36,2-8.66,3-13a11,11,0,0,0,.37-2.53,36.44,36.44,0,0,0-3.57-15.16,7.48,7.48,0,0,0-.86-1.39,2.66,2.66,0,0,0-4.35-.13c-1.76,2.48-3.27,5.13-5,7.65a27.39,27.39,0,0,0-4.1,12.06,22.37,22.37,0,0,1-.8,3.66,5.72,5.72,0,0,1-3.44,3.9,1.87,1.87,0,0,1-2.61-.82c-1.77-3.22-3.42-6.33-2.68-10.37a133.62,133.62,0,0,1,3.32-15.32c.73-2.39,1.25-4.84,2-7.24a2.77,2.77,0,0,0-.5-2.62c-1-1.32-1.89-2.68-2.81-4q-4.28-6.29-8.54-12.6a3.9,3.9,0,0,0-4.78-1.74,20.07,20.07,0,0,0-3.88,2.09c-2.59,1.74-5.09,3.6-7.65,5.39a4.6,4.6,0,0,1-1.48.69c-2,.5-3.51-.64-3.31-2.69a13.76,13.76,0,0,1,1-4.05,43.54,43.54,0,0,1,2.84-5.38A53,53,0,0,0,96,716.67a5.9,5.9,0,0,0-.62-5c-2-3.36-4-6.73-6-10.09-2.72-4.56-5.57-9-7.31-14.12-.76-2.2-2-4.24-2.92-6.38-.5-1.13-.87-2.32-1.48-4,2.42-.74,4.64-1.41,6.85-2.12a1.58,1.58,0,0,1,1.81.72c1,1.18,2.05,2.35,3,3.56,4.24,5.2,8.56,10.34,12.64,15.66a14.8,14.8,0,0,0,8.64,5.6c2.89.69,5.78,1.32,8.67,2a22.49,22.49,0,0,1,9,4.43c4.12,3.34,8,6.93,12,10.44,1.69,1.49,1.88,3.63,1.84,5.61,0,2.21-2.6,3.71-5.35,3.22a41.74,41.74,0,0,1-5.6-1.65c-3.48-1.15-6.94-2.36-10.41-3.52-1.38-.46-2.79-.85-4.76-1.45,1.36,2.34,2.39,4.23,3.52,6.05a38.54,38.54,0,0,0,7.8,9,10.68,10.68,0,0,0,5.69,2.52,70.39,70.39,0,0,0,16.13-.08c5.08-.47,9.74,1,14.38,2.61a2.71,2.71,0,0,1,1.9,2.67,4.77,4.77,0,0,1-2.81,3.18c-1.43.41-2.87.74-4.29,1.17-1,.32-2,.83-3.08,1.12-3.59,1-5.22,3.68-6.25,7a1.8,1.8,0,0,0,.78,2,72.93,72.93,0,0,0,6.55,5.65,107.47,107.47,0,0,0,18.33,9.88c3.63,1.61,7.41,2.84,10.92,4.79s7.15,3.14,10.65,4.85c3.71,1.82,7.39,3.73,11,5.82s5.89,5.54,8.63,8.53a2,2,0,0,1,.26,1.52c-.4,1.91-.91,3.79-1.36,5.69a1.85,1.85,0,0,1-1.63,1.45,7.31,7.31,0,0,1-4.37,0c-1.81-.73-3.64-1.41-5.44-2.17-2.52-1.06-5-2.16-7.51-3.25-.14-.06-.3-.1-.43-.18-3.22-1.75-6.49-3.39-9.63-5.27a58.16,58.16,0,0,0-10-4.32,15,15,0,0,0,.58,1.54q7.94,14.87,15.91,29.73c2,3.74,5.23,6.12,8.87,8.06,1.51.81,3,1.65,4.5,2.51,3.47,2,7.35,2.62,11.2,3.13,6.67.88,12.74,3,17.93,7.4,1.83,1.55,1.84,3.36-.39,4.31a53.54,53.54,0,0,1-8.45,2.68c-2.79.67-5.67,1-9,1.54C217.48,851.61,217.85,852.23,218.29,852.8ZM104.36,1208.87c-4.07,9.91-8.66,19.57-13.24,29.25-.32.68-.74,1.32-1.17,2.07-5.09-1.95-9.85-4.18-14.85-6.52.95-2.08,1.73-3.92,2.62-5.71,1.36-2.74,2.83-5.43,4.2-8.16,3.4-6.77,6.4-13.72,9.1-20.78,2.65-6.91,5.11-13.89,7.66-20.84,1.91-5.22,3.71-10.49,5.77-15.66a130.52,130.52,0,0,1,10.3-21.11c1.81-2.88,3.44-5.86,5-8.9,1.65-3.27,3.75-6.34,5.24-9.68,2.67-6,5.13-12.08,7.65-18.14.58-1.38,1-2.81,1.62-4.2,1.37-3.29,2.85-6.53,4.15-9.84,3.6-9.11,7.13-18.25,10.67-27.38a2.35,2.35,0,0,0,.22-1.1,36.93,36.93,0,0,0-2-8.24c-.4-1-.74-2.1-1.1-3.15a2.82,2.82,0,0,1,.13-2.42c.73-1.31,1.37-2.67,2.14-4a2.64,2.64,0,0,0,.34-2.19c-.58-2.26-1-4.56-1.58-6.83a2.3,2.3,0,0,1,.78-2.51c1.88-1.74,3.65-3.59,5.47-5.39.73-.72.88-1.52.6-3.15a7,7,0,0,1,0-2.45c2-11-.15-8.71,4.3-12.18a2.13,2.13,0,0,0,.88-1.51c.4-3,1-6,1.3-9.08a5,5,0,0,1,2.62-4c4.42-2.8,4.39-2.84,7.29-7.09a33.68,33.68,0,0,0,2.16-3.42,1,1,0,0,1,.9-.55,5.7,5.7,0,0,0,3.92-1.65c3.52-2.8,7.13-5.51,10.71-8.24a7.26,7.26,0,0,1,1.17-.58c.45,4,.78,7.77,1.39,11.54a2.28,2.28,0,0,1-.51,1.83c-.89,1.06-1.08,2.52-1.78,3.68s-.36,2.14.53,3.08c1.46,1.53,2.82,3.15,4.3,4.66a2.32,2.32,0,0,1,.64,2.27c-.3,1.55-.59,3.11-.78,4.68a1.13,1.13,0,0,0,0,.42c.7,2.7,1.58,5.34,2.2,8.06a1.67,1.67,0,0,1,0,.67,36.21,36.21,0,0,1-1.9,5.13,33.87,33.87,0,0,0-3,14.76,43.67,43.67,0,0,1-1,10.28,3.35,3.35,0,0,1-1.14,1.95q-4.57,4.05-9,8.25a1.12,1.12,0,0,0-.28.5,71.52,71.52,0,0,0-1.66,8.19,7.51,7.51,0,0,1-4.25,6.3,8.57,8.57,0,0,1-1.31.73c-3.07,1-5,3.24-6.31,6l-.07.15c-4.19,7.76-7.35,16-10.48,24.18-1.59,4.16-3.12,8.34-4.94,12.4s-3.88,7.88-5.92,11.77c-3.05,5.81-6.16,11.59-9.27,17.37-2.66,4.94-5.5,9.8-8,14.82s-5.43,10.07-6.93,15.7a60.43,60.43,0,0,1-3.37,9.39c-3.48,7.65-5.31,15.91-10.2,22.92A18.5,18.5,0,0,0,104.36,1208.87Zm196.4,68.3c-11.84,4.41-23.81,8.5-36,11.88-5.05,1.4-10.08,3.16-15,4.79-.46,9,1.65,17.58,2.75,26.31,1.48,11.83,2.52,23.72,3.53,35.6.87,10.22,1.77,20.47,2.07,30.72.47,16.4.41,32.78-.64,49.19-.64,10-3.61,19.25-6.31,28.65q-4.95,17.21-10.47,34.25c-2.16,6.68-4.9,13.17-7.32,19.76-3.18,8.69-6.4,17.37-9.42,26.11a182,182,0,0,0-7.57,31.87c-1.9,12.33-2.89,24.8-4.35,37.2-1,9-2.57,17.82-4.33,26.67s-4.76,17.18-7.11,25.78c-1,3.65-2.07,7.27-3.1,10.92,1.54,0,3.09,0,4.63,0h2.24c6.14,0,12.29.11,18.43.26,1.12,0,2.25,0,3.38,0a31.25,31.25,0,0,1-.32,7.33c-.1.65-.21,1.29-.33,1.94-.45,2.49-1,5-1.58,7.44-1.39,6-4.59,11.06-8.3,15.87-4.86,6.31-11.25,10.78-17.86,15-.79.51-1.53,1.11-2.35,1.56a2.33,2.33,0,0,0-1.24,2.83q.75,3.88,1.35,7.79c.25,1.65.36,3.32.52,4.9-6.46,2.49-36.76,2.82-45.75.51l.68-13.15c-4.06-1.79-8-3.45-11.93-5.28-11.76-5.51-20.14-14.18-23.78-26.8-2-6.77-3.25-13.73-4.79-20.63a23.68,23.68,0,0,1-.37-3.32c1.4-.14,13.75,1.05,18.6,1.26,3.2.14,6.41.31,9.61.48,0-1.1-.06-2.2-.12-3.31-.33-6.69-.95-13.36-1.6-20-.82-8.34-1.75-16.66-2.73-25a55.76,55.76,0,0,0-7.64-23c-5-8.21-8-17.17-9.93-26.51a179.06,179.06,0,0,1-3.34-47c.4-7.1-.17-14.27-.56-21.4a60.67,60.67,0,0,1,2.45-19.83c3.39-12.14,6.76-24.3,9.81-36.53a106,106,0,0,0,2.79-28.58c-.13-4.86-1.48-9.7-2.39-14.53a371.53,371.53,0,0,1-5.61-40c-.57-7.34-1.36-14.67-2.27-22-.76-6.12-.48-12,1.87-17.84,1.89-4.68,4.9-8.53,8-12.31q2.57-3.09,5.31-6c3.12-3.35,6.63-7.27,10.8-9.83,9.6-5.89,19.18-11.87,29.09-17.2a118.6,118.6,0,0,1,33.82-12.4c4.22-.81,8.43-1.75,12.6-2.79a12.91,12.91,0,0,0,3.66-1.54c8-4.93,16.16-9.72,24-15,6-4.07,11.45-8.92,17.29-13.22q14.42-10.62,29-21c13.41-9.45,27-18.7,40.39-28.14q20.51-14.42,40.88-29,20.6-14.81,41.12-29.74a115.81,115.81,0,0,1,11.73,13.94c-21.19,16.08-43.16,31-65.31,45.75-18.22,12.11-36.26,24.51-54.3,36.9-10.77,7.4-21.29,15.14-32.06,22.54-8.1,5.56-16.41,10.81-24.61,16.23-2.69,1.78-5.31,3.66-8.14,5.61l1.92,6.9a7.87,7.87,0,0,0,1.69-.31c15.89-7.1,31.8-14.18,47.66-21.37,10.16-4.6,20.14-9.64,30.41-14q26.67-11.29,53.6-21.93c17.64-7,35.39-13.69,53.15-20.37,5.69-2.14,11.43-4.18,17.18-6.17,3.19,6.16,6.19,12.43,9.11,18.75-2.16.82-4.31,1.63-6.46,2.46-20.18,7.85-40.33,15.78-60.36,24-12.38,5.1-24.38,11.13-36.76,16.22C336,1263.51,318.48,1270.56,300.75,1277.17ZM605.4,1666.32c-4.44,7.7-8.78,15.45-13.36,23.06a253.86,253.86,0,0,1-24,34,347.59,347.59,0,0,1-27.75,29.3,323.58,323.58,0,0,1-30.81,24.82c-1.56,1.13-2.52,2.23-1.94,4.25.28,1,.32,2,.51,3.06,1.49,8.15,3,16.29,4.47,24.45.19,1.06.24,2.16.37,3.47-12.76,1.4-25.15.4-37.63-.89,0-.63,0-1.05,0-1.47,1.07-9.77,2.09-19.56,3.29-29.32.27-2.21-.32-3.43-2.36-4.47s-4.16-2.08-6.16-3.26c-16.32-9.63-32.34-19.74-46-33a135.57,135.57,0,0,1-11.91-12.91c-4.27-5.41-8-11.25-11.9-16.93-6-8.76-11.47-17.85-15.37-27.79-2.17-5.53-4.26-11.1-6.42-16.75,1-1,1.64-1.64,2.32-2.29a182.18,182.18,0,0,1,25-19.66,266.15,266.15,0,0,1,43.82-23.79,122.74,122.74,0,0,1,27.71-8,7.45,7.45,0,0,1,1.74-.08c2.87.2,5.75.32,8.6.68,9.5,1.19,19,2.29,28.47,3.77a107.55,107.55,0,0,1,20.37,4.82c6,2.19,12.05,4.18,18,6.42A102.91,102.91,0,0,1,577,1639.43c5.6,3.87,10.91,8.17,16.25,12.4,3.85,3,7.54,6.29,11.28,9.46.77.65,1.49,1.38,2.32,2.15C606.32,1664.49,605.91,1665.43,605.4,1666.32ZM635.93,1393c-2.07,1.6-2.09,1.86-1.11,4.36.66,1.68.74,3.21-.49,4.66a8.16,8.16,0,0,0-1,1.36c-.83,1.54-2.36,1.84-4.23,2.12a12.65,12.65,0,0,0-2.31.57c-5.6,2-5.73.91-5.83,3.38,0,.22,0,.45,0,.67.06,2-1.12,2.91-4.74,3.37a10.48,10.48,0,0,0-5.89,2.9c-1.42,1.36-2.43,1.59-3.61,1.16-1.62-.6-3.26-1.16-4.89-1.74l-1.2-.43-.81,4.52q-1.54,8.58-3.09,17.16c-.56,3.14-1.07,6.29-1.65,9.42-.47,2.55-1.09,5.08-1.51,7.64a30.89,30.89,0,0,0-.4,4.77c-.05,4.91,0,9.83-.06,14.74-.06,3-.35,6-.6,9-.32,3.9-.73,7.78-1.06,11.68a1.49,1.49,0,0,1-1.15,1.43,37.8,37.8,0,0,1-13.69,2c-2.13,0-4.25-.11-6.37-.19-.5,0-1-.1-1.5-.17a1.48,1.48,0,0,1-1.42-1.4c-.1-.83-.25-1.66-.31-2.5-.33-4.35-.63-8.7-1-13.05-.08-1.11-.27-2.22-.33-3.34-.12-2.09-1.4-3.74-2.06-5.62-.75-2.16-1.54-4.31-2.38-6.43s-1.81-4.45-2.78-6.65c-1.13-2.56-2.34-5.08-3.48-7.63-.59-1.31-.53-1.64.57-2.63a11.88,11.88,0,0,1,3.17-2.42c2.79,4.57,6.48,8.45,8.41,13.47l.34,0a10.86,10.86,0,0,0,.53-1.28q1-3.65,2-7.31a1.67,1.67,0,0,0,0-.94,70.88,70.88,0,0,0-5.68-13.6c-1.41-2.45-2.25-5.23-3.43-7.83-1.95-4.27-4-8.51-6-12.9-1.75.15-3.37.16-4.95.45-4.28.78-8.2-.58-12.12-1.92a1.49,1.49,0,0,1-.39-.2c-1.87-1.35-3.7-2.75-5.59-4.07a3,3,0,0,1-1.23-1.5c-.7-1.94-1.54-3.84-2.23-5.78a55.9,55.9,0,0,1-1.9-6.1,3.11,3.11,0,0,0-1.74-2.07,3.53,3.53,0,0,1-2.09-3c-.22-1.82-.65-3.62-.94-5.44a4.07,4.07,0,0,1,.48-2.89c.86-1.43,1.47-3,2.42-4.39a16.24,16.24,0,0,1,2.86-3,56,56,0,0,0,7.51-7.65c1.45-1.83,3-3.6,4.41-5.44a4.11,4.11,0,0,1,2.66-1.59,58.94,58.94,0,0,1,7-1.08,63.22,63.22,0,0,0,19-3.9,17,17,0,0,1,11.91.23,53.5,53.5,0,0,0,5.75,1.8,14,14,0,0,0,4,.14,9.09,9.09,0,0,1,3.92.64c3.45,1.29,6.79,2.91,10.51,3.4a4.57,4.57,0,0,1,2,1.13c2.17,1.76,4.3,3.57,6.44,5.36,1,.86,1.54,1.86,2,3.89a9.53,9.53,0,0,0,5.36,1.41,5.08,5.08,0,0,1,2.77.85,44.55,44.55,0,0,1,9.48,8.42c1.21,1.46,2.64,2.72,3.94,4.1a5.83,5.83,0,0,1,1.18,1.75C638,1390.74,637.41,1391.85,635.93,1393Zm61.94-228.62a11.49,11.49,0,0,1-2,2.23,4.18,4.18,0,0,1-.77.47,10.44,10.44,0,0,1-2.87,1.06,1.18,1.18,0,0,1-.76,0,1.59,1.59,0,0,0-.42-.08,20.48,20.48,0,0,1-3.35-.84,2.42,2.42,0,0,1-1.24-1,10.7,10.7,0,0,1-1.43-3.23,8,8,0,0,1-.25-2.83.84.84,0,0,1,.09-.37A9.06,9.06,0,0,1,686,1158a10.61,10.61,0,0,1,1.35-1.33,16,16,0,0,1,3.24-1.62,2.18,2.18,0,0,1,1.67-.06c.42.15.86.26,1.28.41a2.71,2.71,0,0,1,.65.33c.77.55,1.53,1.13,2.3,1.69a1.72,1.72,0,0,1,.61.77,13.4,13.4,0,0,1,.87,3.17c0,.64,0,1.64,0,2.63A.69.69,0,0,1,697.87,1164.37Zm-1.39-866.79c-3.49,9.48-6.28,19.26-10.35,28.48-5.36,12.13-12.53,23.31-23.61,31.1-7.22,5.08-15.41,7.06-24.19,3.78-3.33-1.25-3.29-1.17-5.38,1.86-1.77,2.56-3.68,5-5.58,7.5a2.45,2.45,0,0,1-1,.75c-8.47,3.74-17.08,4.73-25.65.21a14,14,0,0,0-13.67.14c-12.7,7.52-25.57,7.11-38.09.28-6-3.28-11.68-7.15-17.47-10.82a4.17,4.17,0,0,0-4.42,0c-4.47,2.76-9.12,5.32-14.39,6-6.88.91-12.68-1.8-17.8-6.15-2.33-2-4.52-4.11-6.78-6.17a11.45,11.45,0,0,1-11.34,1.81,5.21,5.21,0,0,1-1.67-1,54.72,54.72,0,0,1-12.88-16.15,98.51,98.51,0,0,1-9-25.79,67.09,67.09,0,0,1-1.12-12.69c.37-13.39,1.19-26.76,1.84-40.14a14.88,14.88,0,0,1,.45-2.77,167.07,167.07,0,0,1,12.05-31.59c2-3.83,3.92-7.68,5.92-11.49,3.18-6.07,8.45-9.74,14.59-12.32a6.81,6.81,0,0,1,2.79-.41,39.23,39.23,0,0,1,12.9,3.25c1.21.57,2.48,1,3.88,1.55a44.11,44.11,0,0,0,2.91-4.86c4.63-10.64,13.52-14.4,24.27-15.2,5-.37,10-.48,14.79,1.35a27.33,27.33,0,0,0,4.35.85c1.06-11.49,2.37-22.68,1.3-34s-4.47-22.12-8.71-33.12c1.53-.22,2.69-.48,3.88-.55,2.49-.16,5,0,7.47-.37,2.89-.45,4.86.56,6.83,2.6a93.47,93.47,0,0,1,22.49,39.19,234.08,234.08,0,0,1,7.58,34.22,17.32,17.32,0,0,0,.92,2.69c.55-.53.86-.88,1.21-1.17,7.27-5.76,15.86-7,24.73-6.93,8.13.09,15.08,3.15,20.25,9.56,1.61,2,3.08,2.5,5.48,1.5,9.72-4,18-.73,25.46,5.52,8.69,7.31,13.77,17.14,17.78,27.47a187.14,187.14,0,0,1,7.25,22.34c1.3,5.23,1.31,10.79,1.83,16.2.17,1.8.08,3.63.22,5.44A42,42,0,0,1,696.48,297.58ZM978,1751.13c-1.87-.44-3.76-.82-5.61-1.34a137.58,137.58,0,0,0-17.83-3.88,168.39,168.39,0,0,1-23.48-5c-1-.28-1.9-.64-3-1,1-2.69,2-5.2,2.86-7.77s1.48-5.33,2.21-8l-.38-.13a1.32,1.32,0,0,0-.36.26c-.42.62-.84,1.24-1.21,1.89a57.5,57.5,0,0,0-4.77,11.69c-.13.43-.34.85-.52,1.3a12.55,12.55,0,0,1-2.13-.77,41.94,41.94,0,0,0-9.62-3.12c-10-2-19.89-4.46-29.78-6.9-11.35-2.8-22.59-6-34.15-7.87a52.44,52.44,0,0,1-8.48-2.1c-4.55-1.53-7.89-2.47-12.19-3.73,1.6-4.95,3.65-9.55,4.55-14.52a48,48,0,0,0-7.2,13.6,7.07,7.07,0,0,1-1-.19c-3.41-1.25-6.83-2.46-10.2-3.79a55.9,55.9,0,0,1-14.08-7.85,16.94,16.94,0,0,1-5.71-8.49,40,40,0,0,1-1.17-4.66c-.49-2.54-1.66-5-1.16-7.67a9.78,9.78,0,0,0-1-.41l-10.95-3a10.84,10.84,0,0,0-2.3-.59c-4.43-.2-8.86-.33-13.28-.46a113.23,113.23,0,0,0-18.35,1.37,13.39,13.39,0,0,1-1.49,0l-.14-2.08c5.1-1,10.12-1.13,15.08-1.65s10,.51,15,.45a237.28,237.28,0,0,0-30.07-5.19,7.44,7.44,0,0,1-.07-3.52l2.57.42c1.69.28,3.37.56,5.06.82,3.48.54,7,1,10.45,1.64,3.25.63,6.44,1.5,9.67,2.25l13.88,3.23c1.63.38,3.26.72,4.89,1.08l.09-.3c-7.68-2.55-14.93-6.19-22.87-8.16a239.15,239.15,0,0,0-24-4.56l.16-4.34a8.17,8.17,0,0,1,1.62.1,15.46,15.46,0,0,0,2.35.41c9.39.76,18.27,3.48,27,6.61,6.4,2.29,12.39,5.49,18.54,8.33.56.26,1.15.48,1.77.74a12.16,12.16,0,0,1,5.06-4.25c2.38-1,4.82-1.76,7.25-2.61a.85.85,0,0,1,.25,0c2.09.05,4.18.09,6.26.19,1.71.08,3.41.19,5.11.38a27.56,27.56,0,0,1,2.9.64,82.67,82.67,0,0,1-2.26,9.78,12.83,12.83,0,0,0-.48,5.53c.19,1.58-.32,3.2.38,4.77a74.25,74.25,0,0,0,3.27-9.33c.92-3.15,1.62-6.37,2.44-9.62,1.51.26,1.63-.08,3.26,2.38a1.89,1.89,0,0,0,2.06.74c3.35-.84,6.17,1,9.25,1.8,2.27.56,4.62.87,6.83,1.6,6.11,2,12,4.88,18.05,6.86a30.08,30.08,0,0,1,7.57,3.76c6.25,4.24,12.71,8.26,19.35,11.92,4.06,2.24,8.24,4.28,12.34,6.45a38.76,38.76,0,0,0,7.33,3.15,85.41,85.41,0,0,1,12.34,4.45q5.08,2.36,10.19,4.65a82.34,82.34,0,0,1,15.25,8.42,135.3,135.3,0,0,1,12.86,10.55c4.07,3.85,7.93,7.92,11.89,11.9.89.9,1.81,1.77,2.94,2.88C978.47,1751.18,978.22,1751.18,978,1751.13ZM1034,1244.51c-5.62.31-11.23.79-16.82,1.46-5.19.63-10.32,1.75-15.5,2.42a47.44,47.44,0,0,0-19.84,7.24c-3,1.91-4.38,4.87-6.17,7.61-2.18,3.35-4.08,6.9-6.4,10.15-4.23,5.92-8.55,11.78-13.07,17.48-3.24,4.08-6.81,7.91-10.33,11.77-4.09,4.48-8.22,8.92-12.48,13.23q-.85.86-1.76,1.66Q919.81,1328,907.9,1338.4c-.61.53-1.34.94-2,1.42-6.71,4.91-13.43,9.81-20.08,14.8-.39.29-.77.6-1.14.91-10,8.53-22.28,13.44-34.12,18.61a44.62,44.62,0,0,1-4.82,1.7c-4.38,1.23-8.66,3.47-13.19,4.53-4.77,1.12-9.59,2-14.42,2.81-3.52.58-7.09.94-10.65,1.26-4.88.44-9.76.76-14.65,1.1-3,.2-5.92.38-8.89.5-4.3.18-8.6.41-12.9.4a65.6,65.6,0,0,1-11.22-.61,124.16,124.16,0,0,1-15.6-3.85c-4.54-1.44-8.89-3.5-13.32-5.3-1.81-.73-1.92-1.33-.91-3,3-5.08,5.87-10.21,8.85-15.29,2.8-4.77,5.76-9.46,8.48-14.28s5.07-9.58,7.65-14.34,5.16-9.51,7.85-14.2c3.26-5.69,6.63-11.32,10-16.93a3.41,3.41,0,0,1,.57-.71,72.91,72.91,0,0,1,7.74-6.86c5.19-3.69,10.6-7.06,15.83-10.69,6.16-4.29,13.47-5.45,20.4-7.6.7-.22,1.85-.53,2.57-.68,8.72-1.82,17.53-3.18,26.31-4.67,2-.33,4-.74,5.95-1,4.38-.57,8.77-1.05,13.16-1.58,3.53-.43,7.05-.89,10.58-1.29,5.45-.63,10.93-1,16.34-1.9a86.1,86.1,0,0,0,10.4-2.76c7.58-2.23,15.15-4.49,22.68-6.87a9.27,9.27,0,0,0,1.52-.66c3.72-2,8.12-2.82,11.69-5,4.58-2.83,8.72-6.38,13.24-9.32,4-2.58,7-6,10-9.52a67.21,67.21,0,0,0,8.41-12.68c2-3.82,3.87-7.74,5.72-11.64,2.08-4.39,4-8.85,6.11-13.23s4.46-9,6.72-13.42c.1-.2.39-.31.73-.55,3.49,15.35,7.19,30.4,6.59,46.23,20.38,2.43,38.06,11.62,55.91,21.82C1045.58,1244.17,1039.8,1244.19,1034,1244.51Zm-303.68-65.58a2.37,2.37,0,0,0,.09-.64,30.94,30.94,0,0,1,1-5.12,3.65,3.65,0,0,1,1.43-2,16.17,16.17,0,0,1,4.74-2.43,12.05,12.05,0,0,1,4.24-.62,1.27,1.27,0,0,1,.56.1,13.71,13.71,0,0,1,2.64,1.67,16,16,0,0,1,2.13,1.92,24.22,24.22,0,0,1,2.73,4.74,3.29,3.29,0,0,1,.23,2.51c-.2.64-.31,1.31-.51,2a4.08,4.08,0,0,1-.45,1c-.77,1.21-1.57,2.41-2.34,3.62a2.61,2.61,0,0,1-1.1,1,20.24,20.24,0,0,1-4.7,1.58c-1,.06-2.47.17-4,.25a1,1,0,0,1-.54-.19,17.36,17.36,0,0,1-3.54-2.88,6.31,6.31,0,0,1-.77-1.13,15.75,15.75,0,0,1-1.85-4.23A1.79,1.79,0,0,1,730.37,1178.94Zm44.55-59.46a5.79,5.79,0,0,1,3.63,1.26,25.63,25.63,0,0,1,5.9,6.06,19.1,19.1,0,0,1,2.92,6.14,2,2,0,0,1,.11.9,21.78,21.78,0,0,1-1.3,4.79,25.42,25.42,0,0,1-1.92,4.12,38.43,38.43,0,0,1-5.92,6.34,5.23,5.23,0,0,1-3.71,1.52c-1.07,0-2.14.13-3.21.14a6.48,6.48,0,0,1-1.74-.21c-2.2-.6-4.38-1.26-6.58-1.87a4.14,4.14,0,0,1-2-1.21,32.13,32.13,0,0,1-4.59-6.4c-.55-1.44-1.41-3.67-2.23-5.9a1.65,1.65,0,0,1,0-.9,27.57,27.57,0,0,1,2.72-6.71,10,10,0,0,1,1.35-1.7,25,25,0,0,1,5.56-4.77,2.84,2.84,0,0,1,1.75-.54,3.79,3.79,0,0,0,1-.17A49.12,49.12,0,0,1,774.92,1119.48Zm-.73-354.67s.39-10.37,1.45-16.81c.07-.44.66-3.13.82-3.58A47.63,47.63,0,0,1,783.09,733l0-.06a19.28,19.28,0,0,1,1.73-1.92c2.65-2.5,12.2-8,12.2-8l16.58-5.72,13.57.79,18.08,2.76s7.06,4.15,9.34,5.65c.7.46,4.25,2.94,5.06,3.52l4.26,3.06c2.93,2.12,5.32,3.87,5.32,3.87l9,9.06,7.77,15.11,2,4.71,4.05,9.41s4.55,12,4.61,12.13,7.38,10,7.38,10l15.41,18.82,21.28,17.6,21.24,17.45,21,18.31L998,884.64s7.95,6.1,9.06,9.11c.72,2-.66,8.39-.66,8.39l-3.8,5.49-5.23,5.46-5.66,3.82-5.72,0L978,912.16l-51.62-42.51L904.8,854.36,879,839.4s-9.66-6.27-13.21-7.66c-2.11-.82-6.62-1.48-8.83-2-5.59-1.25-22.08-6.12-22.08-6.12L811,814.59l-16.29-9.48L783.54,791.4l-1.59-3.5h0c-1.1-2.44-2.53-5.68-3.54-8.16-.39-1-.72-1.81-.94-2.45C776.41,774.23,774.19,764.8,774.19,764.8ZM1051.35,324l-8.11,16.08-9.1,13.47-7.85,8.66h0l-8.72,7.08c-8.2,6.64-16.48,13.2-24.55,20-6,5-11.66,10.42-17.49,15.64q-8.27,7.39-16.58,14.75-7.51,6.64-15.08,13.22a43.48,43.48,0,0,1-11.76,7.68c-1.68.69-3.32,1.49-5,2.29a21.72,21.72,0,0,1-7.8,2.21l-3.42.32c-1.49,2.33-3,4.65-4.63,6.89-4.64,6.42-11.19,10.09-18.26,13-1.09.44-2.2.83-3.31,1.21a92.6,92.6,0,0,1-6.24,11.7A80.61,80.61,0,0,1,875,489.3a16.42,16.42,0,0,1-6.54,4.47c-4,1.5-7.93,3.14-12,4.38a29.86,29.86,0,0,1-8.22,1.4c-2.71,0-5.42,0-8.1-.24A22.22,22.22,0,0,1,837,503q-1,.85-2,1.69a20.47,20.47,0,0,1,1.78,3.59c.59,1.57,1.5,3,2.05,4.6.75,2.15,1.34,4.36,1.94,6.56.32,1.18.44,2.42.78,3.59a25.1,25.1,0,0,1,.53,11.84,31.71,31.71,0,0,1-3.82,10.72c-1.29,2.14-2.34,4.44-3.58,6.61A22.66,22.66,0,0,1,823.36,562c-2.62,1.11-5.15,2.42-7.74,3.59-5,2.28-10.45,3.08-15.81,4.1-5,.94-10,.49-15,.81a21.72,21.72,0,0,1-9.66-1.8c-.57,1.87-1.24,3.7-2,5.52s-1.48,3.55-2.21,5.32l-.38.92c-.33.82-.69,1.62-1.07,2.42s-.78,1.57-1.22,2.32a24.21,24.21,0,0,1-3.08,4.24c-.94,1-1.9,2-2.91,2.9l-.34.29a31.11,31.11,0,0,1-3,2.35,25.38,25.38,0,0,1-3.58,2,23,23,0,0,1-4,1.42,78.26,78.26,0,0,1-15.51,2.26,12.8,12.8,0,0,1-1.63,0,9.56,9.56,0,0,1-4.58-1.51c-1.27-.82-2.56-1.62-3.85-2.41-1.5-.92-3-1.83-4.49-2.78-.92-.59-1.83-1.18-2.73-1.8q-.9-.62-1.72-1.3a33.38,33.38,0,0,1-7.87-10q-.51-.94-1-1.91a121.23,121.23,0,0,1-5.1-11.64q-.73-2-1.37-4-.4-1.27-.7-2.55a29.88,29.88,0,0,1-.81-7.68q0-1.28.2-2.56a26.47,26.47,0,0,1,2.18-7.64c.65-1.44,1.37-2.83,2.12-4.18q.5-.9,1-1.79c.78-1.3,1.6-2.58,2.48-3.81q1.62-2.28,3.44-4.42t3.81-4.17a35.24,35.24,0,0,1,5.36-4.36c2.2-1.5,4.48-2.86,6.69-4.35a4.43,4.43,0,0,1,1.69-.52q1.27-.22,2.52-.35a30.65,30.65,0,0,1,16.9,3.13c.34.17.68.32,1,.47l1,.47.1-.15,0,0c1.61,1,3.24,2.08,4.86,3.12.39-1.34.81-2.67,1.3-4a33.33,33.33,0,0,1,5.84-10c1.77-2.08,3.55-4.15,5.39-6.16a13.49,13.49,0,0,1,2.39-2.07l0,0q-2.46-2.58-4.84-5.28a47.67,47.67,0,0,1-8.91-16,35.86,35.86,0,0,1-1.34-20.08,104.37,104.37,0,0,1,3-10.93c1.66-4.85,4.79-8.91,7.37-13.26,2.69-4.52,6.47-8,10.5-11.07a31.84,31.84,0,0,1,7.7-3.8A64.57,64.57,0,0,1,808.22,415a25.27,25.27,0,0,1,4.71-5c3-2.19,5.85-4.71,9.09-6.46a30.81,30.81,0,0,1,3.68-1.65,76.47,76.47,0,0,1,10.82-19.94,15.12,15.12,0,0,1,4.09-3.78c4.28-2.6,8.67-5,13.07-7.37s9.07-2.72,13.79-3.31c.61-.08,1.21-.11,1.81-.13,2.3-3.52,4.83-6.88,7.36-10.23,3.3-4.37,7.6-7.51,12.22-10.25,2.77-1.64,5.55-3.28,8.29-5q10.74-6.63,21.45-13.33c2.67-1.68,5.23-3.55,7.91-5.22,8.92-5.58,17.83-11.18,26.81-16.64,4.25-2.58,8.57-5.08,13-7.26,10.06-4.9,20.21-9.61,30.36-14.33l15.16-4.18,12.63-.9,11.67,1.92,12.48,9,3.85,8.6.33,12.33Z"/><path class="cls-1" d="M638.54,852.91,613,852.82c-.08-.57-.18-1.06-.22-1.56-.22-2.76-.47-5.52-.62-8.28-.47-8.15-1-16.3-1.33-24.45-.46-10.41-.83-20.82-1.2-31.23q-.35-10.06-.58-20.12c-.18-7.69-.36-15.39-.43-23.08-.1-9.76-.09-19.52-.13-29.28,0-.36,0-.73.08-1.24,10-.88,20.05-.84,30.08-.92a4.15,4.15,0,0,1,.24.83c.06,2-.22,4,0,6a52.67,52.67,0,0,1-.16,5.61c-.07,6.33-.14,12.66-.16,19,0,4.78.11,9.57.06,14.35-.06,5.3-.29,10.6-.36,15.9s0,10.51,0,15.76c0,8.91-.09,17.83-.05,26.74,0,5.49.25,11,.33,16.46.08,5.77.1,11.54.14,17.31C638.64,851.33,638.58,852,638.54,852.91Z"/><path class="cls-1" d="M577.91,839.85c0-11.09-.19-22.18-.33-33.27q-.18-14.51-.46-29c-.3-15-.6-30-1-45-.31-11.76-.74-23.52-1.14-35.28-.14-4-.35-8-.54-12,0-.72-.12-1.43-.19-2.25L551,681.78c0,1.28-.1,2.28-.09,3.28,0,8.31,0,16.62.08,24.94.06,7.91.25,15.82.25,23.73,0,11.82-.07,23.64-.11,35.46-3.3-.11-6.6-.23-9.9-.32-7-.2-14-.31-21-.42q-9.17-.14-18.34-.19l-7,0c-.21-23.46-.5-43.88-.73-44.91-1.32-.24-21,.5-22.83.89-.06.55-.13,1-.15,1.52-.11,2.85-.24,5.71-.3,8.56-.16,7.68-.25,15.37-.42,23.05-.08,3.64-.2,7.29-.29,10.93-6.34.06-12.68.19-19,.31-2.52,0-5,.17-7.56.28-.45,0-.9.09-1.43.14l-1,23.24c.81.07,1.44.15,2.07.17,5.25.17,10.51.36,15.76.48,3.45.08,6.89.12,10.34.18,0,1.09-.1,2.18-.13,3.27-.18,8.77-.26,17.53-.38,26.3q-.11,8.19-.22,16.38c0,.34,0,.67,0,1,2.27.78,23.67.4,26.39-.43.21-1.58.19-22.13,0-45.53l3.26.14c4.78.2,9.57.35,14.35.6s9.64.65,14.46.89c4.35.22,8.72.27,13.07.46,3.61.15,7.23.34,10.84.51-.09,7.07-.28,14.14-.35,21.21-.06,6.89,0,13.79,0,20.68q-.06,13.68-.2,27.35c0,2.7-.32,5.41-.16,8.07.17,2.93-.09,5.79,0,8.68a9,9,0,0,0,.21,1.2c9.14.32,18.27.82,27.42,0,0-.74.08-1.26.08-1.79C577.94,868,578,853.91,577.91,839.85Z"/><path class="cls-1" d="M562.71,997.86c7.62,14.42,15,28.68,21.9,43.41-.61.05-1,.12-1.45.12l-22.58-.27a11.78,11.78,0,0,0-1.58,0,2.06,2.06,0,0,1-2.41-1.48c-1.1-2.54-2.38-5-3.57-7.51-1.6-3.37-3.18-6.76-4.77-10.13-1.37-2.9-2.77-5.79-4.14-8.69-.88-1.87-1.81-3.71-2.54-5.64a26.19,26.19,0,0,0-2.24-4.35c-.56-.93-1.59-2.79-1.53-2.2-.23.06-16.64.65-24.61.86s-15.76.4-23.64.55c-7,.13-13.91.19-20.87.29q-9.11.13-18.23.27-22.52.38-45,.78c-2.82.05-5.63.18-8.44.28a11.36,11.36,0,0,0-1.16.17c-.06,1.13-.12,2.21-.17,3.3-.07,1.71-.18,3.43-.17,5.14,0,1.45.14,2.89.24,4.34.34,5,.69,10.1,1,15.15q.29,4.34.53,8.68c0,.56,0,1.13,0,1.83-6.87.74-22.87,1.72-23.85.76-.05-.35,0-1.85-.09-2.41q-.2-2.5-.36-5c-.06-1-.08-2-.12-3-.36-8.08-.71-16.17-1.1-24.25-.36-7.52-.79-15-1.16-22.54-.44-8.75-.84-17.5-1.28-26.25-.24-4.7-.53-9.4-.77-14.11-.36-6.9-.69-13.8-1-20.71-.15-2.9-.31-5.8-.46-8.7,0-.48,0-1,0-1.59.64-.05,1.14-.13,1.65-.13l9.11,0c4.14,0,8.28,0,12.41,0,9.86.07,19.72.18,29.58.23q13.66.06,27.33,0,9.64,0,19.28-.11c7.13-.07,14.26-.19,21.39-.28,5-.07,10-.18,15-.19,5.72,0,11.44.09,17.15.12,4.53,0,9.07-.07,13.6,0,3,.06,6,.24,8.95.58,3.93.45,7.84,1.09,11.75,1.7a56.18,56.18,0,0,1,15.05,4.7q4,1.85,7.94,3.88a33,33,0,0,1,6.65,5.18,51,51,0,0,1,7.73,9A46.94,46.94,0,0,1,597.37,952c.77,2.33,1.36,4.73,2,7.1a10.75,10.75,0,0,1,.28,2.22,27.78,27.78,0,0,1-.49,7.75,18.91,18.91,0,0,1-1.64,4,26.33,26.33,0,0,1-5.37,7,80.2,80.2,0,0,1-6,5.53c-4.43,3.48-9,6.82-14.31,8.83-.95.36-1.94.59-2.88,1C566.91,996.15,564.92,997,562.71,997.86ZM392.46,940.32c-.29,13,.16,25.87.94,38.78.28,0,.54,0,.8,0,3.17,0,6.34-.06,9.51,0,5.72.06,11.44.18,17.16.25,4.89.06,9.77.06,14.66.1,7.09.05,14.17.16,21.26.16,6.73,0,13.47-.09,20.2-.21,8.89-.15,17.78-.32,26.67-.56,6.29-.17,12.58-.36,18.86-.74a112.33,112.33,0,0,1,13.84,0,35.24,35.24,0,0,0,9.2-.6,112.44,112.44,0,0,0,16.1-4.62,16.86,16.86,0,0,0,7.25-4.91l2.72-3.21a16.37,16.37,0,0,0,.93-4.21c.31-3.84-.06-7.59-2.13-10.92a16.55,16.55,0,0,0-5.45-5.82c-1.51-.89-3.08-1.69-4.62-2.54a6.56,6.56,0,0,0-2.84-.9c-3.15-.18-6.29-.53-9.44-.77a38.54,38.54,0,0,1-4.73-.27,39.48,39.48,0,0,0-6.68-.4c-4.82-.16-9.65,0-14.48.05-2.81,0-5.62-.06-8.43-.05-6.07,0-12.12.62-18.2.33-2.77-.13-5.54-.11-8.32-.16l-15.45-.27c-4.49-.08-9-.15-13.47-.25-5.46-.13-10.91-.4-16.37-.42-7.22,0-14.44.1-21.66.24-8.77.17-17.49,1-26.23,1.66C393.6,940.1,393.13,940.21,392.46,940.32Z"/><path class="cls-1" d="M624,950.47c-.28-4.44,1.34-8.27,3.69-11.86,5.32-8.1,11.82-15,20.79-19.11a49.51,49.51,0,0,0,4.64-2.45,16.48,16.48,0,0,1,6.51-2.15c8.22-1.06,16.23-.3,23.81,3.14,2,.9,3.61,2.56,5.35,3.94,5.34,4.25,9.41,9.64,13.45,15.07a66.21,66.21,0,0,1,7.25,12.82,25.93,25.93,0,0,1,2.3,9c.22,3.57.39,7.14.47,10.71a9.07,9.07,0,0,1-.51,3.27c-1.37,3.73-2.93,7.39-4.29,11.12-1.45,4-4.44,6.71-7.28,9.6-5.73,5.85-13,8.79-20.75,10.51-4.73,1-9.53,1.93-14.42,1.45a16,16,0,0,1-3.49-.72A104.35,104.35,0,0,1,638,993.21c-5-3.22-8.07-7.71-10.44-12.94-2.58-5.69-3.24-11.76-3.65-17.88-.14-2.14,0-4.29,0-6.44C623.93,956,624.08,952.29,624,950.47Z"/><path class="cls-1" d="M713,1021.22l0,18c-.36.06-.66.12-1,.15-1.72.14-3.44.31-5.17.41-5.09.3-10.18.62-15.27.84-6.5.29-13,.5-19.5.72q-6.28.21-12.56.33c-4.8.1-9.61.19-14.41.22-6.09,0-12.19,0-18.29,0-.23,0-.46,0-.78-.06-.59-7.08-.6-14.13-.69-21.19a2.34,2.34,0,0,1,.51-.16c1.25,0,2.5.17,3.76,0a29.21,29.21,0,0,1,3.5.13c4,.08,7.91.15,11.86.19,3,0,6,0,9,0,3.31.06,6.62.24,9.93.31s6.56.06,9.84.09c5.57,0,11.13.13,16.7.14,3.43,0,6.85-.13,10.28-.17,3.6,0,7.21,0,10.81,0C712,1021.14,712.46,1021.19,713,1021.22Z"/></g></g></svg>