<svg xmlns="http://www.w3.org/2000/svg" viewBox="0 0 1920 1080"><defs><style>.cls-1{fill:#231f20;}.cls-2{fill:#fff;}</style></defs><title>Asset 14</title><g id="Layer_2" data-name="Layer 2"><g id="Design"><path d="M151.93,252.38a133.61,133.61,0,0,0-3.31,22.78c-.52,7.18-.11,14.44,0,21.66.15,9.89.47,19.77.58,29.66.09,7.44.08,14.89-.1,22.34a58.7,58.7,0,0,1-1.11,9.7c-.75,3.88-1.9,7.68-2.84,11.52-1.35,5.55-2.41,11.18-4,16.65-3.49,11.83-7.89,23.39-10.54,35.47-1.1,5-2.83,9.88-3.59,14.91-1.72,11.4-3.58,22.84-4.32,34.33s-.34,23.05-.11,34.58c.16,8,.91,16,1.37,24,.43,7.57.6,15.16,1.33,22.7.4,4.18,1.7,8.28,2.59,12.41l.75-.07a14.2,14.2,0,0,0,.41-1.86c.49-5.57,1.2-11.14,1.35-16.72.21-7.57-.2-15.15,0-22.72.3-13.4.83-26.79,1.27-40.18.91-27.94,6.7-55,14.82-81.64,2.21-7.25,4.67-14.43,6.47-21.78,4.68-19.16,5.77-38.69,5.24-58.33q-.44-16.26-1.11-32.51c-.41-10.07,1-20,2.21-29.95a77.9,77.9,0,0,1,9.19-27.74c2.56-4.7,5.45-9.23,8.27-13.78.6-1,1.24-1.7-.26-2.78-1.33,1.21-2.76,2.37-4,3.68a77.53,77.53,0,0,0-13.58,18.11C156.23,241.85,153.29,246.95,151.93,252.38Z"/><path d="M518.67,368.68c1.17-.21,2.33-.51,3.5-.73,2.12-.4,4.25-.77,6.38-1.17,1-.19,2-.41,3.05-.64,2.35-.53,4.68-1.14,7-1.61a62.54,62.54,0,0,0,12.61-4c2.61-1.13,5.26-2.14,7.88-3.23,2.15-.9,4.33-1.76,6.42-2.79,2.44-1.22,4.82-2.57,7.19-3.93s4.83-2.89,7.22-4.39c.91-.57,1.73-1.28,2.58-1.93.11-.09,4.13-5.29,5.56-7a27.44,27.44,0,0,0,3.5-4.79,20.52,20.52,0,0,0,1.59-5.35,66.71,66.71,0,0,0,.95-6.94c.2-2.21.27-4.45.26-6.67a58,58,0,0,0-.35-6.3c-.22-1.89-.65-3.76-1-5.63-.52-2.51-1-5-1.67-7.5-.5-2-1.31-3.87-1.73-5.85-.66-3.13-2.45-5.7-4-8.4-1.39-2.51-2.94-4.94-4.53-7.33a41.3,41.3,0,0,0-5.19-5.91,35.29,35.29,0,0,0-7.48-6.33c-2.26-1.29-4.64-2.37-7-3.49a59.74,59.74,0,0,1-6.43-3,9.36,9.36,0,0,0-5.22-1.14c-2,0-3.93-.12-5.89-.06a30.41,30.41,0,0,0-4.52.44c-3,.54-5.89,1.21-8.84,1.81-1.31.27-2.64.42-3.92.78a5.37,5.37,0,0,0-1.55,1.06c-.16.12-.26.33-.42.46-1.81,1.55-3.63,3.1-5.43,4.66q-3.55,3.07-7.08,6.16c-1.44,1.25-2.9,2.47-4.3,3.77-2.11,2-4.17,4-6.24,6-1.39,1.36-2.78,2.71-4.1,4.13-1.57,1.69-3.07,3.46-4.6,5.19-1.07,1.2-2.19,2.34-3.22,3.57-1.78,2.13-3.53,4.3-5.26,6.47-.9,1.13-1.73,2.32-2.61,3.51,1.19,1.46,2.34,2.89,3.52,4.3,1.32,1.57,2.76,3.05,4,4.69,1.46,1.93,2.79,4,4.11,6,1.51,2.33,3,4.71,4.43,7.07a22.9,22.9,0,0,1,1.75,2.89c.73,1.7,1.29,3.47,1.93,5.21a2.44,2.44,0,0,0,.25.42c.86-.85,1.66-1.7,2.52-2.49,1-.95,2.11-1.83,3.15-2.77,1.58-1.44,3.1-2.94,4.71-4.34a1.76,1.76,0,0,1,1.87-.6c2.88.86,5.82,1.52,8.73,2.27a.75.75,0,0,1,.45.39c.37.94.71,1.9,1.05,2.85.15.42.29.85.44,1.27.8,2.26,1.55,4.53,2.41,6.77.46,1.2-.23,2-.79,2.82-.68,1-1.3,2.1-2,3.14a26.6,26.6,0,0,1-1.91,2.78c-1.08,1.27-2.26,2.44-3.41,3.64a1.58,1.58,0,0,1-1.86.43,14,14,0,0,0-2.14-.29c-1.3-.24-2.59-.58-3.9-.78-1-.16-2.11-.14-3.16-.26-.76-.08-1.5-.26-2.54-.45.39,1.55.67,2.93,1.1,4.25.71,2.2,1.52,4.38,2.3,6.56.35,1,.75,1.94,1.08,2.93.59,1.78,1.19,3.57,1.71,5.38.36,1.25.56,2.54.87,3.81a10.28,10.28,0,0,0,.46,1.25c.87-.18,1.61-.36,2.35-.49C516.45,369,517.57,368.88,518.67,368.68Z"/><path d="M679.64,145.43l.28,0c0-.59,0-1.19,0-1.78a84.94,84.94,0,0,1,.94-11q.8-4.88,1.58-9.76c.05-.33.06-.67.1-1.09-1.24,1.26-3.3,8-3.62,11.6A46.76,46.76,0,0,0,679.64,145.43Z"/><path d="M119.33,601.31q-.78-19-1.29-38.09c-.25-9.92-.38-19.84-2.66-29.56-2.19-9.31-4.45-18.6-6.68-27.9q-3.5-14.63-7-29.26c-4-16.64-4.27-33.4-2.42-50.36,1.83-16.79,3.9-33.58,3.81-50.52-.06-11.3-.21-22.61-.59-33.91A111.8,111.8,0,0,0,100.88,325c-1.09-5.83-3.12-11.47-4.54-17.24-2.11-8.61-4.12-17.28-3.94-26.22.16-7.92.64-15.83.94-23.75.16-4.28.23-8.56.35-12.84l-.93-.11c-2.43,7.87-5,15.77-5.41,24-.54,10.45-1.23,20.91.56,31.37,1.82,10.68,3.1,21.45,4.71,32.17,1.29,8.53,3,17,3,25.67,0,5.23-.05,10.47-.33,15.7C95,379.39,94.61,385,94,390.52c-1.53,13.19-3.2,26.34-3.66,39.64a159.74,159.74,0,0,0,3.18,37.21c3.57,17.71,8.07,35.23,12,52.87,2.55,11.49,5.43,23,6.07,34.76.7,12.9.78,25.84,1.05,38.76.12,5.87.37,11.73.81,17.57l6.05.35C119.53,608.23,119.47,604.78,119.33,601.31Z"/><path d="M707.81,119.38c-1.7-2.66-3.59-5.2-5.42-7.78a33.51,33.51,0,0,1-3.34-5.5,2.92,2.92,0,0,0-.23-.37l-.11,0a7.84,7.84,0,0,0,.23,1c.56,1.56,1.12,3.12,1.74,4.65A48.88,48.88,0,0,0,708.37,124c1.62,2,3.47,3.78,5.21,5.65a.71.71,0,0,0,.46.23,7.48,7.48,0,0,0-.33-.71C711.75,125.89,709.86,122.58,707.81,119.38Z"/><path d="M692.2,144c1.1-2.07,3.07-16.84,2.65-20.18C692.49,128.18,691,140,692.2,144Z"/><path d="M205.94,867.48a27.08,27.08,0,0,1-1-3.22c-.65-2.45-2.33-4.09-4.2-5.65-2.21-1.85-4.3-3.85-6.44-5.78-.67-.6-1.36-1.16-2.1-1.78-.5.6-.79,1-1.1,1.31a2,2,0,0,0-.11,2.93c3.27,4.13,6.33,8.43,9.67,12.5,3.19,3.89,6.43,7.72,8.78,12.21.21.39.73.62,1.1.93l.47-.23c-.58-1.79-1.08-3.62-1.76-5.37C208.19,872.69,207,870.11,205.94,867.48Z"/><path d="M723.5,148.35c.8-4.33-1.22-14.83-3.4-17.9C719.75,132.51,722.21,145.62,723.5,148.35Z"/><path d="M709.62,661.78c-2-1-4.07-2-6.13-2.87a27.57,27.57,0,0,0-13.36-2.4,75.62,75.62,0,0,0-11.58,2.09c-3.18.73-4,3.36-5.14,5.77a1.07,1.07,0,0,0,0,.76c.68,1.8,1.38,3.59,2.06,5.34a6,6,0,0,0,1.57.93c3.35.65,6.7,1.33,10.08,1.8,4.71.66,9.39-.12,14.06-.68a25.61,25.61,0,0,0,7.93-2.38c.38-.18.88-.46,1-.8a33.27,33.27,0,0,0,1.19-4.46A2.58,2.58,0,0,0,709.62,661.78Z"/><path d="M159.28,470.35c-5.7,16.06-7.38,38.14-5.14,51.71C157.51,505.17,161.78,488.36,159.28,470.35Z"/><path d="M185.09,872.14c-.89.25-1.75.58-2.63.88l-.21-.18c-1.16,1.12-2.37,2.2-3.46,3.39a1.48,1.48,0,0,0,0,1.34,29.82,29.82,0,0,0,2,3.27c.89,1.25,1.83,1.29,3,.32a12.5,12.5,0,0,1,2.29-1.56,2.93,2.93,0,0,0,1.61-2.57,12.84,12.84,0,0,0-.15-3.32C187.27,871.88,186.85,871.65,185.09,872.14Z"/><path d="M1282.76,311.93q.62.77,1.18,1.58a37.11,37.11,0,0,1,2.94,5.06c1.14,2.34,2.09,4.78,3,7.23a6.53,6.53,0,0,1,.3,2.07c0,.24,0,.48,0,.71a29,29,0,0,1-1,8.14,23.16,23.16,0,0,0,8.76,1.75,36.75,36.75,0,0,0,10.34-1,32.12,32.12,0,0,1,4.07-.7,39.25,39.25,0,0,0,23.42-11.33c3.09-3.12,5.77-6.57,6.38-11.11a107,107,0,0,0,.87-11.68,13.34,13.34,0,0,0-.94-5.32,25.55,25.55,0,0,0-6.52-9.45c-.59-.53-1.19-1-1.79-1.48l-.4-.29c-.5-.37-1-.72-1.52-1l-.35-.21c-.56-.34-1.13-.65-1.71-.93l-.21-.1a20.17,20.17,0,0,0-2-.82,19.3,19.3,0,0,0-6.42-1c-1.76,0-3.53.34-5.29.44-4.51.25-8.76,1.69-13,3.16q-1.27.44-2.49,1c-.91.39-1.8.83-2.67,1.3l-.2.11q-1.26.68-2.49,1.44a75.36,75.36,0,0,0-10.23,7.91,17.64,17.64,0,0,0-6,8.83l.63.89C1280.57,308.6,1281.52,310.39,1282.76,311.93Zm29,15.95a5,5,0,0,1-3.13,1.64,27.84,27.84,0,0,1-5.77,0,1.15,1.15,0,0,1-.27-.13c.24-.43.47-.84.71-1.24a17.23,17.23,0,0,1,2.89-3.77,5.78,5.78,0,0,1,4.2-1.38,1.56,1.56,0,0,1,.7.31,3.61,3.61,0,0,1,.56.44A2.71,2.71,0,0,1,1311.78,327.88Zm16.88-9.18q-1.22,1.42-2.51,2.77a6.44,6.44,0,0,1-2.78,1.38,2.85,2.85,0,0,1-2.37-.17c-.19-.1-.4-.18-.61-.27-1.72-.74-1.6-1.39-1.42-2.92a2,2,0,0,1,1.62-1.59,15.6,15.6,0,0,1,6.15-.73c.83.1,1.67.12,2.7.19A9.49,9.49,0,0,1,1328.65,318.69Zm-2.39-15.32a3.48,3.48,0,0,1,.34-.58,2.4,2.4,0,0,1,3.75-.52,4.9,4.9,0,0,1,1.8,2.84,28.3,28.3,0,0,1,.57,5.53,1.15,1.15,0,0,1-.09.28l-1.2-.56a15.74,15.74,0,0,1-3.71-2.4,5.74,5.74,0,0,1-1.67-3.89A1.55,1.55,0,0,1,1326.27,303.38Zm-4.67,4.69a8.4,8.4,0,0,1,5.33,1.2,35.52,35.52,0,0,1,5.28,4.5l0,.26c-1.32.23-2.64.53-4,.67a24.92,24.92,0,0,1-5.08,0,3.56,3.56,0,0,1-3.32-3c-.11-.6-.12-1.22-.17-1.83a1.56,1.56,0,0,1,1-1.61A2.59,2.59,0,0,1,1321.6,308.07Zm-12.28-15.91q2.1-.5,4.22-.87a7.42,7.42,0,0,1,3.55.63,3.44,3.44,0,0,1,2.14,1.82c.12.24.27.45.4.68,1.15,1.9.6,2.44-.59,3.77a2.25,2.25,0,0,1-2.59.38,18.55,18.55,0,0,1-6.32-3.61c-.72-.68-1.51-1.28-2.44-2.07A10.56,10.56,0,0,1,1309.32,292.16Zm-3.61,1.88c.62.45,1,.7,1.39,1a20.35,20.35,0,0,1,4.48,5.1,8.4,8.4,0,0,1,.72,7.18,2.72,2.72,0,0,1-2.42,2,3.17,3.17,0,0,1-3.06-1.36,7.11,7.11,0,0,1-.83-1.71,17.51,17.51,0,0,1-1.12-7A48.68,48.68,0,0,1,1305.71,294Zm-.17,20.93a2.83,2.83,0,0,1,1.24,3.59,14.73,14.73,0,0,1-6.18,8.2c-.64.4-1.3.79-2,1.24a10.85,10.85,0,0,1-.76-5.45,14.79,14.79,0,0,1,1.76-5.58A4.94,4.94,0,0,1,1305.54,315ZM1295,302.53c.28-3.08,2.25-4.61,4.54-5.91,1.11-.63,2.33-1.06,3.57-1.62a2.76,2.76,0,0,1,.16.66c-.11,1.73-.21,3.47-.37,5.19a8.07,8.07,0,0,1-.41,1.64,6.41,6.41,0,0,1-4,4,1.19,1.19,0,0,1-1.26-.1c-.36-.26-.74-.49-1.09-.77A3.11,3.11,0,0,1,1295,302.53Zm-5.28,14.23c.1-.21.18-.44.26-.66.73-1.87,1.4-1.75,3-1.57a2.09,2.09,0,0,1,1.65,1.72,17.72,17.72,0,0,1,.83,6.64c-.09.9-.1,1.81-.16,2.92a9.59,9.59,0,0,1-1.38-.83q-1.47-1.29-2.87-2.68a7.1,7.1,0,0,1-1.45-3A3.23,3.23,0,0,1,1289.68,316.76Z"/><path d="M145.93,533.68c.69-18.17,1.89-36.27,5.67-54.11,1.88-8.89,3.84-17.77,5.8-26.64q5.29-23.92,12.88-47.21c5.76-17.65,9.88-35.72,13.41-53.91,2.11-10.89,4.85-21.59,8-32.21,2.32-7.8,5.5-15.32,6.54-23.53a217.05,217.05,0,0,0,1.29-38.73,138.53,138.53,0,0,0-5.87-33.71c-2.26-7.29-5.28-14.34-8-21.5l-.83.17c.14,1.08.19,2.19.43,3.25,1.1,4.77,2.32,9.51,3.37,14.29a229.68,229.68,0,0,1,5.28,37,143.31,143.31,0,0,1-5.22,46.71c-3.41,12.14-5.35,24.58-7.62,37-1.77,9.62-3.75,19.21-6.06,28.71-2.09,8.59-4.66,17.07-7.19,25.56-2.75,9.26-5.65,18.49-8.57,27.7-2.5,7.88-5.5,15.62-7.56,23.61s-3.55,16.4-4.84,24.69c-1.91,12.19-3.53,24.42-5.07,36.66-1,7.85-1.69,15.74-2.35,23.63-.67,8.11-1,16.25-1.72,24.36-.52,6-1.47,12-2,18a283.67,283.67,0,0,0-.75,36c0,1,.14,2.05.28,3.08q1.59.07,3.18.11c1.08-12.65,1.66-25.38,3.46-37.93A395.89,395.89,0,0,0,145.93,533.68Z"/><path d="M1348,220.77c2.89,3.68,4,8.06,5.12,12.45s2,8.86,2.74,13.35a79.92,79.92,0,0,1,.64,8.93,6.17,6.17,0,0,1-.42,2.18c-1.25,3.72-2.55,7.43-3.82,11.15a20.61,20.61,0,0,1-2.69,5.09,15.71,15.71,0,0,0,4.49-1,38.2,38.2,0,0,0,10.52-6.11c1.69-1.73,3.49-3.36,5-5.2,2.3-2.72,4.31-5.71,5-9.3,1.29-6.65,2.67-13.31,2.11-20.17-.27-3.32-.37-6.7-1.63-9.81-2.59-6.36-5.65-12.43-11.22-16.7-3.48-2.67-7-5.26-11.18-6.71-3.64-1.25-7.44-1.33-11.14-2.08a7.64,7.64,0,0,0-4.49.57c-2.1.87-4.19,1.76-6.23,2.75a25.37,25.37,0,0,0-7.94,6,36.43,36.43,0,0,1,12.45,3.74A39.75,39.75,0,0,1,1348,220.77Zm8.18,5.33a1.36,1.36,0,0,1,.76-1.16c.43-.21.84-.46,1.28-.65a3.16,3.16,0,0,1,3.4.47c2.68,1.89,3,4.61,3,7.52,0,1.41-.25,2.81-.4,4.31a2.78,2.78,0,0,1-.69-.19c-1.53-1-3.07-2-4.57-3.11a8.41,8.41,0,0,1-1.29-1.26A7.16,7.16,0,0,1,1356.2,226.09Zm-14.76-16q2.08-.19,4.18-.25a7.25,7.25,0,0,1,3.33,1.1,3.38,3.38,0,0,1,1.82,2.05c.08.24.2.47.3.71.85,2,.25,2.44-1.07,3.54a2.18,2.18,0,0,1-2.54,0,18.23,18.23,0,0,1-5.61-4.37c-.61-.75-1.28-1.45-2.07-2.34A10.2,10.2,0,0,1,1341.44,210.07Z"/><path d="M1353.07,191.9a32,32,0,0,1,7.42,1.41,6.76,6.76,0,0,1,.11-.77c0-.26.12-.52.14-.78a3.53,3.53,0,0,1,1.38-2.47,7.55,7.55,0,0,1,3.11-1.87q2.11-.42,4.25-.71a10.39,10.39,0,0,1,1.77.08c-.6,1.07-1.13,1.93-1.57,2.82a18.65,18.65,0,0,1-4.47,5.48q.79.35,1.58.72c1.1.53,2.18,1.1,3.23,1.71a9.2,9.2,0,0,1,.09-2.51,20.86,20.86,0,0,1,2.44-6.4c.23-.42.53-.8,1-1.45a47.82,47.82,0,0,1,2.59,4.59,17.49,17.49,0,0,1,1.35,6.95,7.23,7.23,0,0,1-.19,1.9,3.4,3.4,0,0,1-.68,1.3c.32.24.66.47,1,.72a27.53,27.53,0,0,1,4.08,4.3,34.62,34.62,0,0,1,3.55,5.33,15.83,15.83,0,0,1,4.18,2.33,11.71,11.71,0,0,1,3.7,4.79c-.92.27-1.72.52-2.53.75a15.51,15.51,0,0,1-1.93.39c.54,1.37,1.09,2.74,1.6,4.12l0,.06.07.18a29.7,29.7,0,0,1,1.56,12.61c-.14,1.88-.13,2.34-.36,4.21l0-.18,0,.18c.94-.46,1.87-1,2.79-1.5a46.24,46.24,0,0,0,9.93-8.64l1.5-1.63a11.41,11.41,0,0,0,2.12-3.54,49.9,49.9,0,0,0,2.85-14.52,27.19,27.19,0,0,0-1-9.54c-.56-1.92-1.33-3.77-1.84-5.7a14.38,14.38,0,0,0-3.92-6.84q-5.86-5.61-11.93-11a18.38,18.38,0,0,0-4.56-3.08,63.22,63.22,0,0,0-13.48-4.57q-1.24-.24-2.49-.41l-.15,0c-.87-.11-1.76-.19-2.65-.24-1.8-.09-3.66-.39-5.4.39a38.52,38.52,0,0,0-15.5,12.85,75.52,75.52,0,0,0-5.2,8.28A68.73,68.73,0,0,1,1353.07,191.9Zm37.2,11.24c.24.1.47.21.72.29a3.44,3.44,0,0,1,2.12,1.84,7.94,7.94,0,0,1,1.23,3.48q0,2.21-.09,4.42a11.26,11.26,0,0,1-.4,1.78c-.92-.8-1.64-1.49-2.42-2.1a19.1,19.1,0,0,1-4.58-5.75,2.41,2.41,0,0,1-.09-2.68C1387.82,203,1388.25,202.31,1390.27,203.14Zm-10.09-15.82c2.6.39,5,1.11,6.28,3.89a3.14,3.14,0,0,1-.05,3.26c-.23.39-.51.74-.75,1.12a1.21,1.21,0,0,1-1.14.55,6.25,6.25,0,0,1-5.08-2.26,7.9,7.9,0,0,1-.94-1.39c-.74-1.56-1.43-3.14-2.13-4.72a2.78,2.78,0,0,1-.08-.67C1377.64,187.17,1378.93,187.13,1380.18,187.32Z"/><path d="M898,201.23a24.56,24.56,0,0,0,1.13,9.84c1,2.62,2.09,5.19,3.13,7.79l.48-.12c-.18-1.37-.37-2.73-.52-4.1-.43-3.94-1-7.87-1.23-11.82a160,160,0,0,1,.76-26.43c.49-5.09.88-10.24,2.71-15.07,1.49-3.94,3.37-7.73,5.08-11.58.24-.54.5-1.08.74-1.62l-.43-.25a41.25,41.25,0,0,0-2.5,3.76c-1.51,2.89-2.92,5.83-4.31,8.78-.54,1.15-.95,2.37-1.38,3.57a51.51,51.51,0,0,0-2.53,12.57c-.55,5.53-1.45,11-1.16,16.63C898.09,195.86,898.1,198.55,898,201.23Z"/><path d="M570.45,465.45a12.61,12.61,0,0,1,2.66-.12c3.38.47,6.31-.81,9.22-2.21,1.32-.63,2.67-1.22,4-1.84-.48-.16-1-.36-1.44-.48-2.3-.57-4.64-1-6.91-1.71a30.17,30.17,0,0,0-9.27-1.15c-2.79.06-5.59.28-8.36.61s-5.48.84-8.21,1.31a7.49,7.49,0,0,0-1.39.59c.57.18.84.25,1.11.35,1.76.64,3.5,1.36,5.29,1.91,2.11.65,4.29,1.07,6.39,1.74A17.73,17.73,0,0,0,570.45,465.45Z"/><path d="M103.91,587.69q.82-7.47,1.45-15a76.56,76.56,0,0,0-.76-18.42l-.72-.09c-.17.63-.36,1.25-.5,1.89-.65,3-1.37,5.91-1.91,8.89a104.33,104.33,0,0,0-1.62,10.64c-.28,3.59,0,7.22-.06,10.83a68.57,68.57,0,0,0,3.9,24.3l.81,0c0-.38-.07-.76-.1-1.14C103.76,602.36,103.1,595,103.91,587.69Z"/><path d="M857.19,863.33l3.26-1.33-2.21-12.83,8.09,1.65.95-4.27-14.81-1.28C853.47,851.38,855.47,857.17,857.19,863.33Z"/><path d="M807.33,829.56,811.16,842c.66-.19,1-.27,1.31-.39a7.34,7.34,0,0,0,.79-.43l-.18-8.71,7.38-.21.62-3.62C816.33,828.58,812,829.77,807.33,829.56Z"/><path d="M1300.13,272.38l.23-.06a16.53,16.53,0,0,1,2.06-11.09,2.94,2.94,0,0,1,3.76-1.56,5.69,5.69,0,0,1,2.75,6.47,15.76,15.76,0,0,1-2.38,4.53l1-.27a23.93,23.93,0,0,1,12.26.14,42.05,42.05,0,0,1,13.68,6.66l.22-.23c1.11-1.22,2.17-2.49,3.17-3.82a41.56,41.56,0,0,0,3.22-4.93c2.38-4.32,3.9-8.71,3.67-13.71a29.26,29.26,0,0,0-1.65-9.37c-.56-1.45-1-2.94-1.51-4.41-2.87-8.28-7-15.69-14.16-20.88-2.64-1.92-5.41-3.66-8.17-5.4l-.26-.14h0a9.41,9.41,0,0,0-2-.89l-.15,0a9.14,9.14,0,0,0-.93-.22,9.82,9.82,0,0,0-1.15-.13,56.76,56.76,0,0,0-11.26.68,30.2,30.2,0,0,0-8.08,1.95,25.9,25.9,0,0,0-13,12.6c-3.19,6.42-5.94,13-7.2,20.2a14.82,14.82,0,0,0,.57,8.59,69,69,0,0,0,4.48,9.51c2.47,4,4.91,8,8.18,11.29A49.18,49.18,0,0,1,1300.13,272.38Zm31.14-16.86c-.13,2.94-.63,5.67-3.43,7.44a3.19,3.19,0,0,1-3.46.3c-.43-.21-.84-.49-1.26-.72a1.38,1.38,0,0,1-.71-1.21,7.23,7.23,0,0,1,1.84-5.92,8.46,8.46,0,0,1,1.37-1.21c1.57-1,3.17-1.95,4.77-2.9a2.81,2.81,0,0,1,.71-.16C1331.15,252.66,1331.33,254.1,1331.27,255.52Zm-11-18.9c.68-1.84.94-2.65,3.3-2.42.28,0,.56.07.84.07a3.69,3.69,0,0,1,2.77,1.27,8.52,8.52,0,0,1,2.32,3.27q.67,2.31,1.22,4.67a12.36,12.36,0,0,1,.11,2c-1.2-.56-2.16-1.05-3.16-1.45a20.42,20.42,0,0,1-6.51-4.61A2.62,2.62,0,0,1,1320.31,236.62Zm-5.46,11.23a8.6,8.6,0,0,1,7.2-2.76,21.4,21.4,0,0,1,7,2c.47.21.91.5,1.64.91a50.6,50.6,0,0,1-4.58,3.39,17.83,17.83,0,0,1-7.21,2.27,7.29,7.29,0,0,1-2,0,3.53,3.53,0,0,1-2.78-2.42A3.09,3.09,0,0,1,1314.84,247.84Zm-17.53,23.24c-.14.49-.31,1-.47,1.49a1.25,1.25,0,0,1-.3-.14,31.85,31.85,0,0,1-4.19-4.85,5.82,5.82,0,0,1-1-3.82,2.86,2.86,0,0,1,3.37-2.91,3.83,3.83,0,0,1,.75.15,1.71,1.71,0,0,1,.75.37,6.69,6.69,0,0,1,1.95,4.53A19.36,19.36,0,0,1,1297.31,271.09Zm-.1-40.43a28.77,28.77,0,0,1,5.63-1.88,5.08,5.08,0,0,1,3.56.58,2.77,2.77,0,0,1,1.17,4.07,3.79,3.79,0,0,1-.41.61,1.64,1.64,0,0,1-.59.53,5.88,5.88,0,0,1-4.53,0,17.24,17.24,0,0,1-4-2.74c-.36-.31-.7-.64-1.07-1C1297.1,230.76,1297.14,230.69,1297.21,230.66Zm-2.81,1.92a38.15,38.15,0,0,1,6.73,3.41,9.62,9.62,0,0,1,3.54,4.93,3,3,0,0,1,.19,1.14,1.71,1.71,0,0,1-1.13,1.72,19.25,19.25,0,0,1-1.85.64,3.82,3.82,0,0,1-4.38-2.07,29.15,29.15,0,0,1-2.22-5.23c-.45-1.43-.75-2.91-1.11-4.37Zm-4.76,9.65q.73-1.93,1.57-3.81a10.33,10.33,0,0,1,.95-1.4c.53,1,.92,1.88,1.39,2.69a18.32,18.32,0,0,1,2,6.63,2.24,2.24,0,0,1-.83,2.37c-1.4.87-2,1.28-3.47-.15-.18-.17-.34-.35-.53-.51a3.31,3.31,0,0,1-1.22-2.36A7.5,7.5,0,0,1,1289.64,242.23Z"/><path d="M838.83,848.88,825.7,853l3.2,11.11,3.95-.46c-.38-3-1.68-5.68-1.91-8.65l8.93-2.19Z"/><path d="M874.51,869.69l1.58,12.44,3.95.11c.73-3.06-.34-6.07.24-9.3l6.73.8.36-3.8C885.85,869.38,878,869.24,874.51,869.69Z"/><path d="M729.34,128a22.19,22.19,0,0,0-1.77-2.32c-.91-1-1.89-2-2.82-3a25.93,25.93,0,0,0-5.7-4.4c-1-.58-1.95-1.1-2.93-1.64a.83.83,0,0,0-.62-.09c.47.52.92,1.06,1.4,1.56,2,2.11,4.08,4.19,6.08,6.32,2.5,2.68,5,5.38,7.63,7.92a9.83,9.83,0,0,0,2.73,2c-.81-1.25-1.64-2.48-2.43-3.74C730.38,129.78,729.91,128.85,729.34,128Z"/><path d="M1394.91,171.57l.5.32c-.1-1.22-.12-2.49-.22-3.87.75.3,1.23.44,1.68.67a21.11,21.11,0,0,1,5.86,4.07,8.8,8.8,0,0,1,2.53,7l.74.65a5.9,5.9,0,0,1,.85.82c5.26,6.89,9.37,14.31,10.56,23.19a51.14,51.14,0,0,1-.15,10c-.13,2.14-.24,4.28-.5,6.4a19.11,19.11,0,0,1-.88,3.79c1.07-.16,2.14-.33,3.22-.46a19.11,19.11,0,0,0,9.7-4.58c1.34-1.09,2.64-2.26,4.06-3.23a46.81,46.81,0,0,0,8.8-8.19c.9-1,1.45-2.51,3-2.82.18,0,.33-.36.45-.57a22.94,22.94,0,0,0,3.53-9.37,46.86,46.86,0,0,0-.09-5c-.19-1.54-.41-3.79-.76-6a24.17,24.17,0,0,0-2.86-9.08c-1.62-2.66-3.22-5.34-4.87-8a31.77,31.77,0,0,0-6.32-7.78c-2.32-2-4.6-4-7.08-5.69a25.68,25.68,0,0,0-6.15-3.27c-4-1.4-8.21-2.45-12.34-3.59a12.84,12.84,0,0,0-3.06-.5,25.37,25.37,0,0,0-16.54,5.65c-3.5,2.72-6.59,6-9.94,8.91a11.28,11.28,0,0,0-2.56,3.26c1.08.23,2.15.52,3.22.85C1384.73,166.82,1390.06,168.61,1394.91,171.57Zm36.85,21.89q-.84,2.17-1.81,4.29a8.15,8.15,0,0,1-2.67,2.79,3.54,3.54,0,0,1-2.83.81c-.27,0-.54,0-.81-.05-2.3-.12-2.43-.94-2.83-2.8A2.51,2.51,0,0,1,1422,196a19.55,19.55,0,0,1,6.87-3.46c1-.24,2-.57,3.22-.93A11.91,11.91,0,0,1,1431.76,193.46Zm-8.94-16.8a4.38,4.38,0,0,1,.16-.82,3,3,0,0,1,4.15-2.19,5.9,5.9,0,0,1,3.24,2.53,34.45,34.45,0,0,1,2.89,6.19,1.43,1.43,0,0,1,0,.36c-.56,0-1.09-.08-1.61-.14a19.06,19.06,0,0,1-5.28-1.21,6.92,6.92,0,0,1-3.51-3.82A1.93,1.93,0,0,1,1422.82,176.65Zm-4.6,8.16a3.25,3.25,0,0,1,1.06-.72,10.34,10.34,0,0,1,6.68-.86,42.82,42.82,0,0,1,8,3l.05.32c-1.45.83-2.85,1.73-4.34,2.47a31.06,31.06,0,0,1-5.89,2.21,4.3,4.3,0,0,1-5.06-2.06c-.37-.65-.63-1.37-.93-2.06A2,2,0,0,1,1418.22,184.81Zm-19.79-19.67q2-1.06,4.11-2a7.83,7.83,0,0,1,3.8-.28,3.57,3.57,0,0,1,2.65,1.31c.18.21.38.4.58.59,1.65,1.65,1.22,2.35.33,4a2.4,2.4,0,0,1-2.56,1.07,19.35,19.35,0,0,1-7.38-2.05c-.91-.51-1.87-.92-3-1.49A11.36,11.36,0,0,1,1398.43,165.14Z"/><path d="M1626,554.61c-5.09,7.27-7.06,15.62-8.83,24.07C1622.56,571.62,1625.21,563.52,1626,554.61Z"/><path d="M1602.88,572.29c.68-.77,1.15-1.25,1.57-1.79a37.72,37.72,0,0,0,5.57-10.09c1.68-4.52,3.3-9.06,4.93-13.59a5.67,5.67,0,0,0,.17-.91l-.48-.15A54.33,54.33,0,0,0,1602.88,572.29Z"/><path d="M1661.68,582.18q-2.44,5.57-4.8,11.16a2.48,2.48,0,0,0,.34,2.53c4.24-7,6-11.82,5.58-15.4A13.5,13.5,0,0,0,1661.68,582.18Z"/><path d="M617.33,911.71a28.09,28.09,0,0,0-3.29-1.63c2.89,8.13,3.18,16.31,4.32,24.4,2.2-7,4.52-13.88,6.32-21.06-.85-.08-1.48-.18-2.11-.18A9,9,0,0,1,617.33,911.71Z"/><path d="M1694.21,581.46c-2.82,5-6.22,9.69-5.72,16.3C1692.41,592.73,1694.47,587.51,1694.21,581.46Z"/><path d="M1733.31,602.23c-4.46,4.17-5.38,7.39-3.41,13C1732.55,611.28,1734.19,607.22,1733.31,602.23Z"/><path d="M1643.21,581.87c4.73-5.08,6.77-11.58,9.43-17.75C1646.25,568.32,1644.13,574.78,1643.21,581.87Z"/><path d="M0,0V1080H1920V0ZM1674,112a5.36,5.36,0,0,1,1.18-1.41,57.41,57.41,0,0,1,11.31-7.9,26.43,26.43,0,0,1,6.73-1.79c7-1.33,13.83-.2,20.66,1.21a43.71,43.71,0,0,1,13.91,5.05c6.55,4,11.78,9.19,14.43,16.65a60.24,60.24,0,0,1,3,13.25,14.08,14.08,0,0,1-1.23,7.23,2.78,2.78,0,0,1-1.66,1.71c-1,.34-1.91.77-2.9,1-6.25,1.61-12.52,3.19-18.78,4.78-.4.1-.81.18-1.2.31-2.2.72-2.3.88-2.21,3.25q.55,14.33,1.09,28.66c0,1,0,2,0,3.13-2.93.68-15.68.82-18.71.25-1-11.44-1.2-23-2.68-34.55-1.16-.14-2.24-.3-3.32-.4q-9.55-.86-19.11-1.69a2.12,2.12,0,0,1-1.9-1.31,22.43,22.43,0,0,1-2.57-7.79c-.14-1.43-.46-2.85-.73-4.27C1667.62,128.34,1669.49,119.92,1674,112ZM882.25,173.17a6.87,6.87,0,0,1,.19-1.52,94.67,94.67,0,0,1,6.87-18.07c1.12-2.16,2.21-4.32,3.33-6.47,1.79-3.41,4.73-5.47,8.17-6.92a3.88,3.88,0,0,1,1.85-.23,21.81,21.81,0,0,1,7,1.81c.68.32,1.39.56,2.18.87a24.83,24.83,0,0,0,1.64-2.74c2.61-6,7.62-8.11,13.67-8.56a19,19,0,0,1,8.33.76,15.39,15.39,0,0,0,2.45.48c.59-6.47,1.34-12.77.73-19.17s-2.52-12.46-4.91-18.66c.86-.13,1.52-.27,2.18-.31,1.4-.09,2.83,0,4.21-.21A4,4,0,0,1,944,95.7a52.65,52.65,0,0,1,12.67,22.07A131.82,131.82,0,0,1,961,137a9.77,9.77,0,0,0,.52,1.52c.31-.3.48-.5.68-.66,4.1-3.25,8.93-4,13.93-3.9a14.24,14.24,0,0,1,11.41,5.38,2.29,2.29,0,0,0,3.09.85c5.47-2.27,10.15-.41,14.34,3.11,4.89,4.12,7.76,9.65,10,15.47A105.42,105.42,0,0,1,1019,171.4c.73,2.95.74,6.08,1,9.13.1,1,0,2,.12,3.07a23.64,23.64,0,0,1-1.3,10.19c-2,5.34-3.54,10.85-5.83,16-3,6.84-7.06,13.13-13.3,17.52-4.07,2.86-8.68,4-13.62,2.13-1.88-.7-1.85-.66-3,1-1,1.42-2,2.78-3.08,4.14a1.91,1.91,0,0,1-.73.56c-4.59,2-9.26,2.55-13.9.27a9,9,0,0,0-8.9.31c-6.9,3.77-13.88,3.42-20.67-.29-3.25-1.77-6.33-3.86-9.45-5.85-1.6-1-1.6-1-3.23,0a20.15,20.15,0,0,1-7.75,3.17c-3.87.51-7.14-1-10-3.47-1.31-1.11-2.55-2.31-3.82-3.47a6.42,6.42,0,0,1-5.85,1.19,4,4,0,0,1-1.52-.77,30.8,30.8,0,0,1-7.22-9.06,55.2,55.2,0,0,1-4.87-13.48,32.19,32.19,0,0,1-.87-7.78C881.42,188.36,881.88,180.77,882.25,173.17ZM108.8,680.79l.71-13.73c-4.24-1.87-8.39-3.6-12.46-5.51-12.29-5.76-21-14.81-24.84-28-2-7.07-3.4-14.35-5-21.54a24.74,24.74,0,0,1-.38-3.47c1.46-.14,14.36,1.1,19.43,1.32,3.35.15,6.69.32,10,.5,0-1.15-.07-2.3-.12-3.45-.34-7-1-14-1.67-20.92-.85-8.71-1.83-17.4-2.85-26.09a58.25,58.25,0,0,0-8-24.06c-5.27-8.58-8.32-17.93-10.37-27.69a187,187,0,0,1-3.49-49.06c.41-7.42-.18-14.91-.59-22.35A63.37,63.37,0,0,1,71.77,416c3.54-12.69,7.06-25.38,10.25-38.16A110.77,110.77,0,0,0,84.93,348c-.14-5.08-1.54-10.13-2.5-15.17a387.66,387.66,0,0,1-5.87-41.91c-.59-7.67-1.44-15.33-2.38-23-.77-6.35-.47-12.46,2-18.5a46.67,46.67,0,0,1,7.7-12c3.18-3.87,6.54-7.61,10.06-11.18a40.43,40.43,0,0,1,7.47-6.23c10-6.15,20-12.39,30.39-18a123.88,123.88,0,0,1,35.32-13c4.24-.81,8.45-1.75,12.64-2.78a16,16,0,0,0,4.48-1.83c8.34-5.12,16.79-10.1,24.88-15.6,6.26-4.25,12-9.31,18.06-13.81q15.06-11.09,30.34-21.9c14-9.87,28.17-19.54,42.19-29.4q21.42-15.06,42.69-30.34,21.52-15.47,43-31.06A121,121,0,0,1,397.58,57c-22.13,16.8-45.08,32.41-68.21,47.79-19,12.65-37.88,25.6-56.72,38.54-11.24,7.73-22.24,15.82-33.49,23.54-8.46,5.81-17.14,11.29-25.7,17-2.81,1.86-5.55,3.83-8.5,5.86l2,7.2a8.23,8.23,0,0,0,1.77-.32c16.6-7.42,33.21-14.82,49.78-22.32,10.62-4.81,21-10.07,31.76-14.61q27.85-11.79,56-22.9c18.42-7.3,37-14.3,55.51-21.28,5.95-2.24,11.94-4.36,17.95-6.44,3.33,6.44,6.47,13,9.52,19.58-2.25.85-4.51,1.7-6.75,2.57-21.08,8.2-42.13,16.48-63,25.09-12.93,5.32-25.46,11.62-38.4,16.94-19.41,8-38.9,15.79-58.58,23.05-13.23,4.88-26.85,8.68-40.29,13-3.2,1-6.38,2.12-9.52,3.16-.48,9.37,1.72,18.36,2.87,27.48,1.55,12.36,2.63,24.78,3.69,37.19.91,10.68,1.85,21.38,2.16,32.08.49,17.13.43,34.24-.67,51.38-.67,10.44-3.77,20.11-6.59,29.93q-5.17,18-10.93,35.78c-2.26,7-5.12,13.75-7.64,20.64-3.32,9.07-6.68,18.14-9.84,27.27a190.12,190.12,0,0,0-7.91,33.29c-2,12.88-3,25.91-4.54,38.86-1.1,9.35-2.68,18.62-4.52,27.86s-5,17.95-7.43,26.93c-1,3.81-2.17,7.6-3.23,11.4,1.61,0,3.23,0,4.84,0h2.34c6.41,0,12.84.12,19.25.27,1.17,0,2.35,0,3.53,0a32.66,32.66,0,0,1-.33,7.66c-.1.68-.22,1.35-.34,2-.47,2.6-1.05,5.19-1.65,7.77-1.45,6.27-4.8,11.55-8.66,16.58-5.08,6.59-11.75,11.26-18.65,15.67-.83.53-1.6,1.16-2.46,1.63a2.43,2.43,0,0,0-1.3,3q.78,4.05,1.41,8.14c.26,1.72.37,3.47.54,5.11C149.84,682.87,118.19,683.2,108.8,680.79Zm242,192.48a18.08,18.08,0,0,0-.54,2.51c-.62,2.92-1.13,5.87-1.87,8.76-1.14,4.47-2.38,8.91-3.69,13.33-1.52,5.14-3.31,10.2-6.58,14.54a33.2,33.2,0,0,1-4.77,5.59,40.57,40.57,0,0,1-6.54,4q-5.26,2.94-10.6,5.72c-4.18,2.18-8.41,4.27-12.59,6.46-.86.45-2,1-2.26,1.83-1.85,5.14-3.52,10.35-5.22,15.54-.37,1.13-.66,2.29-1,3.43l-.43,0c-.43-1.93-.76-3.89-1.3-5.79-1.41-4.93-2.9-9.83-4.37-14.74-.72-2.41-1.52-4.79-2.21-7.2a19.81,19.81,0,0,0-3.48-6.05c-2.89-4-5.46-8.2-8.18-12.31-.59-.9-1.24-1.75-2.13-3,2.87.54,5.26,1.15,7.7,1.42,4.27.46,8.22,2,12.29,3.17,2.57.73,5,2.13,7.81,1.75,2.16-.29,4.32-.69,6.46-1.1a1.8,1.8,0,0,0,1-.67c1.65-2.23,3.33-4.45,4.87-6.76,1.65-2.48,3.19-5,4.74-7.58,1.15-1.88,2.24-3.79,3.42-5.79-5.75-3-11.24-6.11-16.88-8.84-1.49-.72-3.19-2.26-5.2-.9-.13.09-.4,0-.6-.06l-6.06-.6c-4.38-.44-8.77,0-13.18-.46-4.25-.41-8.62.41-12.94.78-2.17.19-4.33.6-6.5.85-1.46.16-2.07.68-1.66,2,1.22,4,2.59,8,3.89,12,.49,1.51,1,3,1.43,4.55l-.41.23c-2-.93-4.15-1.71-6.08-2.82-2.13-1.24-4-2.91-6.13-4.18-2.38-1.43-4.53-3.17-7.62-3.34A39.61,39.61,0,0,0,232,890.66a153.3,153.3,0,0,0-16.25,5.12c-3.77,1.35-7.38,3.13-11,4.76-2.82,1.25-5.65,2.5-8.42,3.87-4.32,2.15-8.47,4.72-12.92,6.53-4.79,1.94-9.83,3.26-14.79,4.75a10.57,10.57,0,0,1-3.91.56c-3.42-.32-6.8-1-10.21-1.32a7.67,7.67,0,0,1-5.31-2.86c-3.59-4.59-5.71-9.55-3.13-15.57,1.49-3.49,2.3-7.27,3.54-10.87a54.08,54.08,0,0,1,3.58-9.11c2.52-4.44,5.53-8.59,8.37-12.85a81.29,81.29,0,0,1,10.89-12.89c2.66-2.61,5.56-5,8.36-7.44,1.38-1.22,2.8-2.4,4.19-3.6,3-2.57,5.91-5.17,8.91-7.7,5.75-4.86,12.95-6.34,19.91-8.29,4.45-1.24,9-2.1,13.49-3.29,2.82-.75,5.55-1.81,8.34-2.67,4.94-1.52,9.88-3.07,14.86-4.48,4.08-1.16,8.22-2.13,12.87-3.32-.57,1.87-1,3.29-1.43,4.7-1.72,5.18-3.5,10.35-5.15,15.55a1.83,1.83,0,0,0,.78,1.62,9,9,0,0,0,2.86.31c3.26.07,6.52.15,9.78.11,2.43,0,4.91.8,7.29-.43a3,3,0,0,1,1.52-.11c2.11.17,4.22.33,6.32.57,4.82.56,9.67,1,14.44,1.81,4.23.72,8.35,2.05,12.57,2.81,5.44,1,10.23,3.39,14.91,6.12,2.94,1.72,5.76,3.67,8.79,5.22a14.46,14.46,0,0,1,5.6,5.07c2.87,4.39,5.47,8.95,8.24,13.4A7.07,7.07,0,0,1,350.78,873.27Zm167-171.8a58,58,0,0,1-9.16,2.9c-3,.73-6.15,1.08-9.71,1.67.65,1,1,1.64,1.53,2.25a88.66,88.66,0,0,1,8.11,12c2.62,4.73,2.34,9.29.25,14.08-1.25,2.86-2.83,5.06-6,6.05a34.11,34.11,0,0,0-4.74,2.43,5,5,0,0,1-4.64.21c-.23-.11-.49-.16-.71-.28-7.62-4-14.54-8.64-17.72-17.27-1.64-4.44-3.53-8.8-5.52-13.1a60.37,60.37,0,0,0-3.77-6.14,21.14,21.14,0,0,0-1.78,2.09c-1.49,2.36-2.93,4.76-4.37,7.15-.74,1.23-1.48,2.47-2.14,3.75a6,6,0,0,1-5.39,3.55c-1.86.08-2.12.18-2.92-1.6-2.35-5.23-3.87-10.57-3.35-16.46s1.68-11.38,2.47-17.07c.92-6.59,2.25-13.29,0-19.87a77,77,0,0,0-12.62-23.11,10.93,10.93,0,0,0-.65,1.77,12,12,0,0,0-.2,2.53c.28,5.39-.69,10.63-1.82,15.85a7.23,7.23,0,0,1-.57,1.67c-1.2,2.43-2.5,4.81-3.65,7.26a5.2,5.2,0,0,1-4.31,3.08c-5.79.92-9.67-2.35-10.94-8.06-1.89-8.51-1.05-17,.53-25.48.89-4.73,2.16-9.39,3.23-14.09a11.92,11.92,0,0,0,.4-2.75A39.5,39.5,0,0,0,413.8,610a8.08,8.08,0,0,0-.93-1.51,2.88,2.88,0,0,0-4.72-.14c-1.91,2.69-3.55,5.56-5.4,8.29-2.68,4-3.82,8.42-4.45,13.08a24.28,24.28,0,0,1-.87,4,6.2,6.2,0,0,1-3.73,4.22,2,2,0,0,1-2.83-.89c-1.92-3.49-3.71-6.87-2.9-11.25a144.83,144.83,0,0,1,3.6-16.61c.8-2.59,1.36-5.25,2.12-7.85a3,3,0,0,0-.54-2.84c-1-1.44-2-2.91-3-4.38q-4.64-6.82-9.26-13.66a4.23,4.23,0,0,0-5.19-1.89,21.75,21.75,0,0,0-4.21,2.26c-2.8,1.89-5.52,3.91-8.29,5.84a5,5,0,0,1-1.6.75c-2.19.55-3.81-.7-3.59-2.92a14.92,14.92,0,0,1,1.13-4.39,47.11,47.11,0,0,1,3.08-5.84,57.45,57.45,0,0,0,5.64-13.57,6.39,6.39,0,0,0-.67-5.37c-2.16-3.64-4.3-7.3-6.46-10.94-2.95-4.94-6-9.8-7.93-15.31-.82-2.39-2.14-4.6-3.17-6.91-.54-1.23-.95-2.52-1.6-4.29,2.62-.81,5-1.53,7.43-2.29a1.72,1.72,0,0,1,2,.78c1.1,1.28,2.23,2.55,3.29,3.86,4.59,5.64,9.28,11.21,13.71,17a16.05,16.05,0,0,0,9.37,6.07c3.13.74,6.27,1.43,9.4,2.18a24.39,24.39,0,0,1,9.73,4.8c4.47,3.62,8.72,7.51,13,11.31,1.83,1.61,2,3.93,2,6.08,0,2.4-2.82,4-5.8,3.49a45.26,45.26,0,0,1-6.08-1.79c-3.77-1.25-7.52-2.56-11.29-3.82-1.5-.5-3-.92-5.16-1.57,1.47,2.54,2.59,4.58,3.82,6.56a41.79,41.79,0,0,0,8.45,9.73A11.58,11.58,0,0,0,408,583a76.32,76.32,0,0,0,17.49-.08c5.51-.51,10.56,1,15.6,2.83a2.94,2.94,0,0,1,2.07,2.89,5.17,5.17,0,0,1-3,3.45c-1.55.44-3.12.8-4.65,1.27-1.13.35-2.2.9-3.34,1.21-3.89,1.08-5.66,4-6.77,7.55a2,2,0,0,0,.85,2.2,79,79,0,0,0,7.1,6.12,116.49,116.49,0,0,0,19.88,10.71c3.94,1.75,8,3.08,11.84,5.2s7.75,3.4,11.55,5.26c4,2,8,4,11.88,6.31s6.39,6,9.35,9.25a2.15,2.15,0,0,1,.28,1.65c-.43,2.07-1,4.11-1.47,6.17a2,2,0,0,1-1.77,1.57,7.93,7.93,0,0,1-4.74-.05c-2-.79-3.95-1.53-5.9-2.35-2.73-1.15-5.43-2.35-8.15-3.52-.16-.07-.32-.11-.47-.19-3.49-1.89-7-3.68-10.45-5.71A63.08,63.08,0,0,0,454.28,640a16.37,16.37,0,0,0,.62,1.67q8.61,16.12,17.25,32.24c2.17,4.05,5.67,6.63,9.61,8.74,1.64.88,3.26,1.79,4.88,2.72,3.76,2.16,8,2.84,12.14,3.39,7.23.95,13.81,3.27,19.44,8C520.21,698.47,520.22,700.43,517.8,701.46ZM539,431.78c-2.52,0-5,.12-7.56.17l-3.91.06c-1.28,0-2.57,0-3.85.13-1.06.08-2.12.27-3.18.39-2.33.25-4.69.37-7,.75s-4.48,1-6.71,1.5c-.95.21-1.89.45-2.85.59-1.75.25-3.52.34-5.26.67-2.31.44-4.59,1-6.89,1.58l-.52.12c-1.27.24-2.55.43-3.81.72-1,.23-2,.59-3,.89a7.76,7.76,0,0,1-4,.62c-3.86-.89-7.74-1.73-11.54-2.84-3.34-1-6.57-2.29-9.85-3.48-1.31-.47-2.63-.93-3.9-1.51-2-.91-4-1.86-5.88-2.9a31.45,31.45,0,0,1-2.78-1.91c-1.08-.74-2.19-1.45-3.26-2.21-1.5-1.07-3-2.16-4.45-3.27s-3.21-2.35-4.74-3.61a26.75,26.75,0,0,1-2.23-2.31c-1.41-1.48-2.86-2.93-4.22-4.45-.95-1.06-1.8-2.21-2.67-3.33-.38-.49-.71-1-1.09-1.52-1.12-1.45-2.31-2.86-3.37-4.35-1.35-1.93-2.67-3.88-3.87-5.91s-2.4-4.35-3.56-6.54c-.43-.82-.7-1.71-1.14-2.52-1.23-2.26-2.63-4.44-3.74-6.76s-2-4.91-3-7.38c-.42-1.05-.86-2.11-1.19-3.2a46.77,46.77,0,0,1-1.72-7.74c-.11-.95-.28-1.88-.37-2.83-.21-2.24-.4-4.49-.58-6.73a37.74,37.74,0,0,1-.28-4.26c.09-2.56.3-5.12.52-7.68.21-2.38.44-4.77.75-7.14.36-2.72.79-5.44,1.25-8.15.43-2.56.84-5.13,1.43-7.65.52-2.22,1.29-4.39,1.93-6.58a3.82,3.82,0,0,1,1.65-2.31c2.28-1.43,4.51-3,6.86-4.28,1.9-1.06,3.93-1.89,5.92-2.76a54.48,54.48,0,0,1,9.84-3.29c1.37-.31,2.72-.66,4.09-1a19.42,19.42,0,0,1,2.38-.39c3.61-.32,7.21-.63,10.82-.9,1.86-.14,3.72-.22,5.59-.24s3.66.08,5.49.15c2.24.09,4.49.2,6.73.28a6.51,6.51,0,0,1,1.29.17c.65-.18,1.49-.17,1.9-.58a39.59,39.59,0,0,0,3-3.67c.77-1,1.43-2.11,2.24-3.08,1-1.23,2.19-2.35,3.25-3.55,1.48-1.69,2.92-3.43,4.39-5.14s2.89-3.3,4.32-5c1.61-1.86,3.19-3.75,4.81-5.6q1.49-1.7,3.07-3.33c1.9-2,3.8-3.93,5.76-5.82,1.32-1.28,2.73-2.47,4.14-3.64,1.88-1.56,3.79-3.09,5.71-4.61,1.57-1.24,3.17-2.45,4.75-3.68,2.4-1.87,4.77-3.78,7.21-5.59,1.6-1.19,3.31-2.25,5-3.37a1,1,0,0,1,.42-.11l3.18-.36c1.59-.19,3.18-.47,4.78-.59,2.69-.2,5.38-.36,8.08-.44a48.14,48.14,0,0,1,5.16.15c2,.16,4,.38,6,.7,2.15.34,4.31.71,6.42,1.25a62.13,62.13,0,0,1,6.12,2,43,43,0,0,1,4.94,2.16c1.75.92,3.39,2,5.1,3a29.29,29.29,0,0,1,8,6.54c.8,1,1.76,1.78,2.56,2.73a25,25,0,0,1,3.49,4.42c1.76,3.43,3.23,7,4.77,10.57q2,4.53,3.8,9.11c.69,1.72,1.34,3.46,1.9,5.22,1,3.21,2,6.44,3,9.68.82,2.83,1.54,5.69,2.29,8.54.36,1.36.71,2.72,1,4.09a30.22,30.22,0,0,1,.61,3.25q.4,3.52.67,7.05a21,21,0,0,1,.05,3.89c-.32,2.81-.75,5.62-1.21,8.41a8.52,8.52,0,0,1-.89,3.2A40.77,40.77,0,0,1,603.7,339c-1.54,1.78-3.2,3.46-4.69,5.28a62.37,62.37,0,0,1-7.15,7.22c-2,1.78-4.14,3.43-6.28,5.07a67.15,67.15,0,0,1-6.1,4.41,104.24,104.24,0,0,1-18.3,9c-2.34.84-4.67,1.69-7.05,2.4-2.63.78-5.31,1.39-8,2.06q-2.21.56-4.44,1.07c-.9.21-1.81.39-2.72.54-2,.33-4,.62-6,.94l-3.08.51c-.78.13-1.56.31-2.35.37-2.37.2-4.74.36-7.12.53-1.51.11-3,.23-4.53.31-.75,0-1,.34-.92,1.16.17,1.06.41,2.11.61,3.16s.43,2.09.58,3.15c.25,1.78.44,3.57.65,5.35.18,1.52.38,3,.53,4.56.19,2,.34,4,.52,6.15a30.22,30.22,0,0,0,3.68-.13,23.89,23.89,0,0,1,8,.59c2,.37,4.1.72,6.14,1.12,1.73.33,3.45.67,5.17,1.07,2.28.53,4.56,1.08,6.82,1.71s4.3,1.18,6.38,2a47.07,47.07,0,0,1,5.44,2.63c2.24,1.22,4.43,2.53,6.63,3.83,1.06.63,2.12,1.29,3.13,2a5.47,5.47,0,0,1,1.79,1.63,7.13,7.13,0,0,1,.42,2.51c.23,2.24.42,4.48.63,6.72.19,2,.39,4.07.61,6.29-1.24-.17-2.32-.34-3.4-.47-2.3-.28-4.59-.56-6.89-.81-2.06-.22-4.12-.45-6.19-.59s-4.2-.21-6.3-.3c-1.75-.07-3.51-.16-5.26-.19S540.87,431.75,539,431.78Zm13,54.56c-.58-2.45-1.56-4.79-2.31-7.2-.38-1.23-.69-2.48-1-3.74-.85-3.92-1.7-7.84-2.49-11.77-.36-1.81-.57-3.65-.84-5.47a1.16,1.16,0,0,1,1-1.51c2.65-.63,5.26-1.52,7.95-1.92,3.71-.55,7.46-.86,11.2-1a67.52,67.52,0,0,1,8.34.2c2.75.21,5.49.59,8.21,1,2.49.41,4.94,1,7.41,1.54a29,29,0,0,0,3,.43c.54.05.84.21.9.79.25,2.23.59,4.45.77,6.69a47.93,47.93,0,0,1,.07,5.1c-.07,2.57-.19,5.15-.37,7.71-.14,1.91-.38,3.82-.63,5.72-.21,1.67-.44,3.34-.76,5a2.64,2.64,0,0,1-.84,1.24c-1.64,1.55-3.33,3.05-5,4.58a18.06,18.06,0,0,1-5.37,3.92,23.65,23.65,0,0,0-2.2,1.18l1.29,7.86c-2,.2-3.82.52-5.64.53-2.91,0-5.83-.18-8.75-.28-.71,0-1.14-.36-1.15-1.07,0-1.76,0-3.52,0-5.28,0-.71.08-1.43,0-2.13,0-.2-.4-.56-.58-.54-1.3.17-2-.87-3-1.37a29.86,29.86,0,0,1-3.76-2.41A13.23,13.23,0,0,1,552,486.33Zm114.5,408.9c-2,1.52-2,1.77-1.05,4.15a4,4,0,0,1-.46,4.43,7.75,7.75,0,0,0-.93,1.3,3.55,3.55,0,0,1-2.53,1.74c-2.53.62-5,1.3-7.56,2-1.53.41-1.61.51-1.67,2,0,.21,0,.43,0,.64a2.39,2.39,0,0,1-1.66,2.55c-3.33,1.4-6.6,2.94-9.89,4.46a2.43,2.43,0,0,1-2,0c-1.54-.57-3.1-1.1-4.65-1.65l-1.14-.41-.77,4.3q-1.47,8.16-2.94,16.32c-.53,3-1,6-1.57,9-.45,2.4-1,4.79-1.43,7.2a28.65,28.65,0,0,0-.39,4.44c-.05,4.73,0,9.46-.06,14.19-.06,2.87-.34,5.73-.57,8.59-.31,3.7-.69,7.4-1,11.1a1.42,1.42,0,0,1-1.1,1.36,35.94,35.94,0,0,1-13,1.94c-2,0-4-.11-6.06-.18-.48,0-1-.1-1.42-.16a1.41,1.41,0,0,1-1.35-1.33c-.1-.79-.23-1.58-.29-2.37-.31-4.14-.6-8.27-.91-12.41-.08-1.06-.25-2.11-.31-3.17-.11-2-1.33-3.55-2-5.35-.71-2.05-1.46-4.1-2.26-6.12s-1.72-4.23-2.65-6.32c-1.07-2.43-2.23-4.83-3.31-7.25-.56-1.25-.51-1.56.54-2.5a11.3,11.3,0,0,1,3-2.3c2.65,4.34,6.16,8,8,12.81l.32,0a10.22,10.22,0,0,0,.5-1.22q1-3.46,1.85-6.94a1.73,1.73,0,0,0,0-.92,67.35,67.35,0,0,0-5.4-12.92c-1.34-2.33-2.14-5-3.26-7.44-1.85-4.06-3.77-8.09-5.73-12.27-1.67.14-3.21.15-4.7.43-4.07.75-7.79-.55-11.52-1.83a3.25,3.25,0,0,1-.8-.5c-1.63-1.19-3.23-2.41-4.89-3.56a2.8,2.8,0,0,1-1.17-1.43c-.66-1.85-1.46-3.65-2.12-5.49s-1.24-3.51-1.69-5.31a3.36,3.36,0,0,0-1.8-2.46,3.36,3.36,0,0,1-2-2.87c-.21-1.74-.62-3.45-.9-5.17a3.87,3.87,0,0,1,.46-2.75c.82-1.36,1.4-2.87,2.3-4.17a15.44,15.44,0,0,1,2.72-2.87,53.26,53.26,0,0,0,7.14-7.28c1.38-1.74,2.82-3.43,4.19-5.17a3.91,3.91,0,0,1,2.53-1.51,56.06,56.06,0,0,1,6.61-1,60.11,60.11,0,0,0,18.07-3.71,16.14,16.14,0,0,1,11.32.21,50.86,50.86,0,0,0,5.47,1.71,13.3,13.3,0,0,0,3.79.14,8.64,8.64,0,0,1,3.73.6c3.28,1.23,6.46,2.77,10,3.24a4.35,4.35,0,0,1,1.91,1.08c2.07,1.67,4.09,3.39,6.13,5.1,1,.82,1.46,1.76,1.88,3.7a9.12,9.12,0,0,0,5.17,1.34,5,5,0,0,1,2.81,1,42.09,42.09,0,0,1,8.77,7.84c1.15,1.39,2.51,2.59,3.75,3.9a5.54,5.54,0,0,1,1.12,1.67C668.43,893.09,667.86,894.14,666.45,895.23Zm49.43-221.37c-1.23,4.13-2,8.4-2.89,12.62a2,2,0,0,1-1.39,1.63,53,53,0,0,1-13.95,3,57,57,0,0,1-17.47-1.3c-2.07-.48-4.11-1-6.37-1.62-.24-1.18-.51-2.24-.68-3.32-.87-5.47-1.92-10.93-2.52-16.43a16.45,16.45,0,0,1,3.66-12.65,2.78,2.78,0,0,1,1.37-1c4.71-1,9.36-2.43,14.23-2.68a66.21,66.21,0,0,1,13.67,1,4.87,4.87,0,0,1,1.93.82c3.18,2.19,6.32,4.44,9.49,6.66a2.57,2.57,0,0,1,1.2,2.09.89.89,0,0,0,0,.19A19.77,19.77,0,0,1,715.88,673.86Zm24.07-529q-.15.31-.32.62c-1.78,3.28-3.51,7.44-7.78,8-2,.24-4,.18-6,.39-1.75.19-2.66,1-4.33,1.69-2.09.82-4.08.31-6.26.18-2.88-.18-4.87,2.24-7.33,3.27-3.59,1.5-5.83-1.22-8.9-2.34s-4.09,1.38-6.82,1.77c-1.84.26-3.08-.89-4.57-1.68-2.08-1.1-2.2-.32-4.52.07-5.63.94-9.24-5.26-11-9.6-1.88-4.59-.29-9.75.64-14.37a53.71,53.71,0,0,1,5.84-16.09,138.27,138.27,0,0,1,10.35-16,9.79,9.79,0,0,0,2.16-6.33c0-3.06-.13-6.12-.21-9.18,0-.62-.1-1.22.59-1.59,1.51-.81,3-1.65,4.8-2.64.1,1.11.17,1.82.23,2.53.39,4.78,1.25,9.41,4.63,13.13,1.68,1.85,3,4.09,5.12,5.47,3.61,2.32,7.25,4.59,10.93,6.78,5.26,3.13,11.16,5.57,15.83,9.57A24.19,24.19,0,0,1,740.7,131C741.8,135.66,742,140.54,740,144.85Zm332.05,881c-2.26-1.7-4.27-3.13-6.18-4.68-2.94-2.37-5.78-4.86-8.71-7.25-7.25-5.9-14.81-11.38-22.6-16.52-7.62-5-15.36-9.87-23.05-14.8-5.78-3.7-11.65-7.28-17.32-11.14a164.66,164.66,0,0,1-21.81-17.2c-3.9-3.76-8.08-7.24-12.14-10.83-2.78-2.46-5.42-5.1-8.39-7.3C945.3,931.3,938.62,926.71,932,922c-1.51-1.07-3.11-2-4.62-3.08-3.59-2.53-7.1-5.18-10.74-7.64-10-6.77-20.08-13.47-30.14-20.18a2.9,2.9,0,0,0-1.27-.56,45.59,45.59,0,0,0-10.47.23c-1.36.21-2.73.33-4.09.48a3.48,3.48,0,0,1-2.87-.81c-1.38-1.23-2.85-2.37-4.2-3.63a3.25,3.25,0,0,0-2.55-1c-2.88.1-5.77,0-8.65.08a2.84,2.84,0,0,1-2.81-1.61c-1.59-2.73-3.35-5.36-5-8a2.81,2.81,0,0,0-1.74-1.3c-3.89-1.13-7.79-2.25-11.62-3.56-5.19-1.78-4.46-1-6.75-5.81a2.62,2.62,0,0,0-1.59-1.46c-3.54-1.3-7-2.8-10.6-4a6.12,6.12,0,0,1-4.06-4.21c-2.19-6.07-2.25-6.05-6.6-10.67-.8-.85-1.59-1.71-2.43-2.52a4,4,0,0,1-1.36-3.3,8.08,8.08,0,0,0-1.11-4.09c-2.43-5-4.73-10.06-7.06-15.1a9,9,0,0,1-.39-1.56c4.06.44,7.87.92,11.7,1.23a9.18,9.18,0,0,1,5.45,2.11c1,.84,2.22,1.41,3.16,2.3,1.31,1.24,2.49,1,3.85.18,2.23-1.35,4.55-2.56,6.77-3.93a2.86,2.86,0,0,1,2.9-.16c1.51.66,3,1.31,4.57,1.88a5.23,5.23,0,0,0,2,.37c2.95-.12,5.89-.4,8.83-.46a5.46,5.46,0,0,1,2.69.75,52.23,52.23,0,0,1,4.62,3.08,41.8,41.8,0,0,0,17,7.54,53.88,53.88,0,0,1,12.13,3.91,4.14,4.14,0,0,1,2,1.89q3.5,6.3,7.18,12.5a3.91,3.91,0,0,0,1.64,1.41,73.71,73.71,0,0,0,8.65,3.83,9.27,9.27,0,0,1,6.45,6.81,10.55,10.55,0,0,1,.53,1.77c.39,4,2.57,6.84,5.58,9.22l.16.13c8.23,7.12,17.27,13.12,26.32,19.1,4.58,3,9.22,6,13.61,9.27s8.46,6.78,12.6,10.28c6.19,5.23,12.32,10.52,18.45,15.82,5.24,4.53,10.34,9.24,15.71,13.61,4.57,3.72,9,7.67,14,10.81,7.52,4.68,14.92,9.56,22.37,14.36,4.91,3.16,9.8,6.31,14,10.39a77.14,77.14,0,0,0,8.64,7.3c9.8,7,19.28,14.35,28.76,21.72.73.57,1.39,1.24,2.18,2C1080.12,1015.3,1076.16,1020.44,1072,1025.83Zm144-862.42c-.75,1.95-1.5,3.89-2.24,5.84a15.15,15.15,0,0,1-3.23,5.09,27.26,27.26,0,0,0-1.91,2.11,15.17,15.17,0,0,1-4.25,3.62,35.48,35.48,0,0,1-5.87,2.83,28.86,28.86,0,0,0-9.17,5.49,24.61,24.61,0,0,0-3.53,4,12.35,12.35,0,0,0-.84,1.41c-.2.38-.33.79-.51,1.18a39.64,39.64,0,0,0-2.54,8,30.09,30.09,0,0,1-2.14,6.92c-1.14,2.31-2.21,4.65-3.14,7.05-.5,1.28-1.11,2.52-1.68,3.77a6.9,6.9,0,0,1-.5.79l-.19-.09c.09-.73.17-1.45.28-2.18.28-1.94.66-3.87.83-5.83a65.64,65.64,0,0,1,2.29-12.83,19.27,19.27,0,0,0,.66-8.28,11.58,11.58,0,0,0-1.32-4c-.88-1.58-1.93-3.06-2.89-4.59a8.91,8.91,0,0,0-2.8-2.86c-2.06-1.32-4.09-2.71-6.11-4.1a5.32,5.32,0,0,1-1.37-1.21c-.92-1.3-1.81-2.63-2.59-4a30.22,30.22,0,0,1-3-8.94,6.76,6.76,0,0,1-.13-1.82c.1-1.47.26-2.93.42-4.39a12.87,12.87,0,0,1,1.15-4.61q1.13-2.16,2.33-4.28a3.5,3.5,0,0,1,.8-1c1.4-1.14,2.79-2.31,4.27-3.34a49,49,0,0,1,5.69-3.36,12.19,12.19,0,0,1,6.34-1.58l5.05.31a13.75,13.75,0,0,0,3,0c-.23-.87-.37-1.65-.63-2.39-.65-1.85-1.42-3.66-2-5.53a52.42,52.42,0,0,0-3-7.5,92.16,92.16,0,0,1-5.15-13.18l-.71-2.35a.54.54,0,0,1,.4.24c1.23,1.87,2.48,3.72,3.67,5.62a38.88,38.88,0,0,1,2.16,3.85c.89,1.88,1.64,3.83,2.5,5.72,1.14,2.51,2.33,5,3.5,7.5.15.31.31.62.5,1,.06-.15.09-.18.08-.21-.67-2.23-1.29-4.47-2-6.67a38.63,38.63,0,0,1-1.89-10.09c-.28-4.41-.48-8.82-.71-13.23,0-.21,0-.43,0-.64a14,14,0,0,1,.93,2.44c.67,2.29,1.36,4.58,2,6.89.54,2.11,1,4.24,1.43,6.37.56,2.54,1.12,5.09,1.69,7.63a3.93,3.93,0,0,0,.28.66,11.86,11.86,0,0,0,.13-1.89,46.28,46.28,0,0,1,1.69-9.56c1.65-5.59,3.25-11.19,4.88-16.78a11.34,11.34,0,0,1,.42-1.06,6.76,6.76,0,0,1,.14,1.68c-.22,4.62-.47,9.25-.68,13.87a92.43,92.43,0,0,1-1.05,9.32c-.27,1.85-.47,3.71-.67,5.57,0,.27-.13.61.22.83,1-1,2-1.93,2.91-3,1.91-2.16,3.77-4.36,5.63-6.55a4.71,4.71,0,0,1,1.56-1.41,2.12,2.12,0,0,1-.09.27c-1.1,2.29-2.19,4.59-3.3,6.88-.45.94-1,1.84-1.42,2.78-.83,1.81-1.54,3.68-2.43,5.45-1.16,2.3-2.47,4.52-3.69,6.79-.28.53-.47,1.11-.72,1.72l.71.2c1.39.35,2.8.67,4.18,1.06a46,46,0,0,1,12.58,6,9,9,0,0,1,3.62,4c.44,1,1,2,1.43,3.08a4,4,0,0,1,.33,1.42c.05,1.75,0,3.5.06,5.24A7.83,7.83,0,0,1,1216,163.41Zm36.23,205.31a8.39,8.39,0,0,1-4-1.33c-1.12-.72-2.25-1.42-3.38-2.11-1.32-.81-2.64-1.61-3.94-2.44-.81-.51-1.61-1-2.4-1.58q-.79-.54-1.51-1.14a29.31,29.31,0,0,1-6.92-8.77q-.45-.83-.87-1.68a106.46,106.46,0,0,1-4.48-10.22q-.65-1.74-1.2-3.52-.35-1.12-.61-2.24a26.25,26.25,0,0,1-.71-6.74q0-1.12.17-2.25a23.24,23.24,0,0,1,1.91-6.71c.57-1.26,1.2-2.48,1.86-3.67q.44-.79.91-1.57c.69-1.14,1.41-2.26,2.17-3.34q1.42-2,3-3.88t3.35-3.66a31,31,0,0,1,4.71-3.83c1.93-1.32,3.93-2.51,5.87-3.82a3.89,3.89,0,0,1,1.49-.46q1.11-.2,2.21-.31a26.92,26.92,0,0,1,14.84,2.74l.9.41.9.41.08-.14,0,0c1.42.92,2.84,1.83,4.27,2.74.34-1.17.71-2.34,1.14-3.5a29.26,29.26,0,0,1,5.13-8.78c1.55-1.82,3.12-3.64,4.73-5.41a11.84,11.84,0,0,1,2.1-1.82l0,0q-2.16-2.27-4.25-4.63a41.87,41.87,0,0,1-7.83-14,31.5,31.5,0,0,1-1.18-17.64,91.71,91.71,0,0,1,2.59-9.6c1.46-4.26,4.2-7.82,6.48-11.64a35.16,35.16,0,0,1,9.22-9.72,28,28,0,0,1,6.76-3.33,56.72,56.72,0,0,1,21.32-3.84,22.19,22.19,0,0,1,4.14-4.38c2.64-1.92,5.14-4.14,8-5.68a27.06,27.06,0,0,1,3.23-1.45,67.16,67.16,0,0,1,9.5-17.52,13.28,13.28,0,0,1,3.59-3.32c3.76-2.28,7.61-4.39,11.48-6.47s8-2.39,12.11-2.91c.53-.07,1.06-.1,1.59-.12,2-3.09,4.24-6,6.46-9a35.88,35.88,0,0,1,10.73-9c2.43-1.44,4.87-2.88,7.28-4.37q9.44-5.83,18.84-11.7c2.35-1.47,4.6-3.11,6.94-4.59,7.83-4.9,15.66-9.82,23.55-14.62,3.73-2.27,7.53-4.47,11.45-6.37,8.84-4.3,17.75-8.44,26.66-12.58L1496,87.9l11.09-.79,10.25,1.69,11,7.92,3.38,7.55.29,10.83-1.3,10.65-7.12,14.12-8,11.83-6.89,7.6h0l-7.66,6.22c-7.2,5.83-14.47,11.59-21.56,17.57-5.24,4.42-10.24,9.15-15.36,13.73q-7.26,6.49-14.56,13-6.6,5.83-13.25,11.61a38.19,38.19,0,0,1-10.33,6.74c-1.47.61-2.92,1.3-4.35,2a19.08,19.08,0,0,1-6.85,1.94l-3,.28c-1.31,2.05-2.65,4.08-4.07,6-4.07,5.64-9.82,8.86-16,11.38-1,.39-1.94.73-2.91,1.06a81.28,81.28,0,0,1-5.48,10.28,70.81,70.81,0,0,1-7.45,9.78,14.43,14.43,0,0,1-5.74,3.93c-3.5,1.31-7,2.76-10.53,3.84a26.22,26.22,0,0,1-7.22,1.23c-2.38,0-4.76,0-7.12-.21a19.51,19.51,0,0,1-2.83,3.25l-1.77,1.49a18,18,0,0,1,1.56,3.15c.52,1.38,1.32,2.65,1.8,4,.66,1.89,1.18,3.83,1.7,5.76.28,1,.38,2.13.69,3.15a22,22,0,0,1,.47,10.4,27.85,27.85,0,0,1-3.35,9.42c-1.13,1.88-2.05,3.9-3.14,5.8a19.9,19.9,0,0,1-9.89,8.57c-2.3,1-4.52,2.12-6.8,3.15-4.43,2-9.18,2.71-13.88,3.6-4.35.83-8.76.43-13.13.72a19.07,19.07,0,0,1-8.49-1.58c-.5,1.64-1.09,3.25-1.74,4.85s-1.3,3.12-1.94,4.68l-.34.81c-.29.72-.6,1.43-.94,2.12s-.69,1.38-1.07,2a21.25,21.25,0,0,1-2.7,3.73c-.82.9-1.67,1.75-2.56,2.55l-.29.26a27.33,27.33,0,0,1-2.64,2.06,22.3,22.3,0,0,1-3.14,1.8,20.22,20.22,0,0,1-3.48,1.25,68.72,68.72,0,0,1-13.62,2A11.25,11.25,0,0,1,1252.22,368.72Zm58.45,286.69L1291.31,648l-13.26-7.71-9.12-11.16-1.29-2.85h0c-.89-2-2.06-4.62-2.88-6.64-.32-.78-.59-1.48-.77-2-.85-2.48-2.66-10.15-2.66-10.15s.31-8.44,1.18-13.68c.06-.36.54-2.54.67-2.91a38.76,38.76,0,0,1,5.39-9.25l0-.05a15.64,15.64,0,0,1,1.41-1.56c2.15-2,9.92-6.48,9.92-6.48l13.49-4.65,11,.64,14.71,2.24s5.74,3.37,7.6,4.59c.57.38,3.46,2.39,4.12,2.86l3.47,2.49c2.38,1.72,4.33,3.15,4.33,3.15l7.35,7.37,6.32,12.29,1.65,3.83,3.3,7.66s3.7,9.78,3.75,9.86,6,8.11,6,8.11l12.53,15.31,17.31,14.31,17.28,14.19,17.08,14.89L1443.38,705s6.47,5,7.37,7.41c.59,1.61-.54,6.82-.54,6.82l-3.09,4.47-4.26,4.44-4.61,3.11-4.66,0-6.43-3.84-42-34.58-17.59-12.43-21-12.17s-7.86-5.1-10.75-6.23a64.51,64.51,0,0,0-7.19-1.6C1324.09,659.37,1310.67,655.41,1310.67,655.41Zm267.91,184.16c-4.57.25-9.14.64-13.68,1.19-4.22.51-8.39,1.42-12.61,2a38.6,38.6,0,0,0-16.14,5.89c-2.42,1.55-3.57,4-5,6.19-1.77,2.73-3.32,5.61-5.2,8.25-3.44,4.82-7,9.58-10.63,14.22-2.64,3.32-5.54,6.44-8.41,9.57-3.26,3.57-6.56,7.12-10,10.57-1.88,1.91-4,3.62-6,5.4q-7.48,6.58-15,13.13c-.5.43-1.09.76-1.62,1.15q-5.15,3.77-10.28,7.55c-2.35,1.73-4.78,3.38-7,5.26-5.55,4.7-11.91,8.05-18.44,11-5.67,2.59-11.57,4.67-17.39,6.92a49.86,49.86,0,0,1-6.55,2.24c-3.88.91-7.8,1.64-11.73,2.29-2.87.47-5.77.76-8.67,1-4,.36-7.94.62-11.92.89-2.41.17-4.82.31-7.23.41-3.5.14-7,.33-10.49.32a53.37,53.37,0,0,1-9.13-.5,101,101,0,0,1-12.69-3.13c-3.7-1.17-7.23-2.85-10.83-4.31-1.47-.6-1.56-1.08-.74-2.48,2.43-4.13,4.78-8.3,7.2-12.44,2.28-3.88,4.69-7.69,6.9-11.61s4.13-7.79,6.23-11.67,4.2-7.73,6.39-11.55c2.34-4.1,4.76-8.15,7.2-12.19a13.83,13.83,0,0,1,2.15-2.86,50.24,50.24,0,0,1,5.56-4.88c4.22-3,8.63-5.74,12.88-8.7,4.91-3.42,10.73-4.39,16.26-6.08a80.24,80.24,0,0,1,9.11-2c4.9-.89,9.81-1.67,14.72-2.5,1.61-.27,3.22-.6,4.84-.81,3.56-.46,7.13-.86,10.7-1.29,2.87-.35,5.74-.72,8.61-1.05,4.43-.51,8.89-.83,13.29-1.54a70,70,0,0,0,8.46-2.24c5.53-1.62,11.06-3.27,16.56-5,1.74-.54,3.4-1.34,5.09-2,2.53-1,5.25-1.77,7.55-3.19,3.73-2.3,7.09-5.19,10.77-7.58a39.39,39.39,0,0,0,8.16-7.75,54.69,54.69,0,0,0,6.84-10.32c1.64-3.11,3.15-6.29,4.65-9.47,1.69-3.57,3.26-7.2,5-10.76s3.63-7.28,5.46-10.92c.08-.16.32-.25.59-.45,2.84,12.49,5.85,24.73,5.37,37.61,16.58,2,31,9.46,45.48,17.75C1588,839.29,1583.26,839.31,1578.58,839.57Zm45.94-248.79c-10.93-2.46-21.91-4.73-32.66-7.93l-6.28-1.84c1.92-6,4.41-11.52,5.48-17.51a57.83,57.83,0,0,0-8.68,16.4,8.48,8.48,0,0,1-1.15-.22c-4.11-1.51-8.24-3-12.31-4.57a67.41,67.41,0,0,1-17-9.47,20.42,20.42,0,0,1-6.89-10.24,48.3,48.3,0,0,1-1.41-5.62c-.59-3.06-2-6-1.39-9.25a11.72,11.72,0,0,0-1.19-.49l-13.21-3.66a13.08,13.08,0,0,0-2.77-.72c-5.34-.24-10.68-.4-16-.55a136.57,136.57,0,0,0-22.13,1.65,16.17,16.17,0,0,1-1.8,0l-.17-2.51c6.15-1.16,12.2-1.37,18.19-2s12,.62,18.09.54c-11.91-3.05-24.06-4.75-36.26-6.26a9,9,0,0,1-.09-4.24l3.11.51c2,.33,4.06.68,6.1,1,4.2.66,8.43,1.18,12.6,2,3.92.75,7.77,1.81,11.66,2.72l16.74,3.9c2,.45,3.93.87,5.9,1.3l.11-.36c-9.26-3.08-18-7.46-27.58-9.85a288.43,288.43,0,0,0-28.9-5.51l.19-5.23c.73,0,1.17,0,1.61.06,2.55.34,5.1.7,7.65,1,9.69,1.31,19,4.21,28.13,7.49,7.71,2.76,14.94,6.62,22.36,10,.68.31,1.38.58,2.14.9a14.66,14.66,0,0,1,6.11-5.13c2.8-1.12,5.67-2.08,8.53-3.08a3.29,3.29,0,0,1,1.15-.11c2.31.06,4.62.1,6.93.21,2.06.1,4.12.23,6.16.45a33.24,33.24,0,0,1,3.5.77c-.45,2.27-.83,4.35-1.28,6.41a82.65,82.65,0,0,0-2,14.33,7.45,7.45,0,0,0,.44,3.48,89.64,89.64,0,0,0,3.95-11.25c1.11-3.8,2-7.69,2.94-11.61a10.94,10.94,0,0,1,1.57.28c4.06,1.45,8.11,2.94,12.17,4.39a39.9,39.9,0,0,0,3.84,1.27c2.74.68,5.58,1,8.24,1.93,4,1.32,7.83,2.92,11.71,4.49a190.59,190.59,0,0,1,29.39,15q6.47,4,13.15,7.73c4.9,2.7,9.93,5.16,14.88,7.78a46.75,46.75,0,0,0,8.84,3.8,103,103,0,0,1,14.88,5.36q6.13,2.85,12.29,5.61c6.4,2.89,12.68,6,18.39,10.15A163.18,163.18,0,0,1,1748,607.29c4.91,4.64,9.57,9.56,14.34,14.35,1.08,1.08,2.18,2.14,3.54,3.47-.68-.07-1-.07-1.25-.13-2.26-.53-4.53-1-6.76-1.61a165.92,165.92,0,0,0-21.5-4.68,203.1,203.1,0,0,1-28.32-6c-1.16-.34-2.29-.77-3.65-1.24,1.21-3.24,2.46-6.27,3.45-9.37s1.79-6.42,2.66-9.64l-.46-.16a1.6,1.6,0,0,0-.43.32c-.5.75-1,1.49-1.46,2.27a69.36,69.36,0,0,0-5.75,14.1c-.16.52-.41,1-.62,1.56-.56-.17-.93-.28-1.3-.4a256.29,256.29,0,0,0-25.52-7c-7.78-1.77-15.53-3.71-23.28-5.62C1642.64,595.29,1633.63,592.83,1624.52,590.78Zm181.75,234.58c-6.66,9.82-13.37,19.62-20,29.48-2.72,4.05-5.12,8.34-8,12.31-3.28,4.6-6.88,9-10.36,13.44s-7.1,9.16-10.72,13.69a3.64,3.64,0,0,0-.56,3.45,38.24,38.24,0,0,0,3.83,11.26c2,3.51,3.93,7.09,6.13,10.49a33.9,33.9,0,0,1,5.11,13.81c.6,4.14,1.55,8.24,2.33,12.35.09.47.16.95.27,1.59a12.54,12.54,0,0,1-1.72-.14c-2.86-.65-5.73-1.26-8.56-2a4.56,4.56,0,0,1-2.19-1.47,38.7,38.7,0,0,1-4.52-6.25c-1.4-2.74-3.52-4.77-5.65-7.19a7.83,7.83,0,0,0-.54,1.4c-.62,3.93-1.4,7.85-1.73,11.81a24.94,24.94,0,0,0,.75,6.2,4.14,4.14,0,0,0,1,1.57,26.78,26.78,0,0,1,5.14,11.79,4,4,0,0,1-.48,2.36c-1.7,3.28-3.5,6.5-5.4,10a11.29,11.29,0,0,1-1.9-.9,22.22,22.22,0,0,1-6.81-7.57c-.65-1.26-1.47-2.44-2.21-3.66l-.45.11c-.13.8-.28,1.6-.39,2.41-.41,2.83-.83,5.66-1.22,8.5a26.45,26.45,0,0,1-3.26,8.79,7.6,7.6,0,0,0-.7,1.29c-.76,2.51-2.66,3.33-5,3.68-1.07.16-1.74,0-2.19-1-1-2.3-2.09-4.57-3.08-6.88-.81-1.9-1.54-3.84-2.3-5.77l-.6,0c-.53,1.63-1,3.27-1.61,4.88-1.19,3.28-2.44,6.54-3.63,9.82a2.82,2.82,0,0,1-1.8,1.86c-1.31.47-2.61,1-3.89,1.55-1,.44-1.58.15-2.18-.84a21.09,21.09,0,0,1-2.69-10c0-.66-.17-1.32-.3-2.32-3.12,3.2-5.71,6.26-7.16,10.25-1.52,4.19-3.4,8.26-5.08,12.4a1.65,1.65,0,0,1-1.7,1.21c-1,0-2.07.27-3.11.4-.6.07-1.21.1-2.05.17,0-3.31-.18-6.44.11-9.52s1.08-6.13,1.43-9.38c-.67,1-1.4,1.93-2,2.94a22.56,22.56,0,0,1-11.55,9.61c-4.95,1.88-10.1,3.22-15.46,4.9a18.1,18.1,0,0,0,.43-3.62c-.27-3.06,1.26-5,3.46-6.86,3.09-2.62,5.85-5.61,8.87-8.31,1.82-1.62,3.86-3,5.82-4.45.71-.54,1.45-1.05,2.56-1.86l-10.46-.72a2.63,2.63,0,0,1,.64-3c3.76-3.55,7.44-7.18,11.2-10.73a33.8,33.8,0,0,1,3.59-2.87c1.54-1.1,2.72-2.72,4.86-3l-.19-.6c-.78-.07-1.56-.16-2.34-.2-1.33-.08-2.65-.23-4-.19-3.5.09-5.88-1.86-8-4.29a2.16,2.16,0,0,1-.22-.68c.54-.31,1.06-.67,1.62-.93,4-1.88,8.06-3.86,12.18-5.57,2.31-1,4.82-1.42,7.22-2.15a9.29,9.29,0,0,0,2.94-1.46,11.46,11.46,0,0,0-1.43,0c-1.88.17-3.75.35-5.62.59a2.36,2.36,0,0,1-2.49-1.15c-.53-.8-1.09-1.59-1.74-2.54,1.58-1.34,3-2.65,4.54-3.82,3.84-2.92,7.72-5.77,11.59-8.64a16.11,16.11,0,0,0,4.81-6.07c-5.39-.58-10.64-.57-16.09-.73a23.45,23.45,0,0,1,.07-5.87,2.15,2.15,0,0,1,.83-1.15c3.44-2.73,6.8-5.59,10.4-8.1,3.08-2.15,6.43-3.92,9.69-5.82,3-1.72,6.25-2.23,9.56-2.82s6.39-1.49,9.56-2.32c2.9-.76,5.8-1.54,8.65-2.45a8.88,8.88,0,0,0,2.63-1.59c3.92-3.08,6.82-7.15,10.16-10.79,4.19-4.56,7.94-9.52,11.9-14.3,2.14-2.58,4.35-5.09,6.48-7.68,3.36-4.09,6.68-8.22,10-12.34,4.25-5.27,8.48-10.55,13.61-15,2.71-2.38,5.14-5.09,7.73-7.61.83-.81,1.79-1.49,2.85-2.37l3.88,2.58C1808.33,822.27,1807.31,823.82,1806.27,825.36Zm49.29-498.92c-3.61,6.26-7.14,12.57-10.87,18.76a206.5,206.5,0,0,1-19.55,27.66,282.75,282.75,0,0,1-22.57,23.83,263.19,263.19,0,0,1-25.07,20.19c-1.27.92-2,1.81-1.57,3.46.23.8.26,1.66.41,2.49,1.21,6.63,2.43,13.26,3.63,19.89.16.87.19,1.75.3,2.83-10.38,1.14-20.46.33-30.61-.72,0-.51,0-.86,0-1.2.87-8,1.7-15.91,2.67-23.85a3,3,0,0,0-1.74-3.54c-3.89-2.11-7.76-4.24-11.54-6.54-11.05-6.73-21.74-14-31-23.06a110.37,110.37,0,0,1-9.69-10.5c-3.47-4.4-6.5-9.15-9.68-13.77a112.24,112.24,0,0,1-12.5-22.61c-1.76-4.5-3.46-9-5.22-13.62.79-.78,1.33-1.33,1.89-1.86a148.17,148.17,0,0,1,20.32-16,216.5,216.5,0,0,1,35.65-19.35,99.84,99.84,0,0,1,22.36-6.52,8.1,8.1,0,0,1,1.88-.08c2.24.15,4.49.25,6.71.53,7.73,1,15.47,1.86,23.16,3.06a87.49,87.49,0,0,1,16.57,3.92c4.87,1.78,9.81,3.4,14.66,5.22a83.72,83.72,0,0,1,18.27,9.48c4.56,3.15,8.87,6.65,13.22,10.09,3.13,2.48,6.13,5.12,9.18,7.7.63.53,1.21,1.12,1.88,1.75C1856.32,324.94,1856,325.71,1855.56,326.43Z"/><path d="M605.94,911c-3.19.5-6.38,1.08-9.56,1.63a2,2,0,0,0-.48.26c2.68,6.61,7.76,11.43,12.34,17.06a16.81,16.81,0,0,0,.24-4.88,47.54,47.54,0,0,1,.13-9.86c.17-1.35.55-2.68.85-4.11A7.57,7.57,0,0,0,605.94,911Z"/><path d="M991.81,217.61l-.08,0-.28,1.07.08,0Z"/><path d="M1824.69,313.15a137.13,137.13,0,0,0-19.24-8.94c-7.72-3.06-15.8-4.29-24-5.2-4.46-.5-8.93-.82-13.4-1.16a39.12,39.12,0,0,0-4.2,0c-1.26,0-2.52.24-3.78.21a52.85,52.85,0,0,0-13.29,1.88c-2.8.67-5.59,1.36-8.42,1.87-5,.88-9.57,2.78-14.18,4.63-6.57,2.64-13.06,5.48-19.57,8.27-1.16.49-2.27,1.1-3.39,1.68-2.56,1.31-5,2.8-7.68,3.91-4.25,1.78-7.92,4.47-11.71,7a12.67,12.67,0,0,0-1.12,1,13.73,13.73,0,0,0,2.28,1.55c4.15,1.7,8.27,3.53,12.53,4.93a129,129,0,0,0,39.26,6.74c2.1,0,4.2.29,6.3.35,4.62.14,9.26.5,13.87.27,7.29-.36,14.57-.43,21.85-.27a44,44,0,0,0,11.88-1.36c5.57-1.42,11.2-2.62,16.74-4.15s10.86-3.31,16.29-5c4.69-1.42,9.38-2.88,14.11-4.19,2.42-.67,4.92-1,7.38-1.54a13.36,13.36,0,0,0,1.69-.66c-1.83-1.15-3.32-2.15-4.87-3C1834.93,319,1829.77,316.13,1824.69,313.15Z"/><path d="M999,163.31a17.37,17.37,0,0,1,1.28,4,84.82,84.82,0,0,1,.71,12.62c-.61,10.34-3.18,20.32-6.52,30.1-.66,1.93-1.36,3.84-2,5.75l.27.13c1.21-2.15,2.48-4.27,3.63-6.45,2.72-5.16,5.27-10.39,6.41-16.17.65-3.26,1.22-6.54,1.81-9.81a26.89,26.89,0,0,0-.21-10.67,65.94,65.94,0,0,0-6-17,24.89,24.89,0,0,0-5.44-7.35,10.13,10.13,0,0,0-.93-.65,4.84,4.84,0,0,0,.61,1.71A100.47,100.47,0,0,1,999,163.31Z"/><path d="M1349.28,662.53l10,6.15,8.81,6.79,15.69,10.91,12,9.33s13.4,11.46,14.09,11.77,11.25,9.51,11.25,9.51l7.33,6.41,6.06,2.06,4.55-1.11,4.22-3.58.79-4.73-.07-.48h0l-1.47-5.13-4.44-3.15-7-5.38-7.73-7-9.56-9.43-8.36-6.08-9.6-9.11-13-11.17-7.66-7.44-8.49-10-4.83-5.18-4-5.81-5.76-11.82-2.67-6.49-4.94-9.2-5.34-8.23-5-5.45-5.42-4.49-6.55-5.09-7.21-2.4-7.49-2.17-8.93-.8-7.91-.14-6.09,2.13-5.88,3.22-5,4-3.77,5.41-3.23,6.71,0,8.25.92,8.33.11.29,0,.19,3,7.77,4,5.61,4.92,6.19,7.22,7.15,7.8,3.33,8.34,4.62,9.14,2.57,8.65,1,9.59,2.86,8.88,2.72Zm-24.9-13.05-.17,0-6.79-1.26-9.53-2.81-8.5-3.29-5.65-3.38-5.15-4.11-5.54-4.71-3.3-5.66-4-6-2.62-7.8-1.07-6.66,1-5.08,1.73-5.69,2.35-4.61,3.68-3.9,4.57-3.52,6.54-1.41,7.33-.71,6.81,1.09,5.54,2.45,6.66,3.34,7.33,4.84,5.44,5.74,5,7.53,3.9,7.47,2.79,8.29,4.82,11.06,5.36,7.29,7.83,8.88,8.06,8.51,8.77,7.54,13.9,13.12,11.91,10.1c6,4.61,12.67,9.85,13.82,10.86.84.84,3.18,2.75,12.24,9.62l9,7.48.16,2.77-1.49,1.85-1.46.55-2.19-.14-9.76-8.51-8.48-6.11-.09-.06-10.93-7.25-8.37-6.51-10.33-8.05L1372,672.17l-9.44-6.34-11.43-6.19-6.3-3.81-7.26-3Z"/><path d="M109.71,337c.4,7.43,1.31,14.83,2,22.25l.89.06c.18-.76.39-1.52.53-2.29,1.4-7.79,2.66-15.62,4.22-23.38,2.81-14,4.15-28.08,1.73-42.35-1.17-6.89-1.94-13.86-2.49-20.82-.59-7.44-.72-15,1.38-22.22,3.29-11.34,7.4-22.36,14.78-31.82a24.72,24.72,0,0,0,2-2.87,5.59,5.59,0,0,0,.35-1.71,32.91,32.91,0,0,0-6.74,5.51c-3.71,4-7.75,7.84-10.76,12.34-4.49,6.74-6.68,14.5-8,22.53-2.25,13.54-2.43,27.13-1.8,40.78C108.45,307.63,108.92,322.3,109.71,337Z"/><path d="M95.13,513.68c-2.76-10-6.29-19.75-9.48-29.62-1.76-5.45-3.26-11-3.36-16.74-.16-8.85-.29-17.71-.51-26.56-.07-2.72.08-5.51-1.6-8.07-.25,1.49-.61,3-.75,4.46-.68,7.18-1.74,14.37-1.86,21.56-.17,10.65,2.26,21.05,4.31,31.45a130.91,130.91,0,0,0,3.72,15.61c3,9.16,6.46,18.19,9.87,27.22,1.29,3.43,3,6.71,4.48,10.06A129.34,129.34,0,0,0,95.13,513.68Z"/><path d="M167.06,288.27a195,195,0,0,1,.9,23c-.54,12.68-1.83,25.32-2.8,38a73.71,73.71,0,0,0,.89,19.55c.22-.85.51-1.69.65-2.55,1-6,1.83-12,2.94-17.92,2.78-14.88,5.67-29.73,8.52-44.6a72.35,72.35,0,0,0,.71-19.14c-.5-6.62-.9-13.25-1-19.89-.09-10.13,2.9-19.77,5.23-29.5.17-.69.3-1.39.44-2.08a77.45,77.45,0,0,0-7.66,11C168.17,257.82,165.87,272.67,167.06,288.27Z"/><path d="M1275.89,356.29c2.76-3.05,4.85-6.36,4.48-10.77a8.34,8.34,0,0,1,.12-1.81,20.29,20.29,0,0,0-.75-8.2c-.67-2.46-1.46-4.9-2.36-7.28a38.24,38.24,0,0,0-2.19-4.49c-.41-.76-1-1.41-1.43-2.18a29,29,0,0,0-1.57-2.66c-.19-.29-.38-.59-.58-.87-.44-.63-.92-1.24-1.41-1.83s-.86-1-1.31-1.49a38.55,38.55,0,0,0-4.5-4.16c-3.34-2.62-6.5-5.49-10.54-6.94-2.16-.77-4.37-1.74-6.6-1.84a15.37,15.37,0,0,0-7.75,2c-3.23,1.68-5.4,4.43-7.41,7.36-1.21,1.76-2.2,3.68-3.42,5.43a8.68,8.68,0,0,0-1.66,4.68c-.13,3.16-.32,6.32-.24,9.48a38.12,38.12,0,0,0,2.46,13.45c1.28,3.13,3.36,5.91,5.09,8.85,0,.06.1.09.14.14l3.41,3.35a24.86,24.86,0,0,0,6.24,4.89,37.84,37.84,0,0,0,5.34,2,25.47,25.47,0,0,0,7,.79,38,38,0,0,0,9.69-1.58A22.77,22.77,0,0,0,1275.89,356.29ZM1265,324.84c-.24.74-.36,1.21-.54,1.65a20.54,20.54,0,0,1-3.49,5.82,7.84,7.84,0,0,1-6.47,2.73,2.69,2.69,0,0,1-2.54-1.81,3.35,3.35,0,0,1,.41-3.39,6.89,6.89,0,0,1,1.35-1.3,16.37,16.37,0,0,1,6.18-3.06A44.83,44.83,0,0,1,1265,324.84ZM1251.17,320c.14-.43.25-.87.41-1.28a3,3,0,0,1,2.49-2c2.94-.59,4.91.91,6.77,2.8.9.91,1.64,2,2.51,3a2.6,2.6,0,0,1-.57.34c-1.64.38-3.28.76-4.93,1.09a7.45,7.45,0,0,1-1.64.06,6.26,6.26,0,0,1-4.79-2.79A1.27,1.27,0,0,1,1251.17,320Zm-17,7.39q.46-1.82,1-3.62a6.63,6.63,0,0,1,1.87-2.5,2.87,2.87,0,0,1,2.18-.94c.22,0,.44,0,.66,0,1.85-.14,2,.5,2.53,1.95a2,2,0,0,1-.74,2.16,15.89,15.89,0,0,1-5.15,3.47c-.78.29-1.54.66-2.49,1.07A9.65,9.65,0,0,1,1234.12,327.35Zm-1.09,5.76c1.07-.81,2.11-1.68,3.23-2.42a25.23,25.23,0,0,1,4.5-2.37,3.45,3.45,0,0,1,4.25,1.13c.36.48.64,1,.95,1.55a1.59,1.59,0,0,1-.17,1.88,2.65,2.65,0,0,1-.77.69,8.37,8.37,0,0,1-5.26,1.38,34.33,34.33,0,0,1-6.65-1.58Zm6.73,9.62a4.71,4.71,0,0,1-2.84-1.69,27.53,27.53,0,0,1-2.92-4.66,1.15,1.15,0,0,1,0-.29l1.31-.05a15.31,15.31,0,0,1,4.34.43,5.53,5.53,0,0,1,3.18,2.69,1.56,1.56,0,0,1,.12.72,3.53,3.53,0,0,1-.05.67A2.43,2.43,0,0,1,1239.75,342.72Zm8.43,11.49q-1.61-.69-3.19-1.48a6.26,6.26,0,0,1-2.05-2.14,2.9,2.9,0,0,1-.57-2.24c0-.21,0-.43,0-.64.12-1.81.73-1.9,2.12-2.2a1.85,1.85,0,0,1,1.89,1,15.78,15.78,0,0,1,2.51,5.46c.17.8.4,1.58.66,2.55A8.51,8.51,0,0,1,1248.18,354.22Zm6.27-.39c-.44.53-.9,1-1.42,1.64a9.66,9.66,0,0,1-2.13-4.46,13.44,13.44,0,0,1,0-5.29,4.54,4.54,0,0,1,4.59-3.42,2.51,2.51,0,0,1,2,2.72A13.55,13.55,0,0,1,1254.45,353.82Zm9.89-2.25a4.64,4.64,0,0,1-2.24,2.3,25.31,25.31,0,0,1-5,1.65,1,1,0,0,1-.27,0c.09-.44.18-.85.27-1.27a15.87,15.87,0,0,1,1.46-4.06,5.31,5.31,0,0,1,3.23-2.39,1.39,1.39,0,0,1,.68.06,3.19,3.19,0,0,1,.6.21A2.43,2.43,0,0,1,1264.34,351.58Zm5.82-16.18a3.53,3.53,0,0,1-1.09,2.61c-.19.18-.35.39-.52.58-1.44,1.66-2.1,1.27-3.66.48a2.37,2.37,0,0,1-1.08-2.43,19.54,19.54,0,0,1,1.58-7.22c.43-.9.77-1.84,1.24-3a10.9,10.9,0,0,1,1.13,1.4q1.05,1.91,2,3.89A8,8,0,0,1,1270.15,335.4Z"/><path d="M202.93,225c1.19,6.65,2.46,13.29,3.66,19.94,1.26,7,2.53,14,3.65,21a17.5,17.5,0,0,1,0,5.91c-1.61,8.41-1.09,16.95-1.77,25.41-.55,6.83-.74,13.7-1.45,20.51-.81,7.76-1.81,15.51-3.12,23.2-1.87,10.9-3.41,21.87-7.12,32.38-2,5.6-3.72,11.28-5.5,16.94-3.44,11-7,22-10.16,33.06-1.57,5.47-3.17,11.1-3.52,16.73-.61,9.76-.26,19.57-.28,29.36a14.24,14.24,0,0,0,.63,2.69,25.5,25.5,0,0,0,1.38-2.25,48.46,48.46,0,0,0,4-15.46c.72-7.41,1.61-14.83,2.94-22.15,2-10.83,6.4-20.93,9.91-31.31,3.33-9.82,6.73-19.62,9.89-29.5,3.49-10.91,6.08-22,6.56-33.53.37-8.84.44-17.7.48-26.56s-.06-17.94-.21-26.92c-.07-4.19-.47-8.37-.59-12.56-.19-6.87.13-13.78-.47-20.61-1.28-14.61-5.05-28.68-10.25-42.38a5.21,5.21,0,0,0-.74-1.05l-.56.25c.13,1.27.19,2.55.39,3.8C201.44,216.31,202.16,220.68,202.93,225Z"/><path d="M925.8,221.21c.23.37.52.71.78,1.06a5.44,5.44,0,0,0,.15-2c-.44-6.12-.94-12.23-1.31-18.35a112.75,112.75,0,0,1,.9-21,128.53,128.53,0,0,1,2.47-15.7c1.26-5,2.47-9.9,4.65-14.59,1.28-2.76,2.08-5.74,3.1-8.63l-.49-.21c-1.14,1.83-2.35,3.62-3.4,5.49-2.92,5.2-5.51,10.53-6.49,16.5-.53,3.22-1.16,6.42-1.75,9.62-.63,3.39-1.48,6.76-1.86,10.18-.91,8.07-1.4,16.16-.23,24.27C923,212.41,923.32,217.08,925.8,221.21Z"/><path d="M964.16,225.18a41.51,41.51,0,0,0,6.41-11.95q1.89-5.64,3.89-11.25a48.79,48.79,0,0,0,2.78-13.68,83.63,83.63,0,0,0-1.32-19.87,28.65,28.65,0,0,0-7.47-15.07A48,48,0,0,1,970.7,159c.88,3.33,1.51,6.73,2.16,10.11,1.64,8.55,1,17.16-.44,25.58-1.73,10-5,19.59-8.52,29.07-.21.55-.36,1.13-.54,1.69A.93.93,0,0,0,964.16,225.18Z"/><path d="M1369.3,915.46a.78.78,0,0,1-.25-.44c-.25-2.12-2.31-2.56-3.53-3.78-.08-.08-.27-.05-.41,0a5.33,5.33,0,0,0-2.82,2c-.72,1.85-.23,3.64.27,5.43,0,.13.25.21.38.33l1.26,1.15c.21.19.41.5.65.53,1.11.16,2.25.5,3.29-.34.26-.21.72-.19,1.18-.29a19.88,19.88,0,0,1,.57-2A1.81,1.81,0,0,0,1369.3,915.46Z"/><path d="M171.41,477.8c-1.86-10.91-3.77-21.8-5.66-32.8h-.49c.13,6,.21,12.14.42,18.16.18,5.23.68,10.49.69,15.72,0,6.15-.27,12.33-.53,18.49A41.6,41.6,0,0,1,165,504c-2,9.69-4.23,19.33-6.12,29a362.61,362.61,0,0,0-6.6,56.86c-.15,4.17-.09,8.35-.13,13a8,8,0,0,0,.74-1.35c3.5-15,7.34-29.86,10.37-44.92,3.17-15.75,5.32-31.7,8.39-47.48a76.07,76.07,0,0,0,.51-25.05C171.88,482,171.76,479.87,171.41,477.8Z"/><path d="M1400.17,929.88c-.24-1.46-.39-2.93-.59-4.4a22.41,22.41,0,0,0-.75-4.61c-1.9-5.15-5.62-9-9.69-12.47a35.21,35.21,0,0,0-4.21-2.71l-.35.47c2,3.09,4.06,6.15,6,9.28.94,1.51,1.64,3.16,2.49,4.73a40.44,40.44,0,0,1,2.13,5.63,10.79,10.79,0,0,1,.61,1.94c.66,4.24,1.28,8.49,1.91,12.73.23,1.52.44,3.05.7,4.8.33-.31.69-.5.77-.76a24.48,24.48,0,0,0,1.18-4.46c.17-1.59-.16-3.22-.13-4.84s.21-3.16.35-4.94C1400.62,930.31,1400.21,930.13,1400.17,929.88Z"/><path d="M127.49,279.87c1,9.28,2.25,18.52,3.18,27.8,1,10,1.33,20-.47,30-.29,1.6-.38,3.24-.7,4.84-1.72,8.8-3.29,17.63-5.29,26.37-1.45,6.34-3.6,12.51-5.24,18.81-2.07,8-4.11,16-5.83,24.08a154.81,154.81,0,0,0-3.4,20.31c-1,13.33,1.23,26.49,3.36,39.61a5.29,5.29,0,0,0,.51,1c.14-1.75.31-3.1.35-4.45.15-4.66.34-9.31.37-14a112.24,112.24,0,0,1,6.43-36q3.46-10.09,6.72-20.24a192.66,192.66,0,0,0,7.86-33.3c.59-4.39,1-8.8,1.7-13.17a224.53,224.53,0,0,0,2.11-53,221.75,221.75,0,0,1,.22-40.83c.67-6.37,1.21-12.71,3.62-18.8a81.65,81.65,0,0,1,14.86-24.34c2.09-2.36,4.18-4.71,6.2-7.13.68-.81,1.92-1.46,1.21-3.34-1.14.68-2.24,1.23-3.23,1.94a67.35,67.35,0,0,0-14.39,13.17c-3.37,4.31-6.9,8.62-9.44,13.41a122.2,122.2,0,0,0-8.64,20.59C126.78,262.06,126.54,270.89,127.49,279.87Z"/><path class="cls-1" d="M1391.47,241.68l0-.18Z"/><path class="cls-2" d="M1002.5,449.53l-19.29-.07c-.06-.43-.14-.8-.17-1.18-.17-2.09-.35-4.17-.47-6.26-.35-6.16-.73-12.32-1-18.48-.35-7.86-.63-15.73-.9-23.6q-.27-7.6-.43-15.21c-.14-5.81-.27-11.63-.33-17.44-.07-7.38-.07-14.75-.1-22.13,0-.28,0-.55.06-.94,7.59-.66,15.15-.63,22.73-.7a3.14,3.14,0,0,1,.18.62c0,1.52-.17,3,0,4.56a39.81,39.81,0,0,1-.12,4.24c-.06,4.78-.11,9.57-.12,14.35,0,3.62.08,7.23,0,10.85,0,4-.22,8-.27,12s0,7.94,0,11.91c0,6.74-.07,13.47,0,20.21,0,4.15.19,8.29.25,12.44.06,4.36.08,8.72.11,13.08C1002.57,448.34,1002.53,448.86,1002.5,449.53Z"/><path class="cls-2" d="M956.68,439.66c0-8.38-.14-16.76-.25-25.14q-.14-11-.35-21.93c-.23-11.35-.46-22.69-.75-34-.23-8.89-.56-17.78-.86-26.67-.1-3-.27-6-.41-9,0-.54-.09-1.08-.15-1.7l-17.59-1c0,1-.07,1.72-.07,2.48,0,6.28,0,12.56.06,18.85,0,6,.19,12,.19,17.94,0,8.94,0,17.87-.09,26.8-2.49-.09-5-.17-7.48-.25-5.3-.15-10.6-.24-15.89-.32q-6.93-.11-13.86-.14l-5.32,0c-.16-17.73-.38-33.17-.55-33.95-1-.18-15.87.38-17.25.68,0,.41-.1.78-.12,1.15-.08,2.16-.18,4.31-.23,6.47-.12,5.81-.19,11.62-.32,17.42-.06,2.75-.15,5.51-.22,8.26-4.79,0-9.58.14-14.37.23-1.91,0-3.81.13-5.71.21-.34,0-.68.07-1.08.11l-.75,17.56c.61.05,1.09.11,1.56.13,4,.13,7.94.27,11.91.37,2.6.06,5.21.09,7.81.14,0,.82-.08,1.65-.1,2.47-.14,6.63-.19,13.25-.28,19.88q-.08,6.19-.17,12.38c0,.25,0,.51,0,.73,1.72.59,17.89.3,19.95-.33.16-1.19.14-16.73,0-34.41l2.46.1c3.62.15,7.23.26,10.85.45s7.28.49,10.93.67c3.29.16,6.59.21,9.88.34,2.73.11,5.46.25,8.19.39-.07,5.35-.21,10.69-.26,16s0,10.42,0,15.63q0,10.34-.15,20.67c0,2-.24,4.09-.12,6.1.13,2.22-.07,4.37,0,6.56a6.79,6.79,0,0,0,.16.91c6.91.24,13.81.62,20.73,0,0-.56.06-1,.06-1.35C956.7,460.91,956.72,450.29,956.68,439.66Z"/><path class="cls-2" d="M945.19,559.08c5.76,10.89,11.34,21.68,16.55,32.81-.46,0-.78.09-1.09.09l-17.07-.21a8.9,8.9,0,0,0-1.2,0,1.56,1.56,0,0,1-1.82-1.12c-.83-1.92-1.8-3.78-2.7-5.68-1.21-2.55-2.4-5.11-3.61-7.66-1-2.19-2.1-4.37-3.13-6.57-.66-1.41-1.37-2.81-1.92-4.26a19.8,19.8,0,0,0-1.69-3.29c-.43-.7-1.2-2.11-1.15-1.67-.17,0-12.58.49-18.6.65s-11.91.3-17.87.42c-5.26.1-10.51.15-15.77.22l-13.78.21-34,.59c-2.13,0-4.26.13-6.38.21a8.59,8.59,0,0,0-.88.13c0,.85-.09,1.67-.12,2.49-.05,1.29-.14,2.59-.13,3.88,0,1.09.11,2.19.18,3.28.25,3.82.52,7.63.77,11.45q.22,3.28.4,6.56c0,.42,0,.85,0,1.38-5.19.56-17.28,1.3-18,.57,0-.27,0-1.4-.07-1.82q-.15-1.89-.28-3.77c0-.76-.06-1.52-.09-2.28-.27-6.11-.53-12.22-.83-18.33-.27-5.68-.6-11.36-.88-17-.33-6.61-.63-13.23-1-19.84-.18-3.55-.4-7.11-.58-10.66-.27-5.22-.52-10.43-.78-15.65-.11-2.19-.23-4.39-.34-6.58,0-.36,0-.72,0-1.2.48,0,.87-.09,1.25-.1l6.89,0c3.13,0,6.25,0,9.38,0,7.45.05,14.9.14,22.36.17q10.33,0,20.65,0,7.29,0,14.57-.08c5.39-.05,10.78-.14,16.17-.22,3.79-.05,7.58-.14,11.37-.14,4.32,0,8.64.07,13,.09,3.43,0,6.85-.06,10.28,0,2.26,0,4.52.18,6.76.44,3,.34,5.92.83,8.88,1.28a42.46,42.46,0,0,1,11.37,3.55q3,1.4,6,2.93a25,25,0,0,1,5,3.91,38.53,38.53,0,0,1,5.84,6.79,35.48,35.48,0,0,1,4.39,9.36c.58,1.76,1,3.57,1.5,5.37a8.12,8.12,0,0,1,.21,1.68,21,21,0,0,1-.37,5.86,14.29,14.29,0,0,1-1.24,3,19.9,19.9,0,0,1-4.06,5.27,60.61,60.61,0,0,1-4.55,4.18c-3.35,2.63-6.78,5.16-10.82,6.67-.72.27-1.47.44-2.18.72C948.36,557.79,946.86,558.41,945.19,559.08ZM816.51,515.59c-.22,9.84.12,19.55.71,29.31.22,0,.41,0,.6,0,2.4,0,4.79,0,7.19,0,4.32,0,8.65.14,13,.19,3.69,0,7.38,0,11.08.08,5.36,0,10.71.12,16.07.12,5.09,0,10.18-.07,15.27-.16,6.72-.11,13.44-.24,20.16-.43,4.75-.13,9.51-.27,14.26-.56a84.9,84.9,0,0,1,10.46,0,26.64,26.64,0,0,0,7-.45,85,85,0,0,0,12.17-3.49,12.74,12.74,0,0,0,5.48-3.71l2.06-2.43a12.37,12.37,0,0,0,.7-3.18,13.17,13.17,0,0,0-1.61-8.25,12.51,12.51,0,0,0-4.12-4.4c-1.14-.68-2.33-1.28-3.5-1.92a5,5,0,0,0-2.14-.68c-2.38-.14-4.76-.4-7.14-.58a29.12,29.12,0,0,1-3.57-.21,29.84,29.84,0,0,0-5-.3c-3.64-.12-7.3,0-10.95,0-2.12,0-4.25,0-6.37,0-4.58,0-9.16.47-13.75.25-2.09-.1-4.19-.09-6.28-.12l-11.68-.2c-3.39-.06-6.79-.11-10.18-.19-4.12-.1-8.25-.3-12.37-.31-5.46,0-10.91.08-16.37.18-6.62.13-13.22.74-19.82,1.26C817.37,515.43,817,515.51,816.51,515.59Z"/><path class="cls-2" d="M991.49,523.26a14.44,14.44,0,0,1,2.79-9c4-6.12,8.93-11.3,15.71-14.44a37.42,37.42,0,0,0,3.51-1.85,12.46,12.46,0,0,1,4.92-1.62,32.61,32.61,0,0,1,18,2.37,20.92,20.92,0,0,1,4,3c4,3.21,7.11,7.29,10.16,11.39a50,50,0,0,1,5.48,9.69,19.6,19.6,0,0,1,1.74,6.77c.17,2.7.3,5.4.36,8.1a6.86,6.86,0,0,1-.39,2.47c-1,2.82-2.21,5.58-3.25,8.4-1.1,3-3.36,5.07-5.5,7.26-4.33,4.42-9.8,6.64-15.68,7.95a34.69,34.69,0,0,1-10.9,1.09,12.09,12.09,0,0,1-2.63-.55,78.87,78.87,0,0,1-17.73-8.74c-3.78-2.43-6.1-5.83-7.89-9.78-2-4.3-2.45-8.89-2.76-13.51-.11-1.62,0-3.24,0-4.87C991.46,527.41,991.57,524.64,991.49,523.26Z"/><path class="cls-2" d="M1058.79,576.74l0,13.59c-.27,0-.5.09-.73.11-1.3.11-2.6.23-3.91.31-3.85.23-7.69.47-11.54.64-4.91.22-9.82.38-14.74.55q-4.75.16-9.5.25c-3.63.07-7.26.15-10.89.16-4.61,0-9.21,0-13.82,0-.17,0-.34,0-.59,0-.44-5.35-.45-10.68-.52-16a1.77,1.77,0,0,1,.39-.12c.95,0,1.89.13,2.85,0a22.08,22.08,0,0,1,2.65.1c3,.06,6,.11,9,.14,2.26,0,4.52,0,6.78,0,2.5,0,5,.18,7.51.24s5,0,7.44.07c4.21,0,8.41.1,12.62.11,2.59,0,5.18-.1,7.77-.13s5.45,0,8.17,0C1058,576.68,1058.37,576.71,1058.79,576.74Z"/><path class="cls-2" d="M992.13,639.59a.34.34,0,0,1,.36-.36h9.14a.34.34,0,0,1,.36.36v2a.34.34,0,0,1-.36.36h-6.4a.19.19,0,0,0-.21.21v7.68a.19.19,0,0,0,.21.21h5.55a.34.34,0,0,1,.36.36v2a.34.34,0,0,1-.36.36h-5.55a.19.19,0,0,0-.21.21v10.17a.34.34,0,0,1-.36.36h-2.17a.34.34,0,0,1-.36-.36Z"/><path class="cls-2" d="M1015.11,663.41a.36.36,0,0,1-.39-.25l-3-10.1a9.3,9.3,0,0,1-1,0h-1.46a.19.19,0,0,0-.21.21v9.74a.34.34,0,0,1-.36.36h-2.17a.34.34,0,0,1-.36-.36V639.59a.34.34,0,0,1,.36-.36h4.23c4.27,0,6.55,1.85,6.55,7,0,3.24-1.07,5.19-3,6.15l3.38,10.7c.07.18,0,.36-.18.36Zm-.71-17.21c0-3.27-1.07-4.3-3.63-4.3h-1.53a.19.19,0,0,0-.21.21v8.18a.19.19,0,0,0,.21.21h1.53C1013.26,650.5,1014.4,649.51,1014.4,646.2Z"/><path class="cls-2" d="M1022.19,639.59a.34.34,0,0,1,.36-.36h9.14a.34.34,0,0,1,.36.36v2a.34.34,0,0,1-.36.36h-6.4a.19.19,0,0,0-.21.21v7.54a.19.19,0,0,0,.21.21h5.55a.34.34,0,0,1,.36.36v2a.34.34,0,0,1-.36.36h-5.55a.19.19,0,0,0-.21.21v7.79a.19.19,0,0,0,.21.21h6.4a.34.34,0,0,1,.36.36v2a.34.34,0,0,1-.36.36h-9.14a.34.34,0,0,1-.36-.36Z"/><path class="cls-2" d="M1036.32,639.59a.34.34,0,0,1,.36-.36h9.14a.34.34,0,0,1,.36.36v2a.34.34,0,0,1-.36.36h-6.4a.19.19,0,0,0-.21.21v7.54a.19.19,0,0,0,.21.21H1045a.34.34,0,0,1,.36.36v2a.34.34,0,0,1-.36.36h-5.55a.19.19,0,0,0-.21.21v7.79a.19.19,0,0,0,.21.21h6.4a.34.34,0,0,1,.36.36v2a.34.34,0,0,1-.36.36h-9.14a.34.34,0,0,1-.36-.36Z"/><path class="cls-2" d="M1055.28,663.73c-3.66,0-5.51-2.06-5.69-6.22,0-.21.07-.36.28-.39l2.1-.39a.31.31,0,0,1,.39.32c.14,3,1.1,4.05,3,4.05s2.7-.89,2.7-4.16c0-2.77-.53-3.8-2.45-4.55l-1.46-.57c-3.31-1.28-4.23-2.92-4.23-6.65,0-4.12,1.78-6.26,5.41-6.26s5.3,2,5.48,5.76a.36.36,0,0,1-.32.39l-2,.32a.29.29,0,0,1-.39-.29c-.07-2.38-.85-3.56-2.7-3.56s-2.63,1.07-2.63,3.52.57,3.34,2.53,4.09l1.46.57c3.09,1.24,4.2,2.85,4.2,6.86C1060.9,661.45,1059.37,663.73,1055.28,663.73Z"/><path class="cls-2" d="M1068.37,663.41a.34.34,0,0,1-.36-.36V642.11a.19.19,0,0,0-.21-.21h-4a.34.34,0,0,1-.36-.36v-2a.34.34,0,0,1,.36-.36h11.28a.34.34,0,0,1,.36.36v2a.34.34,0,0,1-.36.36h-4a.19.19,0,0,0-.21.21v20.94a.34.34,0,0,1-.36.36Z"/><path class="cls-2" d="M1082.67,663.41a.34.34,0,0,1-.36-.36v-9.64l-4.66-13.83c-.07-.21,0-.36.25-.36h2.24c.25,0,.36.11.43.36l3.17,10.13h.11l3.17-10.13c.07-.25.18-.36.39-.36h2.21c.25,0,.32.14.25.36l-4.66,13.83v9.64a.34.34,0,0,1-.36.36Z"/><path class="cls-2" d="M1093.63,639.59a.34.34,0,0,1,.36-.36h2.17a.34.34,0,0,1,.36.36v20.94a.19.19,0,0,0,.21.21h6.33a.34.34,0,0,1,.36.36v2a.34.34,0,0,1-.36.36H1094a.34.34,0,0,1-.36-.36Z"/><path class="cls-2" d="M1107.43,639.59a.34.34,0,0,1,.36-.36h9.14a.34.34,0,0,1,.36.36v2a.34.34,0,0,1-.36.36h-6.4a.19.19,0,0,0-.21.21v7.54a.19.19,0,0,0,.21.21h5.55a.34.34,0,0,1,.36.36v2a.34.34,0,0,1-.36.36h-5.55a.19.19,0,0,0-.21.21v7.79a.19.19,0,0,0,.21.21h6.4a.34.34,0,0,1,.36.36v2a.34.34,0,0,1-.36.36h-9.14a.34.34,0,0,1-.36-.36Z"/><path class="cls-2" d="M1001,696.17a.35.35,0,0,1-.39-.28l-2.74-9.17h-1.35a.19.19,0,0,0-.21.21v8.89a.34.34,0,0,1-.36.36H992a.34.34,0,0,1-.36-.36V672.34A.34.34,0,0,1,992,672h5.76c4.3,0,7.08,2,7.08,7.4,0,3.06-1,5-2.7,6.19l3.31,10.24c.07.18,0,.36-.18.36Zm-.85-16.78c0-2.52-.78-3.31-2.6-3.31h-1a.19.19,0,0,0-.21.21v6.19a.19.19,0,0,0,.21.21h1C999.35,682.69,1000.14,681.94,1000.14,679.38Z"/><path class="cls-2" d="M1012.8,672.34c.07-.21.18-.36.39-.36h4.2a.39.39,0,0,1,.39.36l5.19,23.47a.27.27,0,0,1-.28.36h-3.95a.37.37,0,0,1-.39-.36l-.78-4.37H1013l-.82,4.37a.37.37,0,0,1-.39.36h-3.95a.27.27,0,0,1-.28-.36Zm4.09,15.4-1.53-8.39h-.11l-1.6,8.39Z"/><path class="cls-2" d="M1026,672.34a.34.34,0,0,1,.36-.36h3.84c.32,0,.5.11.57.36l3.7,12.69h.14l3.56-12.69c.07-.25.25-.36.57-.36h3.81a.34.34,0,0,1,.36.36v23.47a.34.34,0,0,1-.36.36h-3.45a.34.34,0,0,1-.36-.36v-14h-.21l-2.63,9.67a.46.46,0,0,1-.46.36h-2a.46.46,0,0,1-.46-.36l-2.63-9.67h-.21v14a.34.34,0,0,1-.36.36h-3.45a.34.34,0,0,1-.36-.36Z"/><path class="cls-2" d="M1047.24,672.34a.34.34,0,0,1,.36-.36h10.56a.34.34,0,0,1,.36.36v3.48a.34.34,0,0,1-.36.36h-6a.19.19,0,0,0-.21.21v5.26a.19.19,0,0,0,.21.21h5.23a.34.34,0,0,1,.36.36v3.48a.34.34,0,0,1-.36.36h-5.23a.19.19,0,0,0-.21.21v5.48a.19.19,0,0,0,.21.21h6a.34.34,0,0,1,.36.36v3.48a.34.34,0,0,1-.36.36h-10.56a.34.34,0,0,1-.36-.36Z"/><path class="cls-2" d="M1062.18,672.34a.34.34,0,0,1,.36-.36H1067a.44.44,0,0,1,.5.36l4,15.18h.18V672.34a.34.34,0,0,1,.36-.36h3.38a.34.34,0,0,1,.36.36v23.47a.34.34,0,0,1-.36.36h-4.27a.44.44,0,0,1-.5-.36l-4.2-15.18h-.18v15.18a.34.34,0,0,1-.36.36h-3.38a.34.34,0,0,1-.36-.36Z"/><path class="cls-2" d="M992.13,705.1a.34.34,0,0,1,.36-.36h4.59c4.2,0,6,1.81,6,6.22,0,3-1,4.52-2.81,5.3v.07c1.81.57,3.06,2.2,3.06,5.65,0,5.19-2.1,6.93-6.62,6.93h-4.23a.34.34,0,0,1-.36-.36Zm4.8,10.1c2.28,0,3.24-.85,3.24-3.88s-.85-3.91-3.31-3.91h-1.64a.19.19,0,0,0-.21.21V715a.19.19,0,0,0,.21.21Zm-1.71,11.06h1.6c2.63,0,3.59-1,3.59-4.3s-1-4.23-3.49-4.23h-1.71a.19.19,0,0,0-.21.21V726A.19.19,0,0,0,995.23,726.26Z"/><path class="cls-2" d="M1011.31,705.1c.07-.21.18-.36.39-.36h2.13a.39.39,0,0,1,.39.36l5.09,23.47a.29.29,0,0,1-.32.36h-2.13a.37.37,0,0,1-.39-.36l-1.07-5.3H1010l-1.07,5.3c0,.21-.14.36-.36.36h-2.13a.29.29,0,0,1-.32-.36Zm3.59,15.68-2.06-10.53h-.11l-2.21,10.53Z"/><path class="cls-2" d="M1032.12,728.92a.36.36,0,0,1-.39-.25l-3-10.1a9.3,9.3,0,0,1-1,0h-1.46a.19.19,0,0,0-.21.21v9.74a.34.34,0,0,1-.36.36h-2.17a.34.34,0,0,1-.36-.36V705.1a.34.34,0,0,1,.36-.36h4.23c4.27,0,6.55,1.85,6.55,7,0,3.24-1.07,5.19-3,6.15l3.38,10.7c.07.18,0,.36-.18.36Zm-.71-17.21c0-3.27-1.07-4.3-3.63-4.3h-1.53a.19.19,0,0,0-.21.21v8.18a.19.19,0,0,0,.21.21h1.53C1030.27,716,1031.41,715,1031.41,711.71Z"/><path class="cls-2" d="M1047,705.1a.34.34,0,0,1,.36-.36H1052c4.2,0,6,1.81,6,6.22,0,3-1,4.52-2.81,5.3v.07c1.81.57,3.06,2.2,3.06,5.65,0,5.19-2.1,6.93-6.62,6.93h-4.23a.34.34,0,0,1-.36-.36Zm4.8,10.1c2.28,0,3.24-.85,3.24-3.88s-.85-3.91-3.31-3.91h-1.64a.19.19,0,0,0-.21.21V715a.19.19,0,0,0,.21.21Zm-1.71,11.06h1.6c2.63,0,3.59-1,3.59-4.3s-1-4.23-3.49-4.23h-1.71a.19.19,0,0,0-.21.21V726A.19.19,0,0,0,1050.12,726.26Z"/><path class="cls-2" d="M1065.56,728.92a.34.34,0,0,1-.36-.36v-9.64l-4.66-13.83c-.07-.21,0-.36.25-.36H1063c.25,0,.36.11.43.36l3.17,10.13h.11l3.17-10.13c.07-.25.18-.36.39-.36h2.21c.25,0,.32.14.25.36l-4.66,13.83v9.64a.34.34,0,0,1-.36.36Z"/><path class="cls-2" d="M995.8,737.86c.07-.21.18-.36.39-.36h2.13a.39.39,0,0,1,.39.36l5.09,23.47a.29.29,0,0,1-.32.36h-2.13a.37.37,0,0,1-.39-.36l-1.07-5.3h-5.37l-1.07,5.3c0,.21-.14.36-.36.36H991a.29.29,0,0,1-.32-.36Zm3.59,15.68L997.33,743h-.11L995,753.54Z"/><path class="cls-2" d="M1007.64,737.86a.34.34,0,0,1,.36-.36h2.17a.34.34,0,0,1,.36.36v9.89a.19.19,0,0,0,.21.21h5.19a.19.19,0,0,0,.21-.21v-9.89a.34.34,0,0,1,.36-.36h2.17a.34.34,0,0,1,.36.36v23.47a.34.34,0,0,1-.36.36h-2.17a.34.34,0,0,1-.36-.36V750.83a.19.19,0,0,0-.21-.21h-5.19a.19.19,0,0,0-.21.21v10.49a.34.34,0,0,1-.36.36H1008a.34.34,0,0,1-.36-.36Z"/><path class="cls-2" d="M1028,737.86c.07-.21.18-.36.39-.36h2.13a.39.39,0,0,1,.39.36l5.09,23.47a.29.29,0,0,1-.32.36h-2.13a.37.37,0,0,1-.39-.36l-1.07-5.3h-5.37l-1.07,5.3c0,.21-.14.36-.36.36h-2.13a.29.29,0,0,1-.32-.36Zm3.59,15.68L1029.56,743h-.11l-2.21,10.53Z"/><path class="cls-2" d="M1048.84,761.68a.36.36,0,0,1-.39-.25l-3-10.1a9.3,9.3,0,0,1-1,0H1043a.19.19,0,0,0-.21.21v9.74a.34.34,0,0,1-.36.36h-2.17a.34.34,0,0,1-.36-.36V737.86a.34.34,0,0,1,.36-.36h4.23c4.27,0,6.55,1.85,6.55,7,0,3.24-1.07,5.19-3,6.15l3.38,10.7c.07.18,0,.36-.18.36Zm-.71-17.21c0-3.27-1.07-4.3-3.63-4.3H1043a.19.19,0,0,0-.21.21v8.18a.19.19,0,0,0,.21.21h1.53C1047,748.77,1048.13,747.78,1048.13,744.47Z"/><path class="cls-2" d="M1056,758.41c-.36-1.07-.46-2-.46-8.82s.11-7.75.46-8.82c.75-2.31,2.56-3.59,5.3-3.59s4.59,1.28,5.3,3.59c.36,1.07.46,2,.46,8.82s-.11,7.75-.46,8.82c-.71,2.31-2.56,3.59-5.3,3.59S1056.74,760.72,1056,758.41Zm7.86-.82c.21-.71.29-1.24.29-8s-.07-7.29-.29-8a2.47,2.47,0,0,0-2.56-1.71,2.43,2.43,0,0,0-2.53,1.71c-.25.71-.32,1.24-.32,8s.07,7.29.32,8a2.43,2.43,0,0,0,2.53,1.71A2.47,2.47,0,0,0,1063.85,757.59Z"/><path class="cls-2" d="M1072,737.86a.34.34,0,0,1,.36-.36H1075a.48.48,0,0,1,.53.36L1081,756h.14V737.86a.34.34,0,0,1,.36-.36h1.89a.34.34,0,0,1,.36.36v23.47a.34.34,0,0,1-.36.36h-2.53a.48.48,0,0,1-.53-.36l-5.51-18.13h-.18v18.13a.34.34,0,0,1-.36.36h-1.89a.34.34,0,0,1-.36-.36Z"/><path class="cls-2" d="M1089,737.86a.34.34,0,0,1,.36-.36h2.17a.34.34,0,0,1,.36.36v23.47a.34.34,0,0,1-.36.36h-2.17a.34.34,0,0,1-.36-.36Z"/></g></g></svg>