<svg xmlns="http://www.w3.org/2000/svg" viewBox="0 0 165 75"><defs><style>.cls-1{fill:#fff;}.cls-2{fill:#e14c9a;}</style></defs><title>Asset 8</title><g id="Layer_2" data-name="Layer 2"><g id="Design"><rect class="cls-1" x="1.5" y="1.5" width="162" height="72"/><path class="cls-1" d="M162,3V72H3V3H162m3-3H0V75H165V0Z"/><path class="cls-2" d="M19.73,57.71q0-.21,0-.63c0-.28,0-.49,0-.63V55.31h.55l2.5,0v.48a19.31,19.31,0,0,1-.32,4.68,3.29,3.29,0,0,1-1.43,1.75A4,4,0,0,1,18.9,63l-.43-.08a6.23,6.23,0,0,0-1.18-.08H15.58q-2.19,0-2.81-1.36-.86-1.81-.86-7.42a7,7,0,0,1,.06-1q.1-.75.1-.8v-.56q0-.27,0-.75c0-.32,0-.54,0-.67l.11-4a13.06,13.06,0,0,1,.64-3.79,2.9,2.9,0,0,1,3-1.76,10.16,10.16,0,0,1,1.72.19,2.08,2.08,0,0,1,.54-.08l.87,0,.87,0,.27.08a3.15,3.15,0,0,1,1.69,1.12,4.81,4.81,0,0,1,.27.68q.19.55.48,1.62a26.48,26.48,0,0,1,.24,4.23,6.17,6.17,0,0,1-.62,0l-2.51-.05,0-.37q0-.21.19-3.1a3.41,3.41,0,0,0-1.21-.7,9.38,9.38,0,0,0-1.37-.05l-.6,0a2.19,2.19,0,0,0-1.26,2v.46a1,1,0,0,1,.13.43,2.06,2.06,0,0,1-.13.83v1.74q0,.91-.08,2.7t-.08,2.68a15.62,15.62,0,0,0,.35,3.51,2.72,2.72,0,0,0,1.53.62,7,7,0,0,0,2.3-.43A2.46,2.46,0,0,0,19.73,57.71Z"/><path class="cls-2" d="M37.36,48v2.44q0,2-.08,3.77t-.08,1.85v.7q0,3.8-2.19,5.51a21.28,21.28,0,0,1-3.91.54,5.35,5.35,0,0,1-3.64-1.23,4.13,4.13,0,0,1-.4-.4,1.57,1.57,0,0,1-.11-.35,24.11,24.11,0,0,1-.59-3.61q-.16-1.85-.35-3.67a1.21,1.21,0,0,0,.08-.43,1.54,1.54,0,0,0-.07-.38,1.51,1.51,0,0,1-.07-.37v-.13a.45.45,0,0,0,0-.13,27.25,27.25,0,0,1,.19-4.74l-.32-.64a30,30,0,0,1,.32-3.37,2.76,2.76,0,0,1,1.31-1.89,7.39,7.39,0,0,1,3.35-.55,17.39,17.39,0,0,1,4.31.64,9.48,9.48,0,0,1,1.2,1.1,5.43,5.43,0,0,1,.88,2c0,.13,0,.31.05.56q.08,1,.08,1V48Zm-3.67-.78a6,6,0,0,1,.07-.74,6.17,6.17,0,0,0,.07-.74A1.75,1.75,0,0,0,32.57,44l-1.79.11a1.87,1.87,0,0,0-1.47.86q-.05,1.69-.05,2.19v2.6q0,1.34.08,3.75.08,2.68.11,3.75a6.47,6.47,0,0,0,0,.86q.13,1.12,2,1.12c.21,0,.5,0,.86-.05a6.76,6.76,0,0,1,.83-.11l.7-.8v-2q0-1.15,0-3.43t0-3.43a7.88,7.88,0,0,0-.14-1.77C33.72,47.43,33.7,47.29,33.7,47.25Z"/><path class="cls-2" d="M47.15,62.61q0-.08-.29-1.47L46.64,60a7.14,7.14,0,0,0-.32-1.74q-.24-.86-.64-2.6-.13-.8-.45-2.3-.93-3.59-1.12-4.5a19.35,19.35,0,0,1-.48-2.7v7.63q0,1.34-.27,9l-2.94-.35q.19-2.6.19-5.65,0-1.58-.09-4.7t-.09-4.67a64.8,64.8,0,0,1,.3-6.5H45.5l.38,1.42q.24,1.47.81,4.39.19.83.48,2.49.19,1.07.51,3.21a7.92,7.92,0,0,1,.65,2.44q.4-2.49,1.32-6.31A20.84,20.84,0,0,0,50,46q.19-1.82.34-2.6.19-.94.19-1a2.07,2.07,0,0,0,.16-.72c.05-.48.08-.73.08-.75h5q.13,1.17.16,2.59v5.18q0,1.44.09,4.34t.09,4.31q0,2.83.13,5.15a.89.89,0,0,1-.4.08H54.06a5.12,5.12,0,0,0-1,.08V60.82q0-2.62-.16-7.05-.19-5.18-.21-7-.4,1.85-1.1,4.93-.21.8-.59,2.45-.11.32-.27,1v.37q-.24,1.14-.67,3.46a20.25,20.25,0,0,1-.4,2.1,5.6,5.6,0,0,0-.24,1.49,1.11,1.11,0,0,1-.48.08h-.91A7.65,7.65,0,0,0,47.15,62.61Z"/><path class="cls-2" d="M59.28,62.69V49.81q0-2.3,0-3.85,0-2.11,0-1.76,0-.16,0-.47t0-.47q0-.35,0-1.07t0-1.1v-.27h.24l.6,0,.57,0a3.18,3.18,0,0,0,.77-.08A11.93,11.93,0,0,0,62.6,41q0,2.14.05,6.36a9,9,0,0,0,.08,1.28c0,.13,0,.31,0,.56s0,.44,0,.56q0,.77,0,1.23c0,.2,0,.29,0,.27s0,.37,0,1.26,0,2.19,0,3.69a10,10,0,0,0,.08,1,9.91,9.91,0,0,1,.08,1q0,.56-.08,1.66t-.08,1.63a8.33,8.33,0,0,0,.05,1.1,4.63,4.63,0,0,0-.7-.08.9.9,0,0,0-.64-.29,2.11,2.11,0,0,0-.72.2l-.05.13Q60.17,62.64,59.28,62.69Z"/><path class="cls-2" d="M77.13,46.47a3.18,3.18,0,0,0,.13.62l-.13.21v.8A11.7,11.7,0,0,1,77,49.39c-.06.7-.09,1.12-.09,1.28q-.19,2.78-.19,3.88v2.62a2.31,2.31,0,0,1-.11.78,1.26,1.26,0,0,1,.11.56v2a7.29,7.29,0,0,1-.11,1.1q-.11.78-.13,1.12l-.29,0a14.63,14.63,0,0,1-2-.16q-.45-.91-1.22-2.73l-.61-1.66a15.83,15.83,0,0,1-.82-2.11,10,10,0,0,1-.8-1.74q-.45-1.26-1.54-3.59v.35q0,.77.05,2.19t.05,2.22q0,1.36.12,3.47.15,2.83.18,3.47a13.8,13.8,0,0,1-3,.29,30.11,30.11,0,0,1-.14-3.66q0-2.51-.24-7.56T66,44Q66,42.46,66,41a25.45,25.45,0,0,1,2.63-.16,2.84,2.84,0,0,1,.35.46,14.2,14.2,0,0,1,1,2.81q.88,3.21.9,3.29.64,1.74,1.73,4.82l.64,1.9,1.17,3.13q-.19-6.29-.19-13a27.82,27.82,0,0,1,.16-3.21l.6,0a22.87,22.87,0,0,1,2.29.19,1.06,1.06,0,0,0-.13.46,2.14,2.14,0,0,0,.13.78v2.68A6,6,0,0,1,77.13,46.47Z"/><path class="cls-2" d="M91.24,50.81a24.23,24.23,0,0,1,.24,3.75q0,.27-.08,3.75,0,.56-.08,1.69a3.28,3.28,0,0,1-2,2.17,6.66,6.66,0,0,1-3,.75A5.59,5.59,0,0,1,83.06,62a5.47,5.47,0,0,1-1.94-2.34,10.18,10.18,0,0,1-.64-3q-.32-4.42-.32-6.8A16.07,16.07,0,0,1,81.28,43a2.87,2.87,0,0,1,1.47-1.28l1.87-.75,1.1,0,1.07,0a4.58,4.58,0,0,1,3.35,1A4.18,4.18,0,0,1,91.32,45v.35a1.73,1.73,0,0,0-.19.83v.59l-2.7,0a2.9,2.9,0,0,0-1.07-2.49q-.24,0-2,0a1.59,1.59,0,0,0-1.61,1.26,7.55,7.55,0,0,0-.24,2.22q0,2.14.35,11.13,1.77.16,2.33.16a13.25,13.25,0,0,0,2.46-.29q0-.4.16-5.16a8.08,8.08,0,0,0-1.55-.16v-.35q.08-.75.13-2.27.86-.08,1.74-.08A20.41,20.41,0,0,1,91.24,50.81Z"/><path class="cls-2" d="M109.54,46.74a3.08,3.08,0,0,1-1.2.21q-.32,0-.86-.05c-.45-.05-.72-.08-.83-.08q0-.35.05-1t.05-1a1.33,1.33,0,0,0-.53-1.23,4,4,0,0,0-1.4-.24.47.47,0,0,1-.24.08l-.57,0-.57,0a1,1,0,0,0-1,.61v1.1a8,8,0,0,0-.19,2.14,5.83,5.83,0,0,0,.35,1.15q3.4,2.76,3.67,3a17.25,17.25,0,0,1,3.13,3.51l.05.11a1.7,1.7,0,0,1-.08.41,1.69,1.69,0,0,0-.08.42,1.08,1.08,0,0,0,.13.54,1,1,0,0,0-.13.51v1.47a3.55,3.55,0,0,0,0,.43,3.66,3.66,0,0,1,0,.46,5.1,5.1,0,0,1-.4,2,2.62,2.62,0,0,1-1.27,1.5,9.7,9.7,0,0,1-3.39.37,16.81,16.81,0,0,1-2.06-.16,7.92,7.92,0,0,1-2-.43q-.78-.37-.78-4.12,0-.72,0-1.5a3.07,3.07,0,0,0,.43,0,4.08,4.08,0,0,0,1.34-.24l.62.21V58a2.52,2.52,0,0,0,.51,1.78,2.39,2.39,0,0,0,1.76.52,3.55,3.55,0,0,0,1.78-.59,14.48,14.48,0,0,0,.16-1.77,10.25,10.25,0,0,0-.35-2.33,24.4,24.4,0,0,0-3-2.8A23.14,23.14,0,0,1,99.69,50q0-.83-.16-3.18-.13-2-.13-3.16,0-.37,0-.75a2.86,2.86,0,0,0,.4-1c.05-.25.15-.37.29-.35a4.71,4.71,0,0,1,2.65-.72h2.33a9.2,9.2,0,0,0,1.18.13,15.91,15.91,0,0,1,1.71.21q1.23.35,1.42,1.23a11.58,11.58,0,0,1,.19,2.19Q109.6,44.47,109.54,46.74Z"/><path class="cls-2" d="M124,48v2.44q0,2-.08,3.77t-.08,1.85v.7q0,3.8-2.19,5.51a21.27,21.27,0,0,1-3.91.54,5.35,5.35,0,0,1-3.64-1.23,4.13,4.13,0,0,1-.4-.4,1.54,1.54,0,0,1-.11-.35,24.16,24.16,0,0,1-.59-3.61q-.16-1.85-.35-3.67a1.21,1.21,0,0,0,.08-.43,1.52,1.52,0,0,0-.07-.38,1.51,1.51,0,0,1-.07-.37v-.13a.45.45,0,0,0,0-.13,27.18,27.18,0,0,1,.19-4.74l-.32-.64a29.77,29.77,0,0,1,.32-3.37,2.76,2.76,0,0,1,1.31-1.89,7.39,7.39,0,0,1,3.35-.55,17.38,17.38,0,0,1,4.31.64,9.48,9.48,0,0,1,1.2,1.1,5.44,5.44,0,0,1,.88,2c0,.13,0,.31.05.56q.08,1,.08,1V48Zm-3.67-.78a6.07,6.07,0,0,1,.07-.74,6.09,6.09,0,0,0,.07-.74A1.75,1.75,0,0,0,119.23,44l-1.79.11A1.87,1.87,0,0,0,116,45q-.05,1.69-.05,2.19v2.6q0,1.34.08,3.75.08,2.68.11,3.75a6.61,6.61,0,0,0,0,.86q.13,1.12,2,1.12c.21,0,.5,0,.86-.05a6.75,6.75,0,0,1,.83-.11l.7-.8v-2q0-1.15,0-3.43t0-3.43a7.85,7.85,0,0,0-.14-1.77C120.38,47.43,120.36,47.29,120.36,47.25Z"/><path class="cls-2" d="M138.61,48v2.44q0,2-.08,3.77t-.08,1.85v.7q0,3.8-2.19,5.51a21.28,21.28,0,0,1-3.91.54,5.35,5.35,0,0,1-3.64-1.23,4.13,4.13,0,0,1-.4-.4,1.57,1.57,0,0,1-.11-.35,24.11,24.11,0,0,1-.59-3.61q-.16-1.85-.35-3.67a1.21,1.21,0,0,0,.08-.43,1.54,1.54,0,0,0-.07-.38,1.51,1.51,0,0,1-.07-.37v-.13a.45.45,0,0,0,0-.13,27.25,27.25,0,0,1,.19-4.74l-.32-.64a30,30,0,0,1,.32-3.37,2.76,2.76,0,0,1,1.31-1.89,7.39,7.39,0,0,1,3.35-.55,17.39,17.39,0,0,1,4.31.64,9.48,9.48,0,0,1,1.2,1.1,5.43,5.43,0,0,1,.88,2c0,.13,0,.31.05.56q.08,1,.08,1V48Zm-3.67-.78a6,6,0,0,1,.07-.74,6.17,6.17,0,0,0,.07-.74A1.75,1.75,0,0,0,133.82,44l-1.79.11a1.87,1.87,0,0,0-1.47.86q-.05,1.69-.05,2.19v2.6q0,1.34.08,3.75.08,2.68.11,3.75a6.47,6.47,0,0,0,0,.86q.13,1.12,2,1.12c.21,0,.5,0,.86-.05a6.76,6.76,0,0,1,.83-.11l.7-.8v-2q0-1.15,0-3.43t0-3.43a7.88,7.88,0,0,0-.14-1.77C135,47.43,134.94,47.29,134.94,47.25Z"/><path class="cls-2" d="M153,46.47a3.18,3.18,0,0,0,.13.62l-.13.21v.8a11.7,11.7,0,0,1-.09,1.28c-.06.7-.09,1.12-.09,1.28q-.19,2.78-.19,3.88v2.62a2.31,2.31,0,0,1-.11.78,1.26,1.26,0,0,1,.11.56v2a7.29,7.29,0,0,1-.11,1.1q-.11.78-.13,1.12l-.29,0a14.63,14.63,0,0,1-2-.16q-.45-.91-1.22-2.73l-.61-1.66a15.83,15.83,0,0,1-.82-2.11,10,10,0,0,1-.8-1.74q-.45-1.26-1.54-3.59v.35q0,.77.05,2.19t.05,2.22q0,1.36.12,3.47.15,2.83.18,3.47a13.8,13.8,0,0,1-3,.29,30.11,30.11,0,0,1-.14-3.66q0-2.51-.24-7.56T141.79,44q0-1.52.05-2.94a25.45,25.45,0,0,1,2.63-.16,2.84,2.84,0,0,1,.35.46,14.2,14.2,0,0,1,1,2.81q.88,3.21.9,3.29.64,1.74,1.73,4.82l.64,1.9,1.17,3.13Q150,51,150,44.33a27.82,27.82,0,0,1,.16-3.21l.6,0a22.87,22.87,0,0,1,2.29.19,1.06,1.06,0,0,0-.13.46,2.14,2.14,0,0,0,.13.78v2.68A6,6,0,0,1,153,46.47Z"/><path class="cls-2" d="M51,33.7V30.16h6.46V15.48H51.41V11.93h10V30.16H63V33.7Z"/><path class="cls-2" d="M66.36,33.7V11.93H70.3V33.7Z"/><path class="cls-2" d="M79,33.7V15.48h-5.9V11.93H79a3.73,3.73,0,0,1,3.94,3.5V33.7Z"/><path class="cls-2" d="M94.9,33.7h-2V30.16h2V15.48H86.83V11.93h12V29.72A4,4,0,0,1,94.9,33.7Zm-8.07,3.94V20.83h3.94V37.64Z"/><path class="cls-2" d="M102,33.7V30.16h6.46V15.48h-6.06V11.93h10V30.16H114V33.7Z"/></g></g></svg>