<svg xmlns="http://www.w3.org/2000/svg" width="186" height="140" viewBox="0 0 186 140"><defs><style>.cls-1{fill:none;stroke:#db5ea5;stroke-miterlimit:10;stroke-width:3px;}.cls-2{fill:#db5ea5;}</style></defs><title>Hiro_Tel_Desktop_p</title><g id="Layer_2" data-name="Layer 2"><g id="Layer_1-2" data-name="Layer 1"><rect class="cls-1" x="1.5" y="1.5" width="183" height="137" rx="11.34" ry="11.34"/><path class="cls-2" d="M31.44,57.77l.11-9-6.27,3.84a1,1,0,0,1-1.38-.43L21.78,48.5A1,1,0,0,1,22.1,47l6.26-3.51L22.1,40a1,1,0,0,1-.32-1.49l2.12-3.73a1,1,0,0,1,1.38-.42l6.27,3.83-.11-9a1,1,0,0,1,1.06-1.06h4.25a1,1,0,0,1,1.06,1.06l-.21,9L44,34.34a1,1,0,0,1,1.38.42l2.13,3.73A1,1,0,0,1,47.16,40L40.79,43.5,47.16,47a1,1,0,0,1,.32,1.49l-2.13,3.73a1,1,0,0,1-1.38.43L37.6,48.93l.21,8.84a1,1,0,0,1-1.06,1.07H32.5A1,1,0,0,1,31.44,57.77Z"/><path class="cls-2" d="M54.73,56.59a.74.74,0,0,1,.71-.85L62.52,55c.5-.07.85.14.85.71a14.1,14.1,0,0,0,.22,3.55,2.58,2.58,0,0,0,2.76,1.92A2.49,2.49,0,0,0,69,59.36c.21-.57.28-1.28.28-5s-.07-4.55-.28-5c-.42-1.35-1.42-1.77-3.12-1.77H64.86a.68.68,0,0,1-.71-.72V40.17a.68.68,0,0,1,.71-.71H66c1.62,0,2.62-.42,3-1.7.21-.5.28-1.14.28-4.69,0-2.7-.07-3.41-.28-4a2.49,2.49,0,0,0-2.69-1.85,2.58,2.58,0,0,0-2.76,1.92,14.1,14.1,0,0,0-.22,3.55.65.65,0,0,1-.85.71l-7.08-.71a.74.74,0,0,1-.71-.85,17.87,17.87,0,0,1,.64-5.26c1.49-4.55,5.24-7.17,11.05-7.17,6,0,9.64,2.55,11.12,7.1a22.14,22.14,0,0,1,.64,6.54,18.64,18.64,0,0,1-.49,5.61A7.84,7.84,0,0,1,74,43.09v.14a7.38,7.38,0,0,1,3.69,4.41c.35,1.14.49,2.34.49,6.75s-.21,6.18-.64,7.53C76.06,66.47,72.37,69,66.42,69s-9.56-2.63-11.05-7.18A17.87,17.87,0,0,1,54.73,56.59Z"/><path class="cls-2" d="M100,28.09V28H93.51a.38.38,0,0,0-.43.43v4a.67.67,0,0,1-.71.71H86a.67.67,0,0,1-.7-.71V20.78a.67.67,0,0,1,.7-.72h22.25a.67.67,0,0,1,.71.72v6.39a2.58,2.58,0,0,1-.14.78L97.05,67.68a.82.82,0,0,1-.93.71h-7.5c-.43,0-.64-.28-.5-.86Z"/><path class="cls-2" d="M115.77,61.35a2.52,2.52,0,0,1,.36-1.35l12.11-19.83c1.56-2.48,2.12-4.12,2.12-8a8.59,8.59,0,0,0-.28-3,2.58,2.58,0,0,0-2.76-1.92,2.55,2.55,0,0,0-2.69,1.92c-.22.57-.29,1.21-.29,4.05,0,.57-.35.78-.85.71l-7-.64a.74.74,0,0,1-.71-.85,19.52,19.52,0,0,1,.64-5.83c1.49-4.55,5.17-7.17,11.12-7.17S137,22,138.58,26.6a18.37,18.37,0,0,1,.64,5.55,19.66,19.66,0,0,1-3.4,12L125.76,60.36v.07h12.75a.67.67,0,0,1,.71.71v6.54a.67.67,0,0,1-.71.71h-22a.67.67,0,0,1-.71-.71Z"/><path class="cls-2" d="M153.53,30.15h-.14l-6,4.2c-.35.28-.78.14-.78-.43V26.25a1.21,1.21,0,0,1,.64-1.14l6.23-4.62a2,2,0,0,1,1.21-.43h7a.67.67,0,0,1,.71.72v46.9a.67.67,0,0,1-.71.71h-7.44a.67.67,0,0,1-.71-.71Z"/><path class="cls-2" d="M18.64,91.78a14.09,14.09,0,0,1,2.2-7.64l1.42.6a14.79,14.79,0,0,0,0,14.07l-1.42.6A14.06,14.06,0,0,1,18.64,91.78Z"/><path class="cls-2" d="M23.71,94.57H26V88.15h-2V86.73a6.7,6.7,0,0,0,2.57-.94h1.68v8.78h2v1.85H23.71Z"/><path class="cls-2" d="M35.14,91.86l.33-1.12h2.08v5.68H35.14Zm5.56-2c0-.86-.42-1.22-1.11-1.22H35.24v-1.8h5c1.67,0,2.89.87,2.89,3.14v6.4H40.7Z"/><path class="cls-2" d="M53,90.11v6.31H50.53V90c0-.85-.37-1.31-1.12-1.31H47.18v7.74h-2.4V86.88h5.28C51.76,86.88,53,87.85,53,90.11Z"/><path class="cls-2" d="M54.81,88.84l-.2-2H57l.2,2v7.58h-2.4Z"/><path class="cls-2" d="M65.88,86.88v2l-3,7.55h-2.4l3-7.74H58.63V84.44h2.16v2.44Z"/><path class="cls-2" d="M68.33,96.59l-1.25-9.71h2.28L69.84,91c.93-.47,1.13-1.32,1.12-3V86.9h2.28v1c0,2.29-.72,3.88-3.2,4.73l.23,1.92c3.34-.22,4.42-2,4.4-4.8l0-2.92h2.41l0,2.79C77.1,94.28,74.42,96.74,68.33,96.59Z"/><path class="cls-2" d="M78.49,98.81a14.79,14.79,0,0,0,0-14.07l1.41-.6a14.35,14.35,0,0,1,0,15.27Z"/><path class="cls-2" d="M95.7,90v6.4H87.55V86.88h5.27C94.48,86.88,95.7,87.75,95.7,90Zm-2.42,4.6V89.9c0-.86-.41-1.22-1.11-1.22H90v5.94Z"/><path class="cls-2" d="M97.55,88.84l-.2-2h2.4l.2,2v7.58h-2.4Z"/><path class="cls-2" d="M101.56,91.76l.34-1.15H104v9.15h-2.42Zm3.37,2.87c1.45-.13,2.2-.82,2.35-3l.21-2.91H101.7v-1.8h8.38L110,88.43,109.81,91c-.15,3-1.3,5.44-4.7,5.48Z"/><path class="cls-2" d="M115.09,96.44l.22-1.81c2.46.55,3.16-.7,3.13-3,0-2.11-.67-3-1.87-3a1.67,1.67,0,0,0-1.69,1.49l-1,6.31h-2.4L112.59,90l-1.33-3.11h2.5l.67,1.91a2.71,2.71,0,0,1,2.64-2.06c2.34,0,3.64,1.59,3.65,4.85C120.76,95.25,118.69,97.29,115.09,96.44Z"/><path class="cls-2" d="M125,95.07c1.28-.14,1.5-.57,1.48-1.69v-6.5h5c1.66,0,2.86.87,2.86,3.14v6.4H132V89.9c0-.86-.41-1.22-1.13-1.22h-2v4.38c0,2.58-1.15,3.41-3.69,3.65Z"/><path class="cls-2" d="M135.94,94.62h2.43V89.79c0-.85-.34-1.09-.92-1.17l-1.16-.17.29-1.77,2.09.27a2.47,2.47,0,0,1,2.1,2.77v6.7h-4.83Z"/><path class="cls-2" d="M146.05,96.44l.21-1.81c2.47.55,3.17-.7,3.14-3,0-2.11-.67-3-1.87-3a1.69,1.69,0,0,0-1.7,1.49l-1,6.31h-2.4L143.55,90l-1.33-3.11h2.49l.67,1.91A2.72,2.72,0,0,1,148,86.73c2.33,0,3.63,1.59,3.65,4.85C151.71,95.25,149.65,97.29,146.05,96.44Z"/><path class="cls-2" d="M154,90.64a3.57,3.57,0,0,1,.47-2H153v-1.8h5v1.8h-1.25a4.86,4.86,0,0,0-.27,2v5.78H154Z"/><path class="cls-2" d="M159.38,91.86l.33-1.12h2.08v5.68h-2.41Zm5.56-2c0-.86-.42-1.22-1.11-1.22h-4.35v-1.8h5c1.67,0,2.89.87,2.89,3.14v6.4h-2.42Z"/><path class="cls-2" d="M29.65,114.9a14.06,14.06,0,0,1,2.2-7.63l1.41.6a14.79,14.79,0,0,0,0,14.07l-1.41.6A14.09,14.09,0,0,1,29.65,114.9Z"/><path class="cls-2" d="M34.68,118.23c2.76-2.66,4.65-4.48,4.65-6a1.49,1.49,0,0,0-1.59-1.67,2.76,2.76,0,0,0-1.93,1.1l-1.25-1.24a4.46,4.46,0,0,1,3.5-1.67,3.2,3.2,0,0,1,3.45,3.34c0,1.82-1.68,3.75-3.55,5.68.55-.06,1.28-.11,1.78-.11H42v1.92H34.68Z"/><path class="cls-2" d="M46.89,115l.34-1.12h2.08v5.68H46.89Zm5.57-2c0-.87-.42-1.22-1.12-1.22H47V110h5c1.67,0,2.88.87,2.88,3.14v6.4H52.46Z"/><path class="cls-2" d="M64.7,113.23v6.32H62.29v-6.43c0-.86-.37-1.31-1.12-1.31H58.94v7.74h-2.4V110h5.28C63.52,110,64.7,111,64.7,113.23Z"/><path class="cls-2" d="M66.57,112l-.2-1.95h2.4L69,112v7.59h-2.4Z"/><path class="cls-2" d="M77.63,110v2l-3,7.55h-2.4l3-7.74H70.38v-4.24h2.17V110Z"/><path class="cls-2" d="M80.08,119.72,78.83,110h2.28l.49,4.12c.93-.46,1.13-1.32,1.11-3V110H85v1.06c0,2.29-.71,3.87-3.19,4.73l.23,1.92c3.33-.22,4.41-2.06,4.4-4.8l0-2.92h2.42l0,2.79C88.86,117.41,86.18,119.87,80.08,119.72Z"/><path class="cls-2" d="M90.24,121.94a14.72,14.72,0,0,0,0-14.07l1.42-.6a14.35,14.35,0,0,1,0,15.27Z"/><path class="cls-2" d="M107.45,113.15v6.4H99.31V110h5.26C106.24,110,107.45,110.88,107.45,113.15ZM105,117.74V113c0-.87-.42-1.22-1.12-1.22h-2.21v5.93Z"/><path class="cls-2" d="M109.3,112l-.2-1.95h2.4l.2,1.95v3.66l-2.39.42Z"/><path class="cls-2" d="M121.66,113.23v6.32h-2.41v-6.43c0-.86-.37-1.31-1.12-1.31H115.9v7.74h-2.4V110h5.28C120.48,110,121.66,111,121.66,113.23Z"/><path class="cls-2" d="M123.53,112l-.2-1.95h2.4l.2,1.95v7.59h-2.4Z"/><path class="cls-2" d="M134.59,110v2l-3,7.55H129.2l3-7.74h-4.83v-4.24h2.16V110Z"/><path class="cls-2" d="M137,119.72,135.79,110h2.29l.48,4.12c.93-.46,1.13-1.32,1.12-3V110H142v1.06c0,2.29-.72,3.87-3.2,4.73l.23,1.92c3.33-.22,4.42-2.06,4.4-4.8l0-2.92h2.41l0,2.79C145.82,117.41,143.14,119.87,137,119.72Z"/><path class="cls-2" d="M150.84,119.57l.21-1.81c2.47.55,3.17-.7,3.14-3.06,0-2.1-.67-3-1.87-3a1.68,1.68,0,0,0-1.7,1.48l-1,6.32h-2.4l1.15-6.43L147,110h2.5l.66,1.9a2.71,2.71,0,0,1,2.65-2c2.33,0,3.63,1.58,3.65,4.84C156.5,118.38,154.44,120.42,150.84,119.57Z"/></g></g></svg>