<svg xmlns="http://www.w3.org/2000/svg" width="216" height="103.21" viewBox="0 0 216 103.21"><defs><style>.cls-1{fill:none;stroke:#db5ea5;stroke-miterlimit:10;stroke-width:3px;}.cls-2{fill:#db5ea5;}</style></defs><title>Hiro_Tel_Mobile_p</title><g id="Layer_2" data-name="Layer 2"><g id="Layer_1-2" data-name="Layer 1"><rect class="cls-1" x="1.5" y="1.5" width="213" height="100.21" rx="11.34" ry="11.34"/><path class="cls-2" d="M29.91,80.21v7.68H20.12V76.45h6.33C28.45,76.45,29.91,77.49,29.91,80.21ZM27,85.72V80.07c0-1-.5-1.46-1.34-1.46H23v7.11Z"/><path class="cls-2" d="M32.14,78.79l-.24-2.34h2.88L35,78.79v3.13l0,1.26-2.86.5Z"/><path class="cls-2" d="M47,80.31v7.58H44.1V80.17c0-1-.44-1.56-1.34-1.56H40.07v9.28H37.19V76.45h6.35C45.58,76.45,47,77.61,47,80.31Z"/><path class="cls-2" d="M49.25,78.79,49,76.45H51.9l.24,2.34v9.1H49.25Z"/><path class="cls-2" d="M62.55,76.45v2.38L59,87.89H56.06l3.59-9.28H53.84V73.52h2.6v2.93Z"/><path class="cls-2" d="M65.5,88.09,64,76.45h2.74l.58,5c1.13-.57,1.37-1.59,1.35-3.61V76.47h2.74v1.26c0,2.74-.86,4.65-3.85,5.67l.28,2.3c4-.26,5.31-2.46,5.29-5.75l0-3.5H76l0,3.34C76.06,85.32,72.83,88.27,65.5,88.09Z"/><path class="cls-2" d="M82.09,87.91l.26-2.17c3,.66,3.81-.84,3.77-3.66,0-2.53-.8-3.55-2.25-3.55a2,2,0,0,0-2,1.78l-1.24,7.58H77.7l1.39-7.72-1.61-3.72h3l.8,2.28a3.26,3.26,0,0,1,3.19-2.46c2.8,0,4.36,1.9,4.38,5.81C88.9,86.48,86.42,88.93,82.09,87.91Z"/><path class="cls-2" d="M90.87,78.79l-.24-2.34h2.88l.24,2.34v9.1H90.87Z"/><path class="cls-2" d="M109.7,80.21v7.68H99.9V76.45h6.34C108.24,76.45,109.7,77.49,109.7,80.21Zm-2.9,5.51V80.07c0-1-.5-1.46-1.35-1.46h-2.66v7.11Z"/><path class="cls-2" d="M111.93,78.79l-.24-2.34h2.88l.24,2.34v9.1h-2.88Z"/><path class="cls-2" d="M116.76,82.3l.4-1.39h2.5v11h-2.9Zm4,3.44c1.75-.16,2.65-1,2.83-3.64l.26-3.49h-7V76.45H127l-.1,1.86-.22,3c-.18,3.62-1.56,6.53-5.65,6.57Z"/><path class="cls-2" d="M133,87.91l.26-2.17c3,.66,3.8-.84,3.76-3.66,0-2.53-.8-3.55-2.24-3.55a2,2,0,0,0-2,1.78l-1.25,7.58h-2.88L130,80.17l-1.6-3.72h3l.8,2.28a3.28,3.28,0,0,1,3.19-2.46c2.8,0,4.37,1.9,4.39,5.81C139.84,86.48,137.35,88.93,133,87.91Z"/><path class="cls-2" d="M145,86.26c1.54-.16,1.8-.68,1.78-2V76.45h6.07c2,0,3.45,1,3.45,3.76v7.68h-2.89V80.07c0-1-.5-1.46-1.36-1.46h-2.36v5.25c0,3.09-1.39,4.09-4.45,4.37Z"/><path class="cls-2" d="M158.09,85.72H161V79.93c0-1-.4-1.3-1.1-1.4l-1.41-.2.36-2.12,2.51.32c1.64.22,2.52,1.48,2.52,3.32v8h-5.81Z"/><path class="cls-2" d="M170.26,87.91l.26-2.17c3,.66,3.8-.84,3.76-3.66,0-2.53-.8-3.55-2.24-3.55a2,2,0,0,0-2,1.78l-1.25,7.58h-2.88l1.38-7.72-1.6-3.72h3l.8,2.28a3.27,3.27,0,0,1,3.19-2.46c2.8,0,4.37,1.9,4.39,5.81C177.07,86.48,174.58,88.93,170.26,87.91Z"/><path class="cls-2" d="M179.83,81a4.19,4.19,0,0,1,.56-2.34h-1.8V76.45h5.95v2.16H183a5.83,5.83,0,0,0-.32,2.34v6.94h-2.89Z"/><path class="cls-2" d="M186.29,82.42l.4-1.34h2.5v6.81h-2.9ZM193,80.07c0-1-.5-1.46-1.34-1.46h-5.23V76.45h6c2,0,3.46,1,3.46,3.76v7.68H193Z"/><path class="cls-2" d="M40.05,53.78l.11-9.25-6.5,4a1,1,0,0,1-1.43-.44L30,44.2a1.09,1.09,0,0,1,.33-1.55L36.86,39l-6.5-3.64A1.08,1.08,0,0,1,30,33.84L32.23,30a1,1,0,0,1,1.43-.44l6.5,4-.11-9.26a1,1,0,0,1,1.1-1.1h4.41a1,1,0,0,1,1.1,1.1l-.22,9.26,6.61-4a1,1,0,0,1,1.43.44l2.21,3.86a1.08,1.08,0,0,1-.33,1.54L49.75,39l6.61,3.63a1.09,1.09,0,0,1,.33,1.55l-2.21,3.85a1,1,0,0,1-1.43.44l-6.61-3.85.22,9.14a1,1,0,0,1-1.1,1.1H41.15A1,1,0,0,1,40.05,53.78Z"/><path class="cls-2" d="M64.21,52.56a.77.77,0,0,1,.74-.88l7.35-.74c.51-.07.88.15.88.74a15.06,15.06,0,0,0,.22,3.67,2.68,2.68,0,0,0,2.87,2,2.6,2.6,0,0,0,2.79-1.91c.22-.59.29-1.33.29-5.22s-.07-4.71-.29-5.22c-.44-1.4-1.47-1.84-3.24-1.84h-1.1a.69.69,0,0,1-.73-.73V35.58a.69.69,0,0,1,.73-.73H75.9c1.69,0,2.72-.44,3.16-1.77.22-.51.29-1.17.29-4.85,0-2.79-.07-3.52-.29-4.11a2.59,2.59,0,0,0-2.79-1.91,2.68,2.68,0,0,0-2.87,2,15.11,15.11,0,0,0-.22,3.68c0,.58-.37.8-.88.73L65,27.87a.78.78,0,0,1-.74-.89,18.68,18.68,0,0,1,.66-5.44c1.55-4.7,5.44-7.42,11.47-7.42,6.25,0,10,2.65,11.54,7.35a23.09,23.09,0,0,1,.66,6.76A19.42,19.42,0,0,1,88,34,8.13,8.13,0,0,1,84.2,38.6v.14A7.66,7.66,0,0,1,88,43.3c.36,1.18.51,2.42.51,7s-.22,6.4-.66,7.79c-1.55,4.71-5.37,7.35-11.54,7.35S66.42,62.7,64.87,58A18.64,18.64,0,0,1,64.21,52.56Z"/><path class="cls-2" d="M111.2,23.09v-.15h-6.76a.39.39,0,0,0-.45.44V27.5a.69.69,0,0,1-.73.73H96.64a.69.69,0,0,1-.73-.73v-12a.7.7,0,0,1,.73-.74h23.08a.7.7,0,0,1,.74.74v6.61a2.72,2.72,0,0,1-.15.81L108.11,64a.85.85,0,0,1-1,.74H99.36c-.44,0-.66-.29-.51-.88Z"/><path class="cls-2" d="M127.53,57.48a2.69,2.69,0,0,1,.37-1.39l12.57-20.51c1.61-2.57,2.2-4.26,2.2-8.3a8.8,8.8,0,0,0-.29-3.09,2.68,2.68,0,0,0-2.87-2,2.65,2.65,0,0,0-2.79,2c-.22.59-.29,1.25-.29,4.19,0,.59-.37.81-.89.73l-7.27-.66a.77.77,0,0,1-.74-.88,20.39,20.39,0,0,1,.66-6c1.55-4.7,5.37-7.42,11.54-7.42s9.85,2.65,11.47,7.42a19.2,19.2,0,0,1,.66,5.74,20.34,20.34,0,0,1-3.53,12.42L137.9,56.46v.07h13.22a.69.69,0,0,1,.74.73V64a.69.69,0,0,1-.74.74H128.27a.7.7,0,0,1-.74-.74Z"/><path class="cls-2" d="M166.71,25.22h-.15l-6.25,4.33c-.36.3-.8.15-.8-.44V21.18a1.25,1.25,0,0,1,.66-1.18l6.46-4.78a2,2,0,0,1,1.25-.44h7.28a.7.7,0,0,1,.74.74V64a.7.7,0,0,1-.74.74h-7.72a.69.69,0,0,1-.73-.74Z"/></g></g></svg>