<svg xmlns="http://www.w3.org/2000/svg" width="340" height="580" viewBox="0 0 340 580"><defs><style>.cls-1{fill:#e0279a;}.cls-2,.cls-4{fill:none;stroke:#fff;}.cls-2{stroke-width:2px;}.cls-3{fill:#fff;}.cls-4{stroke-width:3px;}</style></defs><title>Asset 147</title><g id="Layer_2" data-name="Layer 2"><g id="Layer_1-2" data-name="Layer 1"><rect class="cls-1" x="1" y="1" width="338" height="578"/><rect class="cls-2" x="1" y="1" width="338" height="578"/><path class="cls-3" d="M51.48,351.32a.64.64,0,0,0,.68.68h5.91a.64.64,0,0,0,.68-.68V332.69a.37.37,0,0,1,.41-.41H69.5a.65.65,0,0,0,.68-.68v-5.24a.65.65,0,0,0-.68-.68H59.16a.36.36,0,0,1-.41-.4V312.76a.36.36,0,0,1,.41-.4h12a.65.65,0,0,0,.68-.68v-5.24a.64.64,0,0,0-.68-.68h-19a.64.64,0,0,0-.68.68Z"/><path class="cls-3" d="M87.86,326.64H85.48a.36.36,0,0,1-.41-.41V312.76c0-.27.13-.4.41-.4h2.38c4.08,0,5.84,1.7,5.84,7.14S91.94,326.64,87.86,326.64ZM101.66,352c.34,0,.48-.34.34-.68l-6.53-20c3.47-2,5.51-5.78,5.51-11.83,0-10.14-5-13.74-13.19-13.74H78.47a.64.64,0,0,0-.68.68v44.88a.64.64,0,0,0,.68.68h5.92a.64.64,0,0,0,.68-.68V333.5c0-.27.13-.4.41-.4h3.46l5.65,18.42a.69.69,0,0,0,.75.48Z"/><path class="cls-3" d="M108.19,351.32a.64.64,0,0,0,.68.68h19a.64.64,0,0,0,.68-.68v-5.24a.65.65,0,0,0-.68-.68h-12a.36.36,0,0,1-.41-.4V332.35a.37.37,0,0,1,.41-.41h10.34a.64.64,0,0,0,.68-.68V326a.65.65,0,0,0-.68-.68H115.87a.36.36,0,0,1-.41-.4V312.76a.36.36,0,0,1,.41-.4h12a.65.65,0,0,0,.68-.68v-5.24a.64.64,0,0,0-.68-.68h-19a.64.64,0,0,0-.68.68Z"/><path class="cls-3" d="M134.84,351.32a.65.65,0,0,0,.68.68h19a.65.65,0,0,0,.68-.68v-5.24a.65.65,0,0,0-.68-.68h-12a.36.36,0,0,1-.41-.4V332.35a.37.37,0,0,1,.41-.41h10.33a.64.64,0,0,0,.68-.68V326a.65.65,0,0,0-.68-.68H142.53a.36.36,0,0,1-.41-.4V312.76a.36.36,0,0,1,.41-.4h12a.65.65,0,0,0,.68-.68v-5.24a.65.65,0,0,0-.68-.68h-19a.65.65,0,0,0-.68.68Z"/><path class="cls-3" d="M183.4,338.74c0-7.89-2.38-11.15-8.44-13.53l-2.78-1.09c-3.68-1.43-4.49-2.72-4.49-7,0-3.81,1.36-5.58,4.21-5.58,3,0,4.22,2.11,4.36,5.92a.57.57,0,0,0,.74.54l5.44-.82c.41-.13.62-.34.62-.74-.41-7.21-3.74-11.29-11.36-11.29s-11.22,4.35-11.22,12.31c0,7.2,1.9,10.54,8.3,13.05l2.78,1.09c3.61,1.43,4.56,3.06,4.56,8s-1.43,6.6-4.35,6.6c-3.13,0-4.56-1.9-4.76-6.8a.59.59,0,0,0-.75-.61l-5.71.95c-.41.07-.55.34-.55.75.21,8.09,4.08,12.1,11.56,12.1C180.34,352.61,183.4,347.85,183.4,338.74Z"/><path class="cls-3" d="M202.64,352a.64.64,0,0,0,.68-.68V312.76a.36.36,0,0,1,.41-.4h7.07a.65.65,0,0,0,.68-.68v-5.24a.64.64,0,0,0-.68-.68H188.56a.65.65,0,0,0-.68.68v5.24a.65.65,0,0,0,.68.68h7.08a.35.35,0,0,1,.4.4v38.56a.65.65,0,0,0,.68.68Z"/><path class="cls-3" d="M229.3,352a.65.65,0,0,0,.68-.68V333l8.84-26.59c.13-.41,0-.68-.55-.68h-5.85c-.47,0-.68.2-.81.68l-5,17.88h-.21l-5.17-17.88c-.13-.48-.34-.68-.81-.68h-6c-.54,0-.68.27-.54.68L222.7,333v18.29a.64.64,0,0,0,.68.68Z"/><path class="cls-3" d="M243.78,351.32a.64.64,0,0,0,.68.68h19a.64.64,0,0,0,.68-.68v-5.24a.65.65,0,0,0-.68-.68h-12a.35.35,0,0,1-.4-.4V306.44a.65.65,0,0,0-.68-.68h-5.92a.64.64,0,0,0-.68.68Z"/><path class="cls-3" d="M269.82,351.32a.65.65,0,0,0,.68.68h19a.65.65,0,0,0,.68-.68v-5.24a.65.65,0,0,0-.68-.68h-12a.36.36,0,0,1-.41-.4V332.35a.37.37,0,0,1,.41-.41h10.33a.64.64,0,0,0,.68-.68V326a.65.65,0,0,0-.68-.68H277.51a.36.36,0,0,1-.41-.4V312.76a.36.36,0,0,1,.41-.4h12a.65.65,0,0,0,.68-.68v-5.24a.65.65,0,0,0-.68-.68h-19a.65.65,0,0,0-.68.68Z"/><path class="cls-3" d="M52.77,388.64H50.39a.37.37,0,0,1-.41-.41V374.76a.36.36,0,0,1,.41-.4h2.38c4.08,0,5.85,1.7,5.85,7.14S56.85,388.64,52.77,388.64ZM66.57,414c.34,0,.48-.34.34-.68l-6.53-20c3.47-2,5.51-5.78,5.51-11.83,0-10.14-5-13.74-13.19-13.74H43.38a.65.65,0,0,0-.68.68v44.88a.65.65,0,0,0,.68.68H49.3a.64.64,0,0,0,.68-.68V395.5a.36.36,0,0,1,.41-.4h3.47l5.64,18.42a.69.69,0,0,0,.75.48Z"/><path class="cls-3" d="M80.38,397.88l3.4-17.2H84l3.26,17.2ZM70.31,413.32a.52.52,0,0,0,.55.68h5.78a.69.69,0,0,0,.74-.68L79.22,404H88.4l1.84,9.32A.69.69,0,0,0,91,414h5.78a.52.52,0,0,0,.55-.68l-9.79-44.88a.74.74,0,0,0-.75-.68H81.06c-.41,0-.62.27-.75.68Z"/><path class="cls-3" d="M102.48,413.32a.64.64,0,0,0,.68.68h5.23a.64.64,0,0,0,.68-.68V384.08h.41l6,21a.89.89,0,0,0,.89.68h3a.87.87,0,0,0,.88-.68l6-21h.41v29.24a.64.64,0,0,0,.68.68h5.23a.64.64,0,0,0,.68-.68V368.44a.64.64,0,0,0-.68-.68h-5.85c-.61,0-1,.2-1.08.68l-7.48,26h-.28l-7.68-26c-.14-.48-.48-.68-1.09-.68h-5.91a.64.64,0,0,0-.68.68Z"/><path class="cls-3" d="M148.44,397.88l3.4-17.2h.21l3.26,17.2Zm-10.06,15.44a.52.52,0,0,0,.54.68h5.78a.7.7,0,0,0,.75-.68l1.84-9.32h9.18l1.83,9.32a.7.7,0,0,0,.75.68h5.78a.53.53,0,0,0,.55-.68l-9.8-44.88a.73.73,0,0,0-.74-.68h-5.72c-.4,0-.61.27-.74.68Z"/><path class="cls-3" d="M179.66,414a.65.65,0,0,0,.68-.68V374.76a.35.35,0,0,1,.4-.4h7.08a.65.65,0,0,0,.68-.68v-5.24a.65.65,0,0,0-.68-.68H165.58a.64.64,0,0,0-.68.68v5.24a.65.65,0,0,0,.68.68h7.07a.36.36,0,0,1,.41.4v38.56a.64.64,0,0,0,.68.68Z"/><path class="cls-3" d="M214.34,397.88l3.4-17.2h.2l3.26,17.2Zm-10.07,15.44a.52.52,0,0,0,.55.68h5.78a.69.69,0,0,0,.74-.68l1.84-9.32h9.18l1.84,9.32a.69.69,0,0,0,.74.68h5.78a.52.52,0,0,0,.55-.68l-9.79-44.88a.74.74,0,0,0-.75-.68H215c-.41,0-.62.27-.75.68Z"/><path class="cls-3" d="M246.64,414c.4,0,.61-.27.68-.68l9.18-44.88c.06-.41-.07-.68-.62-.68h-5.71a.69.69,0,0,0-.75.68l-5.16,31.21h-.21l-5.37-31.21c-.07-.48-.27-.68-.68-.68h-5.85c-.54,0-.68.27-.61.68l9.18,44.88c.07.41.27.68.68.68Z"/><rect class="cls-3" x="262" y="367.76" width="7.28" height="46.24" rx="0.68"/><path class="cls-3" d="M289.88,414c.41,0,.62-.27.68-.68l9.18-44.88c.07-.41-.06-.68-.61-.68h-5.71a.69.69,0,0,0-.75.68l-5.17,31.21h-.2l-5.37-31.21c-.07-.48-.27-.68-.68-.68H275.4c-.54,0-.68.27-.61.68L284,413.32c.07.41.27.68.68.68Z"/><path class="cls-3" d="M53.51,451.75a.28.28,0,0,0,.29-.29V435c0-.12.05-.18.17-.18h3a.27.27,0,0,0,.29-.29v-2.23A.28.28,0,0,0,57,432H47.5a.28.28,0,0,0-.29.29v2.23a.27.27,0,0,0,.29.29h3c.12,0,.17.06.17.18v16.44a.28.28,0,0,0,.29.29Z"/><path class="cls-3" d="M67.77,451.75a.27.27,0,0,0,.29-.29v-9.6c0-3-1.16-4.35-3.24-4.35a2.85,2.85,0,0,0-2.67,1.65h0v-6.84a.28.28,0,0,0-.29-.29H59.45a.28.28,0,0,0-.29.29v19.14a.28.28,0,0,0,.29.29h2.38a.28.28,0,0,0,.29-.29v-9.19c0-1.37.52-2,1.48-2s1.51.66,1.51,2v9.19a.27.27,0,0,0,.29.29Z"/><path class="cls-3" d="M75,440.15a1.32,1.32,0,0,1,1.36.93,6.28,6.28,0,0,1,.17,2.14c0,.12,0,.18-.17.18h-2.7c-.11,0-.17-.06-.17-.18a6.59,6.59,0,0,1,.17-2.14A1.32,1.32,0,0,1,75,440.15Zm0,11.86a4.12,4.12,0,0,0,4.35-3.39c0-.21,0-.32-.21-.35l-2.23-.44a.29.29,0,0,0-.35.21A1.45,1.45,0,0,1,75,449.28a1.31,1.31,0,0,1-1.37-.92,9.71,9.71,0,0,1-.14-2.41.15.15,0,0,1,.17-.17h5.54a.27.27,0,0,0,.29-.29c0-3.72-.09-4.5-.32-5.2a4.5,4.5,0,0,0-8.32,0c-.23.7-.32,1.48-.32,4.47s.09,3.77.32,4.47A3.92,3.92,0,0,0,74.94,452Z"/><path class="cls-3" d="M84.59,451.75a.27.27,0,0,0,.29-.29v-8.24c0-1.85.93-2.72,2.41-2.72h.47c.17,0,.23,0,.29-.18l.66-2.46c.06-.18,0-.26-.2-.32a3.08,3.08,0,0,0-.52,0,3.15,3.15,0,0,0-3.08,1.91h0v-1.36a.27.27,0,0,0-.29-.29H82.22a.27.27,0,0,0-.29.29v13.4a.27.27,0,0,0,.29.29Z"/><path class="cls-3" d="M94,440.15a1.32,1.32,0,0,1,1.36.93,6.14,6.14,0,0,1,.18,2.14.16.16,0,0,1-.18.18H92.69a.16.16,0,0,1-.18-.18,6.14,6.14,0,0,1,.18-2.14A1.3,1.3,0,0,1,94,440.15ZM94,452a4.12,4.12,0,0,0,4.35-3.39c0-.21,0-.32-.2-.35l-2.24-.44a.27.27,0,0,0-.34.21A1.46,1.46,0,0,1,94,449.28a1.29,1.29,0,0,1-1.36-.92,8.87,8.87,0,0,1-.15-2.41c0-.12.06-.17.18-.17h5.53a.27.27,0,0,0,.29-.29c0-3.72-.08-4.5-.31-5.2a4.51,4.51,0,0,0-8.33,0c-.23.7-.32,1.48-.32,4.47s.09,3.77.32,4.47A3.93,3.93,0,0,0,94,452Z"/><rect class="cls-3" x="100.66" y="432.03" width="2.17" height="5.42" rx="0.29"/><path class="cls-3" d="M109.1,452a4,4,0,0,0,4.32-4.26,4.09,4.09,0,0,0-3-4.27l-1.13-.43c-1.16-.44-1.5-1-1.5-1.65a1.33,1.33,0,0,1,1.36-1.45,1.51,1.51,0,0,1,1.51,1.27.28.28,0,0,0,.34.23l2-.37a.31.31,0,0,0,.2-.38,3.76,3.76,0,0,0-4-3.19A4,4,0,0,0,105,441.6a4.21,4.21,0,0,0,3,4.09l1.13.43c1.16.44,1.51,1,1.51,1.83a1.46,1.46,0,0,1-1.51,1.6,1.65,1.65,0,0,1-1.71-1.63.29.29,0,0,0-.35-.23l-2.09.41a.27.27,0,0,0-.23.34C105,450.62,106.55,452,109.1,452Z"/><path class="cls-3" d="M125,449.57c-.93,0-1.39-.66-1.39-1.85a1.72,1.72,0,0,1,1.94-1.94h1a.15.15,0,0,1,.17.17v1.65A1.77,1.77,0,0,1,125,449.57Zm4.29,2.18a.27.27,0,0,0,.29-.29V442.3c0-3.4-1.21-4.79-4.37-4.79a6.09,6.09,0,0,0-3.8,1.25.3.3,0,0,0-.09.4l.75,1.71a.27.27,0,0,0,.44.12,3.88,3.88,0,0,1,2.32-.81c1.48,0,1.91.69,1.91,2.23v.81c0,.12-.06.18-.17.18H125c-2.29,0-4.26,1.13-4.26,4.43s1.74,4.18,3.33,4.18a2.59,2.59,0,0,0,2.58-1.65h0v1.1a.28.28,0,0,0,.29.29Z"/><path class="cls-3" d="M146.6,451.75a.28.28,0,0,0,.29-.29v-9.6c0-3-1.16-4.35-3.25-4.35a2.85,2.85,0,0,0-2.67,1.65h0v-1.1a.27.27,0,0,0-.29-.29h-2.38a.28.28,0,0,0-.29.29v13.4a.28.28,0,0,0,.29.29h2.38a.27.27,0,0,0,.29-.29v-9.19c0-1.37.52-2,1.48-2s1.51.66,1.51,2v9.19a.27.27,0,0,0,.29.29Z"/><path class="cls-3" d="M153.79,440.15a1.32,1.32,0,0,1,1.36.93,6.14,6.14,0,0,1,.18,2.14.16.16,0,0,1-.18.18h-2.69a.16.16,0,0,1-.18-.18,6.14,6.14,0,0,1,.18-2.14A1.3,1.3,0,0,1,153.79,440.15Zm0,11.86a4.12,4.12,0,0,0,4.35-3.39c0-.21,0-.32-.2-.35l-2.24-.44a.27.27,0,0,0-.34.21,1.46,1.46,0,0,1-1.54,1.24,1.29,1.29,0,0,1-1.36-.92,8.87,8.87,0,0,1-.15-2.41c0-.12.06-.17.18-.17H158a.27.27,0,0,0,.29-.29c0-3.72-.08-4.5-.32-5.2a4.5,4.5,0,0,0-8.32,0c-.23.7-.32,1.48-.32,4.47s.09,3.77.32,4.47A3.93,3.93,0,0,0,153.76,452Z"/><path class="cls-3" d="M170.78,451.75c.21,0,.29-.09.35-.29l3.13-13.4a.2.2,0,0,0-.2-.29h-2.41a.3.3,0,0,0-.32.29l-1.59,8.64h0l-1.57-8.64a.3.3,0,0,0-.32-.29h-1.71a.3.3,0,0,0-.32.29l-1.62,8.64h0l-1.56-8.64a.3.3,0,0,0-.32-.29h-2.44a.2.2,0,0,0-.2.29l3.16,13.4c0,.2.11.29.32.29h2a.31.31,0,0,0,.35-.29l1.42-8.12h0l1.45,8.12a.31.31,0,0,0,.35.29Z"/><path class="cls-3" d="M182,451.46a.27.27,0,0,0,.29.29h2.52a.27.27,0,0,0,.29-.29v-8.21c0-.11.06-.17.18-.17h3.33a.15.15,0,0,1,.17.17v8.21a.28.28,0,0,0,.29.29h2.53a.28.28,0,0,0,.29-.29V432.32a.28.28,0,0,0-.29-.29H189a.28.28,0,0,0-.29.29v7.77c0,.12,0,.18-.17.18h-3.33a.16.16,0,0,1-.18-.18v-7.77a.27.27,0,0,0-.29-.29h-2.52a.27.27,0,0,0-.29.29Z"/><path class="cls-3" d="M197.52,451.75a.28.28,0,0,0,.29-.29v-13.4a.28.28,0,0,0-.29-.29h-2.38a.28.28,0,0,0-.29.29v13.4a.28.28,0,0,0,.29.29Zm0-16.65a.27.27,0,0,0,.29-.29v-2.49a.28.28,0,0,0-.29-.29h-2.38a.28.28,0,0,0-.29.29v2.49a.27.27,0,0,0,.29.29Z"/><path class="cls-3" d="M203.44,451.75a.28.28,0,0,0,.29-.29v-8.24c0-1.85.93-2.72,2.4-2.72h.47c.17,0,.23,0,.29-.18l.67-2.46c.05-.18,0-.26-.21-.32a3,3,0,0,0-.52,0,3.13,3.13,0,0,0-3.07,1.91h0v-1.36a.28.28,0,0,0-.29-.29h-2.38a.28.28,0,0,0-.29.29v13.4a.28.28,0,0,0,.29.29Z"/><path class="cls-3" d="M214.46,444.76c0,2.84,0,3.13-.15,3.54a1.5,1.5,0,0,1-2.81,0c-.12-.41-.15-.7-.15-3.54s0-3.13.15-3.54a1.5,1.5,0,0,1,2.81,0C214.43,441.63,214.46,441.92,214.46,444.76Zm2.95,0c0-2.9-.08-3.65-.31-4.38a4.5,4.5,0,0,0-8.39,0c-.23.73-.31,1.48-.31,4.38s.08,3.65.31,4.38a4.5,4.5,0,0,0,8.39,0C217.33,448.41,217.41,447.66,217.41,444.76Z"/><path class="cls-3" d="M228.26,451.75a.27.27,0,0,0,.29-.29v-13.4a.27.27,0,0,0-.29-.29h-2.38a.28.28,0,0,0-.29.29v13.4a.28.28,0,0,0,.29.29Zm0-16.65a.27.27,0,0,0,.29-.29v-2.49a.27.27,0,0,0-.29-.29h-2.38a.28.28,0,0,0-.29.29v2.49a.27.27,0,0,0,.29.29Z"/><path class="cls-3" d="M240.12,451.75a.27.27,0,0,0,.29-.29v-9.6c0-3-1.16-4.35-3.25-4.35a2.84,2.84,0,0,0-2.66,1.65h0v-1.1a.28.28,0,0,0-.29-.29H231.8a.28.28,0,0,0-.29.29v13.4a.28.28,0,0,0,.29.29h2.38a.28.28,0,0,0,.29-.29v-9.19c0-1.37.52-2,1.48-2s1.5.66,1.5,2v9.19a.28.28,0,0,0,.29.29Z"/><path class="cls-3" d="M253.75,451.92a.27.27,0,0,0,.29-.29v-2.14a.27.27,0,0,0-.29-.29h-.35c-.78,0-1.13-.38-1.13-1.19v-7.8a.16.16,0,0,1,.18-.18h1.3a.27.27,0,0,0,.29-.29v-1.68a.27.27,0,0,0-.29-.29h-1.3c-.12,0-.18-.06-.18-.17v-3.83a.27.27,0,0,0-.29-.29H249.6a.27.27,0,0,0-.28.29v3.83c0,.11-.06.17-.18.17h-.84a.28.28,0,0,0-.29.29v1.68a.27.27,0,0,0,.29.29h.84a.16.16,0,0,1,.18.18v7.86c0,2.78,1.13,3.85,3.56,3.85Z"/><path class="cls-3" d="M261.93,444.76a15,15,0,0,1-.14,3.54,1.38,1.38,0,0,1-1.43,1,1.36,1.36,0,0,1-1.39-1,44.83,44.83,0,0,1,0-7.08,1.36,1.36,0,0,1,1.39-1,1.38,1.38,0,0,1,1.43,1A15,15,0,0,1,261.93,444.76Zm3,0c0-2.9-.09-3.65-.32-4.38a4.49,4.49,0,0,0-8.38,0c-.23.73-.32,1.48-.32,4.38s.09,3.65.32,4.38a4.49,4.49,0,0,0,8.38,0C264.8,448.41,264.89,447.66,264.89,444.76Z"/><path class="cls-3" d="M277.45,451.75c.2,0,.29-.09.34-.29l3.14-13.4a.2.2,0,0,0-.21-.29h-2.4a.3.3,0,0,0-.32.29l-1.6,8.64h0l-1.56-8.64a.3.3,0,0,0-.32-.29h-1.71a.3.3,0,0,0-.32.29l-1.63,8.64h0l-1.56-8.64a.3.3,0,0,0-.32-.29h-2.44a.2.2,0,0,0-.2.29l3.16,13.4c0,.2.12.29.32.29h2a.31.31,0,0,0,.35-.29l1.42-8.12h.06l1.45,8.12a.31.31,0,0,0,.35.29Z"/><path class="cls-3" d="M291.54,451.75a.28.28,0,0,0,.29-.29v-9.6c0-3-1.16-4.35-3.25-4.35a2.87,2.87,0,0,0-2.67,1.65h0v-1.1a.27.27,0,0,0-.29-.29h-2.37a.27.27,0,0,0-.29.29v13.4a.27.27,0,0,0,.29.29h2.37a.27.27,0,0,0,.29-.29v-9.19c0-1.37.53-2,1.48-2s1.51.66,1.51,2v9.19a.28.28,0,0,0,.29.29Z"/><path class="cls-3" d="M37.66,518c-.26-.72-.6-1.74-.91-2.88a26.16,26.16,0,0,1-.94-6.24,28.55,28.55,0,0,1,.94-6.29c.31-1.12.65-2.11.88-2.81H35A24.33,24.33,0,0,0,35,518Z"/><path class="cls-3" d="M47.9,513.4V501.65H43.25v-1.9h-2.6V504H45.3v9.75H42.08V516H45.3A2.61,2.61,0,0,0,47.9,513.4Z"/><polygon class="cls-3" points="57.65 503.99 57.65 501.65 49.72 501.65 49.72 503.99 53.98 503.99 53.98 516.03 56.59 516.03 56.59 503.99 57.65 503.99"/><polygon class="cls-3" points="65.79 516.03 63.99 501.65 60.23 501.65 60.23 503.99 61.76 503.99 62.51 510.15 60.2 510.15 59.47 516.03 62.05 516.03 62.64 511.19 63.24 516.03 65.79 516.03"/><path class="cls-3" d="M75.54,516V503a1.28,1.28,0,0,0-1.3-1.3H71.85l-1.25.86v-.86H67.48V504h.83l-.78,12H70l.78-12h2.16v9.7H71.77V516Z"/><path class="cls-3" d="M80.87,516v-8.5h-2.6V516Zm5.33,0V501.65H78.27V504H83.6v12Z"/><polygon class="cls-3" points="104.4 516.03 104.4 501.65 95.43 501.65 95.43 503.99 96.47 503.99 96.47 513.69 95.17 513.69 95.17 516.03 99.07 516.03 99.07 503.99 101.8 503.99 101.8 516.03 104.4 516.03"/><path class="cls-3" d="M112.38,504l-.6,9.7H110l-.62-9.7Zm2.63-2.34h-8.4l1,14.38h5.05a1.46,1.46,0,0,0,1.58-1.51Z"/><polygon class="cls-3" points="120.47 510.83 120.47 501.65 116.57 501.65 116.57 503.99 117.87 503.99 117.87 510.83 120.47 510.83"/><path class="cls-3" d="M127.46,514.73V501.65h-3.87V504h1.27v9.7h-2.57V516h3.87A1.28,1.28,0,0,0,127.46,514.73Z"/><path class="cls-3" d="M137.19,514.73V501.65h-7.26V504h4.66v9.7h-4.66V516h6A1.29,1.29,0,0,0,137.19,514.73Z"/><path class="cls-3" d="M145.38,508.83a37.7,37.7,0,0,0-1.77-9.1H141c.24.7.57,1.69.89,2.81a29.14,29.14,0,0,1,.93,6.29,26.66,26.66,0,0,1-.93,6.24c-.32,1.14-.65,2.16-.91,2.88h2.65A37.69,37.69,0,0,0,145.38,508.83Z"/><polygon class="cls-3" points="162.93 516.03 162.93 513.69 161.86 513.69 161.86 501.65 155.25 501.65 155.25 503.99 159.26 503.99 159.26 513.69 155 513.69 155 516.03 162.93 516.03"/><polygon class="cls-3" points="168.65 510.83 168.65 501.65 164.75 501.65 164.75 503.99 166.04 503.99 166.04 510.83 168.65 510.83"/><polygon class="cls-3" points="178.91 516.03 178.91 513.69 177.85 513.69 177.85 501.65 171.25 501.65 171.25 503.99 175.25 503.99 175.25 513.69 170.99 513.69 170.99 516.03 178.91 516.03"/><polygon class="cls-3" points="189.57 508.44 189.57 501.65 186.97 501.65 186.97 507.79 186.59 508.18 184.19 501.65 181.59 501.65 183.47 506.54 181.38 508.62 181.38 516.03 183.99 516.03 183.99 509.24 184.32 508.91 186.77 516.03 189.42 516.03 187.47 510.54 189.57 508.44"/><polygon class="cls-3" points="207.78 516.03 207.78 501.65 198.81 501.65 198.81 503.99 199.84 503.99 199.84 513.69 198.54 513.69 198.54 516.03 202.44 516.03 202.44 503.99 205.18 503.99 205.18 516.03 207.78 516.03"/><path class="cls-3" d="M218.31,516V503a1.29,1.29,0,0,0-1.3-1.3h-2.4l-1.24.86v-.86h-3.12V504h.83l-.78,12h2.47l.78-12h2.16v9.7h-1.17V516Z"/><path class="cls-3" d="M226.76,516V504a2.47,2.47,0,0,0-2.6-2.32h-3.9V504h3.9v12Z"/><polygon class="cls-3" points="239.63 518.63 239.63 501.65 235.72 501.65 235.72 503.99 237.03 503.99 237.03 518.63 239.63 518.63"/><rect class="cls-3" x="242.49" y="501.65" width="2.6" height="14.38"/><polygon class="cls-3" points="251.19 510.83 251.19 501.65 247.29 501.65 247.29 503.99 248.59 503.99 248.59 510.83 251.19 510.83"/><path class="cls-3" d="M258.19,514.73V501.65h-3.87V504h1.27v9.7H253V516h3.87A1.28,1.28,0,0,0,258.19,514.73Z"/><path class="cls-3" d="M263.65,518.63v-11.1h-2.6v11.1ZM269,513.4V501.65h-7.93V504h5.33v9.7h-1.3V516h1.3A2.61,2.61,0,0,0,269,513.4Z"/><rect class="cls-3" x="277.95" y="501.65" width="2.6" height="14.38"/><path class="cls-3" d="M289.13,516V504a2.46,2.46,0,0,0-2.6-2.32h-3.9V504h3.9v12Z"/><polygon class="cls-3" points="295.24 510.83 295.24 501.65 291.34 501.65 291.34 503.99 292.64 503.99 292.64 510.83 295.24 510.83"/><path class="cls-3" d="M300.44,516v-8.5h-2.6V516Zm5.33,0V501.65h-7.93V504h5.33v12Z"/><polygon class="cls-3" points="107.96 537.44 107.96 530.65 105.36 530.65 105.36 536.79 104.97 537.18 102.58 530.65 99.98 530.65 101.85 535.54 99.77 537.62 99.77 545.03 102.37 545.03 102.37 538.24 102.71 537.91 105.15 545.03 107.81 545.03 105.86 539.54 107.96 537.44"/><path class="cls-3" d="M112.64,534.55v-4.94h-1.82v6.24Zm3.25,0v-4.94h-1.82v6.24Z"/><polygon class="cls-3" points="127.72 545.03 127.72 530.65 118.75 530.65 118.75 532.99 119.79 532.99 119.79 542.69 118.49 542.69 118.49 545.03 122.39 545.03 122.39 532.99 125.12 532.99 125.12 545.03 127.72 545.03"/><polygon class="cls-3" points="138.77 546.33 138.77 541.39 136.95 541.39 136.95 547.63 138.77 546.33"/><polygon class="cls-3" points="149.51 541.36 149.51 539.18 148.47 539.18 148.47 536.58 145.87 536.58 145.87 539.18 143.58 539.18 146.03 530.65 143.5 530.65 140.98 539.18 140.98 541.36 145.87 541.36 145.87 545.03 148.47 545.03 148.47 541.36 149.51 541.36"/><path class="cls-3" d="M157.31,541.55a1.56,1.56,0,0,1-3.12,0v-7.41a1.56,1.56,0,0,1,3.12,0Zm2.6,0v-7.41a4.18,4.18,0,0,0-8.32,0v7.41a4.18,4.18,0,0,0,8.32,0Z"/><polygon class="cls-3" points="172.78 547.63 172.78 530.65 168.88 530.65 168.88 532.99 170.18 532.99 170.18 547.63 172.78 547.63"/><polygon class="cls-3" points="178.89 539.83 178.89 530.65 174.99 530.65 174.99 532.99 176.29 532.99 176.29 539.83 178.89 539.83"/><polygon class="cls-3" points="184.74 539.83 184.74 530.65 180.84 530.65 180.84 532.99 182.14 532.99 182.14 539.83 184.74 539.83"/><path class="cls-3" d="M195.27,545V532a1.28,1.28,0,0,0-1.3-1.3h-2.63L191,533h1.64v9.7h-2.73v-12h-2.6V545Z"/><path class="cls-3" d="M209.23,530.65h-2.47l-.78,12H200.7l-.15-3.17h3.59l.52-8.87h-2.47l-.34,6.53h-1.51l-.42-6.53h-2.44l.91,14.38h8.4c.93,0,1.56-.44,1.64-1.66Z"/><path class="cls-3" d="M215.84,543.73V530.65H212V533h1.28v9.7h-2.58V545h3.88A1.29,1.29,0,0,0,215.84,543.73Z"/><polygon class="cls-3" points="221.94 539.83 221.94 530.65 218.04 530.65 218.04 532.99 219.34 532.99 219.34 539.83 221.94 539.83"/><polygon class="cls-3" points="227.79 539.83 227.79 530.65 223.9 530.65 223.9 532.99 225.19 532.99 225.19 539.83 227.79 539.83"/><polygon class="cls-3" points="238.59 537.44 238.59 530.65 235.99 530.65 235.99 536.79 235.59 537.18 233.2 530.65 230.6 530.65 232.47 535.54 230.4 537.62 230.4 545.03 233 545.03 233 538.24 233.33 537.91 235.78 545.03 238.43 545.03 236.48 539.54 238.59 537.44"/><path class="cls-3" d="M143.64,204.09c-.71.4-1.37.76-2,1.14a.52.52,0,0,1-.63-.11c-.4-.3-.81-.6-1.21-.92-1.69-1.36-3.42-2.7-5.08-4.11a4.77,4.77,0,0,0-3.12-1.18c-1,0-1.93,0-2.89,0a7.31,7.31,0,0,1-3.15-.8c-1.53-.78-3-1.65-4.53-2.49a2.21,2.21,0,0,1-1-1.65c-.14-.71.57-1.36,1.48-1.39a13.47,13.47,0,0,1,1.89.14l3.54.41,1.61.14c-.59-.65-1-1.18-1.53-1.68a12.47,12.47,0,0,0-3.08-2.32,3.48,3.48,0,0,0-2-.41,22.75,22.75,0,0,0-5.11,1.12,10.89,10.89,0,0,1-4.75.16.88.88,0,0,1-.78-.72,1.52,1.52,0,0,1,.67-1.2c.43-.23.86-.43,1.28-.66s.59-.41.91-.57a3,3,0,0,0,1.5-2.63.58.58,0,0,0-.38-.59,23.69,23.69,0,0,0-2.46-1.35,34.8,34.8,0,0,0-6.5-1.88c-1.26-.27-2.54-.4-3.79-.78s-2.48-.51-3.71-.81-2.6-.68-3.87-1.11a13.16,13.16,0,0,1-3.32-2.11.64.64,0,0,1-.18-.47c0-.63,0-1.26,0-1.9a.59.59,0,0,1,.42-.57,2.39,2.39,0,0,1,1.39-.28c.62.11,1.25.2,1.87.32l2.61.51.15,0c1.14.34,2.29.64,3.41,1a19,19,0,0,0,3.47.69,5.07,5.07,0,0,0-.28-.45l-7.08-8.35a6.58,6.58,0,0,0-3.36-2c-.54-.15-1.07-.32-1.6-.49a9.79,9.79,0,0,0-3.77-.23,10.87,10.87,0,0,1-6.19-1.12c-.69-.37-.81-.94-.17-1.4a16.61,16.61,0,0,1,2.5-1.42c.84-.41,1.73-.71,2.73-1.1-.25-.24-.41-.42-.59-.57a25.91,25.91,0,0,1-3.12-3,4.44,4.44,0,0,1-1-4.1,2.87,2.87,0,0,1,1.37-2.15,9.7,9.7,0,0,0,1.23-1,1.47,1.47,0,0,1,1.35-.35c.07,0,.15,0,.22,0,2.48.69,4.8,1.62,6.27,3.94.76,1.2,1.59,2.36,2.44,3.49a17.59,17.59,0,0,0,1.49,1.56,6.09,6.09,0,0,0,.39-.72c.29-.79.56-1.58.83-2.37.14-.41.28-.82.39-1.23a1.78,1.78,0,0,1,1.36-1.38c.54-.14.61-.19,1,.28a9.75,9.75,0,0,1,2,4.61c.21,1.71.22,3.44.35,5.15.14,2,.18,4,1.25,5.82a23.43,23.43,0,0,0,1.82,2.61,23.9,23.9,0,0,0,3.32,3.36,3,3,0,0,0,.08-.56,3.15,3.15,0,0,0-.1-.75,18.15,18.15,0,0,1-.46-4.76,2.31,2.31,0,0,1,.06-.52c.2-.79.43-1.57.61-2.36a1.55,1.55,0,0,1,1.07-1.17A2.75,2.75,0,0,1,115,164a18.73,18.73,0,0,1,1.44,7.5c0,1.44,0,2.88,0,4.32a3.26,3.26,0,0,0,0,.83,11.84,11.84,0,0,0,2.17,4.57,2.16,2.16,0,0,0,.36.38.86.86,0,0,0,1.39-.25c.39-.91.69-1.85,1.06-2.77a8.81,8.81,0,0,0,.48-4.1,7.09,7.09,0,0,1,0-1.22,1.85,1.85,0,0,1,.82-1.47.62.62,0,0,1,.89.08,4.87,4.87,0,0,1,1.55,3.11,41.16,41.16,0,0,1,0,5.09c-.07.81-.07,1.62-.12,2.43a.9.9,0,0,0,.33.8c.4.35.78.72,1.17,1.09l3.57,3.41a1.27,1.27,0,0,0,1.64.23,6.39,6.39,0,0,0,1.09-.93c.7-.73,1.37-1.49,2.06-2.23a1.34,1.34,0,0,1,.42-.32.79.79,0,0,1,1.23.63,4.43,4.43,0,0,1-.05,1.36,14.15,14.15,0,0,1-.54,1.9,17.22,17.22,0,0,0-.79,4.33,1.9,1.9,0,0,0,.53,1.52l2.58,2.8a25.07,25.07,0,0,1,3.28,4c.39.65.92,1.21,1.37,1.82C143.14,203.26,143.34,203.61,143.64,204.09Z"/><path class="cls-3" d="M128.46,149a68.7,68.7,0,0,1-7,4.26c-.36-.49-.75-1-1.08-1.46-1.76-2.59-3.49-5.21-5.27-7.79-.81-1.19-1.7-2.33-2.58-3.53-.48.21-.9.38-1.31.57-2.59,1.22-5.18,2.43-7.75,3.66a1,1,0,0,1-1.19-.07,13.52,13.52,0,0,1-1.4-1.06,22.09,22.09,0,0,1-5.41-7.72,14.33,14.33,0,0,1-1-6.24,8.54,8.54,0,0,1,.76-2.46c.42-1,.91-2,1.41-3a8.66,8.66,0,0,1,2.34-2.7c3.42-2.87,7.48-4.3,11.75-5.25a15.18,15.18,0,0,1,10.48,1.35,13.57,13.57,0,0,1,4.36,3.51c.54.66,1.09,1.33,1.69,2a6.21,6.21,0,0,1,1.5,3.31,1.46,1.46,0,0,1-.37,1.35c-1.27,1.34-2.5,2.71-3.8,4-1.07,1.09-2.22,2.12-3.33,3.18-.13.13-.25.27-.37.41-.45.55-.48.71-.1,1.32.71,1.15,1.46,2.28,2.18,3.42q2.43,3.87,4.83,7.76C128.06,148.12,128.23,148.51,128.46,149Z"/><path class="cls-3" d="M212.53,65.84a10.79,10.79,0,0,1,.63-1.48c.81-1.35,1.67-2.66,2.5-4a6.57,6.57,0,0,1,2.92-2.26c.64-.32,1.29-.61,1.93-.92a5.67,5.67,0,0,1,3.59-.48,6.05,6.05,0,0,1,4.58,3.21,32.52,32.52,0,0,1,2,5.77c.16.57.27,1.14.43,1.71a9,9,0,0,1,.23,3.27,42.94,42.94,0,0,1-.67,4.5c-2.46-.47-4.82-1.22-7.29-1.82A80.48,80.48,0,0,1,218.59,85a9.91,9.91,0,0,1-3.13-1.7c.16-.45.35-.9.49-1.36.53-1.69,1.07-3.37,1.55-5.07.38-1.37.65-2.77,1-4.15a2.19,2.19,0,0,0-.84-2.4c-1.38-1.14-2.71-2.34-4.05-3.52C213.25,66.51,212.92,66.19,212.53,65.84Z"/><path class="cls-3" d="M105.2,206.09c-.18-.47-.46-1.19-.73-1.92a.61.61,0,0,1,0-.3,9.17,9.17,0,0,1,.89-2.18,2.87,2.87,0,0,1,.44-.55,8.2,8.2,0,0,1,1.81-1.56.94.94,0,0,1,.57-.17,1,1,0,0,0,.33-.06,15.93,15.93,0,0,1,2.68-.29,1.92,1.92,0,0,1,1.18.41,8.55,8.55,0,0,1,1.92,2,6.46,6.46,0,0,1,1,2,.79.79,0,0,1,0,.3,7.06,7.06,0,0,1-.42,1.56,7.77,7.77,0,0,1-.63,1.34,12.09,12.09,0,0,1-1.92,2.06,1.71,1.71,0,0,1-1.21.5c-.35,0-.7,0-1,0a2.67,2.67,0,0,1-.56-.06c-.72-.2-1.43-.42-2.14-.61a1.4,1.4,0,0,1-.66-.4A10.27,10.27,0,0,1,105.2,206.09Z"/><path class="cls-3" d="M178.92,131a36.45,36.45,0,0,1,0,5.21A37.21,37.21,0,0,1,173.69,150a7.48,7.48,0,0,1-4.6,3.55C168,148.41,173.13,136.16,178.92,131Z"/><path class="cls-3" d="M161.57,62.74a24,24,0,0,1-1.67-3,24.66,24.66,0,0,1-1.33-9.57,5,5,0,0,1,1.52-3.5C162.35,49.26,163.24,57.92,161.57,62.74Z"/><path class="cls-3" d="M179.92,111.71c-2.7,8.94-7.5,15.56-13.58,21.6C165.28,127.55,172.57,115.72,179.92,111.71Z"/><path class="cls-3" d="M136.87,138.74c.78-9.3,1.8-17.61,8.63-24.27C146,123.72,142.79,131.29,136.87,138.74Z"/><path class="cls-3" d="M183.75,68.82a41.16,41.16,0,0,1-15.33,17.06C169.07,78.55,176.19,70.63,183.75,68.82Z"/><path class="cls-3" d="M181.09,85.76c-.76,8.66-3.12,15.94-7.83,22.7C171.82,103.82,176.25,90.66,181.09,85.76Z"/><path class="cls-3" d="M137,84.67c-1.48-8,.24-14.64,5-20.5C143.42,67.56,140.58,79.9,137,84.67Z"/><path class="cls-3" d="M157.93,91c-2.16-7.41.95-14.1,2.64-21.21,1.11,2,1.63,6.88,1,11C161.08,84.38,160.27,87.94,157.93,91Z"/><path class="cls-3" d="M135.18,118.76c-2.22-8-3.48-16.06-1-24.28C135.82,102.52,137.19,110.57,135.18,118.76Z"/><path class="cls-3" d="M185.17,120.29c3.05-6.16,6.6-11.8,14.43-13.33C196.28,113.36,191.09,117.21,185.17,120.29Z"/><path class="cls-3" d="M161.84,113.63c.68,5.07-6.25,13.09-11.94,17.87C153,124.46,155,117.68,161.84,113.63Z"/><path class="cls-3" d="M163.17,92.91c-2.26,5.5-9.72,13.33-14.28,14.88C152.1,101.17,155.56,95.33,163.17,92.91Z"/><path class="cls-3" d="M145.71,150.23c3.4-5.41,5.33-11.2,11.06-14.32C156.31,141.76,151.46,148.27,145.71,150.23Z"/><path class="cls-3" d="M144.53,99.73A32.08,32.08,0,0,1,146.36,83C148.73,87.62,148,94.74,144.53,99.73Z"/><path class="cls-3" d="M185.82,146.52a32.06,32.06,0,0,1-6.23,15.65C178.54,157.06,181.16,150.4,185.82,146.52Z"/><path class="cls-3" d="M187.57,137.27c1.78-5.18,4.63-9.39,9.63-11.85C195.91,130.93,192,134.35,187.57,137.27Z"/><path class="cls-3" d="M165.58,54.56c.87-6.53,3.25-12.19,8.56-16.27C173.92,45.1,170.13,50.06,165.58,54.56Z"/><path class="cls-3" d="M150.45,74.42c-1.08-5.14-2.49-10.23-1.08-15.74C152.34,61.54,152.82,68.28,150.45,74.42Z"/><path class="cls-3" d="M175.63,172.78c-3.06-4.27-6.39-8.37-7.31-14C172.19,160.23,175.33,166.2,175.63,172.78Z"/><path class="cls-3" d="M166.93,68.82c1.42-5,2.76-10.09,7.06-14.41C174.09,60.81,171.39,65.22,166.93,68.82Z"/><path class="cls-3" d="M180.29,270.27c1,3.77,1.84,7.3,2.72,10.81.14.55-15.6.94-16.7.92-4.42-.08-9.11.09-13.49-.29a79.85,79.85,0,0,1,.87-9.41s-11.24-7.4-15-9.4c-2.79-1.5-5.2-3.7-8-5.26-4.48-2.52-8.75-5.4-13.24-7.9-9.17-5.12-18.55-10.24-27.3-16.07-5.71-3.8-12.43-7.78-16.68-13.17,2.69-1.45,7.57-1,10.61-1.27q5.65-.49,11.33-.92c16.69-1.29,33.41-2.37,50.14-3.1,6-.27,12.24-.76,18.3-.38,11.33.72,41,1.19,52.32,2.09,10,.8,20,1.79,30,2.7q8.67.78,17.34,1.6a5.16,5.16,0,0,1,2.26.66l-1.73,1.25c-9.71,6.69-19.58,13.16-29.21,20a173.55,173.55,0,0,1-34.55,19.27c-5.72,2.34-11.51,4.5-17.27,6.74C182.18,269.45,181.32,269.84,180.29,270.27Z"/><path class="cls-3" d="M102.83,97.9a15.48,15.48,0,0,0,1.82,3,2.1,2.1,0,0,0,.9.68c.64.25,1.28.51,1.91.78a9.56,9.56,0,0,0,4.34.83,2.24,2.24,0,0,0,1-.2,28,28,0,0,0,2.48-1.85,9.12,9.12,0,0,0,2-2.18A15.46,15.46,0,0,0,119,95.21a1.47,1.47,0,0,0,0-.69,12,12,0,0,0-1.43-3.73,11,11,0,0,0-3.13-3.5,1.93,1.93,0,0,0-1.15-.42c-.47,0-.94-.07-1.41-.06-1.09,0-2.18.14-3.26.11a3.55,3.55,0,0,0-1.89.56l-.51.32a11.26,11.26,0,0,0-2.68,2.28,12.18,12.18,0,0,0-1.82,3.39,1.17,1.17,0,0,0-.07.52A19.69,19.69,0,0,0,102.83,97.9Zm19.45-12.16a15,15,0,0,1,1.17,4.06,27.5,27.5,0,0,1,.35,5.36,12.18,12.18,0,0,1-1,4.27,6.83,6.83,0,0,1-1.54,2.2c-1,1-2,2-3.11,3a13.08,13.08,0,0,1-4.29,2.41c-.87.32-1.75.61-2.64.84a6.59,6.59,0,0,1-3.49-.21c-.85-.24-1.68-.55-2.53-.81a5.67,5.67,0,0,1-2.19-1.48c-.89-.82-1.78-1.65-2.6-2.54A12,12,0,0,1,98,98.49a41.61,41.61,0,0,1-2-14.73,30.7,30.7,0,0,1,1.62-8.64A8.12,8.12,0,0,1,98.71,73c.19-.27.4-.53.57-.8a3.34,3.34,0,0,1,3.69-1.6A24.37,24.37,0,0,1,110,73a16.6,16.6,0,0,1,3.92,2.9c1.56,1.54,3.15,3,4.68,4.62a16.54,16.54,0,0,1,3.32,4.34C122,85.14,122.14,85.44,122.28,85.74Z"/><path class="cls-3" d="M148.84,176.59l2-.73a5,5,0,0,0-2-2l-1.38.81Zm-.65-12.93-2.94-.48.55,2.3,2.49.18ZM160,175.37c-.28-.42-.46-.71-.67-1-1.07-1.36-1.07-1.35-2.8-1.1-.44.07-.87.13-1.3.22-.28.05-.55.14-1,.27,1,.82,1.91,1.52,2.8,2.2a.79.79,0,0,0,.6.11C158.4,175.89,159.13,175.64,160,175.37Zm1.86,15.73c.41-.12.89-.25,1.35-.43a.84.84,0,0,0,.45-.42c.31-.68.57-1.38.85-2.08a.82.82,0,0,0-.33-1.06c-.2-.14-.42-.26-.63-.39a1.67,1.67,0,0,0-2.11.52c-.37.72-.61,1.5-.91,2.25l1.17,1.54A.65.65,0,0,0,161.89,191.1Zm-.11,9.28a25.79,25.79,0,0,1-5.16,2.47,1.51,1.51,0,0,1-1.08-.1c-.73-.35-1.42-.79-2.11-1.21-.38-.23-.69-.57-1.07-.76a3.2,3.2,0,0,1-1.67-2.36c-.4-1.81-.9-3.59-1.24-5.41a20.74,20.74,0,0,0-2.53-7c-.93-1.53-1.87-3-2.84-4.54a4.59,4.59,0,0,0-1.09-1.15,75.3,75.3,0,0,1-8.64-7.81c-.77-.78-1.58-1.53-2.39-2.27a2.58,2.58,0,0,1-.85-1.42,26,26,0,0,1-.23-9.35,1,1,0,0,1,.28-.57c.58-.57,1.17-1.12,1.8-1.65a1.15,1.15,0,0,1,.69-.21c2.5-.08,5-.13,7.51-.22a15.35,15.35,0,0,1,6.64,1.49q5,2.21,10,4.46a9.27,9.27,0,0,1,1.67,1,49.48,49.48,0,0,1,6.67,6.19,16.88,16.88,0,0,1,2.39,4c.29.56.5,1.16.83,1.69a5.19,5.19,0,0,1,.74,3.13c-.19,3.54-.32,7.08-.49,10.61a7.2,7.2,0,0,1-1.19,2.94,26.22,26.22,0,0,1-4.2,5.63A11.21,11.21,0,0,1,161.78,200.38Z"/><path class="cls-3" d="M190.49,197.48c-.67.55-.6,1.32-.65,2.05,0,.16.16.33.25.49l.57.95c.06.09.08.24.16.28a5.42,5.42,0,0,0,3.43.88,3.43,3.43,0,0,0,1.64-1.53c0-.09.06-.21,0-.27-.62-.94-.63-2.3-1.95-2.74a.53.53,0,0,1-.25-.22c-.43-.74-.71-.85-1.55-.7-.44.07-.89.07-1.35.1C190.7,197.05,190.66,197.34,190.49,197.48ZM200,191a15.4,15.4,0,0,0-5.15-6,11.26,11.26,0,0,0-2.19-.83c-.7-.25-1.41-.47-2.1-.74a.29.29,0,0,1-.15-.24c-.89-.11-1.69-.18-2.46-.33s-1.57-.47-2.37-.55a12.84,12.84,0,0,0-2.31.13c-.14,0-.26.17-.45.31l2.29.82,6.06,2.22a5.6,5.6,0,0,1,.89.5,19.61,19.61,0,0,1,2.55,1.61c.69.58,1.43,1.09,2.08,1.7,1.34,1.27,2.63,2.58,4,3.88l.26-.12A16.42,16.42,0,0,0,200,191Zm60.77-52.32c-1.62.44-3.23.89-4.85,1.3s-3.16.73-4.74,1.11c-1.41.34-2.81.69-4.2,1.09a23.19,23.19,0,0,0-4.72,1.9,16.26,16.26,0,0,0-3.79,2.65c-1.27,1.28-2.7,2.4-3.94,3.71a20.9,20.9,0,0,0-1.91,2.77c-.42.63-.87,1.23-1.24,1.88-1.14,2.08-2.26,4.16-3.37,6.26a26.79,26.79,0,0,0-1.6,3.22c-.65,1.71-1.15,3.48-1.72,5.22-.37,1.13-.76,2.25-1.14,3.38-.47,1.4-.92,2.8-1.4,4.2-.22.63-.48,1.25-.73,1.88-.74,1.9-1.46,3.82-2.22,5.71a33.3,33.3,0,0,1-1.54,3.51c-1.14,2.09-2,4.35-3.79,6-1.54,1.47-3,3-4.57,4.47a19.94,19.94,0,0,1-2.42,1.83,5.41,5.41,0,0,1-1.33.63q-2.75,1-5.5,1.89c-1.72.56-3.45,1.09-5.18,1.61s-3.48,1-5.21,1.54-3.49,1.23-5.24,1.82l-5.6,1.87c-.63.22-.82.14-.94-.5-.29-1.57-.67-3.13-.84-4.72a41.86,41.86,0,0,1-.21-5.37,22.45,22.45,0,0,1,.55-3.71c.29-1.41.65-2.8,1-4.2.24-1,.5-1.92.76-2.87.44-1.58.88-3.16,1.35-4.72.34-1.15.7-2.29,1.13-3.41.58-1.53,1.2-3,1.89-4.53a18.27,18.27,0,0,1,1.44-2.45c1.38-2.16,2.71-4.36,4.22-6.43a32.3,32.3,0,0,1,6-6.51c1-.74,1.81-1.58,2.7-2.38l3.89-3.52a7.82,7.82,0,0,1,.6-.55c2.17-1.66,4.34-3.3,6.52-4.95.88-.66,1.74-1.36,2.67-2,1.67-1.08,3.37-2.12,5.07-3.14,1.5-.89,3-1.8,4.55-2.59,2.17-1.1,4.38-2.12,6.6-3.1,1.22-.54,2.51-.93,3.76-1.42a7.52,7.52,0,0,0,2.9-1.5,15.88,15.88,0,0,0,3.71-6c.57-1.65,1.28-3.25,1.83-4.91s1.13-3.59,1.61-5.41.89-3.75,1.38-5.86c2.14,6.53,4,12.94,3.38,19.77,5.23.87,9.91,3.1,14.7,5.27C260.9,138.53,260.85,138.62,260.78,138.64Z"/><path class="cls-3" d="M260.79,182.66c-.1-.33-.18-.66-.28-1a7.17,7.17,0,0,0-1.92-3.15c-2.09-2-6.1-5.88-7.07-6.51.22-1.51,3-11.35,3-11.8l-1.76-.6c-.08.19-.14.32-.2.45-.6,1.49-3.16,9.87-3.57,10,.31-3,.66-4.71,1.14-7.63s1-5.91,1.51-8.91l-2-.74-.37,2.11c-.11.66-.21,1.33-.33,2s-.26,1.37-.39,2.05-.27,1.37-.4,2.06-.23,1.33-.36,2a7.58,7.58,0,0,1-.45,2c-.23-3.56,0-7.12,0-10.68l-2.59-.23c0,1.58,0,3.08,0,4.58s0,3,0,4.56-.1,4.43-.18,4.44q-1.69-6.07-3.41-12.2a9.19,9.19,0,0,0-2.07,1.17l3,13.82-3.28,1a18,18,0,0,0-5.22,1.88,12.65,12.65,0,0,0-3.93,3.31,4.19,4.19,0,0,0-.86,2.2,23.06,23.06,0,0,0,.3,5,8,8,0,0,0,1.12,3.07c.52.8,1.06,1.58,1.57,2.38a9,9,0,0,0,2.8,2.7c1,.66,2.11,1.25,3.18,1.84.74.4,1.51.76,2.31,1.16a8.34,8.34,0,0,1-.29,1.09c-.41.95-.81,1.91-1.29,2.82a9.79,9.79,0,0,1-3.06,3.81c-.46.31-.87.68-1.34,1a5.38,5.38,0,0,1-1.3.63c-1.15.35-2.33.61-3.48,1a10.47,10.47,0,0,1-2.29.47l-8.52.76a3.6,3.6,0,0,0-.81.11c-1.48.5-3,1-4.41,1.54v.12l.51.07c2.12.23,4.24.47,6.36.67,1.77.16,3.54.32,5.31.39a17.25,17.25,0,0,0,3.21-.19,31.47,31.47,0,0,0,5-1.26,8.42,8.42,0,0,0,1.85-.8,10,10,0,0,0,3.52-3.38,76.61,76.61,0,0,0,4.13-7.34c.12-.26.27-.51.41-.77,1.63.19,3.21.38,4.78.55a2,2,0,0,0,.81,0,42,42,0,0,0,5.37-2.25,5.92,5.92,0,0,0,2.5-2.09c.13-.21.37-.54.52-.75a24.38,24.38,0,0,0,3-5.17C261.26,184.18,261.37,184.53,260.79,182.66Z"/><path class="cls-3" d="M230.38,121.41a4.26,4.26,0,0,0-.39-3c-.18-.31-.28-.68-.43-1a3.85,3.85,0,0,0-.41-.81,17.92,17.92,0,0,0-4.34-4.56,7.4,7.4,0,0,0-4-1.46,8.47,8.47,0,0,0-2.83.27c-.45.13-.9.23-1.35.35A12.39,12.39,0,0,0,210,115c-.63.76-1.22,1.57-1.81,2.37a2.88,2.88,0,0,0-.54,1.34,17.49,17.49,0,0,0-.08,3.47,9.37,9.37,0,0,0,.37,2.52,7.89,7.89,0,0,0,3.43,4.29,21.85,21.85,0,0,0,5.84,2.7,4.26,4.26,0,0,0,2.57,0,20.18,20.18,0,0,0,3-1.13,14.51,14.51,0,0,0,4.55-3.2A12.63,12.63,0,0,0,230.38,121.41Zm-24.78-4.32a13.3,13.3,0,0,1,1.68-5.07,12.16,12.16,0,0,1,3.58-3.6,9.46,9.46,0,0,1,3.84-1.26c1.34-.22,2.7-.39,4.05-.51a24,24,0,0,1,2.68,0,1.93,1.93,0,0,1,.64.18l3.22,1.45a11.68,11.68,0,0,1,3,2.33,7.15,7.15,0,0,1,1,1,16.36,16.36,0,0,1,1.37,2.22,13.21,13.21,0,0,1,1.39,6,11,11,0,0,1-2.35,6.85,23.12,23.12,0,0,1-4.24,3.91,12.29,12.29,0,0,1-4.38,2.05,9.17,9.17,0,0,1-5.29-.07c-.94-.31-1.89-.63-2.79-1a19.22,19.22,0,0,1-3.31-2.27,10.84,10.84,0,0,1-2.66-3.07,8.32,8.32,0,0,1-.82-2.15A17.79,17.79,0,0,1,205.6,117.09Z"/><path class="cls-3" d="M225.82,124.2a3.38,3.38,0,0,0-.86-1.58,4.82,4.82,0,0,0-1.57-1.11,1.69,1.69,0,0,0-2,.68.91.91,0,0,0,.37,1.19,4.85,4.85,0,0,0,3.27.91Z"/><path class="cls-3" d="M225,125.37l-.43-.18a5.61,5.61,0,0,0-1.51-.4,2,2,0,0,0-1.4.48.45.45,0,0,0-.13.22,1.55,1.55,0,0,0-.07.23.87.87,0,0,0,.78,1.1,1.66,1.66,0,0,0,1.17-.2,9.63,9.63,0,0,0,1.55-1.16A.41.41,0,0,0,225,125.37Z"/><path class="cls-3" d="M226.28,123a3,3,0,0,0,.21-.5c.1-.42.18-.85.25-1.28a2.22,2.22,0,0,0-.2-1.07,1,1,0,0,0-.54-.64l-.2-.12c-.56-.34-.72-.18-1.1.19a.68.68,0,0,0-.11.78,5.61,5.61,0,0,0,1.08,1.9C225.87,122.44,226.05,122.68,226.28,123Z"/><path class="cls-3" d="M212.58,124.3l.32-.31a5.07,5.07,0,0,0,.91-1.15,1.82,1.82,0,0,0,.11-1.39c0-.07-.08-.13-.14-.19l-.17-.14a.81.81,0,0,0-1.24.26,1.56,1.56,0,0,0-.27,1.07,9.7,9.7,0,0,0,.42,1.77Z"/><path class="cls-3" d="M213.06,125.2c.45-.07.9-.13,1.33-.23a8.36,8.36,0,0,0,1.62-.55,1.19,1.19,0,0,0,.73-1.29,5.47,5.47,0,0,0-.15-.58.5.5,0,0,0-.48-.39,1,1,0,0,0-.34,0,2.9,2.9,0,0,0-1.56,1,12.09,12.09,0,0,0-1.19,2Z"/><path class="cls-3" d="M214.29,125.93a3.08,3.08,0,0,0,.39.32c.36.2.73.4,1.1.58a2.21,2.21,0,0,0,1,.11,1,1,0,0,0,.74-.31l.16-.15c.47-.42.36-.61.14-1.06a.68.68,0,0,0-.69-.31,5.27,5.27,0,0,0-2,.46C214.87,125.69,214.6,125.79,214.29,125.93Z"/><path class="cls-3" d="M218.55,114.39c-.14.22-.24.34-.32.48a6.72,6.72,0,0,0-.78,2.11,2.66,2.66,0,0,0,.64,2.27.91.91,0,0,0,1,.31,1.09,1.09,0,0,0,.79-.8,2.11,2.11,0,0,0,.05-.62,5.5,5.5,0,0,0-.49-2.26A15.36,15.36,0,0,0,218.55,114.39Z"/><path class="cls-3" d="M219.48,114.36c0,.1,0,.17,0,.22.25.51.49,1,.75,1.53a2.31,2.31,0,0,0,.32.45,2.15,2.15,0,0,0,1.72.71.42.42,0,0,0,.38-.19c.08-.12.17-.24.24-.37a1,1,0,0,0,0-1.07,2.41,2.41,0,0,0-2.13-1.23C220.37,114.36,219.94,114.37,219.48,114.36Z"/><path class="cls-3" d="M217.79,114.28a4.14,4.14,0,0,0-.6,0c-.47.07-.95.15-1.42.25a2.61,2.61,0,0,0-1,.63,1.15,1.15,0,0,0-.45.82,2.38,2.38,0,0,1,0,.26c-.12.72.11.81.64,1.07a.78.78,0,0,0,.86-.21,6.48,6.48,0,0,0,1.54-1.87C217.42,114.92,217.59,114.64,217.79,114.28Z"/><path class="cls-3" d="M205.25,82.16a6,6,0,0,0-1.46-4.33,10,10,0,0,0-2.5-2.31,5.76,5.76,0,0,0-3.76-.91,6.46,6.46,0,0,0-4.23,2.19,11.61,11.61,0,0,0-1.92,2.59,10.33,10.33,0,0,1-.7,1.07,12.37,12.37,0,0,0-2.36,7.68,5.94,5.94,0,0,0,1.15,3.72,31.12,31.12,0,0,0,2.43,2.57,3.94,3.94,0,0,0,1.38.87,7.83,7.83,0,0,0,3.47.42,6.54,6.54,0,0,0,4.34-2.11c.36-.4.66-.88,1-1.3a15.27,15.27,0,0,0,2-3.62A16.76,16.76,0,0,0,205.25,82.16Zm-5.71-9.22a3.94,3.94,0,0,1,2.68.62c.36.22.75.4,1.13.59A8.82,8.82,0,0,1,206.67,77a16.39,16.39,0,0,1,1.52,2.42,8.82,8.82,0,0,1,.89,3c.08.73.16,1.46.22,2.19a4,4,0,0,1,0,.85,16.61,16.61,0,0,1-1.66,5.27c-.37.7-.72,1.41-1.11,2.11a7.6,7.6,0,0,1-2.59,2.78,13.08,13.08,0,0,1-4.62,1.85,6.8,6.8,0,0,1-3.84-.19c-.42-.16-.87-.23-1.28-.4s-1.1-.51-1.64-.79c-.29-.14-.56-.34-.85-.48a6.38,6.38,0,0,1-2.42-2,8.29,8.29,0,0,1-1.41-2.68c-.18-.64-.44-1.26-.64-1.9a6.13,6.13,0,0,1,.15-4c.27-.72.48-1.47.72-2.2a19,19,0,0,1,2.1-3.92,32.61,32.61,0,0,1,2.58-3.16,7,7,0,0,1,3-2A9.23,9.23,0,0,1,199.54,72.94Z"/><path class="cls-3" d="M195.52,79.07a3.19,3.19,0,0,1,1.37.93,4.23,4.23,0,0,1,.88,1.54,1.56,1.56,0,0,1-.8,1.78.85.85,0,0,1-1.06-.45,4.42,4.42,0,0,1-.54-3.08C195.41,79.56,195.46,79.33,195.52,79.07Z"/><path class="cls-3" d="M194.37,79.71c0,.15.09.28.12.42a5,5,0,0,1,.24,1.43,1.8,1.8,0,0,1-.57,1.24.41.41,0,0,1-.21.1l-.22,0a.8.8,0,0,1-.94-.81,1.59,1.59,0,0,1,.28-1.06,10.08,10.08,0,0,1,1.21-1.32Z"/><path class="cls-3" d="M196.7,78.75a3.52,3.52,0,0,1,.47-.15c.4,0,.8-.08,1.2-.11a2.21,2.21,0,0,1,1,.27.93.93,0,0,1,.54.56l.09.19c.27.55.1.68-.26,1a.63.63,0,0,1-.73,0,5.18,5.18,0,0,1-1.66-1.16C197.14,79.18,196.94,79,196.7,78.75Z"/><path class="cls-3" d="M192.22,90.36l.37-.16a4.76,4.76,0,0,1,1.31-.37,1.72,1.72,0,0,1,1.22.41.33.33,0,0,1,.11.19.7.7,0,0,1,.06.19.76.76,0,0,1-.66,1,1.48,1.48,0,0,1-1-.16,8.36,8.36,0,0,1-1.36-1Z"/><path class="cls-3" d="M191.62,89.62c.23-.35.44-.72.68-1.05a7.77,7.77,0,0,1,1-1.17,1.09,1.09,0,0,1,1.36-.16c.16.1.3.22.45.33a.48.48,0,0,1,.15.55.76.76,0,0,1-.15.28,2.62,2.62,0,0,1-1.38,1,10.73,10.73,0,0,1-2.11.3Z"/><path class="cls-3" d="M191.45,88.32a2.19,2.19,0,0,1-.13-.46c0-.37-.08-.75-.1-1.14a2,2,0,0,1,.27-.91.88.88,0,0,1,.54-.51l.18-.09c.52-.24.65-.08.95.27a.6.6,0,0,1,0,.69,5,5,0,0,1-1.12,1.56C191.86,87.91,191.68,88.09,191.45,88.32Z"/><path class="cls-3" d="M201.61,87.61c-.23,0-.37.09-.51.11a6.05,6.05,0,0,1-2.08,0,2.43,2.43,0,0,1-1.75-1.29.83.83,0,0,1,0-1,1,1,0,0,1,1-.43,2.05,2.05,0,0,1,.55.16,5.26,5.26,0,0,1,1.8,1.16A15.86,15.86,0,0,1,201.61,87.61Z"/><path class="cls-3" d="M202,86.81c-.09,0-.15-.06-.18-.1q-.56-.55-1.08-1.14a2.16,2.16,0,0,1-.29-.43,2,2,0,0,1-.05-1.71.38.38,0,0,1,.29-.27c.13,0,.26-.07.4-.09a.92.92,0,0,1,.92.35,2.24,2.24,0,0,1,.37,2.24C202.24,86,202.08,86.41,202,86.81Z"/><path class="cls-3" d="M201.46,88.3a3.1,3.1,0,0,1-.18.52c-.22.39-.45.77-.69,1.15a2.27,2.27,0,0,1-.88.68,1,1,0,0,1-.85.12l-.24,0c-.66-.12-.67-.36-.71-.9a.69.69,0,0,1,.45-.67,5.72,5.72,0,0,1,2.13-.72C200.79,88.41,201.09,88.35,201.46,88.3Z"/><path class="cls-3" d="M233.36,106.49a12.64,12.64,0,0,0,1.76-.19,8.73,8.73,0,0,0,2-.77,12.41,12.41,0,0,0,2.47-1.78,7.07,7.07,0,0,0,1.83-3.06,4.16,4.16,0,0,0-.22-3.53,2.24,2.24,0,0,1-.22-.5,5.88,5.88,0,0,0-1.32-2.11c-.52-.57-1.07-1.11-1.64-1.63a11,11,0,0,0-1.22-.91c-.22-.14-.48-.23-.69-.38A9.94,9.94,0,0,0,232.07,90a12.29,12.29,0,0,0-3.86-.4,7.2,7.2,0,0,0-2.08.43,4.83,4.83,0,0,0-1.88,1.61,6.59,6.59,0,0,0-1.05,3c-.09.65-.11,1.3-.21,1.94a2.56,2.56,0,0,0,.18,1.5c.39.87.77,1.75,1.22,2.59a11.37,11.37,0,0,0,2.51,3.28,21.86,21.86,0,0,0,2.61,1.67l.06,0,1.4.43A7.77,7.77,0,0,0,233.36,106.49ZM230.82,86c1.17.12,2.35.19,3.52.37a5,5,0,0,1,1.4.58c.54.27,1,.62,1.61.86a14.6,14.6,0,0,1,3.86,2.75,2.57,2.57,0,0,1,.46.7,10.26,10.26,0,0,1,1,3.31,30.53,30.53,0,0,1,.33,3.58,8.05,8.05,0,0,1-2.51,6.61,21.12,21.12,0,0,1-3.51,2.43,2.84,2.84,0,0,1-1.69.41c-1.17-.12-2.36-.15-3.53-.3a8.89,8.89,0,0,1-4.15-1.83,27.29,27.29,0,0,1-3.44-2.91A7.23,7.23,0,0,1,222,97.58a16.63,16.63,0,0,1,.94-5.93,19.39,19.39,0,0,1,1.89-3.54,1.11,1.11,0,0,1,.35-.33,8.6,8.6,0,0,1,5-1.73l.61,0Z"/><path class="cls-3" d="M235,103.66a2.89,2.89,0,0,1-1.2-.9,4,4,0,0,1-.72-1.43,1.4,1.4,0,0,1,.81-1.56.75.75,0,0,1,.93.45,4,4,0,0,1,.35,2.8C235.15,103.23,235.09,103.43,235,103.66Z"/><path class="cls-3" d="M236.1,103.14c0-.13-.07-.26-.1-.38a4.77,4.77,0,0,1-.15-1.3,1.67,1.67,0,0,1,.57-1.1.6.6,0,0,1,.2-.08l.19,0a.73.73,0,0,1,.82.78,1.39,1.39,0,0,1-.31.93,8.77,8.77,0,0,1-1.14,1.14Z"/><path class="cls-3" d="M234,103.89a2.55,2.55,0,0,1-.44.11c-.36,0-.72,0-1.08,0a1.8,1.8,0,0,1-.86-.29.85.85,0,0,1-.46-.52,1.42,1.42,0,0,0-.08-.18c-.21-.51-.05-.62.29-.89a.57.57,0,0,1,.66,0,4.48,4.48,0,0,1,1.44,1.12C233.57,103.49,233.75,103.67,234,103.89Z"/><path class="cls-3" d="M227.11,101.1l.36-.19a4.74,4.74,0,0,1,1.26-.5,1.66,1.66,0,0,1,1.24.29.37.37,0,0,1,.13.17.77.77,0,0,1,.08.19.75.75,0,0,1-.56,1,1.44,1.44,0,0,1-1-.06,8.38,8.38,0,0,1-1.44-.85S227.14,101.14,227.11,101.1Z"/><path class="cls-3" d="M226.45,100.43c.18-.37.35-.75.56-1.11a7.59,7.59,0,0,1,.93-1.26,1.08,1.08,0,0,1,1.33-.29c.16.08.31.19.47.28a.48.48,0,0,1,.21.53.86.86,0,0,1-.12.3,2.62,2.62,0,0,1-1.27,1.1,11.28,11.28,0,0,1-2.06.51Z"/><path class="cls-3" d="M226.15,99.16a2.41,2.41,0,0,1-.18-.44q-.12-.56-.21-1.11a2,2,0,0,1,.18-.94.9.9,0,0,1,.47-.56l.18-.1c.49-.3.63-.15,1,.17a.62.62,0,0,1,.08.69,4.87,4.87,0,0,1-.95,1.65C226.51,98.71,226.35,98.92,226.15,99.16Z"/><path class="cls-3" d="M234.17,93.74a5.2,5.2,0,0,1,.08.52,6.52,6.52,0,0,1-.18,2.06A2.46,2.46,0,0,1,232.65,98a.83.83,0,0,1-1-.13,1,1,0,0,1-.35-1,2.49,2.49,0,0,1,.2-.54,5.14,5.14,0,0,1,1.3-1.69A15.11,15.11,0,0,1,234.17,93.74Z"/><path class="cls-3" d="M233.41,93.34a.71.71,0,0,1-.11.17c-.41.33-.81.67-1.22,1a2.14,2.14,0,0,1-.45.24,2,2,0,0,1-1.7-.08.39.39,0,0,1-.24-.31c0-.13-.05-.27-.07-.4a1,1,0,0,1,.42-.89,2.25,2.25,0,0,1,2.26-.19C232.67,93,233,93.18,233.41,93.34Z"/><path class="cls-3" d="M234.85,93.94a4.1,4.1,0,0,1,.5.22c.37.25.73.51,1.08.77a2.39,2.39,0,0,1,.61.93,1.08,1.08,0,0,1,.06.86A1.55,1.55,0,0,0,237,97c-.17.65-.41.64-.95.64a.72.72,0,0,1-.63-.5,5.83,5.83,0,0,1-.54-2.17C234.9,94.62,234.87,94.32,234.85,93.94Z"/><rect class="cls-3" x="158" y="475.21" width="23.57" height="5.66"/><line class="cls-4" x1="328.79" y1="11.53" x2="307.54" y2="32.78"/><line class="cls-4" x1="328.79" y1="32.78" x2="307.54" y2="11.53"/></g></g></svg>